<svg xmlns="http://www.w3.org/2000/svg" viewBox="0 0 117.83 96.56"><g id="レイヤー_2" data-name="レイヤー 2"><g id="レイヤー_1-2" data-name="レイヤー 1"><path d="M38.18,16.26c0,3.25,0,5.93.17,7.35.1,1,.31,1.73,1.32,1.87.48.06,1.22.13,1.53.13s.27.1.27.2-.17.28-.54.28c-1.87,0-4-.11-4.17-.11s-2.31.11-3.32.11c-.37,0-.54-.07-.54-.28s.06-.2.27-.2a5.82,5.82,0,0,0,1-.13c.68-.14.85-.89,1-1.87.17-1.42.17-4.1.17-7.35V1.93l-5,.07c-2.1,0-2.91.27-3.45,1.08a5.86,5.86,0,0,0-.58,1c-.1.27-.2.34-.34.34s-.17-.1-.17-.3.68-3.26.75-3.53.2-.64.34-.64a6.16,6.16,0,0,0,1.49.41c1,.1,2.27.17,2.67.17H43.74a13.64,13.64,0,0,0,2.4-.17c.51-.07.82-.17,1-.17s.17.2.17.4c0,1-.1,3.36-.1,3.73s-.1.44-.24.44-.24-.1-.27-.58l0-.37c-.1-1-.92-1.79-4.17-1.86l-4.27-.07Z"/><path d="M71.11,17.72c0,2.78,0,5.05.17,6.23.1.85.17,1.39,1.09,1.53a13.21,13.21,0,0,0,1.32.13.24.24,0,0,1,.27.24c0,.13-.17.24-.51.24-1.63,0-3.52-.11-3.69-.11s-2.07.11-3,.11c-.34,0-.47-.07-.47-.24a.23.23,0,0,1,.23-.24,4.45,4.45,0,0,0,.88-.13c.61-.14.71-.72.82-1.56.13-1.19.13-3.36.13-6.13V14.91c0-.14-.07-.17-.17-.17H55.8c-.1,0-.17,0-.17.17v2.88c0,2.77,0,5,.14,6.16.1.85.2,1.39,1.08,1.53.44.06,1.08.13,1.35.13a.24.24,0,0,1,.24.24c0,.13-.13.24-.47.24-1.66,0-3.56-.11-3.7-.11s-2.06.11-3,.11c-.3,0-.47-.07-.47-.24a.24.24,0,0,1,.24-.24,4.75,4.75,0,0,0,.91-.13c.58-.14.64-.68.78-1.53a58.43,58.43,0,0,0,.17-6.23V12.64c0-4.48,0-5.29-.07-6.2S52.61,5,51.63,4.84c-.23,0-.74-.06-1-.06a.29.29,0,0,1-.24-.24c0-.17.13-.24.47-.24,1.36,0,3.26.07,3.42.07s2-.07,2.95-.07c.34,0,.48.07.48.24a.3.3,0,0,1-.24.24,3.81,3.81,0,0,0-.75.06c-.81.17-1,.58-1.05,1.6s0,1.79,0,6.26v.61c0,.17.07.17.17.17H68.23c.1,0,.17,0,.17-.17V12.7c0-4.47,0-5.35-.07-6.26s-.2-1.46-1.18-1.6c-.24,0-.75-.06-1-.06a.27.27,0,0,1-.24-.24c0-.17.14-.24.48-.24,1.32,0,3.25.07,3.39.07s2.06-.07,2.94-.07c.34,0,.51.07.51.24a.29.29,0,0,1-.27.24,3.87,3.87,0,0,0-.74.06c-.78.17-1,.58-1,1.6s-.07,1.72-.07,6.2Z"/><path d="M80.94,12.64c0-4.48,0-5.29-.07-6.2S80.63,5,79.65,4.84c-.24,0-.74-.06-1-.06a.29.29,0,0,1-.23-.24c0-.17.13-.24.47-.24,1.36,0,3.29.07,3.46.07s6.43,0,7.11,0,1.12-.14,1.36-.17a2.07,2.07,0,0,1,.4-.13c.1,0,.14.13.14.27s-.17.54-.24,1.35c0,.27-.1,1.56-.17,1.9,0,.13-.13.3-.27.3s-.24-.13-.24-.37a3.08,3.08,0,0,0-.17-1c-.2-.47-.5-.67-2.13-.88-.51-.06-4-.1-4.3-.1-.14,0-.17.1-.17.31v7.82c0,.21,0,.31.17.31.37,0,4.3,0,5-.07s1.15-.1,1.45-.41.34-.37.44-.37.17.07.17.24a14.28,14.28,0,0,0-.23,1.59c-.07.58-.14,1.66-.14,1.86s-.07.55-.27.55-.2-.11-.2-.28a2.43,2.43,0,0,0-.14-.94c-.1-.41-.37-.75-1.52-.89-.82-.1-4-.13-4.51-.13-.17,0-.2.1-.2.2v2.41c0,1,0,4.33,0,4.91.07,1.93.61,2.3,3.56,2.3a10.11,10.11,0,0,0,3-.3,2.19,2.19,0,0,0,1.35-2c.07-.34.14-.44.31-.44s.2.24.2.44a24,24,0,0,1-.41,2.78c-.2.74-.51.74-1.66.74-2.23,0-4-.06-5.18-.1s-2-.07-2.47-.07c-.07,0-.65,0-1.29,0s-1.25.07-1.73.07c-.3,0-.47-.07-.47-.24a.23.23,0,0,1,.23-.24,9.26,9.26,0,0,0,.92-.13c.58-.11.64-.68.78-1.53a58.43,58.43,0,0,0,.17-6.23Z"/><path d="M9.23,59.65c-.47-.24-.51-.38-.51-1.29,0-1.7.14-3,.17-3.59,0-.38.11-.55.27-.55s.24.11.24.38a6,6,0,0,0,.1,1.25c.51,2.51,2.75,3.46,5,3.46a4.52,4.52,0,0,0,4.84-4.51c0-2.34-1-3.69-3.89-6.1l-1.53-1.25c-3.59-3-4.4-5.05-4.4-7.35,0-3.63,2.71-6.1,7-6.1a13.32,13.32,0,0,1,3.15.34,6,6,0,0,0,1.19.17c.27,0,.33.07.33.24s-.13,1.28-.13,3.59c0,.54-.07.78-.24.78s-.23-.17-.27-.44a5.92,5.92,0,0,0-.44-1.7c-.2-.37-1.12-1.79-4.23-1.79a3.85,3.85,0,0,0-4.17,3.93c0,1.93.88,3.15,4.13,5.69l1,.74c4,3.15,4.95,5.25,4.95,8a7.05,7.05,0,0,1-2.88,5.63,9,9,0,0,1-5.12,1.42A10.39,10.39,0,0,1,9.23,59.65Z"/><path d="M48.12,51.72c0,2.78,0,5.05.17,6.23.11.85.17,1.39,1.09,1.53a13.21,13.21,0,0,0,1.32.13.24.24,0,0,1,.27.24c0,.13-.17.24-.51.24-1.62,0-3.52-.11-3.69-.11s-2.07.11-3,.11c-.34,0-.47-.07-.47-.24a.23.23,0,0,1,.23-.24,4.55,4.55,0,0,0,.89-.13c.61-.14.71-.72.81-1.56.13-1.19.13-3.36.13-6.13V48.91c0-.14-.06-.17-.17-.17H32.81c-.1,0-.17,0-.17.17v2.88c0,2.77,0,5,.14,6.16.1.85.2,1.39,1.08,1.53.44.06,1.09.13,1.36.13a.23.23,0,0,1,.23.24c0,.13-.13.24-.47.24-1.66,0-3.56-.11-3.69-.11s-2.07.11-3,.11c-.31,0-.48-.07-.48-.24a.24.24,0,0,1,.24-.24,4.75,4.75,0,0,0,.91-.13c.58-.14.65-.68.78-1.53a58.43,58.43,0,0,0,.17-6.23V46.64c0-4.48,0-5.29-.07-6.2s-.23-1.46-1.22-1.6c-.23,0-.74-.06-1-.06a.3.3,0,0,1-.24-.24c0-.17.14-.24.48-.24,1.35,0,3.25.07,3.42.07s2-.07,2.94-.07c.34,0,.48.07.48.24a.3.3,0,0,1-.24.24,3.72,3.72,0,0,0-.74.06c-.82.17-1,.58-1,1.6s0,1.79,0,6.26v.61c0,.17.07.17.17.17H45.24c.11,0,.17,0,.17-.17V46.7c0-4.47,0-5.35-.06-6.26s-.21-1.46-1.19-1.6c-.24,0-.74-.06-1-.06a.26.26,0,0,1-.23-.24c0-.17.13-.24.47-.24,1.32,0,3.25.07,3.39.07s2.07-.07,2.95-.07c.34,0,.5.07.5.24a.29.29,0,0,1-.27.24,3.87,3.87,0,0,0-.74.06c-.78.17-1,.58-1,1.6s-.07,1.72-.07,6.2Z"/><path d="M60.66,51.72c0,2.78,0,5.05.14,6.23.1.85.2,1.39,1.08,1.53.44.06,1.08.13,1.36.13a.23.23,0,0,1,.23.24c0,.13-.13.24-.47.24-1.66,0-3.59-.11-3.73-.11s-2,.11-3,.11c-.3,0-.47-.07-.47-.24a.24.24,0,0,1,.24-.24,4.75,4.75,0,0,0,.91-.13c.58-.14.68-.68.78-1.53.14-1.18.17-3.45.17-6.23V46.64c0-4.48,0-5.29-.07-6.2s-.3-1.43-1-1.56a5,5,0,0,0-.91-.1.26.26,0,0,1-.24-.24c0-.17.14-.24.48-.24,1,0,2.84.07,3,.07s2.07-.07,3-.07c.34,0,.48.07.48.24a.3.3,0,0,1-.24.24,3.81,3.81,0,0,0-.75.06c-.81.17-1,.58-1.05,1.6s0,1.72,0,6.2Z"/><path d="M71.71,56.16c.06,2.37.33,3.08,1.15,3.28a6.79,6.79,0,0,0,1.49.17.23.23,0,0,1,.23.24c0,.17-.2.24-.54.24-1.69,0-2.88-.11-3.15-.11s-1.52.11-2.88.11c-.3,0-.47,0-.47-.24a.23.23,0,0,1,.24-.24A4.59,4.59,0,0,0,69,59.44c.74-.2.84-1,.84-3.59V39.35c0-1.15.17-1.45.41-1.45s.85.57,1.15.88c.47.47,4.81,5.08,9.42,9.82,3,3,6.13,6.47,7.05,7.42l-.31-14.43c0-1.86-.2-2.51-1.12-2.68A9.57,9.57,0,0,0,85,38.78c-.21,0-.24-.17-.24-.27s.24-.21.57-.21c1.36,0,2.78.07,3.12.07s1.32-.07,2.54-.07c.31,0,.54,0,.54.21a.33.33,0,0,1-.34.27,3.82,3.82,0,0,0-.71.06c-1,.21-1,.78-1,2.51l-.06,16.87c0,1.9,0,2.07-.24,2.07s-.61-.24-2.27-1.76c-.31-.27-4.61-4.51-7.76-7.79-3.45-3.63-6.81-7.15-7.72-8.17Z"/><path d="M98,46.64c0-4.48,0-5.29-.07-6.2s-.24-1.46-1.22-1.6c-.24,0-.75-.06-1-.06a.29.29,0,0,1-.23-.24c0-.17.13-.24.47-.24,1.35,0,3.29.07,3.45.07s6.44,0,7.12,0a13.6,13.6,0,0,0,1.35-.17,2.41,2.41,0,0,1,.41-.13c.1,0,.14.13.14.27s-.17.54-.24,1.35c0,.27-.1,1.56-.17,1.9,0,.13-.14.3-.27.3s-.24-.13-.24-.37a3.08,3.08,0,0,0-.17-1c-.2-.47-.51-.67-2.13-.88-.51-.06-4-.1-4.3-.1-.14,0-.17.1-.17.31v7.82c0,.21,0,.31.17.31.37,0,4.3,0,5-.07s1.15-.1,1.45-.41.34-.37.44-.37.17.07.17.24a15.84,15.84,0,0,0-.24,1.59c-.06.58-.13,1.66-.13,1.86s-.07.55-.27.55-.2-.11-.2-.28a2.43,2.43,0,0,0-.14-.94c-.1-.41-.37-.75-1.52-.89-.82-.1-4-.13-4.51-.13-.17,0-.2.1-.2.2v2.41c0,1,0,4.33,0,4.91.06,1.93.61,2.3,3.55,2.3a10,10,0,0,0,3-.3,2.19,2.19,0,0,0,1.36-2c.07-.34.14-.44.3-.44s.21.24.21.44a24,24,0,0,1-.41,2.78c-.2.74-.51.74-1.66.74-2.23,0-4-.06-5.18-.1s-2-.07-2.48-.07c-.06,0-.64,0-1.28,0s-1.26.07-1.73.07c-.3,0-.47-.07-.47-.24a.23.23,0,0,1,.23-.24c.27,0,.65-.1.92-.13.57-.11.64-.68.78-1.53A58.43,58.43,0,0,0,98,51.72Z"/><path d="M4.1,92.9a13,13,0,0,1-4.1-10,13.55,13.55,0,0,1,3.79-9.25c2-2,5.12-3.62,10.34-3.62a28.56,28.56,0,0,1,4.91.41,29.28,29.28,0,0,0,3.45.5c.38,0,.44.17.44.38s-.1.67-.16,1.89-.07,3-.11,3.49-.1.72-.3.72-.27-.24-.27-.72a4.67,4.67,0,0,0-1.42-3.45,11.28,11.28,0,0,0-6.78-1.93c-4.51,0-6.61,1.32-7.79,2.47-2.47,2.37-3,5.39-3,8.84A12.23,12.23,0,0,0,15.28,95c2.54,0,4.54-.3,5.89-1.69a6.5,6.5,0,0,0,1.26-2.85c.06-.37.13-.51.34-.51s.23.24.23.51a34.56,34.56,0,0,1-.74,4.34c-.21.64-.27.71-.88,1a19.71,19.71,0,0,1-6.1.78C10.2,96.56,6.78,95.31,4.1,92.9Z"/><path d="M38.42,73.9c6.71,0,11.79,4.1,11.79,10.8a11.54,11.54,0,0,1-12,11.76c-8.17,0-11.65-6.13-11.65-11.32A11.4,11.4,0,0,1,38.42,73.9Zm.68,21.37c2.67,0,8.06-1.42,8.06-9.75C47.16,78.6,43,75,38.25,75c-5,0-8.57,3.12-8.57,9.38C29.68,91.07,33.71,95.27,39.1,95.27Z"/><path d="M55.83,82.64c0-4.48,0-5.29-.06-6.2s-.24-1.46-1.22-1.6c-.24,0-.75-.06-1-.06a.3.3,0,0,1-.24-.24c0-.17.14-.24.48-.24,1.35,0,3.15.07,3.42.07s2.13-.07,3-.07c.34,0,.51.07.51.24a.29.29,0,0,1-.27.24,3.87,3.87,0,0,0-.74.06c-.78.14-1,.65-1,1.6s-.07,1.72-.07,6.2v4c0,4.16.92,5.89,2.2,7a5.79,5.79,0,0,0,4.44,1.56,6.12,6.12,0,0,0,4.61-2c1.39-1.66,1.69-4,1.69-7V82.64c0-4.48,0-5.29-.07-6.2s-.2-1.46-1.18-1.6c-.24,0-.75-.06-1-.06a.26.26,0,0,1-.23-.24c0-.17.13-.24.47-.24,1.32,0,3,.07,3.22.07s1.62-.07,2.51-.07c.33,0,.47.07.47.24a.26.26,0,0,1-.24.24,3.87,3.87,0,0,0-.74.06c-.82.17-1,.65-1,1.6s0,1.72,0,6.2v3.08c0,3.12-.4,6.61-2.77,8.64a9.06,9.06,0,0,1-6.24,2.1c-1,0-4.1-.07-6.2-2-1.45-1.36-2.61-3.36-2.61-7.56Z"/><path d="M82.16,82.64c0-4.48,0-5.29-.07-6.2s-.24-1.46-1.22-1.6c-.24,0-.75-.06-1-.06a.29.29,0,0,1-.23-.24c0-.17.13-.24.47-.24,1.36,0,3.36.07,3.52.07.31,0,2.82-.07,3.73-.07a9.73,9.73,0,0,1,5.56,1.26A5.06,5.06,0,0,1,95,79.49c0,2.13-.88,4.2-3.66,6.57,2.44,3,4.51,5.66,6.24,7.45,1.59,1.63,2.57,1.9,3.32,2a5.53,5.53,0,0,0,1,.1.26.26,0,0,1,.27.24c0,.17-.17.24-.71.24H99.6a6,6,0,0,1-3.18-.58c-1.29-.68-2.37-2.07-4.07-4.23-1.25-1.56-2.57-3.43-3.21-4.21a.49.49,0,0,0-.41-.17l-3.79-.06c-.14,0-.21.06-.21.23v.68c0,2.78,0,5,.14,6.2.1.85.27,1.39,1.18,1.53a12.67,12.67,0,0,0,1.32.13.21.21,0,0,1,.24.24c0,.13-.13.24-.47.24-1.63,0-3.53-.11-3.66-.11s-2,.11-3,.11c-.3,0-.47-.07-.47-.24a.23.23,0,0,1,.23-.24,4.74,4.74,0,0,0,.92-.13c.58-.14.64-.68.78-1.53a58.43,58.43,0,0,0,.17-6.23Zm2.57,2.44a.43.43,0,0,0,.21.37,10,10,0,0,0,3.28.44,3.92,3.92,0,0,0,2.24-.51c1-.68,1.79-2.2,1.79-4.4,0-3.59-2-5.66-5.15-5.66a12.62,12.62,0,0,0-2.13.17.37.37,0,0,0-.24.34Z"/><path d="M109.87,87.72c0,2.78,0,5,.14,6.23.1.85.23,1.39,1.15,1.53a12.91,12.91,0,0,0,1.35.13.21.21,0,0,1,.24.24c0,.13-.14.24-.47.24-1.63,0-3.53-.11-3.7-.11s-2.2.11-3.08.11c-.34,0-.47-.07-.47-.24s.06-.2.23-.2a3.84,3.84,0,0,0,.88-.14c.61-.14.78-.71.89-1.56.13-1.18.13-3.45.13-6.23V75.62l-4.3.07c-1.87,0-2.58.24-3,.92a4.29,4.29,0,0,0-.47.91c-.07.24-.17.27-.31.27a.23.23,0,0,1-.2-.24c0-.3.58-2.87.64-3.11s.21-.54.31-.54a10.73,10.73,0,0,0,1.32.33,22.47,22.47,0,0,0,2.34.14h11.25a14.26,14.26,0,0,0,2.13-.14c.44-.06.71-.13.85-.13s.13.17.13.34c0,.88-.1,3-.1,3.28s-.14.38-.27.38-.2-.1-.24-.51l0-.31c-.1-.88-.75-1.52-3.59-1.59l-3.73-.07Z"/></g></g></svg>