<svg xmlns="http://www.w3.org/2000/svg" viewBox="0 0 533.01 44.71"><g id="レイヤー_2" data-name="レイヤー 2"><g id="レイヤー_1-2" data-name="レイヤー 1"><path d="M20.87,27.37c0,5.48,0,10,.29,12.38.17,1.65.51,2.91,2.22,3.13a23.32,23.32,0,0,0,2.57.23c.34,0,.45.17.45.35s-.28.45-.91.45c-3.14,0-6.73-.17-7-.17s-3.88.17-5.59.17c-.63,0-.91-.11-.91-.45,0-.18.11-.35.45-.35a8.27,8.27,0,0,0,1.71-.23c1.14-.22,1.43-1.48,1.66-3.13.28-2.4.28-6.9.28-12.38V3.25l-8.44.11c-3.53.06-4.9.46-5.82,1.83A10.17,10.17,0,0,0,.86,7c-.18.45-.35.57-.57.57S0,7.36,0,7c0-.57,1.14-5.47,1.25-5.93S1.6,0,1.82,0A10.54,10.54,0,0,0,4.33.68C6,.86,8.16,1,8.84,1H30.22A21.83,21.83,0,0,0,34.27.68C35.13.57,35.64.4,35.87.4s.29.34.29.68c0,1.71-.18,5.65-.18,6.28s-.17.74-.39.74-.4-.17-.46-1l-.06-.63c-.17-1.71-1.54-3-7-3.14l-7.19-.11Z"/><path d="M76.31,29.83c0,4.67,0,8.49.28,10.49.17,1.42.29,2.34,1.82,2.56a18.52,18.52,0,0,0,2.23.23.41.41,0,0,1,.46.4c0,.23-.29.4-.86.4-2.74,0-5.93-.17-6.22-.17s-3.47.17-5,.17c-.57,0-.8-.11-.8-.4a.39.39,0,0,1,.4-.4,6.41,6.41,0,0,0,1.49-.23c1-.22,1.19-1.19,1.36-2.62.23-2,.23-5.64.23-10.32V25.09c0-.23-.11-.28-.28-.28H50.53c-.17,0-.29.05-.29.28v4.85c0,4.68,0,8.38.23,10.38.17,1.42.34,2.34,1.83,2.56a19,19,0,0,0,2.28.23.39.39,0,0,1,.4.4c0,.23-.23.4-.8.4-2.8,0-6-.17-6.22-.17s-3.48.17-5,.17c-.51,0-.79-.11-.79-.4a.39.39,0,0,1,.4-.4,6.75,6.75,0,0,0,1.53-.23c1-.22,1.09-1.14,1.32-2.56a100.82,100.82,0,0,0,.28-10.49V21.27c0-7.53,0-8.9-.11-10.43s-.4-2.46-2.06-2.69C43.12,8.1,42.26,8,41.8,8a.49.49,0,0,1-.4-.4c0-.28.23-.4.8-.4,2.28,0,5.48.12,5.76.12s3.42-.12,5-.12c.57,0,.8.12.8.4a.49.49,0,0,1-.4.4,5.77,5.77,0,0,0-1.25.11c-1.37.29-1.66,1-1.77,2.69-.06,1.53-.06,3-.06,10.55v1c0,.29.12.29.29.29H71.46c.17,0,.28,0,.28-.29v-1c0-7.53,0-9-.11-10.55s-.34-2.46-2-2.69C69.23,8.1,68.38,8,67.92,8a.43.43,0,0,1-.4-.4c0-.28.23-.4.8-.4,2.23,0,5.48.12,5.7.12s3.48-.12,5-.12c.57,0,.85.12.85.4a.49.49,0,0,1-.46.4,6.06,6.06,0,0,0-1.25.11c-1.31.29-1.6,1-1.71,2.69-.11,1.53-.11,2.9-.11,10.43Z"/><path d="M92.85,21.27c0-7.53,0-8.9-.12-10.43s-.4-2.46-2-2.69C90.28,8.1,89.42,8,89,8a.49.49,0,0,1-.4-.4c0-.28.23-.4.8-.4,2.28,0,5.53.12,5.81.12s10.84,0,12,0c1-.06,1.88-.23,2.28-.29a3.21,3.21,0,0,1,.68-.23c.18,0,.23.23.23.46s-.28.91-.4,2.28c0,.46-.17,2.62-.28,3.19-.06.23-.23.52-.46.52s-.4-.23-.4-.63a5.24,5.24,0,0,0-.28-1.71c-.34-.8-.86-1.14-3.59-1.48-.86-.12-6.68-.17-7.25-.17-.23,0-.28.17-.28.51V23c0,.34,0,.52.28.52.63,0,7.25,0,8.39-.12s1.93-.17,2.45-.68c.34-.35.57-.63.74-.63s.28.11.28.4a26.08,26.08,0,0,0-.39,2.68c-.12,1-.23,2.79-.23,3.14s-.12.91-.46.91-.34-.17-.34-.46a4.23,4.23,0,0,0-.23-1.59c-.17-.69-.63-1.26-2.57-1.49-1.36-.17-6.72-.23-7.58-.23-.29,0-.34.18-.34.35v4c0,1.65-.06,7.29,0,8.26.11,3.25,1,3.88,6,3.88a16.76,16.76,0,0,0,5-.51c1.32-.57,2-1.43,2.29-3.37.11-.57.22-.74.51-.74s.34.4.34.74a41.08,41.08,0,0,1-.68,4.68C110.52,44,110,44,108.07,44c-3.76,0-6.67-.11-8.72-.17s-3.43-.11-4.17-.11c-.11,0-1.08,0-2.16.06s-2.11.11-2.91.11c-.51,0-.8-.11-.8-.4a.39.39,0,0,1,.4-.4,13.63,13.63,0,0,0,1.54-.23c1-.17,1.08-1.14,1.31-2.56a97.36,97.36,0,0,0,.29-10.49Z"/><path d="M140.47,43.17c-.8-.4-.86-.63-.86-2.17,0-2.85.23-5.13.29-6,0-.63.17-.91.45-.91s.4.17.4.62a10.08,10.08,0,0,0,.17,2.11c.86,4.22,4.62,5.82,8.44,5.82,5.48,0,8.16-3.94,8.16-7.59,0-3.93-1.66-6.21-6.56-10.26l-2.57-2.11c-6-5-7.41-8.5-7.41-12.38C141,4.16,145.54,0,152.78,0a22.28,22.28,0,0,1,5.31.57,9.3,9.3,0,0,0,2,.29c.46,0,.57.11.57.39s-.22,2.17-.22,6.05c0,.91-.12,1.31-.4,1.31s-.4-.28-.46-.74A10.24,10.24,0,0,0,158.83,5c-.34-.63-1.88-3-7.13-3-3.93,0-7,2.45-7,6.61,0,3.25,1.48,5.3,6.95,9.58l1.6,1.26c6.73,5.3,8.33,8.84,8.33,13.4a11.82,11.82,0,0,1-4.85,9.46,15,15,0,0,1-8.61,2.4A17.28,17.28,0,0,1,140.47,43.17Z"/><path d="M205.93,29.83c0,4.67.06,8.49.29,10.49.17,1.42.29,2.34,1.83,2.56a18.19,18.19,0,0,0,2.22.23.41.41,0,0,1,.46.4c0,.23-.29.4-.86.4-2.74,0-5.93-.17-6.22-.17s-3.47.17-5,.17c-.57,0-.8-.11-.8-.4a.39.39,0,0,1,.4-.4,6.41,6.41,0,0,0,1.49-.23c1-.22,1.19-1.19,1.36-2.62.23-2,.23-5.64.23-10.32V25.09c0-.23-.11-.28-.28-.28H180.16c-.17,0-.29.05-.29.28v4.85c0,4.68,0,8.38.23,10.38.17,1.42.34,2.34,1.83,2.56a19,19,0,0,0,2.28.23.39.39,0,0,1,.4.4c0,.23-.23.4-.8.4-2.8,0-6-.17-6.22-.17s-3.48.17-5,.17c-.51,0-.79-.11-.79-.4a.38.38,0,0,1,.39-.4,6.75,6.75,0,0,0,1.54-.23c1-.22,1.09-1.14,1.32-2.56a100.82,100.82,0,0,0,.28-10.49V21.27c0-7.53,0-8.9-.11-10.43s-.4-2.46-2.06-2.69c-.4-.05-1.25-.11-1.71-.11a.49.49,0,0,1-.4-.4c0-.28.23-.4.8-.4,2.28,0,5.48.12,5.76.12s3.42-.12,5-.12c.57,0,.8.12.8.4a.49.49,0,0,1-.4.4,5.77,5.77,0,0,0-1.25.11c-1.37.29-1.66,1-1.77,2.69-.06,1.53-.06,3-.06,10.55v1c0,.29.12.29.29.29h20.93c.17,0,.28,0,.28-.29v-1c0-7.53-.05-9-.11-10.55s-.34-2.46-2-2.69C198.86,8.1,198,8,197.55,8a.43.43,0,0,1-.4-.4c0-.28.23-.4.8-.4,2.23,0,5.48.12,5.7.12s3.48-.12,5-.12c.57,0,.85.12.85.4A.49.49,0,0,1,209,8a6.06,6.06,0,0,0-1.25.11c-1.31.29-1.6,1-1.71,2.69-.12,1.53-.12,2.9-.12,10.43Z"/><path d="M227,29.83c0,4.67,0,8.49.23,10.49.17,1.42.34,2.34,1.82,2.56a19.22,19.22,0,0,0,2.28.23.39.39,0,0,1,.4.4c0,.23-.23.4-.8.4-2.79,0-6-.17-6.27-.17s-3.42.17-5,.17c-.51,0-.8-.11-.8-.4a.39.39,0,0,1,.4-.4,6.92,6.92,0,0,0,1.54-.23c1-.22,1.14-1.14,1.31-2.56.23-2,.29-5.82.29-10.49V21.27c0-7.53,0-8.9-.12-10.43s-.51-2.4-1.6-2.63A9.3,9.3,0,0,0,219.23,8a.43.43,0,0,1-.4-.4c0-.28.22-.4.79-.4,1.66,0,4.79.12,5.08.12s3.48-.12,5-.12c.57,0,.8.12.8.4a.49.49,0,0,1-.4.4,5.8,5.8,0,0,0-1.26.11c-1.37.29-1.65,1-1.77,2.69-.05,1.53-.05,2.9-.05,10.43Z"/><path d="M245.63,37.3c.11,4,.57,5.19,1.94,5.53a11.7,11.7,0,0,0,2.51.28.39.39,0,0,1,.4.4c0,.29-.35.4-.92.4-2.85,0-4.84-.17-5.3-.17s-2.57.17-4.85.17c-.51,0-.79-.06-.79-.4a.39.39,0,0,1,.39-.4,7.81,7.81,0,0,0,2.06-.28c1.25-.34,1.42-1.66,1.42-6V9c0-1.94.29-2.45.69-2.45.57,0,1.42,1,1.94,1.48.8.8,8.09,8.55,15.85,16.54,5,5.13,10.32,10.89,11.86,12.49l-.51-24.3c-.06-3.13-.34-4.22-1.88-4.5A16.42,16.42,0,0,0,268,8c-.34,0-.39-.28-.39-.46s.39-.34,1-.34c2.29,0,4.68.12,5.25.12s2.23-.12,4.28-.12c.51,0,.91.06.91.34a.56.56,0,0,1-.57.46,5.89,5.89,0,0,0-1.2.11c-1.65.35-1.76,1.32-1.76,4.22l-.12,28.4c0,3.2-.06,3.48-.4,3.48-.51,0-1-.4-3.82-3-.51-.46-7.75-7.59-13.06-13.12-5.82-6.1-11.46-12-13-13.74Z"/><path d="M289.89,21.27c0-7.53,0-8.9-.12-10.43s-.4-2.46-2-2.69C287.32,8.1,286.46,8,286,8a.49.49,0,0,1-.4-.4c0-.28.23-.4.8-.4,2.28,0,5.53.12,5.81.12s10.84,0,12,0c1-.06,1.88-.23,2.28-.29a3.21,3.21,0,0,1,.68-.23c.18,0,.23.23.23.46s-.28.91-.4,2.28c-.05.46-.17,2.62-.28,3.19-.06.23-.23.52-.46.52s-.4-.23-.4-.63a5.24,5.24,0,0,0-.28-1.71c-.34-.8-.86-1.14-3.59-1.48-.86-.12-6.68-.17-7.25-.17-.22,0-.28.17-.28.51V23c0,.34,0,.52.28.52.63,0,7.25,0,8.39-.12s1.94-.17,2.45-.68c.34-.35.57-.63.74-.63s.28.11.28.4a26.08,26.08,0,0,0-.39,2.68c-.12,1-.23,2.79-.23,3.14s-.12.91-.46.91-.34-.17-.34-.46a4.23,4.23,0,0,0-.23-1.59c-.17-.69-.63-1.26-2.56-1.49-1.37-.17-6.73-.23-7.59-.23a.31.31,0,0,0-.34.35v4c0,1.65-.06,7.29,0,8.26.11,3.25,1,3.88,6,3.88a16.76,16.76,0,0,0,5-.51c1.32-.57,2-1.43,2.29-3.37.11-.57.22-.74.51-.74s.34.4.34.74a41.08,41.08,0,0,1-.68,4.68c-.35,1.25-.86,1.25-2.8,1.25-3.76,0-6.67-.11-8.72-.17s-3.42-.11-4.17-.11c-.11,0-1.08,0-2.16.06s-2.11.11-2.91.11c-.51,0-.8-.11-.8-.4a.39.39,0,0,1,.4-.4,13.63,13.63,0,0,0,1.54-.23c1-.17,1.08-1.14,1.31-2.56a97.36,97.36,0,0,0,.29-10.49Z"/><path d="M341.56,38.55c-5.54-5-6.91-11.46-6.91-16.88A22.81,22.81,0,0,1,341,6.1c3.42-3.42,8.61-6.1,17.4-6.1a49.05,49.05,0,0,1,8.26.68,48.87,48.87,0,0,0,5.82.86c.63.06.74.28.74.63s-.17,1.14-.28,3.19c-.12,1.88-.12,5-.17,5.87s-.17,1.2-.52,1.2-.45-.4-.45-1.2a7.89,7.89,0,0,0-2.4-5.81c-2-1.71-6.39-3.25-11.4-3.25-7.59,0-11.12,2.22-13.12,4.16-4.16,4-5.13,9.07-5.13,14.88,0,10.9,8.38,20.88,20.58,20.88,4.28,0,7.65-.52,9.93-2.86a10.89,10.89,0,0,0,2.11-4.79c.11-.62.23-.85.57-.85s.4.4.4.85a59.14,59.14,0,0,1-1.26,7.3c-.34,1.09-.45,1.2-1.48,1.66-2.28.91-6.62,1.31-10.27,1.31C351.82,44.71,346.06,42.6,341.56,38.55Z"/><path d="M399.33,6.56c11.29,0,19.84,6.9,19.84,18.19,0,10.84-8,19.79-20.13,19.79-13.74,0-19.62-10.32-19.62-19C379.42,17.68,385.47,6.56,399.33,6.56Zm1.14,36c4.5,0,13.57-2.39,13.57-16.42C414,14.49,407,8.38,399,8.38c-8.38,0-14.43,5.25-14.43,15.8C384.61,35.47,391.4,42.54,400.47,42.54Z"/><path d="M428.64,21.27c0-7.53,0-8.9-.11-10.43s-.4-2.46-2.06-2.69c-.39-.05-1.25-.11-1.71-.11a.49.49,0,0,1-.4-.4c0-.28.23-.4.8-.4,2.28,0,5.31.12,5.76.12s3.6-.12,5.08-.12c.57,0,.85.12.85.4a.48.48,0,0,1-.45.4,6.14,6.14,0,0,0-1.26.11c-1.31.23-1.59,1.09-1.71,2.69s-.11,2.9-.11,10.43v6.79c0,7,1.54,9.92,3.71,11.86,2.45,2.22,4.61,2.62,7.47,2.62a10.29,10.29,0,0,0,7.75-3.42c2.34-2.79,2.85-6.79,2.85-11.75v-6.1c0-7.53-.05-8.9-.11-10.43s-.34-2.46-2-2.69c-.4-.05-1.25-.11-1.71-.11a.43.43,0,0,1-.4-.4c0-.28.23-.4.8-.4,2.22,0,5.13.12,5.42.12s2.74-.12,4.22-.12c.57,0,.8.12.8.4a.43.43,0,0,1-.4.4,6.14,6.14,0,0,0-1.26.11c-1.37.29-1.65,1.09-1.77,2.69s-.05,2.9-.05,10.43v5.19c0,5.25-.69,11.12-4.68,14.54a15.17,15.17,0,0,1-10.49,3.54c-1.66,0-6.9-.12-10.44-3.42-2.45-2.28-4.39-5.65-4.39-12.72Z"/><path d="M473,21.27c0-7.53,0-8.9-.11-10.43s-.4-2.46-2-2.69c-.4-.05-1.26-.11-1.71-.11a.49.49,0,0,1-.4-.4c0-.28.23-.4.8-.4,2.28,0,5.64.12,5.93.12.51,0,4.73-.12,6.27-.12,3.19,0,6.73.29,9.35,2.11A8.48,8.48,0,0,1,494.51,16c0,3.59-1.48,7.07-6.16,11.06,4.11,5.13,7.59,9.52,10.49,12.55,2.69,2.73,4.34,3.19,5.59,3.36a9.33,9.33,0,0,0,1.77.17.44.44,0,0,1,.46.4c0,.29-.29.4-1.2.4h-3.14c-2.85,0-4.1-.28-5.36-1-2.16-1.14-4-3.48-6.84-7.13-2.11-2.62-4.33-5.76-5.42-7.07a.76.76,0,0,0-.68-.28l-6.39-.12c-.23,0-.34.12-.34.4v1.14c0,4.68,0,8.44.23,10.44.17,1.42.45,2.34,2,2.56a17.4,17.4,0,0,0,2.23.23.36.36,0,0,1,.4.4c0,.23-.23.4-.8.4-2.74,0-5.93-.17-6.16-.17-.06,0-3.42.17-5,.17-.52,0-.8-.11-.8-.4a.39.39,0,0,1,.4-.4,6.92,6.92,0,0,0,1.54-.23c1-.22,1.08-1.14,1.31-2.56A100.82,100.82,0,0,0,473,29.83Zm4.34,4.11a.7.7,0,0,0,.34.62,16.93,16.93,0,0,0,5.53.75,6.53,6.53,0,0,0,3.77-.86c1.71-1.14,3-3.71,3-7.41,0-6.05-3.31-9.53-8.67-9.53a21,21,0,0,0-3.59.29.61.61,0,0,0-.4.57Z"/><path d="M519.61,29.83c0,4.67,0,8.49.22,10.49.17,1.42.4,2.34,1.94,2.56a18.26,18.26,0,0,0,2.28.23.35.35,0,0,1,.4.4c0,.23-.23.4-.8.4-2.73,0-5.93-.17-6.21-.17s-3.71.17-5.19.17c-.57,0-.8-.11-.8-.4s.11-.34.4-.34a6.25,6.25,0,0,0,1.48-.23c1-.23,1.31-1.2,1.49-2.62.22-2,.22-5.82.22-10.49V9.47l-7.24.11c-3.14.06-4.33.4-5.07,1.54a7.48,7.48,0,0,0-.8,1.54c-.12.4-.29.46-.52.46a.39.39,0,0,1-.34-.4c0-.52,1-4.85,1.08-5.25s.35-.91.52-.91a16.94,16.94,0,0,0,2.22.57c1.43.17,3.37.23,3.94.23h18.93a25.51,25.51,0,0,0,3.59-.23c.74-.12,1.2-.23,1.43-.23s.23.29.23.57c0,1.48-.17,5-.17,5.53,0,.4-.23.63-.46.63s-.34-.17-.4-.86l-.06-.51c-.17-1.48-1.25-2.57-6-2.68l-6.27-.11Z"/></g></g></svg>