<svg xmlns="http://www.w3.org/2000/svg" viewBox="0 0 333.81 81.33"><defs><style>.cls-1{fill:#333;}.cls-2{fill:none;}</style></defs><g id="レイヤー_2" data-name="レイヤー 2"><g id="レイヤー_1-2" data-name="レイヤー 1"><path class="cls-1" d="M35.62,23.17c-.38,0-.41.14-.43.41-.07.5-.77.69-1.2.69s-.65-.07-.65-.72c0-.29.1-2.83.1-3.36,0-.72,0-4,0-4.63,0-.12,0-.19.09-.19a5.43,5.43,0,0,1,1.08.38,3.78,3.78,0,0,0,1.78.48h2.35c.27,0,.7,0,.7-.72,0-1.27,0-1.56-.77-1.56h-4.8c-2.11,0-2.81,0-3,.05a5.15,5.15,0,0,1-.53.07c-.07,0-.12-.07-.19-.17l-.48-.55c-.1-.09-.1-.12-.1-.14s0-.07.1-.07.88.07,1,.09c1.18,0,2.16.07,3.29.07h4.68c.7,0,.77-.26.77-.88,0-.34-.14-1.85-.14-2.16s0-.34.21-.34,1.25.34,1.66.46c.69.19.72.31.72.45s-.55.55-.6.65a2.51,2.51,0,0,0-.12,1.06c0,.55.07.76.79.76h4.27c1,0,1.13,0,1.39-.43.58-1,.77-1,.94-1a6.28,6.28,0,0,1,2.42,1.73c0,.33-.48.33-1.29.33H41.91c-.86,0-.86.15-.86,1.61,0,.31.07.67.69.67h2.93c.43,0,.55,0,.82-.31s.43-.46.6-.46,1.7.94,1.7,1.25c0,.15-.48.65-.5.79a6.77,6.77,0,0,0-.12,1.28c0,.64,0,3.57,0,4.17,0,1-1.29,1-1.39,1-.5,0-.53-.22-.55-.56s-.1-.26-.7-.26H42.08c-.12,0-.29,0-.29.17s2.59,3.55,8.69,5.47c.6.19.67.22.67.29s0,.14-.17.14c-.86,0-1.75,0-2.21.84-.12.24-.16.31-.31.31a18.07,18.07,0,0,1-5.25-4,16.92,16.92,0,0,1-1.88-2.48c-.07-.09-.09-.17-.19-.17S41,23.89,41,24c0,.31,0,1.6,0,1.87,0,.69.14,4.34.14,4.63a1.08,1.08,0,0,1-.43,1,1.7,1.7,0,0,1-.89.36c-.57,0-.65-.48-.65-.79,0-.14.15-3.84.15-4.53,0-1.25,0-1.4-.19-1.4s-1.25,1.06-1.42,1.2a26.79,26.79,0,0,1-8,4.44s-.12,0-.12-.09a7.47,7.47,0,0,1,1.41-1,28.25,28.25,0,0,0,6.46-5.26,6.35,6.35,0,0,0,.67-1.05c0-.22-.19-.22-.41-.22Zm3-3.94c.77,0,.77-.26.77-1.46,0-.63,0-.89-.77-.89H36c-.72,0-.77.29-.77.89,0,1.22,0,1.46.79,1.46ZM36,19.86c-.31,0-.77,0-.77.67,0,1.94,0,2,.77,2h2.59c.75,0,.82-.19.82-1.58,0-.75,0-1.08-.79-1.08Zm5.83-3c-.74,0-.79.19-.79,1.39,0,.72,0,1,.77,1h2.76c.77,0,.77-.17.77-1.39,0-.67,0-1-.77-1Zm2.74,5.64c.79,0,.79-.36.79-1.08,0-1.22,0-1.58-.81-1.58H41.81c-.79,0-.79.38-.79,1.05,0,1.42,0,1.61.79,1.61Z"/><path class="cls-1" d="M58.12,28.83c-.69,0-.69.46-.69.87,0,.69,0,1.46-1.13,1.46-.63,0-.79-.26-.79-1,0-1.73.12-9.41.12-11A24.63,24.63,0,0,0,55.48,16c0-.12-.07-.65-.07-.77s0-.22.22-.22,2.45.46,2.45,1c0,.17-.08.24-.44.63a5,5,0,0,0-.19,1.82c0,1.42,0,7.66,0,8.93,0,.48.07.84.69.84H63a.57.57,0,0,0,.67-.48c0-.14.15-7.56.15-10.68,0-2.14,0-4.85,0-5.07s-.12-1-.12-1.2.05-.19.22-.19,1.24.22,1.51.27c.5.09.81.14.81.45,0,.15-.45.7-.5.82a2.68,2.68,0,0,0-.12,1c-.07,4.44-.07,10.15-.07,14.21,0,.62.19.84.72.84h4.89c.68,0,.72-.38.72-1,0-.94,0-5.14,0-6,0-2.06,0-4.82-.07-5.11s-.1-1-.1-1.18,0-.21.2-.21,2.32.5,2.32,1c0,.1-.38.48-.4.55A14.4,14.4,0,0,0,73.65,19c0,1.08,0,5.88,0,6.87,0,.57,0,3.14,0,3.65a1.2,1.2,0,0,1-1.22,1.34c-.7,0-.72-.53-.72-1.27,0-.39,0-.75-.7-.75Z"/><path class="cls-1" d="M82,20.84c.79,0,1.78,0,2.38,0s.65-.1.65-.24A11.69,11.69,0,0,0,84.51,19c0-.05.08-.12.17-.12C85,18.9,87,20.46,87,21.82a1,1,0,0,1-.94,1c-.62,0-.7-.48-.82-1.2,0-.36-.07-.44-.26-.44a5.54,5.54,0,0,0-1.08.29,10.62,10.62,0,0,0-.12,2.09c0,1,.12,5.62.12,6.55a1.35,1.35,0,0,1-1.27,1.44c-.41,0-.46-.4-.46-1,0-1.08.17-5.91.17-6.89A12.4,12.4,0,0,0,82.26,22c-.05-.19-.12-.24-.43-.24a13.13,13.13,0,0,0-2.21.43,5.09,5.09,0,0,1-.7.41c-.24,0-.86-1.9-.86-1.94s0-.08.12-.08.89.1,1,.12l1.2.05c.58,0,.68-.17,1.49-1.73A52.6,52.6,0,0,0,84.37,14c.22-.6.24-.67.38-.67s2,.91,2,1.27c0,.19,0,.19-.58.36a1.53,1.53,0,0,0-.72.5c-1,1.35-2.44,3.68-3.57,4.95-.1.09-.17.26-.12.33S82,20.84,82,20.84Zm-.55,4c0,.16-.53.67-.6.81-.53,1-1.2,2.67-1.82,3.63,0,.07-.58.86-.82.86a.1.1,0,0,1-.1-.1c0-.07.72-2.2.82-2.56a13.7,13.7,0,0,0,.5-3.2c0-.43,0-.5.15-.5a6.58,6.58,0,0,1,.93.33C81.15,24.37,81.49,24.56,81.49,24.83Zm0-9.15a1.88,1.88,0,0,1,.92,1.49.72.72,0,0,1-.72.77.79.79,0,0,1-.53-.24c-.19-.22-1.06-1.42-1.27-1.66s-1.32-1.2-1.32-1.25.09-.12.19-.12,1.37.41,1.63.41.22-.1.55-.89a10.65,10.65,0,0,0,1-4c0-.1,0-.27.14-.27s2.23.72,2.23,1.23c0,.07,0,.21-.09.26s-.65.29-.75.39c-.28.26-1.34,1.87-1.6,2.23S81,15.13,81,15.34A4,4,0,0,0,81.46,15.68Zm4.21,7.68c-.1-.12-.1-.12-.1-.17s.05,0,.07,0c.46,0,2.64.14,3.15.14a.74.74,0,0,0,.69-.34c.24-.33.36-.48.6-.48.39,0,1.56.68,1.56,1.15a.33.33,0,0,1-.24.29c-.5.19-.5.19-.67.51a16.81,16.81,0,0,1-2.62,4.17,11.11,11.11,0,0,1-3.93,2.79s-.07,0-.07-.05,0-.1.14-.22a25.72,25.72,0,0,0,2.45-2.54,12.56,12.56,0,0,0,2.42-4.42c0-.19-.09-.19-.79-.19-.29,0-1.78.1-2,.1s-.12,0-.22-.15ZM86.94,27a.94.94,0,0,1-.82,1c-.53,0-.57-.63-.69-1.64a6.78,6.78,0,0,0-.65-1.8,1.87,1.87,0,0,1-.1-.26.13.13,0,0,1,.12-.12,3.62,3.62,0,0,1,1,.77A3.26,3.26,0,0,1,86.94,27Zm2.71-6.53a.71.71,0,0,0-.7.27,1.34,1.34,0,0,1-1,.67c-.56,0-.56-.36-.56-1s.1-4.15.1-4.92c0-.41,0-2.37,0-2.81,0-.09,0-.16.15-.16s1.34.79,1.63.79c.48,0,1.94-2.67,2-3.15,0-.16,0-.33.19-.33s1.2.57,1.39.67c.34.17.67.34.67.53s-1,.43-1.15.53a6.78,6.78,0,0,0-1.78,1.65c0,.15,0,.15.46.15h4.61c.5,0,.67,0,.86-.34.53-.82.6-.91.84-.91s1.66.89,1.66,1.41a.68.68,0,0,1-.29.48c-.34.29-.43.39-.43.8s.07,2.16.07,2.56.17,2.64.17,2.84c0,1.08-1.15,1.15-1.27,1.15-.34,0-.39-.1-.53-.58-.07-.29-.39-.29-.55-.29H93.35c-.12,0-.22,0-.22.1s.05.12.46.29c.19.05.69.26.69.55s0,.22-.43.5a.42.42,0,0,0-.14.29,18,18,0,0,0,.86,1.83c.19.36.5,1,.79,1,.58,0,2.21-1.73,2.74-2.33.05-.07.26-.31.31-.31s1.68,1.41,1.68,1.68c0,.09-.07.12-.14.12s-.53,0-.63,0c-.69,0-1.2.24-3.26,1.18-.43.19-.43.22-.43.36a11.34,11.34,0,0,0,4.17,4.22c.77.46.87.48.87.58s-.08.07-.39.1a5.26,5.26,0,0,0-1.36.26,4,4,0,0,1-.73.34,18.79,18.79,0,0,1-4-6.1c-.09-.22-.53-1.49-.57-1.49s-.08.7-.08.82,0,4,0,4.44c0,1.46,0,2-.53,2.4a3.57,3.57,0,0,1-1.87.65c-.14,0-.19-.05-.26-.17a2.91,2.91,0,0,0-.48-.82c-.15-.14-.91-.79-.91-.81s.07-.08.69-.08c1.8,0,1.9-.24,1.9-2,0-1.1,0-6.14-.12-6.84s-.36-.7-.84-.7Zm0-6.5c-.31,0-.63.05-.72.5v1.37c0,.63.45.63.74.63H96c.72,0,.72-.1.72-1.85,0-.65-.48-.65-.72-.65Zm0,3.12c-.27,0-.72,0-.72.67,0,2,0,2.09.72,2.09H96a.6.6,0,0,0,.68-.65c0-2,0-2.11-.7-2.11Z"/><path class="cls-1" d="M112.74,10.06c.45,0,.67.15.67.51s-.19.53-.67.53H107c-.65,0-.65.14-.65,3,0,2.69,0,14.62,0,17.07,0,.55-.12.76-.51.76s-.52-.16-.52-1.58V11.05a.9.9,0,0,1,1-1Z"/><path class="cls-1" d="M129.2,26.22c-.65,0-.77.29-.77,1,0,.45,0,2.56,0,3,0,.87-.48,1.49-1.22,1.49s-.6-.58-.6-.82.09-1.34.09-1.44c0-.84.08-2.28.08-2.44,0-.77-.39-.77-.7-.77h-.84c-.6,0-1.27.05-1.56.07l-.7.05c-.09,0-.09,0-.21-.15l-.53-.6a.2.2,0,0,1-.07-.12s.07,0,.09,0c.48,0,2.62.16,3,.16h.72c.7,0,.75-.31.75-.74,0-1,0-5.5,0-6.41,0-.24,0-.46-.21-.46s-.22.08-.72.94a21.26,21.26,0,0,1-6.75,7.56,8,8,0,0,1-1.75,1s-.14,0-.14-.09,1.25-1.13,1.49-1.35c3.28-3,6.24-8.11,6.24-8.9,0-.36-.34-.36-.6-.36h-3.24c-.68,0-1.64,0-2.52,0-.15,0-.84.08-1,.08s-.09,0-.24-.15l-.48-.57c0-.08-.1-.12-.1-.15s.08-.05.1-.05c.17,0,.94.08,1.11.08,1.36.07,2.25.09,3.24.09h4.77c.79,0,.79-.36.79-.77,0-2.06,0-2.85,0-3.38,0-.17-.22-1.51-.22-1.63s.14-.22.22-.22,2.4.31,2.4.75c0,.14-.51.57-.56.69a14.22,14.22,0,0,0-.26,3.27c0,.84,0,1.29.62,1.29h4.49c1.11,0,1.27,0,1.54-.57.43-1,.57-1.08.77-1.08a7.38,7.38,0,0,1,2.44,1.92c0,.36-.45.36-1.29.36h-6.89c-.31,0-.48,0-.48.21,0,.87,3.91,6.07,9,8.14.53.22.6.22.6.29s-1.39.29-1.65.36a2,2,0,0,0-1,.55c-.19.19-.24.24-.31.24a15.89,15.89,0,0,1-3.55-3.14,21.66,21.66,0,0,1-3.63-6.22c-.12-.31-.17-.43-.38-.43s-.29.33-.29.6c0,2.08,0,5.44,0,7.56,0,.26,0,.69.68.69h.43c.74,0,.89,0,1.15-.69.1-.19.34-.6.55-.6a4.08,4.08,0,0,1,1.63,1.53c0,.39-.4.39-1.29.39Z"/><path class="cls-1" d="M147.93,11.7c0,.14-.62.43-.69.52s-2.88,3.51-2.91,3.6a.24.24,0,0,0,0,.1c0,.14,0,.19.29.62a2.62,2.62,0,0,1,.29,1.2c0,.92-.48,1.47-1.11,1.47s-.69-.87-.69-1.2a5.15,5.15,0,0,0-1.23-3.29,1.18,1.18,0,0,1-.24-.31c0-.05,0-.07.1-.07.38,0,1.92,1.15,2.13,1.15s.53-.7.7-1.08a13.78,13.78,0,0,0,1.27-3.6c0-.48.05-.58.24-.55S147.93,11.41,147.93,11.7Zm.75,8.88c.24.14.41.24.41.45s-.6.82-.7,1a5.35,5.35,0,0,0-.36,1.08c-1.42,5-5.81,8-6.17,8a.07.07,0,0,1-.05-.07c0-.05,0-.1.41-.46a21.32,21.32,0,0,0,4.3-7.49c0-.07,0-.22-.22-.22a19.76,19.76,0,0,0-3.09,1c-.08.05-.44.17-.51.2a1.05,1.05,0,0,1-.36.19c-.41,0-.67-2-.67-2.07s0-.17.09-.17a4.61,4.61,0,0,1,.51.22,2,2,0,0,0,.55.1c.46,0,1-.77,1.49-1.59a34,34,0,0,0,2.88-5.33c.12-.4.17-.52.29-.52s.26.07.93.62c.12.12.8.5.8.65s-.72.72-.82.84c-.53.62-2.83,3.38-3.34,3.89a8.11,8.11,0,0,0-1.13,1.34c0,.12.22.12.29.12a12.8,12.8,0,0,0,2.55-.26,4.23,4.23,0,0,0,.43-1.44,2.73,2.73,0,0,1,.07-.68C147.36,19.81,148.44,20.43,148.68,20.58Zm3.19-.58c-.34,0-.7.1-.74.5,0,.2,0,3.7,0,4.21,0,.26,0,1.56,0,1.84s.07.53.24.53a11.22,11.22,0,0,0,1.44-.81.55.55,0,0,0,.27-.41c0-.31-.89-3.2-1-3.41,0-.05,0-.05,0-.05.27,0,1,1,1.18,1.18a12.86,12.86,0,0,1,2.35,5.83c0,1.06-.62,1.44-1,1.44s-.65-.36-.72-.91a19.89,19.89,0,0,0-.5-2.76c0-.12-.08-.34-.27-.34-.36,0-3.21,3-3.69,3.55-.1.12-.51.84-.68.84s-.43-.79-.48-1c-.14-.46-.43-1.39-.6-1.9,0,0,0,0,.05,0s.63.16.75.16,1.15,0,1.15-.86c0,0,0-13.08,0-14.26a11.21,11.21,0,0,0-.09-1.49,7.46,7.46,0,0,1-.1-.81c0-.12,0-.22.19-.22a7.11,7.11,0,0,1,1.2.55,2.07,2.07,0,0,0,.91.15h1.54a1.41,1.41,0,0,0,.67-.12c.1-.05.53-.63.67-.63s1.56.87,1.56,1.3c0,.19-.07.22-.43.48s-.24.19-.24,2.66V19c0,.17.1.93.1,1.13a1.3,1.3,0,0,1-1,1.2c-.46,0-.53-.41-.63-.89s-.36-.41-.65-.41Zm1.46-4.63c.75,0,.8-.27.8-1,0-2.16,0-2.23-.82-2.23h-1.44c-.79,0-.79.19-.79,1.41,0,1.59,0,1.78.79,1.78Zm-1.48.62c-.75,0-.75.19-.75,1.71s0,1.68.75,1.68h1.46c.77,0,.77-.2.77-2,0-1.08,0-1.37-.75-1.37Zm8.88-4.41c.38,0,.6-.05.76-.51.08-.17.17-.33.34-.33s1.87,1,1.87,1.32c0,.21-.07.26-.69.67-.08.09-.84,1.1-1.25,1.68s-2.45,2.83-2.45,2.93a2.36,2.36,0,0,0,.46.4c1.77,1.44,3.67,4.11,3.67,6.65s-2.07,4.47-3.31,4.47c-.27,0-.29-.07-.53-.72-.36-.94-1-1.27-1.18-1.27s-.21.28-.21.43c0,.48.14,2.83.14,3.36,0,.89-1,1.05-1.3,1.05s-.5-.16-.5-.74c0-2.26.1-5.83.1-8.07,0-2.85,0-8.44-.05-10.22,0-.24-.1-1.34-.1-1.61s.07-.24.24-.24a3.1,3.1,0,0,1,1.32.53,2.14,2.14,0,0,0,1,.22Zm-1.88.62c-.62,0-.81.22-.81.94,0,.48,0,2.64,0,3.09,0,.65.15,9.8.2,10s.24.41,1.7.41c.77,0,1.61,0,1.61-2.6a8.62,8.62,0,0,0-2.21-5.88c-.1-.09-.72-.55-.72-.69a3.83,3.83,0,0,1,.48-.82,14,14,0,0,0,1.92-4.1c0-.34-.36-.34-.5-.34Z"/><path class="cls-1" d="M167.49,31.71c-.45,0-.67-.14-.67-.5s.19-.53.67-.53h5.74c.65,0,.65-.14.65-3,0-2.69,0-14.62,0-17.07,0-.55.12-.77.51-.77s.5.17.5,1.59V30.73a.88.88,0,0,1-1,1Z"/><path class="cls-1" d="M181.89,28c0,.5,0,2.09-.91,2.09a.8.8,0,0,1-.72-.87,12.15,12.15,0,0,1,.27-1.34,11.62,11.62,0,0,0,.26-2c0-1,0-1.08.14-1.08a.37.37,0,0,1,.15.05C181.44,25,181.89,26.58,181.89,28Zm5.67-6.29c.55,0,.6,0,.86-.24s.48-.46.63-.46,1.51.87,1.51,1.28c0,.14-.05.19-.46.72a1.59,1.59,0,0,0-.19.81,27,27,0,0,1-.79,4.88,4,4,0,0,1-2.86,2.95c-.21,0-.31-.05-.65-.63a3.08,3.08,0,0,0-.48-.55c0-.05-.4-.31-.4-.41s.26-.09.48-.09c1.68,0,2-.7,2.13-1a19.28,19.28,0,0,0,1.2-6.08c0-.57-.41-.57-.74-.57h-4.23a.59.59,0,0,0-.5.21c-.34.46-.41.58-1,.58s-.75-.19-.75-.74c0-.39.17-5.43.17-6.24s0-3.12-.1-4c0-.14-.14-1-.14-1.13s0-.14.07-.14,1.23.46,1.46.55a3.07,3.07,0,0,0,1,.17h2.69c1,0,1.27,0,1.51-.41.33-.6.45-.77.77-.77s1.77,1.13,1.77,1.49-.5.34-1.29.34h-2.24c-.74,0-.74.17-.74,1.44,0,.84.05,1.2.67,1.2s.65,0,.84-.39.43-.76.79-.76,1.44,1.15,1.44,1.46-.4.34-1.1.34H187c-.7,0-.7.12-.7,2a.6.6,0,0,0,.7.65c.36,0,.5,0,.69-.38s.36-.77.75-.77A3,3,0,0,1,190,18.54c0,.33-.48.33-1.27.33h-1.64c-.74,0-.74.19-.74,2.14,0,.62.36.67.72.67Zm-3.17,6.39c0,.76-.41,1-.7,1-.6,0-.69-.62-.72-1.51a11.88,11.88,0,0,0-.28-2.13,2.32,2.32,0,0,1-.08-.58c0-.22.1-.27.24-.22C183.55,24.9,184.39,27.3,184.39,28.07Zm0-13.18c.7,0,.7-.39.7-1.3s0-1.34-.72-1.34h-.7c-.72,0-.72.33-.72,1.32s0,1.32.72,1.32Zm0,3.33c.7,0,.7-.36.7-1.32s0-1.36-.7-1.36h-.72c-.72,0-.72.33-.72,1.36s0,1.32.7,1.32Zm-.07,3.46c.77,0,.77-.31.77-1.39s0-1.42-.7-1.42h-.67c-.77,0-.77.31-.77,1.39s0,1.42.74,1.42Zm1.17,6.12c-.36,0-.36-.31-.4-1.2a13,13,0,0,0-.27-1.73,6.62,6.62,0,0,1-.14-.86c0-.12,0-.27.09-.27a3.63,3.63,0,0,1,1.52,2.62C186.29,27.35,185.76,27.8,185.49,27.8Zm2.33-2.28c0,.43-.21.79-.55.79s-.46-.14-.67-1.56a5.16,5.16,0,0,0-.31-1.1.85.85,0,0,1,0-.26c0-.13,0-.2.17-.17A3.11,3.11,0,0,1,187.82,25.52Zm10.75-14c.36,0,.51-.07.65-.26.34-.51.53-.77.72-.77s1.47,1,1.47,1.3a9.93,9.93,0,0,1-.53,1.1c-.07.29-.07,2.38-.07,2.81s.07,2.69.07,3.19a1.19,1.19,0,0,1-1.2,1.06c-.51,0-.53-.24-.6-.77,0-.29-.05-.48-.65-.48h-.94a.57.57,0,0,0-.67.6,2.84,2.84,0,0,0,.05.38c.34,2.21,1.2,6.58,4,9.34a19.2,19.2,0,0,1,1.47,1.39c0,.1-.15.12-.25.12l-.57,0a9,9,0,0,0-1.32.12c-.1,0-.55.22-.6.22s-.27-.26-.34-.36c-2.33-3.89-2.78-6.84-3-10.78-.07-1-.12-1-.7-1h-1.34c-.72,0-.72.14-.72,1.46a18.22,18.22,0,0,1-2.83,9.92c-.2.28-1.16,1.44-1.42,1.44a.13.13,0,0,1-.14-.12c0-.1.74-1.28.88-1.52C192,26,192,20.86,192,19a61.79,61.79,0,0,0-.33-7,9.58,9.58,0,0,1-.15-1c0-.07,0-.24.1-.24a11.36,11.36,0,0,1,1.46.55,3,3,0,0,0,1,.19Zm-4.48.63a.64.64,0,0,0-.58.36c-.1.26-.1,4.24-.1,4.72s.05.84.72.84h4.32a.67.67,0,0,0,.63-.26,43.25,43.25,0,0,0,.17-4.75c0-.67-.1-.91-.75-.91Z"/><path class="cls-1" d="M207.43,20.62c0-.07,0-.28-.16-.28s-2.91,2-3.1,2c0,0,0,0,0,0s1-1,1.08-1.18c.31-.34,3.65-4,4.42-5.64.14-.29.29-.62.38-.62s2,1.2,2,1.8c0,.12-.07.14-.65.33A12.09,12.09,0,0,0,209,19c0,.12.1.17.2.19.4.1.55.14.55.41a.23.23,0,0,1-.05.17c-.05.09-.41.45-.46.55a29.93,29.93,0,0,0-.14,3.43c0,.91.1,5.4.1,6.41a1.39,1.39,0,0,1-1.28,1.56c-.69,0-.69-.62-.69-.84s.09-1.42.12-1.61c.12-1.8.12-2.73.12-5.35C207.46,22.38,207.43,20.94,207.43,20.62Zm4.66-9c0,.19-.1.21-.77.36a3,3,0,0,0-1.22.6,23.22,23.22,0,0,1-4.75,2.93c-.27.12-.29.14-.34.14s-.07,0-.07-.07,1.41-1.32,1.63-1.51a17.83,17.83,0,0,0,3.24-3.84c.19-.32.24-.41.38-.41C210.48,9.85,212.09,11.26,212.09,11.65Zm3.6,7.17c-.55,0-2.18,0-3,.08l-.53,0c-.07,0-.12,0-.19-.14l-.48-.55c-.1-.12-.1-.12-.1-.17s0,0,.1,0,.91.07,1.05.07c1.11,0,2.16.1,3.29.1H217c.65,0,.73-.12.73-2.64,0-1.25-.13-1.27-1.13-1.27-.56,0-2.19,0-3,.07l-.5.05c-.1,0-.15-.05-.22-.15l-.48-.55c-.07-.12-.09-.12-.09-.17s0,0,.09,0,1.27.09,1.51.09c1.76.07,1.8.07,3.08.07.21,0,.69,0,.69-.64s-.07-1.59-.09-1.85-.2-.75-.2-.87.15-.26.32-.26c0,0,2.28.34,2.28.84,0,.12,0,.14-.46.5-.14.12-.19.29-.19,1.08s0,1.2.79,1.2h1c1.11,0,1.25,0,1.59-.52.48-.7.53-.77.74-.77s1.9,1.13,1.9,1.56-.46.36-1.3.36h-4c-.65,0-.77.19-.77,1,0,.29,0,1.58,0,1.85,0,.76,0,1.1.77,1.1h1.9c1.1,0,1.22,0,1.48-.48.39-.65.56-.84.8-.84s2,1.18,2,1.58-.43.36-1.27.36h-5.61c-.15,0-.22,0-.22.1s.07.12.22.17.28.17.28.33a3.48,3.48,0,0,1-.28.58,3.1,3.1,0,0,0-.12,1.18c0,2.08,0,2.13.72,2.13h1.84c1.11,0,1.23,0,1.59-.53.45-.69.5-.76.72-.76s1.89,1.15,1.89,1.58-.43.34-1.29.34h-4.73c-.7,0-.74.31-.74.79v3.14c0,.92.21,1.18,1.53,1.18a20.86,20.86,0,0,0,5.28-.65c.15,0,.87-.24.91-.24s.08,0,.08.05a3.1,3.1,0,0,1-.44.48c-.81.91-.86,1.25-.86,1.46s0,.44-.26.56a21.2,21.2,0,0,1-3,.21c-4.56,0-6.57-1.2-8.25-3.69-.1-.12-.34-.46-.51-.46s-.26.14-.45.55a12,12,0,0,1-2.28,3.27,6.73,6.73,0,0,1-1.2.93s0,0,0-.05.53-.86.63-1A16.08,16.08,0,0,0,213,22c0-1.18,0-1.25.26-1.25,0,0,.87.21,1.13.29.79.24.86.26.86.48s-.38.62-.4.72c-.1.28-.27,1.58-.32,1.84s-.33,1.42-.33,1.52c0,.89,2,2.71,2.95,2.71.14,0,.41,0,.48-.46,0-.21.1-4.22.1-4.53a22.45,22.45,0,0,0-.22-4c-.19-.56-.46-.56-.84-.56Z"/><path class="cls-1" d="M237.77,22.47c0,.19-.09.29-.5.36a1.94,1.94,0,0,0-1,.6,17.28,17.28,0,0,1-5,3.53,10,10,0,0,1-1,.36c-.05,0-.1,0-.1-.05s1.85-1.46,2.06-1.68c2.24-2.33,2.72-2.95,3.17-4.46,0-.05.12-.29.27-.29a3.76,3.76,0,0,1,1.1.65C237.68,22.16,237.77,22.26,237.77,22.47Zm1.49-3.14c.65,0,.72-.27.72-.77,0-1.34,0-2.74,0-4.1a16.62,16.62,0,0,0-.15-3.1c0-.19-.28-1-.28-1.13s.31-.24.4-.24c.77,0,2.19.51,2.19.87,0,.09-.43.45-.48.55s-.1.43-.1,2.3c0,.43,0,.84.75.84h2.49c.91,0,1.08-.05,1.23-.21s.76-1.35,1-1.35,2,1.49,2,1.9-.14.31-1.29.31h-5.47c-.75,0-.75.38-.75.74v2.6c0,.76.27.79.77.79h4.39a4.87,4.87,0,0,0,1.25-.1c.26-.14,1.13-1.49,1.46-1.49a6.1,6.1,0,0,1,2,1.88c0,.33-.43.33-1.27.33h-8.79s-.19,0-.19.12.07.07.55.29.58.29.63.55,0,.17-.34.41-.43,1.44-.43,2c0,.14,0,2.42,0,2.71a2.2,2.2,0,0,1-1.11,2.19,3.2,3.2,0,0,1-1.41.43,1.15,1.15,0,0,1-.34-.07,10.92,10.92,0,0,1-.62-.94c-.17-.17-1.2-.89-1.2-.91s.09-.1.14-.1,1.13.07,1.34.07c1.37,0,1.47-.26,1.49-1.05s0-1.68,0-2.4c0-3.08-.1-3.27-.87-3.27h-4.58c-.43,0-2.21,0-3,.07l-.52.05c-.08,0-.12-.05-.2-.14l-.48-.55c-.09-.12-.09-.12-.09-.17s.05-.05.09-.05c.48,0,2.84.17,3.39.17s.62-.31.62-.79V15.1a22,22,0,0,0-.09-2.47,5.77,5.77,0,0,1-.2-.77c0-.12.08-.14.17-.14s2.45.36,2.45.79a.5.5,0,0,1,0,.17,3.86,3.86,0,0,0-.51.48c-.14.29-.14.79-.14,5.26,0,.72.1.91.72.91Zm8.47,6.86c0,.29-.09.32-.67.44-.41.07-.55.19-1.87,1.22a18.45,18.45,0,0,1-11.95,3.7c-.27,0-1.76,0-1.76-.2a4.61,4.61,0,0,1,.94-.19c6-.93,9.27-2.21,11.74-4.56a4.64,4.64,0,0,0,1.2-1.92c.09-.29.12-.34.29-.34s.24.1,1.1.77S247.73,25.93,247.73,26.19Zm3-.81a.8.8,0,0,1-.89.81c-.67,0-.86-.31-1.37-1.15a19.25,19.25,0,0,0-3.24-3.38c-.36-.29-.41-.32-.41-.41s.2-.1.24-.1a7.53,7.53,0,0,1,1.95.53C249.44,22.71,250.76,24.34,250.76,25.38Z"/><path class="cls-1" d="M257.47,32.83a1.21,1.21,0,0,1-.69-1.21,50.3,50.3,0,0,1,.3-5.4c.05-.43.13-.65.35-.65s.26.13.3.61c0,.26,0,.73.09,1,.47,2.9,2.24,4.84,6.39,4.84,4.36,0,7.82-2.51,7.82-7.65,0-5.79-5.19-7.82-8-8.38-.82-.17-1.13-.26-1.13-.56s.44-.43,1-.52c2.11-.39,6.87-2.46,6.87-7.51a5.78,5.78,0,0,0-6.22-5.83c-3.16,0-5.45,1.77-5.45,5.09,0,.43-.17.52-.3.52s-.26-.09-.3-.47c-.17-1.39-.3-3.33-.3-4.32,0-.39,0-.57.56-.91a16.26,16.26,0,0,1,7-1.47c7.05,0,8.56,4.32,8.56,6.48,0,4.32-4.45,7.17-5.79,7.78v.21c2.72.65,7.13,3.28,7.13,8.3,0,6-5.23,11.1-12.92,11.1A14.19,14.19,0,0,1,257.47,32.83Z"/><path class="cls-1" d="M290,13.11c0,.24-.16.29-.67.41-.24.07-.67.77-1.2,1.63-2.78,4.59-6.6,6.65-7.13,6.65a.13.13,0,0,1-.14-.14c0-.15.05-.17.5-.53a20.67,20.67,0,0,0,5.4-7.25c.17-.36.79-2.4.82-2.4S290,12.7,290,13.11Zm2.33,7c-.62,0-.62.05-.77,1.32-.21,2.11-.67,6.27-4.85,8.59a15.36,15.36,0,0,1-4.58,1.56c-.07,0-.29,0-.29-.16s.12-.17.55-.32a13.62,13.62,0,0,0,4.73-2.9c1.78-1.8,2.72-5.06,2.72-7.56,0-.53-.25-.53-.61-.53h-.72c-.88,0-2,0-2.47.05l-.5.07c-.1,0-.15-.07-.22-.17l-.48-.55c-.07-.1-.09-.12-.09-.14s0-.08.09-.08.89.1,1.06.1c1.17.05,2.16.07,3.29.07h5.25c1.08,0,1.2,0,1.59-.45s.57-.53.74-.53c.39,0,1.78,1.1,1.78,1.61,0,.12-.39.55-.43.64-.12.24-.27,3-.32,3.53-.26,2.91-.45,4.88-1.12,6a3.63,3.63,0,0,1-2.45,1.44c-.27,0-.27-.08-.46-.75s-1-.86-2.21-1.22c-.52-.15-.79-.24-.79-.39s.22-.14.27-.14a8.12,8.12,0,0,1,.93.17,13.36,13.36,0,0,0,1.7.19c1.16,0,1.81-.22,2.14-2.69.24-1.85.48-4.63.48-5.86,0-.64-.05-.86-.72-.86Zm1.2-7.73c-.6,0-1.41,0-1.92,0l-.48.05c-.07,0-.09,0-.19-.15l-.46-.55a.25.25,0,0,1-.07-.17s0,0,.07,0,.84.09,1,.09,1.27.07,1.44.07a1.23,1.23,0,0,0,1-.62c.48-.67.52-.74.72-.74s2.08,1.2,2.08,1.72c0,.24-.07.27-.72.44a.55.55,0,0,0-.48.5c0,1.25,3.17,5.06,7.23,5.47.07,0,.36,0,.36.19s-.63.27-.72.29a5,5,0,0,0-1.47,1.11c0,.07-.31.36-.38.36-.82,0-4.78-3.32-5.74-6.94-.26-1-.31-1.13-.86-1.13Z"/><path class="cls-1" d="M103.49,71.08c-.62,0-1.7,0-2.57.06a6.17,6.17,0,0,1-.62.08c-.08,0-.16-.06-.27-.16l-.56-.63a.33.33,0,0,1-.08-.18s0-.06.08-.06.67.08.78.08c.86.06,2.32.11,3.16.11h2.1c.25,0,.73,0,.73-.76,0-.59,0-3.59,0-3.77a.66.66,0,0,0-.76-.6h-.89c-.57,0-1.59,0-2.4.06l-.57.08a.67.67,0,0,1-.24-.16l-.54-.63a.33.33,0,0,1-.08-.18s0-.06.08-.06.62.08.73.08c.78.06,2.18.11,2.94.11h5.05c.94,0,1,0,1.29-.46.54-.92.62-1,.92-1a5.35,5.35,0,0,1,2,1.78c0,.38-.4.38-1.08.38H109a.71.71,0,0,0-.78.81c0,.57,0,3.11,0,3.62,0,.7.51.7.84.7h1.18c1,0,1.08,0,1.41-.46.59-.92.64-1,1-1a5.67,5.67,0,0,1,2.21,1.78c0,.38-.43.38-1.19.38H109c-.29,0-.86,0-.86.76s0,3.32,0,3.8a.69.69,0,0,0,.78.71h4.18c1.22,0,1.35,0,1.73-.46.76-.89.84-1,1.11-1s2.51,1.43,2.51,1.78-.54.38-1.43.38H100.49c-2.37,0-3.13,0-3.4.08l-.56.05c-.11,0-.17-.05-.25-.16l-.51-.62c-.11-.13-.14-.13-.14-.19s.06,0,.11,0,1,.08,1.19.08c1.32.05,2.43.11,3.7.11h4.86a.69.69,0,0,0,.75-.76c0-.62,0-3.75,0-3.91a.66.66,0,0,0-.73-.6Zm4.64-16.52c.65.35.73.38.73.65s0,.24-.51.35c-.08,0-.08.14-.08.19,0,.41,3.24,5.26,9.44,7.72a15,15,0,0,1,2.16.81c0,.19-.91.32-1.08.38a3.68,3.68,0,0,0-1.35.92c-.08.08-.35.32-.54.32-.43,0-4-2.81-6-5.13a21,21,0,0,1-2.92-4c-.08-.14-.29-.41-.43-.41s-.43.38-1.05,1.14a32.82,32.82,0,0,1-8.37,7.88,10.78,10.78,0,0,1-2.21,1.13c-.06,0-.19,0-.19-.11s.35-.4.54-.54c5.29-3.56,8.77-9.82,9-10.17s.92-2.05.94-2.05C106.35,53.54,107.13,54,108.13,54.56Z"/><path class="cls-1" d="M133.82,64c-.32,0-.78,0-.78.57a31,31,0,0,0,1.27,5.15c.32.92,1.16,2.19,1.48,2.19s.35-.14,1.32-1.24c.17-.19.27-.25.27-.16s-.4,1.78-.4,2.13a2.46,2.46,0,0,0,.21,1,3.57,3.57,0,0,1,.44,1,.75.75,0,0,1-.84.68c-1.11,0-2.86-2.32-3.62-4.19-.08-.21-.21-.48-.51-.48a2,2,0,0,0-.92.4c-.89.57-5.37,3.13-5.75,3.54-.13.16-.21.67-.48.67a13.24,13.24,0,0,1-1.92-2.56s0-.08,0-.08.63.13.76.13c.46,0,1.46,0,1.59-.78.08-.38.08-8,.08-9.18,0-.94-.13-5.5-.13-5.75s-.08-.75-.08-.83,0-.08,0-.08c.35,0,2,.73,2.35.73.05,0,4.8-1.33,5.18-2.19.27-.68.3-.76.46-.76a14.16,14.16,0,0,1,1.49,1c.83.54.94.63.94.76,0,.38-.24.41-2.32.78-1.32.25-1.48.27-1.48.92,0,.3.05,2,.16,3.64.11,2.06.13,2.19.75,2.19s.84-.16,1.08-.57.7-1.1,1-1.1a5.88,5.88,0,0,1,1.95,2c0,.35-.14.35-1.43.35Zm-2.59,12.28c1,0,1.21,0,1.48-.46.63-1.08.68-1.21.95-1.21s.24,0,1.78,1.73a.38.38,0,0,1,.14.27c0,.37-.46.37-1.25.37H130.2c-1.8,0-2.61.06-2.91.08l-.49.06c-.08,0-.16-.08-.21-.16l-.44-.62c-.1-.14-.1-.14-.1-.19s0-.06.08-.06.86.08,1,.08c1,.06,2.06.11,3.16.11ZM128.67,64c-.25,0-.73,0-.84.54-.06.27-.06,6.1-.06,6.53s.09.81.49.81a17.67,17.67,0,0,0,3.29-1.16c.81-.35,1-.54,1-.81,0,0-.32-1.46-.4-1.73-.17-.64-.73-3.69-.84-3.88s-.43-.3-.76-.3Zm1.8-.73c.35,0,.73,0,.73-.59,0-.14,0-.33-.13-1.51-.06-.65-.14-2.11-.19-2.84-.06-1.05-.06-1.19-.49-1.19-.16,0-1.08.17-1.27.19-.89.11-1.1.14-1.21.49s-.08,3.43-.08,4.61c0,.46,0,.84.84.84Zm13.82-7.53a.57.57,0,0,0,.65-.4c.14-.36.24-.52.41-.52s2.37,1.14,2.37,1.62c0,.25-.4.41-.51.46-.33.14-.43.22-.51.38a53.69,53.69,0,0,1-2.89,4.78,16.61,16.61,0,0,0-1,1.54c0,.16.35.4,1,.83,1.27.89,4.45,3.08,4.45,7a4.14,4.14,0,0,1-2,3.78,5.92,5.92,0,0,1-2.13.84c-.19,0-.33-.17-.43-.38a3.23,3.23,0,0,0-.65-1c-.19-.19-1.3-1-1.3-1s.25-.08.27-.08c.3,0,1.76.16,2.08.16,1.78,0,2.13-1.49,2.13-2.7a9,9,0,0,0-3.13-6.29c-.62-.51-.81-.65-.81-.95A11.8,11.8,0,0,1,143,62.2a55.31,55.31,0,0,0,1.73-5.34c0-.41-.35-.41-.52-.41h-2.89a.78.78,0,0,0-.81.38c-.13.35-.13,3.73-.13,4.35,0,4.23.11,10.79.32,14.79,0,.19.14,1.21.14,1.46,0,.81-1,1.13-1.62,1.13-.24,0-.59,0-.59-.73,0,0,.1-1.13.1-1.24.06-.76.08-17.63.08-19.44a6.42,6.42,0,0,0-.08-1.18,5.5,5.5,0,0,1-.1-.6c0-.13.05-.38.29-.38a11.89,11.89,0,0,1,1.38.57,2.74,2.74,0,0,0,1.08.19Z"/><path class="cls-1" d="M165.26,59.78c-.53,0-.87,0-.87.19s.3.42.64.68c2.61,2,2.61,2.84,2.61,3.56,0,1.09-.61,1.89-1.17,1.89-.76,0-.95-.61-1.55-2.16-1.59-4.16-1.93-4.16-3.14-4.16h-2.42c-1.13,0-1.21.53-1.21,1.25v4.69c0,1.93.27,12.62.27,13.57a2.26,2.26,0,0,1-2.12,2c-1,0-1-.83-1-1.29,0-2.11.11-11.49.11-13.41,0-3.86,0-4.31-.19-7.53,0-.22-.07-1.13-.07-1.32s0-.38.15-.38a10.84,10.84,0,0,1,2.42,1.06,2.8,2.8,0,0,0,1.62.34h7.41c1.13,0,1.13-.3,1.13-2.91,0-1.7,0-2.34-1.05-2.34h-7.71c-3.33,0-4.43.07-4.8.11-.12,0-.69.08-.8.08s-.19-.08-.34-.23l-.72-.87c-.15-.15-.15-.19-.15-.26s0-.08.12-.08c.26,0,1.43.15,1.66.15,1.85.12,3.44.12,5.21.12h7.45c1.1,0,1.1-.76,1.1-1.06a20.41,20.41,0,0,0-.08-2.23c0-.34-.26-1.78-.26-2s.22-.23.37-.23,3.78.41,3.78,1.1c0,.26-.11.37-.49.71a1,1,0,0,0-.41,1c0,2.49,0,2.76,1.09,2.76h6.58c1.7,0,1.89,0,2.34-.65,1.17-1.55,1.29-1.74,1.7-1.74.72,0,4,2.5,4,2.84,0,.53-.75.53-2,.53H171.87c-1.17,0-1.17.45-1.17,2.23,0,2.72,0,3,1.14,3h7.06a1.1,1.1,0,0,0,1.1-.49c.72-.91.79-1,1.09-1,.53,0,3.22,1.47,3.22,2.15,0,.34-.12.42-.68.8-.38.22-.46.56-.46,1.25,0,.34,0,1.92,0,2.26,0,2,.26,10.89.26,12.7,0,1.59-.19,3.1-1.36,3.93a4.4,4.4,0,0,1-2.12.72c-.37,0-.41,0-.6-.75a3.18,3.18,0,0,0-1.59-1.59c-.23,0-2.8-.83-2.83-.87a.31.31,0,0,1-.23-.3c0-.16.19-.19.34-.19.6,0,3.36.07,3.89,0,1.21-.07,1.63-.18,1.63-1.77,0-2.12-.12-11.57-.12-13.49s0-2.39-1.17-2.39h-5c-.27,0-.57,0-.57.19s1.17.83,1.51,1c.76.37.83.53.83.71s-.11.34-.94.72c-.53.27-.72.49-2.53,2.76-.5.61-.57.68-.57.83s.07.19.34.19c1,0,1.17-.11,1.36-.3s1.13-1.36,1.4-1.36c.49,0,3,1.7,3,2.15s-.75.53-2,.53h-4.5c-1.13,0-1.13.68-1.13,2.12,0,2.38,0,2.68,1.85,2.64,1.7,0,1.89,0,2.42-.6.91-1.13,1-1.29,1.32-1.29.5,0,3.29,2,3.29,2.39s-.75.53-2,.53h-5.52c-.41,0-1.21,0-1.21,1,0,.75.12,4.16.12,4.84a2,2,0,0,1-2,1.92c-.15,0-1,0-1-1.28,0-.49.15-3.89.15-4.61,0-1.51,0-1.85-1.05-1.85-2.61,0-3.78.07-4.09.07-.15,0-1,.11-1.13.11s-.19-.07-.34-.26l-.72-.87c-.15-.15-.15-.19-.15-.23s0-.07.11-.07c.27,0,1.44.11,1.71.11,1.47.08,3.21.11,4.68.11,1,0,1-.22,1-2.57,0-2.19,0-2.19-1.81-2.19-1.25,0-2.87,0-3.44.12-.11,0-.49.07-.57.07s-.19-.11-.34-.26l-.72-.87c-.07-.12-.15-.19-.15-.23s0-.11.12-.11c.26,0,1.43.15,1.66.15,1.85.11,3.44.11,5.18.11h1.43c1.18,0,1.25-.19,2-2a14.66,14.66,0,0,0,.94-3.74c0-.65-.45-.65-1-.65Z"/><path class="cls-1" d="M198.53,59.37a1.39,1.39,0,0,0,1.51-.79,19.67,19.67,0,0,0,2-4.07c.11-.51.14-.76.33-.76s1.89,1.11,2,1.19.73.51.73.78-.08.25-.75.33a21,21,0,0,0-3.62,3.1c0,.22.16.22.43.22h11A1,1,0,0,0,213,59c.32-.43.43-.54.57-.54.29,0,2.21,1.49,2.21,1.87,0,.13-.16.27-.21.32-.68.54-.84.67-.87,1.54s0,1.32,0,6.31c0,1,.09,6.1.09,7.27a2.11,2.11,0,0,1-1.11,2,3.41,3.41,0,0,1-1.32.48c-.22,0-.49-.08-.54-.29-.14-.57-.17-.68-.38-.84s-1.95-.81-1.95-1,.25-.13.3-.13c.24,0,1.38.11,1.65.11,1.4,0,1.4-.27,1.4-2.33,0-.75.06-4.34.06-5.15,0-1,0-6.26,0-7.29s0-1.24-.84-1.24H196.45c-.32,0-.7,0-.86.32a50.3,50.3,0,0,0-.16,5.13c0,1.59.11,9.4.11,11.15,0,.76,0,1.65-1.6,1.65-.59,0-.75-.17-.75-.62,0-1.08.16-2.78.24-3.86,0-.92.14-9.67.14-9.86,0-.86,0-2.51-.14-3.94,0-.19-.22-1.13-.22-1.32a.13.13,0,0,1,.14-.11,5.63,5.63,0,0,1,1.51.51,3.62,3.62,0,0,0,1.49.25ZM202,72.51c-.67,0-.67.08-.67.76s-.62,1.13-1.35,1.13c-.54,0-.73-.19-.73-.75,0-.14.19-4.89.19-5.81,0-.29,0-1.27-.06-2.67,0-.21-.16-1.21-.16-1.43s.08-.43.32-.43,1.49.62,1.79.67a2.77,2.77,0,0,0,.75.08h4.35a1.05,1.05,0,0,0,.75-.16c.41-.38.57-.54.76-.54.35,0,1.62.84,1.62,1.3,0,.19-.6,1-.65,1.16s-.05,2.37-.05,2.75c0,.6.05,3.57.05,4.21s0,1.51-1.38,1.51c-.62,0-.62-.13-.62-1.32,0-.46-.29-.46-.54-.46Zm4.18-.7c.22,0,.63,0,.76-.32s.11-4.29.11-4.78c0-1.73,0-1.94-.81-1.94H202c-.81,0-.81.43-.81,1.16,0,.37,0,5.23.14,5.56s.51.32.75.32Z"/><path class="cls-1" d="M228.51,56.18A5.59,5.59,0,0,0,229.92,59a2.63,2.63,0,0,0,1.05-.43c.54-.32.62-.38.94-.38a.84.84,0,0,1,.92.81,1.55,1.55,0,0,1-1.16,1.33c-.08,0-.65.24-.65.32a11.48,11.48,0,0,0,1.65,2.27c.11,0,1-.3,1-.76,0-.11-.35-.48-.35-.59s.27-.25.38-.27c1-.08,1.51-.14,1.67-.14.89,0,1.59.43,1.59,1.19,0,.38-.05,1-2.37,1.84-.7.24-.78.29-.78.4s0,.19.86,1.51c1.32,2,1.73,3.24,1.73,4.24a1.8,1.8,0,0,1-1.57,1.86c-.67,0-.86-.13-2.62-1.35a4.32,4.32,0,0,0-2.61-.81c-2.43,0-3.57,1.57-3.57,2.78,0,2,2.38,2.14,3.08,2.14.43,0,2.24-.19,2.62-.19s1.27.1,1.27,1c0,1.54-2.84,1.54-3.16,1.54-.78,0-5.32,0-5.32-3.78,0-1.57,1.16-4.24,5.24-4.24a11.46,11.46,0,0,1,2.59.32,4.72,4.72,0,0,0,1.19.17c.4,0,.7-.14.7-.57A9.6,9.6,0,0,0,233,65.82c-.4-.78-.43-.86-.67-.86s-1.19.29-1.41.35a12.76,12.76,0,0,1-3.23.4c-1.62,0-2.73-.22-3.57-1a2.16,2.16,0,0,1-.65-1.17.26.26,0,0,1,.25-.27,7.52,7.52,0,0,1,.86.49,6.81,6.81,0,0,0,2.84.54,9.15,9.15,0,0,0,4.18-.86c0-.17-1.51-2.54-1.84-2.54-.05,0-1.48.24-1.75.24-2.11,0-3.7-1.46-3.7-2a.21.21,0,0,1,.22-.21,4.8,4.8,0,0,1,.7.24,4.87,4.87,0,0,0,1.86.38c.65,0,1.59-.14,1.59-.33a9.2,9.2,0,0,0-2.75-2.86c-.78-.38-.89-.4-.89-.59s.51-.73,1.05-.73S228.27,55.37,228.51,56.18Z"/><rect class="cls-2" y="20.07" width="333.81" height="41.19"/></g></g></svg>