<svg xmlns="http://www.w3.org/2000/svg" viewBox="0 0 375 81.33"><defs><style>.cls-1{fill:#333;}.cls-2{fill:none;}</style></defs><g id="レイヤー_2" data-name="レイヤー 2"><g id="レイヤー_1-2" data-name="レイヤー 1"><path class="cls-1" d="M59.54,23.17c-.39,0-.41.14-.43.41-.08.5-.77.69-1.2.69s-.65-.07-.65-.72c0-.29.09-2.83.09-3.36,0-.72,0-4,0-4.63,0-.12,0-.19.09-.19a5.43,5.43,0,0,1,1.08.38,3.78,3.78,0,0,0,1.78.48h2.35c.26,0,.7,0,.7-.72,0-1.27,0-1.56-.77-1.56h-4.8c-2.11,0-2.81,0-3,.05a4.63,4.63,0,0,1-.52.07c-.08,0-.12-.07-.2-.17l-.48-.55c-.09-.09-.09-.12-.09-.14s0-.07.09-.07.89.07,1.06.09c1.18,0,2.16.07,3.29.07h4.68c.69,0,.77-.26.77-.88,0-.34-.15-1.85-.15-2.16s.05-.34.22-.34,1.25.34,1.66.46c.69.19.71.31.71.45s-.55.55-.59.65A2.34,2.34,0,0,0,65,12.54c0,.55.07.76.79.76H70.1c1,0,1.13,0,1.39-.43.58-1,.77-1,.94-1a6.28,6.28,0,0,1,2.42,1.73c0,.33-.48.33-1.29.33H65.83C65,14,65,14.1,65,15.56c0,.31.08.67.7.67h2.93c.43,0,.55,0,.81-.31s.44-.46.6-.46,1.71.94,1.71,1.25c0,.15-.48.65-.51.79a7.71,7.71,0,0,0-.12,1.28c0,.64,0,3.57,0,4.17,0,1-1.29,1-1.39,1-.5,0-.53-.22-.55-.56s-.1-.26-.7-.26H66c-.13,0-.29,0-.29.17s2.59,3.55,8.69,5.47c.6.19.67.22.67.29s0,.14-.17.14c-.86,0-1.75,0-2.21.84-.12.24-.17.31-.31.31a18.06,18.06,0,0,1-5.26-4,17.46,17.46,0,0,1-1.87-2.48c-.07-.09-.09-.17-.19-.17s-.12.15-.12.25c0,.31,0,1.6,0,1.87,0,.69.14,4.34.14,4.63a1.08,1.08,0,0,1-.43,1,1.7,1.7,0,0,1-.89.36c-.58,0-.65-.48-.65-.79,0-.14.14-3.84.14-4.53,0-1.25,0-1.4-.19-1.4s-1.25,1.06-1.41,1.2a26.69,26.69,0,0,1-8,4.44s-.12,0-.12-.09a7.27,7.27,0,0,1,1.42-1,28.25,28.25,0,0,0,6.46-5.26,6.35,6.35,0,0,0,.67-1.05c0-.22-.19-.22-.41-.22Zm3-3.94c.77,0,.77-.26.77-1.46,0-.63-.05-.89-.77-.89H59.87c-.72,0-.76.29-.76.89,0,1.22,0,1.46.79,1.46Zm-2.64.63c-.31,0-.77,0-.77.67,0,1.94,0,2,.77,2h2.59c.74,0,.82-.19.82-1.58,0-.75,0-1.08-.8-1.08Zm5.83-3c-.74,0-.79.19-.79,1.39,0,.72,0,1,.77,1h2.76c.77,0,.77-.17.77-1.39,0-.67,0-1-.77-1Zm2.74,5.64c.79,0,.79-.36.79-1.08,0-1.22,0-1.58-.82-1.58H65.73c-.79,0-.79.38-.79,1.05,0,1.42,0,1.61.79,1.61Z"/><path class="cls-1" d="M82,28.83c-.7,0-.7.46-.7.87,0,.69,0,1.46-1.12,1.46-.63,0-.8-.26-.8-1,0-1.73.12-9.41.12-11A26.38,26.38,0,0,0,79.4,16c0-.12-.07-.65-.07-.77s0-.22.21-.22S82,15.49,82,16c0,.17-.07.24-.43.63a5,5,0,0,0-.19,1.82c0,1.42,0,7.66,0,8.93,0,.48.08.84.7.84h4.85a.57.57,0,0,0,.67-.48c0-.14.15-7.56.15-10.68,0-2.14,0-4.85,0-5.07s-.12-1-.12-1.2,0-.19.21-.19,1.25.22,1.52.27c.5.09.81.14.81.45,0,.15-.45.7-.5.82a2.68,2.68,0,0,0-.12,1c-.07,4.44-.07,10.15-.07,14.21,0,.62.19.84.72.84H95c.67,0,.72-.38.72-1,0-.94,0-5.14,0-6,0-2.06,0-4.82-.07-5.11s-.1-1-.1-1.18.05-.21.19-.21,2.33.5,2.33,1c0,.1-.38.48-.41.55A15.41,15.41,0,0,0,97.57,19c0,1.08.05,5.88.05,6.87,0,.57,0,3.14,0,3.65a1.2,1.2,0,0,1-1.22,1.34c-.7,0-.72-.53-.72-1.27,0-.39,0-.75-.7-.75Z"/><path class="cls-1" d="M106,20.84c.79,0,1.78,0,2.38,0s.64-.1.64-.24a11.83,11.83,0,0,0-.55-1.56.16.16,0,0,1,.17-.12c.34,0,2.3,1.56,2.3,2.92a1,1,0,0,1-.93,1c-.63,0-.7-.48-.82-1.2-.05-.36-.07-.44-.26-.44a5.54,5.54,0,0,0-1.08.29,10.62,10.62,0,0,0-.12,2.09c0,1,.12,5.62.12,6.55a1.35,1.35,0,0,1-1.27,1.44c-.41,0-.46-.4-.46-1,0-1.08.17-5.91.17-6.89a12.4,12.4,0,0,0-.07-1.66c-.05-.19-.12-.24-.44-.24a13,13,0,0,0-2.2.43,5.09,5.09,0,0,1-.7.41c-.24,0-.87-1.9-.87-1.94s0-.08.12-.08.89.1,1.06.12l1.2.05c.58,0,.67-.17,1.49-1.73A55.11,55.11,0,0,0,108.29,14c.21-.6.24-.67.38-.67s2,.91,2,1.27c0,.19,0,.19-.58.36a1.53,1.53,0,0,0-.72.5c-1,1.35-2.45,3.68-3.57,4.95-.1.09-.17.26-.12.33S105.86,20.84,106,20.84Zm-.55,4c0,.16-.53.67-.6.81-.53,1-1.2,2.67-1.83,3.63,0,.07-.57.86-.81.86a.1.1,0,0,1-.1-.1c0-.07.72-2.2.82-2.56a13.7,13.7,0,0,0,.5-3.2c0-.43,0-.5.15-.5a6.58,6.58,0,0,1,.93.33C105.07,24.37,105.41,24.56,105.41,24.83Zm0-9.15a1.86,1.86,0,0,1,.91,1.49.72.72,0,0,1-.71.77.77.77,0,0,1-.53-.24c-.2-.22-1.06-1.42-1.28-1.66s-1.31-1.2-1.31-1.25.09-.12.19-.12,1.36.41,1.63.41.22-.1.55-.89a10.65,10.65,0,0,0,1-4c0-.1,0-.27.14-.27s2.23.72,2.23,1.23c0,.07,0,.21-.09.26s-.65.29-.75.39c-.29.26-1.34,1.87-1.61,2.23s-.84,1.08-.79,1.29A4,4,0,0,0,105.38,15.68Zm4.2,7.68c-.09-.12-.09-.12-.09-.17s.05,0,.07,0c.46,0,2.64.14,3.14.14a.74.74,0,0,0,.7-.34c.24-.33.36-.48.6-.48s1.56.68,1.56,1.15a.33.33,0,0,1-.24.29c-.5.19-.5.19-.67.51A16.81,16.81,0,0,1,112,28.59a11.11,11.11,0,0,1-3.93,2.79s-.08,0-.08-.05,0-.1.15-.22a25.72,25.72,0,0,0,2.45-2.54A12.76,12.76,0,0,0,113,24.15c0-.19-.1-.19-.79-.19-.29,0-1.78.1-2,.1s-.12,0-.22-.15ZM110.86,27a.94.94,0,0,1-.82,1c-.53,0-.58-.63-.7-1.64a6.25,6.25,0,0,0-.64-1.8,1.87,1.87,0,0,1-.1-.26.13.13,0,0,1,.12-.12,3.76,3.76,0,0,1,1,.77A3.26,3.26,0,0,1,110.86,27Zm2.71-6.53a.71.71,0,0,0-.7.27,1.34,1.34,0,0,1-1,.67c-.55,0-.55-.36-.55-1s.1-4.15.1-4.92c0-.41,0-2.37,0-2.81,0-.09,0-.16.14-.16s1.35.79,1.64.79c.48,0,1.94-2.67,2-3.15,0-.16.05-.33.2-.33s1.2.57,1.39.67.67.34.67.53-1,.43-1.15.53a6.78,6.78,0,0,0-1.78,1.65c0,.15,0,.15.46.15h4.61c.5,0,.67,0,.86-.34.53-.82.6-.91.84-.91s1.66.89,1.66,1.41a.68.68,0,0,1-.29.48c-.34.29-.43.39-.43.8s.07,2.16.07,2.56.17,2.64.17,2.84c0,1.08-1.16,1.15-1.28,1.15-.33,0-.38-.1-.52-.58-.08-.29-.39-.29-.56-.29h-2.76c-.12,0-.21,0-.21.1s0,.12.45.29c.2.05.7.26.7.55s0,.22-.43.5a.42.42,0,0,0-.15.29,16.25,16.25,0,0,0,.87,1.83c.19.36.5,1,.79,1,.58,0,2.21-1.73,2.74-2.33,0-.07.26-.31.31-.31S124,23.79,124,24.06c0,.09-.07.12-.15.12s-.52,0-.62,0c-.7,0-1.2.24-3.26,1.18-.44.19-.44.22-.44.36a11.41,11.41,0,0,0,4.18,4.22c.77.46.86.48.86.58s-.07.07-.38.1a5.33,5.33,0,0,0-1.37.26,3.65,3.65,0,0,1-.72.34,18.79,18.79,0,0,1-4-6.1c-.1-.22-.53-1.49-.58-1.49s-.07.7-.07.82,0,4,0,4.44c0,1.46,0,2-.53,2.4a3.57,3.57,0,0,1-1.87.65c-.14,0-.19-.05-.26-.17a3.17,3.17,0,0,0-.48-.82c-.15-.14-.92-.79-.92-.81s.08-.08.7-.08c1.8,0,1.9-.24,1.9-2,0-1.1,0-6.14-.12-6.84s-.36-.7-.84-.7Zm.05-6.5c-.32,0-.63.05-.72.5v1.37c0,.63.45.63.74.63h6.24c.72,0,.72-.1.72-1.85,0-.65-.48-.65-.72-.65Zm0,3.12c-.27,0-.72,0-.72.67,0,2,0,2.09.72,2.09H120a.59.59,0,0,0,.67-.65c0-2,0-2.11-.69-2.11Z"/><path class="cls-1" d="M136.66,10.06c.45,0,.67.15.67.51s-.19.53-.67.53h-5.74c-.65,0-.65.14-.65,3,0,2.69,0,14.62,0,17.07,0,.55-.12.76-.51.76s-.53-.16-.53-1.58V11.05a.91.91,0,0,1,1-1Z"/><path class="cls-1" d="M153.12,26.22c-.65,0-.77.29-.77,1,0,.45.05,2.56.05,3,0,.87-.48,1.49-1.22,1.49s-.6-.58-.6-.82.09-1.34.09-1.44c0-.84.07-2.28.07-2.44,0-.77-.38-.77-.69-.77h-.84c-.6,0-1.27.05-1.56.07l-.7.05c-.09,0-.09,0-.21-.15l-.53-.6a.16.16,0,0,1-.07-.12s.07,0,.09,0c.48,0,2.62.16,3.05.16H150c.7,0,.74-.31.74-.74,0-1,0-5.5,0-6.41,0-.24,0-.46-.21-.46s-.22.08-.72.94a21.36,21.36,0,0,1-6.75,7.56,8,8,0,0,1-1.75,1c-.05,0-.15,0-.15-.09s1.25-1.13,1.49-1.35c3.29-3,6.24-8.11,6.24-8.9,0-.36-.33-.36-.6-.36H145.1c-.67,0-1.63,0-2.52,0-.14,0-.84.08-1,.08s-.1,0-.24-.15l-.48-.57c0-.08-.1-.12-.1-.15s.07-.05.1-.05.93.08,1.1.08c1.37.07,2.26.09,3.24.09H150c.79,0,.79-.36.79-.77,0-2.06,0-2.85,0-3.38,0-.17-.21-1.51-.21-1.63s.14-.22.21-.22,2.4.31,2.4.75c0,.14-.5.57-.55.69a14.22,14.22,0,0,0-.26,3.27c0,.84,0,1.29.62,1.29h4.49c1.1,0,1.27,0,1.54-.57.43-1,.57-1.08.76-1.08a7.32,7.32,0,0,1,2.45,1.92c0,.36-.45.36-1.29.36H154c-.31,0-.48,0-.48.21,0,.87,3.91,6.07,9,8.14.53.22.6.22.6.29s-1.39.29-1.65.36a2,2,0,0,0-1,.55c-.19.19-.24.24-.31.24a16.07,16.07,0,0,1-3.56-3.14A21.74,21.74,0,0,1,153,17.17c-.12-.31-.17-.43-.38-.43s-.29.33-.29.6c0,2.08,0,5.44,0,7.56,0,.26,0,.69.67.69h.44c.74,0,.88,0,1.15-.69.09-.19.33-.6.55-.6a4.08,4.08,0,0,1,1.63,1.53c0,.39-.41.39-1.29.39Z"/><path class="cls-1" d="M171.85,11.7c0,.14-.62.43-.69.52s-2.88,3.51-2.91,3.6a.24.24,0,0,0,0,.1c0,.14,0,.19.29.62a2.58,2.58,0,0,1,.28,1.2c0,.92-.48,1.47-1.1,1.47s-.7-.87-.7-1.2a5.19,5.19,0,0,0-1.22-3.29,1.18,1.18,0,0,1-.24-.31c0-.05.05-.07.09-.07.39,0,1.92,1.15,2.14,1.15s.53-.7.7-1.08a14.16,14.16,0,0,0,1.27-3.6c0-.48,0-.58.24-.55S171.85,11.41,171.85,11.7Zm.75,8.88c.24.14.4.24.4.45s-.6.82-.69,1a5.35,5.35,0,0,0-.36,1.08c-1.42,5-5.81,8-6.17,8,0,0-.05,0-.05-.07s0-.1.41-.46a21.32,21.32,0,0,0,4.3-7.49c0-.07,0-.22-.22-.22a19.83,19.83,0,0,0-3.1,1,5.21,5.21,0,0,1-.5.2,1.15,1.15,0,0,1-.36.19c-.41,0-.67-2-.67-2.07s0-.17.09-.17.44.2.51.22a2,2,0,0,0,.55.1c.46,0,1-.77,1.49-1.59a34,34,0,0,0,2.88-5.33c.12-.4.17-.52.29-.52s.26.07.93.62c.12.12.79.5.79.65s-.72.72-.81.84c-.53.62-2.83,3.38-3.34,3.89a8.11,8.11,0,0,0-1.13,1.34c0,.12.22.12.29.12a12.8,12.8,0,0,0,2.55-.26,4.23,4.23,0,0,0,.43-1.44,2.73,2.73,0,0,1,.07-.68C171.28,19.81,172.36,20.43,172.6,20.58Zm3.19-.58c-.34,0-.7.1-.75.5,0,.2,0,3.7,0,4.21,0,.26,0,1.56,0,1.84s.07.53.24.53a11.22,11.22,0,0,0,1.44-.81.53.53,0,0,0,.26-.41c0-.31-.88-3.2-1-3.41,0-.05,0-.05.05-.05.27,0,1,1,1.18,1.18a12.86,12.86,0,0,1,2.35,5.83c0,1.06-.62,1.44-1,1.44s-.65-.36-.72-.91a19.14,19.14,0,0,0-.51-2.76c0-.12-.07-.34-.26-.34-.36,0-3.22,3-3.7,3.55-.09.12-.5.84-.67.84s-.43-.79-.48-1c-.14-.46-.43-1.39-.6-1.9,0,0,0,0,0,0s.62.16.74.16,1.16,0,1.16-.86c0,0,0-13.08,0-14.26a9.81,9.81,0,0,0-.1-1.49c0-.12-.09-.69-.09-.81s0-.22.19-.22a7.11,7.11,0,0,1,1.2.55,2.07,2.07,0,0,0,.91.15h1.54a1.43,1.43,0,0,0,.67-.12c.1-.05.53-.63.67-.63s1.56.87,1.56,1.3c0,.19-.07.22-.43.48s-.24.19-.24,2.66V19c0,.17.1.93.1,1.13a1.3,1.3,0,0,1-1,1.2c-.45,0-.52-.41-.62-.89s-.36-.41-.65-.41Zm1.46-4.63c.75,0,.79-.27.79-1,0-2.16,0-2.23-.81-2.23h-1.44c-.79,0-.79.19-.79,1.41,0,1.59,0,1.78.79,1.78Zm-1.49.62c-.74,0-.74.19-.74,1.71s0,1.68.74,1.68h1.47c.77,0,.77-.2.77-2,0-1.08,0-1.37-.75-1.37Zm8.88-4.41c.39,0,.6-.05.77-.51.07-.17.17-.33.34-.33s1.87,1,1.87,1.32c0,.21-.07.26-.7.67-.07.09-.84,1.1-1.24,1.68s-2.45,2.83-2.45,2.93a2.6,2.6,0,0,0,.45.4c1.78,1.44,3.68,4.11,3.68,6.65s-2.07,4.47-3.32,4.47c-.26,0-.28-.07-.52-.72-.36-.94-1-1.27-1.18-1.27s-.22.28-.22.43c0,.48.15,2.83.15,3.36,0,.89-1,1.05-1.3,1.05s-.5-.16-.5-.74c0-2.26.09-5.83.09-8.07,0-2.85,0-8.44,0-10.22,0-.24-.1-1.34-.1-1.61s.07-.24.24-.24a3.1,3.1,0,0,1,1.32.53,2.14,2.14,0,0,0,1,.22Zm-1.87.62c-.62,0-.81.22-.81.94,0,.48,0,2.64,0,3.09,0,.65.15,9.8.19,10s.24.41,1.71.41c.77,0,1.61,0,1.61-2.6a8.62,8.62,0,0,0-2.21-5.88c-.1-.09-.72-.55-.72-.69a3.83,3.83,0,0,1,.48-.82,14,14,0,0,0,1.92-4.1c0-.34-.36-.34-.51-.34Z"/><path class="cls-1" d="M191.41,31.71c-.45,0-.67-.14-.67-.5s.19-.53.67-.53h5.74c.65,0,.65-.14.65-3,0-2.69,0-14.62,0-17.07,0-.55.12-.77.51-.77s.5.17.5,1.59V30.73a.88.88,0,0,1-1,1Z"/><path class="cls-1" d="M205.81,28c0,.5,0,2.09-.91,2.09a.8.8,0,0,1-.72-.87c0-.21.24-1.24.26-1.34a10.82,10.82,0,0,0,.27-2c0-1,0-1.08.14-1.08a.43.43,0,0,1,.15.05C205.35,25,205.81,26.58,205.81,28Zm5.67-6.29c.55,0,.6,0,.86-.24s.48-.46.62-.46,1.52.87,1.52,1.28c0,.14,0,.19-.46.72a1.59,1.59,0,0,0-.19.81,28,28,0,0,1-.79,4.88,4,4,0,0,1-2.86,2.95c-.22,0-.31-.05-.65-.63a3.08,3.08,0,0,0-.48-.55c-.05-.05-.41-.31-.41-.41s.27-.09.48-.09c1.68,0,2-.7,2.14-1a19.56,19.56,0,0,0,1.2-6.08c0-.57-.41-.57-.74-.57h-4.23a.59.59,0,0,0-.5.21c-.34.46-.41.58-1,.58s-.74-.19-.74-.74c0-.39.17-5.43.17-6.24s0-3.12-.1-4c0-.14-.14-1-.14-1.13s0-.14.07-.14,1.22.46,1.46.55a3,3,0,0,0,1,.17h2.69c1,0,1.28,0,1.52-.41.33-.6.45-.77.76-.77s1.78,1.13,1.78,1.49-.5.34-1.3.34H211c-.74,0-.74.17-.74,1.44,0,.84.05,1.2.67,1.2s.65,0,.84-.39.43-.76.79-.76S214,14.89,214,15.2s-.41.34-1.1.34h-2c-.69,0-.69.12-.69,2a.6.6,0,0,0,.69.65c.36,0,.51,0,.7-.38s.36-.77.74-.77,1.52,1.15,1.52,1.49-.48.33-1.28.33H211c-.74,0-.74.19-.74,2.14,0,.62.36.67.72.67Zm-3.17,6.39c0,.76-.41,1-.7,1-.6,0-.69-.62-.72-1.51a11.08,11.08,0,0,0-.29-2.13,2.3,2.3,0,0,1-.07-.58c0-.22.1-.27.24-.22C207.47,24.9,208.31,27.3,208.31,28.07Zm0-13.18c.69,0,.69-.39.69-1.3s0-1.34-.72-1.34h-.69c-.72,0-.72.33-.72,1.32s0,1.32.72,1.32Zm0,3.33c.69,0,.69-.36.69-1.32s0-1.36-.69-1.36h-.72c-.72,0-.72.33-.72,1.36s0,1.32.69,1.32Zm-.07,3.46c.76,0,.76-.31.76-1.39s0-1.42-.69-1.42h-.68c-.76,0-.76.31-.76,1.39s0,1.42.74,1.42Zm1.17,6.12c-.36,0-.36-.31-.41-1.2a11.39,11.39,0,0,0-.26-1.73,6.62,6.62,0,0,1-.14-.86c0-.12,0-.27.09-.27a3.63,3.63,0,0,1,1.51,2.62C210.2,27.35,209.68,27.8,209.41,27.8Zm2.33-2.28c0,.43-.22.79-.55.79s-.46-.14-.67-1.56a4.7,4.7,0,0,0-.32-1.1,1.27,1.27,0,0,1,0-.26c0-.13,0-.2.16-.17A3.11,3.11,0,0,1,211.74,25.52Zm10.75-14c.36,0,.51-.07.65-.26.34-.51.53-.77.72-.77s1.46,1,1.46,1.3a9.78,9.78,0,0,1-.52,1.1c-.08.29-.08,2.38-.08,2.81s.08,2.69.08,3.19A1.19,1.19,0,0,1,223.6,20c-.51,0-.53-.24-.6-.77,0-.29-.05-.48-.65-.48h-.94a.57.57,0,0,0-.67.6,1.81,1.81,0,0,0,0,.38c.33,2.21,1.2,6.58,4,9.34a18.82,18.82,0,0,1,1.46,1.39c0,.1-.14.12-.24.12l-.57,0a8.88,8.88,0,0,0-1.32.12c-.1,0-.56.22-.6.22s-.27-.26-.34-.36c-2.33-3.89-2.78-6.84-3-10.78-.08-1-.12-1-.7-1h-1.34c-.72,0-.72.14-.72,1.46a18.14,18.14,0,0,1-2.84,9.92c-.19.28-1.15,1.44-1.41,1.44a.14.14,0,0,1-.15-.12c0-.1.75-1.28.89-1.52,2.09-3.91,2.09-9,2.09-10.92a59.85,59.85,0,0,0-.34-7c0-.14-.14-.81-.14-1s0-.24.1-.24a11.36,11.36,0,0,1,1.46.55,2.94,2.94,0,0,0,1,.19Zm-4.49.63a.64.64,0,0,0-.57.36c-.1.26-.1,4.24-.1,4.72s0,.84.72.84h4.32a.67.67,0,0,0,.63-.26,45.94,45.94,0,0,0,.16-4.75c0-.67-.09-.91-.74-.91Z"/><path class="cls-1" d="M231.35,20.62c0-.07,0-.28-.17-.28s-2.9,2-3.09,2a0,0,0,0,1-.05,0s1-1,1.08-1.18c.31-.34,3.65-4,4.42-5.64.14-.29.28-.62.38-.62s2,1.2,2,1.8c0,.12-.08.14-.65.33a12.09,12.09,0,0,0-2.38,2c0,.12.1.17.19.19.41.1.56.14.56.41a.23.23,0,0,1,0,.17c-.05.09-.41.45-.46.55a29.93,29.93,0,0,0-.14,3.43c0,.91.09,5.4.09,6.41a1.39,1.39,0,0,1-1.27,1.56c-.69,0-.69-.62-.69-.84s.09-1.42.12-1.61c.12-1.8.12-2.73.12-5.35C231.38,22.38,231.35,20.94,231.35,20.62Zm4.66-9c0,.19-.1.21-.77.36a3,3,0,0,0-1.22.6,23.51,23.51,0,0,1-4.76,2.93c-.26.12-.28.14-.33.14s-.07,0-.07-.07,1.41-1.32,1.63-1.51a18.12,18.12,0,0,0,3.24-3.84c.19-.32.24-.41.38-.41S236,11.26,236,11.65Zm3.6,7.17c-.55,0-2.19,0-3,.08l-.52,0c-.08,0-.12,0-.2-.14l-.48-.55c-.09-.12-.09-.12-.09-.17s0,0,.09,0,.92.07,1.06.07c1.1,0,2.16.1,3.29.1H241c.65,0,.72-.12.72-2.64,0-1.25-.12-1.27-1.13-1.27-.55,0-2.18,0-3,.07-.1,0-.43.05-.5.05s-.15-.05-.22-.15l-.48-.55c-.07-.12-.1-.12-.1-.17s0,0,.1,0,1.27.09,1.51.09c1.75.07,1.8.07,3.07.07.22,0,.7,0,.7-.64s-.07-1.59-.1-1.85-.19-.75-.19-.87.15-.26.31-.26,2.29.34,2.29.84c0,.12,0,.14-.46.5-.15.12-.19.29-.19,1.08s0,1.2.79,1.2h1c1.11,0,1.25,0,1.59-.52.48-.7.52-.77.74-.77s1.9,1.13,1.9,1.56-.46.36-1.3.36h-4c-.65,0-.77.19-.77,1,0,.29.05,1.58.05,1.85,0,.76,0,1.1.77,1.1H246c1.11,0,1.23,0,1.49-.48.39-.65.55-.84.79-.84s2,1.18,2,1.58-.43.36-1.27.36h-5.62c-.14,0-.21,0-.21.1s.07.12.21.17.29.17.29.33a2.85,2.85,0,0,1-.29.58,3.34,3.34,0,0,0-.12,1.18c0,2.08,0,2.13.72,2.13h1.85c1.11,0,1.23,0,1.59-.53.45-.69.5-.76.72-.76S250,23.17,250,23.6s-.43.34-1.29.34H244c-.7,0-.75.31-.75.79v3.14c0,.92.22,1.18,1.54,1.18a20.93,20.93,0,0,0,5.28-.65c.14,0,.86-.24.91-.24s.07,0,.07.05a3.56,3.56,0,0,1-.43.48c-.81.91-.86,1.25-.86,1.46s0,.44-.27.56a20.91,20.91,0,0,1-2.95.21c-4.56,0-6.58-1.2-8.26-3.69-.09-.12-.33-.46-.5-.46s-.26.14-.46.55A11.52,11.52,0,0,1,235,30.59a6.37,6.37,0,0,1-1.2.93s0,0,0-.05.53-.86.62-1A16,16,0,0,0,236.9,22c0-1.18,0-1.25.26-1.25,0,0,.86.21,1.13.29.79.24.86.26.86.48s-.38.62-.41.72c-.09.28-.26,1.58-.31,1.84s-.33,1.42-.33,1.52c0,.89,2,2.71,3,2.71.14,0,.41,0,.48-.46,0-.21.09-4.22.09-4.53a23.51,23.51,0,0,0-.21-4c-.19-.56-.46-.56-.84-.56Z"/><path class="cls-1" d="M261.69,22.47c0,.19-.1.29-.5.36a1.9,1.9,0,0,0-1,.6,17.28,17.28,0,0,1-5,3.53,9.31,9.31,0,0,1-1,.36s-.09,0-.09-.05,1.85-1.46,2.06-1.68c2.23-2.33,2.71-2.95,3.17-4.46,0-.05.12-.29.26-.29a3.6,3.6,0,0,1,1.11.65C261.59,22.16,261.69,22.26,261.69,22.47Zm1.49-3.14c.65,0,.72-.27.72-.77,0-1.34,0-2.74,0-4.1a17.79,17.79,0,0,0-.14-3.1c0-.19-.29-1-.29-1.13s.31-.24.41-.24c.77,0,2.19.51,2.19.87,0,.09-.44.45-.48.55s-.1.43-.1,2.3c0,.43,0,.84.74.84h2.5c.91,0,1.08-.05,1.22-.21s.77-1.35,1-1.35,2,1.49,2,1.9-.14.31-1.29.31H266.2c-.74,0-.74.38-.74.74v2.6c0,.76.26.79.77.79h4.39a4.87,4.87,0,0,0,1.25-.1c.26-.14,1.13-1.49,1.46-1.49a6.1,6.1,0,0,1,2,1.88c0,.33-.43.33-1.27.33h-8.79c-.05,0-.19,0-.19.12s.07.07.55.29.58.29.63.55,0,.17-.34.41-.43,1.44-.43,2c0,.14.05,2.42.05,2.71a2.2,2.2,0,0,1-1.11,2.19,3.24,3.24,0,0,1-1.41.43,1.15,1.15,0,0,1-.34-.07,7.64,7.64,0,0,1-.62-.94c-.17-.17-1.21-.89-1.21-.91s.1-.1.15-.1,1.13.07,1.34.07c1.37,0,1.47-.26,1.49-1.05s0-1.68,0-2.4c0-3.08-.09-3.27-.86-3.27h-4.58c-.44,0-2.21,0-3,.07l-.53.05c-.07,0-.12-.05-.19-.14l-.48-.55c-.09-.12-.09-.12-.09-.17s0-.05.09-.05c.48,0,2.83.17,3.39.17s.62-.31.62-.79V15.1a19.84,19.84,0,0,0-.1-2.47,7.88,7.88,0,0,1-.19-.77c0-.12.07-.14.17-.14s2.45.36,2.45.79a.34.34,0,0,1,0,.17,4.52,4.52,0,0,0-.5.48c-.14.29-.14.79-.14,5.26,0,.72.09.91.72.91Zm8.47,6.86c0,.29-.09.32-.67.44-.41.07-.55.19-1.87,1.22a18.47,18.47,0,0,1-12,3.7c-.26,0-1.75,0-1.75-.2a4.61,4.61,0,0,1,.94-.19c6-.93,9.26-2.21,11.74-4.56a4.75,4.75,0,0,0,1.2-1.92c.09-.29.12-.34.28-.34s.24.1,1.11.77S271.65,25.93,271.65,26.19Zm3-.81a.8.8,0,0,1-.89.81c-.67,0-.87-.31-1.37-1.15a19.25,19.25,0,0,0-3.24-3.38c-.36-.29-.41-.32-.41-.41s.19-.1.24-.1a7.53,7.53,0,0,1,1.95.53C273.36,22.71,274.68,24.34,274.68,25.38Z"/><path class="cls-1" d="M281.39,32.83a1.19,1.19,0,0,1-.69-1.21,50.3,50.3,0,0,1,.3-5.4c0-.43.13-.65.35-.65s.25.13.3.61c0,.26,0,.73.08,1,.48,2.9,2.25,4.84,6.4,4.84,4.36,0,7.82-2.51,7.82-7.65,0-5.79-5.19-7.82-8-8.38-.83-.17-1.13-.26-1.13-.56s.43-.43,1-.52c2.11-.39,6.86-2.46,6.86-7.51,0-1.82-1.12-5.83-6.22-5.83-3.15,0-5.44,1.77-5.44,5.09,0,.43-.17.52-.3.52s-.26-.09-.3-.47a41.25,41.25,0,0,1-.31-4.32c0-.39.05-.57.56-.91a16.27,16.27,0,0,1,7-1.47c7,0,8.56,4.32,8.56,6.48,0,4.32-4.45,7.17-5.79,7.78v.21c2.72.65,7.13,3.28,7.13,8.3,0,6-5.23,11.1-12.92,11.1A14.19,14.19,0,0,1,281.39,32.83Z"/><path class="cls-1" d="M313.88,13.11c0,.24-.17.29-.67.41-.24.07-.67.77-1.2,1.63-2.79,4.59-6.6,6.65-7.13,6.65a.12.12,0,0,1-.14-.14c0-.15,0-.17.5-.53a20.81,20.81,0,0,0,5.4-7.25c.17-.36.79-2.4.82-2.4S313.88,12.7,313.88,13.11Zm2.33,7c-.63,0-.63.05-.77,1.32-.22,2.11-.67,6.27-4.85,8.59A15.45,15.45,0,0,1,306,31.59c-.07,0-.29,0-.29-.16s.12-.17.55-.32a13.62,13.62,0,0,0,4.73-2.9c1.78-1.8,2.71-5.06,2.71-7.56,0-.53-.24-.53-.6-.53h-.72c-.89,0-2,0-2.47.05l-.5.07c-.1,0-.15-.07-.22-.17l-.48-.55c-.07-.1-.1-.12-.1-.14s0-.08.1-.08.89.1,1.06.1c1.17.05,2.16.07,3.28.07h5.26c1.08,0,1.2,0,1.59-.45s.57-.53.74-.53c.38,0,1.78,1.1,1.78,1.61,0,.12-.39.55-.44.64-.12.24-.26,3-.31,3.53-.26,2.91-.45,4.88-1.13,6a3.62,3.62,0,0,1-2.44,1.44c-.27,0-.27-.08-.46-.75s-1-.86-2.21-1.22c-.53-.15-.79-.24-.79-.39s.21-.14.26-.14a7.91,7.91,0,0,1,.94.17,13.36,13.36,0,0,0,1.7.19c1.16,0,1.8-.22,2.14-2.69.24-1.85.48-4.63.48-5.86,0-.64-.05-.86-.72-.86Zm1.2-7.73c-.6,0-1.42,0-1.92,0l-.48.05c-.07,0-.1,0-.19-.15l-.46-.55a.25.25,0,0,1-.07-.17s0,0,.07,0,.84.09,1,.09,1.28.07,1.45.07a1.2,1.2,0,0,0,1-.62c.48-.67.53-.74.72-.74s2.09,1.2,2.09,1.72c0,.24-.07.27-.72.44a.55.55,0,0,0-.48.5c0,1.25,3.17,5.06,7.23,5.47.07,0,.36,0,.36.19s-.63.27-.72.29a4.86,4.86,0,0,0-1.47,1.11c-.05.07-.31.36-.38.36-.82,0-4.78-3.32-5.74-6.94-.26-1-.31-1.13-.86-1.13Z"/><path class="cls-1" d="M127.41,71.08c-.62,0-1.7,0-2.57.06-.11,0-.51.08-.62.08s-.16-.06-.27-.16l-.56-.63a.34.34,0,0,1-.09-.18s0-.06.09-.06.67.08.78.08c.86.06,2.32.11,3.16.11h2.1c.24,0,.73,0,.73-.76,0-.59,0-3.59,0-3.77a.65.65,0,0,0-.75-.6h-.89c-.57,0-1.6,0-2.41.06l-.56.08c-.06,0-.19-.11-.25-.16l-.54-.63a.43.43,0,0,1-.08-.18s0-.06.08-.06.63.08.73.08c.79.06,2.19.11,3,.11h5c1,0,1,0,1.3-.46.54-.92.62-1,.92-1a5.35,5.35,0,0,1,2.05,1.78c0,.38-.41.38-1.08.38h-3.75a.71.71,0,0,0-.79.81c0,.57,0,3.11,0,3.62,0,.7.51.7.83.7h1.19c1,0,1.08,0,1.4-.46.6-.92.65-1,1-1a5.67,5.67,0,0,1,2.21,1.78c0,.38-.43.38-1.19.38h-4.56c-.3,0-.86,0-.86.76s0,3.32,0,3.8a.7.7,0,0,0,.79.71h4.18c1.22,0,1.35,0,1.73-.46.75-.89.83-1,1.1-1s2.52,1.43,2.52,1.78-.55.38-1.44.38H124.41c-2.37,0-3.13,0-3.4.08l-.57.05c-.11,0-.16-.05-.24-.16l-.51-.62c-.11-.13-.14-.13-.14-.19s.06,0,.11,0,1,.08,1.19.08c1.32.05,2.43.11,3.7.11h4.85a.7.7,0,0,0,.76-.76c0-.62,0-3.75,0-3.91a.66.66,0,0,0-.73-.6Zm4.64-16.52c.65.35.73.38.73.65s-.06.24-.51.35c-.09,0-.09.14-.09.19,0,.41,3.24,5.26,9.45,7.72a15.47,15.47,0,0,1,2.16.81c0,.19-.92.32-1.08.38a3.6,3.6,0,0,0-1.35.92c-.08.08-.35.32-.54.32-.43,0-4-2.81-6-5.13a20.52,20.52,0,0,1-2.92-4c-.08-.14-.3-.41-.43-.41s-.43.38-1.05,1.14A33,33,0,0,1,122,65.39a10.59,10.59,0,0,1-2.22,1.13c-.05,0-.18,0-.18-.11s.35-.4.54-.54c5.29-3.56,8.77-9.82,9-10.17s.92-2.05.94-2.05C130.27,53.54,131.05,54,132.05,54.56Z"/><path class="cls-1" d="M157.74,64c-.33,0-.78,0-.78.57a31.73,31.73,0,0,0,1.26,5.15c.33.92,1.16,2.19,1.49,2.19s.35-.14,1.32-1.24c.16-.19.27-.25.27-.16s-.4,1.78-.4,2.13a2.46,2.46,0,0,0,.21,1,3.45,3.45,0,0,1,.43,1,.74.74,0,0,1-.83.68c-1.11,0-2.86-2.32-3.62-4.19-.08-.21-.22-.48-.51-.48a2,2,0,0,0-.92.4c-.89.57-5.37,3.13-5.75,3.54-.13.16-.22.67-.49.67a13.64,13.64,0,0,1-1.91-2.56s0-.08.05-.08.62.13.76.13c.46,0,1.46,0,1.59-.78.08-.38.08-8,.08-9.18,0-.94-.13-5.5-.13-5.75s-.08-.75-.08-.83,0-.08.05-.08c.35,0,1.94.73,2.35.73,0,0,4.8-1.33,5.18-2.19.27-.68.3-.76.46-.76a14.13,14.13,0,0,1,1.48,1c.84.54.95.63.95.76,0,.38-.24.41-2.32.78-1.33.25-1.49.27-1.49.92,0,.3.06,2,.16,3.64.11,2.06.14,2.19.76,2.19s.84-.16,1.08-.57.7-1.1,1-1.1a5.88,5.88,0,0,1,2,2c0,.35-.14.35-1.44.35Zm-2.59,12.28c1,0,1.21,0,1.48-.46.62-1.08.68-1.21,1-1.21s.24,0,1.78,1.73a.37.37,0,0,1,.13.27c0,.37-.46.37-1.24.37h-4.13c-1.81,0-2.62.06-2.91.08-.09,0-.44.06-.49.06s-.16-.08-.22-.16l-.43-.62c-.11-.14-.11-.14-.11-.19s0-.06.09-.06.86.08,1,.08c1,.06,2.05.11,3.16.11ZM152.58,64c-.24,0-.73,0-.83.54-.06.27-.06,6.1-.06,6.53s.08.81.49.81a17.67,17.67,0,0,0,3.29-1.16c.81-.35,1-.54,1-.81,0,0-.32-1.46-.41-1.73-.16-.64-.72-3.69-.83-3.88s-.43-.3-.76-.3Zm1.81-.73c.35,0,.73,0,.73-.59,0-.14,0-.33-.13-1.51-.06-.65-.14-2.11-.19-2.84-.06-1.05-.06-1.19-.49-1.19-.16,0-1.08.17-1.27.19-.89.11-1.1.14-1.21.49s-.08,3.43-.08,4.61c0,.46,0,.84.83.84Zm13.82-7.53a.57.57,0,0,0,.65-.4c.13-.36.24-.52.4-.52s2.38,1.14,2.38,1.62c0,.25-.41.41-.51.46-.33.14-.43.22-.52.38a53.6,53.6,0,0,1-2.88,4.78,15,15,0,0,0-1,1.54c0,.16.35.4,1,.83,1.26.89,4.45,3.08,4.45,7a4.14,4.14,0,0,1-2.05,3.78,5.92,5.92,0,0,1-2.13.84c-.19,0-.33-.17-.44-.38a3,3,0,0,0-.64-1c-.19-.19-1.3-1-1.3-1s.24-.08.27-.08c.3,0,1.75.16,2.08.16,1.78,0,2.13-1.49,2.13-2.7A9,9,0,0,0,167,64.74c-.62-.51-.81-.65-.81-.95a11.8,11.8,0,0,1,.76-1.59c.18-.4,1.72-4.91,1.72-5.34s-.35-.41-.51-.41h-2.89c-.24,0-.65,0-.81.38s-.13,3.73-.13,4.35c0,4.23.11,10.79.32,14.79,0,.19.14,1.21.14,1.46,0,.81-.95,1.13-1.62,1.13-.25,0-.6,0-.6-.73,0,0,.11-1.13.11-1.24.06-.76.08-17.63.08-19.44a6.42,6.42,0,0,0-.08-1.18c-.05-.25-.11-.52-.11-.6s.06-.38.3-.38a11.89,11.89,0,0,1,1.38.57,2.74,2.74,0,0,0,1.08.19Z"/><path class="cls-1" d="M189.18,59.78c-.53,0-.87,0-.87.19s.3.42.64.68c2.61,2,2.61,2.84,2.61,3.56,0,1.09-.61,1.89-1.17,1.89-.76,0-.95-.61-1.55-2.16-1.59-4.16-1.93-4.16-3.14-4.16h-2.42c-1.13,0-1.21.53-1.21,1.25v4.69c0,1.93.26,12.62.26,13.57a2.25,2.25,0,0,1-2.11,2c-1,0-1-.83-1-1.29,0-2.11.11-11.49.11-13.41,0-3.86,0-4.31-.19-7.53,0-.22-.08-1.13-.08-1.32s0-.38.16-.38a10.8,10.8,0,0,1,2.41,1.06,2.85,2.85,0,0,0,1.63.34h7.41c1.13,0,1.13-.3,1.13-2.91,0-1.7,0-2.34-1.06-2.34h-7.71c-3.32,0-4.42.07-4.8.11-.11,0-.68.08-.79.08s-.19-.08-.34-.23l-.72-.87c-.15-.15-.15-.19-.15-.26s0-.08.11-.08c.27,0,1.44.15,1.67.15,1.85.12,3.44.12,5.21.12h7.45c1.09,0,1.09-.76,1.09-1.06,0-.68,0-1.59-.07-2.23,0-.34-.27-1.78-.27-2s.23-.23.38-.23,3.78.41,3.78,1.1c0,.26-.11.37-.49.71a1,1,0,0,0-.42,1c0,2.49,0,2.76,1.1,2.76h6.58c1.7,0,1.89,0,2.34-.65,1.17-1.55,1.29-1.74,1.7-1.74.72,0,4,2.5,4,2.84,0,.53-.76.53-2,.53H195.79c-1.17,0-1.17.45-1.17,2.23,0,2.72,0,3,1.13,3h7.07a1.1,1.1,0,0,0,1.1-.49c.71-.91.79-1,1.09-1,.53,0,3.22,1.47,3.22,2.15,0,.34-.12.42-.69.8-.37.22-.45.56-.45,1.25,0,.34,0,1.92,0,2.26,0,2,.27,10.89.27,12.7,0,1.59-.19,3.1-1.36,3.93a4.4,4.4,0,0,1-2.12.72c-.38,0-.41,0-.6-.75a3.22,3.22,0,0,0-1.59-1.59c-.23,0-2.8-.83-2.84-.87a.31.31,0,0,1-.22-.3c0-.16.19-.19.34-.19.6,0,3.36.07,3.89,0,1.21-.07,1.63-.18,1.63-1.77,0-2.12-.12-11.57-.12-13.49s0-2.39-1.17-2.39h-5c-.26,0-.56,0-.56.19s1.17.83,1.51,1c.75.37.83.53.83.71s-.11.34-.94.72c-.53.27-.72.49-2.54,2.76-.49.61-.56.68-.56.83s.07.19.34.19c1,0,1.17-.11,1.36-.3s1.13-1.36,1.4-1.36c.49,0,3,1.7,3,2.15s-.75.53-2,.53h-4.5c-1.13,0-1.13.68-1.13,2.12,0,2.38,0,2.68,1.85,2.64s1.89,0,2.42-.6c.91-1.13,1-1.29,1.32-1.29.49,0,3.29,2,3.29,2.39s-.76.53-2,.53H195.6c-.41,0-1.21,0-1.21,1,0,.75.12,4.16.12,4.84a2,2,0,0,1-2,1.92c-.15,0-1,0-1-1.28,0-.49.15-3.89.15-4.61,0-1.51,0-1.85-1.06-1.85-2.6,0-3.78.07-4.08.07s-1.06.11-1.13.11-.19-.07-.34-.26L184.3,72c-.15-.15-.15-.19-.15-.23s0-.07.11-.07c.27,0,1.44.11,1.7.11,1.48.08,3.22.11,4.69.11,1,0,1-.22,1-2.57,0-2.19,0-2.19-1.81-2.19-1.25,0-2.88,0-3.44.12-.12,0-.49.07-.57.07s-.19-.11-.34-.26l-.72-.87c-.07-.12-.15-.19-.15-.23a.1.1,0,0,1,.11-.11c.27,0,1.44.15,1.67.15,1.85.11,3.44.11,5.18.11H193c1.17,0,1.25-.19,2-2a14.29,14.29,0,0,0,.95-3.74c0-.65-.45-.65-1-.65Z"/><path class="cls-1" d="M222.45,59.37a1.39,1.39,0,0,0,1.51-.79,19.67,19.67,0,0,0,2-4.07c.11-.51.13-.76.32-.76s1.89,1.11,2,1.19.73.51.73.78-.08.25-.76.33a21.25,21.25,0,0,0-3.61,3.1c0,.22.16.22.43.22h11a1,1,0,0,0,.89-.41c.32-.43.43-.54.57-.54s2.21,1.49,2.21,1.87c0,.13-.16.27-.22.32-.67.54-.83.67-.86,1.54s0,1.32,0,6.31c0,1,.08,6.1.08,7.27a2.11,2.11,0,0,1-1.1,2,3.4,3.4,0,0,1-1.33.48c-.21,0-.48-.08-.54-.29-.13-.57-.16-.68-.37-.84s-2-.81-2-1,.25-.13.3-.13c.24,0,1.38.11,1.65.11,1.4,0,1.4-.27,1.4-2.33,0-.75.05-4.34.05-5.15,0-1,0-6.26,0-7.29s0-1.24-.84-1.24H220.37c-.32,0-.7,0-.86.32a50.3,50.3,0,0,0-.16,5.13c0,1.59.1,9.4.1,11.15,0,.76,0,1.65-1.59,1.65-.59,0-.75-.17-.75-.62,0-1.08.16-2.78.24-3.86.05-.92.13-9.67.13-9.86,0-.86,0-2.51-.13-3.94,0-.19-.22-1.13-.22-1.32a.13.13,0,0,1,.14-.11,5.63,5.63,0,0,1,1.51.51,3.61,3.61,0,0,0,1.48.25Zm3.43,13.14c-.68,0-.68.08-.68.76s-.62,1.13-1.35,1.13c-.54,0-.73-.19-.73-.75,0-.14.19-4.89.19-5.81,0-.29,0-1.27-.05-2.67,0-.21-.16-1.21-.16-1.43s.08-.43.32-.43,1.49.62,1.78.67a2.84,2.84,0,0,0,.76.08h4.35a1.05,1.05,0,0,0,.75-.16c.41-.38.57-.54.76-.54.35,0,1.62.84,1.62,1.3,0,.19-.6,1-.65,1.16s-.06,2.37-.06,2.75c0,.6.06,3.57.06,4.21s0,1.51-1.38,1.51c-.62,0-.62-.13-.62-1.32,0-.46-.3-.46-.54-.46Zm4.18-.7c.22,0,.62,0,.76-.32s.11-4.29.11-4.78c0-1.73,0-1.94-.81-1.94h-4.24c-.81,0-.81.43-.81,1.16,0,.37,0,5.23.13,5.56s.52.32.76.32Z"/><path class="cls-1" d="M252.43,56.18a5.62,5.62,0,0,0,1.4,2.78,2.6,2.6,0,0,0,1.06-.43c.54-.32.62-.38.94-.38a.84.84,0,0,1,.92.81,1.55,1.55,0,0,1-1.16,1.33c-.08,0-.65.24-.65.32a11.1,11.1,0,0,0,1.65,2.27c.11,0,1-.3,1-.76,0-.11-.35-.48-.35-.59s.27-.25.38-.27c1-.08,1.51-.14,1.67-.14.89,0,1.59.43,1.59,1.19,0,.38-.05,1-2.37,1.84-.71.24-.79.29-.79.4s0,.19.87,1.51c1.32,2,1.73,3.24,1.73,4.24a1.8,1.8,0,0,1-1.57,1.86c-.68,0-.86-.13-2.62-1.35a4.33,4.33,0,0,0-2.62-.81c-2.43,0-3.56,1.57-3.56,2.78,0,2,2.37,2.14,3.08,2.14.43,0,2.24-.19,2.62-.19s1.26.1,1.26,1c0,1.54-2.83,1.54-3.15,1.54-.79,0-5.32,0-5.32-3.78,0-1.57,1.16-4.24,5.23-4.24a11.54,11.54,0,0,1,2.6.32,4.67,4.67,0,0,0,1.18.17c.41,0,.71-.14.71-.57a9.6,9.6,0,0,0-1.22-3.32c-.4-.78-.43-.86-.67-.86s-1.19.29-1.41.35a12.78,12.78,0,0,1-3.24.4c-1.62,0-2.72-.22-3.56-1a2.16,2.16,0,0,1-.65-1.17.26.26,0,0,1,.25-.27,8.49,8.49,0,0,1,.86.49,6.79,6.79,0,0,0,2.83.54,9.17,9.17,0,0,0,4.19-.86c0-.17-1.51-2.54-1.84-2.54,0,0-1.48.24-1.75.24-2.11,0-3.7-1.46-3.7-2a.21.21,0,0,1,.22-.21,5.24,5.24,0,0,1,.7.24,4.87,4.87,0,0,0,1.86.38c.65,0,1.59-.14,1.59-.33a9.33,9.33,0,0,0-2.75-2.86c-.78-.38-.89-.4-.89-.59s.51-.73,1.05-.73S252.19,55.37,252.43,56.18Z"/><rect class="cls-2" y="20.07" width="375" height="41.19"/></g></g></svg>