<svg xmlns="http://www.w3.org/2000/svg" viewBox="0 0 375 74.21"><defs><style>.cls-1{fill:#333;}.cls-2{fill:none;}</style></defs><g id="レイヤー_2" data-name="レイヤー 2"><g id="レイヤー_1-2" data-name="レイヤー 1"><path class="cls-1" d="M25.48,23.2a.41.41,0,0,1-.41-.4c0-.23.29-.49.52-.69C31.35,17,35.64,13,35.64,7.48c0-4.11-2.65-5.32-4.58-5.32A4,4,0,0,0,28,3.25a3.8,3.8,0,0,0-1,2.79c0,.26-.08.43-.23.43s-.2-.11-.23-.37-.17-2.65-.17-3.54c0-.17,0-.26.29-.43a12,12,0,0,1,5.07-1c4.34,0,6.5,2.76,6.5,5.82,0,6-6.45,11.28-10,14.33-.14.12-.08.21.06.21h2.1c.49,0,3.89,0,4.93-.15,2.1-.2,3-1.06,3.39-2.76.06-.32.15-.43.32-.43s.17.17.17.34a27.31,27.31,0,0,1-.86,3.86c-.23.78-.66.89-1.87.89C30.43,23.26,26.63,23.2,25.48,23.2Z"/><path class="cls-1" d="M46.28,15.56c0,3.53.1,5.07.53,5.5s1,.55,2.88.55c1.27,0,2.33,0,2.9-.72a3.2,3.2,0,0,0,.63-1.44c0-.19.07-.31.21-.31s.15.1.15.36a15.71,15.71,0,0,1-.36,2.4c-.17.55-.24.65-1.51.65-2.07,0-4.11-.15-6.44-.15-.74,0-1.46.08-2.35.08-.26,0-.38-.05-.38-.2s.05-.14.19-.14a3.57,3.57,0,0,0,.72-.1c.48-.09.6-.62.7-1.32.12-1,.12-2.9.12-5.2V11.29c0-3.74,0-4.42-.05-5.18s-.24-1.2-1-1.37a4.39,4.39,0,0,0-.82-.07c-.1,0-.19,0-.19-.15s.12-.19.38-.19c1.08,0,2.59.07,2.71.07s1.88-.07,2.6-.07c.26,0,.38,0,.38.19s-.1.15-.19.15a5.18,5.18,0,0,0-.79.07c-.7.12-.89.53-.94,1.37s0,1.44,0,5.18Z"/><path class="cls-1" d="M58.09,11.29c0-3.74,0-4.42-.05-5.18s-.17-1.2-1-1.37a4.28,4.28,0,0,0-.81-.07c-.17,0-.27,0-.27-.15s.12-.19.39-.19c1.08,0,2.59.07,2.71.07.29,0,1.8-.07,3.24-.07,2.37,0,6.77-.22,9.62,2.74a8.56,8.56,0,0,1,2.33,6.09,9.81,9.81,0,0,1-2.59,6.77,9.53,9.53,0,0,1-7.27,2.76c-1,0-2.31-.07-3.34-.14l-2-.15c-.05,0-.46,0-1,0s-1,.05-1.39.05-.39-.05-.39-.2,0-.14.24-.14a4,4,0,0,0,.67-.1c.48-.09.6-.62.7-1.32.12-1,.12-2.9.12-5.2Zm2,2.59c0,2.55,0,4.76,0,5.21a5.48,5.48,0,0,0,.27,1.83c.31.45,1.25,1,4.08,1a8,8,0,0,0,5.71-2.24,8.36,8.36,0,0,0,1.92-5.73,8.6,8.6,0,0,0-2.3-6c-2.26-2.38-5-2.71-7.85-2.71a6.78,6.78,0,0,0-1.56.16.44.44,0,0,0-.29.48c0,.82,0,3.27,0,5.12Z"/><path class="cls-1" d="M80.89,12.83c.75-.72,4-4.16,5.48-5.67s1.53-1.73,1.53-2a.49.49,0,0,0-.31-.46c-.17-.07-.21-.12-.21-.22s.14-.14.36-.14c.69,0,.62.07,1.44.07s2.16-.07,2.54-.07.41.07.41.17,0,.14-.27.17A4.29,4.29,0,0,0,90.64,5a7.49,7.49,0,0,0-2.5,1.92c-2.11,2-4.85,4.76-5.47,5.45,1.51,1.66,5.88,6.1,7,7.16,2,1.84,2.81,2.37,4,2.59a3.2,3.2,0,0,0,.7.07c.19,0,.33.05.33.17s-.09.17-.36.17H92.54c-2.09,0-2.64-.27-3.77-1.16A91.38,91.38,0,0,1,80.89,13v2.48c0,2.3,0,4.2.12,5.2.08.7.22,1.23.94,1.32.34.05.82.1,1,.1s.29.1.29.17-.1.17-.36.17c-1.32,0-2.83-.08-3-.08s-1.54.08-2.26.08c-.26,0-.38,0-.38-.17s0-.17.26-.17a3.08,3.08,0,0,0,.62-.07c.48-.1.63-.65.72-1.35.12-1,.12-2.9.12-5.2V11.29c0-3.74,0-4.42,0-5.18s-.29-1.23-.82-1.35a4.18,4.18,0,0,0-.86-.09c-.2,0-.27,0-.27-.15s.12-.19.39-.19c.79,0,2.4.07,2.52.07s1.63-.07,2.35-.07c.26,0,.38,0,.38.17s0,.14-.26.17l-.53,0c-.65.08-.84.56-.89,1.4s0,1.44,0,5.18Z"/><path class="cls-1" d="M96.06,13.41a.79.79,0,1,1,.79.79A.79.79,0,0,1,96.06,13.41Z"/><path class="cls-1" d="M104.08,23a.81.81,0,0,1-.46-.81,35.16,35.16,0,0,1,.2-3.59c0-.29.09-.44.23-.44s.18.09.2.41c0,.17,0,.49.06.66.32,1.93,1.5,3.22,4.26,3.22,2.91,0,5.22-1.67,5.22-5.09,0-3.86-3.46-5.21-5.33-5.59-.55-.11-.75-.17-.75-.37s.29-.29.66-.35c1.41-.26,4.58-1.64,4.58-5a3.85,3.85,0,0,0-4.15-3.89c-2.1,0-3.62,1.19-3.62,3.4,0,.29-.12.35-.21.35s-.17-.06-.2-.32c-.11-.92-.2-2.22-.2-2.88,0-.26,0-.37.38-.6a10.85,10.85,0,0,1,4.66-1c4.69,0,5.7,2.88,5.7,4.32,0,2.88-3,4.78-3.86,5.18v.14c1.82.44,4.75,2.19,4.75,5.53,0,4-3.48,7.4-8.6,7.4A9.41,9.41,0,0,1,104.08,23Z"/><path class="cls-1" d="M123.58,15.56c0,3.53.09,5.07.52,5.5s1,.55,2.88.55c1.28,0,2.33,0,2.91-.72a3.3,3.3,0,0,0,.62-1.44c0-.19.07-.31.22-.31s.14.1.14.36a15.71,15.71,0,0,1-.36,2.4c-.17.55-.24.65-1.51.65-2.06,0-4.1-.15-6.43-.15-.75,0-1.47.08-2.35.08-.27,0-.39-.05-.39-.2s0-.14.19-.14a3.47,3.47,0,0,0,.72-.1c.48-.09.6-.62.7-1.32.12-1,.12-2.9.12-5.2V11.29c0-3.74,0-4.42,0-5.18s-.24-1.2-1-1.37a4.32,4.32,0,0,0-.82-.07c-.09,0-.19,0-.19-.15s.12-.19.39-.19c1.08,0,2.59.07,2.71.07s1.87-.07,2.59-.07c.26,0,.38,0,.38.19s-.09.15-.19.15a5.28,5.28,0,0,0-.79.07c-.7.12-.89.53-.94,1.37s0,1.44,0,5.18Z"/><path class="cls-1" d="M135.38,11.29c0-3.74,0-4.42,0-5.18s-.17-1.2-1-1.37a4.39,4.39,0,0,0-.82-.07c-.17,0-.27,0-.27-.15s.13-.19.39-.19c1.08,0,2.59.07,2.71.07.29,0,1.8-.07,3.24-.07,2.38,0,6.77-.22,9.63,2.74a8.55,8.55,0,0,1,2.32,6.09A9.76,9.76,0,0,1,149,19.93a9.53,9.53,0,0,1-7.27,2.76c-1,0-2.3-.07-3.34-.14l-2-.15s-.45,0-1,0-1,.05-1.39.05-.38-.05-.38-.2,0-.14.24-.14a4.3,4.3,0,0,0,.67-.1c.48-.09.6-.62.69-1.32.12-1,.12-2.9.12-5.2Zm2,2.59c0,2.55,0,4.76,0,5.21a5.27,5.27,0,0,0,.26,1.83c.31.45,1.25,1,4.08,1a8,8,0,0,0,5.71-2.24,8.36,8.36,0,0,0,1.92-5.73,8.6,8.6,0,0,0-2.3-6c-2.26-2.38-5-2.71-7.85-2.71a6.78,6.78,0,0,0-1.56.16.45.45,0,0,0-.29.48c0,.82,0,3.27,0,5.12Z"/><path class="cls-1" d="M158.19,12.83c.74-.72,4-4.16,5.47-5.67s1.54-1.73,1.54-2a.48.48,0,0,0-.32-.46c-.16-.07-.21-.12-.21-.22s.14-.14.36-.14c.7,0,.62.07,1.44.07s2.16-.07,2.54-.07.41.07.41.17,0,.14-.26.17a4.28,4.28,0,0,0-1.23.28,7.5,7.5,0,0,0-2.49,1.92c-2.12,2-4.85,4.76-5.48,5.45,1.52,1.66,5.88,6.1,7,7.16,2,1.84,2.81,2.37,4,2.59a3.2,3.2,0,0,0,.7.07c.19,0,.34.05.34.17s-.1.17-.36.17h-1.78c-2.09,0-2.64-.27-3.77-1.16A90.07,90.07,0,0,1,158.19,13v2.48c0,2.3,0,4.2.12,5.2.07.7.21,1.23.93,1.32.34.05.82.1,1,.1s.29.1.29.17-.09.17-.36.17c-1.32,0-2.83-.08-2.95-.08s-1.54.08-2.26.08c-.26,0-.38,0-.38-.17s.05-.17.26-.17a3.17,3.17,0,0,0,.63-.07c.48-.1.62-.65.72-1.35.12-1,.12-2.9.12-5.2V11.29c0-3.74,0-4.42-.05-5.18s-.29-1.23-.82-1.35a4.12,4.12,0,0,0-.86-.09c-.19,0-.26,0-.26-.15s.12-.19.38-.19c.79,0,2.4.07,2.52.07s1.63-.07,2.35-.07c.27,0,.39,0,.39.17s0,.14-.27.17l-.53,0c-.64.08-.84.56-.88,1.4s-.05,1.44-.05,5.18Z"/><path class="cls-1" d="M187.51,3.2l-.44,4.53c4.38,1,9.83,2.82,9.83,8,0,3.8-3.09,8.12-9.45,8.12a6.78,6.78,0,0,1-2.9-.53c-.53-.27-.6-.53-.6-.82a28.38,28.38,0,0,1,.13-3.71c.06-.29.16-.53.28-.53s.25.15.25.5c0,3.15,2,3.79,4.32,3.79a5.31,5.31,0,0,0,5.54-5.7c0-4.73-4.94-6.59-8-7.15-.63-.11-.85-.2-.82-.52l.73-7.5c0-.3.25-.39.6-.39h7.4a11.71,11.71,0,0,0,1.82-.11c.38,0,.57-.09.67-.09s.22.06.22.29S197,3,196.68,5.14c0,.15-.13.32-.26.32s-.18-.17-.18-.38c0-1.12-.29-1.88-2.78-1.88Z"/><path class="cls-1" d="M207.74,23.87c-5,0-7.56-5.59-7.56-10.85,0-7.12,2.93-12.2,8.07-12.2,5.89,0,7.59,7,7.59,10.85C215.84,18.43,213,23.87,207.74,23.87Zm-.12-22c-3,0-4.76,4-4.76,9.94,0,5.15,1.58,11,5.51,11,2.9,0,4.79-4.06,4.79-9.85C213.16,7.34,211.24,1.87,207.62,1.87Z"/><path class="cls-1" d="M232,23.32c-.38,0-.4-.25-.4-.33,0-.32.25-.34.56-.34,1.1,0,1.1-.61,1.1-3.44a15.14,15.14,0,0,0-.21-3.89,1.7,1.7,0,0,0-1.66-1.4,3.55,3.55,0,0,0-2.84,1.76c-.12.34-.12,3.34-.12,3.93,0,2,0,2.26.21,2.58a1,1,0,0,0,.86.46c.61,0,.8,0,.8.34s-.3.33-.49.33h-4.24c-.17,0-.5,0-.5-.33a.32.32,0,0,1,.17-.3,6.4,6.4,0,0,1,.88-.06c.86-.17.86-.61.86-3.53s0-3.29-.27-4.07a1.68,1.68,0,0,0-1.58-1.11A3.73,3.73,0,0,0,222.79,15c-.5.5-.55.54-.55,4.13,0,2.92,0,3.51,1.1,3.55.31,0,.63,0,.63.34s-.3.33-.47.33h-4c-.13,0-.42,0-.42-.33s.27-.34.6-.34a1,1,0,0,0,.95-.61,32.68,32.68,0,0,0,.15-4.2,25.07,25.07,0,0,0-.13-3.23.79.79,0,0,0-.78-.52c-.08,0-.52.06-.63.06s-.21,0-.21-.15.05-.19,1-.46c.74-.21,1.89-.53,2-.53s.18.11.18.61.05.7.21.7a3.42,3.42,0,0,0,.66-.4,4.49,4.49,0,0,1,2.62-.91,2.27,2.27,0,0,1,2.35,1.37c0,.08.13.29.27.29s.15,0,.49-.33A4.73,4.73,0,0,1,232,13a2.19,2.19,0,0,1,2.39,1.62c.25.88.25,1.28.25,4.81,0,2.52,0,3.21,1.18,3.21.15,0,.48,0,.48.36,0,.1-.08.31-.4.31Zm1.55-11.21c-.27,0-.32-.15-.32-.23a3.12,3.12,0,0,1,.93-1.3c.59-.59,1.34-1.34,1.34-2.12a.83.83,0,0,0-.71-.9.69.69,0,0,0-.67.58c0,.09.16.44.16.53a.59.59,0,0,1-.6.65.66.66,0,0,1-.63-.63,1.71,1.71,0,0,1,1.84-1.49c.63,0,1.62.23,1.62,1.34a2,2,0,0,1-1,1.58c-.29.23-1.15.9-1.15,1.09s.1.12.21.12h.94a1,1,0,0,0,.65-.21c.26-.18.26-.18.34-.18a.13.13,0,0,1,.13.14c0,.09,0,.11-.17.38-.34.63-.4.65-1,.65Z"/><path class="cls-1" d="M252.28,9.49s0,0,.06,0c.57,0,5.1,2.18,5.1,4.49a1,1,0,0,1-.86,1.09c-.4,0-.48-.17-1.36-1.72-.34-.59-.51-.65-.8-.65s-2.56.27-3,.31c-9.26.86-10.66,1-11.12,1.18-.07,0-.38.29-.47.29-.4,0-.65-1.93-.65-2.12s.07-.17.19-.17.55.07.65.07c1.35.1,2.4.16,2.73.16.74,0,.86-.06,1.22-.65.15-.21,2.52-3.78,2.71-5.62,0-.36,0-.4.15-.4s2.54.75,2.54,1.24a.29.29,0,0,1-.13.21,5.77,5.77,0,0,0-.61.23,13.67,13.67,0,0,0-1.53,1.85c-.36.46-2.42,2.79-2.42,3s.42.16.47.16c2.1,0,6-.14,8.21-.31.65,0,.71-.06.75-.15C254.27,11.5,252.28,9.72,252.28,9.49Zm.06,7a1,1,0,0,0,.88-.27c.44-.44.48-.51.63-.51s1.26.72,1.26,1.18c0,.17-.15.29-.31.42s-.32.25-.32,2.33c0,.46.11,2.79.11,3.32,0,1.47-1.1,1.47-1.18,1.47-.59,0-.59-.32-.59-.8s-.44-.59-.63-.59h-8.54c-.49,0-.63.17-.65.55a1.26,1.26,0,0,1-1.22,1.28c-.15,0-.53,0-.53-.74,0-.08,0-.31.05-.61.08-1.28.08-4.05.08-4.36,0-1.16,0-1.81-.08-2.54,0-.09-.09-.51-.09-.61s.13-.17.27-.17a6.5,6.5,0,0,1,1.58.5,2.37,2.37,0,0,0,.92.15Zm-8.74.57c-.65,0-.67.29-.67.84v3.46c0,.86,0,1.11.65,1.11h8.63c.63,0,.65-.29.65-.84V18.18c0-.88,0-1.11-.65-1.11Z"/><path class="cls-1" d="M266.33,14.86A3.76,3.76,0,0,0,268.42,16,4.07,4.07,0,0,0,271,14.55c.11-.13.15-.17.2-.17s.18.19.18.27c0,.36-1.71,2.44-3.32,2.44-.29,0-.83,0-2.25-1.22s-1.79-1.11-2.11-1.11A3.54,3.54,0,0,0,261.29,16c-.06.07-.42.47-.44.47s-.17-.15-.17-.28c0-.38,1.7-2.54,3.32-2.54C264.38,13.6,265,13.69,266.33,14.86Z"/><path class="cls-1" d="M289.67,17.76c0,3.66-3,6.93-7.5,6.93-3.94,0-7.15-2.36-7.15-6.17,0-3.53,2.81-5.58,5.54-6.9-2.45-1.45-4.34-3.18-4.34-6,0-2.46,2.11-5.64,6.71-5.64,3.27,0,5.76,2,5.76,5,0,3.31-2.71,4.91-4.47,5.79C286.3,11.9,289.67,13.89,289.67,17.76Zm-12.19.48a5,5,0,0,0,4.94,5.25,4.74,4.74,0,0,0,4.82-5c0-3.44-2.77-4.88-5.6-6.36C279.31,13.32,277.48,15.09,277.48,18.24Zm9-12.82c0-2.4-1.52-4.35-3.94-4.35a3.94,3.94,0,0,0-4.09,4c0,2.64,2.1,3.9,4.69,5.29C284.38,9.61,286.49,8.63,286.49,5.42Z"/><path class="cls-1" d="M300.23,24.69c-5,0-7.56-6-7.56-11.62C292.67,5.45,295.6,0,300.73,0c5.89,0,7.59,7.5,7.59,11.62C308.32,18.86,305.46,24.69,300.23,24.69ZM300.1,1.13c-3,0-4.75,4.26-4.75,10.65,0,5.51,1.57,11.75,5.51,11.75,2.9,0,4.79-4.35,4.79-10.55C305.65,7,303.73,1.13,300.1,1.13Z"/><path class="cls-1" d="M324.47,23.32c-.38,0-.4-.25-.4-.33,0-.32.26-.34.57-.34,1.09,0,1.09-.61,1.09-3.44a14.62,14.62,0,0,0-.21-3.89,1.69,1.69,0,0,0-1.66-1.4A3.55,3.55,0,0,0,321,15.68a37.24,37.24,0,0,0-.13,3.93c0,2,0,2.26.21,2.58a1,1,0,0,0,.86.46c.61,0,.8,0,.8.34s-.29.33-.48.33h-4.24c-.17,0-.51,0-.51-.33a.34.34,0,0,1,.17-.3,6.62,6.62,0,0,1,.88-.06c.87-.17.87-.61.87-3.53s0-3.29-.28-4.07a1.66,1.66,0,0,0-1.57-1.11A3.7,3.7,0,0,0,315.28,15c-.51.5-.55.54-.55,4.13,0,2.92,0,3.51,1.09,3.55.32,0,.63,0,.63.34s-.29.33-.46.33h-4c-.12,0-.42,0-.42-.33s.27-.34.61-.34a1,1,0,0,0,1-.61,34.73,34.73,0,0,0,.14-4.2,27.14,27.14,0,0,0-.12-3.23.81.81,0,0,0-.78-.52l-.63.06c-.06,0-.21,0-.21-.15s0-.19,1-.46c.73-.21,1.89-.53,2-.53s.19.11.19.61,0,.7.21.7a3.09,3.09,0,0,0,.65-.4,4.55,4.55,0,0,1,2.63-.91,2.27,2.27,0,0,1,2.35,1.37c0,.08.12.29.27.29s.15,0,.48-.33A4.75,4.75,0,0,1,324.51,13a2.21,2.21,0,0,1,2.4,1.62c.25.88.25,1.28.25,4.81,0,2.52,0,3.21,1.18,3.21.14,0,.48,0,.48.36,0,.1-.08.31-.4.31ZM326,12.11c-.28,0-.32-.15-.32-.23a3.12,3.12,0,0,1,.93-1.3C327.22,10,328,9.24,328,8.46a.83.83,0,0,0-.71-.9.7.7,0,0,0-.68.58c0,.09.17.44.17.53a.59.59,0,0,1-.61.65.66.66,0,0,1-.63-.63,1.73,1.73,0,0,1,1.85-1.49c.63,0,1.62.23,1.62,1.34a2,2,0,0,1-1,1.58c-.29.23-1.15.9-1.15,1.09s.1.12.21.12H328a1,1,0,0,0,.65-.21c.25-.18.25-.18.34-.18s.12,0,.12.14,0,.11-.16.38c-.34.63-.4.65-1,.65Z"/><path class="cls-1" d="M344.76,9.49s0,0,.07,0c.56,0,5.1,2.18,5.1,4.49a1,1,0,0,1-.86,1.09c-.4,0-.49-.17-1.37-1.72-.33-.59-.5-.65-.8-.65s-2.56.27-3,.31c-9.26.86-10.67,1-11.13,1.18a2.22,2.22,0,0,1-.46.29c-.4,0-.65-1.93-.65-2.12s.06-.17.19-.17.54.07.65.07c1.34.1,2.39.16,2.73.16.73,0,.86-.06,1.22-.65.14-.21,2.52-3.78,2.71-5.62,0-.36,0-.4.14-.4s2.54.75,2.54,1.24a.27.27,0,0,1-.12.21,4.49,4.49,0,0,0-.61.23,13.67,13.67,0,0,0-1.53,1.85c-.36.46-2.42,2.79-2.42,3s.42.16.46.16c2.1,0,6-.14,8.21-.31.65,0,.72-.06.76-.15C346.76,11.5,344.76,9.72,344.76,9.49Zm.07,7a1,1,0,0,0,.88-.27c.44-.44.48-.51.63-.51s1.26.72,1.26,1.18c0,.17-.15.29-.32.42s-.31.25-.31,2.33c0,.46.1,2.79.1,3.32,0,1.47-1.09,1.47-1.17,1.47-.59,0-.59-.32-.59-.8s-.44-.59-.63-.59h-8.55c-.48,0-.63.17-.65.55a1.25,1.25,0,0,1-1.21,1.28c-.15,0-.53,0-.53-.74,0-.08,0-.31,0-.61.09-1.28.09-4.05.09-4.36a24.89,24.89,0,0,0-.09-2.54c0-.09-.08-.51-.08-.61s.12-.17.27-.17a6.78,6.78,0,0,1,1.58.5,2.34,2.34,0,0,0,.92.15Zm-8.74.57c-.65,0-.67.29-.67.84v3.46c0,.86,0,1.11.65,1.11h8.63c.63,0,.65-.29.65-.84V18.18c0-.88,0-1.11-.65-1.11Z"/><path class="cls-1" d="M143.28,64.6c-.6,0-1.64,0-2.47.05-.11,0-.5.08-.6.08s-.16-.06-.26-.16l-.55-.6a.33.33,0,0,1-.08-.18s0,0,.08,0,.65.08.76.08c.83,0,2.23.1,3,.1h2c.23,0,.7,0,.7-.73,0-.57,0-3.46,0-3.64a.63.63,0,0,0-.73-.57h-.85c-.55,0-1.54,0-2.32.05a3.93,3.93,0,0,1-.54.08.51.51,0,0,1-.24-.16l-.52-.59a.47.47,0,0,1-.08-.19s0-.05.08-.05.6.08.7.08c.76,0,2.11.1,2.84.1h4.86c.91,0,1,0,1.25-.44.52-.88.6-1,.88-1a5.15,5.15,0,0,1,2,1.72c0,.36-.39.36-1,.36h-3.62a.68.68,0,0,0-.75.78c0,.55,0,3,0,3.48,0,.68.5.68.81.68h1.14c.94,0,1,0,1.36-.44.57-.89.62-1,.93-1a5.42,5.42,0,0,1,2.13,1.71c0,.37-.41.37-1.14.37h-4.39c-.29,0-.84,0-.84.72s0,3.2,0,3.67a.67.67,0,0,0,.75.68h4c1.17,0,1.3,0,1.67-.45.73-.85.8-1,1.06-1s2.42,1.38,2.42,1.72-.52.36-1.38.36h-16c-2.29,0-3,0-3.28.08l-.54,0c-.11,0-.16,0-.24-.15l-.49-.6c-.1-.13-.13-.13-.13-.18s0-.06.1-.06,1,.08,1.15.08c1.27,0,2.34.11,3.56.11h4.68a.67.67,0,0,0,.73-.73c0-.6,0-3.62,0-3.77a.64.64,0,0,0-.7-.57Zm4.47-15.92c.62.34.7.37.7.63s0,.23-.49.34c-.08,0-.08.12-.08.18,0,.39,3.12,5.07,9.1,7.43a13.64,13.64,0,0,1,2.08.78c0,.19-.89.32-1,.37a3.46,3.46,0,0,0-1.3.88c-.08.08-.34.31-.52.31-.42,0-3.9-2.7-5.83-4.94a19.62,19.62,0,0,1-2.8-3.85c-.08-.12-.29-.39-.42-.39s-.42.37-1,1.1a31.59,31.59,0,0,1-8.06,7.59,10.56,10.56,0,0,1-2.14,1.09c-.05,0-.18,0-.18-.1s.34-.39.52-.52c5.1-3.43,8.45-9.47,8.63-9.81s.89-2,.91-2C146,47.69,146.79,48.14,147.75,48.68Z"/><path class="cls-1" d="M183.94,38.31c.61,0,.85.19.85.47a1.72,1.72,0,0,1-.28.89c-3.8,5.62-11.52,24-12.22,30.05a9.69,9.69,0,0,0,0,1.63c0,.94-3.65,2.86-4.59,2.86-.28,0-.42-.14-.42-.47a6,6,0,0,1,.28-1.59c1.83-6.13,6.88-18.63,13.95-30.89H170a7.22,7.22,0,0,0-4.35,1.17A5.65,5.65,0,0,0,163.87,46c-.05.42-.19.65-.42.65s-.28-.23-.28-.75c0-1.49.7-7,.7-7.44s.18-.65.46-.65a18.71,18.71,0,0,0,4.45.46Z"/><path class="cls-1" d="M188.09,73.41a.66.66,0,0,1-.65-.65c0-.38.46-.8.84-1.12,9.36-8.33,16.33-14.79,16.33-23.78,0-6.69-4.31-8.66-7.44-8.66a6.6,6.6,0,0,0-5,1.78,6.21,6.21,0,0,0-1.68,4.54c0,.42-.14.7-.38.7s-.32-.18-.37-.6-.28-4.31-.28-5.76c0-.28,0-.42.47-.7a19.46,19.46,0,0,1,8.23-1.64c7.07,0,10.58,4.49,10.58,9.45,0,9.69-10.48,18.35-16.29,23.31-.23.19-.14.33.1.33H196c.8,0,6.32,0,8-.24,3.41-.33,4.91-1.73,5.52-4.49.09-.52.23-.7.51-.7s.28.28.28.56a44.62,44.62,0,0,1-1.4,6.27c-.37,1.26-1.08,1.45-3,1.45C196.14,73.51,190,73.41,188.09,73.41Z"/><path class="cls-1" d="M225.38,57.78c-.31,0-.75,0-.75.55a29.45,29.45,0,0,0,1.22,5c.31.88,1.12,2.1,1.43,2.1s.34-.13,1.27-1.19c.16-.19.26-.24.26-.16s-.39,1.72-.39,2a2.33,2.33,0,0,0,.21,1,3.73,3.73,0,0,1,.42,1,.73.73,0,0,1-.81.65c-1.07,0-2.76-2.23-3.48-4-.08-.21-.21-.47-.5-.47a1.9,1.9,0,0,0-.88.39c-.86.55-5.18,3-5.54,3.41-.13.16-.21.65-.47.65a13,13,0,0,1-1.84-2.47s0-.08.05-.08.6.13.73.13c.44,0,1.4,0,1.53-.75.08-.37.08-7.67.08-8.84,0-.91-.13-5.31-.13-5.54s-.08-.73-.08-.81,0-.08,0-.08c.34,0,1.87.71,2.26.71.06,0,4.63-1.28,5-2.11.26-.65.28-.73.44-.73a13.25,13.25,0,0,1,1.43.94c.8.52.91.6.91.73,0,.36-.24.39-2.24.75-1.27.23-1.43.26-1.43.88,0,.29.05,1.93.16,3.52.1,2,.13,2.1.73,2.1s.8-.15,1-.54.67-1.07.93-1.07a5.62,5.62,0,0,1,1.87,2c0,.33-.13.33-1.37.33Zm-2.5,11.83c1,0,1.17,0,1.43-.44.6-1,.65-1.17.91-1.17s.24,0,1.72,1.67a.33.33,0,0,1,.13.26c0,.36-.44.36-1.2.36h-4c-1.75,0-2.53,0-2.81.08l-.47,0c-.08,0-.16-.08-.21-.16l-.41-.59c-.11-.13-.11-.13-.11-.19s0,0,.08,0,.83.08,1,.08c1,0,2,.1,3,.1Zm-2.47-11.83c-.23,0-.7,0-.8.52-.05.26-.05,5.88-.05,6.3s.07.78.46.78a17,17,0,0,0,3.18-1.12c.78-.34,1-.52,1-.78,0,0-.31-1.41-.39-1.67-.16-.62-.7-3.56-.81-3.74s-.41-.29-.73-.29Zm1.75-.7c.33,0,.7,0,.7-.57,0-.13,0-.31-.13-1.46,0-.62-.13-2-.18-2.73-.06-1-.06-1.14-.47-1.14-.16,0-1,.15-1.22.18-.86.1-1.07.13-1.17.47s-.08,3.3-.08,4.45c0,.44,0,.8.8.8Zm13.31-7.25a.55.55,0,0,0,.62-.39c.13-.34.24-.5.39-.5s2.29,1.09,2.29,1.56c0,.24-.39.39-.49.44-.32.13-.42.21-.5.37a52,52,0,0,1-2.78,4.6,17,17,0,0,0-.94,1.48c0,.16.34.39.94.81,1.22.86,4.29,3,4.29,6.76a4,4,0,0,1-2,3.64,5.66,5.66,0,0,1-2.05.81c-.18,0-.31-.16-.42-.37a2.92,2.92,0,0,0-.62-1c-.18-.18-1.25-.91-1.25-1s.24-.08.26-.08c.29,0,1.69.15,2,.15,1.72,0,2.06-1.43,2.06-2.6a8.65,8.65,0,0,0-3-6.05c-.6-.5-.78-.63-.78-.91a11.61,11.61,0,0,1,.73-1.54,54.09,54.09,0,0,0,1.66-5.15c0-.39-.33-.39-.49-.39h-2.78c-.24,0-.63,0-.78.37s-.13,3.59-.13,4.18c0,4.09.1,10.4.31,14.25,0,.18.13,1.17.13,1.41,0,.78-.91,1.09-1.56,1.09-.23,0-.57,0-.57-.7,0-.06.1-1.1.1-1.2,0-.73.08-17,.08-18.72a6.06,6.06,0,0,0-.08-1.15,4.59,4.59,0,0,1-.1-.57c0-.13.05-.36.28-.36a10.42,10.42,0,0,1,1.33.55,2.7,2.7,0,0,0,1,.18Z"/><rect class="cls-2" y="16.51" width="375" height="41.19"/></g></g></svg>