<svg xmlns="http://www.w3.org/2000/svg" viewBox="0 0 375 57.47"><defs><style>.cls-1{fill:#333;}.cls-2{fill:none;}</style></defs><g id="レイヤー_2" data-name="レイヤー 2"><g id="レイヤー_1-2" data-name="レイヤー 1"><path class="cls-1" d="M107.3,4.86c-.35,0-.45.09-.45.46s0,.51.23.65c.69.42,1.42.87,1.42,1.55a.7.7,0,0,1-.64.71c-.4,0-.45-.35-.56-1-.07-.45-.22-.93-.36-.93s-.11.3-.11.37c0,.82,0,4.5,0,5.24,0,.58,0,3.21,0,3.64,0,.66-.47.89-.75.89a.51.51,0,0,1-.49-.58c0-.53.19-3.58.22-4.26,0-.51.06-2.35.06-3,0-.31,0-.35-.06-.35s-.8,1.4-1,1.66c-.32.56-1,1.6-1.36,1.6a.06.06,0,0,1,0-.06s.65-1.25.76-1.49a19.41,19.41,0,0,0,1.57-4.79c0-.27-.24-.34-.5-.34S104.08,5,104,5s-.08,0-.17-.13l-.29-.36c-.11-.13-.12-.15-.12-.16s0,0,.07,0c.29,0,1.62.09,1.89.09s.51-.09.51-.42,0-2.51,0-2.69,0-.78,0-.91,0-.2.18-.2.8.2,1,.23c.31.08.47.17.47.33s-.38.57-.4.68-.14,2.67-.14,2.78,0,.24.29.24c.11,0,.12-.06.36-.42.09-.17.16-.24.26-.24s1,.68,1,.93c0,.07,0,.2-.35.2Zm5.44,5a.46.46,0,0,0,.53-.49c0-.16-.07-.89-.09-1-.13-1.87-.15-2.42-.15-4.88a15,15,0,0,0-.09-2.74s-.07-.33-.07-.37.06-.2.18-.2c.28,0,1.7.22,1.7.47s-.4.46-.44.55A17.89,17.89,0,0,0,114,4.9a23.36,23.36,0,0,0,.37,4.62.44.44,0,0,0,.47.29h.71c.09,0,.25,0,.25-.2s-.49-1.16-.72-1.16-.19,0-.22-.08-.28-1-.28-1.09.06-.09.11-.09l.55,0c.42,0,.44,0,1.8-2.38a7.77,7.77,0,0,0,.58-1.26c.09-.29.15-.34.24-.34S119,4,119,4.11s-.51.44-.58.51a5.17,5.17,0,0,0-.9,1.11c0,.13.15.22.42.42s1.35,1,1.35,1.66a.85.85,0,0,1-.75.8c-.36,0-.47-.49-.51-.66s0-.3-.25-.3a7.64,7.64,0,0,0-2.31.65c0,.06.27.15.33.16.71.26,1,.66,1,.95,0,0,0,.24,0,.27s.12.13.2.13h.54c.15,0,.31,0,.51-.31s.28-.42.44-.42,1.31.73,1.31.95-.35.27-.53.27H115c-.13,0-.36,0-.36.33s0,.29.42,1.2c.14.33.16.37.27.37.29,0,.94-1.51,1.15-1.51s1.16.76,1.16,1.07c0,.15-.22.18-.38.22-.46.09-1.22,1.14-1.22,1.36,0,.46,1.38,1.71,1.73,1.71s.6-.38,1.31-1.54c.33-.51.36-.57.42-.57s0,0,0,.08-.51,1.74-.51,2.09c0,.16.28.91.28,1.05,0,.31-.29.39-.49.39-1.39,0-2.81-1.57-3.23-2.06s-.42-.47-.47-.47-.91.6-1.07.71a11.71,11.71,0,0,1-3.39,1.53s-.13,0-.13-.1.09-.14.18-.2c2.46-1.14,3.88-2.56,3.88-2.85,0-.06-.45-1-.6-1.31s-.4-1.11-.49-1.26a.58.58,0,0,0-.56-.24h-2c-.51,0-.55.17-.6.77-.33,3.29-2.35,5.06-2.59,5.06-.05,0-.09,0-.09-.11s.67-1.33.78-1.58a8.18,8.18,0,0,0,.75-3.55c0-.19,0-.57-.47-.57l-.91.06c-.06,0-.08,0-.19-.13l-.3-.37s-.11-.12-.11-.14,0-.06.07-.06l.82.06c1.14,0,1.85.07,2.47.07ZM110.52,4a.84.84,0,0,1,.11.4.48.48,0,0,1-.45.51c-.35,0-.55-.2-.91-.77a4.23,4.23,0,0,0-.8-.93c-.1-.07-.2-.18-.2-.23s0-.09.12-.09,1.24.41,1.4.41.2,0,.7-1.43a4.73,4.73,0,0,0,.23-.95c0-.05,0-.15.11-.15s1.33.73,1.33,1-.58.31-.65.38a16.35,16.35,0,0,0-1.17,1.53A2.94,2.94,0,0,0,110.52,4Zm.69,2.6s0-.07.1-.07,1.36.69,1.36,1.62c0,.36-.31.73-.55.73s-.38-.41-.43-.68-.06-.24-.22-.24a5.44,5.44,0,0,0-2.09.73c-.06.11-.1.19-.2.19s-.17-.1-.2-.26c-.06-.38-.19-1.06-.19-1.15a.11.11,0,0,1,.11-.12l.51,0c.22,0,.33,0,1.6-2.64,0-.09.31-.73.35-.8s.11-.24.16-.24,1.08.57,1.08.91c0,.19-.13.22-.29.24-.37,0-1.19,1.24-1.55,1.77s-.46.65-.46.71.2.14.24.14a4.14,4.14,0,0,0,1-.11C111.72,7.12,111.21,6.83,111.21,6.59ZM112.32,14c-.34,0-.41-.18-.71-.91a5.94,5.94,0,0,0-.83-1.54c-.11-.15-.13-.17-.13-.22s.07-.06.09-.06c.2,0,2.2.62,2.2,2A.68.68,0,0,1,112.32,14Zm4.21-12.86s0-.21,0-.24,0-.07.08-.07,1.38.54,1.38.8,0,.12-.33.25a9.87,9.87,0,0,0-1.35,1.71c0,.08,0,.09.19.29a1.2,1.2,0,0,1,.29.7.47.47,0,0,1-.44.49c-.29,0-.34-.08-.76-.84a2.87,2.87,0,0,0-.9-.91c-.05,0-.16-.11-.16-.16s.16-.13.27-.13a2,2,0,0,1,.8.18.54.54,0,0,0,.22,0A4.93,4.93,0,0,0,116.53,1.17Zm.69,4.91a9.48,9.48,0,0,0-1.07,1.16c0,.1.18.1.27.1a10.51,10.51,0,0,0,1.24-.11c.11,0,.16-.08.14-.2S117.44,6.08,117.22,6.08Z"/><path class="cls-1" d="M127.72,2.22a.08.08,0,0,1,.08-.07c.25,0,2.29,1.25,2.29,2.56,0,.42-.24.79-.55.79s-.43-.35-.65-1c-.07-.18-.09-.29-.31-.29s-3.55.75-4.22.89l-1.1.22a2,2,0,0,1-.42.24c-.32,0-.52-1.08-.52-1.35s.09-.27.27-.27,1,.13,1.13.13c.36,0,.44-.17.62-.64a10.82,10.82,0,0,0,.76-3c0-.31,0-.34.09-.34s1,.38,1.11.43c.39.15.64.24.64.46s-.58.51-.65.62A19.42,19.42,0,0,0,125,3.93c0,.17.2.17.33.17.73,0,1.93,0,2.64-.08s.68,0,.68-.2A16.34,16.34,0,0,0,127.72,2.22ZM125,11.85c-.18,0-.53,0-.53.47v2.92c0,.36,0,1.23-.93,1.23-.41,0-.43-.27-.43-.45s0-1,0-1.15c.08-1.27.09-2.89.09-4.48s0-2.36,0-2.65-.11-1.19-.11-1.41.07-.1.13-.1.25,0,1,.41a1.4,1.4,0,0,0,.71.17h2.58a.63.63,0,0,0,.51-.15c.13-.11.4-.4.48-.4s1.05.66,1.05,1c0,.09-.33.47-.36.56a1.83,1.83,0,0,0-.06.64s0,2.31,0,2.75.07,3.06.07,3.62a1.57,1.57,0,0,1-1.51,1.75c-.13,0-.17-.09-.22-.26a1.43,1.43,0,0,0-.53-.73c-.07-.07-.65-.31-.65-.43a.11.11,0,0,1,.12-.11c.15,0,.84.07,1,.07.58,0,.58-.11.58-2.06,0-1,0-1.18-.56-1.18ZM127.4,9.1c.54,0,.58,0,.58-1.07,0-.44,0-.73-.51-.73H125c-.54,0-.54.22-.54,1s0,.84.58.84Zm0,2.26c.29,0,.56,0,.56-.57,0-1,0-1.2-.56-1.2H125c-.57,0-.57.28-.57.84,0,.71,0,.93.57.93Zm9.52-.31c-.06,0-3.06,1.26-3.64,1.44s-.82.27-.82.85c0,1.44.18,1.66,2.14,1.66,2.12,0,2.32,0,2.92-1.95.12-.44.14-.51.23-.51s.11.13.13.22a4.63,4.63,0,0,0,.26,1.17,8.12,8.12,0,0,1,.43.94,1.16,1.16,0,0,1-.62.86c-.54.38-1.23.45-3.44.45-2.67,0-3.31-.42-3.35-2.4,0-.64,0-3.79,0-4.5,0-.07-.05-.49-.05-.58s.14-.09.22-.09,1.54.18,1.54.56c0,.08-.27.4-.31.5a16.32,16.32,0,0,0-.11,2.34c0,.06,0,.22.15.22a12,12,0,0,0,2.68-1.78c.12-.09.63-.71.8-.71a4.3,4.3,0,0,1,1.33,1C137.43,10.94,137.28,11,136.92,11.05ZM132.47,5c0,1.11,0,1.62,2,1.62s2.2-.4,2.42-.84a5.44,5.44,0,0,0,.38-.89c0-.09.13-.26.2-.26s.13.71.17.82a1.48,1.48,0,0,0,.31.71c.12.17.23.29.23.4,0,1.2-2.62,1.2-3.76,1.2-2.95,0-3.14-.52-3.14-3.54,0-.46,0-2.54,0-2.95,0-.09-.05-.51-.05-.6s.09-.08.15-.08,1.63.24,1.63.6c0,.13-.41.49-.45.6a12.63,12.63,0,0,0-.06,1.55c0,.66,0,.73.17.73a11.34,11.34,0,0,0,2.84-1.89c.11-.11.56-.64.69-.64a4.51,4.51,0,0,1,1.29,1.05c0,.13-.13.21-.51.26a33.44,33.44,0,0,0-3.66,1.42l-.67.25A.63.63,0,0,0,132.47,5Z"/><path class="cls-1" d="M143.65,13.42c-.51,0-.57.25-.57.6s0,1.49-.89,1.49c-.51,0-.51-.33-.51-.51,0-1.07.15-6.35.15-7.55s0-2.3-.08-3.41c0,0,0-.33,0-.4a.17.17,0,0,1,.18-.2c.16,0,1,.38,1.05.38s.2-.16.26-.27a12.83,12.83,0,0,0,1-2.82c0-.07,0-.42,0-.58.11,0,1.75.63,1.75.87s-.42.35-.51.42a9.48,9.48,0,0,0-1.86,2.42c0,.13.16.13.27.13H146a.57.57,0,0,0,.49-.2c.24-.28.4-.48.49-.48s1.37.71,1.37,1-.48.53-.53.65-.07,2.17-.07,3.46,0,4.13,0,4.95c0,.22,0,.77,0,.77,0,.49-.64.65-.87.65-.53,0-.53-.31-.53-.63,0-.62-.15-.71-.68-.71Zm0-4.68c-.56,0-.56,0-.56,2.09a15.32,15.32,0,0,0,.07,1.86.48.48,0,0,0,.49.25h2.22c.57,0,.57,0,.57-2.11A13.71,13.71,0,0,0,146.32,9c-.07-.21-.32-.23-.49-.23Zm2.22-.49c.22,0,.58,0,.58-.5s0-2.87,0-2.94c-.08-.35-.37-.35-.57-.35h-2.18c-.22,0-.59,0-.59.51s0,2.88,0,3c.08.33.37.33.57.33Zm5-3.94c-.43,0-.49.1-1,.91-.8,1.24-1.2,1.79-1.41,1.79,0,0-.06,0-.06,0s.33-.78.38-.93A25.35,25.35,0,0,0,150.53.51c.07-.38.07-.42.14-.42s1.82.37,1.82.67c0,.13-.52.46-.61.55a11.63,11.63,0,0,0-1,2.31c0,.22.18.22.4.22h3.51a.79.79,0,0,0,.44-.16c.07-.08.33-.53.45-.53s1.48.73,1.48,1c0,.12-.48.54-.55.67a7.38,7.38,0,0,0-.07,1.93c0,6-.89,7.7-1.33,8.46a2.59,2.59,0,0,1-2,1.21.37.37,0,0,1-.4-.26c-.2-.65-.21-.75-.69-1-.16-.11-1.07-.45-1.07-.58a.09.09,0,0,1,.09-.09c.09,0,.55.11.65.13s1.26.18,1.5.18a1.06,1.06,0,0,0,.91-.42c.71-.91,1.13-4,1.13-6.14,0-.49-.06-2.91-.06-3.45s-.36-.5-.56-.5ZM153,10.1a.89.89,0,0,1-.89.89c-.55,0-.6-.32-.73-1.25a4.84,4.84,0,0,0-.75-2.09c-.16-.28-.2-.31-.2-.37s.06-.07.09-.07C150.77,7.21,153,8.57,153,10.1Z"/><path class="cls-1" d="M164.13,2.44a1.44,1.44,0,0,0-.26-.8,4.1,4.1,0,0,1-.34-.51c0-.22.38-.38.75-.38a1.5,1.5,0,0,1,1.31.8c.09.12.27.2.82.34.34.09,1,.29,1,.8,0,.7-1,1-2.49,1.46-.16.06-.18.11-.35.75-.22.91-1.78,7.06-3.46,7.06-.49,0-.56-.33-.56-.51s0-.35.6-1.13a16.13,16.13,0,0,0,2.51-5.93c0-.17-.12-.18-.4-.2-2.15-.19-2.15-1.46-2.15-1.48s0-.22.13-.22.13,0,.49.24a2.69,2.69,0,0,0,1.41.38A2.27,2.27,0,0,0,164,3,.9.9,0,0,0,164.13,2.44Zm5.24,11.39a2.38,2.38,0,0,1-2.56,2,2.54,2.54,0,0,1-2.75-2.11c0-1.19,1.29-1.8,2.93-1.8l.94,0c.17,0,.26,0,.26-.2s-.07-1.49-.07-1.75c0-2,.11-3,1.63-3.84C170.88,5.5,171,5.44,171,5A1.6,1.6,0,0,0,170.5,4c-.16-.14-.24-.22-.24-.29s.06-.09.13-.09a5.6,5.6,0,0,1,1.08.31,2,2,0,0,1,1.32,1.86.86.86,0,0,1-.85.94,1.3,1.3,0,0,1-.42-.07c-.69-.26-.76-.29-1-.29a2.17,2.17,0,0,0-1.33.54,2.05,2.05,0,0,0-.44,1.51c0,.46.18,3.28.73,3.66.16.13,1,.42,1.18.51.39.2,1.44.79,1.44,1.46,0,.31-.13.64-.49.64-.18,0-.29-.06-.56-.29-.5-.44-1.33-1-1.59-.9C169.41,13.58,169.41,13.65,169.37,13.83Zm-2.62-1c-.42,0-2.06,0-2.06,1,0,.44.55,1,1.64,1,1.77,0,2-1.38,1.91-1.67S167.17,12.8,166.75,12.8Zm-.49-10.42c0-.12-.64-.45-.75-.45-.31,0-.43.75-.43.8a.18.18,0,0,0,0,.11C165.17,2.89,166.26,2.66,166.26,2.38Z"/><path class="cls-1" d="M180.72,3.51c.41,0,.47,0,.76-.42.11-.14.33-.41.46-.41s1.22.83,1.22,1.09-.2.23-.51.23H178l-1,0a2.14,2.14,0,0,1-.35.06c-.09,0-.13,0-.2-.13l-.23-.33s-.11-.14-.11-.18.07,0,.09,0l.43.06c.77,0,.9,0,1.24,0ZM180.26,6c.36,0,.49,0,.73-.29s.33-.35.42-.35c.27,0,1.09.64,1.09.89s-.22.24-.51.24h-3.15c-.38,0-.47,0-.76,0l-.59,0a.13.13,0,0,1-.14-.09L177.09,6,177,5.92s.05,0,.09,0l.38,0A12.71,12.71,0,0,0,178.8,6Zm0,2.26c.38,0,.47,0,.65-.26s.35-.4.42-.4c.24,0,1.15.73,1.15.95s-.2.2-.49.2h-3.08l-1.33,0c-.11,0-.15,0-.16-.09l-.26-.4a.2.2,0,0,1,0-.11s0,0,.07,0l.64.07c.63,0,.69,0,1,0Zm0-7.19a.68.68,0,0,0,.71-.31c.11-.13.32-.4.51-.4s1.12.67,1.12,1-.21.22-.51.22h-3.13c-.45,0-.51,0-1,0a2.23,2.23,0,0,1-.36.05c-.07,0-.11,0-.15-.11l-.23-.4a.16.16,0,0,1-.06-.13s0,0,.07,0a5.21,5.21,0,0,1,.57.09c.67,0,.75.06,1.11.06ZM179.06,15c-.53,0-.53.2-.53.78,0,.78-.87.94-1,.94-.27,0-.37-.18-.37-.49,0-.47.06-2.73.06-3.24,0-.91,0-1.36-.09-2,0-.11,0-.45,0-.52s0-.17.07-.17,1,.4,1.15.46a2.68,2.68,0,0,0,.75.11h1.34a.66.66,0,0,0,.61-.29c.25-.35.29-.39.43-.39s1,.64,1,.89,0,.15-.3.48a.42.42,0,0,0-.11.31c0,.45.1,2.69.1,3.2a.81.81,0,0,1-.86.75c-.35,0-.36-.15-.4-.48s-.24-.3-.49-.3ZM179,11.27c-.38,0-.55.14-.55.47,0,.17.06,2.35.1,2.48s.38.23.5.23h1.37c.56,0,.56-.18.56-.89,0-.38,0-1.64,0-1.93s-.26-.36-.51-.36ZM188.74,8a1.47,1.47,0,0,0,.73-.13,5.48,5.48,0,0,1,.71-.44c.24,0,1,1,1,1.2s0,.17-.51.31c-.31.1-.36.24-1,1.44a11.74,11.74,0,0,1-1.39,2.1c-.29.34-.32.38-.32.43a5.53,5.53,0,0,0,3.33,2c.22.06,1.14.24,1.34.29,0,0,.11,0,.11.07a7.41,7.41,0,0,1-1.2.46,1.59,1.59,0,0,0-.71.6s-.09.11-.16.11a10.76,10.76,0,0,1-3.19-2.11c-.33-.35-.36-.38-.45-.38a9,9,0,0,0-.86.67,10.76,10.76,0,0,1-3.78,2c-.06,0-.11,0-.11-.06s.34-.27.36-.29a13.64,13.64,0,0,0,3.44-2.77c.15-.16.31-.34.31-.47a1.84,1.84,0,0,0-.16-.31A12.44,12.44,0,0,1,185,8.92c-.07-.38-.27-.38-.42-.38l-.64.05c-.1,0-.12,0-.18-.11l-.36-.42s-.07-.09-.07-.12,0,0,.09,0l.72,0c.66,0,1.92.08,2.55.08Zm-2.36-6.72c-.51,0-.51.27-.51.62,0,2.8-.77,3.64-1.24,4.13A3.9,3.9,0,0,1,183,7.17s-.07,0-.07,0a4.05,4.05,0,0,1,.52-.64,5.21,5.21,0,0,0,1.21-3.84c0-.37,0-1-.06-1.57,0-.11-.11-.6-.11-.71s0-.09.06-.09.94.35,1.09.4a1.46,1.46,0,0,0,.71.13h1.06a.66.66,0,0,0,.49-.15c.11-.09.62-.62.78-.62s1,.86,1,1.08a.26.26,0,0,1-.14.22,3.07,3.07,0,0,0-.31.16A4.53,4.53,0,0,0,189,3.17c0,2,0,2.24,1,2.24.88,0,.93-.15,1.13-.75a8.81,8.81,0,0,1,.37-1.27c.07,0,.27,1.29.34,1.52s.37.53.37.64a1.09,1.09,0,0,1-.53.75,3.27,3.27,0,0,1-1.7.29c-1.56,0-2.18-.18-2.18-1.73,0-.44,0-2.6,0-3.09s-.37-.46-.53-.46Zm-.24,7.19c-.53,0-.71,0-.71.29,0,1,1.28,3.3,1.75,3.3s2-2.77,2-3.26c0-.24-.2-.33-.43-.33Z"/><path class="cls-1" d="M196.48,6.33c0-.07,0-.32-.15-.32S195,7.74,194.67,7.74c0,0-.09-.06-.09-.11a9.47,9.47,0,0,1,.51-.84A27.15,27.15,0,0,0,197.59,1c.25-.91.29-1,.4-1s1.45.64,1.45.93c0,.13,0,.13-.32.25a.42.42,0,0,0-.22.19s-1.59,3.16-1.59,3.25.06.19.33.33.4.24.4.38-.33.37-.38.44-.07.27-.07,1.64c0,.91-.06,5.3-.06,6.28,0,.31,0,1.73,0,2.06,0,.65-.44.83-.89.83s-.5-.25-.5-.51c0,0,0-1,0-1.07.15-2.08.27-5.55.27-7.65C196.49,7.21,196.48,6.5,196.48,6.33ZM207.62,2.8c-.15,0-.53,0-.53.44,0,1.78,0,1.78.64,1.78H208c.83,0,.93,0,1.16-.29.49-.63.55-.71.71-.71a3.85,3.85,0,0,1,1.46,1.24c0,.26-.37.26-1,.26h-8.72c-.61,0-.82.09-.91.36a11.2,11.2,0,0,0-.13,2c-.06,5.48-1.77,8-2.22,8-.06,0-.09,0-.09-.1s.31-.81.38-1.07c.51-1.71.8-4,.8-8.54,0-.43-.07-.58-.38-.58l-.31,0c-.08,0-.09-.06-.17-.13l-.36-.42c-.07-.09-.07-.09-.07-.11s0,0,.05,0l.64,0c.18,0,2,.09,2.29.09A2.35,2.35,0,0,0,202,5c.29-.15.29-.26.29-1.6,0-.55-.27-.57-.62-.57s-1.36,0-1.67.06a1.15,1.15,0,0,1-.26,0c-.05,0-.09,0-.16-.1l-.35-.42c-.07-.09-.07-.09-.07-.13s0,0,.05,0c.37,0,2.17.13,2.57.13s.53-.2.53-.49-.06-1.31-.06-1.55c0,0,0-.24.08-.24s1.42.19,1.42.46a2.4,2.4,0,0,1-.26.42,3,3,0,0,0-.07.78c0,.33,0,.62.53.62h1.53a.46.46,0,0,0,.49-.49c0-.22-.07-1.29-.07-1.53s0-.24.1-.24,1.48.24,1.48.48-.35.47-.38.56a3.73,3.73,0,0,0,0,.73c0,.42.24.49.55.49.74,0,.85,0,1.07-.31.49-.64.55-.71.71-.71a4.17,4.17,0,0,1,1.46,1.24c0,.25-.37.25-1,.25Zm-4.17,9.91c-.46,0-.53.14-.53.74,0,.17,0,1.57,0,1.86s0,1.15-.84,1.15c-.51,0-.51-.33-.51-.46s.09-.93.11-1.11c.07-1.35.14-2.71.14-4.08,0-.94,0-2,0-2.89,0-.13,0-.77,0-.89s0-.42.17-.42a2.3,2.3,0,0,1,.6.31,1.07,1.07,0,0,0,.78.23h4.48a.6.6,0,0,0,.42-.12c.34-.35.38-.39.45-.39s.91.42,1.06.48a.5.5,0,0,1,.23.4.24.24,0,0,1-.07.18c-.18.18-.22.22-.25.67,0,.19,0,5.23,0,5.88,0,.88,0,1.35-.31,1.73a2.16,2.16,0,0,1-1,.53c-.18,0-.22-.05-.4-.44-.07-.14-.64-.74-.64-.82s.08-.09.17-.09l.43,0c.57,0,.66-.24.66-1.82,0-.51-.11-.67-.55-.67h-1.33c-.45,0-.49.25-.49.74,0,.24.06,1.46.06,1.73a1,1,0,0,1-.09.53.87.87,0,0,1-.77.45c-.36,0-.44-.14-.44-.47,0-.13.06-.71.08-.84,0-.47.05-1.14.05-1.62,0-.31-.07-.52-.45-.52Zm0-2.59c-.42,0-.51.24-.51.53,0,1.53,0,1.58.51,1.58h1.17c.42,0,.51-.23.51-.53,0-1.52,0-1.58-.51-1.58Zm0-2.49c-.42,0-.51.23-.51.54,0,1.33,0,1.48.51,1.48h1.13c.42,0,.51-.24.51-.55,0-1.31,0-1.47-.51-1.47ZM204,2.8c-.28,0-.55.09-.55.4,0,1.82.11,1.82.62,1.82h1.29c.29,0,.51,0,.58-.27s0-1.25,0-1.47a.45.45,0,0,0-.49-.48Zm2.64,4.83c-.44,0-.51.23-.51.54,0,1.33,0,1.48.51,1.48H208c.42,0,.51-.24.51-.55,0-1.31,0-1.47-.51-1.47Zm0,2.49c-.43,0-.51.24-.51.53,0,1.53,0,1.58.51,1.58H208c.42,0,.51-.23.51-.53,0-1,0-1.12,0-1.2,0-.31-.25-.38-.49-.38Z"/><path class="cls-1" d="M217.19,8.34a1.2,1.2,0,1,1,1.2,1.2A1.2,1.2,0,0,1,217.19,8.34Z"/><path class="cls-1" d="M227.78,5.72c-.05,0-.09,0-.42.47A11.12,11.12,0,0,1,225.5,8.1s-.05,0-.05,0,0-.06.15-.28c.49-.8.52-.91,1.91-3.53,1-1.87,1.49-2.82,1.58-3.77,0-.4,0-.45.18-.45.31,0,2.08,1,2.08,1.36,0,.11-.07.19-.26.26s-.67.31-.69.33a13.13,13.13,0,0,0-1.67,2.44c0,.16.14.21.29.27s.51.23.51.42a.32.32,0,0,1-.06.16c-.22.29-.27.35-.31.58s0,4,0,4.48c0,.75,0,4.46,0,5.3a.89.89,0,0,1-1,1c-.49,0-.55-.26-.55-.51s.17-2,.18-2.35c.08-1.64.11-2.92.11-7.3C227.94,6.26,227.94,5.72,227.78,5.72Zm10.07,9.46c.85,0,.94,0,1.33-.53s.45-.65.6-.65a5.33,5.33,0,0,1,1.65,1.42c0,.24-.09.25-1,.25h-6.32c-.42,0-1.65,0-2.29,0l-.38,0c-.08,0-.11,0-.17-.12l-.36-.42c-.06-.07-.08-.09-.08-.11s0-.06.08-.06,1,.08,1.14.08c1.33,0,1.37,0,2.41,0a.44.44,0,0,0,.49-.34c0-.19,0-4.7,0-5.36,0-.29,0-2.14,0-2.25a.46.46,0,0,0-.53-.42H233c-.4,0-1.65,0-2.29.05-.07,0-.33.06-.38.06s-.11-.06-.17-.13l-.34-.42c-.08-.07-.09-.09-.09-.13s0,0,.07,0,.69,0,.8.07c.84,0,1.66,0,2.49,0h1.37c.55,0,.55-.32.55-.74,0-.86,0-3.44-.1-4.06,0-.13-.18-.69-.18-.82s.2-.22.26-.22,1.18.27,1.4.33c.62.18.69.2.69.4s-.09.18-.4.42-.27.45-.29.87c-.09,1.39-.09,2.86-.09,3.06,0,.51,0,.76.6.76h2c.84,0,.95,0,1.16-.3.44-.62.5-.7.68-.7.34,0,1.47,1.13,1.47,1.24s-.09.24-1,.24H236.9c-.51,0-.58.25-.58.54,0,3.66,0,6.76,0,7.12s0,.71.54.71Z"/><path class="cls-1" d="M248.35,4.91c-.58,0-.58.19-.58,1,0,.28.11.33.49.55,1.46.82,1.68,1.45,1.68,2s-.26.91-.7.91-.62-.42-.76-1.38C248.39,7.5,248,7,247.86,7s-.09.18-.09.22c0,1.26,0,6.77,0,7.88,0,.73,0,1.53-.79,1.53a.42.42,0,0,1-.47-.49c0-.44.06-1.16.07-1.62,0-.62.17-5.7.17-5.84s0-.15-.07-.15a.28.28,0,0,0-.19.13c-.49.76-1.94,3-2.44,3,0,0-.09,0-.09-.09s.66-1,.77-1.17a15.7,15.7,0,0,0,1.78-5.11c0-.39-.34-.39-.49-.39s-1.22.1-1.37.1-.1-.06-.16-.13l-.36-.42c-.06-.07-.08-.09-.08-.11s0,0,.08,0c.32,0,1.78.11,2.09.11.6,0,.6-.51.6-.77s0-1.89,0-2.06c0-.4-.2-1.18-.2-1.43,0-.1.08-.11.13-.11a7.34,7.34,0,0,1,1.37.32.28.28,0,0,1,.21.26c0,.13-.31.65-.32.76a18.44,18.44,0,0,0-.19,2.72c0,.29.11.32.37.32a.59.59,0,0,0,.56-.27c.28-.42.31-.47.46-.47a3.32,3.32,0,0,1,1.13,1c0,.25-.39.25-1,.25Zm4,7.91c.17-.1,1-.57,1.08-.57s.07.06.07.07c0,.22-2.24,2.08-2.46,2.59-.09.24-.18.44-.33.44s-1.12-1.52-1.12-1.55,0-.09.1-.09a3.54,3.54,0,0,0,.68-.09A11.23,11.23,0,0,0,252.3,12.82Zm.64-1.55c0,.4-.2.67-.58.67s-.55-.29-.77-.76a8.42,8.42,0,0,0-1.24-2,.21.21,0,0,1,0-.11s0-.09.07-.09a6.28,6.28,0,0,1,1.95,1.09A1.64,1.64,0,0,1,252.94,11.27Zm3-4.83c-.56,0-.56.2-.56,1.31,0,.53.35.53.58.53h1.3c.76,0,.85,0,1-.16s.55-.82.69-.82,1.55,1,1.55,1.2-.36.26-1,.26H259c-.09,0-.26,0-.26.14s.89.77.89,1-.05.17-.49.31c-.71.26-.84.37-2,1.41-.15.12-.18.16-.18.27,0,.4,2.22,2.18,4,2.18,0,0,.13,0,.13.06s-.95.51-1.11.62-.66.6-.78.6-2-.88-3.5-4.35c-.16-.37-.16-.4-.24-.4s-.09.09-.09.16,0,.49,0,.56c0,.57.17,3,.17,3.48,0,.73-.11,1.17-.55,1.44a2.09,2.09,0,0,1-.93.33c-.12,0-.16-.09-.2-.17a2.91,2.91,0,0,0-1.47-1.18c-.11,0-.2-.07-.2-.15s.05-.05.09-.05l1,.05c1.06,0,1.06-.12,1.06-1.14s0-4.19,0-4.63a.46.46,0,0,0-.47-.52c-.88,0-2.19,0-2.61.07l-.14,0c-.07,0-.11,0-.17-.11l-.36-.42c-.05-.09-.07-.09-.07-.13s0,0,.07,0l.66.05c.67,0,1.8.07,2.47.07.33,0,.62,0,.62-.51,0-1.18,0-1.33-.51-1.33s-1.57,0-2,.06l-.4,0c-.05,0-.09,0-.14-.11L250.79,6c-.07-.09-.07-.09-.07-.13s0,0,.05,0,.71.06.82.06c.68,0,1.49.07,2.15.07.51,0,.51-.33.51-.64,0-1,0-1.22-.51-1.22h-.45c-.51,0-1.46,0-1.83,0a2.32,2.32,0,0,1-.38.06c-.07,0-.11-.06-.16-.13l-.35-.42c-.07-.07-.09-.09-.09-.11s0,0,.07,0,.7,0,.81.07,1.45.05,2.33.05h1.2c.42,0,.6,0,1.53-2,.25-.59.43-1.32.45-1.35s.06-.17.13-.17,1.62.62,1.62.88-.09.22-.46.44A18.55,18.55,0,0,0,256,3.51c0,.08.12.11.23.11,1.09,0,1.22,0,1.42-.31.38-.6.42-.65.62-.65s1.71,1,1.71,1.2-.36.25-1,.25h-3c-.49,0-.63,0-.63,1.37,0,.47.36.49.56.49h.47c.73,0,.8,0,.95-.13s.6-.89.76-.89,1.62,1,1.62,1.24-.34.25-1,.25ZM254,2.26c0,.69-.44,1-.77,1s-.42-.34-.51-.72a6.42,6.42,0,0,0-.89-2.11c-.09-.15-.11-.19-.11-.24s0-.07.11-.07a3.64,3.64,0,0,1,1.77,1.14A1.44,1.44,0,0,1,254,2.26Zm1.91,6.5c-.2,0-.57,0-.57.45s.84,2.09,1.13,2.09c.44,0,1.68-2.13,1.68-2.33s-.17-.21-.24-.21Z"/><path class="cls-1" d="M70.9,43.51c0,.24-.82.88-.92,1.05s-1.38,3.25-1.69,3.82c-3.24,6.52-8.51,8.69-9,8.69-.14,0-.21-.07-.21-.17a22.09,22.09,0,0,1,1.79-1.69,22.8,22.8,0,0,0,6.63-12.74c0-.41-.07-1-.81-1a41.61,41.61,0,0,0-5.38,1,21.53,21.53,0,0,1-2.43.6,3,3,0,0,1-2.67-2.57c0-.2.07-.33.24-.33a2.46,2.46,0,0,1,.5.17,10.45,10.45,0,0,0,2.13.23c2.17,0,10.92-.94,13.29-1.28.4-.07,2.16-.61,2.53-.61s4.26.74,4.26,2.13c0,.61-.54.81-1,.81s-2-.27-2.37-.3c-.71-.07-1.65-.17-2.4-.17a29.44,29.44,0,0,0-3.41.1.42.42,0,0,0-.24.51A10.14,10.14,0,0,1,70.9,43.51Zm-7.51-9.93c1,0,1.42-.11,4.8-.85a14,14,0,0,1,2.71-.4c.7,0,1.92.13,1.92,1.11s-.57,1.05-2.57,1.25c-1.72.2-4,.64-4.49.74-.17,0-1.49.31-1.59.31-1.66,0-2.7-2.37-2.54-2.43C61.63,33.31,63.12,33.58,63.39,33.58Zm18.12,3.54c0,.51-.41,1.29-1,1.29s-.77-.27-1.72-1.56a10,10,0,0,0-2.3-2.09c-.13-.1-.47-.41-.47-.54s.3-.27.57-.27C79.62,34,81.51,35.94,81.51,37.12Zm3-3.31a1,1,0,0,1-.88,1c-.71,0-1.15-.58-1.72-1.36A8.15,8.15,0,0,0,79,31.41c-.34-.13-.41-.27-.41-.37,0-.34,1-.34,1.26-.34C81.71,30.7,84.48,31.85,84.48,33.81Z"/><path class="cls-1" d="M93.45,43.34c.58.38,1.29.71,1.29,1.15,0,.17-.31.95-.34,1.15a33.67,33.67,0,0,0-.14,4.87c0,.88,0,2,.07,3.24,0,.34.21,2.07.21,2.44s0,1.28-.75,1.28-1.69-1.32-1.69-2a7,7,0,0,1,.17-1.22,41.85,41.85,0,0,0,.37-5.81c0-.85,0-3.72-.67-3.72-.1,0-.17.07-.71.54a24.38,24.38,0,0,1-7.57,5.07.2.2,0,0,1-.21-.2c0-.17,1-1,1.35-1.29,6.73-5.54,9.33-10.75,9.33-11.59a1.73,1.73,0,0,0-.23-.81,3.4,3.4,0,0,1-.27-.54.37.37,0,0,1,.37-.34c.37,0,3.24,1.18,3.24,2.33a.78.78,0,0,1-.27.61,4,4,0,0,0-1,1.08c-.74,1.12-.94,1.35-2.63,3.52A.36.36,0,0,0,93.45,43.34Z"/><path class="cls-1" d="M120,36.72c-.24,0-7.33,1.66-7.5,1.72a15.08,15.08,0,0,1-1.52.65,7.06,7.06,0,0,1-2.3-1.22,6.91,6.91,0,0,1-.81-2c0-.17,0-.27.2-.27l.88.23a5.85,5.85,0,0,0,1.79.34c1.15,0,7.5-.54,9.26-1.25a12.89,12.89,0,0,1,1.86-1.05c.81,0,2.87,1.73,2.87,2.57,0,.31-1.25,1.22-1.45,1.46-.68.81-3.35,4.76-3.89,5.54a1.13,1.13,0,0,0-.27.67c0,.31.07.38,1.49,1.15s7.57,4.3,7.57,7.37a1.46,1.46,0,0,1-1.39,1.49c-.77,0-.91-.24-2.09-2.33-2.33-4.09-5.31-6.66-6-6.66-.34,0-.44.1-1.18.95a34.28,34.28,0,0,1-9,7.23,8.28,8.28,0,0,1-2.09.78c-.07,0-.24,0-.24-.21a11.2,11.2,0,0,1,1.55-1.25c8.83-6.39,12.85-15.14,12.75-15.68A.38.38,0,0,0,120,36.72Z"/><path class="cls-1" d="M134.83,50.31c0-.65.3-1,1.28-1.59a29.35,29.35,0,0,0,3.31-2.6c.17-.17.54-.51.68-.51s.17.3.17.4c0,1.59-1.59,5.68-3.82,5.68a1.76,1.76,0,0,1-.64-.13A1.37,1.37,0,0,1,134.83,50.31Zm13.24,2.23c0,.5,0,2.73-1.79,2.73-.74,0-.81-.2-1.52-2.16a9.35,9.35,0,0,0-1.25-2.4c-.13-.23-.2-.3-.2-.4a.12.12,0,0,1,.13-.14c.24,0,1.36.44,1.59.44.44,0,.61-.37.68-.91.17-1.59.17-5,.17-6.8,0-1.62-.07-2.23-1-2.23-.21,0-4.26.58-6.26,1.09a10.81,10.81,0,0,1-1.35.37c-.74,0-2.43-2.3-2.43-3,0-.17,0-.3.24-.3a1.84,1.84,0,0,1,.64.2,10,10,0,0,0,3,.34c.77,0,4.42-.2,5.44-.24,1.28-.06,1.62-.3,1.62-1.42a12.28,12.28,0,0,0-.71-4.32c-.07-.17-.64-.71-.64-.88s.37-.34,1.15-.34c2.33,0,3.17,1.49,3.17,1.76a7.93,7.93,0,0,1-.6,1.11,8.33,8.33,0,0,0-.31,2.61c0,1,.44,1.21,1.32,1.21a29.56,29.56,0,0,0,3.28-.34c.44-.06,2.23-.5,2.6-.5a7.06,7.06,0,0,1,3.28,1.15c.37.23.84.5.84,1.08s-.74.67-.87.67c-.51,0-2.71-.37-3.18-.44-1.29-.13-3.75-.16-4-.16-2.91,0-3.21,0-3.21,1.92C147.91,43.88,148.07,51.08,148.07,52.54Zm8.15-2.44A11.88,11.88,0,0,0,153.48,46a8.22,8.22,0,0,1-1.35-1.42c0-.17.17-.17.24-.17,1.79,0,7.23,3.28,7.23,6.12,0,.77-.41,1.89-1.52,1.85C157.13,52.33,156.83,51.56,156.22,50.1Zm4.39-16.86a3.25,3.25,0,1,1-6.49,0A3.21,3.21,0,0,1,157.4,30,3.14,3.14,0,0,1,160.61,33.24Zm-5.4.1a2.15,2.15,0,0,0,4.29,0,2.26,2.26,0,0,0-2.17-2.16A2.19,2.19,0,0,0,155.21,33.34Z"/><path class="cls-1" d="M187.81,41.92l.75,0c2.06,0,2.36,1.25,2.36,1.49,0,.94-1.38,1-2.8,1-.78,0-4.16-.07-4.84-.07-4.66,0-12.4.44-13.21.61-.41.06-2.23.6-2.64.6-1.45,0-3-2.09-3-3.24,0-.2.11-.41.27-.41s1,.38,1.15.41a18.51,18.51,0,0,0,4.13.3C171.08,42.63,182.88,42.19,187.81,41.92Z"/><path class="cls-1" d="M195.9,39.93c.51.07,2.47.3,2.91.3.67,0,3.61-.2,4.22-.2s1-.13,1-.94a8.8,8.8,0,0,0-.74-3.76c-.1-.13-.64-.71-.64-.84s.61-.34,1.18-.34c.78,0,3,1.59,3,2.27a11.7,11.7,0,0,1-.6,1.41,4.71,4.71,0,0,0-.14,1.22c0,.51.34.71.81.71.88,0,3-.13,3.85-.2s.75-.64.75-1a40,40,0,0,0-.24-5.51c-.1-.31-1.05-1.66-1.05-1.72s.37-.34.78-.34a7.6,7.6,0,0,1,2.7,1c.34.17.85.41.85.81a6.54,6.54,0,0,1-.58,1.22,15.6,15.6,0,0,0-.33,3.78c0,1.09,0,1.42.81,1.42a10.48,10.48,0,0,0,2.3-.37,4.09,4.09,0,0,1,1.69-.44c1.69,0,4.66.58,4.66,2.23a1,1,0,0,1-1.08,1c-.41,0-2.23-.4-2.6-.47-1.15-.17-4.53-.24-4.6-.24-1,0-1,.24-1.12,2.2-.13,3.21-.5,7.1-3.58,10.88a11,11,0,0,1-3.51,3,.2.2,0,0,1-.21-.21s1.69-2.19,2-2.63c2.67-4,3.28-7.74,3.28-12.1,0-1.08-.54-1.08-1-1.08a21.59,21.59,0,0,0-4,.33c-.44.24-.44.38-.44,1.83,0,.74.2,4,.2,4.66,0,1.62-.17,2.23-.64,2.23C205,50.1,204,48,204,47.4c0-.34.3-3.58.3-3.92,0-1.62-.2-1.83-.78-1.83a27.49,27.49,0,0,0-4.32.82,9,9,0,0,1-1.19.37c-.4,0-3.34-1.49-3.34-2.81a.27.27,0,0,1,.23-.3A6.34,6.34,0,0,1,195.9,39.93Zm27-4.33c0,.51-.41,1.29-1,1.29s-.75-.24-1.73-1.52a9.22,9.22,0,0,0-2.33-2.1c-.24-.17-.51-.3-.51-.51s.31-.27.61-.27C221.25,32.49,222.87,34.59,222.87,35.6Zm2.16-3a1,1,0,0,1-.88,1c-.71,0-1.11-.47-1.75-1.25a8.14,8.14,0,0,0-3-1.83c-.34-.13-.44-.27-.44-.37,0-.27.75-.44,1.25-.44C223.68,29.72,225,31.48,225,32.6Z"/><path class="cls-1" d="M251.06,41.92l.75,0c2.06,0,2.36,1.25,2.36,1.49,0,.94-1.38,1-2.8,1-.78,0-4.16-.07-4.84-.07-4.66,0-12.4.44-13.21.61-.41.06-2.23.6-2.64.6-1.45,0-3-2.09-3-3.24,0-.2.11-.41.27-.41s1,.38,1.15.41a18.51,18.51,0,0,0,4.13.3C234.33,42.63,246.13,42.19,251.06,41.92Z"/><path class="cls-1" d="M281.24,36.64a1,1,0,0,0,.78-.24c.29-.34.5-.6.65-.6s1.69,1.17,1.9,1.33c.52.39.73.57.73.94,0,.57-.16.57-1.74.57a4.57,4.57,0,0,0-2.55,1,8.38,8.38,0,0,1-.94.52.08.08,0,0,1-.07-.08,24,24,0,0,0,1.27-2.36c0-.08,0-.42-.55-.42h-15c-.63,0-.68.31-.78.91-.21,1.07-.94,2.32-1.93,2.32-.26,0-1.19-.19-1.19-1,0-.32,0-.5.49-1a6,6,0,0,0,1.4-2.7A3.86,3.86,0,0,1,264,35c.13,0,.52.81.6,1,.29.63.31.71,1,.71h6.16c.84,0,.84-.19.84-1.85a6.93,6.93,0,0,0-.16-1.3c0-.13-.21-.65-.21-.78s.08-.16.24-.16,2.41.45,2.44.47a.42.42,0,0,1,.36.42,2.42,2.42,0,0,1-.44.75c-.15.24-.23.31-.23,1.41,0,.91.16,1,.8,1Zm-9.62,9.17c-.26,0-.54,0-.54.21s.18.24.75.44c.18.08.63.29.63.68s-.06.29-.5.52c-.26.13-.26.18-.57,1.79-.89,4.68-6,6.48-8.69,6.48-.18,0-.18-.11-.18-.13s.08-.08.68-.29a9.66,9.66,0,0,0,5.3-3.77,8.65,8.65,0,0,0,1.41-4.57c0-.16,0-.55,0-.73s0-.63-.83-.63h-2.55c-.57,0-2.37,0-3.28.06-.08,0-.47.07-.54.07s-.16-.07-.24-.18l-.49-.6c-.11-.1-.13-.13-.13-.15a.09.09,0,0,1,.1-.08c.18,0,1,.08,1.15.1,1.19.06,2.36.08,3.56.08h12.74c1.07,0,1.2,0,1.4-.21s1-1.32,1.28-1.32a7.94,7.94,0,0,1,2.47,1.84c0,.39-.52.39-1.41.39h-6c-.76,0-.76.29-.76,1.12,0,1.07,0,5.36.06,6,.07.83.33.91,2.75.91,2.94,0,3-.05,3.62-2.42.31-1.17.33-1.3.36-1.43s0-.21.15-.21a.12.12,0,0,1,.13.13,4.07,4.07,0,0,0,.92,3c.39.36.49.49.49.78a1.71,1.71,0,0,1-1.17,1.43c-.49.21-1.35.57-5.33.57-3,0-3.8-.29-3.8-3.17,0-.94,0-5,0-5.93,0-.73-.39-.81-.86-.81ZM275.83,41c.89,0,.94,0,1.17-.47s.55-1.07.84-1.07,2.1,1.28,2.1,1.82-.41.42-1.37.42H271.1c-.6,0-2.36,0-3.27,0a4.46,4.46,0,0,1-.58.08c-.07,0-.13-.05-.2-.18l-.52-.6c-.11-.1-.11-.13-.11-.16s0-.07.08-.07,1,.1,1.17.1c1.17.05,2.34.08,3.56.08Z"/><path class="cls-1" d="M290.72,41.55c0-.1,0-.47-.2-.47s-1.95,2.47-2.37,2.47a.14.14,0,0,1-.13-.15,11.38,11.38,0,0,1,.73-1.2,38.48,38.48,0,0,0,3.56-8.27c.36-1.3.42-1.43.57-1.43s2.08.91,2.08,1.33c0,.18,0,.18-.46.36a.62.62,0,0,0-.32.26s-2.26,4.53-2.26,4.66.08.26.47.46c.18.11.57.34.57.55s-.47.52-.54.62-.11.39-.11,2.34c0,1.3-.08,7.57-.08,9,0,.45,0,2.47,0,2.94a1.11,1.11,0,0,1-1.27,1.2c-.68,0-.7-.37-.7-.73,0,0,.05-1.46.05-1.53.21-3,.39-7.93.39-10.92C290.75,42.8,290.72,41.78,290.72,41.55Zm15.92-5c-.21,0-.76,0-.76.62,0,2.55.06,2.55.91,2.55h.42c1.2,0,1.33,0,1.66-.42.71-.91.78-1,1-1A5.44,5.44,0,0,1,312,40c0,.36-.52.36-1.41.36H298.11c-.86,0-1.17.13-1.3.52a15.82,15.82,0,0,0-.18,2.86c-.08,7.83-2.53,11.39-3.17,11.39a.13.13,0,0,1-.14-.13c.11-.31.45-1.17.55-1.54C294.6,51,295,47.82,295,41.29c0-.62-.1-.83-.54-.83l-.44,0c-.11,0-.13-.08-.24-.18l-.52-.6c-.1-.13-.1-.13-.1-.16s.05,0,.08,0l.91,0c.26,0,2.86.13,3.27.13a3.15,3.15,0,0,0,1.2-.1c.41-.21.41-.36.41-2.29,0-.78-.38-.8-.88-.8s-2,.05-2.39.07a1.51,1.51,0,0,1-.37.06c-.07,0-.13-.06-.23-.16l-.49-.6c-.11-.13-.11-.13-.11-.18s.05-.05.08-.05c.52,0,3.1.18,3.67.18s.75-.29.75-.7-.08-1.87-.08-2.21c0-.08,0-.34.11-.34s2,.26,2,.65a4.33,4.33,0,0,1-.36.6,4.21,4.21,0,0,0-.1,1.12c0,.46,0,.88.75.88h2.18a.65.65,0,0,0,.71-.7c0-.31-.11-1.85-.11-2.19,0-.15,0-.33.16-.33s2.11.33,2.11.67c0,.16-.5.68-.55.81a6,6,0,0,0-.05,1c0,.6.34.7.78.7,1.06,0,1.22,0,1.53-.44.7-.91.78-1,1-1a6,6,0,0,1,2.08,1.77c0,.37-.52.37-1.38.37Zm-6,14.14c-.65,0-.75.21-.75,1.07,0,.23.05,2.23.05,2.65S300,56,298.79,56c-.73,0-.73-.47-.73-.65s.13-1.33.15-1.59c.11-1.92.21-3.87.21-5.82,0-1.36,0-2.81-.05-4.14,0-.18-.05-1.09-.05-1.27s0-.6.23-.6a3.05,3.05,0,0,1,.86.44,1.55,1.55,0,0,0,1.12.34h6.39a.81.81,0,0,0,.6-.18c.5-.5.55-.55.65-.55s1.3.6,1.51.68a.68.68,0,0,1,.34.57.32.32,0,0,1-.11.26c-.26.26-.31.31-.36,1,0,.26,0,7.46,0,8.4,0,1.25,0,1.92-.44,2.47a3.12,3.12,0,0,1-1.48.75c-.26,0-.31-.07-.57-.62-.11-.21-.91-1.07-.91-1.17s.1-.13.23-.13l.63.05c.8,0,.93-.34.93-2.6,0-.73-.16-1-.78-1h-1.9c-.65,0-.7.36-.7,1.07,0,.33.08,2.08.08,2.47a1.41,1.41,0,0,1-.13.75,1.23,1.23,0,0,1-1.09.65c-.52,0-.63-.21-.63-.68,0-.18.08-1,.11-1.19.05-.68.08-1.64.08-2.32,0-.44-.11-.75-.66-.75ZM300.63,47c-.6,0-.73.34-.73.75,0,2.19,0,2.26.73,2.26h1.66c.6,0,.73-.33.73-.75,0-2.18,0-2.26-.73-2.26Zm0-3.56c-.6,0-.73.33-.73.78,0,1.89,0,2.1.73,2.1h1.61c.6,0,.73-.34.73-.78,0-1.87,0-2.1-.73-2.1Zm.78-6.89c-.39,0-.78.13-.78.57,0,2.6.15,2.6.88,2.6h1.85c.41,0,.73,0,.83-.39s0-1.8,0-2.11a.63.63,0,0,0-.7-.67Zm3.77,6.89c-.63,0-.73.33-.73.78,0,1.89,0,2.1.73,2.1h2c.59,0,.73-.34.73-.78,0-1.87,0-2.1-.73-2.1Zm0,3.56c-.62,0-.73.34-.73.75,0,2.19,0,2.26.73,2.26h1.93c.59,0,.73-.33.73-.75,0-1.46,0-1.61,0-1.72-.05-.44-.36-.54-.7-.54Z"/><rect class="cls-2" y="8.68" width="375" height="41.19"/></g></g></svg>