<svg xmlns="http://www.w3.org/2000/svg" viewBox="0 0 395.33 74.21"><defs><style>.cls-1{fill:#333;}.cls-2{fill:none;}</style></defs><g id="レイヤー_2" data-name="レイヤー 2"><g id="レイヤー_1-2" data-name="レイヤー 1"><path class="cls-1" d="M35.64,23.2a.41.41,0,0,1-.4-.4c0-.23.29-.49.52-.69C41.52,17,45.81,13,45.81,7.48c0-4.12-2.65-5.32-4.58-5.32a4,4,0,0,0-3.08,1.09,3.8,3.8,0,0,0-1,2.79c0,.26-.09.43-.23.43s-.2-.11-.23-.37-.17-2.65-.17-3.54c0-.17,0-.26.28-.43a12.07,12.07,0,0,1,5.07-1c4.35,0,6.51,2.76,6.51,5.82,0,6-6.45,11.28-10,14.33-.14.12-.09.21.06.21h2.1c.49,0,3.89,0,4.92-.15,2.1-.2,3-1.06,3.4-2.76.06-.32.14-.43.32-.43s.17.17.17.34a28.79,28.79,0,0,1-.86,3.86c-.23.78-.67.89-1.88.89C40.59,23.26,36.79,23.2,35.64,23.2Z"/><path class="cls-1" d="M56.45,15.56c0,3.53.09,5.07.53,5.5s1,.55,2.88.55c1.27,0,2.33,0,2.9-.72a3.44,3.44,0,0,0,.63-1.44c0-.19.07-.31.21-.31s.15.1.15.36a15.71,15.71,0,0,1-.36,2.4c-.17.55-.24.65-1.52.65-2.06,0-4.1-.15-6.43-.15-.74,0-1.46.08-2.35.08-.27,0-.39-.05-.39-.2s0-.14.2-.14a3.67,3.67,0,0,0,.72-.1c.48-.09.6-.62.69-1.32.12-1,.12-2.9.12-5.21V11.29c0-3.74,0-4.42,0-5.18s-.24-1.2-1-1.37a4.28,4.28,0,0,0-.81-.07c-.1,0-.2,0-.2-.15s.12-.19.39-.19c1.08,0,2.59.07,2.71.07s1.87-.07,2.59-.07c.27,0,.39,0,.39.19s-.1.15-.2.15a5.39,5.39,0,0,0-.79.07c-.69.12-.89.53-.93,1.37s0,1.44,0,5.18Z"/><path class="cls-1" d="M68.26,11.29c0-3.74,0-4.42-.05-5.18s-.17-1.2-1-1.37a4.32,4.32,0,0,0-.82-.07c-.17,0-.26,0-.26-.15s.12-.19.38-.19c1.08,0,2.59.07,2.71.07.29,0,1.8-.07,3.24-.07,2.38,0,6.77-.22,9.63,2.74a8.56,8.56,0,0,1,2.33,6.09,9.81,9.81,0,0,1-2.59,6.77,9.57,9.57,0,0,1-7.28,2.76c-1,0-2.3-.07-3.33-.14l-2-.15s-.45,0-1,0-1,.05-1.39.05-.38-.05-.38-.2,0-.14.24-.14a4.3,4.3,0,0,0,.67-.1c.48-.09.6-.62.7-1.32.12-1,.12-2.9.12-5.21Zm2,2.59c0,2.55,0,4.76,0,5.21a5.27,5.27,0,0,0,.26,1.83c.32.45,1.25,1,4.08,1a8.06,8.06,0,0,0,5.72-2.24,8.38,8.38,0,0,0,1.92-5.73,8.56,8.56,0,0,0-2.31-6c-2.25-2.38-5-2.71-7.85-2.71a6.85,6.85,0,0,0-1.56.16.44.44,0,0,0-.28.48c0,.82,0,3.27,0,5.12Z"/><path class="cls-1" d="M91.06,12.83c.75-.72,4-4.16,5.47-5.67s1.54-1.73,1.54-2a.49.49,0,0,0-.31-.46c-.17-.07-.22-.12-.22-.22s.15-.14.36-.14c.7,0,.63.07,1.44.07s2.16-.07,2.55-.07.4.07.4.17,0,.14-.26.17a4.13,4.13,0,0,0-1.22.28,7.49,7.49,0,0,0-2.5,1.92c-2.11,2-4.85,4.76-5.47,5.45,1.51,1.66,5.88,6.1,7,7.16,2,1.84,2.8,2.37,4,2.59a3,3,0,0,0,.69.07c.19,0,.34.05.34.17s-.1.17-.36.17H102.7c-2.09,0-2.64-.27-3.77-1.16A90.07,90.07,0,0,1,91.06,13v2.47c0,2.31,0,4.21.12,5.21.07.7.22,1.23.94,1.32.33.05.81.1,1,.1s.29.1.29.17-.1.17-.36.17c-1.32,0-2.84-.08-3-.08s-1.53.08-2.25.08c-.27,0-.39,0-.39-.17s0-.17.27-.17a3.08,3.08,0,0,0,.62-.07c.48-.1.63-.65.72-1.35.12-1,.12-2.9.12-5.21V11.29c0-3.74,0-4.42,0-5.18s-.28-1.23-.81-1.35a4.27,4.27,0,0,0-.87-.09c-.19,0-.26,0-.26-.15s.12-.19.38-.19c.79,0,2.4.07,2.52.07s1.64-.07,2.36-.07c.26,0,.38,0,.38.17s-.05.14-.26.17l-.53,0c-.65.08-.84.56-.89,1.4s0,1.44,0,5.18Z"/><path class="cls-1" d="M106.23,13.41a.79.79,0,1,1,.79.79A.79.79,0,0,1,106.23,13.41Z"/><path class="cls-1" d="M114.25,23a.81.81,0,0,1-.46-.81,32.46,32.46,0,0,1,.2-3.59c0-.29.09-.44.23-.44s.17.09.2.41c0,.17,0,.49.06.66.32,1.93,1.5,3.22,4.26,3.22,2.91,0,5.21-1.67,5.21-5.09,0-3.86-3.45-5.21-5.32-5.59-.55-.11-.75-.17-.75-.37s.28-.29.66-.35c1.41-.26,4.58-1.64,4.58-5A3.85,3.85,0,0,0,119,2.18c-2.1,0-3.63,1.18-3.63,3.4,0,.29-.11.35-.2.35s-.17-.06-.2-.32a27.2,27.2,0,0,1-.2-2.88c0-.26,0-.37.37-.6a10.94,10.94,0,0,1,4.67-1c4.69,0,5.7,2.88,5.7,4.32,0,2.88-3,4.78-3.86,5.18v.14c1.81.44,4.75,2.19,4.75,5.53,0,4-3.48,7.4-8.61,7.4A9.35,9.35,0,0,1,114.25,23Z"/><path class="cls-1" d="M133.74,15.56c0,3.53.1,5.07.53,5.5s1,.55,2.88.55c1.27,0,2.33,0,2.9-.72a3.2,3.2,0,0,0,.63-1.44c0-.19.07-.31.21-.31s.15.1.15.36a15.71,15.71,0,0,1-.36,2.4c-.17.55-.24.65-1.51.65-2.07,0-4.11-.15-6.44-.15-.74,0-1.46.08-2.35.08-.26,0-.38-.05-.38-.2s.05-.14.19-.14a3.57,3.57,0,0,0,.72-.1c.48-.09.6-.62.7-1.32.12-1,.12-2.9.12-5.21V11.29c0-3.74,0-4.42,0-5.18s-.24-1.2-1-1.37a4.39,4.39,0,0,0-.82-.07c-.1,0-.19,0-.19-.15s.12-.19.38-.19c1.08,0,2.59.07,2.71.07s1.88-.07,2.6-.07c.26,0,.38,0,.38.19s-.1.15-.19.15a5.18,5.18,0,0,0-.79.07c-.7.12-.89.53-.94,1.37s0,1.44,0,5.18Z"/><path class="cls-1" d="M145.55,11.29c0-3.74,0-4.42-.05-5.18s-.17-1.2-1-1.37a4.28,4.28,0,0,0-.81-.07c-.17,0-.27,0-.27-.15s.12-.19.39-.19c1.08,0,2.59.07,2.71.07.29,0,1.8-.07,3.24-.07,2.37,0,6.77-.22,9.62,2.74a8.56,8.56,0,0,1,2.33,6.09,9.81,9.81,0,0,1-2.59,6.77,9.53,9.53,0,0,1-7.27,2.76c-1,0-2.31-.07-3.34-.14l-2-.15c-.05,0-.46,0-1,0s-1,.05-1.39.05-.39-.05-.39-.2.05-.14.24-.14a4,4,0,0,0,.67-.1c.48-.09.6-.62.7-1.32.12-1,.12-2.9.12-5.21Zm2,2.59c0,2.55,0,4.76,0,5.21a5.48,5.48,0,0,0,.27,1.83c.31.45,1.25,1,4.08,1a8,8,0,0,0,5.71-2.24,8.38,8.38,0,0,0,1.92-5.73,8.6,8.6,0,0,0-2.3-6c-2.26-2.38-5-2.71-7.85-2.71a6.78,6.78,0,0,0-1.56.16.44.44,0,0,0-.29.48c0,.82,0,3.27,0,5.12Z"/><path class="cls-1" d="M168.36,12.83c.74-.72,4-4.16,5.47-5.67s1.53-1.73,1.53-2a.49.49,0,0,0-.31-.46c-.17-.07-.21-.12-.21-.22s.14-.14.36-.14c.69,0,.62.07,1.44.07s2.16-.07,2.54-.07.41.07.41.17-.05.14-.27.17A4.29,4.29,0,0,0,178.1,5a7.49,7.49,0,0,0-2.5,1.92c-2.11,2-4.84,4.76-5.47,5.45,1.51,1.66,5.88,6.1,7,7.16,2,1.84,2.81,2.37,4,2.59a3.2,3.2,0,0,0,.7.07c.19,0,.33.05.33.17s-.09.17-.36.17H180c-2.09,0-2.64-.27-3.77-1.16A90.07,90.07,0,0,1,168.36,13v2.47c0,2.31,0,4.21.11,5.21.08.7.22,1.23.94,1.32.34.05.82.1,1,.1s.29.1.29.17-.1.17-.36.17c-1.32,0-2.83-.08-3-.08s-1.54.08-2.26.08c-.26,0-.38,0-.38-.17s0-.17.26-.17a3.08,3.08,0,0,0,.62-.07c.48-.1.63-.65.72-1.35.12-1,.12-2.9.12-5.21V11.29c0-3.74,0-4.42,0-5.18s-.29-1.23-.82-1.35a4.18,4.18,0,0,0-.86-.09c-.2,0-.27,0-.27-.15s.12-.19.39-.19c.79,0,2.4.07,2.52.07s1.63-.07,2.35-.07c.26,0,.38,0,.38.17s-.05.14-.26.17l-.53,0c-.65.08-.84.56-.89,1.4s0,1.44,0,5.18Z"/><path class="cls-1" d="M197.68,3.2l-.44,4.53c4.37,1,9.82,2.82,9.82,8,0,3.8-3.08,8.12-9.45,8.12a6.77,6.77,0,0,1-2.89-.53c-.54-.27-.6-.53-.6-.83a28.29,28.29,0,0,1,.13-3.7c.06-.29.15-.53.28-.53s.25.15.25.5c0,3.15,2,3.79,4.32,3.79a5.31,5.31,0,0,0,5.54-5.7c0-4.73-4.95-6.59-8-7.15-.63-.11-.85-.2-.82-.52l.72-7.5c0-.3.26-.39.6-.39h7.4a11.87,11.87,0,0,0,1.83-.11c.38,0,.57-.09.66-.09s.22.06.22.29a35.57,35.57,0,0,1-.41,3.71c0,.15-.12.32-.25.32s-.19-.17-.19-.38c0-1.12-.28-1.88-2.77-1.88Z"/><path class="cls-1" d="M217.91,23.87c-5,0-7.56-5.59-7.56-10.85,0-7.12,2.93-12.2,8.06-12.2,5.89,0,7.59,7,7.59,10.85C226,18.43,223.14,23.87,217.91,23.87Zm-.13-22c-3,0-4.75,4-4.75,9.94,0,5.15,1.57,11,5.51,11,2.9,0,4.79-4.06,4.79-9.85C223.33,7.34,221.41,1.87,217.78,1.87Z"/><path class="cls-1" d="M242.15,23.32c-.38,0-.4-.25-.4-.33,0-.32.26-.34.57-.34,1.09,0,1.09-.61,1.09-3.44a14.62,14.62,0,0,0-.21-3.89,1.69,1.69,0,0,0-1.66-1.4,3.55,3.55,0,0,0-2.83,1.76,37.24,37.24,0,0,0-.13,3.93c0,2,0,2.26.21,2.58a1,1,0,0,0,.86.46c.61,0,.8,0,.8.34s-.29.33-.48.33h-4.24c-.17,0-.51,0-.51-.33a.34.34,0,0,1,.17-.3,6.62,6.62,0,0,1,.88-.06c.86-.17.86-.61.86-3.53s0-3.29-.27-4.07a1.66,1.66,0,0,0-1.57-1.11A3.65,3.65,0,0,0,233,15c-.51.5-.55.54-.55,4.13,0,2.92,0,3.51,1.09,3.55.32,0,.63,0,.63.34s-.29.33-.46.33h-4c-.12,0-.42,0-.42-.33s.27-.34.61-.34a1,1,0,0,0,1-.61,34.73,34.73,0,0,0,.14-4.2,27.14,27.14,0,0,0-.12-3.23.81.81,0,0,0-.78-.53c-.08,0-.53.07-.63.07s-.21,0-.21-.15,0-.19,1-.46c.73-.21,1.89-.53,2-.53s.19.11.19.61,0,.7.21.7a3.09,3.09,0,0,0,.65-.4,4.55,4.55,0,0,1,2.63-.91,2.27,2.27,0,0,1,2.35,1.37c0,.08.12.29.27.29s.15,0,.48-.33A4.73,4.73,0,0,1,242.19,13a2.21,2.21,0,0,1,2.4,1.62c.25.88.25,1.28.25,4.81,0,2.52,0,3.21,1.18,3.21.14,0,.48,0,.48.36,0,.1-.09.31-.4.31Zm1.56-11.21c-.28,0-.32-.15-.32-.23a3.12,3.12,0,0,1,.93-1.3c.58-.59,1.34-1.35,1.34-2.12a.83.83,0,0,0-.72-.9.7.7,0,0,0-.67.58c0,.09.17.44.17.53a.59.59,0,0,1-.61.65.66.66,0,0,1-.63-.63,1.73,1.73,0,0,1,1.85-1.49c.63,0,1.62.23,1.62,1.34a2,2,0,0,1-1,1.58c-.29.23-1.15.9-1.15,1.09s.1.12.2.12h1a1,1,0,0,0,.65-.21c.25-.18.25-.18.34-.18s.12,0,.12.14,0,.11-.17.38c-.33.63-.39.65-1,.65Z"/><path class="cls-1" d="M262.44,9.49c0-.05,0-.05.07-.05.56,0,5.1,2.19,5.1,4.5a1,1,0,0,1-.86,1.09c-.4,0-.49-.17-1.37-1.72-.33-.59-.5-.65-.8-.65s-2.56.27-3,.31c-9.26.86-10.67,1-11.13,1.18a2.22,2.22,0,0,1-.46.29c-.4,0-.65-1.93-.65-2.12s.06-.17.19-.17.54.07.65.07c1.34.1,2.39.16,2.73.16.73,0,.86-.06,1.22-.65.14-.21,2.52-3.78,2.7-5.62,0-.36,0-.4.15-.4s2.54.75,2.54,1.24a.27.27,0,0,1-.12.21,4.49,4.49,0,0,0-.61.23,14.81,14.81,0,0,0-1.54,1.84c-.35.47-2.41,2.8-2.41,3s.42.16.46.16c2.1,0,6-.14,8.21-.31.65,0,.72-.06.76-.15C264.44,11.5,262.44,9.72,262.44,9.49Zm.07,7a1.06,1.06,0,0,0,.88-.27c.44-.44.48-.51.63-.51s1.26.72,1.26,1.18c0,.17-.15.29-.32.42s-.31.25-.31,2.33c0,.46.1,2.79.1,3.32,0,1.47-1.09,1.47-1.17,1.47-.59,0-.59-.32-.59-.8s-.44-.59-.63-.59h-8.55c-.48,0-.63.17-.65.55a1.25,1.25,0,0,1-1.22,1.28c-.14,0-.52,0-.52-.74,0-.08,0-.31,0-.61.09-1.28.09-4.05.09-4.36a24.89,24.89,0,0,0-.09-2.54c0-.09-.08-.51-.08-.61s.12-.17.27-.17a6.78,6.78,0,0,1,1.58.5,2.34,2.34,0,0,0,.92.15Zm-8.74.57c-.65,0-.67.29-.67.84v3.46c0,.86,0,1.11.65,1.11h8.63c.63,0,.65-.29.65-.84V18.18c0-.88,0-1.11-.65-1.11Z"/><path class="cls-1" d="M276.5,14.86A3.7,3.7,0,0,0,278.59,16a4,4,0,0,0,2.54-1.47c.12-.13.16-.17.21-.17s.17.19.17.27c0,.36-1.7,2.44-3.31,2.44-.29,0-.83,0-2.26-1.22s-1.79-1.11-2.1-1.11A3.58,3.58,0,0,0,271.45,16a5.29,5.29,0,0,1-.44.47c-.11,0-.16-.15-.16-.28,0-.38,1.7-2.54,3.31-2.54C274.54,13.6,275.14,13.69,276.5,14.86Z"/><path class="cls-1" d="M299.83,17.76c0,3.66-3,6.93-7.49,6.93-3.94,0-7.15-2.36-7.15-6.17,0-3.53,2.8-5.58,5.54-6.9-2.45-1.45-4.34-3.18-4.34-6,0-2.46,2.11-5.64,6.7-5.64,3.28,0,5.77,2,5.77,5,0,3.31-2.71,4.91-4.48,5.79C296.46,11.9,299.83,13.89,299.83,17.76Zm-12.18.47a5,5,0,0,0,4.94,5.26,4.74,4.74,0,0,0,4.82-5c0-3.44-2.77-4.88-5.61-6.37C289.47,13.32,287.65,15.09,287.65,18.23Zm9-12.81c0-2.4-1.51-4.35-3.93-4.35a4,4,0,0,0-4.1,4c0,2.64,2.11,3.9,4.69,5.29C294.54,9.61,296.65,8.63,296.65,5.42Z"/><path class="cls-1" d="M310.4,24.69c-5,0-7.56-6-7.56-11.62C302.84,5.45,305.77,0,310.9,0c5.89,0,7.59,7.5,7.59,11.62C318.49,18.86,315.62,24.69,310.4,24.69Zm-.13-23.56c-3,0-4.76,4.26-4.76,10.65,0,5.51,1.58,11.75,5.52,11.75,2.89,0,4.78-4.35,4.78-10.55C315.81,7,313.89,1.13,310.27,1.13Z"/><path class="cls-1" d="M334.64,23.32c-.38,0-.4-.25-.4-.33,0-.32.25-.34.57-.34,1.09,0,1.09-.61,1.09-3.44a14.62,14.62,0,0,0-.21-3.89,1.7,1.7,0,0,0-1.66-1.4,3.53,3.53,0,0,0-2.83,1.76,37.24,37.24,0,0,0-.13,3.93c0,2,0,2.26.21,2.58a1,1,0,0,0,.86.46c.61,0,.8,0,.8.34s-.3.33-.48.33h-4.25c-.16,0-.5,0-.5-.33a.32.32,0,0,1,.17-.3,6.4,6.4,0,0,1,.88-.06c.86-.17.86-.61.86-3.53s0-3.29-.27-4.07a1.68,1.68,0,0,0-1.58-1.11A3.68,3.68,0,0,0,325.44,15c-.5.5-.54.54-.54,4.13,0,2.92,0,3.51,1.09,3.55.31,0,.63,0,.63.34s-.3.33-.46.33h-4c-.13,0-.42,0-.42-.33s.27-.34.61-.34a1,1,0,0,0,.94-.61,32.68,32.68,0,0,0,.15-4.2,25.07,25.07,0,0,0-.13-3.23.79.79,0,0,0-.77-.53c-.09,0-.53.07-.63.07s-.21,0-.21-.15,0-.19,1-.46c.73-.21,1.89-.53,2-.53s.19.11.19.61,0,.7.21.7a3.7,3.7,0,0,0,.65-.4A4.51,4.51,0,0,1,328.4,13a2.28,2.28,0,0,1,2.36,1.37c0,.08.12.29.27.29s.14,0,.48-.33A4.73,4.73,0,0,1,334.68,13a2.19,2.19,0,0,1,2.39,1.62c.26.88.26,1.28.26,4.81,0,2.52,0,3.21,1.17,3.21.15,0,.49,0,.49.36,0,.1-.09.31-.4.31Zm1.55-11.21c-.27,0-.31-.15-.31-.23a3.15,3.15,0,0,1,.92-1.3c.59-.59,1.35-1.35,1.35-2.12a.83.83,0,0,0-.72-.9.69.69,0,0,0-.67.58c0,.09.17.44.17.53a.6.6,0,0,1-.61.65.66.66,0,0,1-.63-.63,1.72,1.72,0,0,1,1.85-1.49c.63,0,1.61.23,1.61,1.34a2,2,0,0,1-1,1.58c-.3.23-1.16.9-1.16,1.09s.11.12.21.12h.95a1,1,0,0,0,.65-.21c.25-.18.25-.18.33-.18a.12.12,0,0,1,.13.14c0,.09,0,.11-.17.38-.33.63-.4.65-1,.65Z"/><path class="cls-1" d="M354.93,9.49c0-.05,0-.05.06-.05.57,0,5.1,2.19,5.1,4.5a1,1,0,0,1-.86,1.09c-.4,0-.48-.17-1.36-1.72-.34-.59-.51-.65-.8-.65s-2.56.27-3,.31c-9.26.86-10.67,1-11.13,1.18a2.22,2.22,0,0,1-.46.29c-.4,0-.65-1.93-.65-2.12s.06-.17.19-.17.54.07.65.07c1.34.1,2.39.16,2.73.16.73,0,.86-.06,1.21-.65.15-.21,2.52-3.78,2.71-5.62,0-.36,0-.4.15-.4S352,6.46,352,7a.26.26,0,0,1-.13.21,5.77,5.77,0,0,0-.61.23,15,15,0,0,0-1.53,1.84c-.36.47-2.41,2.8-2.41,3s.42.16.46.16c2.1,0,6-.14,8.21-.31.65,0,.71-.06.75-.15C356.92,11.5,354.93,9.72,354.93,9.49Zm.06,7a1,1,0,0,0,.88-.27c.45-.44.49-.51.63-.51s1.26.72,1.26,1.18c0,.17-.14.29-.31.42s-.32.25-.32,2.33c0,.46.11,2.79.11,3.32,0,1.47-1.09,1.47-1.18,1.47-.58,0-.58-.32-.58-.8a.54.54,0,0,0-.63-.59H346.3c-.48,0-.63.17-.65.55a1.25,1.25,0,0,1-1.22,1.28c-.15,0-.52,0-.52-.74,0-.08,0-.31,0-.61.08-1.28.08-4.05.08-4.36,0-1.16,0-1.81-.08-2.54,0-.09-.09-.51-.09-.61s.13-.17.28-.17a6.62,6.62,0,0,1,1.57.5,2.39,2.39,0,0,0,.93.15Zm-8.73.57c-.65,0-.67.29-.67.84v3.46c0,.86,0,1.11.65,1.11h8.63c.63,0,.65-.29.65-.84V18.18c0-.88,0-1.11-.65-1.11Z"/><path class="cls-1" d="M153.44,64.6c-.6,0-1.64,0-2.47.05a5.78,5.78,0,0,1-.6.08c-.07,0-.15-.06-.26-.16l-.54-.6a.33.33,0,0,1-.08-.18s0,0,.08,0,.65.08.75.08c.83,0,2.24.1,3,.1h2c.24,0,.7,0,.7-.73,0-.57,0-3.46,0-3.64a.64.64,0,0,0-.73-.57h-.86c-.54,0-1.53,0-2.31.05a4.05,4.05,0,0,1-.55.08.54.54,0,0,1-.23-.16l-.52-.6a.33.33,0,0,1-.08-.18s0-.05.08-.05.6.08.7.08c.75,0,2.11.1,2.83.1h4.87c.91,0,1,0,1.24-.44.52-.88.6-1,.89-1a5.1,5.1,0,0,1,2,1.71c0,.37-.39.37-1,.37h-3.61c-.42,0-.75.18-.75.78s0,3,0,3.48c0,.68.49.68.81.68h1.14c.94,0,1,0,1.35-.44.57-.89.63-1,.94-1a5.49,5.49,0,0,1,2.13,1.71c0,.37-.42.37-1.14.37h-4.4c-.28,0-.83,0-.83.72s0,3.2,0,3.67a.66.66,0,0,0,.75.68h4c1.17,0,1.3,0,1.66-.45.73-.85.81-1,1.07-1s2.42,1.38,2.42,1.72-.52.36-1.38.36h-16c-2.29,0-3,0-3.28.08l-.55,0c-.1,0-.15,0-.23-.15l-.49-.6c-.11-.13-.13-.13-.13-.18s.05-.06.1-.06,1,.08,1.14.08c1.28,0,2.34.11,3.57.11h4.68a.67.67,0,0,0,.72-.73c0-.6,0-3.62,0-3.77a.63.63,0,0,0-.7-.57Zm4.47-15.92c.63.34.71.37.71.63s-.06.23-.5.33c-.08,0-.08.13-.08.19,0,.39,3.12,5.07,9.1,7.43a13.64,13.64,0,0,1,2.08.78c0,.18-.88.31-1,.37a3.46,3.46,0,0,0-1.3.88,1,1,0,0,1-.52.31c-.41,0-3.9-2.7-5.82-4.94a19.75,19.75,0,0,1-2.81-3.85c-.08-.13-.28-.39-.41-.39s-.42.37-1,1.1a31.6,31.6,0,0,1-8.06,7.59,10.26,10.26,0,0,1-2.13,1.09c-.05,0-.18,0-.18-.1s.34-.39.52-.52c5.09-3.44,8.45-9.47,8.63-9.81s.88-2,.91-2C156.2,47.69,157,48.14,157.91,48.68Z"/><path class="cls-1" d="M194.11,38.31c.61,0,.84.19.84.47a1.63,1.63,0,0,1-.28.89c-3.79,5.62-11.51,24-12.21,30.05a8.73,8.73,0,0,0,0,1.63c0,.94-3.65,2.86-4.59,2.86-.28,0-.42-.14-.42-.47a6,6,0,0,1,.28-1.59c1.83-6.13,6.88-18.63,14-30.89H180.16a7.26,7.26,0,0,0-4.35,1.17A5.7,5.7,0,0,0,174,46c0,.42-.18.65-.42.65s-.28-.23-.28-.75c0-1.5.7-7,.7-7.44s.19-.65.47-.65a18.61,18.61,0,0,0,4.45.46Z"/><path class="cls-1" d="M198.26,73.41a.67.67,0,0,1-.66-.65c0-.38.47-.8.84-1.12,9.36-8.34,16.34-14.79,16.34-23.78,0-6.69-4.31-8.66-7.44-8.66a6.6,6.6,0,0,0-5,1.78,6.21,6.21,0,0,0-1.69,4.54c0,.42-.14.7-.37.7s-.33-.18-.37-.61-.29-4.3-.29-5.75c0-.28,0-.42.47-.7a19.51,19.51,0,0,1,8.24-1.64c7.07,0,10.58,4.49,10.58,9.45,0,9.69-10.49,18.35-16.29,23.31-.23.19-.14.33.09.33h3.42c.79,0,6.32,0,8-.24,3.42-.33,4.92-1.73,5.52-4.49.1-.52.24-.7.52-.7s.28.28.28.56A46.08,46.08,0,0,1,219,72c-.38,1.26-1.08,1.45-3,1.45C206.31,73.51,200.13,73.41,198.26,73.41Z"/><path class="cls-1" d="M235.55,57.78c-.32,0-.76,0-.76.55a30.5,30.5,0,0,0,1.22,5c.32.88,1.12,2.1,1.43,2.1s.34-.13,1.28-1.19c.15-.19.26-.24.26-.16s-.39,1.72-.39,2a2.33,2.33,0,0,0,.21,1,3.6,3.6,0,0,1,.41,1,.72.72,0,0,1-.8.65c-1.07,0-2.76-2.23-3.49-4-.08-.21-.21-.47-.49-.47a2,2,0,0,0-.89.39c-.85.55-5.17,3-5.53,3.41-.13.16-.21.65-.47.65a13,13,0,0,1-1.85-2.47s0-.08.05-.08.6.13.73.13c.44,0,1.41,0,1.54-.75.07-.37.07-7.67.07-8.84,0-.91-.13-5.31-.13-5.54s-.07-.73-.07-.81,0-.08.05-.08c.34,0,1.87.71,2.26.71.05,0,4.63-1.28,5-2.11.26-.65.29-.73.44-.73a12.34,12.34,0,0,1,1.43.94c.81.52.91.6.91.73,0,.36-.23.39-2.23.75-1.28.23-1.43.26-1.43.88,0,.29,0,1.93.15,3.51.11,2,.13,2.11.73,2.11s.81-.15,1-.55.68-1.06.94-1.06a5.62,5.62,0,0,1,1.87,2c0,.33-.13.33-1.38.33Zm-2.5,11.83c1,0,1.17,0,1.43-.44.6-1,.65-1.17.91-1.17s.23,0,1.72,1.67a.33.33,0,0,1,.13.26c0,.36-.45.36-1.2.36h-4c-1.74,0-2.52,0-2.81.08l-.46,0c-.08,0-.16-.08-.21-.16l-.42-.59c-.1-.13-.1-.13-.1-.19s0,0,.08,0,.83.08,1,.08c1,0,2,.1,3,.1Zm-2.47-11.83a.7.7,0,0,0-.81.52c-.05.26-.05,5.88-.05,6.3s.08.78.47.78a16.89,16.89,0,0,0,3.17-1.12c.78-.34,1-.52,1-.78,0,0-.31-1.41-.39-1.67-.15-.62-.7-3.56-.8-3.74s-.42-.29-.73-.29Zm1.74-.7c.34,0,.71,0,.71-.57,0-.13,0-.31-.14-1.46,0-.62-.13-2-.18-2.73-.05-1-.05-1.14-.47-1.14-.15,0-1,.15-1.22.18-.86.1-1.06.13-1.17.47s-.08,3.3-.08,4.44c0,.45,0,.81.81.81Zm13.32-7.25a.55.55,0,0,0,.62-.39c.13-.34.23-.5.39-.5s2.29,1.09,2.29,1.56c0,.24-.39.39-.5.44-.31.13-.41.21-.49.37a53.5,53.5,0,0,1-2.78,4.6,15.58,15.58,0,0,0-.94,1.48c0,.16.34.39.94.81,1.22.86,4.29,3,4.29,6.76a4,4,0,0,1-2,3.64,5.66,5.66,0,0,1-2,.81c-.19,0-.32-.16-.42-.37a2.92,2.92,0,0,0-.62-1c-.19-.18-1.25-.91-1.25-1s.23-.08.26-.08c.29,0,1.69.15,2,.15,1.72,0,2.06-1.43,2.06-2.6a8.65,8.65,0,0,0-3-6.05c-.6-.5-.78-.63-.78-.92a12.16,12.16,0,0,1,.73-1.53,54.09,54.09,0,0,0,1.66-5.15c0-.39-.34-.39-.49-.39h-2.78a.75.75,0,0,0-.79.37c-.13.33-.13,3.58-.13,4.18,0,4.09.11,10.4.32,14.25,0,.18.13,1.17.13,1.41,0,.78-.91,1.09-1.56,1.09-.24,0-.58,0-.58-.7,0-.06.11-1.1.11-1.2.05-.73.08-17,.08-18.72a6.06,6.06,0,0,0-.08-1.15,5.22,5.22,0,0,1-.11-.57c0-.13.06-.36.29-.36a12.82,12.82,0,0,1,1.33.54,2.57,2.57,0,0,0,1,.19Z"/><rect class="cls-2" y="16.51" width="395.33" height="41.19"/></g></g></svg>