<svg xmlns="http://www.w3.org/2000/svg" viewBox="0 0 460 311.62"><defs><style>.cls-1,.cls-2{fill:#333;}.cls-1{stroke:#333;stroke-miterlimit:10;}</style></defs><g id="レイヤー_2" data-name="レイヤー 2"><g id="レイヤー_1-2" data-name="レイヤー 1"><line class="cls-1" y1="176.02" x2="460" y2="176.02"/><path class="cls-2" d="M138.56,237.79c2.33,0,3.85-.3,4.76-1.12A6.9,6.9,0,0,0,145,234.6a1,1,0,0,1,1.11.3,22.64,22.64,0,0,1-2.33,6.18c-2.08-.1-4.21-.15-6.54-.15h-7.35c-2.84,0-4.51,0-5.63.15a.72.72,0,0,1-.35-.65c0-.16.25-.36.56-.56,2.33-1.52,4-3.25,7.75-7.3,3.35-3.6,7.25-8.52,7.25-13.94,0-4.61-2.23-7.4-6.34-7.4-3,0-5.22,2.08-6.58,5.07a.82.82,0,0,1-1.22-.66,10.67,10.67,0,0,1,10.19-7.15c5.07,0,8.36,3.4,8.36,8.26,0,3.15-1.47,6.59-5.42,11.15l-3.09,3.55c-4.16,4.77-4.62,5.58-4.62,5.88s.26.46,1.57.46Z"/><path class="cls-2" d="M152,222.13c0-3.8-.07-4.38-2.35-4.56l-.91-.07c-.22-.15-.14-.8.07-.91,2,.08,3.26.11,4.71.11s2.64,0,4.46-.11c.21.11.29.76.07.91l-.87.07c-2.14.18-2.21.76-2.21,4.56v12.6c0,2.29.11,3.23.76,3.92.4.39,1.09.83,3.95.83,3.08,0,3.84-.15,4.41-.47a7.69,7.69,0,0,0,2.39-3.59c.22-.18.91,0,.91.22a28.78,28.78,0,0,1-1.52,5.07c-1.85-.07-5.29-.11-9-.11h-3.33c-1.52,0-2.68,0-4.71.11a.72.72,0,0,1-.07-.91l1.09-.1c2.1-.22,2.17-.73,2.17-4.53Z"/><path class="cls-2" d="M172.1,221.41c0-2.53-.18-3.29-1.7-3.51l-.79-.11a.55.55,0,0,1,0-.91c3.08-.18,6-.29,9.09-.29a22.73,22.73,0,0,1,8,1.09,10.86,10.86,0,0,1,7.35,10.68,11.87,11.87,0,0,1-6.34,10.79,17.44,17.44,0,0,1-8.11,1.74c-2.32,0-4.64-.29-5.9-.29-1.52,0-2.83,0-4.53.11a.7.7,0,0,1-.07-.91l.83-.1c2.1-.29,2.17-.73,2.17-4.53Zm3,12.93c0,1.92.11,3.07.73,3.94.79,1.13,2.17,1.49,4.45,1.49,7,0,10.18-4.6,10.18-11.34,0-4-1.92-10.71-11.41-10.71a8.19,8.19,0,0,0-3.58.5c-.29.22-.37,1.13-.37,2.76Z"/><path class="cls-2" d="M199.13,222.13c0-3.8-.07-4.38-2.17-4.56l-.9-.07c-.22-.15-.15-.8.07-.91,1.77.08,2.93.11,4.56.11,1.41,0,2.64,0,4.2-.11.22.11.29.76.07.91l-.68.07c-2.1.22-2.18.76-2.18,4.56v4.17c0,.69.08,1.37.47,1.37a2.09,2.09,0,0,0,1-.39c.5-.44,1.45-1.38,1.84-1.74l3.91-3.88a39.26,39.26,0,0,0,2.83-3,1.1,1.1,0,0,0,.25-.58c0-.15-.14-.25-.61-.36l-1-.22a.61.61,0,0,1,.07-.91c1.27.08,2.72.11,4,.11s2.5,0,3.59-.11a.68.68,0,0,1,.07.91,8.93,8.93,0,0,0-3.37,1,36.65,36.65,0,0,0-5.07,4.2l-3.25,3.08c-.51.51-.84.83-.84,1.12s.22.55.69,1.13c3.44,3.94,6.23,7.2,9.05,10.17a4.55,4.55,0,0,0,2.9,1.49l1,.1a.64.64,0,0,1-.07.91c-.95-.07-2.36-.11-4.06-.11-1.48,0-2.75,0-4.42.11-.25-.07-.36-.69-.14-.91l.83-.14c.51-.07.87-.18.87-.36s-.25-.51-.51-.84c-.69-.86-1.63-1.84-3-3.4l-2.9-3.26c-2.06-2.32-2.64-3-3.51-3-.54,0-.62.47-.62,1.74v4.67c0,3.8.08,4.31,2.1,4.53l1,.1c.22.15.15.8-.07.91-1.78-.07-3-.11-4.42-.11s-2.72,0-4.2.11a.7.7,0,0,1-.07-.91l.72-.1c1.92-.29,2-.73,2-4.53Z"/><path class="cls-2" d="M232.8,228.65a3.73,3.73,0,1,1-3.72-3.73A3.72,3.72,0,0,1,232.8,228.65Z"/><path class="cls-2" d="M241.29,239.08a1.94,1.94,0,0,1,2-2c1.22,0,1.88,1,2.44,1.82a2.83,2.83,0,0,0,2.68,1.52c3.3,0,9.08-4.3,9.08-9.93,0-4.46-2.13-8.26-6.54-8.26a7.38,7.38,0,0,0-5.48,2.48,1.3,1.3,0,0,1-1.11-1.77c1.93-.87,6.08-2.74,8.11-4.41a6.32,6.32,0,0,0,2.69-4.87,4.1,4.1,0,0,0-4.16-4.36c-3,0-5.27,1.88-6.84,4.46a.84.84,0,0,1-1.07-.71,10.35,10.35,0,0,1,9.18-6.13c4.15,0,7,2.23,7,5.83,0,2.08-.81,4-5.42,6.49-.25.5,0,.71.61.76a7.59,7.59,0,0,1,7.35,7.8,13.53,13.53,0,0,1-4.92,10,17.16,17.16,0,0,1-10.59,4.36C244,242.22,241.29,241.46,241.29,239.08Z"/><path class="cls-2" d="M268.32,222.13c0-3.8-.08-4.38-2.36-4.56l-.9-.07c-.22-.15-.15-.8.07-.91,2,.08,3.26.11,4.71.11s2.64,0,4.45-.11c.22.11.29.76.07.91l-.87.07c-2.13.18-2.21.76-2.21,4.56v12.6c0,2.29.11,3.23.76,3.92.4.39,1.09.83,3.95.83,3.08,0,3.84-.15,4.42-.47a7.84,7.84,0,0,0,2.39-3.59c.22-.18.9,0,.9.22a28.78,28.78,0,0,1-1.52,5.07c-1.84-.07-5.28-.11-9-.11h-3.33c-1.52,0-2.68,0-4.71.11a.7.7,0,0,1-.07-.91l1.08-.1c2.1-.22,2.18-.73,2.18-4.53Z"/><path class="cls-2" d="M288.46,221.41c0-2.53-.18-3.29-1.7-3.51l-.8-.11a.54.54,0,0,1,0-.91c3.07-.18,6-.29,9.08-.29a22.66,22.66,0,0,1,8,1.09,10.84,10.84,0,0,1,7.35,10.68,11.87,11.87,0,0,1-6.34,10.79,17.44,17.44,0,0,1-8.11,1.74c-2.31,0-4.63-.29-5.9-.29-1.52,0-2.82,0-4.52.11a.72.72,0,0,1-.08-.91l.84-.1c2.1-.29,2.17-.73,2.17-4.53Zm3,12.93c0,1.92.11,3.07.72,3.94.8,1.13,2.17,1.49,4.46,1.49,7,0,10.17-4.6,10.17-11.34,0-4-1.92-10.71-11.41-10.71a8.23,8.23,0,0,0-3.58.5c-.29.22-.36,1.13-.36,2.76Z"/><path class="cls-2" d="M315.49,222.13c0-3.8-.07-4.38-2.17-4.56l-.91-.07c-.22-.15-.14-.8.07-.91,1.78.08,2.94.11,4.57.11,1.41,0,2.64,0,4.2-.11a.74.74,0,0,1,.07.91l-.69.07c-2.1.22-2.17.76-2.17,4.56v4.17c0,.69.07,1.37.47,1.37a2.06,2.06,0,0,0,1-.39c.51-.44,1.45-1.38,1.85-1.74l3.91-3.88a39,39,0,0,0,2.82-3,1.14,1.14,0,0,0,.26-.58c0-.15-.15-.25-.62-.36l-1-.22a.61.61,0,0,1,.08-.91c1.26.08,2.71.11,4,.11s2.5,0,3.58-.11a.68.68,0,0,1,.08.91,8.83,8.83,0,0,0-3.37,1,36.07,36.07,0,0,0-5.07,4.2l-3.26,3.08c-.51.51-.83.83-.83,1.12s.22.55.69,1.13c3.44,3.94,6.22,7.2,9.05,10.17A4.53,4.53,0,0,0,335,239.7l1,.1a.64.64,0,0,1-.07.91c-.94-.07-2.35-.11-4.06-.11-1.48,0-2.75,0-4.41.11-.26-.07-.37-.69-.15-.91l.84-.14c.5-.07.86-.18.86-.36s-.25-.51-.5-.84c-.69-.86-1.63-1.84-3-3.4l-2.89-3.26c-2.07-2.32-2.65-3-3.52-3-.54,0-.61.47-.61,1.74v4.67c0,3.8.07,4.31,2.1,4.53l1,.1c.22.15.15.8-.07.91-1.77-.07-3-.11-4.41-.11s-2.72,0-4.21.11a.71.71,0,0,1-.07-.91l.73-.1c1.92-.29,2-.73,2-4.53Z"/><path class="cls-2" d="M25.94,274.93l-.73,8c7.24,1.88,16.26,5,16.26,14.28,0,6.72-5.11,14.38-15.63,14.38a10.52,10.52,0,0,1-4.8-.93c-.88-.47-1-.94-1-1.46a54.73,54.73,0,0,1,.21-6.57c.1-.52.26-.94.47-.94s.42.26.42.89c0,5.57,3.33,6.72,7.14,6.72,4.37,0,9.17-2.92,9.17-10.11,0-8.39-8.18-11.67-13.24-12.66-1-.21-1.41-.37-1.35-.94l1.19-13.29c.06-.52.42-.68,1-.68H37.3a17.45,17.45,0,0,0,3-.21c.63-.05.94-.15,1.1-.15s.36.1.36.52-.15,2.76-.67,6.56c-.06.26-.21.58-.42.58s-.31-.32-.31-.68c0-2-.47-3.34-4.59-3.34Z"/><path class="cls-2" d="M45.06,299.51c-.63,0-1.09-.16-1.09-.63a2,2,0,0,1,.46-1.09c.32-.36,17.24-23.28,18.91-25.57.41-.57.73-.93,1.09-.93s.52.36.52.88c0,.78,0,4.95,0,7.81V296.7h4a4.48,4.48,0,0,0,2.13-.58c.26,0,.26.37.26.63a12,12,0,0,1-.47,2c-.21.57-.41.73-.93.73H64.9c0,1.72-.11,5.73.1,8,.21,2.08,1,2.91,3.75,3,.68,0,1.25.1,1.25.47s-.26.36-.83.36c-2.92,0-6.25-.15-6.56-.15s-3.18.15-6,.15c-.58,0-.84-.1-.84-.36s.16-.42.89-.42c3.12,0,4.11-.68,4.22-3.07s.1-6.3.1-8Zm15.88-21.25S48.5,295.55,47.61,296.7H60.94Z"/><path class="cls-2" d="M187.17,300.11c0,6-4.95,11.46-12.4,11.46-6.52,0-11.83-3.91-11.83-10.21,0-5.84,4.64-9.23,9.17-11.42-4.07-2.39-7.19-5.26-7.19-9.9,0-4.06,3.49-9.33,11.1-9.33,5.42,0,9.54,3.34,9.54,8.34,0,5.47-4.49,8.13-7.41,9.59C181.59,290.41,187.17,293.7,187.17,300.11Zm-20.17.78c0,4.64,3.34,8.7,8.18,8.7s8-3.65,8-8.29c0-5.68-4.59-8.07-9.28-10.52C170,292.76,167,295.68,167,300.89Zm14.91-21.21c0-4-2.5-7.2-6.52-7.2a6.52,6.52,0,0,0-6.77,6.57c0,4.38,3.49,6.46,7.76,8.76C178.42,286.61,181.91,285,181.91,279.68Z"/><path class="cls-2" d="M202.6,311.57c-8.29,0-12.51-9.9-12.51-19.23,0-12.61,4.84-21.63,13.34-21.63,9.75,0,12.56,12.41,12.56,19.23C216,301.93,211.25,311.57,202.6,311.57Zm-.21-39c-4.95,0-7.87,7-7.87,17.61,0,9.12,2.6,19.44,9.12,19.44,4.79,0,7.92-7.19,7.92-17.46C211.56,282.28,208.38,272.59,202.39,272.59Z"/><path class="cls-2" d="M97,309.69c-.67,0-.71-.45-.71-.6,0-.56.45-.6,1-.6,2-.07,2-1.08,2-6.14s-.07-5.66-.37-6.93a3,3,0,0,0-3-2.51c-2.14,0-4.61,1.87-5.06,3.14a70,70,0,0,0-.22,7c0,3.63,0,4.05.37,4.61a1.8,1.8,0,0,0,1.54.82c1.08,0,1.42,0,1.42.6s-.52.6-.86.6H85.52c-.3,0-.9,0-.9-.6a.56.56,0,0,1,.3-.52,10.51,10.51,0,0,1,1.58-.12c1.53-.3,1.53-1.08,1.53-6.29,0-5,0-5.88-.49-7.27a3,3,0,0,0-2.8-2,6.62,6.62,0,0,0-4.16,1.87c-.9.9-1,1-1,7.38,0,5.21,0,6.26,2,6.33.56,0,1.12,0,1.12.6s-.52.6-.82.6H74.77c-.22,0-.75,0-.75-.6s.49-.6,1.09-.6a1.73,1.73,0,0,0,1.68-1.08c.3-.79.27-6.22.27-7.5a45.08,45.08,0,0,0-.23-5.77,1.41,1.41,0,0,0-1.38-.93c-.15,0-.94.11-1.13.11s-.37,0-.37-.26.07-.34,1.83-.83c1.31-.37,3.37-.93,3.52-.93.34,0,.34.18.34,1.08s.08,1.24.38,1.24a6,6,0,0,0,1.16-.71,8,8,0,0,1,4.68-1.61c3,0,3.82,1.68,4.19,2.43.08.15.23.53.49.53s.26-.08.86-.6a8.47,8.47,0,0,1,5.66-2.36c2.55,0,3.78,1.2,4.27,2.88s.45,2.29.45,8.58c0,4.5,0,5.73,2.1,5.73.26,0,.86,0,.86.64,0,.19-.15.56-.71.56Zm2.78-20c-.49,0-.57-.27-.57-.42a5.61,5.61,0,0,1,1.65-2.32c1-1.05,2.4-2.4,2.4-3.78a1.47,1.47,0,0,0-1.27-1.61,1.25,1.25,0,0,0-1.2,1.05c0,.15.3.78.3.93A1.06,1.06,0,0,1,100,284.7a1.17,1.17,0,0,1-1.12-1.12,3.06,3.06,0,0,1,3.29-2.66c1.13,0,2.89.41,2.89,2.4a3.49,3.49,0,0,1-1.76,2.81c-.53.41-2.06,1.61-2.06,1.95,0,.18.19.22.37.22h1.69a1.82,1.82,0,0,0,1.16-.37c.45-.34.45-.34.6-.34s.22.07.22.26,0,.19-.3.68c-.6,1.12-.71,1.16-1.76,1.16Z"/><path class="cls-2" d="M124.5,291c0-.06,0-.06.08-.06.72,0,6.5,2.78,6.5,5.73a1.23,1.23,0,0,1-1.1,1.39c-.51,0-.62-.22-1.74-2.2-.43-.74-.64-.82-1-.82s-3.26.34-3.87.4c-11.8,1.09-13.59,1.23-14.18,1.49a2.47,2.47,0,0,1-.59.38c-.51,0-.83-2.46-.83-2.7s.08-.22.24-.22.7.08.83.08c1.71.14,3.05.22,3.48.22.94,0,1.1-.08,1.55-.83.19-.27,3.21-4.82,3.45-7.17,0-.45,0-.51.19-.51s3.23,1,3.23,1.58a.32.32,0,0,1-.16.27c-.1.05-.66.21-.77.29a18.39,18.39,0,0,0-2,2.36c-.46.58-3.08,3.55-3.08,3.77s.54.21.59.21c2.67,0,7.68-.19,10.46-.4.83-.05.91-.08,1-.19C127,293.56,124.5,291.29,124.5,291Zm.08,8.93a1.34,1.34,0,0,0,1.12-.35c.56-.56.62-.64.8-.64s1.61.91,1.61,1.5c0,.21-.19.37-.4.53s-.4.32-.4,3c0,.59.13,3.56.13,4.23,0,1.87-1.39,1.87-1.5,1.87-.75,0-.75-.4-.75-1s-.56-.74-.8-.74H113.5c-.61,0-.8.21-.83.69a1.58,1.58,0,0,1-1.55,1.63c-.19,0-.67,0-.67-.93,0-.11,0-.4.06-.78.1-1.63.1-5.16.1-5.56,0-1.47,0-2.3-.1-3.24,0-.11-.11-.64-.11-.77s.16-.22.35-.22a8.5,8.5,0,0,1,2,.64,3.07,3.07,0,0,0,1.18.19Zm-11.13.72c-.83,0-.86.38-.86,1.07v4.42c0,1.09,0,1.41.83,1.41h11c.8,0,.83-.37.83-1.07v-4.41c0-1.12,0-1.42-.83-1.42Z"/><path class="cls-2" d="M146.61,297.09a8.28,8.28,0,0,0,4,1.62,8.77,8.77,0,0,0,4.86-2.06c.22-.18.29-.24.39-.24a.36.36,0,0,1,.34.38c0,.5-3.25,3.42-6.34,3.42-.55,0-1.59,0-4.31-1.71-2.55-1.59-3.42-1.56-4-1.56a8,8,0,0,0-4.55,1.68c-.12.09-.79.64-.84.64-.22,0-.31-.2-.31-.38,0-.53,3.25-3.56,6.33-3.56C142.88,295.32,144,295.44,146.61,297.09Z"/><path class="cls-2" d="M242.25,309.69c-.68,0-.72-.45-.72-.6,0-.56.45-.6,1-.6,1.94-.07,1.94-1.08,1.94-6.14s-.07-5.66-.37-6.93a3,3,0,0,0-3-2.51c-2.14,0-4.61,1.87-5.06,3.14a70,70,0,0,0-.22,7c0,3.63,0,4.05.37,4.61a1.8,1.8,0,0,0,1.54.82c1.08,0,1.42,0,1.42.6s-.52.6-.86.6h-7.57c-.3,0-.9,0-.9-.6a.56.56,0,0,1,.3-.52,10.51,10.51,0,0,1,1.58-.12c1.53-.3,1.53-1.08,1.53-6.29,0-5,0-5.88-.48-7.27a3,3,0,0,0-2.81-2,6.65,6.65,0,0,0-4.16,1.87c-.9.9-1,1-1,7.38,0,5.21,0,6.26,1.95,6.33.56,0,1.13,0,1.13.6s-.53.6-.83.6H220c-.22,0-.75,0-.75-.6s.49-.6,1.09-.6a1.72,1.72,0,0,0,1.68-1.08c.3-.79.27-6.22.27-7.5a45.08,45.08,0,0,0-.23-5.77,1.41,1.41,0,0,0-1.38-.93c-.15,0-.94.11-1.13.11s-.37,0-.37-.26.07-.34,1.83-.83c1.31-.37,3.37-.93,3.52-.93.34,0,.34.18.34,1.08s.08,1.24.38,1.24a6,6,0,0,0,1.16-.71,8,8,0,0,1,4.68-1.61c3,0,3.82,1.68,4.2,2.43.07.15.22.53.48.53s.27-.08.86-.6a8.49,8.49,0,0,1,5.66-2.36c2.55,0,3.78,1.2,4.27,2.88s.45,2.29.45,8.58c0,4.5,0,5.73,2.1,5.73.26,0,.86,0,.86.64,0,.19-.15.56-.71.56Zm2.77-20c-.49,0-.56-.27-.56-.42A5.64,5.64,0,0,1,246.1,287c1.05-1.05,2.4-2.4,2.4-3.78a1.47,1.47,0,0,0-1.27-1.61,1.25,1.25,0,0,0-1.2,1.05c0,.15.3.78.3.93a1.06,1.06,0,0,1-1.09,1.16,1.17,1.17,0,0,1-1.12-1.12,3.07,3.07,0,0,1,3.3-2.66c1.12,0,2.88.41,2.88,2.4a3.49,3.49,0,0,1-1.76,2.81c-.52.41-2.06,1.61-2.06,1.95,0,.18.19.22.37.22h1.69a1.82,1.82,0,0,0,1.16-.37c.45-.34.45-.34.6-.34s.22.07.22.26,0,.19-.3.68c-.59,1.12-.71,1.16-1.76,1.16Z"/><path class="cls-2" d="M269.76,291c0-.06,0-.06.08-.06.72,0,6.5,2.78,6.5,5.73a1.23,1.23,0,0,1-1.1,1.39c-.51,0-.61-.22-1.74-2.2-.43-.74-.64-.82-1-.82s-3.27.34-3.88.4c-11.8,1.09-13.59,1.23-14.18,1.49a2.47,2.47,0,0,1-.59.38c-.51,0-.83-2.46-.83-2.7s.08-.22.24-.22.7.08.83.08c1.71.14,3,.22,3.48.22.94,0,1.1-.08,1.55-.83.19-.27,3.21-4.82,3.45-7.17.06-.45.06-.51.19-.51s3.24,1,3.24,1.58a.34.34,0,0,1-.16.27,8.21,8.21,0,0,0-.78.29,19.28,19.28,0,0,0-1.95,2.36c-.46.58-3.08,3.55-3.08,3.77s.54.21.59.21c2.67,0,7.68-.19,10.46-.4.83-.05.91-.08,1-.19C272.3,293.56,269.76,291.29,269.76,291Zm.08,8.93a1.33,1.33,0,0,0,1.12-.35c.56-.56.62-.64.8-.64s1.61.91,1.61,1.5c0,.21-.19.37-.4.53s-.4.32-.4,3c0,.59.13,3.56.13,4.23,0,1.87-1.39,1.87-1.5,1.87-.75,0-.75-.4-.75-1s-.56-.74-.8-.74H258.76c-.61,0-.8.21-.83.69a1.58,1.58,0,0,1-1.55,1.63c-.18,0-.67,0-.67-.93,0-.11,0-.4.06-.78.11-1.63.11-5.16.11-5.56,0-1.47,0-2.3-.11-3.24,0-.11-.11-.64-.11-.77s.16-.22.35-.22a8.66,8.66,0,0,1,2,.64,3,3,0,0,0,1.17.19Zm-11.13.72c-.83,0-.86.38-.86,1.07v4.42c0,1.09,0,1.41.83,1.41h11c.8,0,.83-.37.83-1.07v-4.41c0-1.12,0-1.42-.83-1.42Z"/><path class="cls-2" d="M359.29,255.09c1,0,1.33.3,1.33.74a2.71,2.71,0,0,1-.44,1.39c-6,8.82-18.08,37.63-19.18,47.19a14.46,14.46,0,0,0,0,2.57c0,1.47-5.74,4.48-7.21,4.48-.44,0-.66-.22-.66-.73a9.36,9.36,0,0,1,.44-2.5c2.87-9.63,10.81-29.25,21.9-48.51H337.39c-2.13,0-5.07.37-6.83,1.84a8.89,8.89,0,0,0-2.79,5.66c-.08.66-.3,1-.66,1s-.45-.37-.45-1.18c0-2.35,1.11-10.95,1.11-11.68s.29-1,.73-1a28.86,28.86,0,0,0,7,.73Z"/><path class="cls-2" d="M362.14,310.21a1.05,1.05,0,0,1-1-1c0-.59.74-1.25,1.33-1.76,14.69-13.08,25.64-23.22,25.64-37.33,0-10.51-6.76-13.6-11.68-13.6-3.53,0-5.73.81-7.86,2.79a9.68,9.68,0,0,0-2.65,7.13c0,.66-.22,1.1-.59,1.1s-.51-.29-.59-.95-.44-6.76-.44-9c0-.44.08-.66.74-1.1a30.7,30.7,0,0,1,12.93-2.58c11.1,0,16.61,7.06,16.61,14.85,0,15.21-16.46,28.81-25.57,36.6-.37.29-.22.51.14.51h5.37c1.25,0,9.92-.07,12.56-.37,5.37-.51,7.72-2.71,8.68-7.05.14-.81.36-1.1.81-1.1s.44.44.44.88c0,1.4-1.47,7.35-2.21,9.85-.59,2-1.69,2.28-4.78,2.28C374.78,310.36,365.08,310.21,362.14,310.21Z"/><path class="cls-2" d="M301.92,299.9c-1,0-2.66,0-4,.09a8,8,0,0,1-1,.12c-.13,0-.25-.08-.42-.25l-.89-1a.64.64,0,0,1-.13-.3s0-.08.13-.08,1.06.12,1.22.12c1.36.09,3.64.17,5,.17h3.3c.38,0,1.14,0,1.14-1.18,0-.93,0-5.63,0-5.93a1,1,0,0,0-1.19-.93h-1.4c-.88,0-2.49,0-3.76.09a8.32,8.32,0,0,1-.89.13,1,1,0,0,1-.38-.26l-.85-1a.63.63,0,0,1-.12-.3s0-.08.12-.08,1,.12,1.15.12c1.22.09,3.42.17,4.61.17h7.91c1.48,0,1.61,0,2-.72.85-1.43,1-1.56,1.44-1.56.63,0,3.22,2.37,3.22,2.79,0,.59-.64.59-1.7.59h-5.88a1.11,1.11,0,0,0-1.23,1.27c0,.89,0,4.87,0,5.67,0,1.1.81,1.1,1.31,1.1h1.87c1.52,0,1.69,0,2.2-.72.93-1.44,1-1.56,1.52-1.56.68,0,3.47,2.37,3.47,2.79,0,.59-.68.59-1.86.59H310.6c-.47,0-1.36,0-1.36,1.19s0,5.2,0,6a1.09,1.09,0,0,0,1.23,1.1h6.56c1.9,0,2.12,0,2.71-.72,1.18-1.39,1.31-1.56,1.73-1.56.26,0,3.94,2.24,3.94,2.79s-.85.59-2.24.59h-26c-3.73,0-4.91.09-5.34.13-.16,0-.76.09-.88.09s-.26-.09-.39-.26l-.8-1c-.17-.21-.21-.21-.21-.3s.08-.08.17-.08c.29,0,1.61.12,1.86.12,2.07.09,3.81.17,5.8.17h7.61a1.09,1.09,0,0,0,1.19-1.18c0-1,0-5.88,0-6.14a1,1,0,0,0-1.14-.93ZM309.2,274c1,.55,1.14.59,1.14,1s-.08.38-.8.55c-.13.05-.13.21-.13.3,0,.63,5.08,8.25,14.81,12.1a22.42,22.42,0,0,1,3.39,1.27c0,.3-1.44.51-1.7.59a5.78,5.78,0,0,0-2.11,1.44c-.13.13-.55.51-.85.51-.68,0-6.35-4.4-9.48-8a32.87,32.87,0,0,1-4.57-6.26c-.12-.21-.46-.64-.67-.64s-.68.59-1.65,1.78c-3.77,4.74-8,9.22-13.12,12.36a17,17,0,0,1-3.47,1.77c-.08,0-.3,0-.3-.17s.55-.63.85-.84c8.29-5.59,13.75-15.41,14-16s1.44-3.21,1.48-3.21C306.41,272.4,307.63,273.12,309.2,274Z"/><path class="cls-2" d="M417.32,288.82c-.51,0-1.23,0-1.23.89a48.68,48.68,0,0,0,2,8.08c.51,1.44,1.82,3.42,2.32,3.42s.55-.21,2.08-1.94c.25-.3.42-.38.42-.26s-.63,2.8-.63,3.35a3.89,3.89,0,0,0,.33,1.65,5.43,5.43,0,0,1,.68,1.65,1.18,1.18,0,0,1-1.31,1.06c-1.73,0-4.48-3.64-5.67-6.56-.13-.34-.34-.76-.8-.76a3.15,3.15,0,0,0-1.44.63c-1.4.89-8.42,4.91-9,5.54-.22.26-.34,1.06-.77,1.06-.08,0-3-3.47-3-4,0,0,0-.13.08-.13s1,.22,1.19.22c.72,0,2.28-.09,2.5-1.23.12-.59.12-12.48.12-14.39,0-1.48-.21-8.63-.21-9,0-.21-.13-1.19-.13-1.31s.05-.13.09-.13c.55,0,3,1.14,3.68,1.14.08,0,7.53-2.07,8.12-3.42.43-1.06.47-1.19.72-1.19a22,22,0,0,1,2.33,1.52c1.31.85,1.48,1,1.48,1.19,0,.59-.38.63-3.64,1.23-2.07.38-2.33.42-2.33,1.44,0,.46.09,3.13.26,5.71.17,3.21.21,3.42,1.18,3.42s1.32-.25,1.7-.88,1.1-1.74,1.52-1.74,3.05,2.75,3.05,3.22-.22.55-2.25.55Zm-4.07,19.25c1.57,0,1.91,0,2.33-.72,1-1.69,1.06-1.9,1.48-1.9s.38,0,2.79,2.7a.6.6,0,0,1,.22.43c0,.59-.72.59-1.95.59h-6.47c-2.84,0-4.11.08-4.57.13-.13,0-.68.08-.77.08s-.25-.13-.33-.25l-.68-1c-.17-.21-.17-.21-.17-.29s0-.09.13-.09c.25,0,1.35.13,1.6.13,1.61.08,3.22.17,5,.17Zm-4-19.25c-.38,0-1.14,0-1.31.84-.08.43-.08,9.57-.08,10.24s.12,1.27.76,1.27c1,0,4.87-1.69,5.16-1.82,1.27-.55,1.57-.84,1.57-1.27,0-.08-.51-2.28-.64-2.7-.25-1-1.14-5.8-1.31-6.1-.25-.46-.68-.46-1.18-.46Zm2.84-1.15c.55,0,1.14,0,1.14-.93,0-.21,0-.5-.21-2.37-.08-1-.21-3.3-.3-4.44-.08-1.65-.08-1.86-.76-1.86-.25,0-1.69.25-2,.3-1.39.17-1.73.21-1.9.76-.13.34-.13,5.37-.13,7.23,0,.72,0,1.31,1.31,1.31Zm21.66-11.8a.89.89,0,0,0,1-.64c.21-.55.38-.8.63-.8s3.73,1.78,3.73,2.54c0,.38-.64.63-.81.72-.5.21-.67.34-.8.59a84.66,84.66,0,0,1-4.53,7.49,27.05,27.05,0,0,0-1.52,2.41c0,.26.55.64,1.52,1.31,2,1.4,7,4.83,7,11a6.51,6.51,0,0,1-3.21,5.92,9.16,9.16,0,0,1-3.35,1.31c-.29,0-.5-.25-.67-.59a4.86,4.86,0,0,0-1-1.65c-.29-.3-2-1.48-2-1.57s.38-.12.42-.12c.47,0,2.75.25,3.26.25,2.79,0,3.35-2.33,3.35-4.23a14.11,14.11,0,0,0-4.91-9.86c-1-.8-1.27-1-1.27-1.48a18.92,18.92,0,0,1,1.18-2.5,86,86,0,0,0,2.71-8.38c0-.63-.55-.63-.8-.63h-4.53c-.38,0-1,0-1.27.59s-.21,5.84-.21,6.81c0,6.65.17,16.93.51,23.19,0,.3.21,1.91.21,2.29,0,1.27-1.48,1.77-2.54,1.77-.38,0-.93-.08-.93-1.14,0-.08.17-1.78.17-2,.08-1.18.12-27.63.12-30.46a10.61,10.61,0,0,0-.12-1.86,6.81,6.81,0,0,1-.17-.93c0-.21.08-.6.46-.6a19,19,0,0,1,2.16.89,4.29,4.29,0,0,0,1.69.3Z"/><path class="cls-2" d="M170.78,29c.69,0,1,.21,1,.75s-.29.79-1,.79h-8.6c-1,0-1,.22-1,4.54,0,4,0,21.93,0,25.6,0,.83-.18,1.15-.75,1.15-.8,0-.8-.25-.8-2.37v-29c0-1,.58-1.47,1.55-1.47Z"/><path class="cls-2" d="M189.3,53.21c-1,0-1.16.43-1.16,1.51,0,.68.07,3.85.07,4.46,0,1.3-.71,2.24-1.83,2.24-.9,0-.9-.87-.9-1.23s.14-2,.14-2.16c0-1.26.11-3.42.11-3.67,0-1.15-.57-1.15-1-1.15h-1.26c-.9,0-1.91.07-2.34.1-.18,0-.9.08-1.05.08s-.14,0-.32-.22l-.79-.9a.28.28,0,0,1-.11-.18c0-.07.11-.07.14-.07.72,0,3.93.25,4.57.25h1.08c1,0,1.12-.47,1.12-1.11,0-1.52.07-8.25.07-9.62,0-.36,0-.68-.32-.68s-.32.11-1.08,1.4A32,32,0,0,1,174.28,53.6,12.11,12.11,0,0,1,171.65,55c-.07,0-.21,0-.21-.14s1.87-1.69,2.23-2C178.6,48.42,183,40.71,183,39.53c0-.54-.5-.54-.9-.54h-4.86c-1,0-2.45,0-3.78.07-.22,0-1.26.11-1.48.11s-.14,0-.36-.22l-.72-.86c-.07-.11-.14-.18-.14-.22s.11-.07.14-.07c.25,0,1.41.11,1.66.11,2,.1,3.39.14,4.86.14h7.16c1.19,0,1.19-.54,1.19-1.15,0-3.1,0-4.29-.07-5.08,0-.25-.32-2.27-.32-2.45s.21-.32.32-.32,3.6.47,3.6,1.12c0,.21-.75.86-.83,1a21.27,21.27,0,0,0-.39,4.9c0,1.26,0,1.94.93,1.94h6.74c1.65,0,1.91,0,2.3-.86.65-1.52.86-1.62,1.15-1.62s3.68,2.37,3.68,2.88-.69.54-1.95.54H190.63c-.47,0-.72,0-.72.32,0,1.3,5.87,9.11,13.53,12.2.8.33.9.33.9.44a24.91,24.91,0,0,1-2.48.54,3,3,0,0,0-1.51.82c-.29.29-.36.37-.47.37A24.35,24.35,0,0,1,194.55,49a32.37,32.37,0,0,1-5.44-9.33c-.17-.46-.25-.64-.57-.64s-.43.5-.43.9c0,3.13,0,8.17,0,11.34,0,.39,0,1,1,1h.65c1.12,0,1.33-.07,1.73-1,.14-.29.5-.9.83-.9a6.11,6.11,0,0,1,2.45,2.3c0,.58-.62.58-1.95.58Z"/><path class="cls-2" d="M216.51,31.42c0,.22-.93.65-1,.8s-4.32,5.25-4.36,5.4a.31.31,0,0,0,0,.14c0,.22,0,.29.43.94a3.87,3.87,0,0,1,.43,1.8c0,1.37-.72,2.19-1.65,2.19s-1-1.29-1-1.8A7.71,7.71,0,0,0,207.4,36c-.1-.11-.35-.39-.35-.47a.13.13,0,0,1,.14-.11c.58,0,2.88,1.73,3.2,1.73s.8-1,1.05-1.62c.68-1.51,1.83-4,1.91-5.4,0-.72.07-.86.35-.82S216.51,31,216.51,31.42Zm1.12,13.33c.36.21.61.36.61.68s-.9,1.22-1,1.44a7.94,7.94,0,0,0-.54,1.62c-2.13,7.56-8.71,11.92-9.26,11.92,0,0-.07,0-.07-.11s0-.14.62-.68c3.34-3.32,6.44-10.37,6.44-11.24,0-.11,0-.32-.32-.32a29.13,29.13,0,0,0-4.65,1.51c-.11.07-.65.25-.75.29a1.64,1.64,0,0,1-.55.29c-.61,0-1-3-1-3.1s0-.25.14-.25a8.2,8.2,0,0,1,.76.32,2.81,2.81,0,0,0,.83.15c.68,0,1.44-1.16,2.23-2.38a51.16,51.16,0,0,0,4.32-8c.18-.62.25-.79.43-.79s.4.1,1.4.93c.18.18,1.19.76,1.19,1s-1.08,1.08-1.22,1.26c-.79.94-4.25,5.08-5,5.84a12.31,12.31,0,0,0-1.69,2c0,.18.33.18.43.18a18.37,18.37,0,0,0,3.82-.39,6.22,6.22,0,0,0,.65-2.16,4.2,4.2,0,0,1,.1-1C215.65,43.59,217.27,44.53,217.63,44.75Zm4.79-.87c-.51,0-1,.15-1.12.76-.07.29,0,5.54,0,6.3,0,.4,0,2.34,0,2.77s.1.79.36.79a16.41,16.41,0,0,0,2.16-1.22.8.8,0,0,0,.39-.61c0-.47-1.33-4.79-1.44-5.12,0-.07,0-.07.08-.07.39,0,1.54,1.48,1.76,1.77A19.32,19.32,0,0,1,228.11,58c0,1.58-.94,2.16-1.55,2.16-.76,0-1-.54-1.08-1.37a29.33,29.33,0,0,0-.76-4.14c0-.18-.1-.51-.39-.51-.54,0-4.83,4.54-5.55,5.33-.14.18-.75,1.26-1,1.26s-.64-1.19-.72-1.47c-.21-.69-.64-2.09-.9-2.85a.09.09,0,0,1,.08-.07c.18,0,.93.25,1.11.25s1.73,0,1.73-1.29c0,0,0-19.63,0-21.39a15.76,15.76,0,0,0-.15-2.23c0-.18-.14-1.05-.14-1.23s0-.32.29-.32a9.63,9.63,0,0,1,1.8.83,3.09,3.09,0,0,0,1.36.21h2.31a2.17,2.17,0,0,0,1-.18c.14-.07.79-.93,1-.93s2.33,1.29,2.33,1.94c0,.29-.1.32-.64.72-.36.25-.36.29-.36,4v5.61c0,.26.14,1.41.14,1.7a1.94,1.94,0,0,1-1.55,1.8c-.68,0-.79-.62-.93-1.34-.11-.5-.54-.61-1-.61Zm2.2-7c1.11,0,1.18-.39,1.18-1.44,0-3.24,0-3.35-1.22-3.35h-2.16c-1.19,0-1.19.29-1.19,2.13,0,2.38,0,2.66,1.19,2.66Zm-2.24.94c-1.11,0-1.11.29-1.11,2.56s0,2.52,1.11,2.52h2.2c1.15,0,1.15-.29,1.15-3,0-1.62,0-2.05-1.11-2.05Zm13.32-6.63c.58,0,.9-.07,1.16-.75.1-.25.25-.51.5-.51s2.81,1.44,2.81,2c0,.32-.11.39-1,1-.11.15-1.27,1.66-1.88,2.52s-3.67,4.25-3.67,4.4a4.16,4.16,0,0,0,.68.61c2.67,2.16,5.51,6.15,5.51,10s-3.09,6.7-5,6.7c-.39,0-.43-.11-.79-1.08-.54-1.41-1.44-1.91-1.76-1.91s-.33.43-.33.65c0,.72.22,4.25.22,5,0,1.33-1.51,1.58-1.94,1.58-.62,0-.76-.25-.76-1.11,0-3.39.14-8.75.14-12.1,0-4.29,0-12.67-.07-15.34,0-.36-.14-2-.14-2.41s.11-.36.36-.36a4.87,4.87,0,0,1,2,.79,3.3,3.3,0,0,0,1.55.32Zm-2.8.94c-.94,0-1.23.33-1.23,1.4,0,.73,0,4,0,4.65,0,1,.22,14.69.29,15,.11.5.36.61,2.56.61,1.15,0,2.41,0,2.41-3.89a12.93,12.93,0,0,0-3.31-8.82c-.15-.14-1.08-.83-1.08-1a5.63,5.63,0,0,1,.72-1.23,20.62,20.62,0,0,0,2.88-6.16c0-.5-.54-.5-.76-.5Z"/><path class="cls-2" d="M244.61,61.45c-.69,0-1-.21-1-.75s.29-.8,1-.8h8.6c1,0,1-.21,1-4.53,0-4,0-21.93,0-25.6,0-.83.18-1.15.76-1.15.75,0,.75.25.75,2.37V60a1.32,1.32,0,0,1-1.51,1.47Z"/><path class="cls-2" d="M14.75,44c-.82,0-.87.31-.92.87-.16,1.07-1.64,1.48-2.56,1.48s-1.38-.15-1.38-1.53c0-.61.2-6,.2-7.16,0-1.53-.1-8.43-.1-9.86,0-.25,0-.41.21-.41a11.68,11.68,0,0,1,2.3.82,8.14,8.14,0,0,0,3.78,1h5c.56,0,1.48,0,1.48-1.53,0-2.71,0-3.32-1.64-3.32H10.91c-4.49,0-6,.05-6.44.1a8.6,8.6,0,0,1-1.12.15c-.15,0-.26-.15-.41-.36l-1-1.17c-.21-.21-.21-.26-.21-.31s.06-.15.21-.15c.3,0,1.89.15,2.25.2,2.5.11,4.6.16,7,.16h10c1.49,0,1.64-.57,1.64-1.89,0-.72-.31-3.94-.31-4.6s.11-.72.46-.72c.16,0,2.66.72,3.53,1,1.48.41,1.53.67,1.53,1s-1.17,1.18-1.27,1.38a5.07,5.07,0,0,0-.26,2.25c0,1.18.15,1.64,1.69,1.64h9.09c2.15,0,2.41,0,3-.92,1.22-2.1,1.63-2.1,2-2.1,1,0,5.16,3.17,5.16,3.68,0,.72-1,.72-2.76.72H28.14c-1.84,0-1.84.3-1.84,3.42,0,.67.15,1.43,1.48,1.43H34c.92,0,1.18,0,1.74-.66.72-.77.92-1,1.28-1,.61,0,3.63,2,3.63,2.65,0,.31-1,1.38-1.07,1.69a15.09,15.09,0,0,0-.26,2.71c0,1.38.1,7.61.1,8.89,0,2.2-2.76,2.2-3,2.2-1.08,0-1.13-.46-1.18-1.18,0-.56-.2-.56-1.48-.56H28.49c-.25,0-.61,0-.61.36S33.4,51.9,46.38,56c1.28.41,1.43.46,1.43.62s-.1.3-.35.3c-1.84,0-3.74,0-4.71,1.79-.25.51-.35.67-.66.67-.46,0-6.8-3.58-11.19-8.54a35.15,35.15,0,0,1-4-5.26c-.15-.21-.2-.36-.41-.36s-.25.31-.25.51c0,.66-.06,3.42-.06,4,0,1.48.31,9.25.31,9.86a2.3,2.3,0,0,1-.92,2.1,3.63,3.63,0,0,1-1.89.76c-1.23,0-1.38-1-1.38-1.68,0-.31.31-8.18.31-9.66,0-2.66,0-3-.41-3-.15,0-2.66,2.25-3,2.56-5.41,4.8-15.89,9.45-17,9.45-.1,0-.25,0-.25-.2s2.3-1.64,3-2c6-3.57,12.17-9,13.75-11.19a12.49,12.49,0,0,0,1.43-2.25c0-.46-.41-.46-.87-.46Zm6.38-8.38c1.64,0,1.64-.56,1.64-3.12,0-1.33-.1-1.89-1.64-1.89H15.46c-1.53,0-1.63.62-1.63,1.89,0,2.61.05,3.12,1.68,3.12Zm-5.62,1.33c-.66,0-1.63,0-1.63,1.43,0,4.14,0,4.24,1.63,4.24H21c1.59,0,1.74-.41,1.74-3.37,0-1.59-.05-2.3-1.69-2.3Zm12.42-6.34c-1.58,0-1.68.41-1.68,3,0,1.53.1,2,1.63,2h5.88c1.63,0,1.63-.36,1.63-3,0-1.43,0-2.05-1.63-2.05Zm5.83,12c1.69,0,1.69-.76,1.69-2.3,0-2.6,0-3.37-1.74-3.37H27.93c-1.68,0-1.68.82-1.68,2.25,0,3,0,3.42,1.68,3.42Z"/><path class="cls-2" d="M61.66,56c-1.48,0-1.48,1-1.48,1.84,0,1.49,0,3.12-2.4,3.12-1.33,0-1.69-.56-1.69-2,0-3.68.25-20,.25-23.41a56.06,56.06,0,0,0-.3-6.8c0-.25-.16-1.38-.16-1.63s0-.46.46-.46c.16,0,5.22,1,5.22,2,0,.36-.16.51-.92,1.33-.41.36-.41,2.91-.41,3.88,0,3,0,16.31,0,19,0,1,.15,1.78,1.48,1.78H72a1.21,1.21,0,0,0,1.43-1c0-.3.31-16.1.31-22.74,0-4.55-.1-10.32-.1-10.78s-.26-2.2-.26-2.56.1-.41.46-.41,2.66.46,3.22.56c1.08.21,1.74.31,1.74,1,0,.31-1,1.49-1.07,1.74a5.79,5.79,0,0,0-.26,2.2c-.15,9.45-.15,21.62-.15,30.26,0,1.32.41,1.78,1.53,1.78H89.26c1.43,0,1.53-.81,1.53-2,0-2,.1-10.94.1-12.73,0-4.39-.1-10.27-.15-10.88,0-.36-.2-2.15-.2-2.51s.1-.46.4-.46,5,1.08,5,2.2c0,.21-.82,1-.87,1.18a32.47,32.47,0,0,0-.3,5.62c0,2.3.1,12.52.1,14.62,0,1.22,0,6.69,0,7.76a2.57,2.57,0,0,1-2.61,2.87c-1.48,0-1.53-1.13-1.53-2.71,0-.82-.1-1.59-1.48-1.59Z"/><path class="cls-2" d="M113.26,39c1.69,0,3.78,0,5.06-.05s1.38-.2,1.38-.51a26.81,26.81,0,0,0-1.17-3.32.35.35,0,0,1,.35-.26c.72,0,4.91,3.33,4.91,6.24a2,2,0,0,1-2,2.2c-1.33,0-1.49-1-1.74-2.56-.1-.76-.16-.92-.56-.92a11.15,11.15,0,0,0-2.3.62c-.26.25-.26,3.57-.26,4.44,0,2.2.26,12,.26,14a2.89,2.89,0,0,1-2.71,3.07c-.87,0-1-.87-1-2.15,0-2.3.36-12.57.36-14.66a24.56,24.56,0,0,0-.16-3.53c-.1-.41-.25-.51-.92-.51a27.62,27.62,0,0,0-4.7.92c-.26.1-1.23.87-1.48.87-.51,0-1.84-4-1.84-4.14s.1-.16.25-.16,1.89.21,2.25.26,2.1.1,2.56.1c1.22,0,1.43-.36,3.17-3.68a115.85,115.85,0,0,0,5.21-10.78c.46-1.28.51-1.43.82-1.43.15,0,4.29,1.94,4.29,2.71,0,.41-.1.41-1.23.76a3.16,3.16,0,0,0-1.53,1.08c-2.2,2.86-5.21,7.82-7.62,10.52-.2.21-.35.57-.25.72S113.06,39,113.26,39Zm-1.17,8.49c0,.36-1.13,1.43-1.28,1.74-1.13,2.09-2.56,5.67-3.89,7.71-.1.16-1.22,1.84-1.73,1.84a.21.21,0,0,1-.21-.2c0-.15,1.54-4.7,1.74-5.47a29.45,29.45,0,0,0,1.07-6.8c0-.92,0-1.07.31-1.07a13.8,13.8,0,0,1,2,.71C111.37,46.54,112.09,47,112.09,47.51ZM112,28a4,4,0,0,1,2,3.17,1.52,1.52,0,0,1-1.54,1.63,1.65,1.65,0,0,1-1.12-.51c-.41-.46-2.25-3-2.71-3.53s-2.81-2.55-2.81-2.65.2-.26.41-.26c.51,0,2.91.87,3.47.87.36,0,.46-.21,1.18-1.89A22.89,22.89,0,0,0,113,16.38c0-.2,0-.56.31-.56,0,0,4.75,1.53,4.75,2.61,0,.15,0,.46-.2.56s-1.38.61-1.58.82c-.62.56-2.87,4-3.43,4.75-.41.51-1.79,2.3-1.68,2.76A8.27,8.27,0,0,0,112,28Zm9,16.35c-.21-.25-.21-.25-.21-.36s.11-.1.16-.1c1,0,5.62.31,6.69.31a1.63,1.63,0,0,0,1.49-.72c.51-.71.76-1,1.27-1,.82,0,3.32,1.43,3.32,2.45a.72.72,0,0,1-.51.62c-1.07.4-1.07.4-1.43,1.07-2.14,4.24-3.32,6.39-5.57,8.89a23.7,23.7,0,0,1-8.38,5.93s-.15,0-.15-.1,0-.21.3-.46a55.52,55.52,0,0,0,5.22-5.42,27,27,0,0,0,5.16-9.4c0-.41-.21-.41-1.69-.41-.61,0-3.78.2-4.24.2-.15,0-.26-.1-.46-.3Zm2.71,7.82a2,2,0,0,1-1.74,2.2c-1.12,0-1.23-1.33-1.48-3.48a13.34,13.34,0,0,0-1.38-3.83c0-.21-.21-.46-.21-.56a.28.28,0,0,1,.26-.26,8.19,8.19,0,0,1,2.2,1.64C121.85,48.43,123.69,50.22,123.69,52.21Zm5.77-13.9a1.52,1.52,0,0,0-1.48.56,2.83,2.83,0,0,1-2.15,1.43c-1.17,0-1.17-.76-1.17-2.14s.2-8.85.2-10.48c0-.87-.1-5.06-.1-6,0-.21,0-.36.31-.36.51,0,2.86,1.69,3.47,1.69,1,0,4.14-5.68,4.19-6.7.05-.36.11-.71.41-.71.1,0,2.56,1.22,3,1.43.71.36,1.43.71,1.43,1.12s-2.1.92-2.46,1.13c-1.68,1.17-3.78,3.11-3.78,3.52s.1.31,1,.31h9.82c1.07,0,1.43-.05,1.84-.72,1.12-1.73,1.27-1.94,1.78-1.94.67,0,3.53,1.89,3.53,3a1.46,1.46,0,0,1-.61,1c-.72.61-.92.82-.92,1.69s.15,4.6.15,5.46.36,5.63.36,6c0,2.3-2.45,2.45-2.71,2.45-.71,0-.82-.21-1.12-1.23-.16-.61-.82-.61-1.18-.61h-5.88c-.25,0-.46,0-.46.2s.11.26,1,.62c.41.1,1.49.56,1.49,1.17,0,.41-.11.46-.92,1.08a.83.83,0,0,0-.31.61,35.43,35.43,0,0,0,1.84,3.88c.41.77,1.07,2.05,1.69,2.05,1.22,0,4.7-3.68,5.82-5,.11-.15.56-.66.67-.66s3.57,3,3.57,3.57c0,.21-.15.26-.3.26a11.74,11.74,0,0,1-1.33-.05c-1.48,0-2.56.51-6.95,2.5-.92.41-.92.46-.92.77,0,.51,3.47,5.82,8.89,9,1.64,1,1.84,1,1.84,1.23s-.15.15-.82.2a12.42,12.42,0,0,0-2.91.57,8.51,8.51,0,0,1-1.53.71c-.46,0-5.78-6.13-8.59-13-.2-.46-1.12-3.17-1.23-3.17s-.15,1.48-.15,1.74c0,.51.1,8.53.1,9.45,0,3.12,0,4.25-1.12,5.12a7.7,7.7,0,0,1-4,1.38.56.56,0,0,1-.56-.36,6.24,6.24,0,0,0-1-1.74c-.31-.31-1.94-1.69-1.94-1.74s.15-.15,1.48-.15c3.83,0,4-.51,4-4.24,0-2.35,0-13.09-.26-14.57-.2-1.23-.77-1.48-1.79-1.48Zm.11-13.85c-.67,0-1.33.1-1.54,1.07v2.92c0,1.32,1,1.32,1.59,1.32H142.9c1.54,0,1.54-.2,1.54-3.93,0-1.38-1-1.38-1.54-1.38Zm0,6.64c-.57,0-1.54,0-1.54,1.43,0,4.35,0,4.45,1.54,4.45h13.49a1.26,1.26,0,0,0,1.43-1.38c0-4.29,0-4.5-1.48-4.5Z"/><path class="cls-2" d="M266.1,55.54c0,.7,0,2.93-1.28,2.93a1.12,1.12,0,0,1-1-1.22c0-.3.34-1.75.37-1.88a16,16,0,0,0,.37-2.86c0-1.42,0-1.52.2-1.52a.53.53,0,0,1,.2.07C265.46,51.36,266.1,53.58,266.1,55.54Zm7.95-8.83c.77,0,.84,0,1.21-.33s.67-.64.87-.64c.38,0,2.13,1.21,2.13,1.78,0,.2-.07.27-.64,1a2.29,2.29,0,0,0-.27,1.15,39.27,39.27,0,0,1-1.11,6.83,5.61,5.61,0,0,1-4,4.15c-.31,0-.44-.07-.91-.88a3.88,3.88,0,0,0-.68-.77c-.06-.07-.57-.44-.57-.58s.37-.13.67-.13c2.36,0,2.83-1,3-1.35,1.05-2.15,1.69-6.87,1.69-8.52,0-.81-.58-.81-1.05-.81h-5.92a.82.82,0,0,0-.71.31c-.47.63-.57.8-1.38.8s-1.05-.27-1.05-1c0-.54.24-7.61.24-8.76,0-1.31,0-4.38-.14-5.59,0-.2-.2-1.35-.2-1.58s0-.2.1-.2,1.72.64,2.06.77a4.16,4.16,0,0,0,1.45.24h3.77c1.38,0,1.78,0,2.12-.58.47-.84.64-1.07,1.08-1.07s2.49,1.58,2.49,2.08-.71.48-1.82.48h-3.13c-1,0-1,.23-1,2,0,1.18.06,1.68.94,1.68.7,0,.91,0,1.18-.54s.6-1.08,1.11-1.08a4.43,4.43,0,0,1,2,2.06c0,.47-.57.47-1.55.47h-2.73c-1,0-1,.17-1,2.83a.84.84,0,0,0,1,.91c.51,0,.71,0,1-.54.17-.37.5-1.08,1-1.08s2.13,1.62,2.13,2.09-.68.47-1.79.47h-2.29c-1,0-1,.27-1,3,0,.87.5.94,1,.94Zm-4.45,9c0,1.08-.57,1.42-1,1.42-.84,0-1-.88-1-2.13a16.42,16.42,0,0,0-.4-3,3.27,3.27,0,0,1-.1-.81c0-.3.13-.37.33-.3C268.42,51.23,269.6,54.59,269.6,55.67Zm0-18.49c1,0,1-.54,1-1.82,0-1.45,0-1.88-1-1.88h-1c-1,0-1,.47-1,1.85s0,1.85,1,1.85Zm0,4.68c1,0,1-.5,1-1.85s0-1.92-1-1.92h-1c-1,0-1,.47-1,1.92s0,1.85,1,1.85Zm-.1,4.85c1.08,0,1.08-.44,1.08-2s0-2-1-2h-.94c-1.08,0-1.08.44-1.08,2s0,2,1,2Zm1.65,8.59c-.51,0-.51-.44-.57-1.68a17,17,0,0,0-.37-2.43A9.66,9.66,0,0,1,270,50c0-.17,0-.37.14-.37a5.07,5.07,0,0,1,2.12,3.67C272.26,54.66,271.52,55.3,271.15,55.3Zm3.27-3.2c0,.61-.31,1.11-.78,1.11S273,53,272.7,51a6.47,6.47,0,0,0-.44-1.55,1.51,1.51,0,0,1-.07-.37c0-.16.07-.27.24-.23A4.41,4.41,0,0,1,274.42,52.1Zm15.09-19.6a.92.92,0,0,0,.9-.37c.48-.71.75-1.08,1-1.08s2.05,1.38,2.05,1.82a12.72,12.72,0,0,1-.74,1.55c-.1.4-.1,3.33-.1,3.94s.1,3.77.1,4.48a1.65,1.65,0,0,1-1.69,1.48c-.7,0-.74-.34-.84-1.08,0-.4-.07-.67-.91-.67H288a.8.8,0,0,0-.94.84,3.71,3.71,0,0,0,.06.54c.48,3.1,1.69,9.23,5.56,13.1a22.57,22.57,0,0,1,2.06,2c0,.13-.21.16-.34.16s-.67-.06-.81-.06a10.9,10.9,0,0,0-1.85.17c-.14,0-.78.3-.84.3s-.37-.37-.48-.51c-3.26-5.45-3.9-9.6-4.24-15.12-.1-1.35-.17-1.38-1-1.38h-1.88c-1,0-1,.2-1,2,0,4.55-1.32,10.24-4,13.91-.27.41-1.61,2-2,2a.2.2,0,0,1-.21-.17c0-.14,1.05-1.79,1.25-2.13,2.93-5.49,2.93-12.69,2.93-15.32a85.88,85.88,0,0,0-.47-9.77c0-.2-.2-1.14-.2-1.38s0-.33.13-.33a16,16,0,0,1,2.06.77,4.12,4.12,0,0,0,1.38.27Zm-6.3.87a.9.9,0,0,0-.81.51c-.14.37-.14,6-.14,6.63s.07,1.18,1,1.18h6.07a.91.91,0,0,0,.87-.37c.24-.37.24-6.13.24-6.66,0-.95-.14-1.29-1.05-1.29Z"/><path class="cls-2" d="M302.09,45.23c0-.1,0-.4-.23-.4s-4.08,2.76-4.35,2.76c0,0-.06,0-.06-.07s1.34-1.45,1.51-1.65c.44-.47,5.12-5.62,6.2-7.91.2-.41.4-.88.54-.88s2.83,1.68,2.83,2.53c0,.16-.1.2-.91.47a16.37,16.37,0,0,0-3.34,2.83c0,.16.14.23.27.27.57.13.78.2.78.57a.29.29,0,0,1-.07.23c-.07.14-.57.64-.64.78a41.69,41.69,0,0,0-.2,4.82c0,1.28.13,7.57.13,9a2,2,0,0,1-1.78,2.19c-1,0-1-.88-1-1.18s.14-2,.17-2.26c.17-2.52.17-3.84.17-7.51C302.13,47.69,302.09,45.67,302.09,45.23Zm6.54-12.6c0,.27-.14.31-1.08.51a4.27,4.27,0,0,0-1.72.84c-3.3,2.36-4.31,3.07-6.67,4.11-.37.17-.4.2-.47.2s-.1,0-.1-.1,2-1.85,2.29-2.12a25.12,25.12,0,0,0,4.55-5.39c.27-.44.34-.57.54-.57C306.37,30.11,308.63,32.1,308.63,32.63Zm5.05,10.07c-.77,0-3.06,0-4.24.11-.14,0-.61.06-.74.06s-.17-.06-.27-.2l-.68-.77c-.13-.17-.13-.17-.13-.24s0-.07.13-.07,1.28.1,1.48.1c1.55.07,3,.14,4.62.14h1.72c.91,0,1-.17,1-3.71,0-1.75-.17-1.78-1.59-1.78-.77,0-3.06,0-4.24.1-.13,0-.61.07-.71.07s-.2-.07-.3-.21l-.67-.77c-.1-.17-.14-.17-.14-.24s0-.06.14-.06,1.78.13,2.12.13c2.46.1,2.52.1,4.31.1.3,0,1,0,1-.91,0-.74-.11-2.22-.14-2.59,0-.2-.27-1-.27-1.21s.2-.37.44-.37c0,0,3.2.47,3.2,1.18,0,.16,0,.2-.64.7-.2.17-.27.41-.27,1.52s0,1.68,1.11,1.68h1.45c1.55,0,1.75,0,2.22-.74.68-1,.74-1.08,1.05-1.08s2.66,1.59,2.66,2.19-.64.51-1.82.51h-5.56c-.91,0-1.08.27-1.08,1.35,0,.4.07,2.22.07,2.59,0,1.08,0,1.55,1.08,1.55h2.66c1.55,0,1.72,0,2.09-.67.54-.91.77-1.18,1.11-1.18.54,0,2.76,1.65,2.76,2.22s-.6.5-1.78.5h-7.88c-.21,0-.31,0-.31.14s.1.17.31.23.4.24.4.48a5.09,5.09,0,0,1-.4.81,4.31,4.31,0,0,0-.17,1.65c0,2.93,0,3,1,3h2.59c1.55,0,1.72,0,2.22-.74.64-1,.71-1.08,1-1.08s2.66,1.62,2.66,2.23-.6.47-1.82.47h-6.63c-1,0-1,.44-1,1.11V55.4c0,1.28.3,1.65,2.15,1.65a29.24,29.24,0,0,0,7.41-.91c.2,0,1.21-.33,1.28-.33s.1,0,.1.06a5,5,0,0,1-.6.68c-1.15,1.28-1.22,1.75-1.22,2.05s0,.61-.37.78a28.53,28.53,0,0,1-4.14.3c-6.4,0-9.23-1.68-11.58-5.19-.14-.17-.48-.64-.71-.64s-.37.21-.64.78a16.28,16.28,0,0,1-3.2,4.58,8.92,8.92,0,0,1-1.69,1.31s0,0,0-.07.74-1.21.88-1.44a22.53,22.53,0,0,0,3.47-11.83c0-1.65,0-1.75.36-1.75,0,0,1.22.31,1.59.41,1.11.33,1.21.37,1.21.67s-.54.88-.57,1c-.14.41-.37,2.22-.44,2.59s-.47,2-.47,2.13c0,1.24,2.86,3.8,4.14,3.8.2,0,.57,0,.67-.64,0-.3.14-5.93.14-6.36a32.51,32.51,0,0,0-.3-5.56c-.27-.78-.64-.78-1.18-.78Z"/><path class="cls-2" d="M344.49,47.82c0,.27-.13.41-.71.51a2.7,2.7,0,0,0-1.38.84,24.31,24.31,0,0,1-7,4.95,12.74,12.74,0,0,1-1.44.51c-.07,0-.14,0-.14-.07s2.59-2.05,2.9-2.36c3.13-3.26,3.8-4.14,4.44-6.26,0-.07.17-.41.37-.41a5.26,5.26,0,0,1,1.55.91C344.36,47.39,344.49,47.52,344.49,47.82Zm2.09-4.41c.91,0,1-.37,1-1.08,0-1.88,0-3.84,0-5.76a23.32,23.32,0,0,0-.21-4.34c0-.27-.4-1.45-.4-1.58,0-.31.44-.34.57-.34,1.08,0,3.07.71,3.07,1.21,0,.14-.61.64-.68.78-.13.3-.13.6-.13,3.23,0,.61,0,1.18,1,1.18h3.51c1.27,0,1.51-.07,1.71-.3s1.08-1.89,1.45-1.89,2.83,2.09,2.83,2.66-.2.44-1.82.44h-7.68c-1,0-1,.54-1,1V42.3c0,1.08.37,1.11,1.08,1.11H357a7.38,7.38,0,0,0,1.75-.13c.37-.21,1.59-2.09,2.05-2.09s2.83,2.29,2.83,2.63-.6.47-1.78.47H349.54c-.07,0-.27,0-.27.17s.1.1.78.4.81.4.87.77c0,.17,0,.24-.47.58s-.6,2-.6,2.76c0,.2.06,3.4.06,3.8a3.09,3.09,0,0,1-1.55,3.07,4.45,4.45,0,0,1-2,.61,1.23,1.23,0,0,1-.47-.11c-.21-.1-.71-1.14-.88-1.31s-1.69-1.25-1.69-1.28.14-.13.21-.13,1.58.1,1.88.1c1.92,0,2.06-.37,2.09-1.48s0-2.36,0-3.37c0-4.31-.14-4.58-1.22-4.58h-6.43c-.61,0-3.1,0-4.24.1-.1,0-.61.07-.74.07s-.17-.07-.27-.21l-.68-.77c-.13-.17-.13-.17-.13-.24s.07-.06.13-.06c.68,0,4,.23,4.75.23s.88-.44.88-1.11V37.48a27.79,27.79,0,0,0-.14-3.46c0-.14-.27-.91-.27-1.08s.1-.21.24-.21,3.44.51,3.44,1.12a.47.47,0,0,1,0,.23,6.5,6.5,0,0,0-.71.68c-.2.4-.2,1.11-.2,7.37,0,1,.14,1.28,1,1.28ZM358.47,53c0,.41-.14.44-1,.61-.57.1-.77.27-2.62,1.72-6.6,5.19-13.71,5.19-16.78,5.19-.36,0-2.45,0-2.45-.27A4.9,4.9,0,0,1,337,60c8.39-1.32,13-3.1,16.47-6.4a6.55,6.55,0,0,0,1.68-2.7c.14-.4.17-.47.41-.47s.33.14,1.55,1.08S358.47,52.67,358.47,53Zm4.24-1.14A1.12,1.12,0,0,1,361.47,53c-1,0-1.22-.43-1.92-1.61A27.81,27.81,0,0,0,355,46.68c-.51-.41-.57-.44-.57-.57s.27-.14.33-.14a10.88,10.88,0,0,1,2.73.74C360.86,48.16,362.71,50.45,362.71,51.9Z"/><path class="cls-2" d="M384.11,30.74c-1.58-.34-2.16-.5-2.16-1.08s.83-.83,1.91-1c4.07-.75,13.21-4.73,13.21-14.45,0-3.49-2.16-11.22-12-11.22-6.06,0-10.47,3.41-10.47,9.8,0,.83-.33,1-.58,1s-.5-.17-.58-.91a83.16,83.16,0,0,1-.58-8.31c0-.75,0-1.16,1.08-1.75C376.47,1.41,381.21,0,387.44,0,401,0,403.88,8.31,403.88,12.46c0,8.31-8.55,13.79-11.13,15v.42c5.24,1.25,13.71,6.31,13.71,16,0,11.63-10,21.35-24.84,21.35-3.41,0-8.39-1-10.13-2a2.3,2.3,0,0,1-1.33-2.33,96.42,96.42,0,0,1,.58-10.38c.08-.83.25-1.25.66-1.25s.5.25.58,1.16c.58,6.4,3.74,11.22,12.47,11.22,8.39,0,15-4.82,15-14.71C399.48,35.72,389.51,31.82,384.11,30.74Z"/><path class="cls-2" d="M430.43,21.84c0,.51-.36.62-1.43.87-.51.15-1.43,1.63-2.55,3.47-5.92,9.75-14,14.13-15.16,14.13A.27.27,0,0,1,411,40c0-.31.11-.36,1.08-1.12C419,33.48,422.82,25,423.54,23.48c.36-.77,1.68-5.11,1.73-5.11C425.63,18.22,430.43,21,430.43,21.84Zm4.95,14.9c-1.33,0-1.33.1-1.64,2.81-.46,4.49-1.43,13.32-10.31,18.27a33.37,33.37,0,0,1-9.74,3.31c-.15,0-.61,0-.61-.35s.25-.36,1.17-.67a29.12,29.12,0,0,0,10.05-6.17c3.78-3.83,5.77-10.77,5.77-16.07,0-1.13-.51-1.13-1.28-1.13h-1.53c-1.89,0-4.33,0-5.25.1a7.72,7.72,0,0,1-1.07.16c-.21,0-.31-.16-.46-.36l-1-1.17c-.16-.21-.21-.26-.21-.31s.05-.15.21-.15c.35,0,1.88.2,2.24.2,2.5.1,4.59.15,7,.15h11.18c2.29,0,2.55-.1,3.36-1s1.23-1.12,1.59-1.12c.81,0,3.77,2.35,3.77,3.42,0,.26-.82,1.18-.92,1.38-.25.51-.56,6.33-.66,7.5-.56,6.17-1,10.36-2.4,12.65a7.69,7.69,0,0,1-5.2,3.07c-.56,0-.56-.16-1-1.59-.31-1.17-2-1.83-4.7-2.6-1.12-.3-1.68-.51-1.68-.81s.46-.31.56-.31c.36,0,1.73.31,2,.36a30.52,30.52,0,0,0,3.62.4c2.45,0,3.83-.45,4.55-5.71.5-3.93,1-9.85,1-12.45,0-1.38-.1-1.84-1.53-1.84Zm2.55-16.43c-1.28,0-3,.05-4.09.1-.15,0-.86.11-1,.11s-.2-.05-.4-.31l-1-1.17a.55.55,0,0,1-.16-.36c0-.05,0-.1.16-.1.3,0,1.78.2,2.09.2.56,0,2.7.15,3.06.15a2.6,2.6,0,0,0,2.14-1.32c1-1.43,1.13-1.58,1.53-1.58.67,0,4.44,2.55,4.44,3.67,0,.51-.15.56-1.53.92-.25.05-1,.3-1,1.07,0,2.65,6.74,10.77,15.36,11.63.15,0,.77.11.77.41s-1.33.56-1.53.61a10.84,10.84,0,0,0-3.12,2.35c-.1.15-.66.77-.81.77-1.74,0-10.16-7-12.2-14.75-.56-2.19-.66-2.4-1.84-2.4Z"/><path class="cls-2" d="M253.74,100.71c-1,0-1.57,0-1.57.34s.55.75,1.16,1.23c4.71,3.55,4.71,5.11,4.71,6.41,0,2-1.09,3.41-2.11,3.41-1.37,0-1.71-1.09-2.8-3.89-2.87-7.5-3.48-7.5-5.67-7.5H243.1c-2,0-2.19,1-2.19,2.25v8.46c0,3.48.48,22.79.48,24.5,0,2.18-2.32,3.68-3.82,3.68-1.77,0-1.77-1.5-1.77-2.32,0-3.82.2-20.74.2-24.22,0-7,0-7.78-.34-13.58,0-.41-.14-2-.14-2.39s0-.68.28-.68c.68,0,3.07,1.23,4.36,1.91a5.12,5.12,0,0,0,2.94.61h13.37c2,0,2-.54,2-5.25,0-3.07,0-4.23-1.91-4.23H242.69c-6,0-8,.13-8.67.2-.2,0-1.23.14-1.43.14s-.34-.14-.62-.41l-1.29-1.57c-.28-.27-.28-.34-.28-.48s.07-.13.21-.13c.48,0,2.59.27,3,.27,3.35.2,6.21.2,9.42.2h13.44c2,0,2-1.36,2-1.91a37.91,37.91,0,0,0-.14-4c-.06-.62-.47-3.21-.47-3.69s.41-.41.68-.41c.07,0,6.82.75,6.82,2,0,.48-.2.68-.88,1.3a1.75,1.75,0,0,0-.75,1.77c0,4.51,0,5,2,5h11.88c3.07,0,3.41,0,4.23-1.16,2.12-2.79,2.32-3.14,3.07-3.14,1.3,0,7.17,4.51,7.17,5.12,0,1-1.37,1-3.69,1H265.68c-2.11,0-2.11.82-2.11,4,0,4.92,0,5.46,2.05,5.46h12.76a2,2,0,0,0,2-.88c1.29-1.64,1.43-1.85,2-1.85,1,0,5.8,2.66,5.8,3.89,0,.62-.21.75-1.23,1.44-.68.41-.82,1-.82,2.25,0,.61-.07,3.48-.07,4.09.07,3.62.48,19.66.48,22.93,0,2.87-.34,5.6-2.46,7.1a8,8,0,0,1-3.82,1.3c-.68,0-.75-.07-1.09-1.37s-2.19-2.66-2.87-2.87c-.41-.06-5.05-1.5-5.12-1.57a.54.54,0,0,1-.41-.54c0-.27.35-.34.62-.34,1.09,0,6.07.13,7,.07,2.18-.14,2.93-.35,2.93-3.21,0-3.82-.2-20.88-.2-24.36,0-3.69,0-4.3-2.12-4.3h-9.07c-.48,0-1,0-1,.34s2.12,1.5,2.73,1.77c1.37.69,1.5,1,1.5,1.3,0,.55-.2.61-1.7,1.3-1,.47-1.3.88-4.58,5-.88,1.09-1,1.23-1,1.5s.14.34.62.34c1.84,0,2.11-.2,2.45-.55s2.05-2.45,2.53-2.45c.88,0,5.39,3.07,5.39,3.89s-1.37,1-3.69,1H265c-2.05,0-2.05,1.23-2.05,3.82,0,4.3,0,4.85,3.35,4.78,3.07,0,3.41,0,4.37-1.09,1.63-2,1.77-2.32,2.38-2.32.89,0,5.94,3.55,5.94,4.3,0,1-1.36,1-3.68,1h-10c-.75,0-2.18,0-2.18,1.78,0,1.36.2,7.5.2,8.73a3.54,3.54,0,0,1-3.68,3.48c-.27,0-1.77-.07-1.77-2.32,0-.88.27-7,.27-8.32,0-2.73,0-3.35-1.91-3.35-4.71,0-6.83.14-7.37.14-.28,0-1.91.2-2.05.2s-.34-.13-.61-.47l-1.3-1.57c-.27-.28-.27-.34-.27-.41s.06-.14.2-.14c.48,0,2.59.21,3.07.21,2.66.13,5.8.2,8.46.2,1.85,0,1.85-.41,1.85-4.64,0-4-.07-4-3.28-4-2.25,0-5.19.07-6.21.21-.2,0-.89.13-1,.13s-.34-.2-.62-.47l-1.29-1.57c-.14-.21-.28-.34-.28-.41a.19.19,0,0,1,.21-.21c.48,0,2.59.28,3,.28,3.34.2,6.21.2,9.35.2h2.59c2.12,0,2.25-.34,3.62-3.62a25.86,25.86,0,0,0,1.71-6.75c0-1.16-.82-1.16-1.85-1.16Z"/><path class="cls-2" d="M140.87,123.22c-1.19,0-3.26,0-4.91.11a9.68,9.68,0,0,1-1.19.15c-.15,0-.31-.1-.52-.31L133.17,122a.75.75,0,0,1-.16-.36c0-.05.05-.1.16-.1s1.29.15,1.5.15c1.65.11,4.44.21,6.05.21h4c.46,0,1.39,0,1.39-1.45,0-1.14,0-6.87,0-7.24a1.25,1.25,0,0,0-1.44-1.13h-1.71c-1.09,0-3.05,0-4.6.1a9.58,9.58,0,0,1-1.09.16,1.25,1.25,0,0,1-.46-.31l-1-1.19a.83.83,0,0,1-.15-.37s.05-.1.15-.1,1.19.16,1.4.16c1.5.1,4.19.2,5.63.2h9.67c1.81,0,2,0,2.48-.88,1-1.75,1.19-1.91,1.76-1.91.78,0,3.93,2.9,3.93,3.41,0,.73-.77.73-2.07.73h-7.18a1.35,1.35,0,0,0-1.5,1.55c0,1.08-.05,5.94-.05,6.93,0,1.34,1,1.34,1.6,1.34h2.27c1.86,0,2.07,0,2.69-.88,1.14-1.76,1.24-1.91,1.86-1.91.83,0,4.24,2.89,4.24,3.41,0,.72-.83.72-2.27.72h-8.74c-.57,0-1.65,0-1.65,1.45s0,6.36.05,7.29a1.32,1.32,0,0,0,1.5,1.35h8c2.33,0,2.59,0,3.31-.88,1.45-1.71,1.6-1.92,2.12-1.92.31,0,4.81,2.74,4.81,3.42s-1,.72-2.74.72H135.13c-4.55,0-6,.1-6.51.16-.21,0-.93.1-1.09.1s-.31-.1-.46-.31l-1-1.19c-.2-.26-.25-.26-.25-.36s.1-.11.2-.11c.37,0,2,.16,2.28.16,2.53.1,4.65.21,7.08.21h9.31a1.33,1.33,0,0,0,1.44-1.45c0-1.19.06-7.19,0-7.5a1.25,1.25,0,0,0-1.39-1.14Zm8.89-31.64c1.24.68,1.4.73,1.4,1.24s-.1.47-1,.68c-.16,0-.16.26-.16.36,0,.77,6.21,10.08,18.1,14.78.67.26,4.13,1.3,4.13,1.56s-1.75.62-2.06.72a7,7,0,0,0-2.59,1.76c-.15.15-.67.62-1,.62-.83,0-7.76-5.38-11.58-9.83a39.5,39.5,0,0,1-5.59-7.65c-.15-.26-.57-.77-.83-.77s-.82.72-2,2.17c-4.6,5.79-9.72,11.27-16,15.1-.88.51-3.57,2.17-4.24,2.17-.1,0-.36,0-.36-.21s.67-.78,1-1c10.14-6.83,16.81-18.82,17.17-19.49s1.76-3.93,1.81-3.93C146.35,89.62,147.85,90.5,149.76,91.58Z"/><path class="cls-2" d="M194.82,109.21c-.62,0-1.5,0-1.5,1.08a59.9,59.9,0,0,0,2.43,9.88c.62,1.76,2.22,4.19,2.84,4.19.47,0,.67-.26,2.53-2.38.31-.36.52-.47.52-.31s-.78,3.41-.78,4.08a4.73,4.73,0,0,0,.42,2,7.19,7.19,0,0,1,.83,2,1.44,1.44,0,0,1-1.61,1.3c-2.12,0-5.48-4.45-6.92-8-.16-.41-.42-.93-1-.93a3.83,3.83,0,0,0-1.75.78c-1.71,1.08-10.29,6-11,6.77-.26.31-.41,1.29-.93,1.29-.1,0-3.67-4.24-3.67-4.91,0,0,.05-.15.11-.15s1.18.26,1.44.26c.88,0,2.79-.11,3-1.5.16-.73.16-15.26.16-17.58,0-1.81-.26-10.55-.26-11,0-.26-.16-1.45-.16-1.61s.06-.15.11-.15c.67,0,3.72,1.39,4.5,1.39.1,0,9.2-2.53,9.92-4.18.52-1.3.57-1.45.88-1.45a25.54,25.54,0,0,1,2.84,1.86c1.61,1,1.81,1.19,1.81,1.45,0,.72-.46.77-4.44,1.5-2.54.46-2.85.51-2.85,1.75,0,.57.11,3.83.31,7,.21,3.93.26,4.19,1.45,4.19,1.35,0,1.61-.31,2.07-1.08s1.34-2.12,1.86-2.12,3.72,3.36,3.72,3.93-.25.67-2.74.67Zm-5,23.52c1.92,0,2.33,0,2.85-.88,1.19-2.07,1.29-2.32,1.81-2.32.36,0,.46.05,3.41,3.3a.77.77,0,0,1,.26.52c0,.73-.88.73-2.38.73h-7.91c-3.47,0-5,.1-5.59.15-.15,0-.82.1-.93.1A.58.58,0,0,1,181,134l-.83-1.19c-.2-.25-.2-.25-.2-.36s0-.1.15-.1c.31,0,1.66.15,2,.15,2,.11,3.93.21,6,.21Zm-4.91-23.52a1.38,1.38,0,0,0-1.6,1c-.1.52-.1,11.69-.1,12.51s.15,1.55.93,1.55c1.24,0,5.94-2.06,6.3-2.22,1.55-.67,1.92-1,1.92-1.55,0-.1-.62-2.79-.78-3.31-.31-1.24-1.4-7.08-1.6-7.44-.31-.57-.83-.57-1.45-.57Zm3.47-1.4c.67,0,1.39,0,1.39-1.14,0-.25-.05-.62-.26-2.89-.1-1.24-.26-4-.36-5.43-.1-2-.1-2.27-.93-2.27-.31,0-2.07.31-2.43.36-1.71.2-2.12.26-2.33.93-.15.41-.15,6.56-.15,8.84,0,.88,0,1.6,1.6,1.6Zm26.47-14.42a1.09,1.09,0,0,0,1.24-.78c.26-.67.46-1,.77-1s4.55,2.17,4.55,3.1c0,.47-.77.78-1,.88-.62.26-.83.41-1,.72a102.89,102.89,0,0,1-5.53,9.15,34.45,34.45,0,0,0-1.87,3c0,.31.68.78,1.87,1.6,2.43,1.71,8.53,5.9,8.53,13.45a8,8,0,0,1-3.93,7.24,11.21,11.21,0,0,1-4.09,1.6c-.36,0-.62-.31-.82-.73a6,6,0,0,0-1.25-2c-.36-.36-2.48-1.81-2.48-1.92s.47-.15.52-.15c.57,0,3.36.31,4,.31,3.41,0,4.09-2.84,4.09-5.17,0-4.08-2.54-9.2-6-12.05-1.19-1-1.55-1.24-1.55-1.81a24,24,0,0,1,1.44-3.05,105,105,0,0,0,3.31-10.23c0-.78-.67-.78-1-.78h-5.53a1.47,1.47,0,0,0-1.55.73c-.26.67-.26,7.13-.26,8.32,0,8.12.21,20.68.62,28.33,0,.36.26,2.33.26,2.79,0,1.55-1.81,2.17-3.1,2.17-.47,0-1.14-.1-1.14-1.39,0-.11.21-2.17.21-2.38.1-1.45.15-33.76.15-37.22a12.71,12.71,0,0,0-.15-2.28,8,8,0,0,1-.21-1.14c0-.26.1-.72.57-.72A21,21,0,0,1,207.22,93a5.36,5.36,0,0,0,2.07.36Z"/><path class="cls-2" d="M310.38,100.79c1.7,0,2-.26,2.89-1.5a38.11,38.11,0,0,0,3.83-7.81c.21-1,.26-1.45.62-1.45.21,0,3.62,2.12,3.83,2.28s1.39,1,1.39,1.5-.15.46-1.45.62c-1,.15-6.92,5.74-6.92,5.94,0,.42.31.42.82.42h21a1.87,1.87,0,0,0,1.71-.78c.62-.83.83-1,1.08-1,.57,0,4.24,2.84,4.24,3.56,0,.26-.31.52-.41.62-1.29,1-1.6,1.3-1.65,3-.06,1.5-.06,2.53-.06,12.1,0,2,.16,11.68.16,13.91a4,4,0,0,1-2.12,3.93,6.48,6.48,0,0,1-2.53.93c-.42,0-.93-.16-1-.57-.26-1.09-.31-1.29-.72-1.6s-3.72-1.56-3.72-2c0-.26.46-.26.57-.26.46,0,2.63.21,3.15.21,2.69,0,2.69-.52,2.69-4.45,0-1.44.1-8.32.1-9.87,0-2-.05-12-.05-14,0-1.76,0-2.38-1.6-2.38H306.4c-.62,0-1.35,0-1.66.62s-.31,8.32-.31,9.82c0,3.05.21,18,.21,21.36,0,1.44,0,3.15-3.05,3.15-1.14,0-1.45-.31-1.45-1.19,0-2.07.31-5.32.47-7.39.1-1.76.26-18.51.26-18.87,0-1.66,0-4.81-.26-7.55-.06-.36-.42-2.17-.42-2.53a.24.24,0,0,1,.26-.21,10.27,10.27,0,0,1,2.9,1,7,7,0,0,0,2.84.47ZM316.94,126c-1.29,0-1.29.16-1.29,1.45,0,1.45-1.19,2.17-2.58,2.17-1,0-1.4-.36-1.4-1.44,0-.26.36-9.36.36-11.12,0-.57.05-2.43-.1-5.12,0-.41-.31-2.32-.31-2.74s.15-.83.62-.83,2.84,1.19,3.41,1.3a5.5,5.5,0,0,0,1.45.15h8.32c.62,0,1.14,0,1.45-.31.78-.72,1.09-1,1.45-1,.67,0,3.1,1.6,3.1,2.48a24.7,24.7,0,0,1-1.24,2.22c-.1.36-.1,4.55-.1,5.28,0,1.13.1,6.82.1,8.06,0,1,0,2.9-2.64,2.9-1.19,0-1.19-.26-1.19-2.54,0-.88-.57-.88-1-.88Zm8-1.34c.41,0,1.19,0,1.45-.62s.2-8.22.2-9.15c0-3.31,0-3.72-1.55-3.72h-8.12c-1.55,0-1.55.82-1.55,2.22,0,.72,0,10,.26,10.65s1,.62,1.45.62Z"/><path class="cls-2" d="M358.4,94.69c.87,3.15,2.32,5.32,2.68,5.32a4.86,4.86,0,0,0,2-.83c1-.62,1.19-.72,1.81-.72a1.61,1.61,0,0,1,1.76,1.55,2.93,2.93,0,0,1-2.22,2.53c-.16.06-1.25.47-1.25.62.37.63,2.69,4.35,3.16,4.35.2,0,1.86-.57,1.86-1.45,0-.21-.67-.93-.67-1.14,0-.41.51-.46.72-.51,1.86-.16,2.9-.26,3.21-.26,1.7,0,3,.82,3,2.27,0,.73-.11,1.91-4.55,3.52-1.35.46-1.5.57-1.5.77s0,.36,1.65,2.9c2.54,3.93,3.31,6.2,3.31,8.12a3.44,3.44,0,0,1-3,3.56c-1.29,0-1.65-.26-5-2.58a8.3,8.3,0,0,0-5-1.55c-4.65,0-6.82,3-6.82,5.32,0,3.83,4.55,4.09,5.89,4.09.83,0,4.29-.37,5-.37s2.43.21,2.43,1.87c0,2.94-5.43,2.94-6.05,2.94-1.5,0-10.19,0-10.19-7.24,0-3,2.23-8.11,10-8.11a21.05,21.05,0,0,1,5,.62,9.47,9.47,0,0,0,2.27.31c.78,0,1.34-.26,1.34-1.09,0-1-.77-3.36-2.32-6.36-.78-1.5-.83-1.65-1.29-1.65s-2.28.57-2.69.67a24.46,24.46,0,0,1-6.21.78c-3.1,0-5.22-.42-6.82-2a4,4,0,0,1-1.24-2.22.48.48,0,0,1,.46-.52,13.84,13.84,0,0,1,1.66.93,13.1,13.1,0,0,0,5.43,1c4.08,0,8-1.35,8-1.66s-2.9-4.86-3.52-4.86c-.1,0-2.84.47-3.36.47-4,0-7.08-2.8-7.08-3.78a.4.4,0,0,1,.41-.41,10.69,10.69,0,0,1,1.35.46,9.45,9.45,0,0,0,3.57.73c1.24,0,3-.26,3-.62,0-.16-2.8-4.24-5.28-5.48-1.5-.73-1.7-.78-1.7-1.14,0-.52,1-1.4,2-1.4S357.93,93.13,358.4,94.69Z"/><path class="cls-2" d="M86.74,107.23,98.8,119.29l12-12,1.19,1.19-12,12,12.1,12.1-1.27,1.27-12.1-12.1-12,12-1.19-1.19,12-12L85.47,108.5Z"/></g></g></svg>