<?xml version="1.0" encoding="utf-8"?>
<!-- Generator: Adobe Illustrator 24.3.0, SVG Export Plug-In . SVG Version: 6.00 Build 0)  -->
<svg version="1.1" id="レイヤー_1" xmlns="http://www.w3.org/2000/svg" xmlns:xlink="http://www.w3.org/1999/xlink" x="0px"
	 y="0px" viewBox="0 0 760.7 213" style="enable-background:new 0 0 760.7 213;" xml:space="preserve">
<style type="text/css">
	.st0{fill:#EFEFEF;}
	.st1{fill:#6CBFD7;}
</style>
<path class="st0" d="M3.4,87c0,0.2-0.1,0.5-0.2,0.6c-0.2,0.2-0.4,0.2-0.6,0.2H2.5c-0.2,0-0.5-0.1-0.6-0.2c-0.2-0.2-0.2-0.4-0.2-0.6
	V56.3c0-0.2,0.1-0.5,0.2-0.6c0.2-0.2,0.4-0.2,0.6-0.2h11.8c0.2,0,0.5,0.1,0.6,0.2c0.2,0.2,0.2,0.4,0.2,0.6v0.1
	c0,0.2-0.1,0.5-0.2,0.6c-0.2,0.2-0.4,0.2-0.6,0.2h-10c-0.2,0-0.5,0.1-0.6,0.2c-0.2,0.2-0.2,0.4-0.2,0.6v29H3.4z M31.3,82.6
	c0-0.2,0-0.4-0.1-0.5s-0.2-0.2-0.3-0.2c-0.2,0-0.4,0.1-0.5,0.2c-2.7,1.8-5.1,3.5-7.4,4.8c-0.2,0.1-0.4,0.3-0.6,0.5
	c0,0.1,0,0.1-0.1,0.2c-0.1,0.2-0.2,0.3-0.4,0.3c-0.3,0-0.5-0.2-0.7-0.5l-1.1-2.5C20,84.7,20,84.6,20,84.4c0-0.3,0.2-0.5,0.6-0.6
	c2.9-0.9,6.2-2,10-3.3c0.4-0.1,0.7-0.5,0.7-1V70c0-0.2-0.1-0.5-0.2-0.6c-0.2-0.2-0.4-0.2-0.6-0.2h-2.8c-1.8,0-3.5,0.2-5.3,0.4h-0.2
	c-0.4,0-0.7-0.2-0.8-0.5l-0.2-0.4C21,68.5,21,68.4,21,68.2c0-0.2,0.1-0.3,0.2-0.4c0.2-0.1,0.4-0.1,0.6-0.1c0.9,0.1,2.3,0.1,4.1,0.2
	h4.6c0.2,0,0.5-0.1,0.6-0.2c0.2-0.2,0.2-0.4,0.2-0.6v-2c0-2.4-0.1-4.8-0.4-7.2v-0.2c0-0.3,0.2-0.6,0.5-0.6c0.1,0,0.1,0,0.2,0
	s0.2,0,0.3,0c0.9,0.2,1.8,0.5,2.7,0.9c0.5,0.2,0.8,0.4,0.8,0.6c0,0.1-0.1,0.3-0.4,0.4l-0.1,0.1c-0.4,0.2-0.6,0.6-0.6,1v21.7
	c0.1,2.9,0.1,5.8,0.3,8.8v0.2c0,0.3-0.1,0.6-0.3,0.8c-0.3,0.3-0.7,0.5-1.1,0.6c-0.4,0.2-0.9,0.3-1.3,0.3c-0.2,0-0.5-0.1-0.6-0.2
	c-0.2-0.1-0.2-0.3-0.2-0.6c0.2-2.2,0.3-4.4,0.3-6.6L31.3,82.6z M43.4,59.2c-0.2,0.2-0.4,0.6-0.3,0.9v11.3c0,0.2,0,0.4,0.1,0.5
	s0.2,0.2,0.3,0.2c0.2,0,0.4-0.1,0.6-0.3c0.7-0.7,1.5-1.5,2.3-2.4c1.6-1.7,3-3.6,4.2-5.6c0.1-0.3,0.3-0.5,0.6-0.5
	c0.2,0,0.4,0.1,0.6,0.2c2,1.5,3,2.4,3,2.7c0,0.1-0.1,0.2-0.4,0.2h-0.2c-0.4,0-0.8,0.1-1,0.4c-1.4,1.2-2.8,2.4-4.4,3.4
	c-1.7,1.2-3.4,2.2-5.2,3.2c-0.4,0.2-0.6,0.6-0.6,1v12.4c0,0.4,0.1,0.7,0.3,1c0.4,0.2,0.9,0.3,1.4,0.3h3.4c1.4,0,2.5,0,3.2-0.1
	c0.4,0,0.7-0.2,0.8-0.5c0.6-1.6,1-3.2,1.3-4.9c0.1-0.5,0.2-0.8,0.4-0.8c0.1,0,0.1,0.1,0.2,0.2c0.1,0.2,0.1,0.4,0.1,0.6l0.1,4.3
	c0,0.4,0.3,0.8,0.6,1c0.4,0.2,0.6,0.6,0.6,1.1s-0.2,1-0.6,1.2c-0.7,0.4-1.5,0.6-2.2,0.6C51.1,90.9,49.5,91,48,91h-3.8
	c-0.9,0-1.8-0.1-2.6-0.3c-0.6-0.2-1-0.6-1.3-1.1c-0.3-0.7-0.4-1.4-0.4-2.2V65c0-2.4-0.1-4.8-0.4-7.2v-0.2c0-0.4,0.2-0.6,0.6-0.6
	c0.1,0,0.3,0,0.4,0.1c0.9,0.2,1.8,0.6,2.7,0.9c0.5,0.2,0.8,0.4,0.8,0.6c0,0.1-0.1,0.3-0.3,0.4L43.4,59.2z M61.2,89.4
	c-0.1,0-0.2-0.1-0.2-0.1c0-0.1-0.1-0.3-0.1-0.4s0-0.3,0.1-0.4c0-0.1,0.1-0.1,0.2-0.1h0.6c3,0,4.6-0.9,4.6-2.7V67
	c0-0.6,0-1.3-0.3-1.8c-0.2-0.4-0.6-0.6-1.1-0.7c-1-0.1-1.9-0.2-2.9-0.1h-0.9c-0.2,0-0.3-0.2-0.3-0.6s0.1-0.6,0.3-0.6
	c2.8,0,5.6-0.9,7.9-2.6c0.1-0.1,0.3-0.2,0.5-0.2c0.1,0,0.3,0.1,0.3,0.2c0.1,0.2,0.1,0.3,0.1,0.5v24.4c0,1.8,1.5,2.7,4.6,2.7h0.6
	c0.1,0,0.2,0.1,0.2,0.1c0,0.1,0.1,0.3,0.1,0.4c0,0.4-0.1,0.6-0.3,0.6L61.2,89.4L61.2,89.4z M89.2,90c-1.6,0-3.2-0.6-4.5-1.7
	c-1.6-1.4-2.7-3.1-3.4-5.1c-0.9-2.7-1.4-5.5-1.3-8.3c-0.1-2.8,0.4-5.6,1.3-8.3c0.7-2,1.8-3.7,3.4-5.1c1.3-1.1,2.9-1.7,4.5-1.7
	s3.2,0.6,4.5,1.7c1.6,1.4,2.8,3.1,3.4,5.1c0.9,2.7,1.4,5.5,1.3,8.3c0.1,2.8-0.4,5.6-1.3,8.3c-0.7,2-1.9,3.7-3.4,5.1
	C92.4,89.3,90.8,89.9,89.2,90z M89.3,88.6c1.6,0,2.9-1.1,3.8-3.4s1.4-5.7,1.4-10.2c0-4.6-0.5-8-1.4-10.3c-0.9-2.3-2.2-3.4-3.8-3.4
	c-1.6,0-2.9,1.1-3.8,3.4s-1.4,5.7-1.4,10.3c0,4.6,0.5,8,1.4,10.2C86.4,87.4,87.6,88.6,89.3,88.6z M124.9,59.8c0.4,0,0.8-0.1,1-0.4
	l0.6-0.6c0.2-0.1,0.4-0.3,0.7-0.6c0.2-0.2,0.4-0.3,0.7-0.4c0.2,0,0.6,0.3,1.3,1c0.6,0.5,1.1,1.1,1.6,1.7c0.1,0.1,0.1,0.3,0.1,0.4
	c0,0.2-0.2,0.5-0.4,0.5c-0.2,0.1-0.3,0.1-0.5,0.1c-0.4,0-0.8,0.3-1,0.6c-1.5,2-3.2,3.9-5.1,5.5c-0.2,0.1-0.3,0.3-0.4,0.6
	c0,0.2,0.2,0.4,0.5,0.6c4.2,1.6,8.7,2.7,13.2,3.1c0.6,0,0.8,0.1,0.8,0.3c0,0.1-0.1,0.2-0.2,0.2c-0.1,0.1-0.3,0.2-0.5,0.2
	c-0.8,0.4-1.5,1.1-1.8,2c-0.1,0.5-0.6,0.7-1,0.6l0,0c-4.7-0.8-9.2-2.4-13.2-5c-0.2-0.1-0.4-0.2-0.6-0.2s-0.4,0.1-0.6,0.2
	c-5.1,2.9-10.7,4.9-16.5,5.7c-0.1,0-0.2,0-0.3,0c-0.3,0-0.5-0.1-0.5-0.2l0,0c0-0.2,0.3-0.3,0.8-0.5c5.1-1.3,9.9-3.5,14.3-6.5
	c0.2-0.1,0.4-0.4,0.4-0.6s-0.1-0.4-0.3-0.6c-1.2-1.2-2.2-2.5-3-3.9c-0.1-0.2-0.3-0.4-0.6-0.4c-0.2,0-0.4,0.1-0.6,0.2
	c-2.6,2.4-5.5,4.4-8.7,5.8c-0.2,0.1-0.4,0.2-0.6,0.2c-0.1,0-0.2,0-0.3-0.1v-0.1c0-0.2,0.2-0.4,0.6-0.6c2.5-1.7,4.8-3.9,6.6-6.3
	c0.8-1,1.5-2,2.1-3.1c0.6-1,1.1-2.1,1.5-3.3c0.1-0.3,0.4-0.6,0.7-0.6c0.1,0,0.3,0,0.4,0.1c2.6,0.9,3.8,1.5,3.8,1.8
	c0,0.1-0.1,0.1-0.4,0.2h-0.2c-0.4,0.1-0.7,0.3-1,0.6c-0.1,0.2-0.3,0.4-0.4,0.6c-0.1,0.2-0.2,0.4-0.2,0.6c0,0.1,0.1,0.3,0.2,0.3
	c0.2,0.1,0.3,0.1,0.5,0.1h6.5L124.9,59.8L124.9,59.8z M124.6,62c0.1-0.1,0.2-0.3,0.2-0.5c0-0.3-0.2-0.5-0.7-0.5h-7.2
	c-0.4,0-0.8,0.2-1,0.5l-0.2,0.2c-0.2,0.2-0.3,0.4-0.3,0.6c0,0.2,0.1,0.4,0.2,0.6c1.2,1.4,2.5,2.6,4,3.6c0.2,0.1,0.4,0.2,0.6,0.2
	s0.5-0.1,0.6-0.3C122.2,65,123.5,63.6,124.6,62z M131.5,78.8c0.4,0,0.8-0.2,1-0.5l0.6-0.8c0.1-0.2,0.3-0.4,0.5-0.7
	c0.1-0.2,0.3-0.4,0.4-0.6c0.1-0.1,0.2-0.2,0.3-0.2c0.6,0.2,1.1,0.6,1.6,1.1c0.7,0.5,1.3,1.1,1.9,1.8c0.1,0.1,0.2,0.3,0.2,0.4
	c0,0.2-0.1,0.4-0.2,0.5c-0.2,0.1-0.4,0.2-0.7,0.2h-12.6c-0.5,0-0.8,0.2-0.8,0.5c0,0.2,0.1,0.4,0.3,0.5c1.8,1.8,3.9,3.2,6.2,4.3
	c2.4,1.2,4.9,2.1,7.5,2.7c0.5,0.1,0.8,0.3,0.8,0.4s-0.1,0.2-0.3,0.3s-0.3,0.1-0.4,0.2c-0.8,0.4-1.4,1.1-1.8,2
	c-0.2,0.4-0.4,0.6-0.7,0.6c-0.1,0-0.3,0-0.4-0.1c-2.6-1-5.1-2.5-7.3-4.3c-2.1-1.8-3.9-4-5.3-6.4c-0.1-0.2-0.2-0.4-0.4-0.6h-0.1V84
	c0.1,3.1,0.2,5.5,0.2,7l0,0c0,0.3-0.1,0.6-0.4,0.8c-0.3,0.2-0.7,0.4-1.1,0.5s-0.9,0.2-1.4,0.2c-0.2,0-0.5-0.1-0.6-0.2
	c-0.2-0.1-0.2-0.3-0.2-0.6c0.2-2.2,0.3-4.4,0.3-6.6V83c0-0.5-0.1-0.7-0.4-0.7c-0.2,0-0.4,0.1-0.6,0.3c-4,4.1-8.9,7.1-14.4,8.9
	c-0.2,0.1-0.4,0.1-0.6,0.1s-0.3-0.1-0.3-0.2v-0.1c0-0.2,0.2-0.4,0.6-0.6c2.3-1.2,4.5-2.7,6.5-4.4c1.9-1.6,3.7-3.4,5.2-5.4
	c0.1-0.1,0.2-0.3,0.2-0.5s-0.1-0.3-0.2-0.4c-0.2-0.1-0.3-0.1-0.5-0.1h-4.8c-1.8,0-3.5,0.2-5.3,0.4h-0.2c-0.4,0-0.7-0.2-0.8-0.5
	l-0.2-0.3c-0.1-0.2-0.1-0.3-0.2-0.5c0-0.2,0.1-0.3,0.2-0.4c0.2-0.1,0.4-0.1,0.6-0.1c0.9,0.1,2.3,0.1,4.1,0.2h10.2
	c0.4,0.1,0.8-0.2,0.8-0.6c0-0.1,0-0.1,0-0.2c0-1.2-0.1-2.4-0.2-3.6v-0.1c0-0.5,0.2-0.7,0.6-0.7c0.1,0,0.2,0,0.3,0
	c0.9,0.2,1.8,0.6,2.7,0.9c0.5,0.2,0.8,0.4,0.8,0.6c0,0.1-0.1,0.3-0.4,0.4l-0.1,0.1c-0.4,0.2-0.6,0.6-0.6,1v1.4
	c0,0.2,0.1,0.5,0.2,0.6c0.2,0.2,0.4,0.2,0.6,0.2L131.5,78.8z M168.2,66.4c0.4,0,0.8-0.2,1-0.6l0.4-0.5c0.1-0.1,0.2-0.3,0.3-0.4
	c0.1-0.2,0.2-0.3,0.3-0.4s0.2-0.2,0.3-0.2c0.5,0.2,1,0.5,1.4,0.9c0.6,0.5,1.2,1,1.7,1.6c0.1,0.1,0.2,0.3,0.2,0.4
	c0,0.2-0.2,0.5-0.4,0.6c0,0-0.1,0.1-0.2,0.1L173,68c-0.2,0.1-0.4,0.2-0.5,0.4c-0.1,0.2-0.2,0.4-0.2,0.6v3c0.1,3.2,0.2,5.5,0.2,7v0.2
	c0,0.3-0.1,0.6-0.4,0.8c-0.4,0.2-0.8,0.4-1.2,0.6s-0.8,0.2-1.3,0.3c-0.1,0-0.3-0.1-0.3-0.2c-0.1-0.2-0.2-0.4-0.1-0.6v-0.3
	c0-0.2-0.1-0.5-0.2-0.6c-0.2-0.2-0.4-0.2-0.6-0.2h-4.5c-0.5,0-0.7,0.2-0.7,0.5c0,0.2,0.1,0.4,0.2,0.6c1.9,1.9,4,3.6,6.4,4.9
	c2.5,1.4,5.1,2.5,7.8,3.3c0.6,0.1,0.8,0.3,0.8,0.4s-0.1,0.2-0.3,0.3c-0.2,0.1-0.3,0.1-0.4,0.2c-0.8,0.4-1.4,1-1.7,1.8
	c-0.1,0.3-0.4,0.5-0.7,0.6c-0.1,0-0.3,0-0.4-0.1c-2.5-1.1-4.8-2.6-6.8-4.3c-2.1-1.7-3.8-3.8-5.3-6.1c-0.2-0.3-0.4-0.4-0.6-0.4
	c-0.3,0-0.4,0.2-0.4,0.7v2.2c0.1,3.3,0.2,5.8,0.2,7.5V91c0,0.3-0.1,0.6-0.3,0.8c-0.3,0.3-0.7,0.5-1.1,0.7c-0.4,0.2-0.9,0.3-1.4,0.3
	c-0.2,0-0.5-0.1-0.7-0.2s-0.2-0.3-0.2-0.6c0.2-2.1,0.3-4.2,0.3-6.4v-2.2c0-0.2,0-0.4-0.1-0.5s-0.2-0.2-0.3-0.2
	c-0.2,0-0.4,0.1-0.6,0.3c-1.9,1.9-4,3.5-6.3,4.9c-2.4,1.5-5,2.7-7.7,3.7c-0.2,0.1-0.4,0.1-0.6,0.1c-0.1,0-0.2,0-0.3-0.1v-0.1
	c0-0.2,0.2-0.4,0.6-0.6c2.5-1.4,4.9-3,7.1-4.9c2.1-1.8,4-3.8,5.6-6c0.1-0.1,0.2-0.3,0.2-0.5c0-0.1-0.1-0.3-0.2-0.3
	c-0.2-0.1-0.3-0.1-0.5-0.1h-3.4c-0.2,0-0.5,0.1-0.6,0.2c-0.2,0.2-0.2,0.4-0.2,0.6v0.4c0,0.2-0.3,0.4-0.9,0.7
	c-0.5,0.3-1.1,0.4-1.7,0.4c-0.2,0-0.4-0.1-0.5-0.2c-0.1-0.2-0.2-0.4-0.2-0.6c0.1-1.2,0.2-2.8,0.2-4.7v-2.8c0-2.4-0.1-4.7-0.4-7v-0.2
	c0-0.4,0.2-0.6,0.5-0.6c0.1,0,0.3,0,0.4,0.1l2.3,1c0.3,0.1,0.7,0.2,1,0.2h5.6c0.2,0,0.5-0.1,0.6-0.2c0.2-0.2,0.2-0.4,0.2-0.6v-2.4
	c0-0.2-0.1-0.5-0.2-0.6c-0.2-0.2-0.4-0.2-0.6-0.2h-7.7c-1.8,0-3.5,0.2-5.3,0.4h-0.2c-0.4,0-0.7-0.2-0.8-0.5l-0.2-0.4
	c-0.1-0.1-0.1-0.3-0.1-0.4c0-0.4,0.3-0.6,0.8-0.5c0.9,0.1,2.3,0.1,4.1,0.2h9.4c0.4,0.1,0.8-0.2,0.8-0.6c0-0.1,0-0.1,0-0.2
	c-0.1-1.4-0.1-2.6-0.2-3.8v-0.1c0-0.5,0.2-0.7,0.6-0.7l0.4,0.1c0.9,0.2,1.8,0.5,2.7,0.9c0.5,0.2,0.8,0.4,0.8,0.6
	c0,0.1-0.1,0.3-0.4,0.4l-0.1,0.1c-0.4,0.2-0.6,0.6-0.6,1v1.5c0,0.2,0.1,0.5,0.2,0.6c0.2,0.2,0.4,0.2,0.6,0.2h7.8
	c0.4,0,0.8-0.2,1-0.5l0.7-0.9c0.1-0.2,0.3-0.4,0.5-0.6c0.2-0.3,0.4-0.5,0.5-0.6s0.2-0.2,0.3-0.2c0.6,0.3,1.2,0.6,1.7,1.1
	c0.7,0.6,1.4,1.2,2,1.8c0.1,0.1,0.2,0.3,0.2,0.5s-0.1,0.3-0.2,0.4c-0.2,0.1-0.5,0.2-0.8,0.2h-13.6c-0.2,0-0.5,0.1-0.6,0.2
	c-0.2,0.2-0.2,0.4-0.2,0.6v2.4c0,0.2,0.1,0.5,0.2,0.6c0.2,0.2,0.4,0.2,0.6,0.2h5.7L168.2,66.4L168.2,66.4z M157.8,72
	c0.2,0,0.5-0.1,0.6-0.2c0.2-0.2,0.2-0.4,0.2-0.6v-2.7c0-0.2-0.1-0.5-0.2-0.6c-0.2-0.2-0.4-0.2-0.6-0.2h-5.6c-0.2,0-0.5,0.1-0.6,0.2
	c-0.2,0.2-0.2,0.4-0.2,0.6v2.7c0,0.2,0.1,0.5,0.2,0.6c0.2,0.2,0.4,0.2,0.6,0.2H157.8z M168.4,72c0.2,0,0.5-0.1,0.6-0.2
	c0.2-0.2,0.2-0.4,0.2-0.6v-2.7c0-0.2-0.1-0.5-0.2-0.6c-0.2-0.2-0.4-0.2-0.6-0.2h-5.8c-0.2,0-0.5,0.1-0.6,0.2
	c-0.2,0.2-0.2,0.4-0.2,0.6v2.7c0,0.2,0.1,0.5,0.2,0.6c0.2,0.2,0.4,0.2,0.6,0.2H168.4z M158.6,74c0-0.2-0.1-0.5-0.2-0.6
	c-0.2-0.2-0.4-0.2-0.6-0.2h-5.6c-0.2,0-0.5,0.1-0.6,0.2c-0.2,0.2-0.2,0.4-0.2,0.6v2.9c0,0.2,0.1,0.5,0.2,0.6
	c0.2,0.2,0.4,0.2,0.6,0.2h5.6c0.2,0,0.5-0.1,0.6-0.2c0.2-0.2,0.2-0.4,0.2-0.6V74z M162.6,73.1c-0.2,0-0.5,0.1-0.6,0.2
	c-0.2,0.2-0.2,0.4-0.2,0.6v2.9c0,0.2,0.1,0.5,0.2,0.6c0.2,0.2,0.4,0.2,0.6,0.2h5.8c0.2,0,0.5-0.1,0.6-0.2c0.2-0.2,0.2-0.4,0.2-0.6
	V74c0-0.2-0.1-0.5-0.2-0.6c-0.2-0.2-0.4-0.2-0.6-0.2h-5.8V73.1z M183.9,89.4c-0.1,0-0.2-0.1-0.2-0.1c0-0.1-0.1-0.3-0.1-0.4
	s0-0.3,0.1-0.4c0-0.1,0.1-0.1,0.2-0.1h0.6c3,0,4.6-0.9,4.6-2.7V67c0-0.6,0-1.3-0.3-1.8c-0.2-0.4-0.6-0.6-1.1-0.7
	c-1-0.1-1.9-0.2-2.9-0.1H184c-0.2,0-0.3-0.2-0.3-0.6s0.1-0.6,0.3-0.6c2.8,0,5.6-0.9,7.9-2.6c0.1-0.1,0.3-0.2,0.5-0.2
	c0.1,0,0.3,0.1,0.3,0.2c0.1,0.2,0.1,0.3,0.1,0.5v24.4c0,1.8,1.5,2.7,4.6,2.7h0.6c0.1,0,0.2,0.1,0.2,0.1c0,0.1,0.1,0.3,0.1,0.4
	c0,0.4-0.1,0.6-0.3,0.6L183.9,89.4L183.9,89.4z M219.6,62.3c0-0.2-0.1-0.5-0.2-0.6c-0.2-0.2-0.4-0.2-0.6-0.2h-8.4
	c-1.8,0-3.5,0.2-5.3,0.4h-0.2c-0.4,0-0.7-0.2-0.8-0.5l-0.2-0.4c-0.1-0.1-0.1-0.3-0.1-0.5c0-0.4,0.3-0.5,0.8-0.5
	c0.9,0.1,2.3,0.1,4.2,0.2h22.6c0.4,0,0.8-0.2,1-0.5l0.7-1c0.1-0.1,0.3-0.3,0.5-0.6c0.2-0.2,0.3-0.4,0.5-0.7c0.1-0.1,0.2-0.2,0.4-0.2
	c0.7,0.3,1.2,0.7,1.7,1.2c0.7,0.6,1.4,1.2,2.1,1.9c0.1,0.1,0.2,0.3,0.2,0.4c0,0.2-0.1,0.3-0.2,0.4c-0.2,0.1-0.5,0.2-0.8,0.2h-13.6
	c-0.2,0-0.5,0.1-0.6,0.2c-0.2,0.2-0.2,0.4-0.2,0.6v25.5c0,0.8-0.1,1.5-0.3,2.2c-0.2,0.6-0.7,1.2-1.3,1.5c-0.9,0.5-1.9,0.8-2.9,0.9
	h-0.2c-0.2,0-0.4,0-0.5-0.2s-0.2-0.3-0.3-0.5c-0.1-0.6-0.5-1.2-1-1.6c-1.1-0.6-2.4-1-3.7-1.2c-0.5-0.1-0.8-0.2-0.8-0.4
	c0-0.2,0.3-0.2,0.9-0.2c2.9,0.2,4.8,0.3,5.8,0.3c0.3,0,0.6,0,0.8-0.2s0.2-0.5,0.2-0.7L219.6,62.3z M253.1,89.2c-0.2,0-0.4,0-0.6,0.1
	c-0.1,0.1-0.2,0.2-0.2,0.3v0.7v0.3V91c0,0.2-0.1,0.4-0.2,0.6c-0.3,0.3-0.7,0.6-1.1,0.7c-0.5,0.2-0.9,0.3-1.4,0.3
	c-0.3,0-0.5-0.1-0.7-0.2s-0.3-0.3-0.3-0.6c0.1-1.6,0.2-3.1,0.3-4.6s0.1-3.4,0.2-5.8v-16c0-2.4-0.1-4.7-0.4-7v-0.2
	c0-0.4,0.2-0.6,0.5-0.6c0.1,0,0.3,0,0.4,0.1l2.4,1.1c0.3,0.1,0.7,0.2,1,0.2h15.7c0.4,0,0.8-0.2,1-0.5l0.4-0.5
	c0.1-0.1,0.2-0.3,0.3-0.4c0.1-0.2,0.2-0.3,0.4-0.4c0.1-0.1,0.2-0.2,0.4-0.2c0.6,0.2,1.1,0.5,1.5,0.9c0.7,0.5,1.2,1,1.8,1.6
	c0.1,0.1,0.2,0.3,0.2,0.4c0,0.2-0.1,0.4-0.3,0.5c-0.2,0.1-0.4,0.2-0.6,0.3c-0.4,0.1-0.7,0.5-0.7,0.9v20.1c0.1,2.9,0.1,5.8,0.3,8.8
	v0.2c0,0.3-0.1,0.6-0.4,0.8c-0.4,0.3-0.8,0.5-1.3,0.7c-0.4,0.2-0.9,0.3-1.3,0.3h-0.2c-0.3-0.1-0.5-0.3-0.5-0.8
	c0-0.2,0.1-0.3,0.1-0.5l0.1-0.8V90c0-0.2-0.1-0.5-0.2-0.6c-0.2-0.2-0.4-0.2-0.6-0.2C269.1,89.2,253.1,89.2,253.1,89.2z M269,68.4
	c0.2,0,0.5-0.1,0.6-0.2c0.2-0.2,0.2-0.4,0.2-0.6v-6.7c0-0.2-0.1-0.5-0.2-0.6c-0.2-0.2-0.4-0.2-0.6-0.2h-15.9c-0.2,0-0.5,0.1-0.6,0.2
	c-0.2,0.2-0.2,0.4-0.2,0.6v6.7c0,0.2,0.1,0.5,0.2,0.6c0.2,0.2,0.4,0.2,0.6,0.2H269z M269,78.2c0.2,0,0.5-0.1,0.6-0.2
	c0.2-0.2,0.2-0.4,0.2-0.6v-6.8c0-0.2-0.1-0.5-0.2-0.6c-0.2-0.2-0.4-0.2-0.6-0.2h-15.9c-0.2,0-0.5,0.1-0.6,0.2
	c-0.2,0.2-0.2,0.4-0.2,0.6v6.8c0,0.2,0.1,0.5,0.2,0.6c0.2,0.2,0.4,0.2,0.6,0.2H269z M253.1,79.3c-0.2,0-0.5,0.1-0.6,0.2
	c-0.2,0.2-0.2,0.4-0.2,0.6v7c0,0.2,0.1,0.5,0.2,0.6c0.2,0.2,0.4,0.2,0.6,0.2H269c0.2,0,0.5-0.1,0.6-0.2c0.2-0.2,0.2-0.4,0.2-0.6v-7
	c0-0.2-0.1-0.5-0.2-0.6c-0.2-0.2-0.4-0.2-0.6-0.2H253.1z M295.2,61.4c0-0.2,0.1-0.5,0.2-0.6c0.2-0.2,0.4-0.2,0.6-0.2h0.1
	c0.2,0,0.5,0.1,0.6,0.2c0.2,0.2,0.2,0.4,0.2,0.6v30.7c0,0.2-0.1,0.5-0.2,0.6c-0.2,0.2-0.4,0.2-0.6,0.2h-11.8c-0.2,0-0.5-0.1-0.6-0.2
	c-0.2-0.2-0.2-0.4-0.2-0.6V92c0-0.2,0.1-0.5,0.2-0.6c0.2-0.2,0.4-0.2,0.6-0.2h10c0.2,0,0.5-0.1,0.6-0.2c0.2-0.2,0.2-0.4,0.2-0.6
	L295.2,61.4z M358,66.1c-0.3,0-0.6-0.1-0.8-0.3c-0.3-0.2-0.6-0.5-0.8-0.8c-0.4-0.6-0.9-1.2-1.4-1.8c-0.5-0.5-1-0.9-1.6-1.2
	c-0.2-0.1-0.4-0.2-0.6-0.3s-0.3-0.2-0.5-0.3c-0.1-0.1-0.2-0.2-0.2-0.3c0-0.2,0.4-0.3,1.1-0.3c0.8,0,1.6,0.2,2.4,0.4
	c0.9,0.2,1.8,0.6,2.5,1.2c0.7,0.5,1.1,1.3,1.1,2.2c0,0.4-0.1,0.8-0.4,1.1C358.7,66,358.4,66.1,358,66.1z M354.1,70
	c-0.7,0-1.4-0.4-1.7-1.1c-0.3-0.7-0.7-1.4-1.2-2s-1.1-1.1-1.8-1.5c-0.1-0.1-0.3-0.2-0.5-0.3c-0.1-0.1-0.3-0.2-0.4-0.3
	c-0.1-0.1-0.1-0.1-0.1-0.2c0-0.2,0.2-0.2,0.6-0.2c0.8,0,1.6,0.2,2.4,0.4c1,0.3,2,0.7,2.9,1.3c0.8,0.5,1.3,1.4,1.3,2.4
	c0,0.4-0.1,0.9-0.5,1.1C354.8,69.8,354.4,70,354.1,70L354.1,70z M354.5,81.7c-0.4,0-0.7-0.2-1-0.5c-0.3-0.5-0.6-1-0.8-1.5
	c-1.7-4.4-4.7-8.3-8.6-11.1c-0.2-0.2-0.4-0.3-0.4-0.4s0.1-0.2,0.2-0.2c0.2,0,0.3,0,0.4,0.1c1.9,0.7,3.6,1.7,5.3,2.8
	c1.8,1.2,3.4,2.5,4.9,4.1c1.3,1.5,2,2.7,2,3.8c0,0.7-0.2,1.5-0.7,2C355.7,81.4,355.1,81.7,354.5,81.7z M321.6,83.9
	c-0.2,0-0.3-0.1-0.3-0.2c0-0.2,0.2-0.4,0.6-0.7c2.2-1.3,4.3-2.8,6.2-4.5c1.6-1.4,3.1-3,4.3-4.7c0.8-0.9,1.4-2,1.6-3.3
	c0-0.5-0.3-0.9-0.9-1.2c-0.1-0.1-0.3-0.1-0.4-0.2s-0.3-0.1-0.4-0.2c-0.1,0-0.1-0.1-0.1-0.2c0-0.4,0.8-0.6,2.3-0.6
	c1.1,0,2.1,0.3,2.9,0.9c0.8,0.5,1.3,1.3,1.4,2.2c-0.1,0.5-0.3,1-0.7,1.4c-2,2.4-4.3,4.5-6.9,6.2c-2.8,2-5.8,3.6-9,4.8
	C322,83.8,321.8,83.9,321.6,83.9L321.6,83.9z M383.6,74.7c-0.1,0.1-0.2,0.3-0.2,0.5s0.2,0.5,0.5,0.6c2.4,1,4.7,2.4,6.8,4
	c2,1.5,3,3.1,3,4.6c0,0.5-0.2,1.1-0.5,1.5s-0.7,0.6-1.2,0.6s-0.9-0.2-1.3-0.5c-0.5-0.4-0.8-0.9-1.1-1.5c-0.8-1.6-1.8-3.2-2.9-4.6
	c-1-1.3-2.2-2.4-3.6-3.4c-0.1-0.1-0.3-0.2-0.5-0.2s-0.5,0.1-0.6,0.3c-4.6,5.2-10.4,9.3-16.8,12c-0.1,0-0.2,0.1-0.4,0.1
	c-0.2,0-0.2-0.1-0.2-0.2s0.1-0.3,0.4-0.4c3-1.7,5.8-3.7,8.3-6.1c2.6-2.4,5-5,7.1-7.8c1.6-2.1,3-4.3,4.2-6.7c0.1-0.2,0.2-0.4,0.2-0.7
	c0-0.1,0-0.1,0-0.2s-0.1-0.2-0.4-0.2c-1.4,0.2-2.8,0.5-4.2,0.9c-1.6,0.4-3.2,0.9-4.8,1.5l-0.7,0.3c-0.3,0.1-0.5,0.2-0.8,0.2
	c-0.7,0-1.4-0.3-1.9-0.7c-0.6-0.5-1.1-1-1.5-1.7c-0.3-0.5-0.5-1-0.5-1.6c0-0.4,0.1-0.6,0.3-0.6c0.2,0.1,0.3,0.1,0.5,0.3
	c0.2,0.2,0.5,0.4,0.8,0.5c0.6,0.2,1.2,0.3,1.8,0.3c0.6,0,2.3-0.2,5.2-0.7s4.8-0.8,5.5-1c0.5-0.2,0.9-0.4,1.4-0.6
	c0.3-0.2,0.6-0.3,0.9-0.4c0.5,0.1,1,0.3,1.4,0.6c0.6,0.4,1.1,0.8,1.6,1.3c0.4,0.3,0.6,0.8,0.7,1.3c0,0.2-0.1,0.4-0.3,0.5
	c-0.2,0.2-0.5,0.4-0.8,0.6c-0.2,0.2-0.4,0.3-0.7,0.5c-0.2,0.2-0.4,0.3-0.5,0.6C386.6,70.7,385.2,72.7,383.6,74.7L383.6,74.7z
	 M407.8,72.6c0-0.2,0-0.4-0.1-0.6c-0.1-0.1-0.2-0.2-0.3-0.2c-0.2,0-0.5,0.2-0.6,0.4c-0.9,1.2-1.9,2.4-2.9,3.4
	c-0.3,0.4-0.6,0.5-0.8,0.4c-0.1-0.1-0.1-0.1-0.1-0.2c0-0.2,0.1-0.4,0.3-0.6c2.2-3.5,4-7.2,5.4-11.1c0.4-1.1,0.8-2.4,1.2-3.9
	c0.3-1.3,0.6-2.5,0.8-3.8c0.1-0.5,0.3-0.7,0.6-0.7c0.1,0,0.3,0,0.4,0.1c2.5,0.8,3.7,1.4,3.7,1.7c0,0.1-0.1,0.2-0.4,0.3h-0.2
	c-0.4,0.1-0.7,0.5-0.8,0.8c-0.9,2.4-2,4.8-3.2,7.1c-0.1,0.2-0.2,0.4-0.2,0.6s0.1,0.4,0.3,0.4c0.3,0.1,0.5,0.3,0.7,0.5
	c0.1,0.1,0.1,0.3,0,0.4c0,0-0.1,0-0.1,0.1c-0.5,0.3-0.7,0.6-0.7,0.9V82c0.1,2.9,0.1,5.8,0.3,8.8V91c0,0.3-0.1,0.6-0.4,0.8
	c-0.3,0.3-0.7,0.5-1.1,0.6c-0.4,0.2-0.8,0.2-1.3,0.2c-0.3,0-0.5-0.1-0.7-0.2s-0.3-0.3-0.3-0.6c0.1-1.6,0.2-3.1,0.3-4.6
	c0.1-1.5,0.1-3.4,0.2-5.8L407.8,72.6z M432.4,60.6c0.4,0,0.8-0.2,1-0.5l0.5-0.8c0.1-0.1,0.2-0.3,0.4-0.6c0.1-0.2,0.3-0.4,0.4-0.6
	c0.1-0.1,0.2-0.2,0.3-0.2c0.6,0.2,1.1,0.5,1.5,1c0.6,0.5,1.2,1,1.7,1.7c0.1,0.1,0.2,0.3,0.2,0.5s-0.1,0.3-0.2,0.4
	c-0.2,0.1-0.5,0.2-0.7,0.2h-16.7c-1.8,0-3.5,0.2-5.3,0.4h-0.2c-0.4,0-0.7-0.2-0.8-0.5l-0.2-0.3c-0.1-0.1-0.1-0.3-0.1-0.5
	s0.1-0.3,0.2-0.4c0.2-0.1,0.4-0.1,0.6-0.1c0.9,0.1,2.3,0.1,4.1,0.2h4.2c0.4,0.1,0.8-0.2,0.8-0.6c0-0.1,0-0.1,0-0.2
	c-0.1-1.5-0.1-2.5-0.2-3.1v-0.1c0-0.5,0.2-0.7,0.6-0.7c0.1,0,0.2,0,0.3,0c0.9,0.2,1.7,0.5,2.5,0.8c0.5,0.2,0.7,0.4,0.7,0.6
	c0,0.1-0.1,0.2-0.3,0.4h-0.1c-0.4,0.2-0.6,0.6-0.6,1v1.1c0,0.2,0.1,0.5,0.2,0.6c0.2,0.2,0.4,0.2,0.6,0.2L432.4,60.6L432.4,60.6z
	 M430.6,64.6c0.4,0,0.8-0.2,1-0.5l0.3-0.4c0.1-0.1,0.2-0.3,0.3-0.4c0.1-0.1,0.2-0.3,0.4-0.4c0.1-0.1,0.2-0.1,0.3-0.1
	c0.5,0.2,0.9,0.4,1.3,0.8c0.6,0.4,1.1,0.9,1.5,1.4c0.1,0.1,0.2,0.3,0.2,0.4c0,0.2-0.1,0.4-0.3,0.5l-0.2,0.1c-0.4,0.1-0.7,0.5-0.7,1
	v1l0.1,2.6v0.2c0,0.3-0.1,0.6-0.4,0.8c-0.3,0.2-0.7,0.4-1.1,0.5s-0.8,0.2-1.2,0.2c-0.1,0-0.3-0.1-0.3-0.2c-0.1-0.1-0.1-0.3-0.1-0.5
	s-0.1-0.3-0.2-0.4c-0.2-0.1-0.4-0.2-0.6-0.2h-9.6c-0.2,0-0.5,0.1-0.6,0.2c-0.2,0.2-0.2,0.4-0.2,0.6s-0.3,0.4-0.9,0.6
	s-1.2,0.4-1.8,0.4c-0.2,0-0.3-0.1-0.4-0.2c-0.1-0.2-0.2-0.4-0.2-0.6c0.1-0.3,0.1-1.1,0.2-2.4V68c0-1.5-0.1-2.8-0.2-3.9V64
	c0-0.4,0.2-0.6,0.5-0.6c0.1,0,0.3,0,0.4,0.1l2,0.9c0.3,0.1,0.7,0.2,1,0.2H430.6z M421.1,65.8c-0.2,0-0.5,0.1-0.6,0.2
	c-0.2,0.2-0.2,0.4-0.2,0.6v2.5c0,0.2,0.1,0.5,0.2,0.6c0.2,0.2,0.4,0.2,0.6,0.2h9.6c0.2,0,0.5-0.1,0.6-0.2c0.2-0.2,0.2-0.4,0.2-0.6
	v-2.5c0-0.2-0.1-0.5-0.2-0.6c-0.2-0.2-0.4-0.2-0.6-0.2H421.1z M434.6,76.2c0-0.5-0.3-0.7-0.8-0.7h-17c-0.5,0-0.8,0.3-0.8,0.8
	c-0.1,0.9-0.4,1.8-1,2.5c-0.4,0.3-0.8,0.5-1.3,0.4c-0.3,0-0.6-0.1-0.8-0.2c-0.2-0.1-0.4-0.3-0.5-0.6c-0.1-0.2-0.2-0.4-0.2-0.7
	c0-0.3,0.1-0.7,0.3-1c0.2-0.3,0.5-0.6,0.8-0.8c0.4-0.3,0.7-0.7,0.9-1.1c0.3-0.4,0.5-0.9,0.7-1.4c0-0.2,0.1-0.4,0.2-0.6
	c0.1-0.1,0.2-0.2,0.2-0.2c0.2,0.1,0.3,0.3,0.4,0.8v0.1c0,0.5,0.4,0.8,0.9,0.8l0,0H434c0.4,0,0.8-0.2,1-0.5l0.4-0.4
	c0.1-0.1,0.2-0.3,0.5-0.5c0.2-0.3,0.4-0.4,0.6-0.4s0.6,0.3,1.2,0.9c0.5,0.5,1,1,1.4,1.6c0.1,0.1,0.2,0.3,0.2,0.4
	c0,0.3-0.2,0.5-0.4,0.5h-0.2c-0.4,0-0.7,0.2-1,0.4c-0.4,0.3-1,0.8-2,1.4c-0.2,0.1-0.4,0.4-0.4,0.6s0.1,0.4,0.3,0.6l0.3,0.2
	c0.2,0.2,0.4,0.4,0.4,0.7c0,0.1-0.1,0.3-0.2,0.4c-0.2,0.1-0.4,0.1-0.6,0.1h-7c-0.2,0-0.5,0.1-0.6,0.2c-0.2,0.2-0.2,0.4-0.2,0.6v7
	c0.1,1-0.2,2.1-0.8,2.9c-0.8,0.8-1.9,1.3-3,1.4h-0.2c-0.4,0-0.6-0.3-0.7-0.8c-0.1-0.6-0.3-1.1-0.7-1.5c-0.8-0.6-1.7-0.9-2.7-1.1
	c-0.5-0.1-0.8-0.2-0.8-0.4c0-0.2,0.3-0.2,0.9-0.2c0.2,0,0.6,0,1,0.1c1.7,0.1,2.7,0.2,3.1,0.2c0.2,0,0.5,0,0.7-0.2
	c0.1-0.2,0.2-0.4,0.2-0.6V81c0-0.2-0.1-0.5-0.2-0.6c-0.2-0.2-0.4-0.2-0.6-0.2h-2c-1.6,0-3.1,0.2-4.6,0.4h-0.2
	c-0.4,0-0.7-0.2-0.8-0.6l-0.2-0.3c-0.1-0.1-0.1-0.3-0.1-0.4c0-0.4,0.3-0.6,0.8-0.5c0.9,0.1,2.3,0.1,4.1,0.2h10c0.4,0,0.8-0.2,1-0.5
	l0.9-1.1c0.1-0.2,0.4-0.4,0.6-0.4s0.3,0.1,0.5,0.2c0.1,0.1,0.2,0.1,0.3,0.1c0.2,0,0.4-0.2,0.5-0.7l0.1-0.5L434.6,76.2z M478.1,93.8
	c-0.2,0-0.3-0.1-0.4-0.2c-1.3-0.9-2.4-2-3.5-3.2c-1.6-1.9-3-4.1-4-6.4c-1.3-3.1-2-6.4-1.9-9.7c-0.1-3.3,0.6-6.7,1.9-9.7
	c1-2.3,2.3-4.5,4-6.4c1-1.2,2.2-2.3,3.5-3.2c0.1-0.1,0.3-0.2,0.4-0.2s0.2,0,0.2,0.1c0.1,0,0.1,0.1,0.1,0.2c0,0.2-0.1,0.4-0.3,0.5
	c-1.1,1.2-2.1,2.4-3,3.7c-1.2,1.9-2.1,3.9-2.8,6c-0.9,2.9-1.4,6-1.3,9.1c-0.1,3.1,0.4,6.1,1.3,9.1c0.6,2.1,1.6,4.1,2.8,6
	c0.9,1.3,1.9,2.6,3,3.7c0.1,0.1,0.2,0.3,0.3,0.5c0,0.1,0,0.2-0.1,0.2C478.2,93.7,478.2,93.8,478.1,93.8z M490.6,76.1
	c0-0.5-0.1-0.7-0.4-0.7c-0.2,0-0.4,0.2-0.6,0.5c-1.6,2.8-3.5,5.4-5.8,7.7c-0.4,0.4-0.7,0.5-0.8,0.3c-0.1-0.1-0.1-0.1-0.1-0.2
	c0-0.3,0.2-0.5,0.3-0.7c1.6-2.2,2.9-4.6,3.9-7.2c1.1-2.8,2-5.6,2.7-8.5v-0.2c0-0.2-0.1-0.4-0.2-0.5c-0.2-0.1-0.4-0.2-0.6-0.2h-1.1
	c-1,0-2,0.2-3,0.4h-0.2c-0.4,0-0.7-0.2-0.8-0.6l-0.2-0.3c-0.1-0.1-0.1-0.3-0.1-0.4c0-0.2,0.1-0.3,0.2-0.4c0.2-0.1,0.4-0.2,0.6-0.1
	c0.9,0.1,2.2,0.1,3.9,0.2h1.6c0.2,0,0.5-0.1,0.6-0.2c0.2-0.2,0.2-0.4,0.2-0.6v-0.6c0-2.4-0.1-4.8-0.4-7.2v-0.2
	c0-0.3,0.2-0.6,0.5-0.6c0.1,0,0.1,0,0.2,0s0.2,0,0.3,0c0.9,0.2,1.8,0.5,2.7,0.9c0.5,0.2,0.8,0.4,0.8,0.6c0,0.1-0.1,0.3-0.4,0.4
	l-0.2,0.1c-0.3,0.2-0.5,0.6-0.5,1v5.5c0,0.2,0.1,0.5,0.2,0.6c0.2,0.2,0.4,0.2,0.6,0.2h0.4c0.4,0,0.8-0.2,1-0.5l0.5-0.7
	c0.1-0.1,0.2-0.3,0.4-0.6s0.3-0.4,0.4-0.5s0.2-0.2,0.3-0.2c0.2,0,0.6,0.3,1.4,1c0.6,0.5,1.1,1,1.6,1.6c0.1,0.1,0.2,0.3,0.2,0.4
	c0,0.2-0.1,0.3-0.2,0.4c-0.2,0.1-0.5,0.2-0.8,0.2h-5.3c-0.2,0-0.5,0.1-0.6,0.2c-0.2,0.2-0.2,0.4-0.2,0.6v2.1c0,0.4,0.3,0.8,0.7,1
	c1.6,0.6,3.1,1.5,4.3,2.8c0.8,0.8,1.3,1.8,1.3,3c0,0.5-0.1,1-0.4,1.4c-0.3,0.3-0.7,0.5-1.1,0.5c-0.3,0-0.5-0.1-0.8-0.2
	c-0.3-0.2-0.6-0.5-0.6-0.9c-0.5-1.6-1.3-3.2-2.3-4.6c-0.2-0.3-0.4-0.4-0.6-0.4c-0.1,0-0.3,0.1-0.3,0.2c-0.1,0.2-0.2,0.4-0.1,0.6v9.3
	c0.1,2.9,0.1,5.8,0.3,8.8V91c0,0.3-0.1,0.6-0.3,0.8c-0.3,0.3-0.7,0.5-1.1,0.6c-0.4,0.2-0.8,0.2-1.3,0.2c-0.3,0-0.5-0.1-0.7-0.2
	s-0.3-0.3-0.3-0.6c0.1-1.6,0.2-3.1,0.3-4.6s0.1-3.4,0.2-5.8v-5.3H490.6z M502.8,64.5c0-2.4-0.1-4.8-0.4-7.2v-0.2
	c0-0.3,0.2-0.6,0.5-0.6c0.1,0,0.1,0,0.2,0s0.2,0,0.3,0c0.9,0.2,1.9,0.5,2.8,0.9c0.5,0.2,0.8,0.4,0.8,0.6c0,0.1-0.1,0.3-0.3,0.4
	l-0.1,0.1c-0.3,0.2-0.5,0.6-0.5,1v27.6c0,0.4,0.1,0.8,0.4,1.1c0.4,0.2,0.9,0.4,1.4,0.3h3.4c1.1,0,2.2,0,3.2-0.1
	c0.2,0,0.4-0.1,0.5-0.2c0.2-0.1,0.3-0.3,0.4-0.4c0.7-1.9,1.1-3.8,1.4-5.8c0.1-0.5,0.2-0.8,0.4-0.8s0.2,0.3,0.2,0.8l0.2,5.4
	c0,0.4,0.2,0.8,0.6,1c0.2,0.1,0.4,0.3,0.5,0.5s0.1,0.4,0.1,0.6c0,0.5-0.2,0.9-0.6,1.2c-0.7,0.3-1.5,0.5-2.3,0.6
	c-1.1,0.1-2.7,0.2-4.8,0.2h-3.9c-1.2,0.1-2.4-0.1-3.4-0.8c-0.7-0.8-1-1.8-0.9-2.8V64.5H502.8z M532.7,62.8c0.4,0,0.8-0.2,1-0.6
	l0.2-0.4c0.1-0.1,0.1-0.2,0.3-0.4c0.1-0.1,0.2-0.3,0.3-0.4c0.1-0.1,0.2-0.1,0.3-0.1c0.5,0.2,0.9,0.4,1.2,0.7c0.5,0.4,1,0.9,1.5,1.4
	c0.1,0.1,0.2,0.3,0.2,0.4c0,0.2-0.1,0.3-0.4,0.5l-0.4,0.2c-0.4,0.1-0.7,0.5-0.7,0.9v15.2c0,0.8-0.1,1.6-0.4,2.4
	c-0.3,0.6-0.9,1-1.5,1.1c-0.1,0-0.2,0-0.3,0c-0.4,0-0.6-0.3-0.7-0.8l-0.1-0.6c-0.1-0.3-0.3-0.6-0.5-0.8c-0.1-0.1-0.4-0.2-0.8-0.4
	c-0.2-0.1-0.3-0.2-0.3-0.3c0-0.2,0.2-0.2,0.6-0.2h1.1c0.1,0,0.3,0,0.3-0.1c0.1-0.1,0.1-0.3,0.1-0.5V64.8c0-0.2-0.1-0.5-0.2-0.6
	c-0.2-0.2-0.4-0.2-0.6-0.2h-0.6c-0.2,0-0.5,0.1-0.6,0.2c-0.2,0.2-0.2,0.4-0.2,0.6V82c0.1,2.9,0.1,5.8,0.3,8.8V91
	c0,0.3-0.2,0.7-0.4,0.8c-0.6,0.5-1.3,0.7-2,0.7c-0.2,0-0.4-0.1-0.5-0.3c-0.2-0.1-0.3-0.3-0.3-0.5c0.1-1.6,0.2-3.1,0.3-4.6
	s0.1-3.4,0.2-5.8V64.8c0-0.2-0.1-0.5-0.2-0.6c-0.2-0.2-0.4-0.2-0.6-0.2h-0.4c-0.2,0-0.5,0.1-0.6,0.2c-0.2,0.2-0.2,0.4-0.2,0.6v9.5
	c0.1,2.9,0.1,5.8,0.3,8.8v0.2c0,0.3-0.1,0.6-0.4,0.8c-0.6,0.5-1.3,0.7-2,0.7c-0.2,0-0.4-0.1-0.6-0.2c-0.2-0.1-0.3-0.3-0.3-0.6
	c0.1-1.4,0.2-2.8,0.3-4.2s0.1-3.1,0.1-5.2v-5.1c0-2.3-0.1-4.7-0.4-7v-0.2c0-0.4,0.2-0.6,0.5-0.6c0.1,0,0.3,0,0.4,0.1l1.7,0.8
	c0.3,0.2,0.7,0.2,1,0.2h0.3c0.4,0.1,0.8-0.2,0.8-0.6c0-0.1,0-0.1,0-0.2c-0.1-2.1-0.1-3.9-0.3-5.2v-0.2c0-0.3,0.2-0.6,0.5-0.6
	c0.1,0,0.1,0,0.2,0c0.1,0,0.2,0,0.3,0c2.1,0.6,3.2,1.1,3.2,1.4c0,0.1-0.1,0.3-0.3,0.4l-0.1,0.1c-0.4,0.2-0.6,0.6-0.6,1v3
	c0,0.2,0.1,0.5,0.2,0.6c0.2,0.2,0.4,0.2,0.6,0.2L532.7,62.8L532.7,62.8z M552.1,57.8c0.4,0,0.8-0.2,1-0.6l0.3-0.4
	c0.1-0.1,0.2-0.3,0.3-0.4c0.1-0.1,0.2-0.3,0.3-0.4c0.1-0.1,0.2-0.1,0.3-0.1c0.5,0.1,0.9,0.4,1.2,0.7c0.5,0.4,1,0.8,1.4,1.3
	c0.1,0.1,0.2,0.3,0.2,0.4c0,0.2-0.1,0.4-0.4,0.5l-0.2,0.1c-0.4,0.1-0.7,0.5-0.7,0.9v2.8c0.1,2.7,0.1,4.7,0.2,6.1v0.2
	c0,0.3-0.1,0.6-0.4,0.8c-0.7,0.4-1.4,0.6-2.2,0.6c-0.2,0-0.3-0.1-0.4-0.2c-0.1-0.2-0.1-0.3-0.1-0.5c0-0.5-0.3-0.7-0.8-0.7h-9.7
	c-0.2,0-0.5,0.1-0.6,0.2c-0.2,0.2-0.2,0.4-0.2,0.6v0.2c0,0.2-0.2,0.3-0.7,0.5s-1.1,0.3-1.7,0.3c-0.2,0-0.4-0.1-0.5-0.2
	c-0.1-0.2-0.2-0.4-0.2-0.6c0.1-1,0.2-2.4,0.2-4v-2.4c0-2.1-0.1-4.1-0.3-6.2v-0.2c0-0.4,0.2-0.6,0.5-0.6c0.1,0,0.3,0,0.4,0.1l2.2,1
	c0.3,0.1,0.7,0.2,1,0.2H552.1z M552,62.7c0.2,0,0.5-0.1,0.6-0.2c0.2-0.2,0.2-0.4,0.2-0.6v-2c0-0.2-0.1-0.5-0.2-0.6
	c-0.2-0.2-0.4-0.2-0.6-0.2h-9.7c-0.2,0-0.5,0.1-0.6,0.2c-0.2,0.2-0.2,0.4-0.2,0.6v2c0,0.2,0.1,0.5,0.2,0.6c0.2,0.2,0.4,0.2,0.6,0.2
	H552z M542.3,63.8c-0.2,0-0.5,0.1-0.6,0.2c-0.2,0.2-0.2,0.4-0.2,0.6v2.2c0,0.2,0.1,0.5,0.2,0.6c0.2,0.2,0.4,0.2,0.6,0.2h9.7
	c0.2,0,0.5-0.1,0.6-0.2c0.2-0.2,0.2-0.4,0.2-0.6v-2.2c0-0.2-0.1-0.5-0.2-0.6c-0.2-0.2-0.4-0.2-0.6-0.2H542.3z M553.1,78.6
	c0.4,0,0.8-0.2,1-0.6l0.4-0.6c0.1-0.2,0.2-0.4,0.4-0.6c0.1-0.2,0.2-0.3,0.4-0.5c0.1-0.1,0.2-0.2,0.3-0.2c0.5,0.2,1,0.5,1.4,0.9
	c0.6,0.5,1.1,1,1.6,1.6c0.1,0.1,0.2,0.3,0.2,0.4c0,0.2-0.1,0.4-0.2,0.5c-0.2,0.1-0.4,0.2-0.7,0.2H552c-0.2,0-0.5,0.1-0.6,0.2
	c-0.2,0.2-0.2,0.4-0.2,0.6v8c0,0.2,0,0.4,0.2,0.5s0.5,0.1,0.7,0.1h1.8h1.8c0.1,0,0.2-0.1,0.3-0.1c0.1-0.1,0.2-0.2,0.3-0.4
	c0.1-0.4,0.2-0.8,0.3-1.2c0.1-0.6,0.2-1.1,0.3-1.4l0.4-1.5c0.1-0.5,0.2-0.8,0.4-0.8c0.1,0,0.1,0.1,0.2,0.2c0.1,0.2,0.1,0.4,0.1,0.6
	l0.1,3.4c0,0.2,0,0.4,0.1,0.5c0.1,0.2,0.3,0.4,0.4,0.5c0.3,0.3,0.4,0.6,0.4,1c0,0.6-0.5,1.2-1.1,1.4c-1.3,0.4-2.7,0.5-4.1,0.4h-2.5
	c-0.8,0.1-1.7-0.1-2.4-0.6c-0.4-0.6-0.6-1.4-0.6-2.1v-8.8c0-0.2-0.1-0.5-0.2-0.6c-0.2-0.2-0.4-0.2-0.6-0.2H546
	c-0.4,0-0.8,0.3-0.9,0.7v0.1c-0.3,2.7-1.3,5.3-3,7.5c-1.9,2.1-4.4,3.6-7.1,4.3c-0.2,0.1-0.4,0.1-0.6,0.1c-0.2,0-0.3-0.1-0.3-0.2
	v-0.1c0-0.2,0.2-0.3,0.6-0.6c2.1-1,3.9-2.5,5.2-4.5c1.2-2,1.8-4.3,2-6.6v-0.2c0-0.5-0.3-0.7-0.8-0.7h-0.8c-0.7,0-1.5,0.1-2.2,0.3
	c-0.1,0-0.2,0.1-0.4,0.1c-0.3,0-0.6-0.2-0.7-0.5l-0.1-0.2c-0.1-0.1-0.1-0.3-0.1-0.5s0.1-0.3,0.2-0.4c0.2-0.1,0.4-0.1,0.6-0.1
	c0.9,0.1,2.3,0.1,4.1,0.2h3c0.2,0,0.4-0.1,0.6-0.2c0.2-0.1,0.2-0.4,0.2-0.6c0-2.4-0.1-4.8-0.4-7.2v-0.2c0-0.4,0.2-0.6,0.6-0.6
	c0.1,0,0.3,0,0.4,0.1c0.8,0.2,1.7,0.5,2.5,0.8c0.5,0.2,0.7,0.4,0.7,0.6c0,0.1-0.1,0.2-0.3,0.4h-0.1c-0.4,0.2-0.6,0.6-0.6,1v5
	c0,0.2,0.1,0.5,0.2,0.6c0.2,0.2,0.4,0.2,0.6,0.2h4L553.1,78.6L553.1,78.6z M552.2,71.4c0.1-0.4,0.3-0.6,0.6-0.6c0.2,0,0.3,0,0.4,0.1
	l1,0.6c0.3,0.2,0.6,0.3,1,0.4c0.8,0.3,1.2,0.5,1.2,0.8c0,0.2-0.1,0.3-0.4,0.4h-0.2c-0.4,0.1-0.7,0.3-0.9,0.6c-1.2,1.3-2.5,2.5-4,3.5
	c-0.4,0.3-0.7,0.3-0.8,0.2c-0.1-0.1-0.1-0.2-0.1-0.2c0-0.2,0.1-0.4,0.2-0.6C551.2,74.9,551.8,73.2,552.2,71.4z M538.6,72.2
	c-0.3-0.5-0.4-0.8-0.3-0.8c0,0,0.1,0,0.2,0c0.2,0,0.4,0.1,0.6,0.2c1.2,0.5,2.3,1.2,3.2,2.2c0.6,0.6,1,1.5,1,2.3
	c0,0.5-0.1,0.9-0.4,1.2c-0.2,0.3-0.6,0.5-1,0.5c-0.3,0-0.5-0.1-0.7-0.2c-0.3-0.2-0.6-0.5-0.6-0.9C540.2,75,539.5,73.5,538.6,72.2z
	 M575.3,69.7c0.4,0,0.8-0.2,1-0.5l0.4-0.5c0.1-0.1,0.2-0.3,0.3-0.5s0.2-0.3,0.4-0.4c0.1-0.1,0.2-0.1,0.3-0.1c0.2,0,0.6,0.3,1.2,0.8
	c0.5,0.4,0.9,0.9,1.3,1.4c0.1,0.1,0.2,0.3,0.2,0.5s-0.1,0.3-0.2,0.4c-0.2,0.1-0.5,0.2-0.7,0.2h-4.8c-0.2,0-0.5,0.1-0.6,0.2
	c-0.2,0.2-0.2,0.4-0.2,0.6v2.8c0,0.2,0.1,0.5,0.2,0.6c0.2,0.2,0.4,0.2,0.6,0.2h1.4c0.4,0,0.8-0.2,1-0.5l0.3-0.3
	c0.1-0.1,0.2-0.2,0.4-0.5c0.2-0.2,0.4-0.4,0.5-0.4c0.4,0.1,0.8,0.4,1.2,0.7c0.5,0.4,1,0.8,1.4,1.3c0.1,0.1,0.2,0.3,0.2,0.4
	c0,0.2-0.1,0.4-0.4,0.5l-0.3,0.1c-0.5,0.1-0.8,0.5-0.8,0.9c-0.1,2.9-0.5,5.7-1.1,8.5c-0.2,1.5-0.9,2.9-1.9,4.1
	c-0.8,0.7-1.7,1-2.8,1.1h-0.1c-0.2,0-0.4-0.1-0.5-0.2c-0.1-0.2-0.2-0.4-0.3-0.6c0-0.4-0.2-0.8-0.4-1c-0.5-0.4-1-0.7-1.6-0.8
	c-0.5-0.1-0.8-0.3-0.8-0.5s0.3-0.3,0.9-0.2c1.3,0.1,2.2,0.2,2.7,0.2c0.3,0,0.5,0,0.8-0.1c0.2-0.1,0.4-0.2,0.5-0.3
	c0.5-0.4,0.9-1.5,1.2-3.2c0.4-2.4,0.7-4.7,0.9-7.1v-0.1c0.1-0.4-0.2-0.8-0.6-0.8c-0.1,0-0.1,0-0.2,0h-7.4c-0.2,0-0.5,0.1-0.6,0.2
	c-0.2,0.2-0.2,0.4-0.2,0.6v0.5c0,0.1-0.2,0.3-0.7,0.6c-0.5,0.2-1,0.4-1.5,0.4c-0.2,0-0.4-0.1-0.6-0.2c-0.2-0.1-0.2-0.3-0.2-0.6
	c0.2-2.5,0.3-5.1,0.4-8v-4.4c0-2.4-0.1-4.7-0.4-7v-0.2c0-0.4,0.2-0.6,0.5-0.6c0.1,0,0.3,0,0.4,0.1l2,0.9c0.3,0.1,0.7,0.2,1,0.2h6.7
	c0.4,0,0.8-0.2,1-0.5l0.4-0.6c0.1-0.1,0.2-0.3,0.4-0.5c0.1-0.2,0.3-0.3,0.4-0.5c0.1-0.1,0.2-0.2,0.3-0.2c0.5,0.2,0.9,0.5,1.3,0.8
	c0.6,0.4,1.1,0.9,1.6,1.5c0.1,0.1,0.2,0.3,0.2,0.4c0,0.2-0.1,0.4-0.2,0.5c-0.2,0.1-0.4,0.2-0.7,0.2h-5.6c-0.2,0-0.5,0.1-0.6,0.2
	c-0.2,0.2-0.2,0.4-0.2,0.6v2.6c0,0.2,0.1,0.5,0.2,0.6c0.2,0.2,0.4,0.2,0.6,0.2h0.8c0.4,0,0.8-0.2,1-0.5l0.3-0.5
	c0.1-0.1,0.1-0.2,0.3-0.4c0.1-0.2,0.2-0.3,0.4-0.5c0.1-0.1,0.2-0.1,0.3-0.1c0.3,0,0.8,0.4,1.6,1.1s1.2,1.2,1.2,1.5
	c0,0.4-0.3,0.6-1,0.6h-4.8c-0.2,0-0.5,0.1-0.6,0.2c-0.2,0.2-0.2,0.4-0.2,0.6v2.7c0,0.2,0.1,0.5,0.2,0.6c0.2,0.2,0.4,0.2,0.6,0.2h0.4
	L575.3,69.7L575.3,69.7z M593,58.8c0.4,0,0.8-0.2,1-0.5l0.3-0.5c0.1-0.1,0.2-0.3,0.3-0.5s0.2-0.3,0.4-0.4c0.1-0.1,0.2-0.1,0.3-0.1
	c0.5,0.2,0.9,0.5,1.3,0.8c0.6,0.5,1.1,1,1.6,1.5c0.1,0.1,0.2,0.3,0.2,0.4c0,0.2-0.1,0.4-0.3,0.5c-0.1,0.1-0.3,0.2-0.4,0.2
	c-0.4,0.1-0.7,0.5-0.7,1V65c0.1,2.8,0.1,5.5,0.3,8.2v0.2c0,0.3-0.2,0.7-0.4,0.8c-0.4,0.2-0.7,0.4-1.1,0.5c-0.4,0.1-0.8,0.2-1.2,0.2
	c-0.2,0-0.4-0.1-0.5-0.3c-0.1-0.1-0.1-0.3-0.1-0.4c0-0.2,0-0.3,0.1-0.5l0.1-0.4c0-0.2-0.1-0.5-0.2-0.6c-0.2-0.2-0.4-0.2-0.6-0.2
	h-3.7c-0.2,0-0.5,0.1-0.6,0.3c-0.1,0.2-0.2,0.4-0.1,0.7c0.8,3.3,2,6.4,3.8,9.3c1.5,2.5,3.5,4.6,6,6c0.4,0.2,0.6,0.4,0.6,0.5
	s-0.1,0.2-0.2,0.3c-0.2,0.1-0.3,0.2-0.5,0.2c-0.7,0.4-1.3,1-1.6,1.8c-0.2,0.4-0.4,0.6-0.6,0.6c-0.2,0-0.3-0.1-0.5-0.2
	c-2.3-2-4-4.5-5.1-7.3c-1.4-3.6-2.3-7.4-2.8-11.2c0-0.5-0.4-0.8-0.9-0.8l0,0h-0.5c-0.4-0.1-0.8,0.2-0.8,0.6c0,0.1,0,0.1,0,0.2
	c-0.1,3.6-0.6,7.1-1.6,10.5c-0.9,3.1-2.7,6-5.1,8.2c-0.2,0.2-0.4,0.3-0.6,0.4c-0.2,0-0.3-0.1-0.3-0.3c0.1-0.3,0.1-0.5,0.3-0.7
	c1.8-2.7,3.1-5.8,3.6-9.1c0.6-3.9,0.9-7.8,0.9-11.7v-6.7c0-1.9-0.1-3.8-0.3-5.7v-0.2c0-0.4,0.2-0.6,0.5-0.6c0.1,0,0.3,0,0.4,0.1
	l2.3,1c0.3,0.1,0.7,0.2,1,0.2L593,58.8z M570.4,64.2c0.2,0,0.5-0.1,0.6-0.2c0.2-0.2,0.2-0.4,0.2-0.6v-2.6c0-0.2-0.1-0.5-0.2-0.6
	c-0.2-0.2-0.4-0.2-0.6-0.2h-1.7c-0.2,0-0.5,0.1-0.6,0.2c-0.2,0.2-0.2,0.4-0.2,0.6v2.6c0,0.2,0.1,0.5,0.2,0.6
	c0.2,0.2,0.4,0.2,0.6,0.2H570.4z M586.5,60c-0.2,0-0.5,0.1-0.6,0.2c-0.2,0.2-0.2,0.4-0.2,0.6v9.8c0,0.2,0.1,0.5,0.2,0.6
	c0.2,0.2,0.4,0.2,0.6,0.2h6.7c0.2,0,0.5-0.1,0.6-0.2c0.2-0.2,0.2-0.4,0.2-0.6v-9.8c0-0.2-0.1-0.5-0.2-0.6c-0.2-0.2-0.4-0.2-0.6-0.2
	H586.5z M567.9,68.8c0,0.2,0.1,0.5,0.2,0.6c0.2,0.2,0.4,0.2,0.6,0.2h1.7c0.2,0,0.5-0.1,0.6-0.2c0.2-0.2,0.2-0.4,0.2-0.6v-2.7
	c0-0.2-0.1-0.5-0.2-0.6c-0.2-0.2-0.4-0.2-0.6-0.2h-1.7c-0.2,0-0.5,0.1-0.6,0.2c-0.2,0.2-0.2,0.4-0.2,0.6V68.8z M571.3,71.7
	c0-0.2-0.1-0.5-0.2-0.6c-0.2-0.2-0.4-0.2-0.6-0.2h-1.7c-0.2,0-0.5,0.1-0.6,0.2c-0.2,0.2-0.2,0.4-0.2,0.6v2.8c0,0.2,0.1,0.5,0.2,0.6
	c0.2,0.2,0.4,0.2,0.6,0.2h1.7c0.2,0,0.5-0.1,0.6-0.2c0.2-0.2,0.2-0.4,0.2-0.6V71.7z M572.5,78.9c-0.2-0.2-0.3-0.4-0.4-0.7
	c0-0.1,0.1-0.2,0.3-0.2s0.4,0.1,0.6,0.2c0.9,0.3,1.8,0.8,2.4,1.5c0.5,0.5,0.7,1.1,0.8,1.7c0,0.3-0.1,0.7-0.3,0.9
	c-0.2,0.2-0.4,0.4-0.7,0.4c-0.1,0-0.2,0-0.2,0c-0.2,0-0.3-0.1-0.4-0.3c-0.1-0.2-0.2-0.4-0.2-0.5C573.9,80.8,573.3,79.8,572.5,78.9z
	 M569.9,79.8c-0.2-0.5-0.3-0.8-0.1-0.9h0.1c0.2,0,0.5,0.2,0.6,0.4c0.8,0.7,1.5,1.5,2.1,2.4c0.4,0.7,0.6,1.4,0.6,2.2
	c0,0.4-0.1,0.8-0.3,1.2c-0.2,0.3-0.5,0.5-0.8,0.5c-0.1,0-0.3,0-0.4-0.1c-0.3-0.1-0.5-0.4-0.5-0.9C571.1,82.9,570.6,81.3,569.9,79.8
	L569.9,79.8z M567.3,80.4c0-0.1,0-0.3,0-0.4c0-0.3,0.1-0.4,0.2-0.4l0,0c0.2,0,0.4,0.2,0.6,0.5c1,1.4,1.6,3,1.7,4.8
	c0,0.6-0.1,1.3-0.4,1.9c-0.3,0.5-0.6,0.7-1,0.7c-0.2,0-0.3,0-0.5-0.1c-0.3-0.2-0.5-0.7-0.4-1c0.1-0.6,0.1-1.2,0.1-1.8
	C567.7,83.2,567.6,81.8,567.3,80.4L567.3,80.4z M564.9,80.7c0.1-0.6,0.2-0.8,0.3-0.8s0.2,0.1,0.3,0.2c0.1,0.2,0.2,0.4,0.2,0.6
	c0.3,1.3,0.4,2.6,0.4,3.9c0.1,1.2-0.2,2.4-0.7,3.4c-0.5,0.7-1,1.1-1.5,1.1c-0.3,0-0.5-0.1-0.7-0.3c-0.2-0.2-0.3-0.5-0.3-0.8
	c0-0.4,0.1-0.8,0.4-1.2c0.5-0.7,0.9-1.6,1.2-2.4C564.6,83.1,564.8,81.9,564.9,80.7L564.9,80.7z M628.3,71.9c0.4,0,0.8-0.2,1-0.5
	l0.4-0.6c0.1-0.1,0.2-0.3,0.3-0.4c0.1-0.2,0.2-0.3,0.4-0.4c0.1-0.1,0.2-0.2,0.4-0.2s0.6,0.3,1.3,0.9c0.6,0.5,1.1,1,1.6,1.6
	c0.1,0.1,0.1,0.3,0.1,0.4c0,0.2-0.1,0.5-0.4,0.6l-0.3,0.1c-0.2,0-0.4,0.1-0.6,0.3c-0.1,0.2-0.2,0.4-0.2,0.6
	c-0.6,9.4-1.7,15-3.4,16.6c-1.1,1-2.6,1.5-4.1,1.6h-0.1c-0.2,0-0.4-0.1-0.5-0.2c-0.1-0.2-0.2-0.4-0.3-0.6c0-0.6-0.3-1.1-0.8-1.4
	c-1.2-0.7-2.5-1.1-3.9-1.3c-0.5-0.1-0.8-0.3-0.8-0.5s0.3-0.3,0.9-0.2c3,0.3,5,0.4,5.8,0.4c0.3,0,0.6,0,0.9-0.1
	c0.2-0.1,0.5-0.2,0.6-0.4c0.6-0.5,1.1-2,1.5-4.6s0.8-5.8,1-9.7v-0.1c0-0.5-0.3-0.8-0.8-0.8H619c-0.5,0-0.9,0.3-0.9,0.8
	c-0.7,3.9-2.3,7.6-4.5,10.9c-2.4,3.2-5.5,5.8-9.1,7.6c-0.5,0.2-0.8,0.3-0.9,0.2v-0.1c0-0.2,0.2-0.4,0.5-0.6c2.6-1.9,4.8-4.4,6.5-7.1
	c1.6-2.7,2.8-5.6,3.5-8.6c0.8-3.4,1.2-7,1.3-10.5v-0.1c0-0.2-0.1-0.4-0.2-0.6c-0.2-0.1-0.4-0.2-0.6-0.2H610c-1.8,0-3.5,0.2-5.3,0.4
	h-0.2c-0.4,0-0.7-0.2-0.8-0.5l-0.2-0.3c-0.1-0.1-0.1-0.3-0.1-0.5c0-0.2,0.1-0.3,0.2-0.4c0.2-0.1,0.4-0.1,0.6-0.1
	c0.9,0.1,2.3,0.1,4.1,0.2h10.2c0.4,0.1,0.8-0.2,0.8-0.6c0-0.1,0-0.1,0-0.2c-0.1-2.3-0.2-4.4-0.4-6.1v-0.2c0-0.4,0.2-0.6,0.6-0.6
	c0.1,0,0.2,0,0.3,0c2.4,0.6,3.6,1.1,3.6,1.4c0,0.1-0.1,0.3-0.4,0.4l-0.1,0.1c-0.4,0.2-0.6,0.6-0.6,1v4c0,0.2,0.1,0.5,0.2,0.6
	c0.2,0.2,0.4,0.2,0.6,0.2h8.8c0.4,0,0.8-0.2,1-0.5l0.6-0.9c0.1-0.2,0.3-0.4,0.5-0.7c0.1-0.2,0.3-0.4,0.4-0.6
	c0.1-0.1,0.2-0.2,0.3-0.2c0.6,0.2,1.2,0.6,1.7,1.1c0.7,0.5,1.4,1.1,1.9,1.8c0.1,0.1,0.2,0.3,0.2,0.4c0,0.2-0.1,0.3-0.2,0.4
	c-0.2,0.1-0.5,0.2-0.8,0.2h-17.6c-0.4,0-0.8,0.3-0.8,0.7v0.1c-0.2,2-0.4,3.9-0.6,5.6v0.2c0,0.5,0.3,0.7,0.8,0.7L628.3,71.9z
	 M671.8,66.1c0.4,0,0.8-0.2,1-0.6l0.4-0.6c0.1-0.1,0.2-0.3,0.3-0.5s0.3-0.4,0.4-0.5c0.1-0.1,0.2-0.2,0.3-0.2
	c0.5,0.2,0.9,0.5,1.3,0.9c0.6,0.5,1.1,1,1.6,1.5c0.1,0.1,0.1,0.3,0.2,0.4c0,0.2-0.1,0.4-0.4,0.5c-0.1,0.1-0.2,0.1-0.4,0.2
	c-0.4,0.1-0.7,0.5-0.7,1v13.3c0.1,2.9,0.1,5.8,0.3,8.8v0.2c0,0.3-0.1,0.6-0.4,0.8c-0.8,0.5-1.6,0.8-2.6,0.8h-0.2
	c-0.3-0.1-0.5-0.3-0.5-0.8c0-0.2,0.1-0.3,0.1-0.5l0.1-0.6v-0.1c0-0.2-0.1-0.5-0.2-0.6c-0.2-0.2-0.4-0.2-0.6-0.2h-21.9
	c-0.2,0-0.4,0.1-0.6,0.2c-0.2,0.1-0.2,0.4-0.2,0.6s0,0.5,0,0.7v0.3c0,0.3-0.1,0.6-0.3,0.8c-0.7,0.5-1.5,0.7-2.3,0.7
	c-0.2,0-0.5-0.1-0.7-0.2s-0.3-0.3-0.3-0.6c0.1-1.6,0.2-3.1,0.3-4.6s0.1-3.4,0.2-5.8v-8.7c0-2.4-0.1-4.7-0.4-7v-0.2
	c0-0.4,0.2-0.6,0.5-0.6c0.1,0,0.3,0,0.4,0.1l2.5,1c0.3,0.1,0.7,0.2,1,0.2h6.6c0.4,0,0.8-0.3,0.9-0.7l0,0c0.2-1.2,0.4-2.6,0.7-4.3V61
	c0-0.5-0.3-0.7-0.8-0.7h-7.3c-1.8,0-3.5,0.2-5.3,0.4h-0.2c-0.4,0-0.7-0.2-0.9-0.5l-0.2-0.3c-0.1-0.1-0.1-0.3-0.1-0.5
	s0.1-0.3,0.2-0.4c0.2-0.1,0.4-0.1,0.6-0.1c0.9,0.1,2.3,0.1,4.1,0.2h23.5c0.4,0,0.8-0.2,1-0.5l0.6-0.9c0.1-0.1,0.3-0.3,0.5-0.6
	s0.4-0.5,0.5-0.6s0.2-0.2,0.3-0.2c0.6,0.2,1.2,0.6,1.7,1.1c0.7,0.5,1.4,1.1,1.9,1.8c0.1,0.1,0.2,0.3,0.2,0.4c0,0.2-0.1,0.3-0.2,0.4
	c-0.2,0.1-0.5,0.2-0.7,0.2h-14.5c-0.4,0-0.8,0.2-1,0.6c-0.9,1.5-1.8,2.9-2.8,4.3c-0.1,0.2-0.2,0.3-0.2,0.5c0,0.1,0.1,0.3,0.2,0.3
	c0.2,0.1,0.3,0.1,0.5,0.1L671.8,66.1z M654.7,68.2c0-0.2-0.1-0.5-0.2-0.6c-0.2-0.2-0.4-0.2-0.6-0.2H650c-0.2,0-0.5,0.1-0.6,0.2
	c-0.2,0.2-0.2,0.4-0.2,0.6v19.2c0,0.2,0.1,0.5,0.2,0.6c0.2,0.2,0.4,0.2,0.6,0.2h3.9c0.2,0,0.5-0.1,0.6-0.2c0.2-0.2,0.2-0.4,0.2-0.6
	V68.2z M657.5,72.5c0,0.2,0.1,0.5,0.2,0.6c0.2,0.2,0.4,0.2,0.6,0.2h4.8c0.2,0,0.5-0.1,0.6-0.2c0.2-0.2,0.2-0.4,0.2-0.6v-4.4
	c0-0.2-0.1-0.5-0.2-0.6c-0.2-0.2-0.4-0.2-0.6-0.2h-4.8c-0.2,0-0.5,0.1-0.6,0.2c-0.2,0.2-0.2,0.4-0.2,0.6V72.5z M671.8,88.2
	c0.2,0,0.5-0.1,0.6-0.2c0.2-0.2,0.2-0.4,0.2-0.6V68.2c0-0.2-0.1-0.5-0.2-0.6c-0.2-0.2-0.4-0.2-0.6-0.2h-4c-0.2,0-0.5,0.1-0.6,0.2
	c-0.2,0.2-0.2,0.4-0.2,0.6v19.2c0,0.2,0.1,0.5,0.2,0.6c0.2,0.2,0.4,0.2,0.6,0.2C667.8,88.2,671.8,88.2,671.8,88.2z M657.5,79.9
	c0,0.2,0.1,0.5,0.2,0.6c0.2,0.2,0.4,0.2,0.6,0.2h4.8c0.2,0,0.5-0.1,0.6-0.2c0.2-0.2,0.2-0.4,0.2-0.6v-4.5c0-0.2-0.1-0.5-0.2-0.6
	c-0.2-0.2-0.4-0.2-0.6-0.2h-4.8c-0.2,0-0.5,0.1-0.6,0.2c-0.2,0.2-0.2,0.4-0.2,0.6V79.9z M664,82.7c0-0.2-0.1-0.5-0.2-0.6
	c-0.2-0.2-0.4-0.2-0.6-0.2h-4.8c-0.2,0-0.5,0.1-0.6,0.2c-0.2,0.2-0.2,0.4-0.2,0.6v4.6c0,0.2,0.1,0.5,0.2,0.6
	c0.2,0.2,0.4,0.2,0.6,0.2h4.8c0.2,0,0.5-0.1,0.6-0.2c0.2-0.2,0.2-0.4,0.2-0.6V82.7z M683.4,93.5c0-0.2,0.1-0.4,0.3-0.5
	c1.1-1.2,2.1-2.4,3-3.7c1.2-1.9,2.1-3.9,2.8-6c0.9-2.9,1.4-6,1.3-9.1c0.1-3.1-0.4-6.1-1.3-9.1c-0.6-2.1-1.6-4.1-2.8-6
	c-0.9-1.3-1.9-2.6-3-3.7c-0.1-0.1-0.2-0.3-0.3-0.5c0-0.1,0-0.2,0.1-0.2c0.1-0.1,0.1-0.1,0.2-0.1c0.2,0,0.3,0.1,0.4,0.2
	c1.3,0.9,2.4,2,3.5,3.2c1.6,1.9,3,4.1,4,6.4c1.3,3.1,2,6.4,1.9,9.7c0.1,3.3-0.6,6.7-1.9,9.7c-1,2.3-2.3,4.5-4,6.4
	c-1,1.2-2.2,2.3-3.5,3.2c-0.1,0.1-0.3,0.2-0.4,0.2S683.6,93.6,683.4,93.5C683.4,93.6,683.4,93.6,683.4,93.5z M756,82.1
	c-0.9,0-1.7-0.3-2.4-0.7c-2.5-1.2-4.8-2.6-7-4.3c-2.6-2.1-5-4.3-7.3-6.7c-0.4-0.5-1-0.9-1.7-1c-0.7,0.1-1.3,0.5-1.8,1
	c-0.4,0.3-0.7,0.7-1,1.1c-1.1,1.1-2.1,2.2-3.1,3.4c-0.7,0.9-1.4,1.7-2.3,2.4c-0.6,0.5-1.3,0.7-2.1,0.7c-0.7,0-1.3-0.2-1.8-0.6
	c-0.6-0.3-1-0.8-1.4-1.3c-0.3-0.3-0.5-0.8-0.5-1.2c0-0.1,0-0.2,0.1-0.3c0.1-0.1,0.2-0.1,0.3-0.1c0.2,0,0.5,0,0.7,0.1
	c0.3,0,0.6,0.1,1,0.1c0.5,0,1-0.1,1.5-0.2c0.7-0.3,1.4-0.6,2-1.1c0.8-0.6,1.8-1.3,3-2.2c1.1-0.9,2.2-1.7,3.2-2.5
	c0.6-0.6,1.4-0.9,2.2-1c0.8,0.1,1.7,0.4,2.3,1c1.5,1.3,2.9,2.4,4,3.2c1.5,1.1,3.2,2.2,4.8,3.1c2.2,1.2,4.5,2.2,6.9,3
	c0.7,0.2,1.4,0.5,1.9,1.1c0.4,0.4,0.6,0.9,0.6,1.4s-0.2,0.9-0.5,1.2C757,81.9,756.5,82.1,756,82.1z M125.8,150.8
	c0.1-0.5,0.5-0.8,1-0.8c0.3,0,0.5,0.1,0.7,0.2l2.5,1.7c1.8,0.9,2.7,1.6,2.7,1.9c0,0.2-0.2,0.3-0.7,0.4h-0.2c-0.6,0-1.2,0.3-1.6,0.8
	c-2.1,2.2-4.3,4.3-6.6,6.2c-2.4,2-5,3.9-7.8,5.5c-0.7,0.4-1.2,0.4-1.4,0.2c0-0.1-0.1-0.1-0.1-0.2c0-0.3,0.2-0.6,0.7-1.1
	c1.8-1.8,3.4-3.6,5-5.5c1.2-1.5,2.2-3,3.2-4.6C124.3,153.9,125.1,152.4,125.8,150.8z M160.6,171.3c0.6,0,1.2-0.3,1.6-0.8l0.8-1.2
	c0.2-0.2,0.4-0.5,0.7-0.9s0.5-0.7,0.7-0.8c0.1-0.2,0.3-0.3,0.5-0.3c0.9,0.3,1.7,0.8,2.3,1.5c1,0.8,1.9,1.6,2.6,2.6
	c0.2,0.2,0.3,0.5,0.3,0.7c0,0.3-0.2,0.5-0.4,0.7c-0.3,0.2-0.7,0.3-1.1,0.3h-26.1c-2.8,0.1-5.5,0.3-8.2,0.7h-0.4
	c-0.5,0-1-0.3-1.2-0.8l-0.2-0.5c-0.1-0.2-0.2-0.4-0.2-0.7s0.1-0.5,0.3-0.7c0.3-0.2,0.6-0.2,0.9-0.2c1.5,0.1,3.7,0.2,6.5,0.3h6.2
	c0.4,0,0.7-0.1,1-0.3c0.2-0.3,0.4-0.6,0.3-1v-7c0-0.4-0.1-0.7-0.3-1c-0.3-0.2-0.6-0.4-1-0.3h-2.7c-2.1,0.1-4.2,0.3-6.2,0.7h-0.4
	c-0.5,0-1-0.3-1.2-0.8l-0.2-0.5c-0.1-0.2-0.2-0.5-0.2-0.7s0.1-0.5,0.3-0.6c0.3-0.2,0.6-0.2,0.9-0.2c1.4,0.1,3.6,0.2,6.4,0.3h3.4
	c0.6,0.1,1.2-0.3,1.3-1c0-0.1,0-0.2,0-0.3c-0.1-2.6-0.2-4.9-0.4-6.9v-0.2c0-0.7,0.3-1,0.9-1c0.2,0,0.4,0.1,0.6,0.1
	c1.3,0.4,2.6,0.8,3.9,1.3c0.7,0.3,1.1,0.6,1.1,0.9c0,0.2-0.1,0.4-0.4,0.6l-0.1,0.1c-0.5,0.3-0.9,0.9-0.9,1.6v3.6
	c0,0.4,0.1,0.7,0.3,1c0.3,0.2,0.6,0.4,1,0.3h4.9c0.6,0,1.2-0.3,1.6-0.8l0.8-1.1c0.2-0.2,0.4-0.5,0.7-0.9s0.5-0.7,0.7-0.8
	c0.1-0.2,0.3-0.3,0.5-0.3c0.9,0.3,1.6,0.8,2.3,1.5c1,0.7,1.8,1.6,2.6,2.5c0.2,0.2,0.3,0.5,0.3,0.7c0,0.3-0.2,0.5-0.4,0.7
	c-0.3,0.2-0.7,0.3-1.1,0.3h-12.8c-0.4,0-0.7,0.1-1,0.3c-0.2,0.3-0.4,0.6-0.3,1v7c0,0.4,0.1,0.7,0.3,1c0.3,0.2,0.6,0.4,1,0.3
	L160.6,171.3L160.6,171.3z M122.2,181.4c0-0.7-0.2-1.1-0.7-1.1c-0.4,0-0.7,0.2-0.9,0.5c-1.5,1.6-3.2,3.2-4.9,4.5
	c-0.7,0.5-1.1,0.6-1.3,0.4l-0.1-0.2c0.1-0.4,0.3-0.8,0.6-1.1c2.9-3.6,5.5-7.4,7.7-11.4c1.9-3,3.3-6.3,4.3-9.8c0.2-0.6,0.5-0.9,1-0.9
	c0.3,0,0.6,0.1,0.8,0.2c3.4,1.8,5.1,3,5.1,3.5c0,0.2-0.2,0.3-0.6,0.4H133c-0.6,0.1-1.1,0.5-1.4,1c-0.8,1.2-2,2.9-3.6,5l-0.9,1.2
	l0.1,0.1c0.4,0.2,0.7,0.4,1,0.7c0.2,0.1,0.2,0.4,0,0.5c0,0-0.1,0.1-0.2,0.1c-0.5,0.3-0.9,0.9-1,1.5v14.3c0.1,4.5,0.2,9.1,0.4,13.7
	v0.2c0,0.5-0.2,1-0.6,1.3c-0.5,0.4-1.1,0.7-1.7,0.9s-1.2,0.4-1.9,0.4c-0.4,0-0.9-0.1-1.2-0.4c-0.3-0.2-0.5-0.5-0.5-0.9
	c0.2-2.5,0.3-4.8,0.4-7.1s0.2-5.3,0.2-9.1L122.2,181.4z M158.7,184.5c0.6,0,1.2-0.3,1.6-0.8l0.7-1.1c0.2-0.2,0.4-0.5,0.7-0.9
	s0.5-0.7,0.7-0.8c0.1-0.2,0.3-0.3,0.5-0.3c0.8,0.3,1.6,0.8,2.2,1.5c1,0.8,1.9,1.6,2.7,2.6c0.2,0.2,0.3,0.5,0.3,0.7
	c0,0.3-0.2,0.5-0.4,0.7c-0.4,0.2-0.8,0.3-1.2,0.3h-12c-0.4,0-0.7,0.1-1,0.3c-0.2,0.3-0.4,0.6-0.3,1v11.1c-0.1,0.7,0.4,1.3,1.1,1.4
	l0,0c2.6,0.4,5.3,0.7,8,0.6h7c0.9,0,1.3,0.1,1.3,0.4c0,0.1-0.1,0.3-0.4,0.4c-0.2,0.1-0.4,0.3-0.6,0.4c-0.7,0.7-1.2,1.6-1.3,2.6
	c-0.1,0.8-0.6,1.2-1.3,1.2h-5.2c-3.3,0.1-6.5-0.4-9.7-1.3c-2.6-0.9-5-2.4-6.8-4.5c-2.1-2.6-3.7-5.6-4.7-8.8
	c-0.2-0.5-0.4-0.8-0.6-0.8c-0.2,0-0.4,0.3-0.6,0.8c-1.6,5.8-4.8,11.1-9.2,15.3c-0.6,0.5-1,0.7-1.2,0.5c-0.1-0.1-0.1-0.2-0.1-0.3
	c0.1-0.4,0.2-0.7,0.5-1c3-4.6,5-9.8,6-15.3c0.6-3,0.8-6,0.8-9c0-1.1,0-1.9-0.1-2.4v-0.1c0-0.9,0.5-1.2,1.5-1.1
	c3.8,0.7,5.7,1.3,5.7,1.7c0,0.2-0.2,0.4-0.5,0.5l-0.2,0.1c-0.6,0.2-1,0.8-1,1.4c-0.2,1.6-0.5,3.2-0.9,4.8c0,0.2-0.1,0.5-0.1,0.7
	c0,0.3,0.1,0.7,0.2,1c1.2,3.5,3.2,6.5,6,8.9c0.2,0.2,0.5,0.3,0.7,0.3s0.5-0.1,0.6-0.3c0.2-0.3,0.3-0.6,0.2-0.9v-10.2
	c0-3.7-0.2-7.4-0.6-11.2v-0.2c0-0.7,0.3-1,0.9-1c0.2,0,0.4,0.1,0.6,0.1c3.4,1,5.2,1.7,5.2,2.2c0,0.1-0.1,0.3-0.4,0.5h-0.1
	c-0.6,0.3-0.9,1-0.9,1.6v5.2c0,0.4,0.1,0.7,0.3,1c0.3,0.2,0.6,0.4,1,0.3h4.4L158.7,184.5L158.7,184.5z M215.2,159.5
	c0.6,0,1.2-0.3,1.6-0.8l0.9-1.2c0.2-0.2,0.4-0.6,0.7-1c0.2-0.3,0.5-0.6,0.7-0.9c0.1-0.2,0.3-0.3,0.5-0.3c0.9,0.4,1.8,0.9,2.5,1.6
	c1.1,0.8,2,1.7,2.9,2.7c0.2,0.2,0.3,0.5,0.3,0.7s-0.1,0.5-0.3,0.6c-0.4,0.2-0.8,0.3-1.2,0.3h-15.5c-0.4,0-0.7,0.1-1,0.3
	c-0.2,0.3-0.4,0.6-0.3,1v5.9c0,0.4,0.1,0.7,0.3,1c0.3,0.2,0.6,0.4,1,0.3h13.3c0.6,0,1.2-0.3,1.6-0.8l0.9-1.3l0.7-0.9
	c0.2-0.3,0.5-0.6,0.8-0.9c0.1-0.2,0.3-0.3,0.6-0.3c1,0.4,1.8,0.9,2.6,1.6c1.1,0.8,2.1,1.7,3,2.7c0.2,0.2,0.3,0.4,0.3,0.7
	s-0.2,0.5-0.4,0.7c-0.4,0.2-0.8,0.3-1.2,0.3h-42.9c-2.8,0.1-5.5,0.3-8.2,0.7H179c-0.5,0-1-0.3-1.2-0.8l-0.2-0.5
	c-0.1-0.2-0.2-0.5-0.2-0.7s0.1-0.5,0.3-0.6c0.3-0.2,0.6-0.2,0.9-0.2c1.3,0.1,3.3,0.2,6,0.3h2.5c0.4,0,0.7-0.1,1-0.3
	c0.2-0.3,0.4-0.6,0.3-1v-1.3c0-3.7-0.2-7.4-0.6-11.2v-0.2c-0.1-0.5,0.3-0.9,0.7-1c0.1,0,0.2,0,0.2,0c0.2,0,0.3,0,0.5,0.1
	c1.4,0.4,2.7,0.8,4,1.3c0.7,0.3,1.1,0.6,1.1,0.9c0,0.1-0.1,0.3-0.4,0.5l-0.1,0.1c-0.6,0.3-0.9,0.9-0.9,1.6v9.3c0,0.4,0.1,0.7,0.3,1
	c0.3,0.2,0.6,0.4,1,0.3h6.7c0.4,0,0.7-0.1,1-0.3c0.2-0.3,0.4-0.6,0.3-1v-6.1c0-3.7-0.2-7.4-0.6-11.2V151c0-0.7,0.3-1,0.9-1
	c0.2,0,0.3,0,0.5,0.1c3.7,1,5.6,1.7,5.6,2.2c0,0.2-0.2,0.4-0.6,0.6l-0.2,0.1c-0.6,0.3-0.9,0.9-0.9,1.6v3.6c0,0.4,0.1,0.7,0.3,1
	c0.3,0.2,0.6,0.4,1,0.3L215.2,159.5L215.2,159.5z M202.1,179.7c0-2.2-0.1-4.3-0.3-6.5v-0.1c0-0.7,0.3-1.1,0.9-1.1l0.6,0.1
	c1.9,0.5,3.2,1,3.9,1.3s1.1,0.6,1.1,0.8s-0.1,0.4-0.4,0.6l-0.1,0.1c-0.6,0.3-0.9,0.9-0.9,1.6v11.3c0,1.1-0.1,2.1-0.4,3.1
	c-0.3,0.8-0.9,1.6-1.6,2c-1.1,0.6-2.4,1-3.6,1.2H201c-0.3,0-0.6-0.1-0.8-0.3s-0.4-0.5-0.4-0.8c-0.1-0.8-0.5-1.6-1.1-2.1
	c-1.1-0.8-2.4-1.3-3.7-1.5c-0.8-0.1-1.2-0.4-1.2-0.7c0-0.2,0.3-0.3,0.9-0.3c0,0,1.3,0.1,4,0.2l2.2,0.1c0.3,0,0.7-0.1,1-0.2
	c0.2-0.2,0.3-0.6,0.3-0.9L202.1,179.7z M190.1,174.9c0.2-0.6,0.5-0.9,0.9-0.9c0.3,0,0.5,0.1,0.7,0.2l2.6,1.6
	c1.8,0.8,2.7,1.4,2.7,1.7c0,0.2-0.2,0.4-0.7,0.4h-0.2c-0.6,0-1.2,0.4-1.5,0.9c-2.1,2.6-4.5,5-7.1,7.2c-2.7,2.3-5.7,4.3-8.9,6
	c-0.7,0.3-1.2,0.4-1.4,0.1c0-0.1-0.1-0.1-0.1-0.2c0-0.2,0.2-0.6,0.7-1c2.4-2.1,4.6-4.3,6.7-6.8c1.2-1.4,2.2-3,3.2-4.6
	C188.8,178.1,189.5,176.5,190.1,174.9z M214.3,176.5c-0.7-0.5-1-0.9-0.9-1.1c0.1-0.1,0.3-0.2,0.5-0.2l0.9,0.1c3,0.7,5.9,1.8,8.6,3.3
	c1.9,1,3.5,2.4,4.9,4c0.9,1.1,1.4,2.4,1.5,3.8c0,0.7-0.2,1.3-0.6,1.8c-0.4,0.5-1,0.7-1.6,0.7c-0.2,0-0.5-0.1-0.7-0.1
	c-0.5-0.2-1-0.5-1.2-1c-1.3-2.2-2.9-4.1-4.8-5.9C218.9,180,216.6,178.2,214.3,176.5z M215.2,184.1c0.2-0.4,0.6-0.7,1-0.7
	c0.3,0,0.6,0.1,0.8,0.2l2.4,1.7c1.7,0.9,2.6,1.5,2.6,1.9c0,0.2-0.3,0.3-0.8,0.4l-0.4,0.1c-0.6,0.1-1.2,0.3-1.6,0.8
	c-3.1,3.9-6.7,7.3-10.8,10c-3.8,2.5-8,4.5-12.4,5.8c-4.9,1.4-10,2.4-15,3l-0.5,0.1c-0.5,0-0.8-0.1-0.9-0.4v-0.1
	c0-0.3,0.4-0.5,1.2-0.7c5.1-1.1,10.1-2.7,14.9-4.7c4.3-1.8,8.2-4.3,11.7-7.4c1.5-1.4,2.9-3,4.2-4.6
	C213.1,187.7,214.2,185.9,215.2,184.1L215.2,184.1z M352.3,154.9c-0.7,0.1-1.1,0.4-1.1,0.9c0,0.2,0.1,0.4,0.2,0.6
	c1.9,3.5,4.5,6.7,7.4,9.3c3.2,3,6.7,5.5,10.6,7.4c0.7,0.3,1.1,0.6,1.1,0.7c0,0.1-0.1,0.2-0.3,0.4c-0.2,0.1-0.5,0.2-0.7,0.3
	c-1.1,0.6-2.1,1.5-2.8,2.6c-0.2,0.4-0.5,0.7-0.9,0.7c-0.3,0-0.5-0.1-0.7-0.2c-3.6-2.8-6.7-6.1-9.4-9.8c-2.7-3.7-4.8-7.7-6.3-12
	c-0.2-0.7-0.8-1.1-1.5-1.1h-3.2c-2.3,0.1-4.6,0.3-6.9,0.7h-0.4c-0.6,0-1.1-0.3-1.3-0.8l-0.2-0.5c-0.1-0.2-0.2-0.5-0.2-0.7
	s0.1-0.5,0.3-0.6c0.3-0.2,0.6-0.2,0.9-0.2c1.4,0.1,3.6,0.2,6.4,0.3h3.2c0.6,0,1.2-0.3,1.6-0.9l0.7-1.2c0.2-0.4,0.6-0.6,1-0.6
	c0.3,0,0.6,0.1,0.8,0.3l3.1,2.2c0.3,0.2,0.6,0.5,0.7,0.9c0.1,0.2,0.1,0.5-0.2,0.7l0,0C353.6,154.7,353,154.9,352.3,154.9
	L352.3,154.9z M328,155.8c0.1-0.7,0.5-1,1-1c0.2,0,0.5,0.1,0.7,0.2l2.6,1.4c2,0.7,2.9,1.3,2.9,1.7c0,0.2-0.2,0.4-0.7,0.5l-0.2,0.1
	c-0.6,0.1-1.1,0.5-1.4,1c-2.1,3.7-4.6,7.3-7.4,10.5c-2.8,3.3-6.1,6.3-9.7,8.8c-0.7,0.5-1.1,0.6-1.3,0.3c-0.1-0.1-0.1-0.2-0.1-0.2
	c0.1-0.4,0.3-0.7,0.6-1c3.5-3.7,6.5-7.8,8.8-12.3C325.8,162.6,327.1,159.3,328,155.8L328,155.8z M334.3,178.4c0-0.7-0.4-1.1-1.2-1.1
	h-2.4c-1.9,0.1-3.8,0.3-5.7,0.6c-0.1,0-0.3,0.1-0.4,0.1c-0.5,0-1-0.3-1.2-0.8l-0.2-0.5c-0.1-0.2-0.2-0.5-0.2-0.7s0.1-0.5,0.3-0.6
	c0.3-0.2,0.6-0.2,0.9-0.2c1.4,0.1,3.6,0.2,6.4,0.3h21.7c0.6,0,1.2-0.2,1.6-0.7l0.6-0.7c0.2-0.2,0.4-0.4,0.8-0.8
	c0.4-0.4,0.7-0.6,0.9-0.6c0.8,0.3,1.4,0.7,2,1.3c0.9,0.7,1.7,1.4,2.4,2.3c0.1,0.2,0.2,0.4,0.2,0.7c0,0.4-0.2,0.7-0.6,0.8l-0.4,0.2
	c-0.7,0.1-1.2,0.7-1.2,1.4c-0.2,5.8-0.8,11.6-1.7,17.3c-0.7,4.3-1.8,7-3.2,8.4c-1.6,1.4-3.7,2.3-5.9,2.3h-0.2
	c-0.7,0-1.1-0.4-1.2-1.2c-0.1-0.9-0.5-1.7-1.2-2.2c-0.6-0.4-1.3-0.8-2-1c-1-0.4-2.1-0.6-3.1-0.8c-0.8-0.1-1.2-0.4-1.2-0.7
	s0.5-0.5,1.4-0.4c3.4,0.4,6,0.6,7.7,0.6c0.5,0,0.9,0,1.4-0.1c0.4-0.1,0.7-0.3,0.9-0.6c0.8-0.8,1.5-3.1,2.1-7s1-8.9,1.3-15v-0.1
	c0-0.3-0.1-0.7-0.4-0.9s-0.6-0.4-0.9-0.3H341c-0.7-0.1-1.3,0.4-1.4,1v0.1c-0.5,3.6-1.3,7.1-2.6,10.4c-1.5,3.5-3.6,6.7-6.3,9.5
	c-3.5,3.5-7.6,6.4-12.1,8.5c-0.3,0.2-0.6,0.3-0.9,0.3c-0.2,0-0.4-0.1-0.5-0.2c-0.1-0.2,0-0.4,0.2-0.7c0.5-0.4,1-0.9,1.5-1.2
	c3.5-2.3,6.5-5.1,9.1-8.4c2-2.6,3.6-5.6,4.6-8.8c0.9-3,1.5-6.1,1.7-9.2L334.3,178.4z M431.1,209.2c-0.3,0-0.5-0.1-0.7-0.3
	c-2-1.5-3.8-3.2-5.4-5c-2.6-3-4.6-6.4-6.2-10c-2-4.8-3-9.9-2.9-15.1c-0.1-5.2,0.9-10.4,2.9-15.1c1.5-3.6,3.6-7,6.2-10
	c1.6-1.9,3.4-3.5,5.4-5c0.2-0.2,0.4-0.3,0.7-0.3c0.1,0,0.2,0,0.3,0.1c0.1,0.1,0.2,0.2,0.2,0.3c-0.1,0.3-0.2,0.6-0.4,0.8
	c-1.7,1.8-3.2,3.8-4.6,5.8c-1.8,2.9-3.3,6-4.3,9.3c-1.4,4.6-2.1,9.3-2.1,14.1c-0.1,4.8,0.6,9.5,2.1,14.1c1,3.3,2.5,6.4,4.3,9.3
	c1.4,2,2.9,4,4.6,5.8c0.2,0.2,0.4,0.5,0.4,0.8c0,0.1-0.1,0.2-0.2,0.3C431.3,209.1,431.2,209.2,431.1,209.2L431.1,209.2z
	 M445.1,161.7c0.7-1.8,1.3-3.6,1.8-5.4c0.5-1.8,1-3.7,1.3-5.5c0.1-0.7,0.4-1,1-1c0.2,0,0.5,0,0.7,0.1c3.5,1.4,5.3,2.3,5.3,2.8
	c0,0.1-0.2,0.3-0.6,0.4l-0.2,0.1c-0.6,0.2-1,0.6-1.4,1.1c-1.6,2.6-3.5,5.1-5.5,7.4c-0.2,0.2-0.4,0.5-0.4,0.9s0.2,0.7,0.5,1
	c1.1,1,1.8,2.3,1.9,3.8c0,0.6-0.2,1.2-0.6,1.7c-0.3,0.4-0.9,0.7-1.4,0.7c-0.3,0-0.6-0.1-0.9-0.1c-0.5-0.3-0.9-0.7-1.1-1.3
	c-0.5-1.3-1.2-2.5-2-3.6c-0.8-1.2-1.8-2.3-2.8-3.4c-0.6-0.7-0.8-1.1-0.6-1.2c0.1-0.1,0.3-0.1,0.4-0.1c0.4,0,0.7,0.1,1.1,0.2
	c0.8,0.2,1.5,0.5,2.2,0.9L445.1,161.7z M485.2,163.3c0.6,0,1.2-0.2,1.6-0.7l0.6-0.7c0.2-0.2,0.4-0.5,0.8-0.9s0.7-0.6,0.9-0.6
	c0.8,0.3,1.5,0.7,2.1,1.3c0.9,0.7,1.7,1.5,2.5,2.4c0.2,0.2,0.2,0.4,0.2,0.7c0,0.4-0.2,0.7-0.6,0.8l-0.6,0.2
	c-0.7,0.1-1.2,0.8-1.2,1.5c-0.3,10.7-0.8,19.1-1.6,25.3s-1.9,10.1-3.4,11.8c-1.7,1.9-4.1,2.9-6.6,3h-0.2c-0.7,0-1.1-0.4-1.2-1.2
	c-0.1-0.9-0.5-1.7-1.2-2.4c-1.8-1.1-3.8-1.8-5.9-2.1c-0.8-0.2-1.2-0.4-1.2-0.7s0.5-0.5,1.4-0.4c4.7,0.5,7.5,0.7,8.6,0.7
	c0.5,0,1-0.1,1.4-0.2c0.4-0.2,0.7-0.4,1-0.7c2.1-1.9,3.4-13.1,4-33.7v-0.1c0-0.3-0.1-0.7-0.3-0.9c-0.3-0.2-0.6-0.3-0.9-0.3h-14.9
	c-0.7,0-1.3,0.4-1.6,0.9c-1.5,2.9-3.4,5.7-5.5,8.2c-0.4,0.4-0.7,0.6-1,0.6c-0.2,0-0.4-0.1-0.4-0.3v-0.1c0.1-0.3,0.2-0.7,0.3-1
	c1.5-3.3,2.8-6.7,3.9-10.2c0.6-2,1.1-4,1.5-6s0.7-4,0.8-5.9c0.1-0.7,0.4-1.1,1-1.1c0.2,0,0.4,0.1,0.6,0.1c3.7,1.1,5.6,1.9,5.6,2.4
	c0,0.2-0.2,0.3-0.6,0.5l-0.2,0.1c-0.6,0.3-1,0.7-1.2,1.3c-0.8,2.4-1.7,4.8-2.7,7c-0.1,0.2-0.1,0.4-0.1,0.6c0,0.6,0.4,0.9,1.1,0.9
	h13.2L485.2,163.3L485.2,163.3z M449.3,174.7c-0.3,0.2-0.4,0.5-0.4,0.9c0,0.2,0.1,0.4,0.3,0.5c0.3,0.1,0.6,0.2,0.9,0.1l6-0.4
	c0.7-0.1,1.1-0.4,1.1-0.9c0-0.2-0.1-0.5-0.2-0.7c-0.6-1.1-1-1.9-1.4-2.4c-0.5-0.7-0.6-1.1-0.4-1.3c0.1-0.1,0.2-0.1,0.2-0.1
	c0.4,0,0.7,0.2,1,0.4c2.2,1.1,4.1,2.6,5.6,4.5c1.1,1.2,1.7,2.8,1.8,4.5c0,0.7-0.2,1.4-0.6,2c-0.3,0.5-0.9,0.8-1.5,0.8
	c-0.4,0-0.8-0.1-1.2-0.3c-0.5-0.3-0.8-0.8-0.9-1.4c-0.4-1.4-0.6-2.3-0.8-2.7c-0.1-0.6-0.8-1.1-1.4-0.9c-0.1,0-0.1,0-0.2,0.1L455,178
	c-0.7,0.1-1.2,0.7-1.1,1.4v11.7c0.1,4.5,0.2,9.1,0.4,13.7v0.3c0,0.5-0.2,1-0.6,1.3c-1,0.8-2.3,1.2-3.6,1.1c-0.4,0-0.7-0.1-1-0.4
	c-0.3-0.2-0.4-0.5-0.4-0.9c0.2-2.5,0.3-4.8,0.4-7.1s0.2-5.3,0.2-9.1v-9.3c0-0.4-0.1-0.7-0.4-1c-0.3-0.2-0.7-0.3-1-0.2l-5,1.1
	c-0.4,0-0.8,0.2-1.1,0.5c0,0.1-0.1,0.2-0.2,0.3c-0.1,0.2-0.3,0.3-0.6,0.3c-0.5,0-0.8-0.3-1-1l-0.7-2.5c0-0.2-0.1-0.3-0.1-0.5
	c0-0.6,0.4-0.9,1.1-0.9l4.3-0.2c0.6,0,1.2-0.4,1.5-0.9c1.3-2.1,2.6-4.4,4-7.1c1.8-3.3,3.2-6.8,4.3-10.4c0.1-0.6,0.5-0.9,1-0.9
	c0.3,0,0.5,0.1,0.7,0.2c3.4,1.5,5,2.4,5,2.9c0,0.2-0.2,0.3-0.6,0.4l-0.2,0.1c-0.5,0.1-1,0.4-1.3,0.9
	C456.4,166.3,453,170.6,449.3,174.7L449.3,174.7z M469.6,174.8c-0.5-0.7-0.6-1.1-0.4-1.3c0.1-0.1,0.2-0.1,0.2-0.1
	c0.4,0,0.7,0.2,1,0.4c2.6,1.2,4.8,3,6.6,5.3c1.3,1.5,2,3.5,2.1,5.5c0,0.9-0.2,1.7-0.7,2.4c-0.4,0.6-1,0.9-1.7,0.9
	c-0.5,0-0.9-0.1-1.3-0.4c-0.5-0.3-0.9-0.8-0.9-1.4c-0.3-2-0.9-3.9-1.7-5.7C471.9,178.4,470.8,176.6,469.6,174.8L469.6,174.8z
	 M442.2,185.5c0-0.8,0.3-1.2,1-1.2l0.5,0.1l1.5,0.5c0.2,0.1,0.8,0.2,1.6,0.4c1.2,0.3,1.8,0.6,1.8,0.9c0,0.2-0.2,0.4-0.7,0.6
	l-0.2,0.1c-0.6,0.2-1,0.8-1.1,1.4c-1.3,4.6-3.4,9-6.2,13c-0.4,0.5-0.7,0.7-1,0.7s-0.4-0.2-0.4-0.6c0-0.3,0.1-0.6,0.2-0.9
	c0.4-1.1,0.8-2.2,1.1-3.3c0.5-1.7,0.9-3.7,1.3-5.9C441.9,189.3,442.1,187.4,442.2,185.5L442.2,185.5z M456.2,185.5
	c-0.1-0.4-0.2-0.7-0.3-0.9s0-0.4,0.1-0.4c0.1-0.1,0.2-0.1,0.2-0.1c0.4,0,0.7,0.2,1,0.4c2,1.3,3.6,2.9,5,4.8c1,1.4,1.5,3,1.6,4.6
	c0,0.8-0.2,1.6-0.7,2.3c-0.4,0.6-1,0.9-1.7,0.9c-0.4,0-0.9-0.1-1.2-0.4c-0.5-0.3-0.8-0.8-0.8-1.4c-0.2-1.7-0.6-3.3-1.2-4.9
	C457.6,188.8,456.9,187.1,456.2,185.5L456.2,185.5z M528.9,189.7c0.9,0,1.3,0.4,1.3,1.2s-0.4,1.2-1.3,1.2h-4.7c-0.4,0-0.7,0.1-1,0.3
	c-0.2,0.3-0.4,0.6-0.3,1v4.2c-0.1,1,0.4,1.9,1.2,2.3c1,0.4,2.1,0.6,3.2,0.6h0.7c0.4,0,0.6,0.3,0.6,0.9s-0.2,0.9-0.6,0.9h-16.3
	c-0.3,0-0.5-0.3-0.5-0.9s0.2-0.9,0.5-0.9h0.8c1.1,0,2.2-0.2,3.2-0.6c0.9-0.4,1.4-1.4,1.2-2.3v-4.2c0-0.4-0.1-0.7-0.3-1
	c-0.3-0.2-0.6-0.4-1-0.3h-14.8c-0.9,0-1.3-0.4-1.3-1.2v-0.4c0-0.6,0.2-1.1,0.4-1.6l19.7-31.6c0.3-0.6,1.1-0.9,1.7-0.7l0.2,0.1
	c0.7,0.1,1.2,0.7,1.1,1.4v30.3c0,0.4,0.1,0.7,0.3,1c0.3,0.2,0.6,0.4,1,0.3H528.9z M517.1,169.4c0-0.3-0.1-0.6-0.2-0.8
	c-0.1-0.2-0.3-0.3-0.5-0.3c-0.3,0-0.6,0.2-0.9,0.7l-11.8,19.2c-0.1,0.2-0.2,0.5-0.2,0.7c0,0.5,0.4,0.8,1.1,0.8h11.2
	c0.4,0,0.7-0.1,1-0.3c0.2-0.3,0.4-0.6,0.3-1L517.1,169.4z M548.5,203.3c-2.5,0-5-1-6.9-2.6c-2.4-2.1-4.3-4.8-5.3-7.9
	c-1.5-4.1-2.1-8.5-2-12.9c-0.1-4.4,0.6-8.7,2-12.9c1-3.1,2.9-5.8,5.3-8c2-1.7,4.5-2.6,7-2.6c2.6,0,5,1,7,2.6c2.5,2.1,4.3,4.9,5.3,8
	c1.4,4.1,2.1,8.5,2,12.9c0.1,4.4-0.6,8.7-2.1,12.9c-1.1,3.1-2.9,5.8-5.4,7.9C553.6,202.3,551.1,203.2,548.5,203.3z M548.7,201.1
	c2.5,0,4.4-1.8,5.9-5.3c1.4-3.5,2.1-8.8,2.1-15.9s-0.7-12.4-2.1-16c-1.4-3.6-3.4-5.3-5.9-5.3s-4.5,1.8-5.9,5.3
	c-1.4,3.6-2.1,8.9-2.1,16s0.7,12.4,2.1,15.9C544.1,199.3,546.1,201.1,548.7,201.1z M623,200.8c0.3,0,0.4,0.3,0.4,0.8
	s-0.1,0.8-0.4,0.8h-14.6c-0.3,0-0.4-0.3-0.4-0.8s0.1-0.8,0.4-0.8h0.7c1,0,1.9-0.1,2.8-0.5c0.7-0.5,1.1-1.3,1-2.2l0.1-8.9
	c0-2.8,0-5.1-0.1-6.9c0-1.9-0.5-3.7-1.5-5.4c-1-1.5-2.8-2.2-4.5-2.1c-1.5,0-3,0.4-4.3,1.2c-1.5,0.9-2.7,2.1-3.6,3.5
	c-0.3,0.3-0.4,0.8-0.5,1.2c0,0.2,0.1,0.3,0.1,0.5c0,0.7,0.1,2.2,0.1,4.4c0,3.4-0.1,7.5-0.2,12.3c-0.1,0.9,0.3,1.7,1,2.2
	c0.9,0.4,1.9,0.6,2.8,0.5h0.8c0.3,0,0.4,0.3,0.4,0.8s-0.1,0.8-0.4,0.8h-14.6c-0.3,0-0.5-0.3-0.5-0.8s0.2-0.8,0.5-0.8h0.8
	c1,0,1.9-0.1,2.8-0.5c0.7-0.5,1.1-1.3,1-2.2v-8.7c0-3,0-5.4-0.1-7.1c-0.2-4.9-2.2-7.4-6-7.4c-1.5,0-3,0.4-4.3,1.2
	c-1.5,0.9-2.7,2.1-3.6,3.5c-0.3,0.5-0.4,1.1-0.4,1.6l-0.1,16.8c-0.1,0.9,0.3,1.8,1.1,2.2c0.9,0.4,1.9,0.6,2.9,0.5h0.7
	c0.3,0,0.5,0.3,0.5,0.8s-0.2,0.8-0.5,0.8h-14.5c-0.3,0-0.4-0.3-0.4-0.8s0.1-0.8,0.4-0.8h0.7c1,0,2-0.1,2.9-0.5
	c0.8-0.5,1.2-1.3,1.1-2.2l-0.2-19.1c0.1-0.9-0.3-1.9-1.1-2.4c-1.1-0.5-2.2-0.7-3.4-0.8c-0.4,0-0.6-0.4-0.6-1c0-0.3,0.1-0.5,0.3-0.5
	c2-0.6,4-1.1,6-1.5l2.7-0.6l0.4-0.1c0.3,0,0.6,0.1,0.8,0.3c0.2,0.3,0.3,0.6,0.3,0.9v1.7c0,0.3,0,0.5,0.2,0.8
	c0.1,0.2,0.2,0.3,0.4,0.3c0.4,0,0.7-0.2,0.9-0.6c2.1-2.3,5.1-3.7,8.2-3.7c2-0.1,3.9,0.4,5.6,1.3c1.5,0.8,2.6,2.1,3.4,3.6
	c0.2,0.5,0.5,0.7,0.7,0.7c0.3,0,0.6-0.2,0.8-0.5c2.1-3.1,5.5-5,9.3-5.1c2.8-0.2,5.5,0.8,7.5,2.7c1.7,1.8,2.7,4.2,2.7,6.7
	c0,0.7,0.1,2.2,0.1,4.4c0,3.4-0.1,7.5-0.2,12.3c-0.1,0.9,0.3,1.8,1.1,2.2c0.9,0.4,1.9,0.6,2.9,0.5h0.7L623,200.8L623,200.8z
	 M629.3,208.8c0.1-0.3,0.2-0.6,0.4-0.8c1.7-1.8,3.2-3.8,4.6-5.8c1.8-2.9,3.3-6,4.3-9.3c1.4-4.6,2.1-9.3,2.1-14.1
	c0.1-4.8-0.6-9.5-2.1-14.1c-1-3.3-2.5-6.4-4.3-9.3c-1.4-2-2.9-4-4.6-5.8c-0.2-0.2-0.4-0.5-0.4-0.8c0-0.1,0.1-0.2,0.2-0.3
	c0.1-0.1,0.2-0.1,0.3-0.1c0.3,0,0.5,0.1,0.7,0.3c2,1.5,3.8,3.2,5.4,5c2.6,3,4.6,6.4,6.2,10c2,4.8,3,9.9,2.9,15.1
	c0.1,5.2-0.9,10.4-2.9,15.1c-1.5,3.6-3.6,7-6.2,10c-1.6,1.9-3.4,3.5-5.4,5c-0.2,0.2-0.4,0.3-0.7,0.3c-0.1,0-0.2-0.1-0.3-0.1
	C629.4,209,629.3,208.9,629.3,208.8z"/>
<path class="st1" d="M253.3,202.4c-0.3,0-0.5-0.1-0.6-0.4c-0.1-0.4-0.2-0.8-0.2-1.2s0-0.8,0.2-1.2c0.1-0.3,0.4-0.4,0.6-0.4h1.7
	c8.8,0,13.1-2.6,13.1-7.8v-53.6c0.1-1.8-0.1-3.6-0.7-5.3c-0.7-1.1-1.8-1.8-3.1-1.9c-2.8-0.3-5.6-0.5-8.4-0.4h-2.5
	c-0.5,0-0.8-0.5-0.8-1.6s0.3-1.6,0.8-1.6c8.2-0.1,16.1-2.7,22.8-7.4c0.4-0.4,0.9-0.6,1.5-0.7c0.4,0,0.8,0.2,1,0.6
	c0.3,0.4,0.4,1,0.4,1.5v70.4c0,5.2,4.4,7.8,13.3,7.8h1.6c0.3,0,0.5,0.1,0.6,0.4c0.1,0.4,0.2,0.8,0.2,1.2c0,1.1-0.3,1.6-0.8,1.6
	L253.3,202.4L253.3,202.4z"/>
<path class="st0" d="M283.7,27.8c0-0.1,0-0.3-0.1-0.4s-0.2-0.1-0.3-0.2c-0.1,0-0.3,0.1-0.4,0.2c-2.1,1.4-4,2.7-5.7,3.7
	c-0.2,0.1-0.3,0.2-0.5,0.4c0,0.1,0,0.1-0.1,0.2s-0.2,0.2-0.3,0.2c-0.2,0-0.4-0.1-0.5-0.4l-0.9-1.9c0-0.1-0.1-0.2-0.1-0.3
	c0-0.2,0.2-0.4,0.5-0.5c2.2-0.7,4.8-1.5,7.8-2.6c0.3-0.1,0.5-0.4,0.5-0.7V18c0-0.2-0.1-0.3-0.2-0.5c-0.1-0.1-0.3-0.2-0.5-0.2h-2.2
	c-1.4,0-2.7,0.1-4.1,0.3h-0.2c-0.3,0-0.5-0.1-0.6-0.4l-0.2-0.3c-0.1-0.1-0.1-0.2-0.1-0.4c0-0.1,0.1-0.2,0.2-0.3
	c0.1-0.1,0.3-0.1,0.4-0.1c0.7,0.1,1.8,0.1,3.2,0.2h3.6c0.2,0,0.3-0.1,0.5-0.2c0.1-0.1,0.2-0.3,0.2-0.5V14c0-1.9-0.1-3.7-0.3-5.5v0.1
	c0-0.2,0.1-0.5,0.4-0.5h0.1c0.1,0,0.2,0,0.2,0c0.7,0.2,1.4,0.4,2.1,0.7c0.4,0.2,0.6,0.3,0.6,0.4c0,0.1-0.1,0.2-0.3,0.3l-0.1,0.1
	c-0.3,0.2-0.4,0.5-0.4,0.8v16.8c0,2.2,0.1,4.5,0.2,6.8v0.2c0,0.2-0.1,0.4-0.2,0.6c-0.2,0.2-0.5,0.4-0.8,0.5s-0.7,0.2-1,0.2
	c-0.2,0-0.4-0.1-0.5-0.2c-0.1-0.1-0.2-0.3-0.2-0.4c0.1-1.7,0.2-3.4,0.2-5.1L283.7,27.8z M293.1,9.7c-0.2,0.2-0.3,0.4-0.2,0.7v8.7
	c0,0.1,0,0.3,0.1,0.4s0.2,0.1,0.3,0.2c0.2,0,0.3-0.1,0.4-0.2c0.6-0.5,1.1-1.1,1.8-1.8c1.2-1.3,2.3-2.8,3.2-4.4
	c0.1-0.2,0.3-0.4,0.5-0.4s0.3,0.1,0.4,0.2c1.6,1.2,2.3,1.9,2.3,2.1c0,0.1-0.1,0.2-0.3,0.2h-0.1c-0.3,0-0.6,0.1-0.8,0.3
	c-1.1,0.9-2.2,1.8-3.4,2.6c-1.3,0.9-2.6,1.7-4,2.4c-0.3,0.1-0.5,0.4-0.5,0.8v9.6c0,0.3,0.1,0.6,0.3,0.8c0.3,0.2,0.7,0.3,1.1,0.2h2.6
	c1.1,0,1.9,0,2.5-0.1c0.3,0,0.5-0.2,0.6-0.4c0.4-1.2,0.8-2.5,1-3.8c0.1-0.4,0.2-0.6,0.3-0.6c0.1,0,0.1,0.1,0.2,0.2
	c0,0.2,0.1,0.3,0.1,0.5l0.1,3.3c0,0.3,0.2,0.6,0.5,0.8s0.5,0.5,0.5,0.8c0,0.4-0.2,0.7-0.5,0.9c-0.5,0.3-1.1,0.4-1.7,0.5
	c-1.2,0.1-2.4,0.2-3.6,0.1h-2.9c-0.7,0-1.4-0.1-2-0.2c-0.4-0.1-0.8-0.4-1-0.8c-0.2-0.5-0.3-1.1-0.3-1.7V14.2c0-1.9-0.1-3.7-0.3-5.5
	V8.5c0-0.3,0.1-0.5,0.4-0.5c0.1,0,0.2,0,0.3,0.1c0.7,0.2,1.4,0.4,2.1,0.7c0.4,0.2,0.6,0.3,0.6,0.4c0,0.1-0.1,0.2-0.2,0.3L293.1,9.7z
	 M330.1,22.2c0.1,0,0.2-0.1,0.4-0.4l0.3-0.5c0.1-0.1,0.2-0.3,0.3-0.4c0.1-0.1,0.2-0.3,0.3-0.4c0.1-0.1,0.2-0.1,0.2-0.1
	c0.1,0,0.5,0.2,1,0.7c0.4,0.4,0.8,0.8,1.1,1.2c0.1,0.1,0.1,0.2,0.1,0.4c0,0.1-0.1,0.3-0.2,0.3c-0.2,0.1-0.4,0.2-0.6,0.2h-2.6
	c-0.4,0-0.6,0.2-0.6,0.6c-0.1,1.4-0.2,2.9-0.4,4.6c0,0.1,0,0.2,0,0.3c0,0.2,0.1,0.4,0.2,0.4s0.3-0.1,0.5-0.4l0.3-0.6
	c0.1-0.1,0.2-0.3,0.3-0.4c0.1-0.2,0.2-0.3,0.3-0.4c0.1-0.1,0.1-0.1,0.2-0.1s0.5,0.3,1,0.8c0.4,0.4,0.8,0.8,1.2,1.3
	c0.1,0.1,0.1,0.2,0.1,0.4c0,0.1-0.1,0.3-0.2,0.3c-0.2,0.1-0.4,0.2-0.6,0.2h-3.1c-0.4,0-0.7,0.2-0.7,0.6c-0.1,1.3-0.6,2.6-1.4,3.6
	c-0.7,0.8-1.7,1.2-2.8,1.3h-0.1c-0.2,0-0.3,0-0.4-0.2c-0.1-0.1-0.2-0.3-0.2-0.5c0-0.3-0.2-0.7-0.5-0.9c-0.7-0.4-1.4-0.7-2.2-0.8
	c-0.4-0.1-0.6-0.2-0.6-0.4s0.2-0.2,0.7-0.2c1.6,0.2,2.7,0.2,3.2,0.2c0.2,0,0.5,0,0.7-0.1s0.3-0.2,0.5-0.3c0.4-0.5,0.6-1.1,0.7-1.7
	c0-0.1,0-0.1,0-0.2c0-0.4-0.2-0.5-0.6-0.5H317c-0.3,0-0.6,0.2-0.7,0.6l0,0c-0.1,0.4-0.1,0.9-0.2,1.3c0,0.3-0.2,0.6-0.5,0.6
	c-0.2,0.1-0.4,0.1-0.6,0.1c-0.1,0-0.3,0-0.7-0.1c-0.4-0.1-0.6-0.3-0.5-0.8c0.4-1.7,0.9-4.4,1.4-7.9v-0.2c0-0.1-0.1-0.3-0.2-0.4
	s-0.3-0.1-0.4-0.1h-0.4c-0.4,0-0.9,0.1-1.3,0.2c-0.1,0-0.2,0.1-0.3,0.1c-0.3,0-0.5-0.2-0.6-0.4l-0.1-0.2c-0.1-0.1-0.1-0.2-0.1-0.3
	c0-0.1,0.1-0.2,0.2-0.3c0.1-0.1,0.3-0.1,0.5-0.1c0.4,0,1,0.1,1.8,0.1h0.6c0.3,0,0.6-0.2,0.7-0.6l0,0c0.3-1.9,0.6-3.6,0.8-5.2v-0.2
	c0-0.1,0-0.2-0.1-0.3c0-0.1-0.1-0.1-0.2-0.1c-0.2,0-0.3,0.1-0.4,0.3c-0.6,0.7-1.3,1.3-2,1.9c-0.3,0.2-0.5,0.3-0.6,0.2
	c0,0-0.1-0.1-0.1-0.2c0-0.2,0.1-0.4,0.2-0.5c1-1.3,1.8-2.8,2.4-4.3c0.4-0.9,0.8-1.9,1.1-2.9c0.3-1,0.5-1.9,0.7-2.9
	c0.1-0.3,0.2-0.5,0.5-0.5c0.1,0,0.2,0,0.3,0.1c1.9,0.7,2.8,1.1,2.8,1.4c0,0.1-0.1,0.1-0.3,0.2h-0.1c-0.3,0.1-0.5,0.3-0.6,0.6
	c-0.2,0.5-0.4,1-0.7,1.5c-0.1,0.1-0.1,0.2-0.1,0.4c0,0.1,0.1,0.2,0.2,0.3s0.3,0.1,0.4,0.1h8.4c0.3,0,0.6-0.1,0.8-0.4l0.4-0.6
	c0.1-0.1,0.2-0.3,0.3-0.5c0.1-0.1,0.2-0.3,0.3-0.4c0.1-0.1,0.1-0.1,0.2-0.1c0.2,0,0.5,0.3,1.1,0.8c0.5,0.4,0.9,0.8,1.3,1.3
	c0.1,0.1,0.1,0.2,0.2,0.4c0,0.1-0.1,0.2-0.2,0.3c-0.2,0.1-0.4,0.2-0.6,0.2h-13.1c-0.3,0-0.6,0.2-0.8,0.4c-0.2,0.4-0.4,0.7-0.7,1.1
	c-0.1,0.1-0.1,0.3-0.2,0.4c0,0.2,0.2,0.4,0.4,0.5l1.3,0.6c0.3,0.1,0.5,0.2,0.8,0.2h7.3c0.3,0,0.6-0.1,0.8-0.4l0.3-0.3
	c0.1-0.1,0.2-0.2,0.3-0.3c0.1-0.1,0.2-0.2,0.3-0.3c0.1-0.1,0.2-0.1,0.2-0.1c0.1,0,0.5,0.2,0.9,0.6c0.4,0.3,0.8,0.7,1.1,1.1
	c0.1,0.1,0.1,0.2,0.1,0.3c0,0.2-0.1,0.3-0.3,0.4l-0.2,0.1c-0.2,0-0.3,0.1-0.4,0.2s-0.2,0.3-0.2,0.5c0,1.9-0.1,3.2-0.2,4.1
	c0,0.2,0,0.3,0,0.5C330,22.2,330.1,22.3,330.1,22.2L330.1,22.2z M308.4,8.1c-0.3-0.3-0.4-0.5-0.3-0.6s0.2-0.1,0.2-0.1
	c0.1,0,0.3,0,0.4,0c1.2,0.2,2.3,0.7,3.2,1.5c0.6,0.5,1,1.2,1,1.9c0,0.3-0.1,0.7-0.3,0.9c-0.2,0.2-0.5,0.4-0.8,0.4
	c-0.2,0-0.3,0-0.5-0.1c-0.3-0.1-0.5-0.3-0.6-0.6c-0.3-0.6-0.6-1.2-1-1.7C309.3,9.1,308.9,8.6,308.4,8.1z M306.1,26.9
	c0-0.1,0.1-0.2,0.2-0.2c0.2-0.1,0.3-0.1,0.5-0.1h0.6c0.2,0,0.3,0,0.4-0.1c0.1-0.2,0.3-0.3,0.3-0.5c0.2-0.5,0.6-1.3,1.1-2.6
	c0.5-1.2,1.4-3.4,2.7-6.5c0.6-1.5,1.1-2.8,1.5-3.7c0.2-0.4,0.3-0.6,0.5-0.6c0.1,0,0.2,0.1,0.2,0.3c0,0.1,0,0.3-0.1,0.4
	c-2.2,6.9-3.4,10.8-3.6,11.7c-0.3,0.9-0.4,1.8-0.4,2.7c0,0.4,0.1,0.7,0.1,1.1c0.1,0.4,0.2,0.6,0.2,0.8c0.2,0.6,0.3,1.1,0.4,1.6
	s0.1,1.1,0.1,1.6c0,0.7-0.1,1.3-0.5,1.9c-0.3,0.5-0.8,0.7-1.3,0.7c-0.2,0-0.5-0.1-0.6-0.3c-0.2-0.2-0.3-0.5-0.4-0.9
	c0-0.1,0-0.3,0-0.4c0-0.1,0-0.3,0-0.4c0.1-0.9,0.2-1.9,0.2-2.8c0-0.7,0-1.3-0.2-2c0-0.4-0.2-0.7-0.5-1c-0.3-0.2-0.6-0.3-0.9-0.4
	C306.3,27.3,306.1,27.1,306.1,26.9z M306.2,15.1c-0.1-0.1-0.2-0.2-0.3-0.3c-0.1-0.1-0.1-0.2,0-0.2c0.1-0.1,0.2-0.1,0.2-0.1
	c0.1,0,0.3,0,0.4,0c1.1,0.2,2.2,0.6,3.1,1.4c0.6,0.5,1,1.1,1,1.9c0,0.3-0.1,0.6-0.3,0.9c-0.2,0.2-0.5,0.4-0.8,0.4
	c-0.2,0-0.3,0-0.5-0.1c-0.3-0.1-0.5-0.3-0.5-0.6c-0.2-0.6-0.5-1.2-0.9-1.7C307.1,16.1,306.7,15.6,306.2,15.1z M318.1,21.7
	c0,0.4,0.2,0.6,0.6,0.6h2.4c0.3,0,0.6-0.2,0.7-0.5v-0.1c0.2-1.3,0.3-2.8,0.5-4.4v-0.1c0-0.4-0.2-0.6-0.6-0.6h-2.2
	c-0.4,0-0.6,0.2-0.7,0.5l-0.7,4.5L318.1,21.7z M324,21.7c0,0.4,0.2,0.6,0.6,0.6h2.6c0.4,0,0.6-0.2,0.6-0.6c0-0.5,0.1-1.1,0.1-1.8
	c0-0.7,0.1-1.2,0.1-1.6v-1c0-0.2-0.1-0.3-0.2-0.5c-0.1-0.1-0.3-0.2-0.5-0.2H325c-0.3,0-0.6,0.2-0.6,0.5l0,0L324,21.7L324,21.7z
	 M317.1,28.5c0,0.4,0.2,0.6,0.6,0.6h2.6c0.4,0,0.7-0.2,0.7-0.6l0,0l0.6-4.7v-0.1c0-0.4-0.2-0.6-0.6-0.6h-2.5c-0.4,0-0.7,0.2-0.7,0.6
	l0,0c-0.2,1.7-0.5,3.2-0.7,4.6V28.5z M327.7,23.8c0-0.4-0.2-0.6-0.6-0.6h-2.6c-0.3,0-0.6,0.2-0.7,0.5v0.1l-0.5,4.6v0.1
	c0,0.4,0.2,0.6,0.6,0.6h2.7c0.4,0,0.6-0.1,0.7-0.4C327.4,26.8,327.6,25.2,327.7,23.8L327.7,23.8z M357.7,15.9c0.3,0,0.6-0.1,0.8-0.4
	l0.3-0.4c0.1-0.1,0.2-0.2,0.2-0.3c0.1-0.1,0.2-0.2,0.3-0.3c0.1-0.1,0.2-0.1,0.3-0.2c0.1,0,0.5,0.2,1,0.7c0.5,0.4,0.9,0.8,1.3,1.2
	c0.1,0.1,0.1,0.2,0.1,0.3c0,0.2-0.1,0.3-0.3,0.4l-0.3,0.2c-0.2,0.1-0.3,0.2-0.4,0.3c-0.1,0.1-0.1,0.3-0.1,0.4v4.9
	c0,2.2,0.1,4.5,0.2,6.8v0.1c0,0.3-0.1,0.5-0.3,0.6c-0.3,0.2-0.6,0.3-0.9,0.4s-0.6,0.2-0.9,0.2c-0.2,0-0.3-0.1-0.4-0.2
	s-0.1-0.2-0.1-0.3c0-0.1,0-0.3,0.1-0.4l0.1-0.3c0-0.4-0.2-0.6-0.6-0.6h-7.5c-0.2,0-0.3,0.1-0.5,0.2c-0.1,0.1-0.2,0.3-0.2,0.5v0.5
	c0,0.2-0.2,0.3-0.6,0.5S348.5,31,348,31c-0.2,0-0.3-0.1-0.5-0.2c-0.1-0.1-0.2-0.3-0.2-0.4c0.1-1.9,0.2-3.9,0.3-6.1v-3.4
	c0-1.8-0.1-3.6-0.3-5.4v-0.1c0-0.3,0.1-0.5,0.4-0.5c0.1,0,0.2,0,0.3,0.1l1.7,0.7c0.3,0.1,0.5,0.2,0.8,0.2h1.1c0.3,0,0.6-0.2,0.7-0.5
	v-0.1l0.2-1.6v-0.1c0-0.4-0.2-0.6-0.6-0.6h-1.7c-1.3,0-2.6,0.1-4,0.3H346c-0.3,0-0.5-0.1-0.6-0.4l-0.1-0.2c-0.1-0.1-0.1-0.2-0.1-0.3
	c0-0.3,0.2-0.4,0.6-0.4c0.7,0.1,1.8,0.1,3.2,0.2h6.1c0.3,0,0.6-0.2,0.7-0.5c0.5-1.4,0.8-2.8,1-4.2c0.1-0.4,0.2-0.6,0.6-0.6
	c0.1,0,0.2,0,0.2,0c1.9,0.5,2.9,0.9,2.9,1.2c0,0.1-0.1,0.2-0.2,0.2l-0.1,0.1c-0.3,0.1-0.5,0.3-0.6,0.5c-0.7,0.9-1.4,1.7-2.2,2.5
	c-0.1,0.1-0.2,0.3-0.2,0.4c0,0.1,0.1,0.2,0.2,0.3s0.3,0.1,0.4,0.1h2.3c0.3,0,0.6-0.2,0.8-0.4l0.4-0.6c0.1-0.1,0.2-0.3,0.3-0.5
	c0.1-0.2,0.2-0.3,0.3-0.4c0.1-0.1,0.1-0.1,0.2-0.1c0.4,0.2,0.8,0.4,1.2,0.8c0.5,0.4,0.9,0.8,1.3,1.3c0.1,0.1,0.1,0.2,0.2,0.4
	c0,0.1-0.1,0.3-0.2,0.3c-0.2,0.1-0.4,0.1-0.6,0.1h-8.1c-0.3,0-0.6,0.2-0.8,0.5c-0.2,0.4-0.5,1-0.9,1.6c-0.1,0.1-0.1,0.2-0.1,0.4
	c0,0.3,0.2,0.4,0.6,0.4L357.7,15.9z M348.5,7.8c-0.1-0.2-0.2-0.4-0.3-0.6c0-0.1,0.1-0.1,0.2-0.1s0.3,0,0.4,0.1
	c1,0.3,1.8,0.8,2.5,1.5c0.5,0.5,0.8,1.1,0.8,1.8c0,0.4-0.1,0.8-0.4,1.1c-0.2,0.3-0.6,0.4-0.9,0.4c-0.2,0-0.4-0.1-0.6-0.2
	c-0.1-0.1-0.2-0.2-0.3-0.3c-0.1-0.1-0.1-0.3-0.2-0.4C349.6,9.9,349.2,8.7,348.5,7.8z M338.2,8.8c-0.2-0.2-0.3-0.3-0.3-0.6
	c0-0.1,0.1-0.1,0.2-0.1c0.2,0,0.3,0,0.5,0.1c1.4,0.4,2.7,1.1,3.7,2.1c0.7,0.6,1.1,1.5,1.2,2.5c0,0.4-0.1,0.8-0.4,1.1
	c-0.2,0.3-0.5,0.4-0.9,0.4c-0.2,0-0.4-0.1-0.6-0.2c-0.3-0.1-0.4-0.4-0.5-0.6c-0.3-0.8-0.6-1.7-1.1-2.4
	C339.4,10.3,338.9,9.5,338.2,8.8z M357.8,19.9c0.2,0,0.3-0.1,0.5-0.2c0.1-0.1,0.2-0.3,0.2-0.5v-1.8c0-0.2-0.1-0.3-0.2-0.5
	c-0.1-0.1-0.3-0.2-0.5-0.2h-7.5c-0.2,0-0.3,0.1-0.5,0.2c-0.1,0.1-0.2,0.3-0.2,0.5v1.8c0,0.2,0.1,0.3,0.2,0.5
	c0.1,0.1,0.3,0.2,0.5,0.2H357.8z M340.1,20.3c0.3,0,0.6-0.1,0.8-0.4l0.3-0.5c0.1-0.1,0.1-0.2,0.3-0.4c0.1-0.1,0.2-0.3,0.3-0.4
	c0.1-0.1,0.2-0.1,0.2-0.1c0.4,0.2,0.8,0.4,1.1,0.7c0.5,0.4,1,0.8,1.4,1.3c0.1,0.1,0.1,0.2,0.1,0.3c0,0.2-0.1,0.3-0.3,0.4l-0.5,0.2
	c-0.3,0.1-0.6,0.4-0.6,0.7v7.1c0,0.3,0.1,0.6,0.3,0.8c0.6,0.6,1.3,1.2,2.1,1.5c0.9,0.4,1.8,0.6,2.7,0.7c1.4,0.1,2.8,0.2,4.2,0.2
	c5,0,8.6,0,11-0.1h0.2c0.1,0,0.2,0,0.4,0.1c0.1,0,0.1,0.1,0.1,0.1c0,0.1-0.1,0.1-0.2,0.2s-0.2,0.1-0.4,0.2c-0.5,0.2-0.9,0.7-1,1.3
	c-0.1,0.3-0.4,0.6-0.7,0.6h-9.3c-1.5,0-2.9-0.1-4.4-0.3c-1-0.2-2-0.6-2.9-1.1c-0.9-0.6-1.6-1.5-2.1-2.4c-0.1-0.2-0.3-0.3-0.5-0.3
	s-0.3,0.1-0.4,0.2c-1.3,1.4-2.5,2.6-3.6,3.6c-0.2,0.2-0.3,0.3-0.3,0.4V35c-0.1,0.1-0.2,0.1-0.3,0.1c-0.2,0-0.4-0.1-0.4-0.3l-0.8-1.6
	c-0.1-0.1-0.1-0.2-0.1-0.4s0.2-0.4,0.4-0.5c0.6-0.3,1.8-0.8,3.4-1.6c0.3-0.1,0.5-0.4,0.5-0.8V22c0-0.2-0.1-0.3-0.2-0.5
	c-0.1-0.1-0.3-0.2-0.5-0.2h-0.7c-0.6,0-1.3,0.1-1.9,0.3c-0.1,0-0.2,0-0.2,0c-0.3,0-0.5-0.2-0.6-0.4l-0.1-0.2
	c-0.1-0.1-0.1-0.2-0.1-0.3c0-0.3,0.2-0.4,0.6-0.4s1.1,0.1,1.9,0.1L340.1,20.3z M358.4,21.4c0-0.2-0.1-0.3-0.2-0.5
	c-0.1-0.1-0.3-0.2-0.5-0.2h-7.5c-0.2,0-0.3,0.1-0.5,0.2c-0.1,0.1-0.2,0.3-0.2,0.5v1.8c0,0.2,0.1,0.3,0.2,0.5
	c0.1,0.1,0.3,0.2,0.5,0.2h7.5c0.2,0,0.3-0.1,0.5-0.2c0.1-0.1,0.2-0.3,0.2-0.5V21.4z M350.2,24.8c-0.2,0-0.3,0.1-0.5,0.2
	c-0.1,0.1-0.2,0.3-0.2,0.5v2c0,0.2,0.1,0.3,0.2,0.5c0.1,0.1,0.3,0.2,0.5,0.2h7.5c0.2,0,0.3-0.1,0.5-0.2c0.1-0.1,0.2-0.3,0.2-0.5v-2
	c0-0.2-0.1-0.3-0.2-0.5c-0.1-0.1-0.3-0.2-0.5-0.2H350.2z M389.8,13.6c0.3,0,0.6-0.1,0.8-0.4l0.3-0.3c0.1-0.1,0.2-0.2,0.4-0.4
	s0.3-0.3,0.4-0.3c0.4,0.1,0.8,0.3,1.1,0.6c0.5,0.3,0.9,0.7,1.3,1.1c0.1,0.1,0.1,0.2,0.1,0.3c0,0.2-0.1,0.3-0.2,0.4l-0.3,0.2
	c-0.2,0.1-0.3,0.2-0.4,0.3s-0.1,0.3-0.1,0.4v2.9c0,2.1,0.1,4.2,0.2,6.3v0.1c0,0.3-0.1,0.5-0.3,0.6c-0.3,0.2-0.6,0.3-0.9,0.4
	s-0.7,0.2-1,0.2c-0.1,0-0.1,0-0.2,0c-0.2-0.1-0.4-0.3-0.4-0.6c0-0.1,0.1-0.2,0.1-0.4c0-0.1,0-0.3,0.1-0.7v-0.2
	c0-0.2-0.1-0.3-0.2-0.5c-0.1-0.1-0.3-0.2-0.5-0.2h-6.8c-0.2,0-0.3,0.1-0.5,0.2c-0.1,0.1-0.2,0.3-0.2,0.5v3c0,2.2,0.1,4.5,0.2,6.7V34
	c0,0.2-0.1,0.4-0.2,0.6c-0.3,0.2-0.6,0.4-0.9,0.6c-0.3,0.1-0.7,0.2-1.1,0.2c-0.2,0-0.4-0.1-0.6-0.2c-0.1-0.1-0.2-0.3-0.2-0.4
	c0.1-1.1,0.2-2.2,0.2-3.3c0-1.1,0.1-2.4,0.1-4.1v-3.3c0-0.2-0.1-0.3-0.2-0.5c-0.1-0.1-0.3-0.2-0.5-0.2h-6.8c-0.2,0-0.3,0.1-0.5,0.2
	c-0.1,0.1-0.2,0.3-0.2,0.5v0.1L372,25v0.2c0,0.2-0.1,0.4-0.2,0.6c-0.3,0.2-0.6,0.4-0.9,0.5s-0.7,0.2-1.1,0.2c-0.2,0-0.3-0.1-0.4-0.2
	s-0.2-0.3-0.2-0.4c0.1-1.2,0.2-2.7,0.2-4.7v-2.7c0-1.8-0.1-3.6-0.3-5.4V13c0-0.3,0.1-0.5,0.4-0.5c0.1,0,0.2,0,0.3,0.1l1.9,0.8
	c0.3,0.1,0.5,0.2,0.8,0.2h6.8c0.2,0,0.3,0,0.5-0.1c0.1-0.1,0.2-0.2,0.2-0.3c0-1.9-0.1-3.7-0.3-5.5V7.5c0-0.2,0.1-0.5,0.4-0.5h0.1
	c0.1,0,0.2,0,0.2,0c0.7,0.2,1.5,0.4,2.2,0.7c0.4,0.2,0.6,0.3,0.6,0.5c0,0.1-0.1,0.2-0.2,0.3l-0.1,0.1c-0.3,0.2-0.4,0.5-0.4,0.8v3.5
	c0,0.2,0.1,0.3,0.2,0.5c0.1,0.1,0.3,0.2,0.5,0.2H389.8z M372.6,14.5c-0.2,0-0.3,0.1-0.5,0.2c-0.1,0.1-0.2,0.3-0.2,0.5v6.9
	c0,0.2,0.1,0.3,0.2,0.5c0.1,0.1,0.3,0.2,0.5,0.2h6.8c0.2,0,0.3-0.1,0.5-0.2c0.1-0.1,0.2-0.3,0.2-0.5v-6.9c0-0.2-0.1-0.3-0.2-0.5
	c-0.1-0.1-0.3-0.2-0.5-0.2L372.6,14.5z M383.1,14.5c-0.2,0-0.3,0.1-0.5,0.2c-0.1,0.1-0.2,0.3-0.2,0.5v6.9c0,0.2,0.1,0.3,0.2,0.5
	c0.1,0.1,0.3,0.2,0.5,0.2h6.8c0.2,0,0.3-0.1,0.5-0.2c0.1-0.1,0.2-0.3,0.2-0.5v-6.9c0-0.2-0.1-0.3-0.2-0.5c-0.1-0.1-0.3-0.2-0.5-0.2
	L383.1,14.5z M418.3,12.9c0.3,0,0.6-0.1,0.8-0.4l0.3-0.4l0.3-0.4c0.1-0.1,0.2-0.2,0.3-0.4c0.1-0.1,0.2-0.1,0.2-0.1
	c0.4,0.1,0.8,0.4,1.1,0.7c0.5,0.4,0.9,0.8,1.2,1.2c0.1,0.1,0.1,0.2,0.1,0.3c0,0.2-0.1,0.3-0.2,0.4l-0.3,0.2
	c-0.2,0.1-0.3,0.2-0.4,0.3s-0.1,0.3-0.1,0.4v7.4c0,0.2,0,0.3,0.1,0.5c0,0.1,0.1,0.2,0.2,0.2c0.2,0,0.4-0.2,0.6-0.5l0.4-0.7
	c0.1-0.1,0.2-0.3,0.3-0.6s0.2-0.4,0.3-0.5c0.1-0.1,0.1-0.2,0.2-0.2s0.5,0.3,1.1,0.9c0.5,0.5,0.9,1,1.3,1.5c0.1,0.1,0.1,0.3,0.1,0.4
	s-0.1,0.2-0.2,0.3c-0.2,0.1-0.4,0.2-0.6,0.2h-11.1c-0.1,0-0.3,0-0.4,0.1s-0.2,0.2-0.2,0.3c0,0.1,0,0.2,0.1,0.3
	c0.9,1.9,2.3,3.5,4,4.7c2.3,1.7,4.9,2.9,7.6,3.7c0.4,0.1,0.6,0.3,0.6,0.4c0,0.1-0.1,0.1-0.2,0.2c-0.1,0.1-0.3,0.1-0.4,0.2
	c-0.7,0.1-1.3,0.7-1.6,1.4c-0.1,0.3-0.3,0.5-0.5,0.5c-0.1,0-0.2,0-0.3-0.1c-2.6-1-4.9-2.7-6.7-4.8c-1.5-1.8-2.6-4-3.3-6.2
	c-0.1-0.4-0.3-0.6-0.4-0.6c-0.2,0-0.3,0.2-0.4,0.6c-0.7,2.6-2.1,4.9-4.1,6.7c-2.6,2.1-5.6,3.6-8.8,4.4c-0.1,0-0.3,0.1-0.4,0.1
	s-0.2,0-0.3-0.2v-0.1c0-0.1,0.1-0.1,0.2-0.2c0.1-0.1,0.3-0.2,0.4-0.2c2.6-0.9,5-2.4,7.1-4.3c1.6-1.7,2.9-3.8,3.5-6
	c0-0.1,0-0.1,0-0.2c0-0.3-0.2-0.5-0.6-0.5h-5.6c-1.4,0-2.7,0.1-4.1,0.3h-0.2c-0.3,0-0.5-0.1-0.6-0.4l-0.1-0.2
	c-0.1-0.1-0.1-0.2-0.1-0.3c0-0.1,0.1-0.2,0.2-0.3c0.1-0.1,0.3-0.1,0.5-0.1c0.5,0,1.1,0.1,2,0.1h0.7c0.2,0,0.3-0.1,0.5-0.2
	c0.1-0.1,0.2-0.3,0.2-0.5V18c0-1.8-0.1-3.6-0.3-5.4v-0.1c0-0.3,0.1-0.5,0.4-0.5c0.1,0,0.2,0,0.3,0.1l1.9,0.8
	c0.2,0.1,0.5,0.2,0.8,0.2h4.5c0.3,0,0.6-0.2,0.6-0.5c0-0.1,0-0.1,0-0.2V8c0-0.2,0.1-0.4,0.2-0.5c0.2-0.1,0.4-0.1,0.6-0.1
	c0.7,0.1,1.3,0.3,2,0.6c0.4,0.2,0.6,0.3,0.6,0.4c0,0.1-0.1,0.2-0.2,0.3l-0.1,0.1c-0.3,0.2-0.4,0.5-0.4,0.8v2.8
	c0,0.2,0.1,0.3,0.2,0.5c0.1,0.1,0.3,0.2,0.5,0.2L418.3,12.9z M410.9,14.4c0-0.3-0.2-0.6-0.5-0.6c-0.1,0-0.1,0-0.2,0h-4.6
	c-0.2,0-0.3,0.1-0.5,0.2c-0.1,0.1-0.2,0.3-0.2,0.5v7.7c0,0.2,0.1,0.3,0.2,0.5c0.1,0.1,0.3,0.2,0.5,0.2h4.1c0.4,0,0.6-0.2,0.7-0.5
	c0.2-1.1,0.3-2.3,0.4-3.4C410.8,17.7,410.8,16.2,410.9,14.4L410.9,14.4z M419.1,14.4c0-0.2-0.1-0.3-0.2-0.5
	c-0.1-0.1-0.3-0.2-0.5-0.2H414c-0.3,0-0.6,0.2-0.6,0.5c0,0.1,0,0.1,0,0.2c0,1.7-0.1,3.1-0.2,4.3c-0.1,1.1-0.2,2.2-0.4,3.3v0.2
	c0,0.4,0.2,0.6,0.6,0.6h5.1c0.2,0,0.4,0,0.5-0.2c0.1-0.1,0.2-0.3,0.2-0.5L419.1,14.4z M456.4,15c-0.2,0-0.5-0.1-0.6-0.2
	c-0.2-0.2-0.4-0.4-0.6-0.6c-0.3-0.5-0.7-0.9-1.1-1.4c-0.4-0.4-0.8-0.7-1.2-0.9c-0.1-0.1-0.3-0.2-0.4-0.2c-0.1-0.1-0.3-0.1-0.4-0.2
	c-0.1-0.1-0.2-0.1-0.2-0.2c0-0.2,0.3-0.2,0.9-0.2s1.3,0.1,1.9,0.3c0.7,0.2,1.4,0.5,2,0.9c0.5,0.4,0.9,1,0.9,1.7
	c0,0.3-0.1,0.6-0.3,0.8C456.9,15,456.6,15.1,456.4,15L456.4,15z M453.3,18c-0.6,0-1.1-0.3-1.3-0.9c-0.3-0.6-0.6-1.1-1-1.6
	s-0.8-0.8-1.4-1.1c-0.1-0.1-0.2-0.1-0.4-0.2c-0.1-0.1-0.2-0.1-0.3-0.2c-0.1,0-0.1-0.1-0.1-0.2c0-0.1,0.1-0.2,0.4-0.2
	c0.6,0,1.2,0.1,1.8,0.3c0.8,0.2,1.6,0.5,2.3,1c0.6,0.4,1,1.1,1,1.8c0,0.3-0.1,0.7-0.4,0.9C453.9,17.9,453.6,18,453.3,18L453.3,18z
	 M453.7,27.1c-0.3,0-0.6-0.1-0.7-0.4c-0.3-0.4-0.5-0.7-0.6-1.1c-1.3-3.4-3.7-6.4-6.6-8.6c-0.2-0.1-0.3-0.3-0.3-0.3
	c0-0.1,0.1-0.2,0.2-0.2s0.2,0,0.3,0.1c1.4,0.6,2.8,1.3,4.1,2.2c1.4,0.9,2.7,2,3.8,3.2c0.9,0.8,1.4,1.8,1.6,3c0,0.6-0.2,1.1-0.5,1.6
	C454.6,26.9,454.1,27.1,453.7,27.1L453.7,27.1z M428.2,28.8c-0.1,0-0.2,0-0.2-0.1s0.2-0.3,0.5-0.5c1.7-1,3.3-2.2,4.8-3.5
	c1.2-1.1,2.4-2.3,3.3-3.6c0.6-0.7,1.1-1.6,1.2-2.5c0-0.4-0.2-0.7-0.7-0.9c-0.1,0-0.2-0.1-0.3-0.2c-0.1,0-0.2-0.1-0.3-0.2
	c-0.1,0-0.1-0.1-0.1-0.2c0-0.3,0.6-0.5,1.8-0.5c0.8,0,1.6,0.2,2.3,0.7c0.6,0.4,1,1,1.1,1.7c-0.1,0.4-0.2,0.8-0.5,1.1
	c-1.5,1.8-3.3,3.5-5.3,4.8c-2.1,1.5-4.5,2.8-6.9,3.7C428.5,28.7,428.4,28.8,428.2,28.8L428.2,28.8z M476.2,21.7
	c-0.1,0.1-0.2,0.3-0.2,0.4c0,0.2,0.1,0.4,0.4,0.5c1.9,0.8,3.6,1.8,5.3,3.1c1.6,1.2,2.3,2.4,2.3,3.5c0,0.4-0.1,0.8-0.4,1.1
	c-0.2,0.3-0.6,0.5-0.9,0.5c-0.4,0-0.7-0.2-1-0.4c-0.4-0.3-0.6-0.7-0.9-1.2c-0.6-1.3-1.4-2.4-2.3-3.5c-0.8-1-1.7-1.9-2.8-2.6
	c-0.1-0.1-0.3-0.1-0.4-0.2c-0.2,0-0.4,0.1-0.5,0.2c-3.6,4-8,7.2-13,9.2c-0.1,0-0.2,0.1-0.3,0.1c-0.1,0-0.2-0.1-0.2-0.2
	c0-0.1,0.1-0.2,0.3-0.3c2.3-1.3,4.5-2.9,6.4-4.7c2-1.8,3.8-3.9,5.5-6c1.3-1.6,2.3-3.3,3.2-5.2c0.1-0.2,0.1-0.3,0.2-0.5
	c0,0,0-0.1,0-0.2c0-0.1-0.1-0.2-0.3-0.2c-1.1,0.2-2.2,0.4-3.2,0.7c-1.3,0.3-2.5,0.7-3.7,1.2l-0.5,0.3c-0.2,0.1-0.4,0.2-0.6,0.2
	c-0.5,0-1.1-0.2-1.5-0.6c-0.5-0.4-0.8-0.8-1.1-1.3c-0.2-0.4-0.4-0.8-0.4-1.2c0-0.3,0.1-0.4,0.2-0.4s0.3,0.1,0.4,0.2
	c0.2,0.1,0.4,0.3,0.6,0.4c0.4,0.2,0.9,0.3,1.4,0.2c0.4,0,1.8-0.2,4.1-0.5c2.3-0.4,3.7-0.6,4.3-0.8c0.4-0.1,0.7-0.3,1.1-0.5
	c0.2-0.2,0.5-0.3,0.7-0.3c0.4,0.1,0.7,0.2,1.1,0.4c0.4,0.3,0.9,0.6,1.2,1c0.3,0.2,0.5,0.6,0.5,1c0,0.2-0.1,0.3-0.2,0.4
	c-0.2,0.2-0.4,0.3-0.6,0.5c-0.2,0.1-0.3,0.3-0.5,0.4s-0.3,0.3-0.4,0.4C478.5,18.6,477.4,20.2,476.2,21.7L476.2,21.7z"/>
</svg>
