<?xml version="1.0" encoding="utf-8"?>
<!-- Generator: Adobe Illustrator 24.3.0, SVG Export Plug-In . SVG Version: 6.00 Build 0)  -->
<svg version="1.1" id="レイヤー_1" xmlns="http://www.w3.org/2000/svg" xmlns:xlink="http://www.w3.org/1999/xlink" x="0px"
	 y="0px" viewBox="0 0 1143.8 84.6" style="enable-background:new 0 0 1143.8 84.6;" xml:space="preserve">
<style type="text/css">
	.st0{fill:#EFEFEF;}
	.st1{fill:#6CBFD7;}
</style>
<g transform="translate(-385.964 -5374.172)">
	<path class="st0" d="M389.4,5452c0,0.2-0.1,0.5-0.2,0.6c-0.2,0.2-0.4,0.2-0.6,0.2h-0.1c-0.2,0-0.5-0.1-0.6-0.2
		c-0.2-0.2-0.2-0.4-0.2-0.6v-30.7c0-0.2,0.1-0.5,0.2-0.6c0.2-0.2,0.4-0.2,0.6-0.2h11.8c0.2,0,0.5,0.1,0.6,0.2
		c0.2,0.2,0.2,0.4,0.2,0.6v0.1c0,0.2-0.1,0.5-0.2,0.6c-0.2,0.2-0.4,0.2-0.6,0.2h-10c-0.2,0-0.5,0.1-0.6,0.2
		c-0.2,0.2-0.2,0.4-0.2,0.6L389.4,5452L389.4,5452z M417.3,5447.5c0-0.2,0-0.4-0.1-0.5s-0.2-0.2-0.3-0.2c-0.2,0-0.4,0.1-0.5,0.2
		c-2.7,1.8-5.1,3.5-7.4,4.8c-0.2,0.1-0.4,0.3-0.6,0.5c0,0.1,0,0.1-0.1,0.2c-0.1,0.2-0.2,0.3-0.4,0.3c-0.3,0-0.5-0.2-0.7-0.5
		l-1.1-2.5c-0.1-0.1-0.1-0.3-0.1-0.4c0-0.3,0.2-0.5,0.6-0.6c2.9-0.9,6.2-2,10-3.3c0.4-0.1,0.7-0.5,0.7-1v-9.6c0-0.2-0.1-0.5-0.2-0.6
		c-0.2-0.2-0.4-0.2-0.6-0.2h-2.8c-1.8,0-3.5,0.2-5.3,0.4h-0.2c-0.4,0-0.7-0.2-0.8-0.5l-0.2-0.4c-0.1-0.1-0.1-0.3-0.1-0.5
		s0.1-0.3,0.2-0.4c0.2-0.1,0.4-0.1,0.6-0.1c0.9,0.1,2.3,0.1,4.1,0.2h4.6c0.2,0,0.5-0.1,0.6-0.2c0.2-0.2,0.2-0.4,0.2-0.6v-2
		c0-2.4-0.1-4.8-0.4-7.2v-0.2c0-0.3,0.2-0.6,0.5-0.6c0.1,0,0.1,0,0.2,0s0.2,0,0.3,0c0.9,0.2,1.8,0.5,2.7,0.9
		c0.5,0.2,0.8,0.4,0.8,0.6c0,0.1-0.1,0.3-0.4,0.4l-0.1,0.1c-0.4,0.2-0.6,0.6-0.6,1v21.7c0.1,2.9,0.1,5.8,0.3,8.8v0.2
		c0,0.3-0.1,0.6-0.3,0.8c-0.3,0.3-0.7,0.5-1.1,0.6c-0.4,0.2-0.9,0.3-1.3,0.3c-0.2,0-0.5-0.1-0.6-0.2c-0.2-0.1-0.2-0.3-0.2-0.6
		c0.2-2.2,0.3-4.4,0.3-6.6L417.3,5447.5z M429.3,5424.2c-0.2,0.2-0.4,0.6-0.3,0.9v11.3c0,0.2,0,0.4,0.1,0.5s0.2,0.2,0.3,0.2
		c0.2,0,0.4-0.1,0.6-0.3c0.7-0.7,1.5-1.5,2.3-2.4c1.6-1.7,3-3.6,4.2-5.6c0.1-0.3,0.3-0.5,0.6-0.5c0.2,0,0.4,0.1,0.6,0.2
		c2,1.5,3,2.4,3,2.7c0,0.1-0.1,0.2-0.4,0.2h-0.2c-0.4,0-0.8,0.1-1,0.4c-1.4,1.2-2.8,2.4-4.4,3.4c-1.7,1.2-3.4,2.2-5.2,3.2
		c-0.4,0.2-0.6,0.6-0.6,1v12.4c0,0.4,0.1,0.7,0.3,1c0.4,0.2,0.9,0.3,1.4,0.3h3.4c1.4,0,2.5,0,3.2-0.1c0.4,0,0.7-0.2,0.8-0.5
		c0.6-1.6,1-3.2,1.3-4.9c0.1-0.5,0.2-0.8,0.4-0.8c0.1,0,0.1,0.1,0.2,0.2c0.1,0.2,0.1,0.4,0.1,0.6l0.1,4.3c0,0.4,0.3,0.8,0.6,1
		c0.4,0.2,0.6,0.6,0.6,1.1s-0.2,1-0.6,1.2c-0.7,0.4-1.5,0.6-2.2,0.6c-1.5,0.1-3.1,0.2-4.6,0.2h-3.8c-0.9,0-1.8-0.1-2.6-0.3
		c-0.6-0.2-1-0.6-1.3-1.1c-0.3-0.7-0.4-1.4-0.4-2.2V5430c0-2.4-0.1-4.8-0.4-7.2v-0.2c0-0.4,0.2-0.6,0.6-0.6c0.1,0,0.3,0,0.4,0.1
		c0.9,0.2,1.8,0.6,2.7,0.9c0.5,0.2,0.8,0.4,0.8,0.6c0,0.1-0.1,0.3-0.3,0.4L429.3,5424.2z M447.1,5454.4c-0.1,0-0.2,0-0.2-0.1
		s-0.1-0.3-0.1-0.4s0-0.3,0.1-0.4c0-0.1,0.1-0.1,0.2-0.1h0.6c3,0,4.6-0.9,4.6-2.7v-18.6c0-0.6,0-1.3-0.3-1.8
		c-0.2-0.4-0.6-0.6-1.1-0.7c-1-0.1-1.9-0.2-2.9-0.1h-0.9c-0.2,0-0.3-0.2-0.3-0.6s0.1-0.6,0.3-0.6c2.8,0,5.6-0.9,7.9-2.6
		c0.1-0.1,0.3-0.2,0.5-0.2c0.1,0,0.3,0.1,0.3,0.2c0.1,0.2,0.1,0.3,0.1,0.5v24.4c0,1.8,1.5,2.7,4.6,2.7h0.6c0.1,0,0.2,0.1,0.2,0.1
		c0,0.1,0.1,0.3,0.1,0.4c0,0.4-0.1,0.6-0.3,0.6L447.1,5454.4L447.1,5454.4z M475.1,5454.9c-1.6,0-3.2-0.6-4.5-1.7
		c-1.6-1.4-2.7-3.1-3.4-5.1c-0.9-2.7-1.4-5.5-1.3-8.3c-0.1-2.8,0.4-5.6,1.3-8.3c0.7-2,1.8-3.7,3.4-5.1c1.3-1.1,2.9-1.7,4.5-1.7
		s3.2,0.6,4.5,1.7c1.6,1.4,2.8,3.1,3.4,5.1c0.9,2.7,1.4,5.5,1.3,8.3c0.1,2.8-0.4,5.6-1.3,8.3c-0.7,2-1.9,3.7-3.4,5.1
		C478.4,5454.3,476.8,5454.9,475.1,5454.9z M475.2,5453.5c1.6,0,2.9-1.1,3.8-3.4s1.4-5.7,1.4-10.2s-0.5-8-1.4-10.3s-2.2-3.4-3.8-3.4
		c-1.6,0-2.9,1.1-3.8,3.4s-1.4,5.7-1.4,10.3s0.5,8,1.4,10.2C472.3,5452.4,473.6,5453.5,475.2,5453.5z M510.8,5424.8
		c0.4,0,0.8-0.1,1-0.4l0.6-0.6c0.2-0.1,0.4-0.3,0.7-0.6c0.2-0.2,0.4-0.3,0.7-0.4c0.2,0,0.6,0.3,1.3,1c0.6,0.5,1.1,1.1,1.6,1.7
		c0.1,0.1,0.1,0.3,0.1,0.4c0,0.2-0.2,0.5-0.4,0.5c-0.2,0.1-0.3,0.1-0.5,0.1c-0.4,0-0.8,0.3-1,0.6c-1.5,2-3.2,3.9-5.1,5.5
		c-0.2,0.1-0.3,0.3-0.4,0.6c0,0.2,0.2,0.4,0.5,0.6c4.2,1.6,8.7,2.7,13.2,3.1c0.6,0,0.8,0.1,0.8,0.3c0,0.1-0.1,0.2-0.2,0.2
		c-0.1,0.1-0.3,0.2-0.5,0.2c-0.8,0.4-1.5,1.1-1.8,2c-0.1,0.5-0.6,0.7-1,0.6l0,0c-4.7-0.8-9.2-2.4-13.2-5c-0.2-0.1-0.4-0.2-0.6-0.2
		s-0.4,0.1-0.6,0.2c-5.1,2.9-10.7,4.9-16.5,5.7c-0.1,0-0.2,0-0.3,0c-0.3,0-0.5-0.1-0.5-0.2l0,0c0-0.2,0.3-0.3,0.8-0.5
		c5.1-1.3,9.9-3.5,14.3-6.5c0.2-0.1,0.4-0.4,0.4-0.6s-0.1-0.4-0.3-0.6c-1.2-1.2-2.2-2.5-3-3.9c-0.1-0.2-0.3-0.4-0.6-0.4
		c-0.2,0-0.4,0.1-0.6,0.2c-2.6,2.4-5.5,4.4-8.7,5.8c-0.2,0.1-0.4,0.1-0.6,0.2c-0.1,0-0.2,0-0.3-0.1v-0.1c0-0.2,0.2-0.4,0.6-0.6
		c2.5-1.7,4.8-3.9,6.6-6.3c0.8-1,1.5-2,2.1-3.1c0.6-1,1.1-2.1,1.5-3.3c0.1-0.3,0.4-0.6,0.7-0.6c0.1,0,0.3,0,0.4,0.1
		c2.6,0.9,3.8,1.5,3.8,1.8c0,0.1-0.1,0.1-0.4,0.2h-0.2c-0.4,0.1-0.7,0.3-1,0.6c-0.1,0.2-0.3,0.4-0.4,0.6s-0.2,0.4-0.2,0.6
		c0,0.1,0.1,0.3,0.2,0.3c0.2,0.1,0.3,0.1,0.5,0.1h6.5V5424.8z M510.6,5427c0.1-0.1,0.2-0.3,0.2-0.5c0-0.3-0.2-0.5-0.7-0.5h-7.2
		c-0.4,0-0.8,0.2-1,0.5l-0.2,0.2c-0.2,0.2-0.3,0.4-0.3,0.6s0.1,0.4,0.2,0.6c1.2,1.4,2.5,2.6,4,3.6c0.2,0.1,0.4,0.2,0.6,0.2
		s0.5-0.1,0.6-0.3C508.2,5430,509.5,5428.5,510.6,5427z M517.4,5443.7c0.4,0,0.8-0.2,1-0.5l0.6-0.8c0.1-0.2,0.3-0.4,0.5-0.7
		c0.1-0.2,0.3-0.4,0.4-0.6c0.1-0.1,0.2-0.2,0.3-0.2c0.6,0.2,1.1,0.6,1.6,1.1c0.7,0.5,1.3,1.1,1.9,1.8c0.1,0.1,0.2,0.3,0.2,0.4
		c0,0.2-0.1,0.4-0.2,0.5c-0.2,0.1-0.4,0.2-0.7,0.2h-12.6c-0.5,0-0.8,0.2-0.8,0.5c0,0.2,0.1,0.4,0.3,0.5c1.8,1.8,3.9,3.2,6.2,4.3
		c2.4,1.2,4.9,2.1,7.5,2.7c0.5,0.1,0.8,0.3,0.8,0.4s-0.1,0.2-0.3,0.3c-0.2,0.1-0.3,0.1-0.4,0.2c-0.8,0.4-1.4,1.1-1.8,2
		c-0.2,0.4-0.4,0.6-0.7,0.6c-0.1,0-0.3,0-0.4-0.1c-2.6-1-5.1-2.5-7.3-4.3c-2.1-1.8-3.9-4-5.3-6.4c-0.1-0.2-0.2-0.4-0.4-0.6h-0.1v3.9
		c0.1,3.1,0.2,5.5,0.2,7v0.2c0,0.3-0.1,0.6-0.4,0.8c-0.3,0.2-0.7,0.4-1.1,0.5s-0.9,0.2-1.4,0.2c-0.2,0-0.5-0.1-0.6-0.2
		c-0.2-0.1-0.2-0.3-0.2-0.6c0.2-2.2,0.3-4.4,0.3-6.6v-2.2c0-0.5-0.1-0.7-0.4-0.7c-0.2,0-0.4,0.1-0.6,0.3c-4,4.1-8.9,7.1-14.4,8.9
		c-0.2,0.1-0.4,0.1-0.6,0.1s-0.3-0.1-0.3-0.2v-0.1c0-0.2,0.2-0.4,0.6-0.6c2.3-1.2,4.5-2.7,6.5-4.4c1.9-1.6,3.7-3.4,5.2-5.4
		c0.1-0.1,0.2-0.3,0.2-0.5s-0.1-0.3-0.2-0.4c-0.2-0.1-0.3-0.1-0.5-0.1h-4.8c-1.8,0-3.5,0.2-5.3,0.4h-0.2c-0.4,0-0.7-0.2-0.8-0.5
		l-0.2-0.3c-0.1-0.2-0.1-0.3-0.2-0.5c0-0.2,0.1-0.3,0.2-0.4c0.2-0.1,0.4-0.1,0.6-0.1c0.9,0.1,2.3,0.1,4.1,0.2h10.2
		c0.4,0.1,0.8-0.2,0.8-0.6c0-0.1,0-0.1,0-0.2c0-1.2-0.1-2.4-0.2-3.6v-0.1c0-0.5,0.2-0.7,0.6-0.7c0.1,0,0.2,0,0.3,0
		c0.9,0.2,1.8,0.6,2.7,0.9c0.5,0.2,0.8,0.4,0.8,0.6c0,0.1-0.1,0.3-0.4,0.4l-0.1,0.1c-0.4,0.2-0.6,0.6-0.6,1v1.4
		c0,0.2,0.1,0.5,0.2,0.6c0.2,0.2,0.4,0.2,0.6,0.2L517.4,5443.7L517.4,5443.7z M554.1,5431.4c0.4,0,0.8-0.2,1-0.6l0.4-0.5
		c0.1-0.1,0.2-0.3,0.3-0.4c0.1-0.2,0.2-0.3,0.3-0.4s0.2-0.2,0.3-0.2c0.5,0.2,1,0.5,1.4,0.9c0.6,0.5,1.2,1,1.7,1.6
		c0.1,0.1,0.2,0.3,0.2,0.4c0,0.2-0.2,0.5-0.4,0.6c0,0-0.1,0.1-0.2,0.1l-0.2,0.1c-0.2,0.1-0.4,0.2-0.5,0.4c-0.1,0.2-0.2,0.4-0.2,0.6
		v3.2c0.1,3.2,0.2,5.5,0.2,7v0.2c0,0.3-0.1,0.6-0.4,0.8c-0.4,0.2-0.8,0.4-1.2,0.6s-0.8,0.2-1.3,0.3c-0.1,0-0.3-0.1-0.3-0.2
		c-0.1-0.2-0.2-0.4-0.1-0.6v-0.3c0-0.2-0.1-0.5-0.2-0.6c-0.2-0.2-0.4-0.2-0.6-0.2h-4.5c-0.5,0-0.7,0.2-0.7,0.5
		c0,0.2,0.1,0.4,0.2,0.6c1.9,1.9,4,3.6,6.4,4.9c2.5,1.4,5.1,2.5,7.8,3.3c0.6,0.1,0.8,0.3,0.8,0.4s-0.1,0.2-0.3,0.3
		c-0.2,0.1-0.3,0.1-0.4,0.2c-0.8,0.4-1.4,1-1.7,1.8c-0.1,0.3-0.4,0.5-0.7,0.6c-0.1,0-0.3,0-0.4-0.1c-2.5-1.1-4.8-2.6-6.8-4.3
		c-2.1-1.7-3.8-3.8-5.3-6.1c-0.2-0.3-0.4-0.4-0.6-0.4c-0.3,0-0.4,0.2-0.4,0.7v2.2c0.1,3.3,0.2,5.8,0.2,7.5v0.2
		c0,0.3-0.1,0.6-0.3,0.8c-0.3,0.3-0.7,0.5-1.1,0.7c-0.4,0.2-0.9,0.3-1.4,0.3c-0.2,0-0.5-0.1-0.7-0.2s-0.2-0.3-0.2-0.6
		c0.2-2.1,0.3-4.2,0.3-6.4v-2.2c0-0.2,0-0.4-0.1-0.5s-0.2-0.2-0.3-0.2c-0.2,0-0.4,0.1-0.6,0.3c-1.9,1.9-4,3.5-6.3,4.9
		c-2.4,1.5-5,2.7-7.7,3.7c-0.2,0.1-0.4,0.1-0.6,0.1c-0.1,0-0.2,0-0.3-0.1v-0.1c0-0.2,0.2-0.4,0.6-0.6c2.5-1.4,4.9-3,7.1-4.9
		c2.1-1.8,4-3.8,5.6-6c0.1-0.1,0.2-0.3,0.2-0.5c0-0.1-0.1-0.3-0.2-0.3c-0.2-0.1-0.3-0.1-0.5-0.1H538c-0.2,0-0.5,0.1-0.6,0.2
		c-0.2,0.2-0.2,0.4-0.2,0.6v0.4c0,0.2-0.3,0.4-0.9,0.7c-0.5,0.3-1.1,0.4-1.7,0.4c-0.2,0-0.4-0.1-0.5-0.2c-0.1-0.2-0.2-0.4-0.2-0.6
		c0.1-1.2,0.2-2.8,0.2-4.7v-2.8c0-2.4-0.1-4.7-0.4-7v-0.2c0-0.4,0.2-0.6,0.5-0.6c0.1,0,0.3,0,0.4,0.1l2.3,1c0.3,0.1,0.7,0.2,1,0.2
		h5.6c0.2,0,0.5-0.1,0.6-0.2c0.2-0.2,0.2-0.4,0.2-0.6v-2.4c0-0.2-0.1-0.5-0.2-0.6c-0.2-0.2-0.4-0.2-0.6-0.2h-7.7
		c-1.8,0-3.5,0.2-5.3,0.4h-0.2c-0.4,0-0.7-0.2-0.8-0.5l-0.2-0.4c-0.1-0.1-0.1-0.3-0.1-0.4c0-0.4,0.3-0.6,0.8-0.5
		c0.9,0.1,2.3,0.1,4.1,0.2h9.4c0.4,0.1,0.8-0.2,0.8-0.6c0-0.1,0-0.1,0-0.2c-0.1-1.4-0.1-2.6-0.2-3.8v-0.1c0-0.5,0.2-0.7,0.6-0.7
		l0.4,0.1c0.9,0.2,1.8,0.5,2.7,0.9c0.5,0.2,0.8,0.4,0.8,0.6c0,0.1-0.1,0.3-0.4,0.4l-0.1,0.1c-0.4,0.2-0.6,0.6-0.6,1v1.5
		c0,0.2,0.1,0.5,0.2,0.6c0.2,0.2,0.4,0.2,0.6,0.2h7.8c0.4,0,0.8-0.2,1-0.5l0.7-0.9c0.1-0.2,0.3-0.4,0.5-0.6s0.4-0.5,0.5-0.6
		s0.2-0.2,0.3-0.2c0.6,0.3,1.2,0.6,1.7,1.1c0.7,0.6,1.4,1.2,2,1.8c0.1,0.1,0.2,0.3,0.2,0.5s-0.1,0.3-0.2,0.4
		c-0.2,0.1-0.5,0.2-0.8,0.2h-13.6c-0.2,0-0.5,0.1-0.6,0.2c-0.2,0.2-0.2,0.4-0.2,0.6v2.4c0,0.2,0.1,0.5,0.2,0.6
		c0.2,0.2,0.4,0.2,0.6,0.2h5.7V5431.4z M543.7,5436.9c0.2,0,0.5-0.1,0.6-0.2c0.2-0.2,0.2-0.4,0.2-0.6v-2.7c0-0.2-0.1-0.5-0.2-0.6
		c-0.2-0.2-0.4-0.2-0.6-0.2h-5.6c-0.2,0-0.5,0.1-0.6,0.2c-0.2,0.2-0.2,0.4-0.2,0.6v2.7c0,0.2,0.1,0.5,0.2,0.6
		c0.2,0.2,0.4,0.2,0.6,0.2H543.7z M554.3,5436.9c0.2,0,0.5-0.1,0.6-0.2c0.2-0.2,0.2-0.4,0.2-0.6v-2.7c0-0.2-0.1-0.5-0.2-0.6
		c-0.2-0.2-0.4-0.2-0.6-0.2h-5.8c-0.2,0-0.5,0.1-0.6,0.2c-0.2,0.2-0.2,0.4-0.2,0.6v2.7c0,0.2,0.1,0.5,0.2,0.6
		c0.2,0.2,0.4,0.2,0.6,0.2H554.3z M544.6,5438.9c0-0.2-0.1-0.5-0.2-0.6c-0.2-0.2-0.4-0.2-0.6-0.2h-5.6c-0.2,0-0.5,0.1-0.6,0.2
		c-0.2,0.2-0.2,0.4-0.2,0.6v2.9c0,0.2,0.1,0.5,0.2,0.6c0.2,0.2,0.4,0.2,0.6,0.2h5.6c0.2,0,0.5-0.1,0.6-0.2c0.2-0.2,0.2-0.4,0.2-0.6
		V5438.9z M548.5,5438.1c-0.2,0-0.5,0.1-0.6,0.2c-0.2,0.2-0.2,0.4-0.2,0.6v2.9c0,0.2,0.1,0.5,0.2,0.6c0.2,0.2,0.4,0.2,0.6,0.2h5.8
		c0.2,0,0.5-0.1,0.6-0.2c0.2-0.2,0.2-0.4,0.2-0.6v-2.9c0-0.2-0.1-0.5-0.2-0.6c-0.2-0.2-0.4-0.2-0.6-0.2H548.5z M569.9,5454.4
		c-0.1,0-0.2,0-0.2-0.1s-0.1-0.3-0.1-0.4s0-0.3,0.1-0.4c0-0.1,0.1-0.1,0.2-0.1h0.6c3,0,4.6-0.9,4.6-2.7v-18.6c0-0.6,0-1.3-0.3-1.8
		c-0.2-0.4-0.6-0.6-1.1-0.7c-1-0.1-1.9-0.2-2.9-0.1h-0.9c-0.2,0-0.3-0.2-0.3-0.6s0.1-0.6,0.3-0.6c2.8,0,5.6-0.9,7.9-2.6
		c0.1-0.1,0.3-0.2,0.5-0.2c0.1,0,0.3,0.1,0.3,0.2c0.1,0.2,0.1,0.3,0.1,0.5v24.4c0,1.8,1.5,2.7,4.6,2.7h0.6c0.1,0,0.2,0.1,0.2,0.1
		c0,0.1,0.1,0.3,0.1,0.4c0,0.4-0.1,0.6-0.3,0.6L569.9,5454.4L569.9,5454.4z M605.6,5427.3c0-0.2-0.1-0.5-0.2-0.6
		c-0.2-0.2-0.4-0.2-0.6-0.2h-8.4c-1.8,0-3.5,0.2-5.3,0.4h-0.2c-0.4,0-0.7-0.2-0.8-0.5l-0.2-0.4c-0.1-0.1-0.1-0.3-0.1-0.5
		c0-0.4,0.3-0.5,0.8-0.5c0.9,0.1,2.3,0.1,4.2,0.2h22.6c0.4,0,0.8-0.2,1-0.5l0.7-1c0.1-0.1,0.3-0.3,0.5-0.6c0.2-0.2,0.3-0.4,0.5-0.7
		c0.1-0.1,0.2-0.2,0.4-0.2c0.7,0.3,1.2,0.7,1.7,1.2c0.7,0.6,1.4,1.2,2.1,1.9c0.1,0.1,0.2,0.3,0.2,0.4c0,0.2-0.1,0.3-0.2,0.4
		c-0.2,0.1-0.5,0.2-0.8,0.2h-13.6c-0.2,0-0.5,0.1-0.6,0.2c-0.2,0.2-0.2,0.4-0.2,0.6v25.5c0,0.8-0.1,1.5-0.3,2.2
		c-0.2,0.6-0.7,1.2-1.3,1.5c-0.9,0.5-1.9,0.8-2.9,0.9h-0.2c-0.2,0-0.4,0-0.5-0.2s-0.2-0.3-0.3-0.5c-0.1-0.6-0.5-1.2-1-1.6
		c-1.1-0.6-2.4-1-3.7-1.2c-0.5-0.1-0.8-0.2-0.8-0.4c0-0.2,0.3-0.2,0.9-0.2c2.9,0.2,4.8,0.3,5.8,0.3c0.3,0,0.6,0,0.8-0.2
		s0.2-0.5,0.2-0.7L605.6,5427.3z M639.1,5454.2c-0.2,0-0.4,0-0.6,0.1c-0.1,0.1-0.2,0.2-0.2,0.3v0.7v0.3v0.4c0,0.2-0.1,0.4-0.2,0.6
		c-0.3,0.3-0.7,0.6-1.1,0.7c-0.5,0.2-0.9,0.3-1.4,0.3c-0.3,0-0.5-0.1-0.7-0.2s-0.3-0.3-0.3-0.6c0.1-1.6,0.2-3.1,0.3-4.6
		s0.1-3.4,0.2-5.8v-16c0-2.4-0.1-4.7-0.4-7v-0.2c0-0.4,0.2-0.6,0.5-0.6c0.1,0,0.3,0,0.4,0.1l2.4,1.1c0.3,0.1,0.7,0.2,1,0.2h15.7
		c0.4,0,0.8-0.2,1-0.5l0.4-0.5c0.1-0.1,0.2-0.3,0.3-0.4c0.1-0.2,0.2-0.3,0.4-0.4c0.1-0.1,0.2-0.2,0.4-0.2c0.6,0.2,1.1,0.5,1.5,0.9
		c0.7,0.5,1.2,1,1.8,1.6c0.1,0.1,0.2,0.3,0.2,0.4c0,0.2-0.1,0.4-0.3,0.5s-0.4,0.2-0.6,0.3c-0.4,0.1-0.7,0.5-0.7,0.9v20.1
		c0.1,2.9,0.1,5.8,0.3,8.8v0.2c0,0.3-0.1,0.6-0.4,0.8c-0.4,0.3-0.8,0.5-1.3,0.7c-0.4,0.2-0.9,0.3-1.3,0.3h-0.2
		c-0.3-0.1-0.5-0.3-0.5-0.8c0-0.2,0.1-0.3,0.1-0.5l0.1-0.8v-0.2c0-0.2-0.1-0.5-0.2-0.6c-0.2-0.2-0.4-0.2-0.6-0.2h-16V5454.2z
		 M654.9,5433.4c0.2,0,0.5-0.1,0.6-0.2c0.2-0.2,0.2-0.4,0.2-0.6v-6.7c0-0.2-0.1-0.5-0.2-0.6c-0.2-0.2-0.4-0.2-0.6-0.2H639
		c-0.2,0-0.5,0.1-0.6,0.2c-0.2,0.2-0.2,0.4-0.2,0.6v6.7c0,0.2,0.1,0.5,0.2,0.6c0.2,0.2,0.4,0.2,0.6,0.2H654.9z M654.9,5443.1
		c0.2,0,0.5-0.1,0.6-0.2c0.2-0.2,0.2-0.4,0.2-0.6v-6.8c0-0.2-0.1-0.5-0.2-0.6c-0.2-0.2-0.4-0.2-0.6-0.2H639c-0.2,0-0.5,0.1-0.6,0.2
		c-0.2,0.2-0.2,0.4-0.2,0.6v6.8c0,0.2,0.1,0.5,0.2,0.6c0.2,0.2,0.4,0.2,0.6,0.2H654.9z M639.1,5444.3c-0.2,0-0.5,0.1-0.6,0.2
		c-0.2,0.2-0.2,0.4-0.2,0.6v7c0,0.2,0.1,0.5,0.2,0.6c0.2,0.2,0.4,0.2,0.6,0.2H655c0.2,0,0.5-0.1,0.6-0.2c0.2-0.2,0.2-0.4,0.2-0.6v-7
		c0-0.2-0.1-0.5-0.2-0.6c-0.2-0.2-0.4-0.2-0.6-0.2H639.1z M681.1,5426.4c0-0.2,0.1-0.5,0.2-0.6c0.2-0.2,0.4-0.2,0.6-0.2h0.1
		c0.2,0,0.5,0.1,0.6,0.2c0.2,0.2,0.2,0.4,0.2,0.6v30.7c0,0.2-0.1,0.5-0.2,0.6c-0.2,0.2-0.4,0.2-0.6,0.2h-11.8
		c-0.2,0-0.5-0.1-0.6-0.2c-0.2-0.2-0.2-0.4-0.2-0.6v-0.1c0-0.2,0.1-0.5,0.2-0.6c0.2-0.2,0.4-0.2,0.6-0.2h10c0.2,0,0.5-0.1,0.6-0.2
		c0.2-0.2,0.2-0.4,0.2-0.6L681.1,5426.4z M744,5431.1c-0.3,0-0.6-0.1-0.8-0.3c-0.3-0.2-0.6-0.5-0.8-0.8c-0.4-0.6-0.9-1.2-1.4-1.8
		c-0.5-0.5-1-0.9-1.6-1.2c-0.2-0.1-0.4-0.2-0.6-0.3c-0.2-0.1-0.3-0.2-0.5-0.3c-0.1-0.1-0.2-0.2-0.2-0.3c0-0.2,0.4-0.3,1.1-0.3
		c0.8,0,1.6,0.2,2.4,0.4c0.9,0.2,1.8,0.6,2.5,1.2c0.7,0.5,1.1,1.3,1.1,2.2c0,0.4-0.1,0.8-0.4,1.1
		C744.7,5431,744.3,5431.1,744,5431.1z M740,5434.9c-0.7,0-1.4-0.4-1.7-1.1s-0.7-1.4-1.2-2s-1.1-1.1-1.8-1.5
		c-0.1-0.1-0.3-0.2-0.5-0.3c-0.1-0.1-0.3-0.2-0.4-0.3c-0.1-0.1-0.1-0.1-0.1-0.2c0-0.2,0.2-0.2,0.6-0.2c0.8,0,1.6,0.2,2.4,0.4
		c1,0.3,2,0.7,2.9,1.3c0.8,0.5,1.3,1.4,1.3,2.4c0,0.4-0.1,0.9-0.5,1.1C740.8,5434.8,740.4,5434.9,740,5434.9L740,5434.9z
		 M740.5,5446.7c-0.4,0-0.7-0.2-1-0.5c-0.3-0.5-0.6-1-0.8-1.5c-1.7-4.4-4.7-8.3-8.6-11.1c-0.2-0.2-0.4-0.3-0.4-0.4s0.1-0.2,0.2-0.2
		c0.2,0,0.3,0,0.4,0.1c1.9,0.7,3.6,1.7,5.3,2.8c1.8,1.2,3.4,2.5,4.9,4.1c1.3,1.5,2,2.7,2,3.8c0,0.7-0.2,1.5-0.7,2
		C741.6,5446.4,741.1,5446.7,740.5,5446.7z M707.6,5448.9c-0.2,0-0.3-0.1-0.3-0.2c0-0.2,0.2-0.4,0.6-0.7c2.2-1.3,4.3-2.8,6.2-4.5
		c1.6-1.4,3.1-3,4.3-4.7c0.8-0.9,1.4-2,1.6-3.3c0-0.5-0.3-0.9-0.9-1.2c-0.1-0.1-0.3-0.1-0.4-0.2c-0.1-0.1-0.3-0.1-0.4-0.2
		c-0.1,0-0.1-0.1-0.1-0.2c0-0.4,0.8-0.6,2.3-0.6c1.1,0,2.1,0.3,2.9,0.9c0.8,0.5,1.3,1.3,1.4,2.2c-0.1,0.5-0.3,1-0.7,1.4
		c-2,2.4-4.3,4.5-6.9,6.2c-2.8,2-5.8,3.6-9,4.8C708,5448.8,707.8,5448.9,707.6,5448.9L707.6,5448.9z M769.6,5439.6
		c-0.1,0.1-0.2,0.3-0.2,0.5s0.2,0.5,0.5,0.6c2.4,1,4.7,2.4,6.8,4c2,1.5,3,3.1,3,4.6c0,0.5-0.2,1.1-0.5,1.5s-0.7,0.6-1.2,0.6
		s-0.9-0.2-1.3-0.5c-0.5-0.4-0.8-0.9-1.1-1.5c-0.8-1.6-1.8-3.2-2.9-4.6c-1-1.3-2.2-2.4-3.6-3.4c-0.1-0.1-0.3-0.2-0.5-0.2
		s-0.5,0.1-0.6,0.3c-4.6,5.2-10.4,9.3-16.8,12c-0.1,0-0.2,0.1-0.4,0.1s-0.2-0.1-0.2-0.2s0.1-0.3,0.4-0.4c3-1.7,5.8-3.7,8.3-6.1
		c2.6-2.4,5-5,7.1-7.8c1.6-2.1,3-4.3,4.2-6.7c0.1-0.2,0.2-0.4,0.2-0.7c0-0.1,0-0.1,0-0.2s-0.1-0.2-0.4-0.2c-1.4,0.2-2.8,0.5-4.2,0.9
		c-1.6,0.4-3.2,0.9-4.8,1.5l-0.7,0.3c-0.3,0.1-0.5,0.2-0.8,0.2c-0.7,0-1.4-0.3-1.9-0.7c-0.6-0.5-1.1-1-1.5-1.7
		c-0.3-0.5-0.5-1-0.5-1.6c0-0.4,0.1-0.6,0.3-0.6c0.2,0.1,0.3,0.1,0.5,0.3c0.2,0.2,0.5,0.4,0.8,0.5c0.6,0.2,1.2,0.3,1.8,0.3
		s2.3-0.2,5.2-0.7s4.8-0.8,5.5-1c0.5-0.2,0.9-0.4,1.4-0.6c0.3-0.2,0.6-0.3,0.9-0.4c0.5,0.1,1,0.3,1.4,0.6c0.6,0.4,1.1,0.8,1.6,1.3
		c0.4,0.3,0.6,0.8,0.7,1.3c0,0.2-0.1,0.4-0.3,0.5c-0.2,0.2-0.5,0.4-0.8,0.6c-0.2,0.2-0.4,0.3-0.7,0.5c-0.2,0.2-0.4,0.3-0.5,0.6
		C772.6,5435.7,771.1,5437.7,769.6,5439.6L769.6,5439.6z M793.7,5437.6c0-0.2,0-0.4-0.1-0.6c-0.1-0.1-0.2-0.2-0.3-0.2
		c-0.2,0-0.5,0.2-0.6,0.4c-0.9,1.2-1.9,2.4-2.9,3.4c-0.3,0.4-0.6,0.5-0.8,0.4c-0.1-0.1-0.1-0.1-0.1-0.2c0-0.2,0.1-0.4,0.3-0.6
		c2.2-3.5,4-7.2,5.4-11.1c0.4-1.1,0.8-2.4,1.2-3.9c0.3-1.3,0.6-2.5,0.8-3.8c0.1-0.5,0.3-0.7,0.6-0.7c0.1,0,0.3,0,0.4,0.1
		c2.5,0.8,3.7,1.4,3.7,1.7c0,0.1-0.1,0.2-0.4,0.3h-0.2c-0.4,0.1-0.7,0.5-0.8,0.8c-0.9,2.4-2,4.8-3.2,7.1c-0.1,0.2-0.2,0.4-0.2,0.6
		s0.1,0.4,0.3,0.4c0.3,0.1,0.5,0.3,0.7,0.5c0.1,0.1,0.1,0.3,0,0.4c0,0-0.1,0-0.1,0.1c-0.5,0.3-0.7,0.6-0.7,0.9v13.4
		c0.1,2.9,0.1,5.8,0.3,8.8v0.2c0,0.3-0.1,0.6-0.4,0.8c-0.3,0.3-0.7,0.5-1.1,0.6c-0.4,0.2-0.8,0.2-1.3,0.2c-0.3,0-0.5-0.1-0.7-0.2
		s-0.3-0.3-0.3-0.6c0.1-1.6,0.2-3.1,0.3-4.6s0.1-3.4,0.2-5.8L793.7,5437.6L793.7,5437.6z M818.3,5425.5c0.4,0,0.8-0.2,1-0.5l0.5-0.8
		c0.1-0.1,0.2-0.3,0.4-0.6c0.1-0.2,0.3-0.4,0.4-0.6c0.1-0.1,0.2-0.2,0.3-0.2c0.6,0.2,1.1,0.5,1.5,1c0.6,0.5,1.2,1,1.7,1.7
		c0.1,0.1,0.2,0.3,0.2,0.5s-0.1,0.3-0.2,0.4c-0.2,0.1-0.5,0.2-0.7,0.2h-16.7c-1.8,0-3.5,0.2-5.3,0.4h-0.2c-0.4,0-0.7-0.2-0.8-0.5
		l-0.2-0.3c-0.1-0.1-0.1-0.3-0.1-0.5s0.1-0.3,0.2-0.4c0.2-0.1,0.4-0.1,0.6-0.1c0.9,0.1,2.3,0.1,4.1,0.2h4.2c0.4,0.1,0.8-0.2,0.8-0.6
		c0-0.1,0-0.1,0-0.2c-0.1-1.5-0.1-2.5-0.2-3.1v-0.1c0-0.5,0.2-0.7,0.6-0.7c0.1,0,0.2,0,0.3,0c0.9,0.2,1.7,0.5,2.5,0.8
		c0.5,0.2,0.7,0.4,0.7,0.6c0,0.1-0.1,0.2-0.3,0.4h-0.1c-0.4,0.2-0.6,0.6-0.6,1v1.1c0,0.2,0.1,0.5,0.2,0.6c0.2,0.2,0.4,0.2,0.6,0.2
		h4.6V5425.5z M816.5,5429.6c0.4,0,0.8-0.2,1-0.5l0.3-0.4c0.1-0.1,0.2-0.3,0.3-0.4s0.2-0.3,0.4-0.4c0.1-0.1,0.2-0.1,0.3-0.1
		c0.5,0.2,0.9,0.4,1.3,0.8c0.6,0.4,1.1,0.9,1.5,1.4c0.1,0.1,0.2,0.3,0.2,0.4c0,0.2-0.1,0.4-0.3,0.5l-0.2,0.1c-0.4,0.1-0.7,0.5-0.7,1
		v1l0.1,2.6v0.2c0,0.3-0.1,0.6-0.4,0.8c-0.3,0.2-0.7,0.4-1.1,0.5c-0.4,0.1-0.8,0.2-1.2,0.2c-0.1,0-0.3-0.1-0.3-0.2
		c-0.1-0.1-0.1-0.3-0.1-0.5s-0.1-0.3-0.2-0.4c-0.2-0.1-0.4-0.2-0.6-0.2h-9.6c-0.2,0-0.5,0.1-0.6,0.2c-0.2,0.2-0.2,0.4-0.2,0.6
		s-0.3,0.4-0.9,0.6c-0.6,0.2-1.2,0.4-1.8,0.4c-0.2,0-0.3-0.1-0.4-0.2c-0.1-0.2-0.2-0.4-0.2-0.6c0.1-0.3,0.1-1.1,0.2-2.4v-1.6
		c0-1.5-0.1-2.8-0.2-3.9v-0.2c0-0.4,0.2-0.6,0.5-0.6c0.1,0,0.3,0,0.4,0.1l2,0.9c0.3,0.1,0.7,0.2,1,0.2h9.5V5429.6z M807.1,5430.7
		c-0.2,0-0.5,0.1-0.6,0.2c-0.2,0.2-0.2,0.4-0.2,0.6v2.5c0,0.2,0.1,0.5,0.2,0.6c0.2,0.2,0.4,0.2,0.6,0.2h9.6c0.2,0,0.5-0.1,0.6-0.2
		c0.2-0.2,0.2-0.4,0.2-0.6v-2.5c0-0.2-0.1-0.5-0.2-0.6c-0.2-0.2-0.4-0.2-0.6-0.2H807.1z M820.6,5441.2c0-0.5-0.3-0.7-0.8-0.7h-17
		c-0.5,0-0.8,0.3-0.8,0.8c-0.1,0.9-0.4,1.8-1,2.5c-0.4,0.3-0.8,0.5-1.3,0.4c-0.3,0-0.6-0.1-0.8-0.2s-0.4-0.3-0.5-0.6
		c-0.1-0.2-0.2-0.4-0.2-0.7c0-0.3,0.1-0.7,0.3-1s0.5-0.6,0.8-0.8c0.4-0.3,0.7-0.7,0.9-1.1c0.3-0.4,0.5-0.9,0.7-1.4
		c0-0.2,0.1-0.4,0.2-0.6c0.1-0.1,0.2-0.2,0.2-0.2c0.2,0.1,0.3,0.3,0.4,0.8v0.1c0,0.5,0.4,0.8,0.9,0.8l0,0H820c0.4,0,0.8-0.2,1-0.5
		l0.4-0.4c0.1-0.1,0.2-0.3,0.5-0.5s0.4-0.4,0.6-0.4c0.2,0,0.6,0.3,1.2,0.9c0.5,0.5,1,1,1.4,1.6c0.1,0.1,0.2,0.2,0.2,0.4
		c0,0.3-0.2,0.5-0.4,0.5h-0.2c-0.4,0-0.7,0.2-1,0.4c-0.4,0.3-1,0.8-2,1.4c-0.2,0.1-0.4,0.4-0.4,0.6s0.1,0.4,0.3,0.6l0.3,0.2
		c0.2,0.2,0.4,0.4,0.4,0.7c0,0.1-0.1,0.3-0.2,0.4c-0.2,0.1-0.4,0.1-0.6,0.1h-7c-0.2,0-0.5,0.1-0.6,0.2c-0.2,0.2-0.2,0.4-0.2,0.6v7
		c0.1,1-0.2,2.1-0.8,2.9c-0.8,0.8-1.9,1.3-3,1.4h-0.2c-0.4,0-0.6-0.3-0.7-0.8c-0.1-0.6-0.3-1.1-0.7-1.5c-0.8-0.6-1.7-0.9-2.7-1.1
		c-0.5-0.1-0.8-0.2-0.8-0.4c0-0.2,0.3-0.2,0.9-0.2c0.2,0,0.6,0,1,0.1c1.7,0.1,2.7,0.2,3.1,0.2c0.2,0,0.5,0,0.7-0.2
		c0.1-0.2,0.2-0.4,0.2-0.6v-6.9c0-0.2-0.1-0.5-0.2-0.6c-0.2-0.2-0.4-0.2-0.6-0.2h-2c-1.6,0-3.1,0.2-4.6,0.4h-0.2
		c-0.4,0-0.7-0.2-0.8-0.6l-0.2-0.3c-0.1-0.1-0.1-0.3-0.1-0.4c0-0.4,0.3-0.6,0.8-0.5c0.9,0.1,2.3,0.1,4.1,0.2h10c0.4,0,0.8-0.2,1-0.5
		l0.9-1.1c0.1-0.2,0.4-0.4,0.6-0.4c0.2,0,0.3,0.1,0.5,0.2c0.1,0.1,0.2,0.1,0.3,0.1c0.2,0,0.4-0.2,0.5-0.7l0.1-0.5L820.6,5441.2z
		 M864.1,5458.7c-0.2,0-0.3-0.1-0.4-0.2c-1.3-0.9-2.4-2-3.5-3.2c-1.6-1.9-3-4.1-4-6.4c-1.3-3.1-2-6.4-1.9-9.7
		c-0.1-3.3,0.6-6.7,1.9-9.7c1-2.3,2.3-4.5,4-6.4c1-1.2,2.2-2.3,3.5-3.2c0.1-0.1,0.3-0.2,0.4-0.2c0.1,0,0.2,0,0.2,0.1
		c0.1,0,0.1,0.1,0.1,0.2c0,0.2-0.1,0.4-0.3,0.5c-1.1,1.2-2.1,2.4-3,3.7c-1.2,1.9-2.1,3.9-2.8,6c-0.9,2.9-1.4,6-1.3,9.1
		c-0.1,3.1,0.4,6.1,1.3,9.1c0.6,2.1,1.6,4.1,2.8,6c0.9,1.3,1.9,2.6,3,3.7c0.1,0.1,0.2,0.3,0.3,0.5c0,0.1,0,0.2-0.1,0.2
		C864.2,5458.7,864.1,5458.7,864.1,5458.7z M876.6,5441.1c0-0.5-0.1-0.7-0.4-0.7c-0.2,0-0.4,0.2-0.6,0.5c-1.6,2.8-3.5,5.4-5.8,7.7
		c-0.4,0.4-0.7,0.5-0.8,0.3c-0.1-0.1-0.1-0.1-0.1-0.2c0-0.3,0.2-0.5,0.3-0.7c1.6-2.2,2.9-4.6,3.9-7.2c1.1-2.8,2-5.6,2.7-8.5v-0.2
		c0-0.2-0.1-0.4-0.2-0.5c-0.2-0.1-0.4-0.2-0.6-0.2h-1.1c-1,0-2,0.2-3,0.4h-0.2c-0.4,0-0.7-0.2-0.8-0.6l-0.2-0.3
		c-0.1-0.1-0.1-0.3-0.1-0.4c0-0.2,0.1-0.3,0.2-0.4c0.2-0.1,0.4-0.2,0.6-0.1c0.9,0.1,2.2,0.1,3.9,0.2h1.6c0.2,0,0.5-0.1,0.6-0.2
		c0.2-0.2,0.2-0.4,0.2-0.6v-0.6c0-2.4-0.1-4.8-0.4-7.2v-0.2c0-0.3,0.2-0.6,0.5-0.6c0.1,0,0.1,0,0.2,0c0.1,0,0.2,0,0.3,0
		c0.9,0.2,1.8,0.5,2.7,0.9c0.5,0.2,0.8,0.4,0.8,0.6c0,0.1-0.1,0.3-0.4,0.4l-0.2,0.1c-0.3,0.2-0.5,0.6-0.5,1v5.5
		c0,0.2,0.1,0.5,0.2,0.6c0.2,0.2,0.4,0.2,0.6,0.2h0.4c0.4,0,0.8-0.2,1-0.5l0.5-0.7c0.1-0.1,0.2-0.3,0.4-0.6c0.2-0.2,0.3-0.4,0.4-0.5
		c0.1-0.1,0.2-0.2,0.3-0.2c0.2,0,0.6,0.3,1.4,1c0.6,0.5,1.1,1,1.6,1.6c0.1,0.1,0.2,0.3,0.2,0.4c0,0.2-0.1,0.3-0.2,0.4
		c-0.2,0.1-0.5,0.2-0.8,0.2h-5.3c-0.2,0-0.5,0.1-0.6,0.2c-0.2,0.2-0.2,0.4-0.2,0.6v2.1c0,0.4,0.3,0.8,0.7,1c1.6,0.6,3.1,1.5,4.3,2.8
		c0.8,0.8,1.3,1.8,1.3,3c0,0.5-0.1,1-0.4,1.4c-0.3,0.3-0.7,0.5-1.1,0.5c-0.3,0-0.5-0.1-0.8-0.2c-0.3-0.2-0.6-0.5-0.6-0.9
		c-0.5-1.6-1.3-3.2-2.3-4.6c-0.2-0.3-0.4-0.4-0.6-0.4c-0.1,0-0.3,0.1-0.3,0.2c-0.1,0.2-0.2,0.4-0.1,0.6v9.3c0.1,2.9,0.1,5.8,0.3,8.8
		v0.2c0,0.3-0.1,0.6-0.3,0.8c-0.3,0.3-0.7,0.5-1.1,0.6c-0.4,0.2-0.8,0.2-1.3,0.2c-0.3,0-0.5-0.1-0.7-0.2s-0.3-0.3-0.3-0.6
		c0.1-1.6,0.2-3.1,0.3-4.6s0.1-3.4,0.2-5.8v-5.1H876.6z M888.8,5429.4c0-2.4-0.1-4.8-0.4-7.2v-0.2c0-0.3,0.2-0.6,0.5-0.6
		c0.1,0,0.1,0,0.2,0c0.1,0,0.2,0,0.3,0c0.9,0.2,1.9,0.5,2.8,0.9c0.5,0.2,0.8,0.4,0.8,0.6c0,0.1-0.1,0.3-0.3,0.4l-0.1,0.1
		c-0.3,0.2-0.5,0.6-0.5,1v27.6c0,0.4,0.1,0.8,0.4,1.1c0.4,0.2,0.9,0.4,1.4,0.3h3.4c1.1,0,2.2,0,3.2-0.1c0.2,0,0.4-0.1,0.5-0.2
		c0.2-0.1,0.3-0.3,0.4-0.4c0.7-1.9,1.1-3.8,1.4-5.8c0.1-0.5,0.2-0.8,0.4-0.8s0.2,0.3,0.2,0.8l0.2,5.4c0,0.4,0.2,0.8,0.6,1
		c0.2,0.1,0.4,0.3,0.5,0.5s0.1,0.4,0.1,0.6c0,0.5-0.2,0.9-0.6,1.2c-0.7,0.3-1.5,0.5-2.3,0.6c-1.1,0.1-2.7,0.2-4.8,0.2h-3.9
		c-1.2,0.1-2.4-0.1-3.4-0.8c-0.7-0.8-1-1.8-0.9-2.8v-23.4H888.8z M918.6,5427.8c0.4,0,0.8-0.2,1-0.6l0.2-0.4
		c0.1-0.1,0.1-0.2,0.3-0.4c0.1-0.1,0.2-0.3,0.3-0.4s0.2-0.1,0.3-0.1c0.5,0.2,0.9,0.4,1.2,0.7c0.5,0.4,1,0.9,1.5,1.4
		c0.1,0.1,0.2,0.3,0.2,0.4c0,0.2-0.1,0.3-0.4,0.5l-0.4,0.2c-0.4,0.1-0.7,0.5-0.7,0.9v15.2c0,0.8-0.1,1.6-0.4,2.4
		c-0.3,0.6-0.9,1-1.5,1.1c-0.1,0-0.2,0-0.3,0c-0.4,0-0.6-0.3-0.7-0.8l-0.1-0.6c-0.1-0.3-0.3-0.6-0.5-0.8c-0.1-0.1-0.4-0.2-0.8-0.4
		c-0.2-0.1-0.3-0.2-0.3-0.3c0-0.2,0.2-0.2,0.6-0.2h1.1c0.1,0,0.3,0,0.3-0.1c0.1-0.1,0.1-0.3,0.1-0.5v-15.3c0-0.2-0.1-0.5-0.2-0.6
		c-0.2-0.2-0.4-0.2-0.6-0.2h-0.6c-0.2,0-0.5,0.1-0.6,0.2c-0.2,0.2-0.2,0.4-0.2,0.6v17.3c0.1,2.9,0.1,5.8,0.3,8.8v0.2
		c0,0.3-0.2,0.7-0.4,0.8c-0.6,0.5-1.3,0.7-2,0.7c-0.2,0-0.4-0.1-0.5-0.3c-0.2-0.1-0.3-0.3-0.3-0.5c0.1-1.6,0.2-3.1,0.3-4.6
		s0.1-3.4,0.2-5.8v-16.6c0-0.2-0.1-0.5-0.2-0.6c-0.2-0.2-0.4-0.2-0.6-0.2h-0.4c-0.2,0-0.5,0.1-0.6,0.2c-0.2,0.2-0.2,0.4-0.2,0.6v9.5
		c0.1,2.9,0.1,5.8,0.3,8.8v0.2c0,0.3-0.1,0.6-0.4,0.8c-0.6,0.5-1.3,0.7-2,0.7c-0.2,0-0.4-0.1-0.6-0.2c-0.2-0.1-0.3-0.3-0.3-0.6
		c0.1-1.4,0.2-2.8,0.3-4.2s0.1-3.1,0.1-5.2v-5.1c0-2.3-0.1-4.7-0.4-7v-0.2c0-0.4,0.2-0.6,0.5-0.6c0.1,0,0.3,0,0.4,0.1l1.7,0.8
		c0.3,0.2,0.7,0.2,1,0.2h0.3c0.4,0.1,0.8-0.2,0.8-0.6c0-0.1,0-0.1,0-0.2c-0.1-2.1-0.1-3.9-0.3-5.2v-0.2c0-0.3,0.2-0.6,0.5-0.6
		c0.1,0,0.1,0,0.2,0c0.1,0,0.2,0,0.3,0c2.1,0.6,3.2,1.1,3.2,1.4c0,0.1-0.1,0.3-0.3,0.4l-0.1,0.1c-0.4,0.2-0.6,0.6-0.6,1v3
		c0,0.2,0.1,0.5,0.2,0.6c0.2,0.2,0.4,0.2,0.6,0.2h0.2V5427.8z M938.1,5422.7c0.4,0,0.8-0.2,1-0.6l0.3-0.4c0.1-0.1,0.2-0.3,0.3-0.4
		s0.2-0.3,0.3-0.4s0.2-0.1,0.3-0.1c0.5,0.1,0.9,0.4,1.2,0.7c0.5,0.4,1,0.8,1.4,1.3c0.1,0.1,0.2,0.3,0.2,0.4c0,0.2-0.1,0.4-0.4,0.5
		l-0.2,0.1c-0.4,0.1-0.7,0.5-0.7,0.9v2.8c0.1,2.7,0.1,4.7,0.2,6.1v0.2c0,0.3-0.1,0.6-0.4,0.8c-0.7,0.4-1.4,0.6-2.2,0.6
		c-0.2,0-0.3-0.1-0.4-0.2c-0.1-0.2-0.1-0.3-0.1-0.5c0-0.5-0.3-0.7-0.8-0.7h-9.7c-0.2,0-0.5,0.1-0.6,0.2c-0.2,0.2-0.2,0.4-0.2,0.6
		v0.2c0,0.2-0.2,0.3-0.7,0.5s-1.1,0.3-1.7,0.3c-0.2,0-0.4-0.1-0.5-0.2c-0.1-0.2-0.2-0.4-0.2-0.6c0.1-1,0.2-2.4,0.2-4v-2.4
		c0-2.1-0.1-4.1-0.3-6.2v-0.2c0-0.4,0.2-0.6,0.5-0.6c0.1,0,0.3,0,0.4,0.1l2.2,1c0.3,0.1,0.7,0.2,1,0.2L938.1,5422.7L938.1,5422.7z
		 M938,5427.6c0.2,0,0.5-0.1,0.6-0.2c0.2-0.2,0.2-0.4,0.2-0.6v-2c0-0.2-0.1-0.5-0.2-0.6c-0.2-0.2-0.4-0.2-0.6-0.2h-9.7
		c-0.2,0-0.5,0.1-0.6,0.2c-0.2,0.2-0.2,0.4-0.2,0.6v2c0,0.2,0.1,0.5,0.2,0.6c0.2,0.2,0.4,0.2,0.6,0.2H938z M928.3,5428.8
		c-0.2,0-0.5,0.1-0.6,0.2c-0.2,0.2-0.2,0.4-0.2,0.6v2.2c0,0.2,0.1,0.5,0.2,0.6c0.2,0.2,0.4,0.2,0.6,0.2h9.7c0.2,0,0.5-0.1,0.6-0.2
		c0.2-0.2,0.2-0.4,0.2-0.6v-2.2c0-0.2-0.1-0.5-0.2-0.6c-0.2-0.2-0.4-0.2-0.6-0.2H928.3z M939.1,5443.6c0.4,0,0.8-0.2,1-0.6l0.4-0.6
		c0.1-0.2,0.2-0.4,0.4-0.6c0.1-0.2,0.2-0.3,0.4-0.5c0.1-0.1,0.2-0.2,0.3-0.2c0.5,0.2,1,0.5,1.4,0.9c0.6,0.5,1.1,1,1.6,1.6
		c0.1,0.1,0.2,0.3,0.2,0.4c0,0.2-0.1,0.4-0.2,0.5c-0.2,0.1-0.4,0.2-0.7,0.2h-5.8c-0.2,0-0.5,0.1-0.6,0.2c-0.2,0.2-0.2,0.4-0.2,0.6v8
		c0,0.2,0,0.4,0.2,0.5s0.5,0.1,0.7,0.1h1.8h1.8c0.1,0,0.2-0.1,0.3-0.1c0.1-0.1,0.2-0.2,0.3-0.4c0.1-0.4,0.2-0.8,0.3-1.2
		c0.1-0.6,0.2-1.1,0.3-1.4l0.4-1.5c0.1-0.5,0.2-0.8,0.4-0.8c0.1,0,0.1,0.1,0.2,0.2c0.1,0.2,0.1,0.4,0.1,0.6l0.1,3.4
		c0,0.2,0,0.4,0.1,0.5c0.1,0.2,0.3,0.4,0.4,0.5c0.3,0.3,0.4,0.6,0.4,1c0,0.6-0.5,1.2-1.1,1.4c-1.3,0.4-2.7,0.5-4.1,0.4h-2.5
		c-0.8,0.1-1.7-0.1-2.4-0.6c-0.4-0.6-0.6-1.4-0.6-2.1v-8.8c0-0.2-0.1-0.5-0.2-0.6c-0.2-0.2-0.4-0.2-0.6-0.2h-1.5
		c-0.4,0-0.8,0.3-0.9,0.7v0.1c-0.3,2.7-1.3,5.3-3,7.5c-1.9,2.1-4.4,3.6-7.1,4.3c-0.2,0.1-0.4,0.1-0.6,0.1c-0.2,0-0.3-0.1-0.3-0.2
		v-0.1c0-0.2,0.2-0.3,0.6-0.6c2.1-1,3.9-2.5,5.2-4.5c1.2-2,1.8-4.3,2-6.6v-0.2c0-0.5-0.3-0.7-0.8-0.7h-0.8c-0.7,0-1.5,0.1-2.2,0.3
		c-0.1,0-0.2,0.1-0.4,0.1c-0.3,0-0.6-0.2-0.7-0.5l-0.1-0.2c-0.1-0.1-0.1-0.3-0.1-0.5s0.1-0.3,0.2-0.4c0.2-0.1,0.4-0.1,0.6-0.1
		c0.9,0.1,2.3,0.1,4.1,0.2h3c0.2,0,0.4-0.1,0.6-0.2c0.2-0.1,0.2-0.4,0.2-0.6c0-2.4-0.1-4.8-0.4-7.2v-0.2c0-0.4,0.2-0.6,0.6-0.6
		c0.1,0,0.3,0,0.4,0.1c0.8,0.2,1.7,0.5,2.5,0.8c0.5,0.2,0.7,0.4,0.7,0.6c0,0.1-0.1,0.2-0.3,0.4H935c-0.4,0.2-0.6,0.6-0.6,1v5
		c0,0.2,0.1,0.5,0.2,0.6c0.2,0.2,0.4,0.2,0.6,0.2h3.9V5443.6z M938.2,5436.4c0.1-0.4,0.3-0.6,0.6-0.6c0.2,0,0.3,0,0.4,0.1l1,0.6
		c0.3,0.2,0.6,0.3,1,0.4c0.8,0.3,1.2,0.5,1.2,0.8c0,0.2-0.1,0.3-0.4,0.4h-0.2c-0.4,0.1-0.7,0.3-0.9,0.6c-1.2,1.3-2.5,2.5-4,3.5
		c-0.4,0.3-0.7,0.3-0.8,0.2c-0.1-0.1-0.1-0.2-0.1-0.2c0-0.2,0.1-0.4,0.2-0.6C937.1,5439.8,937.7,5438.1,938.2,5436.4z M924.5,5437.1
		c-0.3-0.5-0.4-0.8-0.3-0.8c0,0,0.1,0,0.2,0c0.2,0,0.4,0.1,0.6,0.2c1.2,0.5,2.3,1.2,3.2,2.2c0.6,0.6,1,1.5,1,2.3
		c0,0.5-0.1,0.9-0.4,1.2c-0.2,0.3-0.6,0.5-1,0.5c-0.3,0-0.5-0.1-0.7-0.2c-0.3-0.2-0.6-0.5-0.6-0.9
		C926.1,5440,925.5,5438.5,924.5,5437.1z M961.3,5434.6c0.4,0,0.8-0.2,1-0.5l0.4-0.5c0.1-0.1,0.2-0.3,0.3-0.5s0.2-0.3,0.4-0.4
		c0.1-0.1,0.2-0.1,0.3-0.1c0.2,0,0.6,0.3,1.2,0.8c0.5,0.4,0.9,0.9,1.3,1.4c0.1,0.1,0.2,0.3,0.2,0.5s-0.1,0.3-0.2,0.4
		c-0.2,0.1-0.5,0.2-0.7,0.2h-4.8c-0.2,0-0.5,0.1-0.6,0.2c-0.2,0.2-0.2,0.4-0.2,0.6v2.8c0,0.2,0.1,0.5,0.2,0.6
		c0.2,0.2,0.4,0.2,0.6,0.2h1.4c0.4,0,0.8-0.2,1-0.5l0.3-0.3c0.1-0.1,0.2-0.2,0.4-0.5c0.2-0.2,0.4-0.4,0.5-0.4
		c0.4,0.1,0.8,0.4,1.2,0.7c0.5,0.4,1,0.8,1.4,1.3c0.1,0.1,0.2,0.3,0.2,0.4c0,0.2-0.1,0.4-0.4,0.5l-0.3,0.1c-0.5,0.1-0.8,0.5-0.8,0.9
		c-0.1,2.9-0.5,5.7-1.1,8.5c-0.2,1.5-0.9,2.9-1.9,4.1c-0.8,0.7-1.7,1-2.8,1.1h-0.1c-0.2,0-0.4-0.1-0.5-0.2c-0.1-0.2-0.2-0.4-0.3-0.6
		c0-0.4-0.2-0.8-0.4-1c-0.5-0.4-1-0.7-1.6-0.8c-0.5-0.1-0.8-0.3-0.8-0.5s0.3-0.3,0.9-0.2c1.3,0.1,2.2,0.2,2.7,0.2
		c0.3,0,0.5,0,0.8-0.1c0.2-0.1,0.4-0.2,0.5-0.3c0.5-0.4,0.9-1.5,1.2-3.2c0.4-2.4,0.7-4.7,0.9-7.1v-0.1c0.1-0.4-0.2-0.8-0.6-0.8
		c-0.1,0-0.1,0-0.2,0h-7.4c-0.2,0-0.5,0.1-0.6,0.2c-0.2,0.2-0.2,0.4-0.2,0.6v0.5c0,0.1-0.2,0.3-0.7,0.6c-0.5,0.2-1,0.4-1.5,0.4
		c-0.2,0-0.4-0.1-0.6-0.2c-0.2-0.1-0.2-0.3-0.2-0.6c0.2-2.5,0.3-5.1,0.4-8v-4.4c0-2.4-0.1-4.7-0.4-7v-0.2c0-0.4,0.2-0.6,0.5-0.6
		c0.1,0,0.3,0,0.4,0.1l2,0.9c0.3,0.1,0.7,0.2,1,0.2h6.7c0.4,0,0.8-0.2,1-0.5l0.4-0.6c0.1-0.1,0.2-0.3,0.4-0.5
		c0.1-0.2,0.3-0.3,0.4-0.5c0.1-0.1,0.2-0.2,0.3-0.2c0.5,0.2,0.9,0.5,1.3,0.8c0.6,0.4,1.1,0.9,1.6,1.5c0.1,0.1,0.2,0.3,0.2,0.4
		c0,0.2-0.1,0.4-0.2,0.5c-0.2,0.1-0.4,0.2-0.7,0.2h-5.6c-0.2,0-0.5,0.1-0.6,0.2c-0.2,0.2-0.2,0.4-0.2,0.6v2.6c0,0.2,0.1,0.5,0.2,0.6
		c0.2,0.2,0.4,0.2,0.6,0.2h0.8c0.4,0,0.8-0.2,1-0.5l0.3-0.5c0.1-0.1,0.1-0.2,0.3-0.4c0.1-0.2,0.2-0.3,0.4-0.5
		c0.1-0.1,0.2-0.1,0.3-0.1c0.3,0,0.8,0.4,1.6,1.1s1.2,1.2,1.2,1.5c0,0.4-0.3,0.6-1,0.6h-4.8c-0.2,0-0.5,0.1-0.6,0.2
		c-0.2,0.2-0.2,0.4-0.2,0.6v2.7c0,0.2,0.1,0.5,0.2,0.6c0.2,0.2,0.4,0.2,0.6,0.2h0.4V5434.6z M978.9,5423.8c0.4,0,0.8-0.2,1-0.5
		l0.3-0.5c0.1-0.1,0.2-0.3,0.3-0.5s0.2-0.3,0.4-0.4c0.1-0.1,0.2-0.1,0.3-0.1c0.5,0.2,0.9,0.5,1.3,0.8c0.6,0.5,1.1,1,1.6,1.5
		c0.1,0.1,0.2,0.3,0.2,0.4c0,0.2-0.1,0.4-0.3,0.5c-0.1,0.1-0.3,0.2-0.4,0.2c-0.4,0.1-0.7,0.5-0.7,1v3.8c0.1,2.8,0.1,5.5,0.3,8.2v0.2
		c0,0.3-0.2,0.7-0.4,0.8c-0.4,0.2-0.7,0.4-1.1,0.5c-0.4,0.1-0.8,0.2-1.2,0.2c-0.2,0-0.4-0.1-0.5-0.3c-0.1-0.1-0.1-0.3-0.1-0.4
		c0-0.2,0-0.3,0.1-0.5l0.1-0.4c0-0.2-0.1-0.5-0.2-0.6c-0.2-0.2-0.4-0.2-0.6-0.2h-3.7c-0.2,0-0.5,0.1-0.6,0.3
		c-0.1,0.2-0.2,0.4-0.1,0.7c0.8,3.3,2,6.4,3.8,9.3c1.5,2.5,3.5,4.6,6,6c0.4,0.2,0.6,0.4,0.6,0.5s-0.1,0.2-0.2,0.3
		c-0.2,0.1-0.3,0.2-0.5,0.2c-0.7,0.4-1.3,1-1.6,1.8c-0.2,0.4-0.4,0.6-0.6,0.6c-0.2,0-0.3-0.1-0.5-0.2c-2.3-2-4-4.5-5.1-7.3
		c-1.4-3.6-2.3-7.4-2.8-11.2c0-0.5-0.4-0.8-0.9-0.8l0,0h-0.5c-0.4-0.1-0.8,0.2-0.8,0.6c0,0.1,0,0.1,0,0.2c-0.1,3.6-0.6,7.1-1.6,10.5
		c-0.9,3.1-2.7,6-5.1,8.2c-0.2,0.2-0.4,0.3-0.6,0.4c-0.2,0-0.3-0.1-0.3-0.3c0.1-0.3,0.1-0.5,0.3-0.7c1.8-2.7,3.1-5.8,3.6-9.1
		c0.6-3.9,0.9-7.8,0.9-11.7v-6.7c0-1.9-0.1-3.8-0.3-5.7v-0.2c0-0.4,0.2-0.6,0.5-0.6c0.1,0,0.3,0,0.4,0.1l2.3,1
		c0.3,0.1,0.7,0.2,1,0.2L978.9,5423.8L978.9,5423.8z M956.4,5429.1c0.2,0,0.5-0.1,0.6-0.2c0.2-0.2,0.2-0.4,0.2-0.6v-2.6
		c0-0.2-0.1-0.5-0.2-0.6c-0.2-0.2-0.4-0.2-0.6-0.2h-1.7c-0.2,0-0.5,0.1-0.6,0.2c-0.2,0.2-0.2,0.4-0.2,0.6v2.6c0,0.2,0.1,0.5,0.2,0.6
		c0.2,0.2,0.4,0.2,0.6,0.2H956.4z M972.4,5425c-0.2,0-0.5,0.1-0.6,0.2c-0.2,0.2-0.2,0.4-0.2,0.6v9.8c0,0.2,0.1,0.5,0.2,0.6
		c0.2,0.2,0.4,0.2,0.6,0.2h6.7c0.2,0,0.5-0.1,0.6-0.2c0.2-0.2,0.2-0.4,0.2-0.6v-9.8c0-0.2-0.1-0.5-0.2-0.6c-0.2-0.2-0.4-0.2-0.6-0.2
		H972.4z M953.8,5433.8c0,0.2,0.1,0.5,0.2,0.6c0.2,0.2,0.4,0.2,0.6,0.2h1.7c0.2,0,0.5-0.1,0.6-0.2c0.2-0.2,0.2-0.4,0.2-0.6v-2.7
		c0-0.2-0.1-0.5-0.2-0.6c-0.2-0.2-0.4-0.2-0.6-0.2h-1.7c-0.2,0-0.5,0.1-0.6,0.2c-0.2,0.2-0.2,0.4-0.2,0.6V5433.8z M957.2,5436.6
		c0-0.2-0.1-0.5-0.2-0.6c-0.2-0.2-0.4-0.2-0.6-0.2h-1.7c-0.2,0-0.5,0.1-0.6,0.2c-0.2,0.2-0.2,0.4-0.2,0.6v2.8c0,0.2,0.1,0.5,0.2,0.6
		c0.2,0.2,0.4,0.2,0.6,0.2h1.7c0.2,0,0.5-0.1,0.6-0.2c0.2-0.2,0.2-0.4,0.2-0.6V5436.6z M958.5,5443.9c-0.2-0.2-0.3-0.4-0.4-0.7
		c0-0.1,0.1-0.2,0.3-0.2s0.4,0.1,0.6,0.2c0.9,0.3,1.8,0.8,2.4,1.5c0.5,0.5,0.7,1.1,0.8,1.7c0,0.3-0.1,0.7-0.3,0.9
		c-0.2,0.2-0.4,0.4-0.7,0.4c-0.1,0-0.2,0-0.2,0c-0.2,0-0.3-0.1-0.4-0.3c-0.1-0.2-0.2-0.4-0.2-0.5
		C959.9,5445.8,959.3,5444.8,958.5,5443.9z M955.9,5444.8c-0.2-0.5-0.3-0.8-0.1-0.9h0.1c0.2,0,0.5,0.2,0.6,0.4
		c0.8,0.7,1.5,1.5,2.1,2.4c0.4,0.7,0.6,1.4,0.6,2.2c0,0.4-0.1,0.8-0.3,1.2c-0.2,0.3-0.5,0.5-0.8,0.5c-0.1,0-0.3,0-0.4-0.1
		c-0.3-0.1-0.5-0.4-0.5-0.9C957.1,5447.8,956.6,5446.3,955.9,5444.8L955.9,5444.8z M953.3,5445.4c0-0.1,0-0.3,0-0.4
		c0-0.3,0.1-0.4,0.2-0.4l0,0c0.2,0,0.4,0.2,0.6,0.5c1,1.4,1.6,3,1.7,4.8c0,0.6-0.1,1.3-0.4,1.9c-0.3,0.5-0.6,0.7-1,0.7
		c-0.2,0-0.3,0-0.5-0.1c-0.3-0.2-0.5-0.7-0.4-1c0.1-0.6,0.1-1.2,0.1-1.8C953.7,5448.1,953.5,5446.7,953.3,5445.4L953.3,5445.4z
		 M950.8,5445.7c0.1-0.6,0.2-0.8,0.3-0.8s0.2,0.1,0.3,0.2c0.1,0.2,0.2,0.4,0.2,0.6c0.3,1.3,0.4,2.6,0.4,3.9c0.1,1.2-0.2,2.4-0.7,3.4
		c-0.5,0.7-1,1.1-1.5,1.1c-0.3,0-0.5-0.1-0.7-0.3c-0.2-0.2-0.3-0.5-0.3-0.8c0-0.4,0.1-0.8,0.4-1.2c0.5-0.7,0.9-1.6,1.2-2.4
		C950.6,5448.1,950.8,5446.9,950.8,5445.7L950.8,5445.7z M1014.3,5436.8c0.4,0,0.8-0.2,1-0.5l0.4-0.6c0.1-0.1,0.2-0.3,0.3-0.4
		c0.1-0.2,0.2-0.3,0.4-0.4c0.1-0.1,0.2-0.2,0.4-0.2s0.6,0.3,1.3,0.9c0.6,0.5,1.1,1,1.6,1.6c0.1,0.1,0.1,0.3,0.1,0.4
		c0,0.2-0.1,0.5-0.4,0.6l-0.3,0.1c-0.2,0-0.4,0.1-0.6,0.3c-0.1,0.2-0.2,0.4-0.2,0.6c-0.6,9.4-1.7,15-3.4,16.6
		c-1.1,1-2.6,1.5-4.1,1.6h-0.1c-0.2,0-0.4-0.1-0.5-0.2c-0.1-0.2-0.2-0.4-0.3-0.6c0-0.6-0.3-1.1-0.8-1.4c-1.2-0.7-2.5-1.1-3.9-1.3
		c-0.5-0.1-0.8-0.3-0.8-0.5s0.3-0.3,0.9-0.2c3,0.3,5,0.4,5.8,0.4c0.3,0,0.6,0,0.9-0.1c0.2-0.1,0.5-0.2,0.6-0.4
		c0.6-0.5,1.1-2,1.5-4.6s0.8-5.8,1-9.7v-0.1c0-0.5-0.3-0.8-0.8-0.8h-9.4c-0.5,0-0.9,0.3-0.9,0.8c-0.7,3.9-2.3,7.6-4.5,10.9
		c-2.4,3.2-5.5,5.8-9.1,7.6c-0.5,0.2-0.8,0.3-0.9,0.2v-0.1c0-0.2,0.2-0.4,0.5-0.6c2.6-1.9,4.8-4.4,6.5-7.1c1.6-2.7,2.8-5.6,3.5-8.6
		c0.8-3.4,1.2-7,1.3-10.5v-0.1c0-0.2-0.1-0.4-0.2-0.6c-0.2-0.1-0.4-0.2-0.6-0.2h-4.8c-1.8,0-3.5,0.2-5.3,0.4h-0.2
		c-0.4,0-0.7-0.2-0.8-0.5l-0.2-0.3c-0.1-0.1-0.1-0.3-0.1-0.5s0.1-0.3,0.2-0.4c0.2-0.1,0.4-0.1,0.6-0.1c0.9,0.1,2.3,0.1,4.1,0.2h10.2
		c0.4,0.1,0.8-0.2,0.8-0.6c0-0.1,0-0.1,0-0.2c-0.1-2.3-0.2-4.4-0.4-6.1v-0.2c0-0.4,0.2-0.6,0.6-0.6c0.1,0,0.2,0,0.3,0
		c2.4,0.6,3.6,1.1,3.6,1.4c0,0.1-0.1,0.3-0.4,0.4l-0.1,0.1c-0.4,0.2-0.6,0.6-0.6,1v4c0,0.2,0.1,0.5,0.2,0.6c0.2,0.2,0.4,0.2,0.6,0.2
		h8.8c0.4,0,0.8-0.2,1-0.5l0.6-0.9c0.1-0.2,0.3-0.4,0.5-0.7c0.1-0.2,0.3-0.4,0.4-0.6c0.1-0.1,0.2-0.2,0.3-0.2
		c0.6,0.2,1.2,0.6,1.7,1.1c0.7,0.5,1.4,1.1,1.9,1.8c0.1,0.1,0.2,0.3,0.2,0.4c0,0.2-0.1,0.3-0.2,0.4c-0.2,0.1-0.5,0.2-0.8,0.2H1006
		c-0.4,0-0.8,0.3-0.8,0.7v0.1c-0.2,2-0.4,3.9-0.6,5.6v0.2c0,0.5,0.3,0.7,0.8,0.7h8.9V5436.8z M1057.7,5431.1c0.4,0,0.8-0.2,1-0.6
		l0.4-0.6c0.1-0.1,0.2-0.3,0.3-0.5c0.1-0.2,0.3-0.4,0.4-0.5s0.2-0.2,0.3-0.2c0.5,0.2,0.9,0.5,1.3,0.9c0.6,0.5,1.1,1,1.6,1.5
		c0.1,0.1,0.1,0.3,0.2,0.4c0,0.2-0.1,0.4-0.4,0.5c-0.1,0.1-0.2,0.1-0.4,0.2c-0.4,0.1-0.7,0.5-0.7,1v13.3c0.1,2.9,0.1,5.8,0.3,8.8
		v0.2c0,0.3-0.1,0.6-0.4,0.8c-0.8,0.5-1.6,0.8-2.6,0.8h-0.2c-0.3-0.1-0.5-0.3-0.5-0.8c0-0.2,0.1-0.3,0.1-0.5l0.1-0.6v-0.1
		c0-0.2-0.1-0.5-0.2-0.6c-0.2-0.2-0.4-0.2-0.6-0.2h-21.9c-0.2,0-0.4,0.1-0.6,0.2s-0.2,0.4-0.2,0.6s0,0.5,0,0.7v0.3
		c0,0.3-0.1,0.6-0.3,0.8c-0.7,0.5-1.5,0.7-2.3,0.7c-0.2,0-0.5-0.1-0.7-0.2s-0.3-0.3-0.3-0.6c0.1-1.6,0.2-3.1,0.3-4.6
		c0.1-1.5,0.1-3.4,0.2-5.8v-8.7c0-2.4-0.1-4.7-0.4-7v-0.2c0-0.4,0.2-0.6,0.5-0.6c0.1,0,0.3,0,0.4,0.1l2.5,1c0.3,0.1,0.7,0.2,1,0.2
		h6.6c0.4,0,0.8-0.3,0.9-0.7l0,0c0.2-1.2,0.4-2.6,0.7-4.3v-0.2c0-0.5-0.3-0.7-0.8-0.7h-7.3c-1.8,0-3.5,0.2-5.3,0.4h-0.2
		c-0.4,0-0.7-0.2-0.9-0.5l-0.2-0.3c-0.1-0.1-0.1-0.3-0.1-0.5s0.1-0.3,0.2-0.4c0.2-0.1,0.4-0.1,0.6-0.1c0.9,0.1,2.3,0.1,4.1,0.2h23.5
		c0.4,0,0.8-0.2,1-0.5l0.6-0.9c0.1-0.1,0.3-0.3,0.5-0.6c0.2-0.3,0.4-0.5,0.5-0.6s0.2-0.2,0.3-0.2c0.6,0.2,1.2,0.6,1.7,1.1
		c0.7,0.5,1.4,1.1,1.9,1.8c0.1,0.1,0.2,0.3,0.2,0.4c0,0.2-0.1,0.3-0.2,0.4c-0.2,0.1-0.5,0.2-0.7,0.2H1049c-0.4,0-0.8,0.2-1,0.6
		c-0.9,1.5-1.8,2.9-2.8,4.3c-0.1,0.2-0.2,0.3-0.2,0.5c0,0.1,0.1,0.3,0.2,0.3c0.2,0.1,0.3,0.1,0.5,0.1h12V5431.1z M1040.6,5433.1
		c0-0.2-0.1-0.5-0.2-0.6c-0.2-0.2-0.4-0.2-0.6-0.2h-3.9c-0.2,0-0.5,0.1-0.6,0.2c-0.2,0.2-0.2,0.4-0.2,0.6v19.2
		c0,0.2,0.1,0.5,0.2,0.6c0.2,0.2,0.4,0.2,0.6,0.2h3.9c0.2,0,0.5-0.1,0.6-0.2c0.2-0.2,0.2-0.4,0.2-0.6V5433.1z M1043.5,5437.5
		c0,0.2,0.1,0.5,0.2,0.6c0.2,0.2,0.4,0.2,0.6,0.2h4.8c0.2,0,0.5-0.1,0.6-0.2c0.2-0.2,0.2-0.4,0.2-0.6v-4.4c0-0.2-0.1-0.5-0.2-0.6
		c-0.2-0.2-0.4-0.2-0.6-0.2h-4.8c-0.2,0-0.5,0.1-0.6,0.2c-0.2,0.2-0.2,0.4-0.2,0.6V5437.5z M1057.7,5453.1c0.2,0,0.5-0.1,0.6-0.2
		c0.2-0.2,0.2-0.4,0.2-0.6v-19.2c0-0.2-0.1-0.5-0.2-0.6c-0.2-0.2-0.4-0.2-0.6-0.2h-4c-0.2,0-0.5,0.1-0.6,0.2
		c-0.2,0.2-0.2,0.4-0.2,0.6v19.2c0,0.2,0.1,0.5,0.2,0.6c0.2,0.2,0.4,0.2,0.6,0.2H1057.7z M1043.5,5444.8c0,0.2,0.1,0.5,0.2,0.6
		c0.2,0.2,0.4,0.2,0.6,0.2h4.8c0.2,0,0.5-0.1,0.6-0.2c0.2-0.2,0.2-0.4,0.2-0.6v-4.5c0-0.2-0.1-0.5-0.2-0.6c-0.2-0.2-0.4-0.2-0.6-0.2
		h-4.8c-0.2,0-0.5,0.1-0.6,0.2c-0.2,0.2-0.2,0.4-0.2,0.6V5444.8z M1049.9,5447.7c0-0.2-0.1-0.5-0.2-0.6c-0.2-0.2-0.4-0.2-0.6-0.2
		h-4.8c-0.2,0-0.5,0.1-0.6,0.2c-0.2,0.2-0.2,0.4-0.2,0.6v4.6c0,0.2,0.1,0.5,0.2,0.6c0.2,0.2,0.4,0.2,0.6,0.2h4.8
		c0.2,0,0.5-0.1,0.6-0.2c0.2-0.2,0.2-0.4,0.2-0.6V5447.7z M1069.3,5458.4c0-0.2,0.1-0.4,0.3-0.5c1.1-1.2,2.1-2.4,3-3.7
		c1.2-1.9,2.1-3.9,2.8-6c0.9-2.9,1.4-6,1.3-9.1c0.1-3.1-0.4-6.1-1.3-9.1c-0.6-2.1-1.6-4.1-2.8-6c-0.9-1.3-1.9-2.6-3-3.7
		c-0.1-0.1-0.2-0.3-0.3-0.5c0-0.1,0-0.2,0.1-0.2c0.1-0.1,0.1-0.1,0.2-0.1c0.2,0,0.3,0.1,0.4,0.2c1.3,0.9,2.4,2,3.5,3.2
		c1.6,1.9,3,4.1,4,6.4c1.3,3.1,2,6.4,1.9,9.7c0.1,3.3-0.6,6.7-1.9,9.7c-1,2.3-2.3,4.5-4,6.4c-1,1.2-2.2,2.3-3.5,3.2
		c-0.1,0.1-0.3,0.2-0.4,0.2S1069.5,5458.5,1069.3,5458.4C1069.4,5458.6,1069.3,5458.5,1069.3,5458.4z M1141.9,5447
		c-0.9,0-1.7-0.3-2.4-0.7c-2.5-1.2-4.8-2.6-7-4.3c-2.6-2.1-5-4.3-7.3-6.7c-0.4-0.5-1-0.9-1.7-1c-0.7,0.1-1.3,0.5-1.8,1
		c-0.4,0.3-0.7,0.7-1,1.1c-1.1,1.1-2.1,2.2-3.1,3.4c-0.7,0.9-1.4,1.7-2.3,2.4c-0.6,0.5-1.3,0.7-2.1,0.7c-0.7,0-1.3-0.2-1.8-0.6
		c-0.6-0.3-1-0.8-1.4-1.3c-0.3-0.3-0.5-0.8-0.5-1.2c0-0.1,0-0.2,0.1-0.3c0.1-0.1,0.2-0.1,0.3-0.1c0.2,0,0.5,0,0.7,0.1
		c0.3,0,0.6,0.1,1,0.1c0.5,0,1-0.1,1.5-0.2c0.7-0.3,1.4-0.6,2-1.1c0.8-0.6,1.8-1.3,3-2.2c1.1-0.9,2.2-1.7,3.2-2.5
		c0.6-0.6,1.4-0.9,2.2-1c0.8,0.1,1.7,0.4,2.3,1c1.5,1.3,2.9,2.4,4,3.2c1.5,1.1,3.2,2.2,4.8,3.1c2.2,1.2,4.5,2.2,6.9,3
		c0.7,0.2,1.4,0.5,1.9,1.1c0.4,0.4,0.6,0.9,0.6,1.4s-0.2,0.9-0.5,1.2C1143,5446.9,1142.5,5447.1,1141.9,5447z M1196.4,5421.2
		c0.1-0.3,0.3-0.5,0.6-0.5c0.2,0,0.3,0.1,0.5,0.2l1.6,1.1c1.1,0.6,1.7,1,1.7,1.2c0,0.1-0.1,0.2-0.4,0.2h-0.1c-0.4,0-0.8,0.2-1,0.5
		c-1.3,1.4-2.7,2.8-4.2,4c-1.6,1.3-3.2,2.5-5,3.5c-0.5,0.2-0.7,0.3-0.9,0.1v-0.1c0-0.2,0.1-0.4,0.4-0.7c1.1-1.1,2.2-2.3,3.2-3.6
		c0.7-0.9,1.4-1.9,2.1-3C1195.4,5423.2,1195.9,5422.2,1196.4,5421.2z M1218.7,5434.4c0.4,0,0.8-0.2,1-0.5l0.5-0.8
		c0.1-0.1,0.2-0.3,0.4-0.6c0.2-0.2,0.3-0.4,0.4-0.5s0.2-0.2,0.3-0.2c0.6,0.2,1.1,0.5,1.5,1c0.6,0.5,1.2,1,1.7,1.6
		c0.1,0.1,0.2,0.3,0.2,0.5s-0.1,0.3-0.2,0.4c-0.2,0.1-0.5,0.2-0.7,0.2H1207c-1.8,0-3.5,0.2-5.3,0.4h-0.2c-0.4,0-0.7-0.2-0.8-0.5
		l-0.2-0.3c-0.1-0.1-0.1-0.3-0.1-0.4c0-0.2,0.1-0.3,0.2-0.4c0.2-0.1,0.4-0.1,0.6-0.1c1,0.1,2.3,0.1,4.2,0.2h4c0.2,0,0.5-0.1,0.6-0.2
		c0.2-0.2,0.2-0.4,0.2-0.6v-4.5c0-0.2-0.1-0.5-0.2-0.6c-0.2-0.2-0.4-0.2-0.6-0.2h-1.8c-1.3,0-2.7,0.2-4,0.4h-0.2
		c-0.4,0-0.7-0.2-0.8-0.5l-0.2-0.3c-0.1-0.1-0.1-0.3-0.1-0.5s0.1-0.3,0.2-0.4c0.2-0.1,0.4-0.1,0.6-0.1c0.9,0.1,2.3,0.1,4.1,0.2h2.2
		c0.4,0.1,0.8-0.2,0.8-0.6c0-0.1,0-0.1,0-0.2c-0.1-1.7-0.1-3.1-0.2-4.4v-0.2c0-0.4,0.2-0.6,0.6-0.6c0.1,0,0.3,0,0.4,0.1
		c0.9,0.2,1.7,0.5,2.5,0.8c0.5,0.2,0.7,0.4,0.7,0.6c0,0.1-0.1,0.2-0.3,0.4l0,0c-0.3,0.2-0.6,0.6-0.6,1v2.3c0,0.2,0.1,0.5,0.2,0.6
		c0.2,0.2,0.4,0.2,0.6,0.2h3.2c0.4,0,0.8-0.2,1-0.5l0.5-0.7c0.1-0.1,0.2-0.3,0.4-0.6c0.2-0.2,0.3-0.4,0.4-0.5s0.2-0.2,0.3-0.2
		c0.6,0.2,1.1,0.5,1.5,0.9c0.6,0.5,1.2,1,1.7,1.6c0.1,0.1,0.2,0.3,0.2,0.5s-0.1,0.3-0.2,0.4c-0.2,0.1-0.5,0.2-0.7,0.2h-8.2
		c-0.2,0-0.5,0.1-0.6,0.2c-0.2,0.2-0.2,0.4-0.2,0.6v4.5c0,0.2,0.1,0.5,0.2,0.6c0.2,0.2,0.4,0.2,0.6,0.2h4.5V5434.4z M1194,5440.9
		c0-0.5-0.1-0.7-0.4-0.7c-0.2,0-0.4,0.1-0.6,0.3c-1,1-2,2-3.2,2.9c-0.4,0.3-0.7,0.4-0.8,0.2l-0.1-0.2c0.1-0.3,0.2-0.5,0.4-0.7
		c1.8-2.3,3.5-4.7,5-7.3c1.2-2,2.1-4.1,2.8-6.3c0.1-0.4,0.3-0.6,0.6-0.6c0.2,0,0.4,0.1,0.5,0.2c2.2,1.2,3.3,1.9,3.3,2.2
		c0,0.1-0.1,0.2-0.4,0.2h-0.1c-0.4,0.1-0.7,0.3-0.9,0.6c-0.5,0.8-1.3,1.9-2.3,3.2l-0.6,0.8l0,0c0.2,0.1,0.5,0.3,0.6,0.5
		c0.1,0.1,0.1,0.2,0,0.4l-0.1,0.1c-0.3,0.2-0.6,0.6-0.6,1v9.2c0.1,2.9,0.1,5.8,0.3,8.8v0.2c0,0.3-0.1,0.6-0.4,0.8
		c-0.3,0.2-0.7,0.5-1.1,0.6c-0.4,0.2-0.8,0.2-1.2,0.2c-0.3,0-0.6-0.1-0.8-0.2c-0.2-0.1-0.3-0.3-0.3-0.6c0.1-1.6,0.2-3.1,0.3-4.6
		s0.1-3.4,0.2-5.8L1194,5440.9z M1217.5,5442.8c0.4,0,0.8-0.2,1-0.5l0.5-0.7c0.1-0.1,0.2-0.3,0.4-0.6c0.2-0.2,0.3-0.4,0.4-0.5
		s0.2-0.2,0.3-0.2c0.5,0.2,1,0.5,1.4,1c0.6,0.5,1.2,1,1.7,1.6c0.1,0.1,0.2,0.3,0.2,0.5s-0.1,0.3-0.2,0.4c-0.2,0.1-0.5,0.2-0.8,0.2
		h-7.7c-0.2,0-0.5,0.1-0.6,0.2c-0.2,0.2-0.2,0.4-0.2,0.6v7.1c-0.1,0.4,0.3,0.9,0.7,0.9l0,0c1.7,0.3,3.4,0.4,5.1,0.4h4.5
		c0.6,0,0.8,0.1,0.8,0.2s-0.1,0.2-0.2,0.3c-0.1,0.1-0.2,0.2-0.4,0.3c-0.5,0.4-0.8,1-0.8,1.6c-0.1,0.5-0.4,0.8-0.8,0.8h-3.4
		c-2.1,0-4.2-0.2-6.2-0.8c-1.7-0.6-3.2-1.5-4.4-2.9c-1.4-1.7-2.4-3.6-3-5.6c-0.1-0.3-0.2-0.5-0.4-0.5s-0.3,0.2-0.4,0.5
		c-1,3.7-3.1,7.1-5.9,9.8c-0.4,0.3-0.7,0.5-0.8,0.3c-0.1-0.1-0.1-0.1-0.1-0.2c0-0.2,0.2-0.5,0.3-0.6c1.9-3,3.2-6.3,3.8-9.8
		c0.4-1.9,0.5-3.9,0.5-5.8c0-0.7,0-1.2,0-1.6v-0.1c0-0.6,0.3-0.8,1-0.7c2.5,0.5,3.7,0.8,3.7,1.1c0,0.1-0.1,0.2-0.3,0.3l-0.2,0.1
		c-0.4,0.2-0.6,0.5-0.6,0.9c-0.1,1-0.3,2.1-0.6,3.1c0,0.2,0,0.3,0,0.5s0,0.4,0.1,0.6c0.7,2.2,2.1,4.2,3.8,5.7
		c0.1,0.1,0.3,0.2,0.5,0.2s0.3-0.1,0.4-0.2c0.1-0.2,0.2-0.4,0.2-0.6v-6.6c0-2.4-0.1-4.8-0.4-7.2v-0.2c0-0.4,0.2-0.6,0.6-0.6
		c0.1,0,0.3,0,0.4,0.1c2.2,0.6,3.3,1.1,3.3,1.4c0,0.1-0.1,0.2-0.3,0.3l0,0c-0.4,0.2-0.6,0.6-0.6,1v3.3c0,0.2,0.1,0.5,0.2,0.6
		c0.2,0.2,0.4,0.2,0.6,0.2h2.9V5442.8z M1253.7,5426.8c0.4,0,0.8-0.2,1-0.5l0.6-0.8c0.1-0.2,0.3-0.4,0.4-0.6s0.3-0.4,0.5-0.6
		c0.1-0.1,0.2-0.2,0.3-0.2c0.6,0.2,1.2,0.6,1.6,1c0.7,0.5,1.3,1.1,1.9,1.8c0.1,0.1,0.2,0.3,0.2,0.5s-0.1,0.3-0.2,0.4
		c-0.2,0.1-0.5,0.2-0.8,0.2h-10c-0.2,0-0.5,0.1-0.6,0.2c-0.2,0.2-0.2,0.4-0.2,0.6v3.8c0,0.2,0.1,0.5,0.2,0.6
		c0.2,0.2,0.4,0.2,0.6,0.2h8.6c0.4,0,0.8-0.2,1-0.5l0.6-0.8l0.4-0.6c0.2-0.2,0.3-0.4,0.5-0.6c0.1-0.1,0.2-0.2,0.4-0.2
		c0.6,0.2,1.2,0.6,1.6,1c0.7,0.5,1.3,1.1,1.9,1.8c0.1,0.1,0.2,0.3,0.2,0.4c0,0.2-0.1,0.3-0.2,0.4c-0.2,0.1-0.5,0.2-0.8,0.2h-27.6
		c-1.8,0-3.5,0.2-5.3,0.4h-0.2c-0.4,0-0.7-0.2-0.8-0.5l-0.2-0.3c-0.1-0.1-0.1-0.3-0.1-0.5s0.1-0.3,0.2-0.4c0.2-0.1,0.4-0.1,0.6-0.1
		c0.9,0.1,2.1,0.1,3.8,0.2h1.6c0.2,0,0.5-0.1,0.6-0.2c0.2-0.2,0.2-0.4,0.2-0.6v-0.8c0-2.4-0.1-4.8-0.4-7.2v-0.2
		c0-0.3,0.2-0.6,0.5-0.6c0.1,0,0.1,0,0.2,0s0.2,0,0.3,0c0.9,0.2,1.7,0.5,2.6,0.8c0.5,0.2,0.7,0.4,0.7,0.6c0,0.1-0.1,0.2-0.3,0.3
		h-0.1c-0.4,0.2-0.6,0.6-0.6,1v6c0,0.2,0.1,0.5,0.2,0.6c0.2,0.2,0.4,0.2,0.6,0.2h4.3c0.2,0,0.5-0.1,0.6-0.2c0.2-0.2,0.2-0.4,0.2-0.6
		v-3.9c0-2.4-0.1-4.8-0.4-7.2v-0.2c0-0.4,0.2-0.6,0.6-0.6c0.1,0,0.2,0,0.3,0c2.4,0.6,3.6,1.1,3.6,1.4c0,0.1-0.1,0.3-0.4,0.4
		l-0.1,0.1c-0.4,0.2-0.6,0.6-0.6,1v2.3c0,0.2,0.1,0.5,0.2,0.6c0.2,0.2,0.4,0.2,0.6,0.2h4.9V5426.8z M1245.3,5439.8
		c0-1.4-0.1-2.8-0.2-4.2v-0.1c0-0.5,0.2-0.7,0.6-0.7l0.4,0.1c1.2,0.3,2,0.6,2.5,0.8c0.5,0.2,0.7,0.4,0.7,0.5s-0.1,0.2-0.3,0.4h-0.1
		c-0.4,0.2-0.6,0.6-0.6,1v7.2c0,0.7-0.1,1.4-0.3,2c-0.2,0.5-0.6,1-1,1.3c-0.7,0.4-1.5,0.7-2.3,0.8h-0.2c-0.2,0-0.4,0-0.5-0.2
		s-0.2-0.3-0.3-0.5c-0.1-0.5-0.3-1-0.7-1.4c-0.7-0.5-1.5-0.8-2.4-1c-0.5-0.1-0.8-0.2-0.8-0.4c0-0.1,0.2-0.2,0.6-0.2
		c0,0,0.8,0,2.6,0.1l1.4,0.1c0.2,0,0.4,0,0.6-0.2c0.1-0.2,0.2-0.4,0.2-0.6L1245.3,5439.8z M1237.7,5436.7c0.1-0.4,0.3-0.6,0.6-0.6
		c0.2,0,0.3,0.1,0.5,0.2l1.6,1c1.2,0.5,1.8,0.9,1.8,1.1c0,0.1-0.1,0.2-0.4,0.3h-0.1c-0.4,0-0.7,0.2-1,0.6c-1.4,1.7-2.9,3.2-4.6,4.6
		c-1.8,1.5-3.7,2.8-5.7,3.9c-0.5,0.2-0.8,0.2-0.9,0.1v-0.1c0-0.2,0.2-0.4,0.5-0.6c1.5-1.3,3-2.8,4.3-4.4c0.8-0.9,1.4-1.9,2-3
		C1236.8,5438.8,1237.3,5437.7,1237.7,5436.7z M1253.2,5437.7c-0.5-0.3-0.6-0.5-0.6-0.7c0.1-0.1,0.2-0.1,0.3-0.1l0.6,0.1
		c1.9,0.4,3.8,1.1,5.5,2.1c1.2,0.6,2.3,1.5,3.1,2.6c0.6,0.7,0.9,1.6,1,2.5c0,0.4-0.1,0.8-0.4,1.2c-0.3,0.3-0.6,0.5-1,0.4
		c-0.1,0-0.3,0-0.4-0.1c-0.3-0.1-0.6-0.3-0.8-0.6c-0.8-1.4-1.9-2.7-3.1-3.8C1256.1,5440,1254.7,5438.8,1253.2,5437.7z
		 M1253.8,5442.6c0.1-0.3,0.4-0.4,0.6-0.4s0.4,0.1,0.5,0.2l1.6,1.1c1.1,0.6,1.7,1,1.7,1.2c0,0.1-0.2,0.2-0.5,0.2h-0.2
		c-0.4,0-0.7,0.2-1,0.5c-2,2.5-4.3,4.7-7,6.4c-2.5,1.6-5.1,2.9-7.9,3.7c-3.2,0.9-6.4,1.5-9.7,1.9h-0.3c-0.3,0-0.5-0.1-0.6-0.3l0,0
		c0-0.2,0.3-0.3,0.8-0.5c3.3-0.7,6.5-1.8,9.6-3c2.7-1.2,5.3-2.8,7.5-4.7c1-0.9,1.9-1.9,2.7-3
		C1252.4,5444.9,1253.1,5443.8,1253.8,5442.6L1253.8,5442.6z M1341.8,5423.9c-0.5,0.1-0.7,0.3-0.7,0.6c0,0.1,0.1,0.3,0.1,0.4
		c1.2,2.3,2.9,4.3,4.8,6c2,1.9,4.3,3.5,6.8,4.8c0.5,0.2,0.7,0.4,0.7,0.5s-0.1,0.2-0.2,0.2c-0.2,0.1-0.3,0.2-0.5,0.2
		c-0.7,0.4-1.4,0.9-1.8,1.6c-0.1,0.2-0.3,0.4-0.6,0.4c-0.2,0-0.3-0.1-0.5-0.2c-2.3-1.8-4.3-3.9-6-6.3s-3.1-5-4-7.7
		c-0.1-0.4-0.5-0.7-1-0.7h-2.1c-1.5,0-2.9,0.2-4.4,0.4h-0.2c-0.4,0-0.7-0.2-0.8-0.5l-0.2-0.3c-0.1-0.1-0.1-0.3-0.1-0.5
		s0.1-0.3,0.2-0.4c0.2-0.1,0.4-0.1,0.6-0.1c0.9,0.1,2.3,0.1,4.1,0.2h2.1c0.4,0,0.8-0.2,1-0.6l0.5-0.8c0.1-0.2,0.4-0.4,0.6-0.4
		s0.4,0.1,0.5,0.2l2,1.4c0.2,0.1,0.4,0.3,0.5,0.6c0.1,0.2,0,0.4-0.1,0.4l0,0C1342.7,5423.7,1342.2,5423.8,1341.8,5423.9
		L1341.8,5423.9z M1326.2,5424.4c0.1-0.4,0.3-0.6,0.6-0.6c0.2,0,0.3,0,0.4,0.1l1.7,0.9c1.3,0.5,1.9,0.8,1.9,1.1
		c0,0.1-0.1,0.2-0.4,0.3h-0.1c-0.4,0.1-0.7,0.3-0.9,0.6c-1.4,2.4-2.9,4.7-4.7,6.8c-1.8,2.2-3.9,4-6.2,5.6c-0.5,0.3-0.7,0.4-0.8,0.2
		c0,0,0-0.1,0-0.2c0.1-0.3,0.2-0.5,0.4-0.6c2.2-2.4,4.1-5,5.7-7.9C1324.8,5428.8,1325.6,5426.7,1326.2,5424.4L1326.2,5424.4z
		 M1330.2,5439c0-0.5-0.3-0.7-0.8-0.7h-1.6c-1.2,0-2.5,0.2-3.7,0.4c-0.1,0-0.2,0-0.3,0c-0.3,0-0.7-0.2-0.8-0.5l-0.2-0.3
		c-0.1-0.1-0.1-0.3-0.1-0.5s0.1-0.3,0.2-0.4c0.2-0.1,0.4-0.1,0.6-0.1c0.9,0.1,2.3,0.1,4.1,0.2h13.9c0.4,0,0.8-0.2,1-0.5l0.4-0.4
		c0.1-0.1,0.3-0.3,0.5-0.5c0.2-0.3,0.4-0.4,0.6-0.4c0.5,0.2,0.9,0.5,1.3,0.8c0.6,0.4,1.1,0.9,1.5,1.5c0.1,0.1,0.1,0.3,0.2,0.4
		c0,0.2-0.1,0.4-0.4,0.5l-0.3,0.1c-0.5,0.1-0.8,0.5-0.8,0.9c-0.1,3.7-0.5,7.4-1.1,11.1c-0.5,2.7-1.2,4.5-2,5.4
		c-1.1,0.9-2.4,1.5-3.8,1.5h-0.1c-0.4,0-0.7-0.3-0.8-0.8c-0.1-0.6-0.3-1.1-0.8-1.4c-0.4-0.3-0.8-0.5-1.3-0.6c-0.7-0.2-1.3-0.4-2-0.5
		c-0.5-0.1-0.8-0.2-0.8-0.5c0-0.2,0.3-0.3,0.9-0.2c2.2,0.2,3.9,0.4,5,0.4c0.3,0,0.6,0,0.9-0.1c0.2-0.1,0.4-0.2,0.6-0.4
		c0.5-0.5,1-2,1.4-4.5s0.7-5.7,0.8-9.7v-0.1c0-0.2-0.1-0.4-0.2-0.6c-0.2-0.1-0.4-0.2-0.6-0.2h-7.2c-0.4-0.1-0.8,0.2-0.9,0.7v0.1
		c-0.3,2.3-0.9,4.5-1.7,6.7c-1,2.3-2.3,4.3-4.1,6.1c-2.2,2.3-4.9,4.1-7.8,5.4c-0.2,0.1-0.4,0.2-0.6,0.2c-0.1,0-0.3,0-0.3-0.2
		c-0.1-0.1,0-0.3,0.2-0.4c0.3-0.3,0.6-0.6,1-0.8c2.2-1.5,4.2-3.3,5.8-5.4c1.3-1.7,2.3-3.6,2.9-5.6c0.6-1.9,0.9-3.9,1.1-5.9
		L1330.2,5439z M1392.4,5458.7c-0.2,0-0.3-0.1-0.4-0.2c-1.3-0.9-2.4-2-3.5-3.2c-1.6-1.9-3-4.1-4-6.4c-1.3-3.1-2-6.4-1.9-9.7
		c-0.1-3.3,0.6-6.7,1.9-9.7c1-2.3,2.3-4.5,4-6.4c1-1.2,2.2-2.3,3.5-3.2c0.1-0.1,0.3-0.2,0.4-0.2s0.2,0,0.2,0.1
		c0.1,0,0.1,0.1,0.1,0.2c0,0.2-0.1,0.4-0.3,0.5c-1.1,1.2-2.1,2.4-3,3.7c-1.2,1.9-2.1,3.9-2.8,6c-0.9,2.9-1.4,6-1.3,9.1
		c-0.1,3.1,0.4,6.1,1.3,9.1c0.6,2.1,1.6,4.1,2.8,6c0.9,1.3,1.9,2.6,3,3.7c0.1,0.1,0.2,0.3,0.3,0.5c0,0.1,0,0.2-0.1,0.2
		C1392.6,5458.7,1392.5,5458.7,1392.4,5458.7L1392.4,5458.7z M1401.4,5428.2c0.5-1.1,0.9-2.3,1.2-3.5c0.3-1.2,0.6-2.3,0.8-3.5
		c0.1-0.4,0.3-0.6,0.6-0.6c0.2,0,0.3,0,0.4,0.1c2.3,0.9,3.4,1.5,3.4,1.8c0,0.1-0.1,0.2-0.4,0.3h-0.2c-0.4,0.1-0.7,0.4-0.9,0.7
		c-1,1.7-2.2,3.3-3.6,4.8c-0.1,0.2-0.2,0.4-0.2,0.6s0.1,0.5,0.3,0.6c0.7,0.6,1.1,1.5,1.2,2.4c0,0.4-0.1,0.8-0.4,1.1
		c-0.2,0.3-0.6,0.4-0.9,0.4c-0.2,0-0.4,0-0.6-0.1c-0.3-0.2-0.6-0.5-0.7-0.8c-0.3-0.8-0.8-1.6-1.3-2.3c-0.5-0.8-1.1-1.5-1.8-2.2
		c-0.4-0.4-0.5-0.7-0.4-0.8c0.1-0.1,0.2-0.1,0.3-0.1c0.2,0,0.5,0.1,0.7,0.2c0.5,0.1,1,0.3,1.4,0.6L1401.4,5428.2z M1427.1,5429.2
		c0.4,0,0.8-0.2,1-0.5l0.4-0.5c0.1-0.1,0.3-0.3,0.5-0.6c0.2-0.3,0.4-0.4,0.6-0.4c0.5,0.2,0.9,0.5,1.3,0.8c0.6,0.5,1.1,1,1.6,1.5
		c0.1,0.1,0.2,0.3,0.2,0.4c0,0.2-0.1,0.4-0.4,0.5l-0.4,0.1c-0.5,0.1-0.8,0.5-0.8,1c-0.2,6.9-0.5,12.3-1,16.2s-1.2,6.5-2.2,7.6
		c-1.1,1.2-2.6,1.9-4.2,1.9h-0.1c-0.4,0-0.7-0.3-0.8-0.8c-0.1-0.6-0.3-1.1-0.8-1.5c-1.2-0.7-2.5-1.1-3.8-1.3
		c-0.5-0.1-0.8-0.3-0.8-0.5s0.3-0.3,0.9-0.2c3,0.3,4.8,0.4,5.5,0.4c0.3,0,0.6,0,0.9-0.1c0.2-0.1,0.5-0.3,0.6-0.5
		c1.3-1.2,2.2-8.4,2.6-21.6v-0.1c0-0.2-0.1-0.4-0.2-0.6c-0.2-0.1-0.4-0.2-0.6-0.2h-9.6c-0.4,0-0.8,0.2-1,0.6c-1,1.9-2.2,3.6-3.5,5.3
		c-0.3,0.3-0.5,0.4-0.6,0.4s-0.3-0.1-0.3-0.2c0,0,0,0,0-0.1c0-0.2,0.1-0.4,0.2-0.6c1-2.1,1.8-4.3,2.5-6.5c0.4-1.3,0.7-2.6,0.9-3.9
		c0.3-1.3,0.4-2.5,0.5-3.8c0.1-0.5,0.3-0.7,0.6-0.7c0.1,0,0.3,0,0.4,0.1c2.4,0.7,3.6,1.2,3.6,1.6c0,0.1-0.1,0.2-0.4,0.3l-0.2,0.1
		c-0.4,0.2-0.6,0.5-0.8,0.8c-0.5,1.5-1.1,3.1-1.8,4.5c-0.1,0.1-0.1,0.3-0.1,0.4c0,0.4,0.2,0.6,0.7,0.6h8.9V5429.2z M1404.1,5436.6
		c-0.2,0.1-0.3,0.3-0.3,0.6c0,0.1,0.1,0.3,0.2,0.3c0.2,0.1,0.4,0.1,0.6,0.1l3.9-0.3c0.5-0.1,0.7-0.3,0.7-0.6c0-0.2,0-0.3-0.1-0.4
		c-0.4-0.7-0.7-1.2-0.9-1.5c-0.3-0.5-0.4-0.7-0.2-0.8c0,0,0.1,0,0.2,0c0.2,0,0.5,0.1,0.6,0.2c1.4,0.7,2.6,1.7,3.6,2.9
		c0.7,0.8,1.1,1.8,1.2,2.9c0,0.5-0.1,0.9-0.4,1.3c-0.2,0.3-0.6,0.5-1,0.5c-0.3,0-0.5-0.1-0.8-0.2c-0.3-0.2-0.5-0.5-0.6-0.9
		c-0.2-0.9-0.4-1.5-0.5-1.7c-0.1-0.4-0.5-0.7-0.9-0.6h-0.1l-1.4,0.4c-0.4,0.1-0.8,0.5-0.7,0.9v7.5c0.1,2.9,0.1,5.8,0.3,8.8v0.2
		c0,0.3-0.1,0.6-0.4,0.8c-0.7,0.5-1.5,0.7-2.3,0.7c-0.2,0-0.5-0.1-0.6-0.2c-0.2-0.1-0.3-0.3-0.3-0.6c0.1-1.6,0.2-3.1,0.3-4.6
		c0.1-1.5,0.1-3.4,0.2-5.8v-6c0-0.2-0.1-0.5-0.3-0.6c-0.2-0.1-0.4-0.2-0.7-0.1l-3.2,0.7c-0.3,0-0.5,0.1-0.7,0.3
		c0,0.1-0.1,0.2-0.1,0.2c-0.1,0.1-0.2,0.2-0.4,0.2c-0.3,0-0.5-0.2-0.6-0.6l-0.4-1.6c0-0.1,0-0.2,0-0.3c0-0.4,0.2-0.6,0.7-0.6
		l2.8-0.2c0.4,0,0.8-0.2,1-0.6c0.8-1.3,1.7-2.9,2.6-4.6c1.2-2.1,2.1-4.4,2.8-6.7c0.1-0.4,0.3-0.6,0.6-0.6c0.2,0,0.3,0.1,0.5,0.1
		c2.2,0.9,3.2,1.6,3.2,1.9c0,0.1-0.1,0.2-0.4,0.3h-0.2c-0.3,0.1-0.6,0.3-0.8,0.6C1408.6,5431.2,1406.5,5434,1404.1,5436.6
		L1404.1,5436.6z M1417.1,5436.6c-0.3-0.5-0.4-0.7-0.3-0.8c0,0,0.1,0,0.2,0c0.2,0,0.5,0.1,0.6,0.2c1.6,0.8,3.1,1.9,4.2,3.4
		c0.8,1,1.3,2.2,1.4,3.5c0,0.6-0.1,1.1-0.4,1.6c-0.2,0.4-0.7,0.6-1.1,0.6c-0.3,0-0.6-0.1-0.8-0.2c-0.3-0.2-0.5-0.5-0.6-0.9
		c-0.2-1.3-0.6-2.5-1.1-3.7C1418.6,5439,1417.9,5437.8,1417.1,5436.6L1417.1,5436.6z M1399.5,5443.5c0-0.5,0.2-0.8,0.6-0.8l0.3,0.1
		l1,0.3c0.2,0.1,0.5,0.1,1,0.2c0.8,0.2,1.2,0.4,1.2,0.6c0,0.1-0.1,0.3-0.4,0.4h-0.1c-0.4,0.2-0.6,0.5-0.7,0.9c-0.9,3-2.2,5.8-4,8.3
		c-0.2,0.3-0.5,0.5-0.6,0.5s-0.3-0.1-0.3-0.4c0-0.2,0-0.4,0.1-0.6c0.3-0.7,0.5-1.4,0.7-2.1c0.3-1.1,0.6-2.4,0.9-3.8
		C1399.3,5446,1399.5,5444.7,1399.5,5443.5L1399.5,5443.5z M1408.5,5443.5c-0.1-0.2-0.1-0.4-0.2-0.6s0-0.3,0.1-0.3c0,0,0.1,0,0.2,0
		c0.2,0,0.5,0.1,0.6,0.3c1.3,0.8,2.3,1.9,3.2,3.1c0.6,0.9,1,1.9,1,3c0,0.5-0.1,1.1-0.4,1.5c-0.2,0.4-0.6,0.6-1.1,0.6
		c-0.3,0-0.6-0.1-0.8-0.2c-0.3-0.2-0.5-0.5-0.5-0.9c-0.2-1.1-0.4-2.1-0.8-3.2C1409.4,5445.6,1409,5444.5,1408.5,5443.5
		L1408.5,5443.5z M1455.2,5446.2c0.6,0,0.8,0.3,0.8,0.8s-0.3,0.8-0.8,0.8h-3c-0.2,0-0.5,0.1-0.6,0.2c-0.2,0.2-0.2,0.4-0.2,0.6v2.7
		c-0.1,0.6,0.2,1.2,0.8,1.5c0.7,0.3,1.4,0.4,2.1,0.4h0.5c0.2,0,0.4,0.2,0.4,0.6s-0.1,0.6-0.4,0.6h-10.4c-0.2,0-0.3-0.2-0.3-0.6
		s0.1-0.6,0.3-0.6h0.5c0.7,0,1.4-0.1,2-0.4s0.9-0.9,0.8-1.5v-2.7c0-0.2-0.1-0.5-0.2-0.6c-0.2-0.2-0.4-0.2-0.6-0.2h-9.5
		c-0.6,0-0.8-0.3-0.8-0.8v-0.2c0-0.4,0.1-0.7,0.3-1l12.6-20.3c0.2-0.4,0.7-0.6,1.1-0.4h0.2c0.4,0.1,0.8,0.5,0.7,0.9v19.4
		c0,0.2,0.1,0.5,0.2,0.6c0.2,0.2,0.4,0.2,0.6,0.2H1455.2z M1447.6,5433.2c0-0.2,0-0.4-0.1-0.5s-0.2-0.2-0.3-0.2
		c-0.2,0-0.4,0.1-0.6,0.4l-7.6,12.3c-0.1,0.1-0.1,0.3-0.2,0.5c0,0.3,0.2,0.5,0.7,0.5h7.2c0.2,0,0.5-0.1,0.6-0.2
		c0.2-0.2,0.2-0.4,0.2-0.6L1447.6,5433.2z M1467.8,5454.9c-1.6,0-3.2-0.6-4.5-1.7c-1.6-1.4-2.7-3.1-3.4-5.1
		c-0.9-2.7-1.4-5.5-1.3-8.3c-0.1-2.8,0.4-5.6,1.3-8.3c0.7-2,1.8-3.7,3.4-5.1c1.3-1.1,2.9-1.7,4.5-1.7s3.2,0.6,4.5,1.7
		c1.6,1.4,2.8,3.1,3.4,5.1c0.9,2.7,1.4,5.5,1.3,8.3c0.1,2.8-0.4,5.6-1.3,8.3c-0.7,2-1.9,3.7-3.4,5.1
		C1471.1,5454.3,1469.5,5454.9,1467.8,5454.9z M1467.9,5453.5c1.6,0,2.9-1.1,3.8-3.4s1.4-5.7,1.4-10.2s-0.5-8-1.4-10.3
		s-2.2-3.4-3.8-3.4c-1.6,0-2.9,1.1-3.8,3.4s-1.4,5.7-1.4,10.3s0.5,8,1.4,10.2C1465,5452.4,1466.3,5453.5,1467.9,5453.5z
		 M1515.6,5453.3c0.2,0,0.3,0.2,0.3,0.5s-0.1,0.5-0.3,0.5h-9.4c-0.2,0-0.3-0.2-0.3-0.5s0.1-0.5,0.3-0.5h0.5c0.6,0,1.2-0.1,1.8-0.3
		c0.5-0.3,0.7-0.9,0.7-1.4v-5.7c0-1.8,0-3.3-0.1-4.4c0-1.2-0.4-2.4-1-3.4c-0.7-0.9-1.8-1.4-2.9-1.3c-1,0-1.9,0.3-2.7,0.8
		c-0.9,0.6-1.7,1.3-2.3,2.3c-0.2,0.2-0.3,0.5-0.3,0.8c0,0.1,0,0.2,0,0.3c0,0.5,0,1.4,0,2.8c0,2.2,0,4.8-0.1,7.9
		c-0.1,0.6,0.2,1.1,0.7,1.4c0.6,0.3,1.2,0.4,1.8,0.3h0.5c0.2,0,0.3,0.2,0.3,0.5s-0.1,0.5-0.3,0.5h-9.4c-0.2,0-0.3-0.2-0.3-0.5
		s0.1-0.5,0.3-0.5h0.5c0.6,0,1.2-0.1,1.8-0.3c0.5-0.3,0.7-0.9,0.7-1.4v-5.6c0-1.9,0-3.4-0.1-4.6c-0.1-3.2-1.4-4.8-3.9-4.8
		c-1,0-1.9,0.3-2.8,0.8c-0.9,0.6-1.7,1.3-2.3,2.3c-0.2,0.3-0.3,0.7-0.3,1v10.8c-0.1,0.6,0.2,1.1,0.7,1.4c0.6,0.3,1.2,0.4,1.8,0.3
		h0.5c0.2,0,0.3,0.2,0.3,0.5s-0.1,0.5-0.3,0.5h-9.3c-0.2,0-0.3-0.2-0.3-0.5s0.1-0.5,0.3-0.5h0.5c0.6,0,1.3-0.1,1.8-0.3
		c0.5-0.3,0.8-0.9,0.7-1.4l-0.1-12.2c0.1-0.6-0.2-1.2-0.7-1.6c-0.7-0.3-1.4-0.5-2.2-0.5c-0.2,0-0.4-0.2-0.4-0.6
		c0-0.2,0.1-0.3,0.2-0.3c1.3-0.4,2.6-0.7,3.9-1l1.7-0.4h0.2c0.2,0,0.4,0.1,0.5,0.2c0.1,0.2,0.2,0.4,0.2,0.6v1.1c0,0.2,0,0.3,0.1,0.5
		c0,0.1,0.1,0.2,0.3,0.2c0.2,0,0.5-0.2,0.6-0.4c1.3-1.5,3.3-2.4,5.3-2.4c1.3,0,2.5,0.3,3.6,0.9c0.9,0.5,1.7,1.3,2.2,2.3
		c0.2,0.3,0.3,0.4,0.5,0.4s0.4-0.1,0.5-0.3c1.3-2,3.6-3.2,6-3.3c1.8-0.1,3.5,0.5,4.8,1.8c1.1,1.2,1.7,2.7,1.8,4.3c0,0.5,0,1.4,0,2.8
		c0,2.2-0.1,4.8-0.2,7.9c-0.1,0.6,0.2,1.1,0.7,1.4c0.6,0.3,1.2,0.4,1.8,0.3L1515.6,5453.3L1515.6,5453.3z M1519.7,5458.4
		c0-0.2,0.1-0.4,0.3-0.5c1.1-1.2,2.1-2.4,3-3.7c1.2-1.9,2.1-3.9,2.8-6c0.9-2.9,1.4-6,1.3-9.1c0.1-3.1-0.4-6.1-1.3-9.1
		c-0.6-2.1-1.6-4.1-2.8-6c-0.9-1.3-1.9-2.6-3-3.7c-0.1-0.1-0.2-0.3-0.3-0.5c0-0.1,0-0.2,0.1-0.2c0.1-0.1,0.1-0.1,0.2-0.1
		c0.2,0,0.3,0.1,0.4,0.2c1.3,0.9,2.4,2,3.5,3.2c1.6,1.9,3,4.1,4,6.4c1.3,3.1,2,6.4,1.9,9.7c0.1,3.3-0.6,6.7-1.9,9.7
		c-1,2.3-2.3,4.5-4,6.4c-1,1.2-2.2,2.3-3.5,3.2c-0.1,0.1-0.3,0.2-0.4,0.2S1519.9,5458.5,1519.7,5458.4
		C1519.7,5458.6,1519.7,5458.5,1519.7,5458.4z"/>
	<path class="st1" d="M1278.2,5454.4c-0.2,0-0.3-0.1-0.4-0.3c-0.1-0.2-0.1-0.5-0.1-0.8s0-0.5,0.1-0.8c0.1-0.2,0.2-0.3,0.4-0.3h1.1
		c5.6,0,8.4-1.7,8.4-5v-34.4c0.1-1.2-0.1-2.3-0.5-3.4c-0.4-0.7-1.2-1.2-2-1.2c-1.8-0.2-3.6-0.3-5.4-0.3h-1.6c-0.3,0-0.5-0.3-0.5-1
		s0.2-1,0.5-1c5.2-0.1,10.4-1.7,14.7-4.7c0.3-0.2,0.6-0.4,1-0.4c0.3,0,0.5,0.1,0.6,0.4c0.2,0.3,0.3,0.6,0.3,1v45.2
		c0,3.4,2.8,5,8.5,5h1c0.2,0,0.3,0.1,0.4,0.3c0.1,0.2,0.1,0.5,0.1,0.8c0,0.7-0.2,1-0.5,1h-26.1V5454.4z"/>
	<path class="st0" d="M392.8,5390.4c0-0.1,0-0.2-0.1-0.3c0-0.1-0.1-0.1-0.2-0.1s-0.2,0.1-0.3,0.1c-1.6,1.1-3.1,2.1-4.4,2.9
		c-0.1,0.1-0.3,0.2-0.4,0.3v0.1c0,0.1-0.1,0.2-0.2,0.2c-0.2,0-0.3-0.1-0.4-0.3l-0.7-1.5c0-0.1-0.1-0.2,0-0.3c0-0.2,0.1-0.3,0.4-0.4
		c1.7-0.5,3.7-1.2,6-2c0.3-0.1,0.4-0.3,0.4-0.6v-5.7c0-0.1,0-0.3-0.1-0.4s-0.2-0.1-0.4-0.1h-1.7c-1.1,0-2.1,0.1-3.2,0.3h-0.1
		c-0.2,0-0.4-0.1-0.5-0.3l-0.1-0.2c0-0.1-0.1-0.2-0.1-0.3c0-0.1,0-0.2,0.1-0.2c0.1-0.1,0.2-0.1,0.3-0.1c0.5,0,1.4,0.1,2.5,0.1h2.8
		c0.1,0,0.3,0,0.4-0.1s0.1-0.2,0.1-0.4v-1.2c0-1.4-0.1-2.9-0.2-4.3v-0.1c0-0.2,0.1-0.4,0.3-0.4h0.1c0.1,0,0.1,0,0.2,0
		c0.5,0.1,1.1,0.3,1.6,0.5c0.3,0.1,0.5,0.2,0.5,0.3c0,0.1-0.1,0.2-0.2,0.2h-0.1c-0.2,0.1-0.3,0.4-0.3,0.6v13c0,1.7,0.1,3.5,0.2,5.3
		v0.1c0,0.2-0.1,0.3-0.2,0.5c-0.2,0.2-0.4,0.3-0.6,0.4c-0.3,0.1-0.5,0.2-0.8,0.2c-0.1,0-0.3,0-0.4-0.1s-0.1-0.2-0.1-0.3
		c0.1-1.3,0.2-2.6,0.2-4L392.8,5390.4z M400,5376.4c-0.1,0.1-0.2,0.3-0.2,0.5v6.8c0,0.1,0,0.2,0.1,0.3c0,0.1,0.1,0.1,0.2,0.1
		s0.3-0.1,0.3-0.2c0.4-0.4,0.9-0.9,1.4-1.4c1-1,1.8-2.2,2.5-3.4c0.1-0.2,0.2-0.3,0.4-0.3c0.1,0,0.2,0.1,0.3,0.1
		c1.2,0.9,1.8,1.4,1.8,1.6c0,0.1-0.1,0.1-0.2,0.1h-0.1c-0.2,0-0.5,0.1-0.6,0.2c-0.8,0.7-1.7,1.4-2.6,2c-1,0.7-2,1.3-3.1,1.9
		c-0.2,0.1-0.4,0.3-0.4,0.6v7.4c0,0.2,0,0.4,0.2,0.6c0.3,0.1,0.6,0.2,0.9,0.2h2c0.9,0,1.5,0,1.9,0c0.2,0,0.4-0.1,0.5-0.3
		c0.3-1,0.6-1.9,0.8-2.9c0.1-0.3,0.1-0.5,0.2-0.5c0,0,0.1,0,0.1,0.1s0.1,0.2,0,0.4l0.1,2.6c0,0.3,0.2,0.5,0.4,0.6
		c0.2,0.1,0.4,0.4,0.4,0.6c0,0.3-0.1,0.6-0.4,0.7c-0.4,0.2-0.9,0.3-1.3,0.4c-0.9,0.1-1.9,0.1-2.8,0.1h-2.3c-0.5,0-1.1,0-1.6-0.2
		c-0.3-0.1-0.6-0.3-0.8-0.6c-0.2-0.4-0.3-0.9-0.2-1.3v-13.5c0-1.4-0.1-2.9-0.2-4.3v-0.1c0-0.3,0.1-0.4,0.3-0.4c0.1,0,0.2,0,0.2,0
		c0.5,0.1,1.1,0.3,1.6,0.5c0.3,0.1,0.5,0.2,0.5,0.3c0,0.1-0.1,0.2-0.2,0.2L400,5376.4z M428.8,5386.1c0.1,0,0.2-0.1,0.3-0.3l0.2-0.4
		c0.1-0.1,0.1-0.2,0.2-0.3c0.1-0.1,0.1-0.2,0.2-0.3c0-0.1,0.1-0.1,0.2-0.1s0.4,0.2,0.8,0.5c0.3,0.3,0.6,0.6,0.9,0.9
		c0.1,0.1,0.1,0.2,0.1,0.3c0,0.1,0,0.2-0.1,0.3c-0.1,0.1-0.3,0.1-0.5,0.1h-2c-0.3,0-0.5,0.2-0.5,0.5c-0.1,1.1-0.2,2.3-0.3,3.6
		c0,0.1,0,0.2,0,0.2c0,0.2,0,0.3,0.1,0.3s0.2-0.1,0.4-0.3l0.3-0.5c0-0.1,0.1-0.2,0.2-0.3c0.1-0.1,0.2-0.2,0.3-0.3
		c0-0.1,0.1-0.1,0.2-0.1s0.4,0.2,0.8,0.6c0.3,0.3,0.7,0.6,0.9,1c0.1,0.1,0.1,0.2,0.1,0.3c0,0.1,0,0.2-0.1,0.3
		c-0.1,0.1-0.3,0.1-0.5,0.1h-2.4c-0.3,0-0.5,0.2-0.6,0.5c-0.1,1-0.5,2-1.1,2.8c-0.6,0.6-1.4,0.9-2.2,1h-0.1c-0.1,0-0.2,0-0.3-0.1
		c-0.1-0.1-0.1-0.2-0.2-0.4c0-0.3-0.2-0.5-0.4-0.7c-0.5-0.3-1.1-0.5-1.7-0.6c-0.3-0.1-0.5-0.2-0.5-0.3c0-0.1,0.2-0.2,0.5-0.1
		c1.2,0.1,2.1,0.2,2.5,0.2c0.2,0,0.4,0,0.5-0.1s0.3-0.1,0.4-0.2c0.3-0.4,0.5-0.8,0.6-1.3c0-0.1,0-0.1,0-0.2c0-0.3-0.2-0.4-0.5-0.4
		h-6.9c-0.3,0-0.5,0.2-0.5,0.4l0,0c0,0.3-0.1,0.7-0.2,1c0,0.2-0.2,0.4-0.4,0.5c-0.2,0-0.3,0.1-0.5,0.1c-0.1,0-0.3,0-0.6,0
		c-0.3,0-0.5-0.2-0.4-0.6c0.3-1.3,0.7-3.4,1.1-6.1v-0.1c0-0.1,0-0.2-0.1-0.3c-0.1-0.1-0.2-0.1-0.3-0.1h-0.3c-0.3,0-0.7,0.1-1,0.2
		c-0.1,0-0.1,0-0.2,0c-0.2,0-0.4-0.1-0.5-0.3l-0.1-0.1c0-0.1-0.1-0.2-0.1-0.3c0-0.1,0-0.2,0.1-0.2c0.1-0.1,0.2-0.1,0.4-0.1
		c0.3,0,0.8,0.1,1.4,0.1h0.5c0.3,0,0.5-0.2,0.5-0.4l0,0c0.2-1.4,0.4-2.8,0.6-4v-0.1c0-0.1,0-0.2-0.1-0.3c0-0.1-0.1-0.1-0.2-0.1
		s-0.3,0.1-0.3,0.2c-0.5,0.5-1,1-1.6,1.5c-0.3,0.2-0.4,0.2-0.5,0.2v-0.1c0-0.1,0.1-0.3,0.2-0.4c0.7-1,1.4-2.2,1.9-3.3
		c0.3-0.7,0.6-1.5,0.8-2.2c0.2-0.7,0.4-1.5,0.5-2.3c0-0.3,0.2-0.4,0.4-0.4c0.1,0,0.2,0,0.3,0c1.4,0.5,2.2,0.9,2.2,1.1
		c0,0-0.1,0.1-0.2,0.2h-0.1c-0.2,0.1-0.4,0.3-0.5,0.5c-0.2,0.4-0.3,0.8-0.6,1.2c-0.1,0.1-0.1,0.2-0.1,0.3c0,0.1,0,0.2,0.1,0.2
		c0.1,0.1,0.2,0.1,0.3,0.1h6.5c0.2,0,0.5-0.1,0.6-0.3l0.3-0.5c0.1-0.1,0.2-0.2,0.3-0.4c0.1-0.1,0.2-0.2,0.2-0.3
		c0-0.1,0.1-0.1,0.2-0.1s0.4,0.2,0.9,0.6c0.4,0.3,0.7,0.6,1,1c0.1,0.1,0.1,0.2,0.1,0.3c0,0.1,0,0.2-0.1,0.2
		c-0.1,0.1-0.3,0.1-0.5,0.1h-10.2c-0.3,0-0.5,0.1-0.6,0.3c-0.2,0.3-0.3,0.6-0.6,0.8c-0.1,0.1-0.1,0.2-0.1,0.3c0,0.2,0.1,0.3,0.3,0.4
		l1,0.5c0.2,0.1,0.4,0.1,0.6,0.1h5.7c0.2,0,0.5-0.1,0.6-0.3l0.2-0.3c0.1-0.1,0.1-0.2,0.2-0.2c0.1-0.1,0.1-0.2,0.2-0.3
		c0.1-0.1,0.1-0.1,0.2-0.1s0.4,0.2,0.7,0.5c0.3,0.3,0.6,0.6,0.9,0.9c0.1,0.1,0.1,0.2,0.1,0.3c0,0.1-0.1,0.3-0.2,0.3l-0.2,0.1
		c-0.1,0-0.3,0.1-0.3,0.2c-0.1,0.1-0.1,0.2-0.1,0.4c0,1.4-0.1,2.5-0.1,3.1c0,0.1,0,0.3,0,0.4
		C428.7,5386.1,428.7,5386.1,428.8,5386.1L428.8,5386.1z M411.9,5375.1c-0.2-0.3-0.3-0.4-0.3-0.5c0.1,0,0.1-0.1,0.2,0
		c0.1,0,0.2,0,0.3,0c0.9,0.2,1.8,0.5,2.5,1.1c0.5,0.4,0.8,0.9,0.8,1.5c0,0.3-0.1,0.5-0.3,0.7c-0.2,0.2-0.4,0.3-0.6,0.3
		c-0.1,0-0.2,0-0.4,0c-0.2-0.1-0.4-0.3-0.4-0.5c-0.2-0.5-0.5-0.9-0.8-1.3C412.6,5375.9,412.3,5375.5,411.9,5375.1z M410.1,5389.7
		c0-0.1,0.1-0.2,0.1-0.2c0.1,0,0.2-0.1,0.4-0.1h0.5c0.1,0,0.2,0,0.3-0.1c0.1-0.1,0.2-0.3,0.3-0.4c0.2-0.4,0.5-1,0.9-2s1.1-2.6,2.1-5
		c0.5-1.2,0.9-2.2,1.2-2.9c0.1-0.3,0.3-0.4,0.4-0.4s0.1,0.1,0.1,0.2s0,0.2-0.1,0.3c-1.7,5.3-2.6,8.4-2.8,9.1
		c-0.2,0.7-0.3,1.4-0.3,2.1c0,0.3,0,0.5,0.1,0.8s0.1,0.5,0.2,0.6c0.1,0.4,0.2,0.9,0.3,1.2c0.1,0.4,0.1,0.8,0.1,1.3s-0.1,1-0.4,1.5
		c-0.2,0.3-0.6,0.6-1,0.5c-0.2,0-0.4-0.1-0.5-0.2c-0.2-0.2-0.3-0.4-0.3-0.7c0-0.1,0-0.2,0-0.3c0-0.1,0-0.2,0-0.3
		c0.1-0.7,0.1-1.5,0.1-2.2c0-0.5,0-1-0.1-1.5c0-0.3-0.2-0.6-0.4-0.8c-0.2-0.1-0.4-0.2-0.7-0.3C410.3,5390,410.1,5389.9,410.1,5389.7
		z M410.2,5380.6c-0.1-0.1-0.2-0.2-0.3-0.3c-0.1-0.1-0.1-0.1,0-0.2c0.1,0,0.1-0.1,0.2,0c0.1,0,0.2,0,0.3,0c0.9,0.1,1.7,0.5,2.4,1.1
		c0.5,0.4,0.7,0.9,0.8,1.5c0,0.3-0.1,0.5-0.2,0.7c-0.2,0.2-0.4,0.3-0.6,0.3c-0.1,0-0.3,0-0.4-0.1c-0.2-0.1-0.4-0.3-0.4-0.5
		c-0.2-0.5-0.4-0.9-0.7-1.3C410.9,5381.4,410.6,5381,410.2,5380.6z M419.5,5385.7c0,0.3,0.2,0.5,0.5,0.5h1.9c0.3,0,0.5-0.2,0.5-0.4
		c0,0,0,0,0-0.1c0.1-1,0.2-2.2,0.4-3.4v-0.1c0-0.3-0.2-0.5-0.5-0.5h-1.7c-0.3,0-0.5,0.1-0.5,0.4L419.5,5385.7L419.5,5385.7z
		 M424,5385.7c0,0.3,0.2,0.5,0.5,0.5h2c0.3,0,0.5-0.2,0.5-0.5c0-0.4,0.1-0.8,0.1-1.4s0-1,0.1-1.2v-0.8c0-0.1,0-0.3-0.1-0.4
		s-0.2-0.1-0.4-0.1h-1.8c-0.2,0-0.5,0.1-0.5,0.4l0,0L424,5385.7L424,5385.7z M418.6,5391c0,0.3,0.2,0.4,0.5,0.4h2
		c0.3,0,0.5-0.2,0.6-0.4l0,0l0.5-3.6v-0.1c0-0.3-0.2-0.4-0.5-0.4h-1.9c-0.3,0-0.5,0.2-0.5,0.4l0,0c-0.2,1.3-0.4,2.5-0.6,3.6v0.1
		H418.6z M426.9,5387.3c0-0.3-0.2-0.5-0.5-0.5h-2c-0.3,0-0.5,0.2-0.5,0.4c0,0,0,0,0,0.1l-0.4,3.6v0.1c0,0.3,0.2,0.4,0.5,0.4h2.1
		c0.3,0,0.5-0.1,0.5-0.3C426.7,5389.7,426.8,5388.4,426.9,5387.3L426.9,5387.3z M450.1,5381.2c0.2,0,0.5-0.1,0.6-0.3l0.2-0.3
		c0.1-0.1,0.1-0.2,0.2-0.3c0.1-0.1,0.1-0.2,0.2-0.3c0-0.1,0.1-0.1,0.2-0.1s0.4,0.2,0.8,0.5s0.7,0.6,1,0.9c0.1,0.1,0.1,0.1,0.1,0.2
		s-0.1,0.3-0.2,0.3l-0.2,0.1c-0.1,0-0.2,0.1-0.3,0.2c-0.1,0.1-0.1,0.2-0.1,0.3v3.8c0,1.7,0.1,3.5,0.2,5.3v0.1c0,0.2-0.1,0.4-0.3,0.5
		c-0.2,0.1-0.4,0.3-0.7,0.3c-0.2,0.1-0.5,0.1-0.7,0.1c-0.1,0-0.3-0.1-0.3-0.2s-0.1-0.2-0.1-0.2c0-0.1,0-0.2,0-0.3v-0.2
		c0-0.3-0.2-0.5-0.5-0.5h-5.9c-0.1,0-0.3,0-0.4,0.1s-0.1,0.2-0.1,0.4v0.4c0,0.1-0.2,0.3-0.5,0.4c-0.3,0.2-0.7,0.2-1,0.2
		c-0.1,0-0.3,0-0.4-0.1s-0.2-0.2-0.2-0.3c0.1-1.4,0.2-3,0.2-4.8v-2.6c0-1.4-0.1-2.8-0.2-4.2v-0.1c0-0.2,0.1-0.4,0.3-0.4
		c0.1,0,0.2,0,0.2,0l1.3,0.6c0.2,0.1,0.4,0.1,0.6,0.1h0.8c0.3,0,0.5-0.2,0.5-0.4c0,0,0,0,0-0.1l0.1-1.2v-0.1c0-0.3-0.2-0.5-0.5-0.5
		h-1c-1,0-2.1,0.1-3.1,0.3h-0.1c-0.2,0-0.4-0.1-0.5-0.3l-0.1-0.2c0-0.1-0.1-0.2-0.1-0.3c0-0.2,0.2-0.3,0.5-0.3
		c0.5,0,1.4,0.1,2.5,0.1h4.7c0.3,0,0.5-0.2,0.6-0.4c0.4-1.1,0.7-2.1,0.8-3.3c0-0.3,0.2-0.4,0.4-0.4c0.1,0,0.1,0,0.2,0
		c1.5,0.4,2.2,0.7,2.2,0.9c0,0.1-0.1,0.1-0.2,0.2h-0.1c-0.2,0.1-0.4,0.2-0.5,0.4c-0.5,0.7-1.1,1.3-1.7,1.9c-0.1,0.1-0.2,0.2-0.2,0.3
		c0,0.1,0,0.2,0.1,0.2c0.1,0.1,0.2,0.1,0.3,0.1h1.8c0.2,0,0.5-0.1,0.6-0.3l0.3-0.5c0.1-0.1,0.2-0.2,0.3-0.4c0.1-0.1,0.2-0.2,0.3-0.3
		c0-0.1,0.1-0.1,0.2-0.1c0.3,0.1,0.7,0.3,0.9,0.6c0.4,0.3,0.7,0.7,1,1c0.1,0.1,0.1,0.2,0.1,0.3c0,0.1-0.1,0.2-0.1,0.3
		c-0.1,0.1-0.3,0.1-0.4,0.1h-6.3c-0.3,0-0.5,0.1-0.6,0.4c-0.2,0.3-0.4,0.7-0.7,1.3c-0.1,0.1-0.1,0.2-0.1,0.3c0,0.2,0.1,0.3,0.4,0.3
		L450.1,5381.2z M443,5374.9c-0.1-0.1-0.2-0.3-0.2-0.4s0.1-0.1,0.2-0.1s0.2,0,0.3,0.1c0.7,0.2,1.4,0.6,2,1.1
		c0.4,0.4,0.6,0.9,0.6,1.4c0,0.3-0.1,0.6-0.3,0.8c-0.2,0.2-0.4,0.3-0.7,0.3c-0.2,0-0.3,0-0.5-0.1c-0.1-0.1-0.2-0.1-0.2-0.2
		c-0.1-0.1-0.1-0.2-0.1-0.3C443.9,5376.5,443.5,5375.6,443,5374.9z M435,5375.7c-0.1-0.1-0.2-0.3-0.3-0.4c0,0,0-0.1,0.1-0.1
		s0.2,0,0.4,0.1c1.1,0.3,2.1,0.9,2.9,1.6c0.5,0.5,0.9,1.2,0.9,1.9c0,0.3-0.1,0.6-0.3,0.9c-0.2,0.2-0.4,0.3-0.7,0.3
		c-0.2,0-0.3,0-0.5-0.1s-0.3-0.3-0.4-0.5c-0.2-0.7-0.5-1.3-0.9-1.9C436,5376.8,435.5,5376.2,435,5375.7z M450.2,5384.3
		c0.1,0,0.3,0,0.4-0.1s0.1-0.2,0.1-0.4v-1.4c0-0.1,0-0.3-0.1-0.4s-0.2-0.1-0.4-0.1h-5.9c-0.1,0-0.3,0-0.4,0.1s-0.1,0.2-0.1,0.4v1.4
		c0,0.1,0,0.3,0.1,0.4s0.2,0.1,0.4,0.1H450.2z M436.5,5384.6c0.2,0,0.5-0.1,0.6-0.3l0.2-0.4c0-0.1,0.1-0.2,0.2-0.3
		c0.1-0.1,0.1-0.2,0.2-0.3c0-0.1,0.1-0.1,0.2-0.1c0.3,0.1,0.6,0.3,0.9,0.6c0.4,0.3,0.8,0.6,1.1,1c0.1,0.1,0.1,0.2,0.1,0.3
		c0,0.1-0.1,0.3-0.2,0.3l-0.4,0.1c-0.3,0-0.5,0.3-0.5,0.6v5.5c0,0.2,0.1,0.5,0.2,0.6c0.5,0.5,1,0.9,1.7,1.2c0.7,0.3,1.4,0.5,2.1,0.5
		c1.1,0.1,2.2,0.1,3.3,0.1c3.9,0,6.7,0,8.5-0.1h0.1c0.1,0,0.2,0,0.3,0c0.1,0,0.1,0.1,0.1,0.1s0,0.1-0.1,0.1s-0.2,0.1-0.3,0.2
		c-0.4,0.2-0.7,0.6-0.8,1c0,0.3-0.3,0.5-0.6,0.5h-7.2c-1.1,0-2.3-0.1-3.4-0.2c-0.8-0.1-1.6-0.4-2.2-0.9c-0.7-0.5-1.2-1.1-1.7-1.9
		c-0.1-0.1-0.2-0.2-0.4-0.3c-0.1,0-0.2,0.1-0.3,0.2c-1,1.1-2,2-2.8,2.8c-0.2,0.2-0.3,0.3-0.3,0.3v0.1c-0.1,0-0.2,0.1-0.3,0.1
		c-0.1,0-0.3-0.1-0.3-0.2l-0.6-1.3c0-0.1-0.1-0.2-0.1-0.3c0-0.2,0.1-0.3,0.3-0.4c0.5-0.2,1.4-0.6,2.6-1.3c0.2-0.1,0.4-0.3,0.4-0.6
		v-6.2c0-0.1,0-0.3-0.1-0.4s-0.2-0.1-0.4-0.1H436c-0.5,0-1,0.1-1.5,0.2c-0.1,0-0.1,0-0.2,0c-0.2,0-0.4-0.1-0.5-0.3l-0.1-0.2
		c0-0.1-0.1-0.2-0.1-0.3c0-0.2,0.2-0.3,0.5-0.3s0.8,0.1,1.5,0.1L436.5,5384.6z M450.7,5385.5c0-0.1,0-0.3-0.1-0.4s-0.2-0.1-0.4-0.1
		h-5.9c-0.1,0-0.3,0-0.4,0.1s-0.1,0.2-0.1,0.4v1.4c0,0.1,0,0.3,0.1,0.4s0.2,0.1,0.4,0.1h5.9c0.1,0,0.3,0,0.4-0.1s0.1-0.2,0.1-0.4
		V5385.5z M444.4,5388.1c-0.1,0-0.3,0-0.4,0.1s-0.1,0.2-0.1,0.4v1.6c0,0.1,0,0.3,0.1,0.4s0.2,0.1,0.4,0.1h5.9c0.1,0,0.3,0,0.4-0.1
		s0.1-0.2,0.1-0.4v-1.6c0-0.1,0-0.3-0.1-0.4s-0.2-0.1-0.4-0.1H444.4z M475.1,5379.4c0.2,0,0.5-0.1,0.6-0.3l0.2-0.3
		c0-0.1,0.1-0.2,0.3-0.3c0.1-0.1,0.3-0.2,0.3-0.2c0.3,0.1,0.6,0.3,0.8,0.5c0.4,0.3,0.7,0.5,1,0.9c0.1,0.1,0.1,0.2,0.1,0.3
		c0,0.1-0.1,0.2-0.2,0.3l-0.3,0.1c-0.1,0-0.2,0.1-0.3,0.2c-0.1,0.1-0.1,0.2-0.1,0.3v2.3c0,1.6,0.1,3.3,0.2,4.9v0.1
		c0,0.2-0.1,0.4-0.3,0.5c-0.2,0.1-0.5,0.3-0.7,0.3c-0.3,0.1-0.5,0.1-0.8,0.1h-0.1c-0.2,0-0.3-0.2-0.3-0.5c0-0.1,0-0.2,0-0.3
		c0,0,0-0.2,0-0.6v-0.2c0-0.1,0-0.3-0.1-0.4s-0.2-0.1-0.4-0.1h-5.3c-0.1,0-0.3,0-0.4,0.1s-0.1,0.2-0.1,0.4v2.3
		c0,1.7,0.1,3.5,0.2,5.2v0.1c0,0.2-0.1,0.3-0.2,0.5c-0.2,0.2-0.4,0.3-0.7,0.4c-0.3,0.1-0.5,0.2-0.8,0.2c-0.2,0-0.3,0-0.4-0.1
		s-0.2-0.2-0.2-0.3c0.1-0.9,0.1-1.7,0.2-2.5c0-0.8,0.1-1.9,0.1-3.2v-2.6c0-0.1,0-0.3-0.1-0.4s-0.2-0.1-0.4-0.1h-5.3
		c-0.1,0-0.3,0-0.4,0.1s-0.1,0.2-0.1,0.4l0,0v0.6v0.2c0,0.2,0,0.3-0.2,0.4c-0.2,0.2-0.4,0.3-0.7,0.4c-0.3,0.1-0.5,0.2-0.8,0.2
		c-0.1,0-0.3,0-0.3-0.1c-0.1-0.1-0.1-0.2-0.1-0.3c0.1-0.9,0.1-2.1,0.2-3.6v-2.1c0-1.4-0.1-2.8-0.2-4.2v-0.1c0-0.2,0.1-0.4,0.3-0.4
		c0.1,0,0.2,0,0.2,0l1.4,0.6c0.2,0.1,0.4,0.1,0.6,0.1h5.3c0.1,0,0.3,0,0.4-0.1c0.1,0,0.1-0.1,0.1-0.2c0-1.4-0.1-2.9-0.2-4.3v-0.1
		c0-0.2,0.1-0.4,0.3-0.4h0.1c0.1,0,0.1,0,0.2,0c0.6,0.1,1.1,0.3,1.7,0.6c0.3,0.1,0.5,0.3,0.5,0.4s-0.1,0.2-0.2,0.2l-0.1,0.1
		c-0.2,0.1-0.3,0.4-0.3,0.6v2.7c0,0.1,0,0.3,0.1,0.4s0.2,0.1,0.4,0.1L475.1,5379.4z M461.7,5380.1c-0.1,0-0.3,0-0.4,0.1
		s-0.1,0.2-0.1,0.4v5.4c0,0.1,0,0.3,0.1,0.4s0.2,0.1,0.4,0.1h5.3c0.1,0,0.3,0,0.4-0.1s0.1-0.2,0.1-0.4v-5.4c0-0.1,0-0.3-0.1-0.4
		s-0.2-0.1-0.4-0.1H461.7z M469.9,5380.1c-0.1,0-0.3,0-0.4,0.1s-0.1,0.2-0.1,0.4v5.4c0,0.1,0,0.3,0.1,0.4s0.2,0.1,0.4,0.1h5.3
		c0.1,0,0.3,0,0.4-0.1s0.1-0.2,0.1-0.4v-5.4c0-0.1,0-0.3-0.1-0.4s-0.2-0.1-0.4-0.1H469.9z M497.2,5378.9c0.2,0,0.5-0.1,0.6-0.3
		l0.2-0.3l0.2-0.3c0.1-0.1,0.1-0.2,0.2-0.3c0-0.1,0.1-0.1,0.2-0.1c0.3,0.1,0.6,0.3,0.8,0.5c0.4,0.3,0.7,0.6,1,0.9
		c0.1,0.1,0.1,0.2,0.1,0.3c0,0.1-0.1,0.2-0.2,0.3l-0.2,0.1c-0.1,0-0.2,0.1-0.3,0.2c-0.1,0.1-0.1,0.2-0.1,0.3v5.7
		c0,0.1,0,0.2,0.1,0.4c0,0.1,0.1,0.1,0.2,0.1s0.3-0.1,0.4-0.4l0.3-0.6c0.1-0.1,0.2-0.3,0.3-0.4c0.1-0.2,0.2-0.3,0.3-0.4
		c0-0.1,0.1-0.1,0.2-0.1s0.4,0.2,0.9,0.7c0.4,0.4,0.7,0.8,1,1.2c0.1,0.1,0.1,0.2,0.1,0.3c0,0.1,0,0.2-0.1,0.2
		c-0.1,0.1-0.3,0.1-0.5,0.1h-8.6c-0.1,0-0.2,0-0.3,0.1c-0.1,0.1-0.1,0.2-0.1,0.3c0,0.1,0,0.1,0,0.2c0.7,1.5,1.8,2.7,3.1,3.7
		c1.8,1.3,3.8,2.2,5.9,2.8c0.3,0.1,0.4,0.2,0.4,0.3c0,0,0,0.1-0.1,0.1c-0.1,0.1-0.2,0.1-0.3,0.1c-0.6,0.1-1,0.5-1.2,1.1
		c-0.1,0.2-0.2,0.4-0.4,0.4c-0.1,0-0.2,0-0.2,0c-2-0.8-3.8-2.1-5.2-3.7c-1.2-1.4-2-3.1-2.5-4.8c-0.1-0.3-0.2-0.4-0.3-0.4
		c-0.1,0-0.2,0.1-0.3,0.4c-0.5,2-1.6,3.8-3.2,5.2c-2,1.6-4.3,2.8-6.8,3.4c-0.1,0-0.2,0.1-0.3,0c-0.1,0-0.2,0-0.2-0.1c0,0,0,0,0-0.1
		c0,0,0-0.1,0.1-0.2s0.2-0.1,0.3-0.2c2-0.7,3.9-1.9,5.5-3.4c1.3-1.3,2.2-2.9,2.7-4.7c0-0.1,0-0.1,0-0.2c0-0.3-0.2-0.4-0.5-0.4h-4.3
		c-1.1,0-2.1,0.1-3.2,0.3h-0.1c-0.2,0-0.4-0.1-0.5-0.3l-0.1-0.2c0-0.1-0.1-0.2-0.1-0.3c0-0.1,0-0.2,0.1-0.2c0.1-0.1,0.2-0.1,0.4-0.1
		c0.4,0,0.9,0.1,1.6,0.1h0.6c0.1,0,0.3,0,0.4-0.1s0.1-0.2,0.1-0.4v-3.3c0-1.4-0.1-2.8-0.2-4.2v-0.1c0-0.3,0.1-0.4,0.3-0.4
		c0.1,0,0.2,0,0.2,0l1.5,0.6c0.2,0.1,0.4,0.1,0.6,0.1h3.5c0.2,0,0.5-0.1,0.5-0.4v-0.1v-3.4c0-0.1,0.1-0.3,0.2-0.4s0.3-0.1,0.4,0
		c0.5,0.1,1,0.3,1.5,0.5c0.3,0.1,0.4,0.2,0.4,0.3c0,0.1-0.1,0.2-0.2,0.2h-0.1c-0.2,0.1-0.3,0.4-0.3,0.6v2.1c0,0.1,0,0.3,0.1,0.4
		s0.2,0.1,0.4,0.1L497.2,5378.9z M491.4,5380.1c0-0.2-0.1-0.5-0.4-0.5h-0.1h-3.6c-0.1,0-0.3,0-0.4,0.1s-0.1,0.2-0.1,0.4v6
		c0,0.1,0,0.3,0.1,0.4s0.2,0.1,0.4,0.1h3.1c0.3,0,0.5-0.1,0.5-0.4c0.2-0.9,0.3-1.8,0.3-2.7C491.4,5382.6,491.4,5381.4,491.4,5380.1
		L491.4,5380.1z M497.8,5380.1c0-0.1,0-0.3-0.1-0.4s-0.2-0.1-0.4-0.1h-3.5c-0.2,0-0.5,0.1-0.5,0.4v0.1c0,1.3-0.1,2.4-0.1,3.3
		s-0.2,1.7-0.3,2.6v0.1c0,0.3,0.2,0.4,0.5,0.4h4c0.1,0,0.3,0,0.4-0.1s0.1-0.2,0.1-0.4L497.8,5380.1z M526.8,5380.5
		c-0.2,0-0.4-0.1-0.5-0.2c-0.2-0.1-0.3-0.3-0.5-0.5c-0.3-0.4-0.5-0.7-0.8-1.1c-0.3-0.3-0.6-0.5-1-0.7c-0.1-0.1-0.2-0.1-0.3-0.2
		c-0.1,0-0.2-0.1-0.3-0.2s-0.1-0.1-0.1-0.2s0.2-0.2,0.7-0.2s1,0.1,1.5,0.2c0.6,0.1,1.1,0.4,1.5,0.7c0.4,0.3,0.7,0.8,0.7,1.3
		c0,0.2-0.1,0.5-0.3,0.6C527.2,5380.5,527,5380.5,526.8,5380.5L526.8,5380.5z M524.4,5382.8c-0.4,0-0.8-0.3-1-0.7
		c-0.2-0.4-0.4-0.8-0.7-1.2c-0.3-0.4-0.7-0.7-1.1-0.9c-0.1,0-0.2-0.1-0.3-0.2c-0.1,0-0.2-0.1-0.2-0.2l-0.1-0.1
		c0-0.1,0.1-0.1,0.3-0.1c0.5,0,1,0.1,1.4,0.2c0.6,0.2,1.2,0.4,1.8,0.8c0.5,0.3,0.8,0.8,0.8,1.4c0,0.3-0.1,0.5-0.3,0.7
		C524.9,5382.8,524.6,5382.8,524.4,5382.8L524.4,5382.8z M524.7,5389.9c-0.2,0-0.4-0.1-0.6-0.3c-0.2-0.3-0.4-0.6-0.5-0.9
		c-1-2.7-2.8-5-5.2-6.6c-0.1-0.1-0.2-0.2-0.2-0.3c0-0.1,0-0.1,0.1-0.1s0.2,0,0.3,0.1c1.1,0.4,2.2,1,3.2,1.7c1.1,0.7,2.1,1.5,3,2.5
		c0.7,0.6,1.1,1.4,1.2,2.3c0,0.4-0.1,0.9-0.4,1.2C525.4,5389.7,525,5389.9,524.7,5389.9L524.7,5389.9z M504.9,5391.2
		c-0.1,0-0.2,0-0.2-0.1s0.1-0.2,0.4-0.4c1.3-0.8,2.6-1.7,3.7-2.7c1-0.9,1.8-1.8,2.6-2.8c0.5-0.6,0.8-1.2,0.9-2
		c0-0.3-0.2-0.5-0.6-0.7c-0.1,0-0.2-0.1-0.3-0.1c-0.1,0-0.2-0.1-0.2-0.1l-0.1-0.1c0-0.2,0.5-0.4,1.4-0.4c0.6,0,1.2,0.2,1.8,0.6
		c0.5,0.3,0.8,0.8,0.8,1.3c0,0.3-0.2,0.6-0.4,0.8c-1.2,1.4-2.6,2.7-4.1,3.7c-1.7,1.2-3.5,2.1-5.4,2.9
		C505.2,5391.2,505,5391.2,504.9,5391.2L504.9,5391.2z M542.1,5385.7c-0.1,0.1-0.1,0.2-0.1,0.3c0,0.1,0.1,0.3,0.3,0.4
		c1.5,0.6,2.8,1.4,4.1,2.4c1.2,0.9,1.8,1.8,1.8,2.7c0,0.3-0.1,0.6-0.3,0.9c-0.2,0.2-0.4,0.4-0.7,0.4s-0.6-0.1-0.8-0.3
		c-0.3-0.3-0.5-0.6-0.7-0.9c-0.5-1-1.1-1.9-1.8-2.7c-0.6-0.8-1.3-1.5-2.2-2c-0.1-0.1-0.2-0.1-0.3-0.1s-0.3,0.1-0.4,0.2
		c-2.8,3.1-6.2,5.6-10.1,7.2c-0.1,0-0.1,0-0.2,0c-0.1,0-0.1,0-0.1-0.1s0.1-0.2,0.3-0.2c1.8-1,3.5-2.2,5-3.6c1.6-1.4,3-3,4.3-4.7
		c1-1.2,1.8-2.6,2.5-4c0.1-0.1,0.1-0.3,0.1-0.4v-0.1c0-0.1-0.1-0.1-0.2-0.1c-0.9,0.1-1.7,0.3-2.5,0.6c-1,0.2-1.9,0.6-2.9,0.9
		l-0.4,0.2c-0.2,0.1-0.3,0.1-0.5,0.1c-0.4,0-0.8-0.2-1.2-0.4c-0.4-0.3-0.7-0.6-0.9-1c-0.2-0.3-0.3-0.6-0.3-1c0-0.2,0.1-0.3,0.2-0.3
		c0.1,0,0.2,0.1,0.3,0.2s0.3,0.2,0.5,0.3c0.3,0.1,0.7,0.2,1.1,0.2c0.3,0,1.4-0.1,3.1-0.4c1.8-0.3,2.9-0.5,3.3-0.6
		c0.3-0.1,0.6-0.2,0.8-0.4c0.2-0.1,0.4-0.2,0.6-0.2c0.3,0,0.6,0.2,0.8,0.3c0.3,0.2,0.7,0.5,0.9,0.8c0.2,0.2,0.4,0.5,0.4,0.8
		c0,0.1-0.1,0.2-0.2,0.3c-0.1,0.1-0.3,0.3-0.5,0.4c-0.1,0.1-0.3,0.2-0.4,0.3c-0.1,0.1-0.2,0.2-0.3,0.3
		C543.9,5383.3,543.1,5384.5,542.1,5385.7L542.1,5385.7z"/>
</g>
</svg>
