<svg xmlns="http://www.w3.org/2000/svg" width="260.862" height="87.151" viewBox="0 0 260.862 87.151"><g transform="translate(-174.414 -300.908)"><g transform="translate(250.486 376.111)"><path d="M245.893,375.979V364.032h3.191v.8H246.71v10.338h2.373v.8Z" transform="translate(-245.893 -364.032)" fill="#604c3f"/><path d="M261.788,365.554a.416.416,0,0,1-.217.166,12.2,12.2,0,0,1-2.859,4.085,7.858,7.858,0,0,0-1.111-.7,7.319,7.319,0,0,0,2.2-2.808h-8.679v-1.212h9.394l.166-.1Zm-4.926,2.4c-.026.128-.14.217-.332.243-.345,2.9-1.391,5.782-3.982,7.314a9.329,9.329,0,0,0-1.084-.816c2.5-1.354,3.472-3.957,3.714-6.906Z" transform="translate(-245.557 -363.971)" fill="#604c3f"/><path d="M272.595,366.594a.318.318,0,0,1-.193.192,16.724,16.724,0,0,1-1.824,4.11c.5.293,1.111.676,1.519.982l-.727,1.213a18.361,18.361,0,0,0-1.558-1.06,12.181,12.181,0,0,1-4.442,3.638,3.957,3.957,0,0,0-1-.958,11.9,11.9,0,0,0,4.34-3.344,16.54,16.54,0,0,0-2.489-1.2l.7-1a19.663,19.663,0,0,1,2.527,1.124,11.989,11.989,0,0,0,1.366-2.924H266.9a13.581,13.581,0,0,1-2.847,3.358,7.471,7.471,0,0,0-1.033-.8,12.486,12.486,0,0,0,3.957-5.642l1.646.383c-.051.128-.179.179-.383.179-.153.382-.421.931-.637,1.353h3.8l.231-.064Z" transform="translate(-244.792 -364.016)" fill="#604c3f"/><path d="M284.826,368.522a.417.417,0,0,1-.216.166c-1.1,3.88-3.141,5.757-6.97,6.828a5.208,5.208,0,0,0-.766-1.022c3.332-.816,5.477-2.59,6.178-5.182h-8.08v-1.187h8.616l.152-.1Zm-1.327-2.477h-7.275v-1.174H283.5Z" transform="translate(-244.025 -363.978)" fill="#604c3f"/><path d="M287.161,367.952a19.157,19.157,0,0,1,3.358,1.161l-.549,1.111a20.7,20.7,0,0,0-3.345-1.212Zm.562,6.1c4.021-1.314,6.88-3.446,8.591-7.25a11.3,11.3,0,0,0,1.11.816,14.136,14.136,0,0,1-8.565,7.416.3.3,0,0,1-.165.332Zm.918-9.254a21.885,21.885,0,0,1,3.345,1.25l-.6,1.086a18.2,18.2,0,0,0-3.306-1.315Z" transform="translate(-243.276 -363.983)" fill="#604c3f"/><path d="M309.493,365.4a.386.386,0,0,1-.281.115.48.48,0,0,1-.128-.013,31.634,31.634,0,0,1-3.523,2.975c.115.051.267.115.345.14a.352.352,0,0,1-.306.217v6.739h-1.341V369.3a37.748,37.748,0,0,1-4.531,2.617,5.658,5.658,0,0,0-.766-.983,30.252,30.252,0,0,0,9.228-6.509Z" transform="translate(-242.483 -364.007)" fill="#604c3f"/><path d="M314.491,366.947h1.034V370.3h3.215v.982h-3.215v3.383h-1.034v-3.383h-3.229V370.3h3.229Z" transform="translate(-241.693 -363.845)" fill="#604c3f"/><path d="M331.177,365.4a.381.381,0,0,1-.28.115.48.48,0,0,1-.128-.013,31.645,31.645,0,0,1-3.524,2.975c.116.051.268.115.345.14a.35.35,0,0,1-.306.217v6.739h-1.341V369.3a37.645,37.645,0,0,1-4.529,2.617,5.706,5.706,0,0,0-.766-.983,30.251,30.251,0,0,0,9.228-6.509Z" transform="translate(-241.09 -364.007)" fill="#604c3f"/><path d="M333.994,366.059h8.731v1.213h-3.753v5.68h4.659v1.212H333.114v-1.212h4.556v-5.68h-3.676Z" transform="translate(-240.289 -363.902)" fill="#604c3f"/><path d="M348.7,375.979H345.51v-.8h2.374V364.837H345.51v-.8H348.7Z" transform="translate(-239.492 -364.032)" fill="#604c3f"/></g><g transform="translate(265.259 347.7)"><path d="M268.895,347.466a1.673,1.673,0,0,0-.421.169c-1.01.645-1.192.758-2.9,1.8-.926,3.508-1.641,5.276-3.956,6.44l-.043-.084a12.173,12.173,0,0,0,2.806-6.566c0-.518-.211-.6-1.025-.883a1.841,1.841,0,0,1,.842-.267c.379,0,1.249.238,1.4.562a.578.578,0,0,1,.055.309c1.39-1.235,1.965-2.021,1.965-2.231,0-.056-.014-.1-.154-.1a32.408,32.408,0,0,0-5.641.9,5.166,5.166,0,0,1-.687.266,2.678,2.678,0,0,1-.8-.463c-.533-.477-.562-.561-.562-.912a1.8,1.8,0,0,1,.113-.715,1.58,1.58,0,0,0,1.431.8c.589,0,5.331-.548,6.4-.7.113-.028.576-.2.674-.2a3.77,3.77,0,0,1,1.473,1.459C269.862,347.271,269.821,347.285,268.895,347.466Z" transform="translate(-259.774 -344.829)" fill="#604c3f"/><path d="M284.72,347.7c-.309.126-.322.126-.883,1.137-2.33,4.11-3.662,4.938-4.742,5.612a8.768,8.768,0,0,1-2.736,1.15l-.028-.1a14.2,14.2,0,0,0,4.727-4.168,1.468,1.468,0,0,1-.5-.407c-1-1.178-1.066-1.262-1.7-1.627a7.918,7.918,0,0,1-2.4,1.8l-.028-.084c1.529-1.516,3.381-4.56,3.381-5.135,0-.463-.491-.631-.842-.758a1.389,1.389,0,0,1,.758-.238c.8,0,1.711.66,1.711,1.01,0,.14-.042.168-.336.477a3.571,3.571,0,0,0-.365.478,9.792,9.792,0,0,0,2.469-.267,5.531,5.531,0,0,1,.744-.393,3.529,3.529,0,0,1,1.164,1.235C285.113,347.555,285.072,347.555,284.72,347.7Zm-3.549-.056c-.127,0-.267,0-.758-.336-.785,1.094-1.347,1.754-1.389,1.8.645.043,2.4.281,2.567,1.488a14.31,14.31,0,0,0,1.628-3.283A15.408,15.408,0,0,1,281.171,347.639Z" transform="translate(-258.71 -344.875)" fill="#604c3f"/><path d="M300.25,349.389c-.07.056-.113.127-.408.773a10.084,10.084,0,0,1-3,4.153,7.158,7.158,0,0,1-3.816,1.711v-.1a14.083,14.083,0,0,0,3.789-2.988,10.567,10.567,0,0,0,2.09-3.929,34.66,34.66,0,0,0-5.094.773,3.006,3.006,0,0,1-.533.238,2.144,2.144,0,0,1-1.417-1.768,1.277,1.277,0,0,1,.112-.506,2.689,2.689,0,0,0,.617.645,1.029,1.029,0,0,0,.814.267c.926,0,5.388-.351,5.556-.435.112-.07.491-.547.6-.547.139,0,1.248.785,1.248,1.15C300.81,349.01,300.67,349.109,300.25,349.389Zm-1.867-2.75c-.659.029-2.736.154-3.325.267a5.527,5.527,0,0,1-.9.141c-.66,0-1.291-.982-1.221-1.684a2.518,2.518,0,0,0,1.992.674,10.414,10.414,0,0,0,2.848-.351c.127-.028.617-.281.73-.281a4.665,4.665,0,0,1,.883.295.534.534,0,0,1,.379.506C299.772,346.57,299.547,346.6,298.383,346.639Z" transform="translate(-257.712 -344.844)" fill="#604c3f"/><path d="M311.194,350.257c-.182,0-.238-.028-.743-.393a8.38,8.38,0,0,0-2.695-1.459,9.5,9.5,0,0,1,1.5-.112c1.768,0,2.441.758,2.441,1.332C311.7,349.71,311.685,350.257,311.194,350.257Zm1.066-3.2c-.211,0-.295-.07-1.108-.758a5.328,5.328,0,0,0-2.076-1.263,7,7,0,0,1,.981-.084c1.81,0,2.695.856,2.695,1.5C312.752,346.554,312.723,347.059,312.26,347.059Zm.871,6.3c-.519.406-1.179.9-1.769,1.347a4.306,4.306,0,0,0-.434.449.491.491,0,0,1-.351.168,2.224,2.224,0,0,1-1.4-1.951.837.837,0,0,1,.056-.336,3.236,3.236,0,0,0,1.108.729c1.109,0,5.823-4.293,7.408-6.454l.084.042A15.523,15.523,0,0,1,313.13,353.358Z" transform="translate(-256.691 -344.87)" fill="#604c3f"/><path d="M335.123,353.525c-.168,0-.884-.21-1.024-.238a29.618,29.618,0,0,0-3.256-.28,23.159,23.159,0,0,0-5.178.561,4.136,4.136,0,0,1-.645.267c-.408,0-1.263-.941-1.263-1.7a2.094,2.094,0,0,1,.1-.547,1.736,1.736,0,0,0,1.655.982c.014,0,2.105-.14,2.5-.168s.435-.029,1.024-.056c0-.449.014-2.414.014-2.82,0-1.473-.126-1.515-.617-1.7-.252.043-1.389.238-1.571.238a1.892,1.892,0,0,1-1.207-1.431,3,3,0,0,0,1.881.492,30.831,30.831,0,0,0,4.026-.393,3.72,3.72,0,0,1,.562-.238c.182,0,1.206.223,1.206.715,0,.028,0,.449-.561.449-.35,0-1.852-.029-2.16-.029a4.659,4.659,0,0,0-.66.029c.365.266.435.336.435.491,0,.113-.182.6-.2.7-.1.842-.2,3.1-.21,3.424,1.3-.07,2.02-.1,2.426-.1a4.532,4.532,0,0,0,.955-.056c.225-.042.533-.1.617-.1.449,0,1.473.533,1.473,1.15A.323.323,0,0,1,335.123,353.525Z" transform="translate(-255.663 -344.771)" fill="#604c3f"/></g><line x2="85.849" transform="translate(174.414 353.024)" fill="none" stroke="#604c3f" stroke-width="0.659"/><line x1="85.85" transform="translate(348.434 353.024)" fill="none" stroke="#604c3f" stroke-width="0.659"/><g transform="translate(174.993 300.908)"><path d="M191.919,339.3l-.441-2.974h-.165a9.962,9.962,0,0,1-7.931,3.58c-5.4,0-8.425-3.91-8.425-7.985,0-6.773,6-10.187,15.915-10.133v-.441c0-1.761-.716-4.681-5.452-4.681a14.2,14.2,0,0,0-7.213,1.983l-1.322-4.406a19.317,19.317,0,0,1,9.692-2.367c8.591,0,11.068,5.451,11.068,11.289v9.692a42.958,42.958,0,0,0,.385,6.442Zm-.881-13.106c-4.791-.11-9.361.937-9.361,5.012a3.554,3.554,0,0,0,3.855,3.855,5.487,5.487,0,0,0,5.286-3.689,4.885,4.885,0,0,0,.22-1.488Z" transform="translate(-174.958 -300.203)" fill="#604c3f"/><path d="M216.1,305.255v7.654h6.443v5.066H216.1v11.84c0,3.249.881,4.956,3.469,4.956a10.011,10.011,0,0,0,2.643-.331l.111,5.177a14.884,14.884,0,0,1-4.9.661,7.84,7.84,0,0,1-5.837-2.2c-1.431-1.542-2.092-3.964-2.092-7.489v-12.61h-3.855v-5.066h3.855v-6.058Z" transform="translate(-172.987 -300.629)" fill="#604c3f"/><path d="M246.71,339.3l-.441-2.974H246.1a9.962,9.962,0,0,1-7.93,3.58c-5.4,0-8.426-3.91-8.426-7.985,0-6.773,6-10.187,15.915-10.133v-.441c0-1.761-.716-4.681-5.452-4.681A14.2,14.2,0,0,0,233,318.651l-1.322-4.406a19.317,19.317,0,0,1,9.692-2.367c8.591,0,11.068,5.451,11.068,11.289v9.692a42.954,42.954,0,0,0,.385,6.442Zm-.881-13.106c-4.791-.11-9.362.937-9.362,5.012a3.556,3.556,0,0,0,3.856,3.855,5.487,5.487,0,0,0,5.286-3.689,4.885,4.885,0,0,0,.22-1.488Z" transform="translate(-171.437 -300.203)" fill="#604c3f"/><path d="M262.978,321.129c0-3.634-.054-6.222-.22-8.645h5.893l.22,5.121h.219a8,8,0,0,1,7.324-5.727,7.147,7.147,0,0,1,1.6.165v6.388a9.451,9.451,0,0,0-1.983-.22,5.97,5.97,0,0,0-6.057,5.121,11.578,11.578,0,0,0-.22,2.092V339.3h-6.774Z" transform="translate(-169.317 -300.203)" fill="#604c3f"/><path d="M301.759,339.3l-.44-2.974h-.166a9.958,9.958,0,0,1-7.93,3.58c-5.4,0-8.425-3.91-8.425-7.985,0-6.773,6-10.187,15.914-10.133v-.441c0-1.761-.715-4.681-5.451-4.681a14.2,14.2,0,0,0-7.214,1.983l-1.322-4.406a19.312,19.312,0,0,1,9.691-2.367c8.592,0,11.069,5.451,11.069,11.289v9.692a42.958,42.958,0,0,0,.385,6.442Zm-.88-13.106c-4.791-.11-9.362.937-9.362,5.012a3.555,3.555,0,0,0,3.855,3.855,5.49,5.49,0,0,0,5.287-3.689,4.885,4.885,0,0,0,.22-1.488Z" transform="translate(-167.9 -300.203)" fill="#604c3f"/><path d="M317.785,333.079a15.114,15.114,0,0,0,6.883,1.926c2.975,0,4.3-1.211,4.3-2.974,0-1.817-1.1-2.753-4.4-3.909-5.232-1.818-7.435-4.681-7.38-7.82,0-4.736,3.91-8.425,10.133-8.425a15.753,15.753,0,0,1,7.1,1.6l-1.322,4.791a12.044,12.044,0,0,0-5.671-1.542c-2.423,0-3.745,1.157-3.745,2.809,0,1.707,1.266,2.533,4.681,3.744,4.846,1.762,7.1,4.241,7.159,8.205,0,4.846-3.8,8.37-10.9,8.37a17.313,17.313,0,0,1-8.15-1.872Z" transform="translate(-165.866 -300.203)" fill="#604c3f"/><path d="M344.764,300.908h6.828v15.97h.11a9.692,9.692,0,0,1,7.985-4.3c4.571,0,9.361,3.029,9.361,11.618v15.8h-6.773V324.973c0-3.91-1.431-6.829-5.177-6.829a5.525,5.525,0,0,0-5.232,3.8,5.7,5.7,0,0,0-.275,2.037v16.024h-6.828Z" transform="translate(-164.047 -300.908)" fill="#604c3f"/><path d="M386.769,305.633a3.8,3.8,0,1,1-3.8-3.69A3.59,3.59,0,0,1,386.769,305.633Zm-7.214,34.306V313.122h6.828v26.817Z" transform="translate(-161.837 -300.841)" fill="#604c3f"/><path d="M402.844,327.792c.165,4.847,3.965,6.939,8.261,6.939a20.141,20.141,0,0,0,7.434-1.212l.991,4.682a25.266,25.266,0,0,1-9.361,1.652c-8.7,0-13.821-5.341-13.821-13.547,0-7.434,4.515-14.427,13.105-14.427,8.7,0,11.564,7.158,11.564,13.051a16.611,16.611,0,0,1-.22,2.863Zm11.784-4.736c.055-2.478-1.046-6.553-5.562-6.553-4.185,0-5.947,3.8-6.223,6.553Z" transform="translate(-160.733 -300.203)" fill="#604c3f"/></g></g></svg>