<svg xmlns="http://www.w3.org/2000/svg" viewBox="0 0 369 223"><defs><style>.cls-1{fill:#9e9991;}.cls-2{fill:#fff;}.cls-3{fill:#92214d;}</style></defs><g id="レイヤー_2" data-name="レイヤー 2"><g id="レイヤー_1-2" data-name="レイヤー 1"><rect class="cls-1" width="369" height="223"/><path class="cls-2" d="M91.63,182.5c0,1.28,0,2.53,0,3.82h10.22c1.22-1.52,1.52-1.73,1.72-1.73s.37.1,2,1.32c.72.58.78.78.78,1s-.1.3-.44.3H91.66c0,3.52.1,5,.1,5.69s-.47,1-1.42,1c-.64,0-1-.24-1-.85s.07-2,.14-5.82H78.91a15.46,15.46,0,0,0-2.51.21l-.33-1.25a14.35,14.35,0,0,0,2.87.2H89.53c0-1.29,0-2.54,0-3.82H82.43v.81c0,.67-.38.91-1.22.91-.68,0-.88-.2-.88-.71,0-.78.1-2.43.1-7.78a43.47,43.47,0,0,0-.17-5.41,16.67,16.67,0,0,1,2.5,1.25H89.6v-3.52H79.35a15.82,15.82,0,0,0-2.47.2L76.51,167a14,14,0,0,0,2.84.24H89.6a31.33,31.33,0,0,0-.21-4.47c3,.34,3.35.51,3.35.91s-.17.48-1.15.88v2.68h9.78c1.35-1.56,1.49-1.66,1.69-1.66s.41.07,1.86,1.25c.68.54.78.78.78.95s-.1.3-.44.3H91.59v3.52H99c.91-1,1-1.12,1.22-1.12s.3.07,1.35,1c.51.41.61.57.61.78s-.14.4-1,.94v2.78c0,4.7.14,6.56.14,7,0,.71-.38.95-1.26.95-.6,0-.91-.14-.91-.71v-.64Zm-2-10.08H82.43v4.09H89.6Zm0,9.23c0-1.42,0-2.88,0-4.3H82.43v4.3Zm9.61-5.14v-4.09H91.59v4.09Zm0,5.14v-4.3H91.59c0,1.42,0,2.88,0,4.3Z"/><path class="cls-2" d="M154.22,178.44a29.53,29.53,0,0,0,9.3-11.91,15.53,15.53,0,0,0,1-3.15c2.74.92,3.38,1.32,3.38,1.69s-.23.55-1.45.68a27.1,27.1,0,0,1-11.94,13.13C154.36,179,154.05,178.57,154.22,178.44Zm8.46-1a13.12,13.12,0,0,0-2.67.2l-.34-1.36a12.5,12.5,0,0,0,3,.31h13.43c1-1.05,1.12-1.15,1.29-1.15s.37.1,1.49,1.12c.51.47.54.64.54.81s-.14.34-.88.81c-.34,5.14-.74,8.39-1.49,10.76A6,6,0,0,1,175.3,192a4.44,4.44,0,0,1-2.61.81c-.4,0-.47,0-.54-.48-.13-.84-.91-1.49-3.86-2.2-.2,0-.13-.6.07-.57a27.47,27.47,0,0,0,4.87.57c.85,0,1.49-.77,1.9-2.33a59.33,59.33,0,0,0,1.28-10.38h-8.15c-.78,8.45-4.84,13.36-13.26,16-.2.07-.41-.41-.24-.51,7.31-3.58,10.45-8,11.2-15.52Zm22.66-1.12c-.74,0-1.05.37-1.42,1.42-.1.37-.23.51-.44.51a3.44,3.44,0,0,1-1.32-.61,22.5,22.5,0,0,1-4.6-4.13,25.68,25.68,0,0,1-4.63-8.49,1.48,1.48,0,0,0-.41-.58c-.23-.16-.34-.27-.34-.43s.95-.58,1.22-.58a.3.3,0,0,1,.31.27c0,.14-.14.37-.14.54a1.77,1.77,0,0,0,.17.58,18.89,18.89,0,0,0,11.67,11.06C185.61,176,185.55,176.3,185.34,176.34Z"/><path class="cls-2" d="M201,171.74c0,.09,0,.13-.16.25a13.7,13.7,0,0,0,0,20.95c.14.11.16.16.16.22a.16.16,0,0,1-.16.16.57.57,0,0,1-.29-.13,16.14,16.14,0,0,1-4.49-4.85,11.52,11.52,0,0,1,0-11.78,15.32,15.32,0,0,1,4.58-4.89.36.36,0,0,1,.2-.09A.17.17,0,0,1,201,171.74Z"/><path class="cls-2" d="M203.44,190.93a19.28,19.28,0,0,0,1.43-4.35,9.82,9.82,0,0,0,.22-2c1.71.45,1.94.52,1.94.77s-.16.29-.72.43a14.14,14.14,0,0,1-2.6,5.32C203.62,191.2,203.4,191.07,203.44,190.93Zm2.64-9.11a33.45,33.45,0,0,0,3.07-4.6,9.9,9.9,0,0,0,.83-2c1.54.79,1.79.93,1.79,1.18s-.16.29-.81.29a27.15,27.15,0,0,1-4.29,5.1c1.4,0,2.79-.14,4.17-.3a7.05,7.05,0,0,0-1-1.87c-.09-.11.09-.22.2-.16,1.51.95,2.44,2.35,2.44,3.3,0,.54-.32,1-.7,1s-.54-.16-.66-1a6.23,6.23,0,0,0-.17-.86c-.66.18-1.34.36-2,.5v4.84c0,2.53.07,4.33.07,4.85s-.3.66-.91.66c-.4,0-.58-.16-.58-.52s.09-1.78.09-4.49v-5.07c-.84.15-1.74.27-2.75.4-.18.54-.28.61-.43.61s-.34-.29-.64-1.92c.59,0,.95,0,1.45,0Zm1.09-8a8.13,8.13,0,0,0,.4-1.56c1.6.59,2,.77,2,1s-.12.33-.84.4a17.1,17.1,0,0,1-2.3,3.18,2.15,2.15,0,0,1,.95,1.6.78.78,0,0,1-.77.88c-.29,0-.51-.18-.67-.79a5.19,5.19,0,0,0-1.78-2.68c-.09-.07,0-.23.13-.18a7.23,7.23,0,0,1,1.74.86A19.62,19.62,0,0,0,207.17,173.77ZM210,184.62a5.56,5.56,0,0,1,2.32,3.81c0,.74-.29,1.08-.77,1.08s-.52-.25-.6-1.13a8.93,8.93,0,0,0-1.16-3.61C209.74,184.66,209.89,184.53,210,184.62Zm11.39-7.81c.67-.76.74-.81.85-.81s.25.05,1,.75c.31.29.34.4.34.54s-.12.22-.61.56c-.16,5.68-.43,8.84-1,11.21a5.25,5.25,0,0,1-1.28,2.7,2.55,2.55,0,0,1-1.72.61c-.22,0-.27,0-.34-.33-.13-.59-.49-.93-2.34-1.47-.14,0-.09-.36,0-.34a16.52,16.52,0,0,0,2.78.34c.9,0,1.19-.68,1.53-2.12.47-2,.81-5,.95-11.07h-6.68a16.27,16.27,0,0,1-2.61,3.51c-.09.12-.34-.11-.27-.22a22.21,22.21,0,0,0,2.66-5.93,12.55,12.55,0,0,0,.49-2.39c1.92.52,2.15.65,2.15.9s-.12.34-.79.45a28.19,28.19,0,0,1-1.33,3.11Zm-6.59,3.66c1.94,1,3.18,2.59,3.18,3.67,0,.72-.34,1.15-.83,1.15s-.59-.22-.73-.9a7.56,7.56,0,0,0-1.84-3.72C214.49,180.56,214.7,180.4,214.81,180.47Z"/><path class="cls-2" d="M237.75,186.22c0,2.59-2,4.46-4.92,4.46s-5-1.82-5-4.3c0-1.76,1.15-3.19,3.61-4.29-2.32-1.13-3.13-2.26-3.13-4,0-1.94,2-3.76,4.53-3.76s4.44,1.55,4.44,3.54c0,1.64-.83,2.75-3.06,3.67C236.73,182.72,237.75,184.07,237.75,186.22Zm-8.1.18a3.34,3.34,0,0,0,3.2,3.58,3.22,3.22,0,0,0,3.21-3.47c0-1.67-1-2.73-3.88-4.06A4.29,4.29,0,0,0,229.65,186.4Zm6-8.55a2.84,2.84,0,0,0-5.68-.11c0,1.37.6,2.21,3.47,3.36A3.36,3.36,0,0,0,235.63,177.85Z"/><path class="cls-2" d="M242,180.83c0,.34,0,.63-.09,1.17a3.89,3.89,0,0,1,3.14-1.35c2.77,0,4.53,1.89,4.53,4.76,0,3.22-2.1,5.27-5,5.27a5.76,5.76,0,0,1-3-.76,2.47,2.47,0,0,1-1.51-1.83c0-.45.54-.9,1.31-.9.38,0,.58.18,1,1.24l.12.27a2.15,2.15,0,0,0,2,1.28c1.78,0,3-1.51,3-4.55,0-2.51-1.35-4-3-4a3,3,0,0,0-2.77,1.62.33.33,0,0,1-.32.18c-.33,0-.63-.16-.63-.36s.07-.2.11-.79l.61-7a.36.36,0,0,1,.14-.29c.11-.11.16-.14.25-.14.9,0,2.16,0,3.33,0,.89,0,2.15,0,3.61-.12.16,0,.21,0,.21.21l-.55,1.46a.23.23,0,0,1-.24.16c-1,0-1.65,0-2.57,0h-3.46Z"/><path class="cls-2" d="M262,182.45c0,5.46-2.17,8.23-4.87,8.23-2.94,0-4.92-2.73-4.92-8.09,0-5.64,2.23-8.3,4.92-8.3S262,177,262,182.45Zm-7.78.07c0,5.55,1.1,7.46,2.91,7.46s2.86-1.89,2.86-7.46S258.81,175,257.1,175,254.19,176.86,254.19,182.52Z"/><path class="cls-2" d="M265.28,181.68c-.13,0-.18,0-.18-.31s0-.2.28-.27a24.93,24.93,0,0,0,2.93-.93.21.21,0,0,1,.24.21c0,.58,0,1.24,0,1.82a3.93,3.93,0,0,1,3.31-2.09,2.78,2.78,0,0,1,2.85,2.23,4,4,0,0,1,3.45-2.23,2.86,2.86,0,0,1,3.06,3.08c0,.82,0,1.92,0,2.49v1.42c0,1.85,0,2.07.14,2.3s.33.31,1.3.4c.14,0,.19.07.19.25s-.05.25-.19.25c-.63,0-1.46-.05-2.16-.05s-1.56,0-2.3.05c-.16,0-.2-.05-.2-.25s0-.22.2-.25c.86-.06,1.06-.18,1.19-.4s.19-.43.19-2.3v-3.45a2.68,2.68,0,0,0-.25-1.29,1.8,1.8,0,0,0-1.81-1.15,2.46,2.46,0,0,0-2.16,1.29,2.34,2.34,0,0,0-.52,1.71v2.89c0,1.76.07,2.09.18,2.3s.32.31,1.33.4c.14,0,.18.07.18.27s0,.23-.18.23c-.7,0-1.56-.05-2.19-.05s-1.6,0-2.3.05c-.13,0-.18-.05-.18-.23s.05-.24.2-.27c.91-.09,1.09-.18,1.2-.4s.18-.54.18-2.3v-3.5a2.5,2.5,0,0,0-.23-1.24,1.92,1.92,0,0,0-1.85-1.15,2.89,2.89,0,0,0-2.61,3v2.89a7,7,0,0,0,.13,2.3c.09.2.34.31,1.29.4.11,0,.16.07.16.25s0,.25-.16.25c-.65,0-1.51-.05-2.21-.05s-1.51,0-2.21.05c-.13,0-.18-.05-.18-.25s.05-.22.18-.25c.88-.06,1-.18,1.17-.4s.2-.52.2-2.3v-3.16a5.59,5.59,0,0,0-.15-1.81.65.65,0,0,0-.66-.49Z"/><path class="cls-2" d="M284.9,171.67a15.32,15.32,0,0,1,4.58,4.89,11.46,11.46,0,0,1,0,11.78,15.6,15.6,0,0,1-4.51,4.85.43.43,0,0,1-.25.13.18.18,0,0,1-.18-.16c0-.09.07-.16.18-.24a14,14,0,0,0,4.85-10.47c0-4-1.62-7.44-4.91-10.51a.31.31,0,0,1-.12-.22.15.15,0,0,1,.14-.14A.4.4,0,0,1,284.9,171.67Z"/><path class="cls-2" d="M136.32,188.24c3.45,0,5.71-.45,7.06-1.66a9.94,9.94,0,0,0,2.41-3.08,1.52,1.52,0,0,1,1.65.45c-1,3.76-2.33,7.67-3.46,9.17-3.08-.15-6.24-.22-9.69-.22H123.38c-4.2,0-6.69.07-8.34.22a1.06,1.06,0,0,1-.53-1c0-.23.38-.53.83-.83,3.46-2.25,5.94-4.81,11.5-10.82,5-5.34,10.75-12.64,10.75-20.68,0-6.84-3.3-11-9.39-11-4.51,0-7.75,3.09-9.78,7.52a1.21,1.21,0,0,1-1.8-1,15.83,15.83,0,0,1,15.11-10.6c7.52,0,12.4,5,12.4,12.26,0,4.66-2.17,9.77-8,16.54l-4.59,5.26c-6.16,7.07-6.84,8.27-6.84,8.72s.38.68,2.33.68Z"/><path class="cls-2" d="M131.19,42.25a14.52,14.52,0,0,0,4.56,3.59,15.75,15.75,0,0,0,5,1.54c.14,0,.11.2,0,.24a1.12,1.12,0,0,0-.92.79c-.13.39-.28.5-.44.5a3.84,3.84,0,0,1-1.14-.37,23.79,23.79,0,0,1-3.57-2,15.63,15.63,0,0,1-3.77-3.92c.06,2.61.17,5.92.17,6.64,0,.44-.3.62-.92.62-.46,0-.61-.16-.61-.53,0-.68.09-3.66.17-6.18A20.26,20.26,0,0,1,120.35,49c-.13,0-.26-.28-.13-.33a21.12,21.12,0,0,0,8.44-6.44H125v.37c0,.44-.26.59-.81.59s-.57-.11-.57-.46.11-1.36.11-4.41a23.52,23.52,0,0,0-.16-3.77,13,13,0,0,1,1.63.79h4.45V33h-7.13a9,9,0,0,0-1.58.13l-.22-.85a8.32,8.32,0,0,0,1.8.17h7.13v-.22a12,12,0,0,0-.16-2.59c2,.27,2.22.36,2.22.62s-.11.33-.75.59v1.6h6.47c.9-1.05,1-1.12,1.14-1.12s.24.07,1.23.86c.48.37.55.5.55.61s-.09.2-.29.2h-9.1v2.32h4.91c.6-.61.66-.68.79-.68s.25.07.86.6c.28.26.37.39.37.5s-.09.24-.57.55v1.86c0,2.92.09,4.06.09,4.39s-.29.54-.83.54S136,43,136,42.64v-.39ZM125,35.91v2.52h4.65V35.91ZM129.61,39H125V41.7h4.65Zm1.31-.55H136V35.91h-5.07ZM136,41.7V39h-5.07V41.7Z"/><path class="cls-2" d="M149.46,33.15a16.71,16.71,0,0,1-1.93,2.19c1.73.64,2.83,1.78,2.83,2.74,0,.46-.33.9-.7.9s-.53-.15-.68-.66a5.66,5.66,0,0,0-1.71-2.72,20.46,20.46,0,0,1-4.59,3.1c-.11.06-.28-.22-.17-.29a20.32,20.32,0,0,0,6.14-6.34,11.51,11.51,0,0,0,1.16-2.41c1.49.4,1.93.59,1.93.84s-.22.32-.88.48c-.33.57-.66,1.12-1,1.62h5.35c.64-.72.75-.79.86-.79s.26.07,1,.77c.35.33.41.44.41.57s-.15.31-.83.5a22.8,22.8,0,0,1-7.54,7.9l.06,0h8.05c.64-.68.72-.75.83-.75s.24.07.92.64c.33.29.36.4.36.5s-.07.27-.6.57v1.89c0,3.05.09,4.3.09,4.65s-.28.59-.85.59-.6-.11-.6-.5V48.3h-8.44v.83c0,.42-.26.59-.83.59s-.61-.13-.61-.52.1-1.49.1-4.67c0-1.05,0-1.69,0-2.08a35.42,35.42,0,0,1-5.46,2.32c-.13,0-.26-.26-.13-.31,6.12-2.63,10.53-6.36,13.31-11.31Zm7.91,9h-8.44v5.61h8.44Z"/><path class="cls-2" d="M170.92,31.11a8.54,8.54,0,0,0-.11-1.4c2,.21,2.26.37,2.26.61s-.16.31-.79.57v1.36h6.38c1-1.1,1.09-1.16,1.2-1.16s.29.06,1.23.85c.46.38.51.53.51.64s-.09.22-.29.22H164a7.55,7.55,0,0,0-1.58.13l-.22-.83a10.25,10.25,0,0,0,1.8.15h6.91Zm7.61,9.12c.61-.64.7-.7.81-.7s.22.06.87.61c.33.29.42.42.42.53s-.13.28-.63.57v2.1c0,3.42.08,4.06.08,4.74a1.46,1.46,0,0,1-.81,1.4,2.46,2.46,0,0,1-1,.27c-.22,0-.27,0-.31-.29-.09-.66-.33-.9-2-1.23-.13,0-.11-.28,0-.28,1.32.09,1.76.11,2.26.11.29,0,.44-.11.44-.4V40.78H164.84v8.29c0,.48-.26.68-.85.68-.44,0-.57-.18-.57-.57,0-.75.09-2.11.09-5.68a37.23,37.23,0,0,0-.09-4.06,7.3,7.3,0,0,1,1.58.79Zm-10.68-1.84v.22c0,.44-.27.57-.79.57s-.55-.09-.55-.48,0-.73,0-2.48a21.75,21.75,0,0,0-.08-2.39,11.32,11.32,0,0,1,1.55.79h7.37c.57-.64.66-.7.77-.7s.24.06.85.57c.33.26.42.37.42.5s-.11.26-.59.55v.77c0,1.2,0,2,0,2.23,0,.46-.24.62-.79.62-.39,0-.55-.11-.55-.49v-.28Zm1.23,7.94v.76c0,.44-.25.57-.79.57s-.53-.13-.53-.5c0-.2,0-.79,0-2.61a19,19,0,0,0-.11-2.63,10.71,10.71,0,0,1,1.52.75h4.93c.55-.58.64-.64.75-.64s.26.06.83.55c.33.26.35.37.35.5s-.07.24-.55.55v.83c0,1.56.07,2.13.07,2.24,0,.44-.24.57-.77.57-.37,0-.53-.11-.53-.44v-.5Zm6.46-11.16h-7.69v2.67h7.69Zm-1.25,8h-5.21v2.57h5.21Z"/><path class="cls-2" d="M187.64,45.23a4.33,4.33,0,0,0,2,1.73c1,.44,2.58.79,6.09.79a61.8,61.8,0,0,0,7.48-.52c.13,0,.15.19,0,.26-.5.26-.63.42-.68.83s-.11.48-.41.51c-2.11.13-3.77.19-5.68.19-4.17,0-5.94-.48-7.08-1.16a5.86,5.86,0,0,1-2.37-2.74,15.55,15.55,0,0,1-2.3,2.81c0,.74-.11,1-.33,1s-.49-.37-1.36-2a4.64,4.64,0,0,0,1.22-.42,8.92,8.92,0,0,0,2-1.41V39.46H184.9a5.93,5.93,0,0,0-1.6.16l-.22-.86a8.73,8.73,0,0,0,1.82.16h1.27c.61-.66.7-.73.81-.73s.24.07.88.59c.33.29.35.4.35.51s-.05.22-.57.57Zm-3-14.67c2.11.77,3.14,2,3.14,2.9,0,.61-.35,1-.84,1-.33,0-.5-.28-.65-.85a6.51,6.51,0,0,0-1.8-2.87C184.37,30.67,184.52,30.52,184.61,30.56Zm10.24,2.52h-4.21a9.79,9.79,0,0,0-1.49.13l-.22-.83a8.08,8.08,0,0,0,1.71.15h4.21V32.4a18.91,18.91,0,0,0-.11-2.63c1.89.22,2,.31,2,.55s-.09.28-.68.55v1.66h4.19c.83-1,.94-1.07,1.05-1.07s.29.07,1.23.83c.44.35.46.49.46.59s-.09.2-.28.2H196.1v2.37h3.42c.62-.64.7-.7.81-.7s.22.06.86.57c.31.26.37.35.37.48s-.09.29-.57.59v1c0,2,.07,2.7.07,2.88,0,.44-.29.59-.79.59s-.57-.11-.57-.46V40h-3.6v1c3.44,1.14,5.68,2.74,5.68,4a.63.63,0,0,1-.61.7c-.27,0-.49-.24-1-.83a13.11,13.11,0,0,0-4.1-3.42c0,3.39.09,4.43.09,4.78s-.26.61-.83.61-.62-.15-.62-.5c0-.79.11-3.18.22-5a15,15,0,0,1-6,4.3c-.13,0-.26-.22-.15-.29A15.79,15.79,0,0,0,194.43,40H191.5v.39c0,.44-.27.57-.75.57s-.59-.11-.59-.48c0-.2.06-.81.06-2.83a25.78,25.78,0,0,0-.1-2.92,10.9,10.9,0,0,1,1.57.77h3.16Zm0,2.92H191.5v3.4h3.35Zm4.85,3.4V36h-3.6v3.4Z"/><path class="cls-2" d="M210.07,45.19a4.29,4.29,0,0,0,2,1.82c1,.41,2.5.79,6,.79a58.24,58.24,0,0,0,7.56-.53c.14,0,.18.2.07.26-.53.29-.66.42-.7.86s-.11.46-.44.5c-2.13.13-3.84.18-5.74.18-4.32,0-6.1-.49-7.17-1.21a6.32,6.32,0,0,1-2.18-2.74A14.89,14.89,0,0,1,207.09,48c0,.77-.09,1-.33,1s-.46-.31-1.25-2.08a6,6,0,0,0,1.16-.46,10.19,10.19,0,0,0,2.07-1.39V39.4h-1.52a6.67,6.67,0,0,0-1.58.15l-.22-.88a7.43,7.43,0,0,0,1.8.18h1.34c.66-.68.72-.75.86-.75s.24.07.87.62c.33.28.35.39.35.52s0,.22-.57.57ZM207,30.47c2,.75,3.22,2.06,3.22,3,0,.7-.35,1-.81,1s-.55-.22-.74-.93a6.67,6.67,0,0,0-1.82-2.91C206.72,30.58,206.85,30.43,207,30.47Zm9.54,5.62a17.16,17.16,0,0,0,.61-2.37h-4.23a7.4,7.4,0,0,0-1.43.11l-.21-.81a8,8,0,0,0,1.64.15h6a23.59,23.59,0,0,0,1-2.41,4.39,4.39,0,0,0,.29-1.1c1.34.48,2,.79,2,1s-.22.35-.92.4a16.43,16.43,0,0,1-1.8,2.1h3.22c.81-1,.94-1.07,1-1.07s.24.06,1.19.81c.44.35.5.48.5.59s-.09.22-.3.22h-6.39a17.69,17.69,0,0,1-1.57,2.37h4.23c.59-.68.68-.75.81-.75s.22.09.85.62c.27.21.33.35.33.48s-.06.28-.55.59v2.63c0,3.2.11,5.59.11,6.16s-.26.62-.83.62-.59-.11-.59-.51V45.6h-7V46c0,.42-.24.6-.77.6s-.59-.14-.59-.51c0-.77.09-1.88.09-5.52,0-2.81,0-3.93-.11-5.24a10.65,10.65,0,0,1,1.58.81Zm-2.2-6.34c1.76.59,2.55,1.45,2.55,2.21,0,.55-.31.88-.7.88s-.55-.13-.7-.72a5,5,0,0,0-1.3-2.17C214.06,29.86,214.17,29.71,214.3,29.75Zm7.22,6.88h-7v2.31h7Zm-7,5.25h7V39.49h-7Zm0,3.17h7V42.42h-7Z"/><path class="cls-2" d="M233.25,40.8h1.2c.57-.77.68-.83.79-.83s.24.06,1,.68c.28.24.33.37.33.5s-.09.2-.29.2h-3v4.78c1-.29,2.08-.64,3.2-1.05.13,0,.22.24.11.3a37.27,37.27,0,0,1-7.46,3c-.13.55-.28.7-.46.7s-.33-.29-.74-1.91c.39,0,.81-.06,1.2-.11V41.85a18.14,18.14,0,0,0-.11-2.69c1.73.17,1.95.3,1.95.52s-.11.27-.65.51v6.66l1.73-.39V37H230.4v.3c0,.44-.22.57-.75.57s-.55-.11-.55-.43.07-1.17.07-3.6a27.23,27.23,0,0,0-.11-3.31,10.56,10.56,0,0,1,1.51.74h3.68c.53-.59.62-.65.73-.65s.22.06.79.54c.3.27.37.38.37.49s0,.22-.55.55v1.42c0,2.43.07,3.4.07,3.66s-.27.55-.77.55-.53-.13-.53-.46V37h-1.11Zm1.11-9h-4v4.63h4ZM239,49.11c0,.42-.27.57-.82.57-.37,0-.52-.13-.52-.46s.06-1.29.06-4.1c0-1.75,0-2.5,0-3.27-.7.35-1.43.68-2.22,1-.13,0-.24-.17-.13-.24a23.18,23.18,0,0,0,6-4.58,17.26,17.26,0,0,1-2.08-3.42A14.32,14.32,0,0,1,236.16,38c-.11.09-.28-.13-.2-.22A18.82,18.82,0,0,0,239.34,32a10.28,10.28,0,0,0,.57-2.21c1.65.53,2,.66,2,.92s-.13.31-.81.4c-.22.57-.44,1.11-.7,1.64h4c.66-.68.75-.75.86-.75s.22.07,1,.75c.31.31.35.42.35.53s-.15.26-.79.46a16.85,16.85,0,0,1-3,4.49,10.61,10.61,0,0,0,1,.79,13.48,13.48,0,0,0,4.8,2c.11,0,.11.17,0,.22a1.2,1.2,0,0,0-.86.87.29.29,0,0,1-.28.25,1.64,1.64,0,0,1-.55-.16,16.1,16.1,0,0,1-4-2.59c-.26-.24-.53-.48-.77-.74a18.56,18.56,0,0,1-3.83,2.74c.32.18.61.35,1,.59h5.05c.43-.52.54-.61.65-.61s.22.09.81.59c.36.31.44.42.44.53s-.11.22-.48.46v1.77c0,2.66.09,3.8.09,4.08,0,.44-.26.62-.81.62s-.57-.16-.57-.49v-.9H239Zm5.37-6.38H239v5h5.37Zm-4.34-9.47c-.16.3-.33.59-.51.9a17,17,0,0,0,2.35,3.24,17.26,17.26,0,0,0,2.54-4.14Z"/><rect class="cls-2" x="20" y="62" width="329" height="66"/><path class="cls-3" d="M93.1,79H82.19v31.08H80.62V77.47H93.1Z"/><path class="cls-3" d="M110.91,84.26a29.25,29.25,0,0,1-3.45,3.93c3.1,1.14,5.06,3.18,5.06,4.9,0,.83-.59,1.61-1.25,1.61-.51,0-.94-.27-1.22-1.17A10,10,0,0,0,107,88.66a36.38,36.38,0,0,1-8.2,5.53c-.2.12-.51-.39-.32-.51a36.31,36.31,0,0,0,11-11.34A20,20,0,0,0,111.54,78c2.67.71,3.46,1.06,3.46,1.5s-.4.58-1.57.86c-.59,1-1.18,2-1.81,2.9h9.58c1.13-1.29,1.33-1.41,1.53-1.41s.47.12,1.8,1.37c.63.59.75.79.75,1,0,.4-.28.55-1.49.91a40.6,40.6,0,0,1-13.5,14.12l.11.08h14.41C126,98.16,126.1,98,126.3,98s.43.12,1.65,1.14c.59.51.63.7.63.9s-.12.47-1.06,1v3.38c0,5.45.15,7.69.15,8.32s-.51,1.06-1.53,1.06c-.82,0-1.06-.2-1.06-.91v-1.57H110v1.49c0,.75-.47,1.06-1.49,1.06-.78,0-1.1-.23-1.1-.94s.2-2.67.2-8.36c0-1.88,0-3,0-3.73a62.11,62.11,0,0,1-9.77,4.16c-.24.08-.47-.47-.24-.55,11-4.7,18.84-11.38,23.82-20.25Zm14.17,16.09H110V110.4h15.11Z"/><path class="cls-3" d="M147.7,88.62H135.14a14.91,14.91,0,0,0-3,.24l-.39-1.5a16.66,16.66,0,0,0,3.37.28h12.6v-3.1a64.16,64.16,0,0,0-.2-6.44c3.65.4,4.16.67,4.16,1.1s-.23.63-1.41,1.1v7.34h11.19c1.84-2.16,2.07-2.28,2.27-2.28s.51.12,2.43,1.69c1,.79,1,1,1,1.18s-.12.39-.51.39H150.25v8.91h7.65c1.18-1.26,1.34-1.37,1.53-1.37s.44.07,1.69,1.13c.59.51.71.75.71.95s-.12.51-1.14,1.09v4.13c0,6,.16,8.47.16,9.14,0,.86-.47,1.18-1.61,1.18-.79,0-1.06-.24-1.06-1v-1.92h-18v2c0,.75-.51,1.06-1.53,1.06-.74,0-1.1-.23-1.1-.86,0-1,.16-3.45.16-10.24a66.38,66.38,0,0,0-.2-6.83,15.37,15.37,0,0,1,3,1.53h7.14Zm10.48,9.89h-18v11.42h18Z"/><path class="cls-3" d="M175.34,92.66a55,55,0,0,1-1.09,8.83A28.39,28.39,0,0,1,168.87,113c-.12.2-.63-.08-.51-.27a39,39,0,0,0,3.73-11.46c.66-4,.9-8.56.9-16.09a57.55,57.55,0,0,0-.24-6.36,17.88,17.88,0,0,1,3.14,1.61h22.26c1.13-1.26,1.25-1.34,1.49-1.34s.35.08,1.57,1.1c.55.47.62.67.62.87s-.11.55-1.06,1.1v1.6c0,2.4.12,3.42.12,4.17s-.51,1-1.45,1-1-.16-1-1v-.44H175.5l-.12,4.24h23.16c1.45-1.76,1.72-1.92,1.92-1.92s.51.16,2.16,1.49c.78.63.9.82.9,1s-.12.39-.51.39H187a32.92,32.92,0,0,1-3.69,5.61c2.32,0,4.67-.11,7-.27,1.8-.12,3.57-.27,5.37-.47a17.71,17.71,0,0,0-3.84-3.22c-.2-.12,0-.47.23-.39,4.71,1.29,8,3.69,8,6a1.29,1.29,0,0,1-1.14,1.3c-.55,0-1-.31-1.61-1.41a18.12,18.12,0,0,0-1-1.5,135.63,135.63,0,0,1-17.15,2.36c-.31.94-.51,1.18-.78,1.18s-.55-.36-1.26-3.61c.94.07,1.37.11,2.47.11.87,0,1.69,0,2.47,0a34.22,34.22,0,0,0,2-5.61Zm11.54,13.5H179.7a13.47,13.47,0,0,0-2.75.24l-.35-1.49a19.46,19.46,0,0,0,3.26.27h7v-.67a28.28,28.28,0,0,0-.23-3.88c3.49.35,3.92.63,3.92,1s-.19.59-1.33,1.06v2.47h7.49c1.49-1.72,1.69-1.88,1.89-1.88s.51.16,2.12,1.45c.78.63.9.79.9,1s-.16.39-.55.39H189.24v5.26h9.65c1.57-1.92,1.77-2,2-2s.47.12,2.24,1.57c.82.67.9.86.9,1.06s-.11.39-.51.39H176.21a15.31,15.31,0,0,0-2.63.24l-.39-1.49a15.09,15.09,0,0,0,3.14.27h10.55Zm11.54-24.8H175.5v5.1h22.92Z"/><path class="cls-3" d="M208.31,113.11h10.91V82h1.57V114.6H208.31Z"/><path class="cls-3" d="M240.72,104.08c0,2.67.12,3.14.47,3.65s.82.75,3.1.94c.32,0,.39.12.39.52s-.07.51-.39.51c-1.57-.08-3.61-.16-5.22-.16s-3.49.08-4.9.16c-.24,0-.32-.08-.32-.51s.08-.48.32-.52c2.08-.15,2.59-.47,2.86-.94.39-.66.51-1.25.51-5.14V88.82c0-4-.08-4.36-.47-4.95-.28-.43-.75-.74-3.1-.94-.27,0-.31-.12-.31-.47,0-.55.07-.63.31-.63,1.53.08,3.61.2,5.1.2s3.57-.12,5-.2c.32,0,.4.08.4.63,0,.35-.08.43-.4.47-1.92.2-2.51.39-2.86.94s-.51,1.18-.51,4.95Z"/><path class="cls-3" d="M253.54,108.05a2.34,2.34,0,1,1-2.31-2.4A2.31,2.31,0,0,1,253.54,108.05Z"/><path class="cls-3" d="M280.46,88.78c0,.15-.24.27-.59.27a.42.42,0,0,1-.39-.27,11.07,11.07,0,0,0-3.26-4.59,9.93,9.93,0,0,0-5.38-1.61c-5.81,0-10.16,5.22-10.16,13.1,0,7.07,4.43,12.44,10.51,12.44a10.37,10.37,0,0,0,9.62-5.37.47.47,0,0,1,.39-.2c.32,0,.75.28.75.51a.65.65,0,0,1-.12.36c-2.35,4.35-5.89,6.9-11.11,6.9-8.12,0-13.93-6-13.93-14.56,0-8.43,5.81-14.52,14-14.52a17.24,17.24,0,0,1,4.59.59,11.13,11.13,0,0,0,3.1.55,8.68,8.68,0,0,0,1.38-.12c.15,2,.35,4.24.59,6.4Z"/><path class="cls-3" d="M290.42,108.05a2.34,2.34,0,1,1-2.31-2.4A2.31,2.31,0,0,1,290.42,108.05Z"/></g></g></svg>