<svg xmlns="http://www.w3.org/2000/svg" viewBox="0 0 369 223"><defs><style>.cls-1{fill:#9e9991;}.cls-2{fill:#fff;}.cls-3{fill:#92214d;}</style></defs><g id="レイヤー_2" data-name="レイヤー 2"><g id="レイヤー_1-2" data-name="レイヤー 1"><rect class="cls-1" width="369" height="223"/><path class="cls-2" d="M91.63,182.5c0,1.28,0,2.53,0,3.82h10.22c1.22-1.52,1.52-1.73,1.72-1.73s.37.1,2,1.32c.72.58.78.78.78,1s-.1.3-.44.3H91.66c0,3.52.1,5,.1,5.69s-.47,1-1.42,1c-.64,0-1-.24-1-.85s.07-2,.14-5.82H78.91a15.46,15.46,0,0,0-2.51.21l-.33-1.25a14.35,14.35,0,0,0,2.87.2H89.53c0-1.29,0-2.54,0-3.82H82.43v.81c0,.67-.38.91-1.22.91-.68,0-.88-.2-.88-.71,0-.78.1-2.43.1-7.78a43.47,43.47,0,0,0-.17-5.41,16.67,16.67,0,0,1,2.5,1.25H89.6v-3.52H79.35a15.82,15.82,0,0,0-2.47.2L76.51,167a14,14,0,0,0,2.84.24H89.6a31.33,31.33,0,0,0-.21-4.47c3,.34,3.35.51,3.35.91s-.17.48-1.15.88v2.68h9.78c1.35-1.56,1.49-1.66,1.69-1.66s.41.07,1.86,1.25c.68.54.78.78.78.95s-.1.3-.44.3H91.59v3.52H99c.91-1,1-1.12,1.22-1.12s.3.07,1.35,1c.51.41.61.57.61.78s-.14.4-1,.94v2.78c0,4.7.14,6.56.14,7,0,.71-.38.95-1.26.95-.6,0-.91-.14-.91-.71v-.64Zm-2-10.08H82.43v4.09H89.6Zm0,9.23c0-1.42,0-2.88,0-4.3H82.43v4.3Zm9.61-5.14v-4.09H91.59v4.09Zm0,5.14v-4.3H91.59c0,1.42,0,2.88,0,4.3Z"/><path class="cls-2" d="M154.22,178.44a29.53,29.53,0,0,0,9.3-11.91,15.53,15.53,0,0,0,1-3.15c2.74.92,3.38,1.32,3.38,1.69s-.23.55-1.45.68a27.1,27.1,0,0,1-11.94,13.13C154.36,179,154.05,178.57,154.22,178.44Zm8.46-1a13.12,13.12,0,0,0-2.67.2l-.34-1.36a12.5,12.5,0,0,0,3,.31h13.43c1-1.05,1.12-1.15,1.29-1.15s.37.1,1.49,1.12c.51.47.54.64.54.81s-.14.34-.88.81c-.34,5.14-.74,8.39-1.49,10.76A6,6,0,0,1,175.3,192a4.44,4.44,0,0,1-2.61.81c-.4,0-.47,0-.54-.48-.13-.84-.91-1.49-3.86-2.2-.2,0-.13-.6.07-.57a27.47,27.47,0,0,0,4.87.57c.85,0,1.49-.77,1.9-2.33a59.33,59.33,0,0,0,1.28-10.38h-8.15c-.78,8.45-4.84,13.36-13.26,16-.2.07-.41-.41-.24-.51,7.31-3.58,10.45-8,11.2-15.52Zm22.66-1.12c-.74,0-1.05.37-1.42,1.42-.1.37-.23.51-.44.51a3.44,3.44,0,0,1-1.32-.61,22.5,22.5,0,0,1-4.6-4.13,25.68,25.68,0,0,1-4.63-8.49,1.48,1.48,0,0,0-.41-.58c-.23-.16-.34-.27-.34-.43s.95-.58,1.22-.58a.3.3,0,0,1,.31.27c0,.14-.14.37-.14.54a1.77,1.77,0,0,0,.17.58,18.89,18.89,0,0,0,11.67,11.06C185.61,176,185.55,176.3,185.34,176.34Z"/><path class="cls-2" d="M198.92,171.74c0,.09,0,.13-.16.25a13.7,13.7,0,0,0,0,20.95c.13.11.16.16.16.22a.16.16,0,0,1-.16.16.63.63,0,0,1-.3-.13,16.23,16.23,0,0,1-4.48-4.85,11.46,11.46,0,0,1,0-11.78,15.4,15.4,0,0,1,4.57-4.89.39.39,0,0,1,.21-.09A.17.17,0,0,1,198.92,171.74Z"/><path class="cls-2" d="M201.33,190.93a19.24,19.24,0,0,0,1.42-4.35,9.82,9.82,0,0,0,.22-2c1.72.45,1.94.52,1.94.77s-.15.29-.72.43a14.28,14.28,0,0,1-2.59,5.32C201.51,191.2,201.28,191.07,201.33,190.93Zm2.64-9.11a34.38,34.38,0,0,0,3.07-4.6,11.23,11.23,0,0,0,.83-2c1.53.79,1.78.93,1.78,1.18s-.16.29-.81.29a26.78,26.78,0,0,1-4.29,5.1c1.4,0,2.8-.14,4.18-.3a7.09,7.09,0,0,0-1-1.87c-.09-.11.09-.22.21-.16a4.72,4.72,0,0,1,2.43,3.3c0,.54-.31,1-.7,1s-.54-.16-.65-1a6.25,6.25,0,0,0-.18-.86c-.65.18-1.33.36-2,.5v4.84c0,2.53.07,4.33.07,4.85s-.29.66-.9.66c-.41,0-.59-.16-.59-.52s.09-1.78.09-4.49v-5.07c-.83.15-1.73.27-2.75.4-.18.54-.27.61-.43.61s-.34-.29-.63-1.92c.59,0,.95,0,1.44,0Zm1.08-8a9.11,9.11,0,0,0,.41-1.56c1.6.59,2,.77,2,1s-.11.33-.83.4a17.56,17.56,0,0,1-2.3,3.18,2.19,2.19,0,0,1,.95,1.6.78.78,0,0,1-.77.88c-.3,0-.52-.18-.68-.79a5.13,5.13,0,0,0-1.78-2.68c-.09-.07,0-.23.14-.18a7.33,7.33,0,0,1,1.73.86A17.45,17.45,0,0,0,205.05,173.77Zm2.84,10.85a5.53,5.53,0,0,1,2.32,3.81c0,.74-.29,1.08-.76,1.08s-.52-.25-.61-1.13a8.92,8.92,0,0,0-1.15-3.61C207.62,184.66,207.78,184.53,207.89,184.62Zm11.39-7.81c.68-.76.75-.81.86-.81s.25.05,1,.75c.32.29.34.4.34.54s-.11.22-.61.56c-.16,5.68-.43,8.84-1,11.21a5.33,5.33,0,0,1-1.29,2.7,2.54,2.54,0,0,1-1.71.61c-.23,0-.27,0-.34-.33-.14-.59-.5-.93-2.35-1.47-.13,0-.09-.36,0-.34a16.34,16.34,0,0,0,2.77.34c.9,0,1.2-.68,1.54-2.12.47-2,.81-5,.94-11.07h-6.67a16.67,16.67,0,0,1-2.62,3.51c-.09.12-.34-.11-.27-.22a21.9,21.9,0,0,0,2.66-5.93,13.46,13.46,0,0,0,.5-2.39c1.92.52,2.14.65,2.14.9s-.11.34-.79.45a28.19,28.19,0,0,1-1.33,3.11Zm-6.58,3.66c1.93,1,3.18,2.59,3.18,3.67,0,.72-.34,1.15-.84,1.15s-.58-.22-.72-.9a7.58,7.58,0,0,0-1.85-3.72C212.38,180.56,212.58,180.4,212.7,180.47Z"/><path class="cls-2" d="M227.42,176.77c-.2,0-.29-.18-.29-.45,0-.09.07-.16.25-.23a30.87,30.87,0,0,0,4.24-1.92c.25,0,.36.09.36.3-.07,1.76-.11,3-.11,4.82v6.86c0,2.16,0,2.55.27,2.93s.49.45,2.05.56c.16,0,.2.1.2.34s0,.32-.16.32c-1-.05-2.23-.09-3.18-.09s-2.12,0-3.24.09c-.12,0-.16-.07-.16-.32s0-.31.23-.34c1.41-.09,1.75-.24,2-.56s.27-.77.27-2.93v-7.92a3.2,3.2,0,0,0-.25-1.64.76.76,0,0,0-.63-.3,2.89,2.89,0,0,0-.81.16Z"/><path class="cls-2" d="M240.38,189.35a1.35,1.35,0,1,1-1.33-1.37A1.33,1.33,0,0,1,240.38,189.35Z"/><path class="cls-2" d="M253.38,186.6c-.34,1.29-.68,2.46-1.11,3.7-1.47-.05-2.89-.07-4.31-.07s-2.79,0-4.24.07c-.2,0-.27-.07-.27-.43a.74.74,0,0,1,.16-.56,65.38,65.38,0,0,1,4.24-5.71l.43-.5c2.17-2.54,2.57-3.65,2.57-5,0-2.06-1-3.09-2.44-3.09a2.31,2.31,0,0,0-2.16,1.24,4.06,4.06,0,0,0-.23,1.6c0,.56-.69,1-1.53,1-.45,0-.7-.2-.7-.79,0-1.69,2.14-3.76,4.62-3.76s4.45,1.44,4.45,3.88c0,1.78-.52,2.81-2.82,4.89l-.7.63a27.91,27.91,0,0,0-4.38,5h3.75c1.94,0,2.39-.11,2.86-.47a4,4,0,0,0,1.22-1.76c.05-.11.09-.16.18-.16s.43.12.43.23Z"/><path class="cls-2" d="M258.26,185.09c.38-.36.74-.7,1.17-1.08l1.29-1.29c.79-.79,1-1.08,1-1.31s-.25-.38-1-.4c-.14,0-.18,0-.18-.3s0-.24.18-.24c.65,0,1.46,0,2.11,0s1.36,0,2-.07c.13,0,.18.05.18.27s0,.27-.18.29a3.79,3.79,0,0,0-1.27.32,10.65,10.65,0,0,0-1.75,1.42l-1.15,1c-.39.36-.64.58-.91.88,1.18,1.37,2.26,2.59,3.52,3.9a4.76,4.76,0,0,0,1.31,1,2.77,2.77,0,0,0,1,.23c.15,0,.2.07.2.27s0,.25-.2.25c-.45,0-1.31-.07-1.78-.07s-.79,0-1.33,0a12.93,12.93,0,0,0-.8-1c-1.28-1.4-2.34-2.6-3.4-3.84v1.69c0,1.76,0,2.1.13,2.3s.37.34,1.31.41c.14,0,.18.07.18.27s0,.25-.18.25c-.72,0-1.44-.05-2.14-.05s-1.58,0-2.3.05c-.14,0-.18-.05-.18-.25s0-.25.18-.27c.83-.07,1-.16,1.17-.41s.2-.58.2-2.27v-9.93a5.1,5.1,0,0,0-.17-1.87c-.16-.31-.32-.43-.59-.43l-.79,0c-.11,0-.18,0-.18-.32s0-.22.25-.27a23.34,23.34,0,0,0,3-.9c.16,0,.25.07.25.16-.07,1.55-.11,3.24-.11,5.34Z"/><path class="cls-2" d="M267.4,181.68c-.13,0-.18,0-.18-.31s0-.2.27-.27a23.8,23.8,0,0,0,2.93-.93c.16,0,.25.09.25.21,0,.58-.05,1.24-.05,1.82a4,4,0,0,1,3.32-2.09,2.76,2.76,0,0,1,2.84,2.23c1-1.54,2.1-2.23,3.45-2.23a2.87,2.87,0,0,1,3.07,3.08c0,.82,0,1.92,0,2.49v1.42c0,1.85,0,2.07.13,2.3s.34.31,1.31.4c.14,0,.18.07.18.25s0,.25-.18.25c-.63,0-1.47-.05-2.17-.05s-1.55,0-2.29.05c-.16,0-.21-.05-.21-.25s.05-.22.21-.25c.85-.06,1.05-.18,1.19-.4s.18-.43.18-2.3v-3.45a2.56,2.56,0,0,0-.25-1.29,1.78,1.78,0,0,0-1.8-1.15,2.47,2.47,0,0,0-2.17,1.29,2.39,2.39,0,0,0-.52,1.71v2.89c0,1.76.07,2.09.19,2.3s.31.31,1.33.4c.13,0,.18.07.18.27s0,.23-.18.23c-.7,0-1.56-.05-2.19-.05s-1.6,0-2.3.05c-.14,0-.18-.05-.18-.23s0-.24.2-.27c.9-.09,1.08-.18,1.2-.4s.18-.54.18-2.3v-3.5a2.5,2.5,0,0,0-.23-1.24,1.92,1.92,0,0,0-1.85-1.15,2.91,2.91,0,0,0-2.62,3v2.89a6.75,6.75,0,0,0,.14,2.3c.09.2.34.31,1.29.4.11,0,.15.07.15.25s0,.25-.15.25c-.66,0-1.51-.05-2.21-.05s-1.52,0-2.22.05c-.13,0-.17-.05-.17-.25s0-.22.17-.25c.89-.06,1-.18,1.18-.4s.2-.52.2-2.3v-3.16a5.19,5.19,0,0,0-.16-1.81.64.64,0,0,0-.65-.49Z"/><path class="cls-2" d="M287,171.67a15.32,15.32,0,0,1,4.58,4.89,11.52,11.52,0,0,1,0,11.78,15.72,15.72,0,0,1-4.51,4.85.43.43,0,0,1-.25.13.18.18,0,0,1-.18-.16c0-.09.07-.16.18-.24a14,14,0,0,0,4.85-10.47c0-4-1.62-7.44-4.92-10.51a.33.33,0,0,1-.11-.22.15.15,0,0,1,.13-.14A.4.4,0,0,1,287,171.67Z"/><path class="cls-2" d="M115.64,192.45a2.88,2.88,0,0,1,2.93-2.93c1.81,0,2.79,1.5,3.61,2.7a4.22,4.22,0,0,0,4,2.26c4.88,0,13.45-6.39,13.45-14.74,0-6.61-3.15-12.25-9.69-12.25a10.91,10.91,0,0,0-8.12,3.68,1.93,1.93,0,0,1-1.66-2.63c2.86-1.28,9-4.06,12-6.54,1.66-1.35,4-3.61,4-7.22a6.09,6.09,0,0,0-6.17-6.46c-4.44,0-7.82,2.78-10.15,6.61a1.25,1.25,0,0,1-1.58-1.05,15.37,15.37,0,0,1,13.61-9.1c6.16,0,10.45,3.31,10.45,8.65,0,3.08-1.2,6-8,9.62-.38.75,0,1.06.9,1.13,5.71.45,10.9,4.44,10.9,11.58a20,20,0,0,1-7.29,14.88,25.42,25.42,0,0,1-15.72,6.47C119.7,197.11,115.64,196,115.64,192.45Z"/><path class="cls-2" d="M76.35,33.15a16.71,16.71,0,0,1-1.93,2.19c1.73.64,2.83,1.78,2.83,2.74a.86.86,0,0,1-.71.9c-.28,0-.52-.15-.68-.66a5.51,5.51,0,0,0-1.71-2.72,20.17,20.17,0,0,1-4.58,3.1c-.11.06-.28-.22-.17-.29a20.43,20.43,0,0,0,6.14-6.34,12,12,0,0,0,1.16-2.41c1.49.4,1.93.59,1.93.84s-.22.32-.88.48c-.33.57-.66,1.12-1,1.62h5.35c.64-.72.75-.79.86-.79s.26.07,1,.77c.35.33.41.44.41.57s-.15.31-.83.5A22.8,22.8,0,0,1,76,41.55l.06,0h8c.63-.68.72-.75.83-.75s.24.07.92.64c.33.29.35.4.35.5s-.06.27-.59.57v1.89c0,3.05.09,4.3.09,4.65s-.29.59-.86.59-.59-.11-.59-.5V48.3H75.82v.83c0,.42-.26.59-.83.59s-.62-.13-.62-.52.11-1.49.11-4.67c0-1.05,0-1.69,0-2.08A35.42,35.42,0,0,1,69,44.77c-.13,0-.26-.26-.13-.31C75,41.83,79.39,38.1,82.18,33.15Zm7.91,9H75.82v5.61h8.44Z"/><path class="cls-2" d="M97.1,35.58h-7a8.46,8.46,0,0,0-1.69.13l-.22-.83a9.61,9.61,0,0,0,1.89.15h7V33.3A35.57,35.57,0,0,0,97,29.71c2,.21,2.33.37,2.33.61s-.13.35-.79.61V35h6.25c1-1.2,1.16-1.27,1.27-1.27s.28.07,1.36,1c.53.43.55.54.55.65s-.07.22-.29.22H98.53v5h4.27c.66-.7.75-.77.86-.77s.24.05.94.64c.33.28.4.41.4.52s-.07.29-.64.62v2.3c0,3.36.09,4.74.09,5.11s-.26.66-.9.66c-.44,0-.59-.13-.59-.53V48h-10v1.09c0,.42-.29.59-.86.59s-.61-.13-.61-.48c0-.57.08-1.93.08-5.72a37.21,37.21,0,0,0-.11-3.82,9.25,9.25,0,0,1,1.69.86h4ZM103,41.11h-10v6.38h10Z"/><path class="cls-2" d="M112.71,37.84a31.18,31.18,0,0,1-.61,4.93,15.81,15.81,0,0,1-3,6.41c-.06.11-.35,0-.28-.16a21.75,21.75,0,0,0,2.08-6.4,54.81,54.81,0,0,0,.5-9,32.29,32.29,0,0,0-.13-3.55A9.73,9.73,0,0,1,113,31h12.43c.63-.7.7-.75.83-.75s.2.05.88.62c.31.26.35.37.35.48s-.07.31-.59.61v.9c0,1.34.06,1.91.06,2.33s-.28.54-.81.54-.57-.08-.57-.54v-.25H112.8l-.07,2.37h12.94c.81-1,1-1.07,1.07-1.07s.29.09,1.21.83c.44.35.5.46.5.57s-.06.22-.28.22h-8.95A18.46,18.46,0,0,1,117.16,41c1.29,0,2.61-.07,3.9-.16,1-.06,2-.15,3-.26a10,10,0,0,0-2.15-1.8c-.11-.06,0-.26.13-.22,2.63.73,4.47,2.06,4.47,3.34a.72.72,0,0,1-.63.72c-.31,0-.55-.18-.9-.79a8.75,8.75,0,0,0-.57-.83,75.39,75.39,0,0,1-9.58,1.31c-.18.53-.29.66-.44.66s-.31-.2-.7-2a11.55,11.55,0,0,0,1.38.07c.48,0,.94,0,1.38,0a20.13,20.13,0,0,0,1.1-3.14Zm6.45,7.54h-4a8.32,8.32,0,0,0-1.53.13l-.2-.83a10.47,10.47,0,0,0,1.82.15h3.93v-.37a14.7,14.7,0,0,0-.14-2.17c2,.2,2.2.35,2.2.57s-.11.33-.75.59v1.38h4.19c.83-1,.94-1,1-1s.29.09,1.19.81c.43.36.5.44.5.57s-.09.22-.31.22h-6.62v2.94h5.4c.87-1.07,1-1.14,1.09-1.14s.26.07,1.25.88c.46.37.51.48.51.59s-.07.22-.29.22H113.19a8.44,8.44,0,0,0-1.47.13l-.22-.83a8.43,8.43,0,0,0,1.76.15h5.9Zm6.44-13.85H112.8v2.85h12.8Z"/><path class="cls-2" d="M138.52,32.18c.74-.87.87-1,1-1s.29.11,1.12.77c.38.3.44.41.44.52s-.06.22-.28.22h-4.26c1,.62,1.6,1.3,1.6,2a.74.74,0,0,1-.79.78c-.33,0-.48-.19-.57-.78a3.41,3.41,0,0,0-.83-2h-1.58A11.72,11.72,0,0,1,131.13,36c-.11.09-.33-.13-.24-.22a16.18,16.18,0,0,0,2.85-4.29,10,10,0,0,0,.63-1.87c1.69.51,1.91.64,1.91.86s-.2.33-.86.41a13.53,13.53,0,0,1-.7,1.25Zm-4.67,11.38c-.16.31-.27.4-.71.4s-.72-.13-.72-.33a.83.83,0,0,1,.09-.37,20.31,20.31,0,0,0,1.05-3.14,12.25,12.25,0,0,0,.31-1.62,9.44,9.44,0,0,1,1.38.77h4.82V36.72H134.9a6,6,0,0,0-1.6.16l-.22-.86a10.79,10.79,0,0,0,1.82.15h11.75c.61-.63.7-.7.83-.7s.22.05.84.55c.33.24.37.37.37.51s-.07.24-.57.59v.74c0,1.6.07,2.17.07,2.31,0,.43-.27.57-.82.57-.39,0-.54-.12-.54-.49v-.44h-5.46l0,2.48h6.34c.54-.63.63-.68.74-.68s.22,0,.88.62c.37.32.46.44.46.54s-.09.22-.57.46a18.06,18.06,0,0,1-.66,3.05,2.56,2.56,0,0,1-.81,1.32,2.35,2.35,0,0,1-1.32.41c-.17,0-.22,0-.24-.3-.09-.48-.37-.79-2.19-1.21-.13,0-.11-.33,0-.31a24.65,24.65,0,0,0,2.54.25c.4,0,.55-.09.79-.82a14.39,14.39,0,0,0,.57-2.78h-6.55v1.84c0,2.74.09,4.17.09,4.58s-.31.62-.9.62c-.42,0-.55-.13-.55-.51s.06-3.37.13-5.48a19.05,19.05,0,0,1-8.75,5.37c-.13.05-.28-.26-.15-.3a20.67,20.67,0,0,0,8-6.12h-5.15Zm6.22-1.27V39.81H135c-.18.79-.4,1.63-.68,2.48Zm7.79-10.11c.74-.94.92-1.05,1-1.05s.28.11,1.18.81c.44.35.51.46.51.57s-.09.22-.31.22h-5.55c1,.59,1.65,1.25,1.65,1.82s-.33.9-.71.9-.57-.13-.65-.66a3.48,3.48,0,0,0-.86-2.06h-1.58a11.28,11.28,0,0,1-2.54,2.7c-.11.09-.31-.09-.22-.2A15.17,15.17,0,0,0,142,31.61a8.8,8.8,0,0,0,.53-1.9c1.51.43,1.88.61,1.88.85s-.15.31-.83.42c-.2.41-.4.81-.64,1.2Zm-1,7.09V36.72h-5.46v2.55Z"/><path class="cls-2" d="M152.25,45.41a13.7,13.7,0,0,0,2,.15h14c1.14-1.29,1.31-1.45,1.44-1.45s.31.13,1.47,1.1c.57.46.62.57.62.7s-.09.2-.31.2H154.31a12.13,12.13,0,0,0-1.84.11Zm2.59-11.6a9.72,9.72,0,0,0,1.93.15h9c1.12-1.25,1.3-1.38,1.41-1.38s.3.13,1.4,1c.57.46.63.57.63.7s-.08.22-.3.22H156.79a13,13,0,0,0-1.73.11Z"/><path class="cls-2" d="M177.79,43.41a27.07,27.07,0,0,0,2.78-1.27c.11-.07.26.17.15.26a21.64,21.64,0,0,1-5.46,3.29c-.06.68-.17.86-.35.86s-.46-.22-1-2a10.06,10.06,0,0,0,1.21-.22c.5-.13,1-.27,1.49-.44v-6h-.92a7,7,0,0,0-1.28.13l-.22-.81a9.27,9.27,0,0,0,1.52.13h.9V32.14H175.5a7.76,7.76,0,0,0-1.4.13l-.22-.81a8,8,0,0,0,1.6.13h2.57c.72-.92.83-1,1-1s.22.07,1.08.77c.37.31.44.44.44.57s-.09.2-.31.2h-2.43v5.13h.35c.59-.83.7-.92.81-.92s.26.07,1,.74c.26.27.33.4.33.53s-.07.2-.28.2h-2.17Zm9.4-.79A9.59,9.59,0,0,0,189.41,45a14.73,14.73,0,0,0,1.68-1.36,4.68,4.68,0,0,0,.82-.92c1.11.75,1.4,1,1.4,1.16s-.24.22-.88.16a11.65,11.65,0,0,1-2.7,1.2,9.53,9.53,0,0,0,.84.57,11.93,11.93,0,0,0,3.81,1.49.12.12,0,0,1,0,.22c-.48.11-.7.33-.88.93a.26.26,0,0,1-.24.21,2.34,2.34,0,0,1-.92-.32,14,14,0,0,1-2.63-1.76A11.32,11.32,0,0,1,187,42.93c0,1,0,2.08,0,3,0,1.66.07,2.89.07,3.24s-.29.61-.83.61-.57-.17-.57-.48.08-1.23.08-3c0-.84,0-1.74,0-2.63a17.48,17.48,0,0,1-7.92,4.88c-.13.05-.22-.19-.11-.26a21.25,21.25,0,0,0,7.43-5.7h-2.32v.29c0,.43-.24.57-.75.57s-.54-.11-.54-.46.08-.66.08-2.26a20.61,20.61,0,0,0-.11-2.42,11.81,11.81,0,0,1,1.5.77h7.34c.57-.61.64-.68.77-.68s.22.07.83.57c.33.29.37.38.37.49s-.06.24-.57.57v.56c0,1.32,0,1.72,0,1.8,0,.42-.24.57-.77.57-.35,0-.48-.08-.5-.37Zm-6.64-5.83a9.35,9.35,0,0,0,1.55.13h9.32c.7-.83.81-.94,1-.94s.24.08,1.09.76c.35.29.46.4.46.51s-.06.22-.28.22H182.13a7.85,7.85,0,0,0-1.36.13Zm1.69-1.23c0,.44-.24.55-.75.55s-.5-.11-.5-.44.06-.79.06-2.59a21.5,21.5,0,0,0-.13-2.85,12.11,12.11,0,0,1,1.45.7h8.7c.55-.59.64-.63.75-.63s.26,0,.85.55c.31.26.38.39.38.5s-.14.26-.6.53v.94c0,1.78.05,2.37.05,2.54,0,.35-.27.49-.77.49s-.5-.14-.5-.42v-.18h-9Zm2.17-4.08h-2.17v3.23h2.17Zm6.14,8.18h-7.7v2.41h7.7Zm-2.79-4.95V31.48h-2.21v3.23Zm3.47-3.23H188.9v3.23h2.33Z"/><path class="cls-2" d="M201.35,37.51c0,8.4,0,10.9,0,11.65,0,.46-.31.65-.87.65s-.62-.15-.62-.55c0-.59.11-2.34.13-7.87a16.64,16.64,0,0,1-2.89,2.13c-.09.64-.18.92-.4.92s-.37-.26-1-1.93a6.75,6.75,0,0,0,1.16-.33,21.14,21.14,0,0,0,3.13-1.4V37.31c0-5.26,0-6.55-.11-7.36,2,.22,2.2.3,2.2.59s-.09.31-.77.59Zm-4.89-3.73a4.17,4.17,0,0,1,2.32,3.29c0,.6-.28,1-.81,1-.37,0-.52-.24-.61-1a7.45,7.45,0,0,0-1.12-3.11C196.17,33.83,196.35,33.72,196.46,33.78Zm7.24,3.58a6.05,6.05,0,0,0-1.39.13l-.21-.83a6.52,6.52,0,0,0,1.57.15h3.47c.06-1.21.11-2.59.11-4.19a22,22,0,0,0-.09-2.48c1.51.16,2.15.27,2.15.57s-.09.27-.66.53v.92c0,1.84,0,3.36-.13,4.65h4.32c.83-1.05,1-1.12,1.07-1.12s.27.07,1.21.86c.42.35.46.48.46.61s-.09.2-.31.2h-6.55a15.71,15.71,0,0,0,2.85,7,11.26,11.26,0,0,0,4.05,3.33c.14.05,0,.2-.08.25a1.29,1.29,0,0,0-.9,1c-.07.2-.16.29-.29.29s-.33-.14-.59-.35a15.66,15.66,0,0,1-3.09-3.71,18.57,18.57,0,0,1-2.28-6.75,15.32,15.32,0,0,1-1.16,4.91,11.91,11.91,0,0,1-5.11,6c-.11.07-.29-.17-.2-.26a13.34,13.34,0,0,0,4-5.7,21.38,21.38,0,0,0,1.16-5.94Zm6.77-5.64c1.84.62,2.76,1.63,2.76,2.5a.76.76,0,0,1-.7.84c-.3,0-.52-.18-.65-.64a6.24,6.24,0,0,0-1.58-2.5C210.21,31.83,210.34,31.68,210.47,31.72Z"/><path class="cls-2" d="M224,33.13a18.4,18.4,0,0,0,.68-1.87A9,9,0,0,0,225,29.6c1.66.41,2.12.59,2.12.85s-.09.31-.81.44a15.33,15.33,0,0,1-1.69,2.24H231c.63-.66.74-.73.85-.73s.22.05.92.64c.33.28.4.39.4.5s-.09.27-.62.64v4.93c0,6.89.09,9.15.09,9.78,0,.46-.26.62-.85.62s-.62-.14-.62-.51V48h-10v1.05c0,.44-.26.61-.85.61s-.62-.13-.62-.5c0-.81.11-2.39.11-9.63,0-4.47,0-6-.11-7.28a12,12,0,0,1,1.73.84Zm7.14.54h-10v4.08h10Zm0,4.63h-10v4.08h10Zm0,4.63h-10v4.56h10Z"/><path class="cls-2" d="M243.16,44.05h2.15c.68-.82.79-.9.92-.9s.24.08,1,.72c.33.26.4.4.4.53s-.07.19-.29.19h-4.21v1.89c1.43-.2,2.85-.44,4.06-.7.13,0,.2.24.07.28a47.32,47.32,0,0,1-9.19,2.24c-.16.57-.24.7-.46.7s-.33-.22-.81-2a14.56,14.56,0,0,0,1.75,0c1-.06,2.13-.17,3.33-.33v-2H239a7.26,7.26,0,0,0-1.47.14l-.2-.82a8.52,8.52,0,0,0,1.62.14h3V42.12h-2.56v.17c0,.44-.22.59-.73.59-.33,0-.54-.08-.54-.46s.06-1.47.06-3.5a33.78,33.78,0,0,0-.11-3.43,11.15,11.15,0,0,1,1.47.73h2.41V34.49h-3.33a7.23,7.23,0,0,0-1.51.13l-.22-.84a7.37,7.37,0,0,0,1.71.16h3.35V32.07a33.47,33.47,0,0,1-4.43.31c-.13,0-.15-.31,0-.33A27,27,0,0,0,244,30.63a7.51,7.51,0,0,0,1.84-.9c1.07.81,1.4,1.14,1.4,1.34s-.28.28-1,0c-1,.3-2,.57-3.05.79v2.06h2.7c.81-.92.92-1,1-1s.26,0,1.09.79c.38.33.44.43.44.57s-.06.22-.28.22h-5v1.73h2.52c.55-.59.66-.66.77-.66s.24.07.81.53c.31.26.38.39.38.5s-.09.24-.57.53v1.42c0,2.37.06,3.29.06,3.55,0,.44-.24.58-.74.58s-.53-.09-.53-.47v-.08h-2.7Zm-1.25-5.22V36.77h-2.56v2.06Zm0,2.74V39.38h-2.56v2.19Zm4-2.74V36.77h-2.7v2.06Zm0,2.74V39.38h-2.7v2.19Zm4.89-6c0-1.12.06-2.35.06-3.67a15.38,15.38,0,0,0-.08-1.81c1.71.19,2.12.3,2.12.59s-.15.3-.68.52c0,1.6,0,3.05-.13,4.37h2.39c.59-.68.66-.73.79-.73s.22.05.92.68c.31.29.35.4.35.51s-.11.28-.52.55a53,53,0,0,1-.79,9.82A4.34,4.34,0,0,1,254,48.87a2.55,2.55,0,0,1-1.44.44c-.24,0-.29,0-.31-.22-.07-.55-.31-1-2-1.38-.14-.05-.12-.33,0-.31a17.33,17.33,0,0,0,2.61.24c.57,0,.81-.63,1.11-2.13a52.91,52.91,0,0,0,.66-9.45H252c-.5,7.74-2.26,10.88-6.93,13.64-.11.07-.3-.17-.2-.26,3.91-3.11,5.42-6.6,5.82-13.38H250a7.83,7.83,0,0,0-1.71.16l-.19-.86a10.3,10.3,0,0,0,1.86.16Z"/><path class="cls-2" d="M268.53,42.53c0,.84,0,1.65,0,2.48h6.62c.79-1,1-1.12,1.12-1.12s.24.07,1.27.86c.46.37.5.5.5.61s-.06.2-.28.2h-9.23c0,2.28.06,3.27.06,3.68s-.31.64-.92.64c-.42,0-.61-.16-.61-.55s0-1.32.08-3.77h-6.88a10,10,0,0,0-1.62.13l-.22-.81a9.25,9.25,0,0,0,1.86.13h6.86c0-.83,0-1.64,0-2.48h-4.63v.53c0,.44-.24.59-.79.59s-.57-.13-.57-.46c0-.5.07-1.58.07-5a28.25,28.25,0,0,0-.11-3.51,11.13,11.13,0,0,1,1.62.81h4.43V33.17h-6.64a9.71,9.71,0,0,0-1.61.13l-.24-.83a9.11,9.11,0,0,0,1.85.15h6.64a21.55,21.55,0,0,0-.13-2.89c1.91.22,2.17.33,2.17.59s-.11.31-.75.57v1.73h6.34c.88-1,1-1.07,1.1-1.07s.26,0,1.2.81c.44.35.51.5.51.61s-.07.2-.29.2h-8.86v2.28h4.78c.59-.68.68-.72.79-.72s.2,0,.88.61c.33.26.39.37.39.51s-.08.26-.61.61v1.8c0,3,.09,4.25.09,4.54,0,.46-.24.61-.81.61-.4,0-.6-.09-.6-.46v-.42ZM267.22,36h-4.65v2.65h4.65Zm0,6c0-.92,0-1.86,0-2.78h-4.65V42Zm6.22-3.33V36h-4.91v2.65Zm0,3.33V39.2h-4.91c0,.92,0,1.86,0,2.78Z"/><path class="cls-2" d="M284.45,45.19a4.27,4.27,0,0,0,2,1.82c1,.41,2.5.79,6,.79a58.27,58.27,0,0,0,7.57-.53c.13,0,.17.2.06.26-.52.29-.65.42-.7.86s-.11.46-.44.5c-2.12.13-3.83.18-5.74.18-4.32,0-6.1-.49-7.17-1.21a6.24,6.24,0,0,1-2.17-2.74A15.32,15.32,0,0,1,281.46,48c0,.77-.08,1-.32,1s-.46-.31-1.25-2.08a6.22,6.22,0,0,0,1.16-.46,10.17,10.17,0,0,0,2.06-1.39V39.4H281.6a6.62,6.62,0,0,0-1.58.15l-.22-.88a7.38,7.38,0,0,0,1.8.18h1.33c.66-.68.73-.75.86-.75s.24.07.88.62c.33.28.35.39.35.52s0,.22-.57.57Zm-3.12-14.72c2,.75,3.23,2.06,3.23,3,0,.7-.35,1-.81,1s-.55-.22-.75-.93a6.58,6.58,0,0,0-1.82-2.91C281.09,30.58,281.22,30.43,281.33,30.47Zm9.54,5.62a18.74,18.74,0,0,0,.62-2.37h-4.24a7.3,7.3,0,0,0-1.42.11l-.22-.81a8,8,0,0,0,1.64.15h6a21.91,21.91,0,0,0,1-2.41,4.81,4.81,0,0,0,.28-1.1c1.34.48,2,.79,2,1s-.22.35-.92.4a15.67,15.67,0,0,1-1.8,2.1h3.22c.82-1,.95-1.07,1.06-1.07s.24.06,1.18.81c.44.35.51.48.51.59s-.09.22-.31.22h-6.38a17.76,17.76,0,0,1-1.58,2.37h4.23c.59-.68.68-.75.81-.75s.22.09.86.62c.26.21.33.35.33.48s-.07.28-.55.59v2.63c0,3.2.11,5.59.11,6.16s-.27.62-.84.62-.59-.11-.59-.51V45.6h-7V46c0,.42-.24.6-.76.6s-.59-.14-.59-.51c0-.77.08-1.88.08-5.52,0-2.81,0-3.93-.11-5.24a10.18,10.18,0,0,1,1.58.81Zm-2.19-6.34c1.75.59,2.54,1.45,2.54,2.21,0,.55-.3.88-.7.88s-.55-.13-.7-.72A5.09,5.09,0,0,0,288.53,30C288.44,29.86,288.55,29.71,288.68,29.75Zm7.21,6.88h-7v2.31h7Zm-7,5.25h7V39.49h-7Zm0,3.17h7V42.42h-7Z"/><rect class="cls-2" x="20" y="62" width="329" height="66"/><path class="cls-3" d="M110.88,79H100v31.08H98.4V77.47h12.48Z"/><path class="cls-3" d="M129.79,88.11a89.11,89.11,0,0,0-.24-9.11c3.73.4,4.2.71,4.2,1.14s-.19.59-1.45,1.1V92.9h8.64c1.76-2.12,2-2.24,2.19-2.24s.47.12,2.36,1.73c.86.74,1,.9,1,1.14s-.16.35-.55.35H132.3v16.4h11.89c1.89-2.19,2.12-2.31,2.32-2.31s.47.12,2.31,1.69c1,.82,1.06,1,1.06,1.25s-.11.36-.51.36H118.6a26.32,26.32,0,0,0-3.06.19l-.39-1.45a16.88,16.88,0,0,0,3.42.27h11.22Z"/><path class="cls-3" d="M159.14,112.72c0,.82-.47,1.21-1.57,1.21-.75,0-1-.31-1-1,0-.39.11-3.84.19-11,0-1.45.08-2.86.08-4.31a27.37,27.37,0,0,1-6.47,4.08c-.24.08-.51-.35-.32-.47a35.8,35.8,0,0,0,12-14h-7.57a12.15,12.15,0,0,0-3,.27L151.09,86a17.79,17.79,0,0,0,3.42.28h2.27V81.87a25.24,25.24,0,0,0-.23-3.61c3.61.43,3.92.71,3.92,1.14,0,.27-.23.55-1.37,1v5.81H162c1-1.1,1.14-1.22,1.34-1.22s.35.12,1.65,1.37c.55.55.66.79.66,1s-.39.51-1.33.71a31.62,31.62,0,0,1-4.95,7.14c4.87,1.65,6.52,3.26,6.52,5a1.24,1.24,0,0,1-1.18,1.37c-.55,0-.82-.2-1.25-1.1A11.76,11.76,0,0,0,159.14,96Zm13.65-19.23H168a17,17,0,0,0-2.75.23l-.43-1.49a14.48,14.48,0,0,0,3.14.28h4.86v-4.6c0-4.9,0-7.61-.19-9.18,3.61.43,4.08.71,4.08,1.18,0,.27-.24.59-1.41,1.06V92.51h5.22c1.68-2,1.92-2.12,2.12-2.12s.43.15,2.19,1.61c.87.7.95.9.95,1.13s-.12.36-.51.36h-10v17.26H181c1.8-2.19,2-2.31,2.23-2.31s.44.08,2.32,1.69c.94.78,1.06,1,1.06,1.21s-.16.4-.55.4H165.61a19.07,19.07,0,0,0-3.06.23l-.39-1.49a16.62,16.62,0,0,0,3.37.27h7.26Z"/><path class="cls-3" d="M190.53,113.11h10.91V82H203V114.6H190.53Z"/><path class="cls-3" d="M222.94,104.08c0,2.67.12,3.14.47,3.65s.83.75,3.1.94c.32,0,.4.12.4.52s-.08.51-.4.51c-1.56-.08-3.61-.16-5.22-.16s-3.49.08-4.9.16c-.24,0-.31-.08-.31-.51s.07-.48.31-.52c2.08-.15,2.59-.47,2.86-.94.4-.66.51-1.25.51-5.14V88.82c0-4-.07-4.36-.47-4.95-.27-.43-.74-.74-3.1-.94-.27,0-.31-.12-.31-.47,0-.55.08-.63.31-.63,1.53.08,3.61.2,5.1.2s3.58-.12,5-.2c.31,0,.39.08.39.63,0,.35-.08.43-.39.47-1.92.2-2.51.39-2.87.94s-.51,1.18-.51,4.95Z"/><path class="cls-3" d="M235.77,108.05a2.34,2.34,0,1,1-2.32-2.4A2.31,2.31,0,0,1,235.77,108.05Z"/><path class="cls-3" d="M262.68,88.78c0,.15-.24.27-.59.27a.44.44,0,0,1-.39-.27,11,11,0,0,0-3.26-4.59,9.92,9.92,0,0,0-5.37-1.61c-5.81,0-10.17,5.22-10.17,13.1,0,7.07,4.43,12.44,10.52,12.44a10.35,10.35,0,0,0,9.61-5.37.49.49,0,0,1,.4-.2c.31,0,.74.28.74.51a.65.65,0,0,1-.12.36c-2.35,4.35-5.88,6.9-11.1,6.9-8.13,0-13.94-6-13.94-14.56,0-8.43,5.81-14.52,14-14.52a17.36,17.36,0,0,1,4.59.59,11.13,11.13,0,0,0,3.1.55,8.66,8.66,0,0,0,1.37-.12c.16,2,.35,4.24.59,6.4Z"/><path class="cls-3" d="M272.65,108.05a2.34,2.34,0,1,1-2.32-2.4A2.31,2.31,0,0,1,272.65,108.05Z"/></g></g></svg>