<svg xmlns="http://www.w3.org/2000/svg" xmlns:xlink="http://www.w3.org/1999/xlink" width="30" height="29.997" viewBox="0 0 30 29.997"><defs><clipPath id="a"><rect width="30" height="29.997" fill="none"/></clipPath></defs><g transform="translate(0 0)" clip-path="url(#a)"><path d="M28.492,14.394A14.1,14.1,0,1,1,14.4.3,14.094,14.094,0,0,1,28.492,14.394" transform="translate(0.604 0.604)" fill="#656565"/><path d="M15,30A15,15,0,1,1,30,15,15.02,15.02,0,0,1,15,30M15,1.809A13.191,13.191,0,1,0,28.191,15,13.205,13.205,0,0,0,15,1.809" transform="translate(0 0)" fill="#fff"/><path d="M6.9,12.421,5.844,15.706a1.882,1.882,0,0,0-.13.711.8.8,0,0,0,.907.868h.606v.69H2.537v-.69h.711c.91,0,1.688-.931,2.035-1.989L9.539,2.2l1.9-.41,4.732,14.028c.434,1.254.995,1.471,1.6,1.471h.473v.69H12.933v-.69h.651a.947.947,0,0,0,.886-.952,2.618,2.618,0,0,0-.2-.8l-1.037-3.111Zm3.114-9.51L7.14,11.731H13Z" transform="translate(5.11 3.599)" fill="#fff"/></g></svg>