<svg xmlns="http://www.w3.org/2000/svg" xmlns:xlink="http://www.w3.org/1999/xlink" width="30" height="29.997" viewBox="0 0 30 29.997"><defs><clipPath id="a"><rect width="30" height="29.997" fill="none"/></clipPath></defs><g transform="translate(0 0)" clip-path="url(#a)"><path d="M28.491,14.394A14.1,14.1,0,1,1,14.4.3,14.094,14.094,0,0,1,28.491,14.394" transform="translate(0.604 0.604)" fill="#656565"/><path d="M15,30A15,15,0,1,1,30,15,15.015,15.015,0,0,1,15,30M15,1.809A13.191,13.191,0,1,0,28.191,15,13.2,13.2,0,0,0,15,1.809" transform="translate(0 0)" fill="#fff"/><path d="M2.687,2.128h7.2c3.307,0,5.489,1.3,5.489,3.5a3.684,3.684,0,0,1-1.492,2.851,5.065,5.065,0,0,1-2.14.952,5.856,5.856,0,0,1,2.9,1.082,3.946,3.946,0,0,1,1.646,3.047c0,1.923-1.688,4.343-5.881,4.343H2.687v-.69h.865a1.385,1.385,0,0,0,1.534-1.492V4.331A1.385,1.385,0,0,0,3.552,2.842H2.687ZM6.816,9.22H9.692c1.881,0,3.674-.974,3.674-3.331,0-1.944-1.317-3.047-3.478-3.047H8.351A1.386,1.386,0,0,0,6.816,4.331Zm0,.69v5.814a1.379,1.379,0,0,0,1.534,1.492h1.881c2.315,0,4-1.3,4-3.59A3.632,3.632,0,0,0,10.3,9.911Z" transform="translate(5.412 4.286)" fill="#fff"/></g></svg>