<svg xmlns="http://www.w3.org/2000/svg" xmlns:xlink="http://www.w3.org/1999/xlink" width="30" height="30.003" viewBox="0 0 30 30.003"><defs><clipPath id="a"><rect width="30" height="30.003" fill="none"/></clipPath></defs><g transform="translate(0 0)" clip-path="url(#a)"><path d="M28.494,14.4A14.1,14.1,0,1,1,14.4.3a14.1,14.1,0,0,1,14.1,14.1" transform="translate(0.604 0.604)" fill="#656565"/><path d="M15,30.006A15,15,0,1,1,30,15a15.019,15.019,0,0,1-15,15m0-28.2A13.194,13.194,0,1,0,28.191,15,13.207,13.207,0,0,0,15,1.809" transform="translate(0 0)" fill="#fff"/><path d="M14.967,6.481c-.8-1.212-2.357-3.569-5.254-3.569-3.458,0-5.167,3.524-5.167,7.286,0,4.193,2.032,7.612,5.664,7.612,3.069,0,4.582-2.812,5.146-3.916l.585.347C15.1,15.9,13.583,18.8,9.562,18.8,5,18.8,2.773,15.1,2.773,10.845,2.773,5.79,5.908,2.2,9.562,2.2a6.425,6.425,0,0,1,1.818.259c.172.042,1.188.323,1.317.323a3.113,3.113,0,0,0,1.45-.515l1.534,3.889Z" transform="translate(5.586 4.431)" fill="#fff"/></g></svg>