<svg xmlns="http://www.w3.org/2000/svg" xmlns:xlink="http://www.w3.org/1999/xlink" width="30" height="29.997" viewBox="0 0 30 29.997"><defs><clipPath id="a"><rect width="30" height="29.997" fill="none"/></clipPath></defs><g transform="translate(0 0)" clip-path="url(#a)"><path d="M28.491,14.394A14.1,14.1,0,1,1,14.4.3,14.094,14.094,0,0,1,28.491,14.394" transform="translate(0.604 0.604)" fill="#656565"/><path d="M15,30A15,15,0,1,1,30,15,15.015,15.015,0,0,1,15,30M15,1.809A13.191,13.191,0,1,0,28.191,15,13.207,13.207,0,0,0,15,1.809" transform="translate(0 0)" fill="#fff"/><path d="M2.817,2.232h6.2c5.061,0,8.193,2.6,8.193,7.783,0,3.7-1.944,8-8,8h-6.4v-.693h.735a1.393,1.393,0,0,0,1.555-1.492V4.438A1.394,1.394,0,0,0,3.552,2.946H2.817Zm4,13.6a1.386,1.386,0,0,0,1.534,1.492H9.388c3.912,0,5.881-3.5,5.881-7.478,0-2.746-1.124-6.9-5.793-6.9H8.351A1.387,1.387,0,0,0,6.817,4.438Z" transform="translate(5.674 4.495)" fill="#fff"/></g></svg>