<svg xmlns="http://www.w3.org/2000/svg" xmlns:xlink="http://www.w3.org/1999/xlink" width="40" height="40" viewBox="0 0 40 40"><defs><clipPath id="a"><rect width="40" height="40" fill="none"/></clipPath></defs><g transform="translate(0 0)" clip-path="url(#a)"><path d="M19.1,0a19.1,19.1,0,0,1,7.431,36.684A19.1,19.1,0,0,1,11.663,1.5,18.983,18.983,0,0,1,19.1,0Zm0,37.585a18.5,18.5,0,0,0,7.2-35.532A18.5,18.5,0,0,0,11.9,36.132,18.386,18.386,0,0,0,19.1,37.585Z" transform="translate(0.906 0.906)" fill="#fff"/><path d="M37.889,19.092A18.794,18.794,0,1,1,19.1.3,18.792,18.792,0,0,1,37.889,19.092" transform="translate(0.906 0.906)" fill="#656565"/><path d="M2.687,2.129h9.6c4.409,0,7.318,1.728,7.318,4.67a4.911,4.911,0,0,1-1.989,3.8,6.754,6.754,0,0,1-2.853,1.27,7.809,7.809,0,0,1,3.862,1.443,5.262,5.262,0,0,1,2.194,4.063c0,2.564-2.251,5.791-7.841,5.791H2.687v-.92H3.84a1.847,1.847,0,0,0,2.046-1.989V5.067A1.847,1.847,0,0,0,3.84,3.081H2.687Zm5.506,9.456h3.834c2.508,0,4.9-1.3,4.9-4.441,0-2.592-1.756-4.063-4.638-4.063h-2.05A1.848,1.848,0,0,0,8.193,5.067Zm0,.92v7.752a1.839,1.839,0,0,0,2.046,1.989h2.508c3.087,0,5.333-1.728,5.333-4.786a4.843,4.843,0,0,0-5.245-4.955Z" transform="translate(8.112 6.427)" fill="#fff"/></g></svg>