<svg xmlns="http://www.w3.org/2000/svg" xmlns:xlink="http://www.w3.org/1999/xlink" width="40" height="40" viewBox="0 0 40 40"><defs><clipPath id="a"><rect width="40" height="40" fill="none"/></clipPath></defs><g transform="translate(0 0)" clip-path="url(#a)"><path d="M19.1,0a19.1,19.1,0,0,1,7.431,36.684A19.1,19.1,0,0,1,11.663,1.5,18.983,18.983,0,0,1,19.1,0Zm0,37.585a18.5,18.5,0,0,0,7.2-35.532A18.5,18.5,0,0,0,11.9,36.132,18.386,18.386,0,0,0,19.1,37.585Z" transform="translate(0.906 0.906)" fill="#fff"/><path d="M37.889,19.092A18.794,18.794,0,1,1,19.1.3,18.792,18.792,0,0,1,37.889,19.092" transform="translate(0.906 0.906)" fill="#656565"/><path d="M8.356,15.967,6.946,20.347a2.509,2.509,0,0,0-.173.948,1.064,1.064,0,0,0,1.21,1.157H8.79v.92H2.537v-.92h.948c1.214,0,2.251-1.242,2.713-2.652L11.873,2.335l2.54-.547,6.31,18.7c.579,1.672,1.326,1.961,2.134,1.961h.631v.92H16.4v-.92h.868a1.262,1.262,0,0,0,1.182-1.27,3.49,3.49,0,0,0-.261-1.069L16.8,15.967Zm4.152-12.68L8.674,15.046h7.813Z" transform="translate(7.659 5.398)" fill="#fff"/></g></svg>