<svg xmlns="http://www.w3.org/2000/svg" xmlns:xlink="http://www.w3.org/1999/xlink" width="40" height="40" viewBox="0 0 40 40"><defs><clipPath id="a"><rect width="40" height="40" fill="none"/></clipPath></defs><g transform="translate(0 0)" clip-path="url(#a)"><path d="M19.1,0a19.1,19.1,0,0,1,7.431,36.684A19.1,19.1,0,0,1,11.663,1.5,18.983,18.983,0,0,1,19.1,0Zm0,37.585a18.5,18.5,0,0,0,7.2-35.532A18.5,18.5,0,0,0,11.9,36.132,18.386,18.386,0,0,0,19.1,37.585Z" transform="translate(0.906 0.906)" fill="#fff"/><path d="M37.889,19.092A18.794,18.794,0,1,1,19.1.3,18.792,18.792,0,0,1,37.889,19.092" transform="translate(0.906 0.906)" fill="#656565"/><path d="M2.817,2.232h8.271c6.748,0,10.923,3.46,10.923,10.377,0,4.931-2.592,10.666-10.662,10.666H2.817v-.924H3.8a1.858,1.858,0,0,0,2.074-1.989V5.174A1.858,1.858,0,0,0,3.8,3.184H2.817ZM8.15,20.361A1.848,1.848,0,0,0,10.2,22.351h1.382c5.217,0,7.841-4.67,7.841-9.971,0-3.661-1.5-9.2-7.724-9.2H10.2A1.849,1.849,0,0,0,8.15,5.174Z" transform="translate(8.504 6.738)" fill="#fff"/></g></svg>