<svg xmlns="http://www.w3.org/2000/svg" xmlns:xlink="http://www.w3.org/1999/xlink" width="40" height="40" viewBox="0 0 40 40"><defs><clipPath id="a"><rect width="40" height="40" fill="none"/></clipPath></defs><g transform="translate(0 0)" clip-path="url(#a)"><path d="M19.1,0a19.1,19.1,0,0,1,7.431,36.684A19.1,19.1,0,0,1,11.663,1.5,18.983,18.983,0,0,1,19.1,0Zm0,37.585a18.5,18.5,0,0,0,7.2-35.532A18.5,18.5,0,0,0,11.9,36.132,18.386,18.386,0,0,0,19.1,37.585Z" transform="translate(0.906 0.906)" fill="#fff"/><path d="M37.889,19.092A18.794,18.794,0,1,1,19.1.3,18.792,18.792,0,0,1,37.889,19.092" transform="translate(0.906 0.906)" fill="#656565"/><path d="M19.029,7.907c-1.069-1.616-3.143-4.758-7-4.758-4.61,0-6.888,4.7-6.888,9.714,0,5.59,2.709,10.148,7.551,10.148,4.091,0,6.109-3.75,6.86-5.221l.78.462c-1.125,2.218-3.143,6.085-8.5,6.085-6.081,0-9.051-4.931-9.051-10.61,0-6.74,4.18-11.526,9.051-11.526a8.566,8.566,0,0,1,2.423.346c.229.056,1.583.43,1.756.43a4.151,4.151,0,0,0,1.933-.687l2.046,5.184Z" transform="translate(8.371 6.642)" fill="#fff"/></g></svg>