<svg xmlns="http://www.w3.org/2000/svg" width="730.172" height="228.844" viewBox="0 0 730.172 228.844"><g transform="translate(-502 -2534)"><rect width="155.77" height="109.039" transform="translate(502 2534)" fill="#b1ced8"/><path d="M-24.852,0q-.608,0-.608-1.064t.608-1.064h1.216A9.089,9.089,0,0,0-18.7-3.154q1.52-1.026,1.52-3.686V-48.26q0-2.736-1.52-3.762a9.089,9.089,0,0,0-4.94-1.026h-1.216q-.532,0-.532-1.064v-.38a.648.648,0,0,1,.418-.57,3.458,3.458,0,0,1,1.026-.114q1.368-.076,7.6-.076,8.208,0,13.832.228a35.772,35.772,0,0,1,13.414,3.116,23.447,23.447,0,0,1,10.108,8.854q3.914,6.042,3.914,15.466,0,9.348-3.914,15.39A23.7,23.7,0,0,1,10.906-3.306,35.323,35.323,0,0,1-2.508-.152q-5.016.228-12.54.228Zm20.9-2.28A23.936,23.936,0,0,0,5.434-4.408a20.24,20.24,0,0,0,8.74-7.79q3.762-5.662,3.762-15.39,0-9.8-3.762-15.466a19.976,19.976,0,0,0-8.74-7.752A24.3,24.3,0,0,0-3.952-52.9H-4.56q-3.5,0-4.978,1.064t-1.482,3.724V-6.992A4.187,4.187,0,0,0-9.538-3.344Q-8.056-2.28-4.56-2.28ZM-23.263,30.35a2.919,2.919,0,0,1-2.112-.712,2.916,2.916,0,0,1-.738-2.187v-8a.524.524,0,0,0-.137-.388.524.524,0,0,0-.388-.138h-.975A.556.556,0,0,1-28,18.8a.449.449,0,0,1-.138-.35.641.641,0,0,1,.425-.6,3.555,3.555,0,0,0,1.725-1.363,8.521,8.521,0,0,0,1.025-2.962q.125-.5.375-.5.275,0,.275.525v3.925a.524.524,0,0,0,.137.387.524.524,0,0,0,.388.138h2.225q.525,0,.525.45a.449.449,0,0,1-.137.35.556.556,0,0,1-.388.125h-2.25a.524.524,0,0,0-.388.138.524.524,0,0,0-.137.388v5.6l.025,2.25a2.088,2.088,0,0,0,.475,1.363,1.462,1.462,0,0,0,1.15.512A2.163,2.163,0,0,0-21.75,29a2.3,2.3,0,0,0,.712-.575.341.341,0,0,1,.25-.15.322.322,0,0,1,.238.125.377.377,0,0,1,.112.25.308.308,0,0,1-.05.175A3.146,3.146,0,0,1-23.263,30.35ZM-4.687,18q.175,0,.175.35t-.175.35a2.148,2.148,0,0,0-2.05,1.35q-.475.975-4.825,11.9A7,7,0,0,1-13.7,35a4.084,4.084,0,0,1-2.238.7,1.985,1.985,0,0,1-1.125-.3.881.881,0,0,1-.45-.75,1.074,1.074,0,0,1,.288-.775,1.072,1.072,0,0,1,.813-.3,2.506,2.506,0,0,1,.925.2,1.928,1.928,0,0,0,.775.175,1.718,1.718,0,0,0,1.125-.562,4.51,4.51,0,0,0,1-1.438l.675-1.65a.882.882,0,0,0,.075-.35.882.882,0,0,0-.075-.35l-4.15-9.85a1.621,1.621,0,0,0-.7-.862,2.64,2.64,0,0,0-1.1-.187q-.175,0-.175-.35t.175-.35h5.55q.2,0,.2.35t-.2.35a3.286,3.286,0,0,0-1.313.225q-.512.225-.512.625a.979.979,0,0,0,.075.325l2.85,7a.53.53,0,0,0,.15.237.305.305,0,0,0,.2.088q.2,0,.35-.35.95-2.25,1.688-4.1t1.063-2.7a.888.888,0,0,0,.05-.325.828.828,0,0,0-.575-.762,3.1,3.1,0,0,0-1.3-.262q-.175,0-.175-.35a.7.7,0,0,1,.038-.263A.137.137,0,0,1-9.587,18Zm11.05-.225a4.59,4.59,0,0,1,2.712.837A5.46,5.46,0,0,1,10.912,20.9a7.734,7.734,0,0,1,.65,3.2,6.928,6.928,0,0,1-.688,3.05,6.023,6.023,0,0,1-1.862,2.288,4.186,4.186,0,0,1-2.525.862,5.518,5.518,0,0,1-3.275-1.05.54.54,0,0,0-.35-.15.23.23,0,0,0-.2.112.559.559,0,0,0-.075.313v4.45a.836.836,0,0,0,.437.85,2.83,2.83,0,0,0,1.163.2h.3q.2,0,.2.325,0,.35-.2.35H-1.087q-.2,0-.2-.35,0-.325.2-.325h.3a2.9,2.9,0,0,0,1.187-.2.836.836,0,0,0,.438-.85L.763,20.65a1.092,1.092,0,0,0-.237-.775,1.1,1.1,0,0,0-.563-.325q-.325-.075-1.075-.175A.217.217,0,0,1-1.3,19.25a.808.808,0,0,1-.038-.275.212.212,0,0,1,.15-.225l2.7-.7q.6-.15.525-.125a.554.554,0,0,1,.175-.025q.4,0,.4.475v.1a.593.593,0,0,0,.138.45.226.226,0,0,0,.313,0A5.515,5.515,0,0,1,6.363,17.775ZM5.738,29.2a3.84,3.84,0,0,0,1.475-.35A3.564,3.564,0,0,0,8.75,27.325a6.744,6.744,0,0,0,.712-3.45,6.224,6.224,0,0,0-.575-2.862A3.814,3.814,0,0,0,7.45,19.4a3.517,3.517,0,0,0-1.787-.5,4.025,4.025,0,0,0-1.375.275,5.239,5.239,0,0,0-1.375.75.763.763,0,0,0-.3.65L2.588,27.4a.889.889,0,0,0,.275.65,5.223,5.223,0,0,0,1.387.838A3.908,3.908,0,0,0,5.738,29.2Zm21.225-2.375a.226.226,0,0,1,.125.2.59.59,0,0,1-.075.25,5.366,5.366,0,0,1-1.737,2.15,4.946,4.946,0,0,1-3.087.925,6.422,6.422,0,0,1-3.062-.738A5.443,5.443,0,0,1,16.938,27.5a6.248,6.248,0,0,1-.8-3.2,7.721,7.721,0,0,1,.65-3.1,6.086,6.086,0,0,1,1.937-2.475,5.006,5.006,0,0,1,3.113-.975,4.816,4.816,0,0,1,3.425,1.263A5.965,5.965,0,0,1,26.987,22.5v.1q0,.475-.5.475l-7.75.05q-.525,0-.525.45a3.206,3.206,0,0,0-.025.475,5.992,5.992,0,0,0,.612,2.863,3.993,3.993,0,0,0,1.6,1.675,4.45,4.45,0,0,0,2.163.538,4.64,4.64,0,0,0,3.95-2.25.278.278,0,0,1,.225-.15A.482.482,0,0,1,26.962,26.825ZM21.688,18.65a2.761,2.761,0,0,0-1.913.763,4.687,4.687,0,0,0-1.263,2.137.65.65,0,0,0-.025.2q0,.4.475.4l5.175-.05q.525,0,.525-.25a3.378,3.378,0,0,0-.912-2.425A2.923,2.923,0,0,0,21.688,18.65Z" transform="translate(579.029 2727.145)" fill="#333"/><path d="M17.651-10.526a.668.668,0,0,1-.361-.124,1.081,1.081,0,0,1-.323-.332,5.242,5.242,0,0,0-.6-.75,4.5,4.5,0,0,0-.75-.58,2.6,2.6,0,0,0-.266-.133.994.994,0,0,1-.219-.123q-.086-.067-.085-.123,0-.152.38-.152a4.46,4.46,0,0,1,1.026.171,3.571,3.571,0,0,1,1.216.57,1.216,1.216,0,0,1,.551,1.026.481.481,0,0,1-.181.427A.676.676,0,0,1,17.651-10.526ZM15.865-8.835a.755.755,0,0,1-.722-.494,3.49,3.49,0,0,0-.551-.884,2.8,2.8,0,0,0-.836-.636,1.691,1.691,0,0,0-.2-.1.745.745,0,0,1-.209-.133.185.185,0,0,1-.066-.123q0-.133.266-.133a4.807,4.807,0,0,1,1.016.181,4.193,4.193,0,0,1,1.33.6,1.261,1.261,0,0,1,.618,1.083.6.6,0,0,1-.19.484A.681.681,0,0,1,15.865-8.835ZM15.96-3.7a.477.477,0,0,1-.38-.181,2.3,2.3,0,0,1-.323-.637,12.441,12.441,0,0,0-1.491-2.707A12.156,12.156,0,0,0,11.229-9.8q-.171-.133-.171-.228t.114-.1a.473.473,0,0,1,.209.057,12.167,12.167,0,0,1,2.309,1.377,14.372,14.372,0,0,1,2.252,2,2.914,2.914,0,0,1,.931,1.72,1.418,1.418,0,0,1-.285.921A.809.809,0,0,1,15.96-3.7ZM.323-2.584Q.19-2.584.19-2.66q0-.152.285-.323A18.581,18.581,0,0,0,3.439-5.149a15.708,15.708,0,0,0,2.1-2.233A3.158,3.158,0,0,0,6.308-8.93q0-.3-.418-.513L5.7-9.519a.744.744,0,0,1-.171-.095.153.153,0,0,1-.076-.114q0-.133.266-.171a4.832,4.832,0,0,1,.665-.038,2.127,2.127,0,0,1,1.33.38,1.264,1.264,0,0,1,.608.988.781.781,0,0,1-.171.475A17.386,17.386,0,0,1,4.864-5.12,22.874,22.874,0,0,1,.589-2.66.871.871,0,0,1,.323-2.584Zm29.906-.247a.85.85,0,0,1-.57-.3,1.189,1.189,0,0,1-.494-.836.532.532,0,0,1,.076-.266,2.455,2.455,0,0,0,.133-1.026l-.019-1.425q0-.532.019-.817l.057-1.216q.057-.665.057-1.121a1.467,1.467,0,0,0-.19-.912,1.574,1.574,0,0,0-.342-.295,4.047,4.047,0,0,0-.371-.2q-.2-.1-.2-.171,0-.133.19-.209a1.48,1.48,0,0,1,.532-.076,2.218,2.218,0,0,1,.893.2,2.329,2.329,0,0,1,.75.5.887.887,0,0,1,.295.608.6.6,0,0,1-.133.323,1.011,1.011,0,0,0-.171.38q-.1.551-.2,2.28t-.124,2.451q0,.266.247.266a4.289,4.289,0,0,0,1.6-.636,27.848,27.848,0,0,0,2.679-1.72q1.52-1.083,2.964-2.337.266-.247.38-.247a.084.084,0,0,1,.095.1.8.8,0,0,1-.266.437A24.308,24.308,0,0,1,36-6.973q-1.377,1.254-2.869,2.385a17.259,17.259,0,0,1-2.594,1.681A.675.675,0,0,1,30.229-2.831ZM20.881-.513q-.1,0-.095-.076,0-.095.209-.3A16.258,16.258,0,0,0,24.025-4.74a15.616,15.616,0,0,0,1.757-4.208,2.254,2.254,0,0,0,.095-.589.957.957,0,0,0-.532-.836q-.361-.228-.361-.38t.3-.152a2.535,2.535,0,0,1,1.216.342,2.457,2.457,0,0,1,.694.57,1.091,1.091,0,0,1,.332.665,1.392,1.392,0,0,1-.209.532A3.177,3.177,0,0,0,27-8.075a11.577,11.577,0,0,1-1.378,2.669A21.873,21.873,0,0,1,23.4-2.575a11.461,11.461,0,0,1-2.27,1.967A.508.508,0,0,1,20.881-.513ZM53.352-11.191a3.056,3.056,0,0,1,.741.2,5.38,5.38,0,0,1,1.035.484q.465.285.465.608a.444.444,0,0,1-.114.314,2.234,2.234,0,0,1-.323.275,1.068,1.068,0,0,0-.38.418q-.342,1.007-1.045,4.313v.095q0,.266.342.361.76.171.76.684,0,.19-.276.323a1.751,1.751,0,0,1-.75.133l-.551-.038q-.266-.019-.846-.048T51.433-3.1a18.967,18.967,0,0,0-5.529.741.964.964,0,0,1-.266.038,1.438,1.438,0,0,1-.741-.228A2.34,2.34,0,0,1,44.26-3.1,1,1,0,0,1,44-3.7q0-.323.171-.323a.437.437,0,0,1,.171.057,2.731,2.731,0,0,0,.617.276,3.2,3.2,0,0,0,.846.086,14.587,14.587,0,0,0,1.824-.19l1.672-.209q1.292-.152,3-.209a.382.382,0,0,0,.418-.361q.19-.988.323-2.233a20.183,20.183,0,0,0,.133-2.081,1.5,1.5,0,0,0-.076-.6q-.076-.143-.38-.142-.494.038-1.833.181T48.1-9.12a12.533,12.533,0,0,0-1.966.361,4.3,4.3,0,0,1-1.159.247,1.128,1.128,0,0,1-.732-.238,2.394,2.394,0,0,1-.579-.845.612.612,0,0,1-.076-.266q0-.152.19-.152a.938.938,0,0,1,.285.057,3.361,3.361,0,0,0,.855.133q.95,0,3.752-.228a19.9,19.9,0,0,0,3.391-.437,2.74,2.74,0,0,0,.656-.323q.237-.171.275-.19A.659.659,0,0,1,53.352-11.191ZM67.393-8.854a1.808,1.808,0,0,0-.418.133q-.076.019-.257.076a1.111,1.111,0,0,1-.332.057q-.532,0-.95-.741a1.947,1.947,0,0,1-.285-.8q0-.114.1-.114a.437.437,0,0,1,.228.133,1.3,1.3,0,0,0,.817.342q.456-.019,1.51-.1t1.985-.2q1.235-.152,1.463-.209a1.418,1.418,0,0,0,.627-.323,1.112,1.112,0,0,1,.285-.19,1,1,0,0,1,.38-.057,2.2,2.2,0,0,1,.665.142,2.726,2.726,0,0,1,.741.38.673.673,0,0,1,.323.542.465.465,0,0,1-.114.342.66.66,0,0,1-.456.114q-.266,0-.722-.038Q72.6-9.4,72.5-9.4a25.465,25.465,0,0,0-2.65.209Q68.058-8.987,67.393-8.854ZM65.227-3.4a2.7,2.7,0,0,1-.855.19,1.523,1.523,0,0,1-1.235-.722,2.016,2.016,0,0,1-.313-.551,1.471,1.471,0,0,1-.1-.494q0-.19.133-.19a.441.441,0,0,1,.19.085q.133.086.266.162a7.13,7.13,0,0,0,.741.294,2.854,2.854,0,0,0,.855.1q.551,0,3.23-.237t4.408-.428a4.272,4.272,0,0,0,.931-.161,3.7,3.7,0,0,0,.551-.237,1.113,1.113,0,0,1,.494-.133,3.8,3.8,0,0,1,1.017.209,5.13,5.13,0,0,1,1.206.541q.532.333.532.694,0,.456-.684.456a6.5,6.5,0,0,1-1.444-.247A8.083,8.083,0,0,0,73.416-4.2q-.912,0-3.306.133l-.893.057q-1.2.076-2.346.256A10.664,10.664,0,0,0,65.227-3.4ZM84.113-5.833a1.39,1.39,0,0,1-.779-.19,2.242,2.242,0,0,1-.618-.513,1.062,1.062,0,0,1-.276-.7,1.1,1.1,0,0,1,.086-.418q.085-.209.181-.209a.468.468,0,0,1,.171.095,1.409,1.409,0,0,0,.4.228,5.518,5.518,0,0,0,1.71.247q.817-.019,2.489-.066t2.85-.086q2.527-.1,4.2-.19.969-.057,1.52-.057a3.98,3.98,0,0,1,1.159.133.56.56,0,0,1,.418.589q0,.456-.779.532-.38.038-1.045.038l-5.51.133q-1.463.038-3.182.133a17.785,17.785,0,0,0-2.232.209A4.087,4.087,0,0,1,84.113-5.833ZM115.6-11.1a.536.536,0,0,0,.475-.266l.114-.19q.057-.076.143-.209a.892.892,0,0,1,.152-.19.215.215,0,0,1,.142-.057,1.362,1.362,0,0,1,.551.342,3.866,3.866,0,0,1,.646.646.327.327,0,0,1,.076.209.281.281,0,0,1-.171.247l-.152.076a.441.441,0,0,0-.361.437v6.384q.038,2.071.133,4.18v.1a.408.408,0,0,1-.19.38,1.592,1.592,0,0,1-.969.323h-.038a.288.288,0,0,1-.152-.133.437.437,0,0,1-.076-.247A1.039,1.039,0,0,0,115.957.7l.038-.3V.323a.4.4,0,0,0-.1-.295.4.4,0,0,0-.295-.1h-10.83q-.4,0-.4.38a2.778,2.778,0,0,1,.019.342l.019.19a.414.414,0,0,1-.152.323,1.382,1.382,0,0,1-.874.266A.381.381,0,0,1,103.1,1.3a.364.364,0,0,1-.124-.257q.076-1.121.133-2.176t.076-2.764V-7.9a29.41,29.41,0,0,0-.171-3.344v-.076q0-.285.247-.285a.423.423,0,0,1,.19.038l.893.38a1.136,1.136,0,0,0,.475.1h3.5a.407.407,0,0,0,.437-.361q.285-1.482.361-2.014v-.076q0-.342-.38-.342h-3.61a20.466,20.466,0,0,0-2.508.209H102.5a.39.39,0,0,1-.38-.247l-.1-.171a.473.473,0,0,1-.057-.209q0-.285.38-.247.646.057,1.957.1h11.343a.546.546,0,0,0,.475-.247l.247-.342q.076-.095.2-.256a2.567,2.567,0,0,1,.209-.247.24.24,0,0,1,.162-.086,2.131,2.131,0,0,1,.7.446,5.525,5.525,0,0,1,.836.769.418.418,0,0,1,.1.228.272.272,0,0,1-.114.209.575.575,0,0,1-.342.1h-7.03a.529.529,0,0,0-.475.285q-.4.836-1.083,2.033a.354.354,0,0,0-.076.228.209.209,0,0,0,.1.181.422.422,0,0,0,.247.066Zm-8.284.969a.4.4,0,0,0-.1-.295.4.4,0,0,0-.295-.1h-2.147a.4.4,0,0,0-.295.1.4.4,0,0,0-.1.295v9.1a.4.4,0,0,0,.1.295.4.4,0,0,0,.295.1h2.147a.4.4,0,0,0,.295-.1.4.4,0,0,0,.1-.295Zm1.14,2.071a.4.4,0,0,0,.1.294.4.4,0,0,0,.295.1h2.6a.4.4,0,0,0,.295-.1.4.4,0,0,0,.1-.294v-2.071a.4.4,0,0,0-.1-.295.4.4,0,0,0-.295-.1h-2.6a.4.4,0,0,0-.295.1.4.4,0,0,0-.1.295ZM115.6-.627a.4.4,0,0,0,.295-.1.4.4,0,0,0,.1-.295v-9.1a.4.4,0,0,0-.1-.295.4.4,0,0,0-.295-.1h-2.2a.4.4,0,0,0-.295.1.4.4,0,0,0-.1.295v9.1a.4.4,0,0,0,.1.295.4.4,0,0,0,.295.1ZM108.452-4.56a.4.4,0,0,0,.1.294.4.4,0,0,0,.295.1h2.6a.4.4,0,0,0,.295-.1.4.4,0,0,0,.1-.294V-6.726a.4.4,0,0,0-.1-.295.4.4,0,0,0-.295-.1h-2.6a.4.4,0,0,0-.295.1.4.4,0,0,0-.1.295Zm3.4,1.33a.4.4,0,0,0-.1-.294.4.4,0,0,0-.295-.1h-2.6a.4.4,0,0,0-.295.1.4.4,0,0,0-.1.294v2.2a.4.4,0,0,0,.1.295.4.4,0,0,0,.295.1h2.6a.4.4,0,0,0,.295-.1.4.4,0,0,0,.1-.295Zm23.959-9.082a.564.564,0,0,0,.494-.247l.133-.19a3.2,3.2,0,0,0,.219-.256q.142-.181.257-.181a1.327,1.327,0,0,1,.57.323,3.015,3.015,0,0,1,.608.589.291.291,0,0,1,.1.209.272.272,0,0,1-.114.209.567.567,0,0,1-.342.076h-3.268a.4.4,0,0,0-.294.1.4.4,0,0,0-.1.295v.684a.4.4,0,0,0,.1.295.4.4,0,0,0,.294.1h1.957a.536.536,0,0,0,.475-.266l.171-.247q.057-.1.161-.238t.171-.219a.19.19,0,0,1,.143-.076q.152,0,.608.39a4.591,4.591,0,0,1,.684.693.282.282,0,0,1,.076.209.291.291,0,0,1-.1.209.575.575,0,0,1-.342.1H128.8a.964.964,0,0,0-.266.038q-.133.038-.19.057a.405.405,0,0,1-.209.038H126.35a.4.4,0,0,0-.295.1.4.4,0,0,0-.1.295V-7.98a.465.465,0,0,0,.323.456,4.748,4.748,0,0,1,1.634,1.149,1.859,1.859,0,0,1,.513,1.15.69.69,0,0,1-.142.456.46.46,0,0,1-.371.171,1.048,1.048,0,0,1-.209-.038.73.73,0,0,1-.342-.4,6.85,6.85,0,0,0-.912-1.615q-.152-.19-.266-.19a.194.194,0,0,0-.161.1.459.459,0,0,0-.066.266V-3.5q.038,2.071.133,4.18v.1a.455.455,0,0,1-.19.4,1.4,1.4,0,0,1-.893.285.382.382,0,0,1-.276-.123.364.364,0,0,1-.123-.257q.076-1.121.133-2.175t.076-2.764V-5.51q0-.342-.19-.342-.152,0-.266.228a15.18,15.18,0,0,1-2.242,3.306q-.247.3-.4.171a.182.182,0,0,1-.057-.133.569.569,0,0,1,.114-.3,20.274,20.274,0,0,0,2.66-6.593l.019-.114a.29.29,0,0,0-.1-.238.421.421,0,0,0-.275-.085h-.323a5.259,5.259,0,0,0-1.007.152.6.6,0,0,1-.171.038.4.4,0,0,1-.361-.247l-.057-.133a.473.473,0,0,1-.057-.209q0-.266.38-.228.494.038,1.406.076h.532a.4.4,0,0,0,.295-.1.4.4,0,0,0,.1-.295v-2.451a.374.374,0,0,0-.114-.3.343.343,0,0,0-.323-.038q-1.235.323-1.976.475a.8.8,0,0,1-.19.019q-.19,0-.228-.114v-.038q0-.133.323-.247,1.14-.456,1.482-.627a11.067,11.067,0,0,0,2.85-1.824.4.4,0,0,1,.285-.133.4.4,0,0,1,.285.133q1.121.95,1.121,1.178,0,.1-.266.1h-.19a1.553,1.553,0,0,0-.494.076,10.624,10.624,0,0,1-1.1.418.444.444,0,0,0-.323.456v2.926a.548.548,0,0,0,.066.295.2.2,0,0,0,.181.1.5.5,0,0,0,.418-.247l.342-.456a.35.35,0,0,1,.3-.171.411.411,0,0,1,.266.114l.627.57a.328.328,0,0,0,.228.114,1.142,1.142,0,0,0,.19-.038.983.983,0,0,1,.247-.019h3.686a.4.4,0,0,0,.294-.1.4.4,0,0,0,.1-.295v-.684a.4.4,0,0,0-.1-.295.4.4,0,0,0-.294-.1h-.8a12.866,12.866,0,0,0-1.786.19.421.421,0,0,1-.133.019.415.415,0,0,1-.38-.247l-.076-.133a.473.473,0,0,1-.057-.209q0-.285.38-.247.646.057,1.957.095h.893a.4.4,0,0,0,.294-.1.4.4,0,0,0,.1-.295v-.513a.4.4,0,0,0-.1-.294.4.4,0,0,0-.294-.1h-.931a14.381,14.381,0,0,0-2.128.209h-.114a.39.39,0,0,1-.38-.247l-.1-.171a.473.473,0,0,1-.057-.209q0-.285.38-.247.646.057,1.957.095h1.368a.353.353,0,0,0,.4-.4q0-.266-.038-.8v-.038q0-.323.266-.323a.423.423,0,0,1,.19.038,6.9,6.9,0,0,1,.95.371q.266.143.266.256,0,.1-.152.19l-.057.038a.493.493,0,0,0-.266.418.2.2,0,0,0,.1.18.548.548,0,0,0,.294.067h1.767a.536.536,0,0,0,.475-.266l.171-.247q.076-.1.152-.209a1.827,1.827,0,0,1,.161-.209.233.233,0,0,1,.161-.095,1.529,1.529,0,0,1,.589.38,3.63,3.63,0,0,1,.665.684.418.418,0,0,1,.1.228.272.272,0,0,1-.114.209.541.541,0,0,1-.323.1h-3.8a.4.4,0,0,0-.294.1.4.4,0,0,0-.1.294v.513a.4.4,0,0,0,.1.295.4.4,0,0,0,.294.1Zm0,3.686a.546.546,0,0,0,.475-.247l.114-.152.143-.19a1.093,1.093,0,0,1,.152-.171.215.215,0,0,1,.143-.057,1.322,1.322,0,0,1,.542.332,3.526,3.526,0,0,1,.617.618.42.42,0,0,1,.1.19q0,.133-.19.266l-.133.057a.436.436,0,0,0-.342.437V-5.89q.057,2.432.114,3.61v.1a.408.408,0,0,1-.19.38,2.028,2.028,0,0,1-.437.228,1.24,1.24,0,0,1-.437.095q-.19,0-.19-.3a.244.244,0,0,0-.1-.209.494.494,0,0,0-.294-.076h-4.636a.4.4,0,0,0-.295.1.4.4,0,0,0-.1.295v.038q0,.114-.3.257a1.5,1.5,0,0,1-.646.143.288.288,0,0,1-.228-.114.4.4,0,0,1-.1-.266q.1-.893.133-2.394V-5.4a29.73,29.73,0,0,0-.171-3.344v-.076q0-.285.247-.285a.423.423,0,0,1,.19.038l.741.323a1.261,1.261,0,0,0,.494.114Zm.076,1.995a.4.4,0,0,0,.294-.1.4.4,0,0,0,.1-.295v-.627a.4.4,0,0,0-.1-.294.4.4,0,0,0-.294-.1h-4.636a.4.4,0,0,0-.295.1.4.4,0,0,0-.1.294v.627a.4.4,0,0,0,.1.295.4.4,0,0,0,.295.1Zm-5.035,1.558a.4.4,0,0,0,.1.294.4.4,0,0,0,.295.1h4.636a.4.4,0,0,0,.294-.1.4.4,0,0,0,.1-.294v-.608a.4.4,0,0,0-.1-.295.4.4,0,0,0-.294-.1h-4.636a.4.4,0,0,0-.295.1.4.4,0,0,0-.1.295Zm.4.969a.4.4,0,0,0-.295.1.4.4,0,0,0-.1.295V-3a.4.4,0,0,0,.1.295.4.4,0,0,0,.295.1h4.636a.4.4,0,0,0,.294-.1.4.4,0,0,0,.1-.295v-.7a.4.4,0,0,0-.1-.295.4.4,0,0,0-.294-.1Zm.3,2.565a.425.425,0,0,1,.285-.152.383.383,0,0,1,.266.133l.342.323a3.006,3.006,0,0,0,.4.3q.38.247.38.361,0,.095-.209.095h-.057a1.034,1.034,0,0,0-.494.133,16.933,16.933,0,0,1-2.29.988,22.767,22.767,0,0,1-2.5.722.8.8,0,0,1-.19.019.306.306,0,0,1-.247-.114.077.077,0,0,1-.019-.057q0-.133.323-.285.437-.171,1.1-.475a11.823,11.823,0,0,0,1.558-.9A9.246,9.246,0,0,0,131.556-1.539Zm3.059.589q-.285-.133-.285-.266,0-.171.209-.171l.228.038A9.917,9.917,0,0,1,137.8-.266q.94.608.94,1.159a.5.5,0,0,1-.18.4.643.643,0,0,1-.427.152.847.847,0,0,1-.589-.247A7.1,7.1,0,0,0,136.354.133,13.636,13.636,0,0,0,134.615-.95Zm18.867-6.878q-.209.152-.209.285t.209.247a15.369,15.369,0,0,1,1.453.95,3.827,3.827,0,0,1,.979,1.1,3.008,3.008,0,0,1,.4,1.577,3.6,3.6,0,0,1-.6,2.052,4.13,4.13,0,0,1-1.549,1.387,4.23,4.23,0,0,1-1.976.494,4.823,4.823,0,0,1-2.061-.456,3.942,3.942,0,0,1-1.568-1.273,3.1,3.1,0,0,1-.589-1.862,2.75,2.75,0,0,1,.646-1.891,7.475,7.475,0,0,1,1.919-1.453q.209-.114.209-.266a.3.3,0,0,0-.209-.266A4.964,4.964,0,0,1,148.96-8.54a3.284,3.284,0,0,1-.57-2,3.557,3.557,0,0,1,.4-1.625,3.211,3.211,0,0,1,1.216-1.292,3.7,3.7,0,0,1,1.976-.5,4.183,4.183,0,0,1,1.748.371,3.179,3.179,0,0,1,1.32,1.092,2.882,2.882,0,0,1,.5,1.691A3.466,3.466,0,0,1,153.482-7.828Zm-3.9-3.249a2.152,2.152,0,0,0,.333,1.2,3.633,3.633,0,0,0,.874.921,17.621,17.621,0,0,0,1.492.979.532.532,0,0,0,.266.076.431.431,0,0,0,.285-.114,3.473,3.473,0,0,0,1.292-2.755,3.2,3.2,0,0,0-.228-1.159,2.337,2.337,0,0,0-.741-1,2.07,2.07,0,0,0-1.33-.409,2.042,2.042,0,0,0-1.245.371,2.349,2.349,0,0,0-.751.893A2.335,2.335,0,0,0,149.587-11.077ZM152-.38a2.684,2.684,0,0,0,2.118-.845,3.128,3.128,0,0,0,.751-2.156,2.148,2.148,0,0,0-.826-1.691,13.527,13.527,0,0,0-2.309-1.5.383.383,0,0,0-.247-.076.569.569,0,0,0-.3.114,5.106,5.106,0,0,0-1.254,1.463,3.456,3.456,0,0,0-.475,1.729,3.451,3.451,0,0,0,.3,1.434,2.778,2.778,0,0,0,.874,1.1A2.215,2.215,0,0,0,152-.38ZM160.759.3a.986.986,0,0,1-.722-.3.986.986,0,0,1-.3-.722.977.977,0,0,1,.3-.732,1,1,0,0,1,.722-.294,1.008,1.008,0,0,1,.741.3.986.986,0,0,1,.3.722.986.986,0,0,1-.3.722A1.008,1.008,0,0,1,160.759.3Zm12.369-4.218a.4.4,0,0,1,.294.1.4.4,0,0,1,.1.294.4.4,0,0,1-.1.295.4.4,0,0,1-.294.1h-1.349a.4.4,0,0,0-.295.1.4.4,0,0,0-.1.295v1.482a.53.53,0,0,0,.361.551,2.805,2.805,0,0,0,.95.133h.247q.171,0,.171.266,0,.285-.171.285h-4.56q-.152,0-.152-.285,0-.266.152-.266h.247a2.8,2.8,0,0,0,.95-.133.53.53,0,0,0,.361-.551V-2.717a.4.4,0,0,0-.1-.295.4.4,0,0,0-.294-.1h-4.313a.4.4,0,0,1-.294-.1.4.4,0,0,1-.1-.295v-.133a.9.9,0,0,1,.133-.494l5.491-9.519a.443.443,0,0,1,.513-.228l.076.019a.4.4,0,0,1,.342.437v9.12a.4.4,0,0,0,.1.294.4.4,0,0,0,.295.1Zm-3.192-6.327a.466.466,0,0,0-.057-.257.175.175,0,0,0-.152-.085q-.152,0-.266.209L166-4.389a.473.473,0,0,0-.057.209q0,.266.342.266h3.249a.4.4,0,0,0,.294-.1.4.4,0,0,0,.1-.294ZM180.69-8.607a3.221,3.221,0,0,1,1.9.561,3.593,3.593,0,0,1,1.216,1.473,4.64,4.64,0,0,1,.418,1.957,5.867,5.867,0,0,1-.5,2.432A4.346,4.346,0,0,1,182.3-.4a3.527,3.527,0,0,1-2.118.665,3.675,3.675,0,0,1-2.223-.722,4.706,4.706,0,0,1-1.539-2.024,7.62,7.62,0,0,1-.551-2.992,12.678,12.678,0,0,1,.76-4.646,7.032,7.032,0,0,1,1.91-2.888,3.55,3.55,0,0,1,2.251-.96,4.032,4.032,0,0,1,1.51.257,2.23,2.23,0,0,1,.96.675,1.41,1.41,0,0,1,.323.874.917.917,0,0,1-.275.674.9.9,0,0,1-.656.276.908.908,0,0,1-.7-.352,1.521,1.521,0,0,1-.342-.921,1.083,1.083,0,0,0-.228-.646.813.813,0,0,0-.627-.209q-1.254,0-2.014,1.6a13.008,13.008,0,0,0-1.064,3.857.288.288,0,0,0,.057.237.289.289,0,0,0,.228.085.823.823,0,0,0,.494-.209A3.424,3.424,0,0,1,180.69-8.607Zm-.513,8.151a1.757,1.757,0,0,0,1.245-.513,3.407,3.407,0,0,0,.846-1.406,6.165,6.165,0,0,0,.3-1.995,3.511,3.511,0,0,0-.77-2.679,2.5,2.5,0,0,0-1.663-.665,2.569,2.569,0,0,0-1.463.494,2.96,2.96,0,0,0-1.083,1.558,1.672,1.672,0,0,0-.076.494,9.263,9.263,0,0,0,.6,3.363A2.052,2.052,0,0,0,180.177-.456Zm9.69.456a15.139,15.139,0,0,1-.133-2.147V-5.871a4.236,4.236,0,0,1,.627-1.9,2.974,2.974,0,0,1,2.489-1.444c1.368,0,2.128.912,2.128,2.584v4.484A13.612,13.612,0,0,1,194.845,0h1.71a13.194,13.194,0,0,1-.133-2.128V-5.871a4.088,4.088,0,0,1,.627-1.957,2.846,2.846,0,0,1,2.394-1.387c1.52,0,2.185.779,2.185,2.584v4.484A11.536,11.536,0,0,1,201.495,0h1.71a13.353,13.353,0,0,1-.133-2.128V-6.821a3.867,3.867,0,0,0-.646-2.47,3.283,3.283,0,0,0-2.774-1.159,3.732,3.732,0,0,0-3.515,2.071,2.5,2.5,0,0,0-.589-1.1,3.069,3.069,0,0,0-2.451-.969,3.692,3.692,0,0,0-2.679.988,3.91,3.91,0,0,0-.722.95c.019-.361.038-.589.038-.684v-1.045h-1.539a13.77,13.77,0,0,1,.133,2.147v5.947A14.265,14.265,0,0,1,188.195,0ZM201.4-14.63c.152-.551.38-.76.8-.76.4,0,.684.228.684.551,0,.361-.114.494-1.064,1.178a2.44,2.44,0,0,0-1.311,1.9,2.143,2.143,0,0,1-.038.266,6.756,6.756,0,0,1,.7-.019h1.957a5.765,5.765,0,0,1,.76.038v-.893a4.2,4.2,0,0,1-.741.057h-1.52c.152-.323.266-.437.855-.855a5.818,5.818,0,0,0,.779-.57,1.222,1.222,0,0,0,.532-1.045c0-.836-.627-1.368-1.6-1.368a1.609,1.609,0,0,0-1.729,1.349Z" transform="translate(707.097 2746.818)" fill="#333"/><path d="M13.433-11.742a.546.546,0,0,0,.475-.247l.114-.171.123-.181a.97.97,0,0,1,.152-.181.215.215,0,0,1,.142-.057,1.322,1.322,0,0,1,.542.332,3.758,3.758,0,0,1,.636.637.42.42,0,0,1,.1.19q0,.133-.19.266l-.114.057a.436.436,0,0,0-.342.437V-9.31q.057,1.938.1,2.964v.095a.423.423,0,0,1-.171.38,1.966,1.966,0,0,1-.446.228,1.354,1.354,0,0,1-.466.095q-.19,0-.19-.361a.341.341,0,0,0-.1-.266.422.422,0,0,0-.295-.1H5.6a.4.4,0,0,0-.294.1.4.4,0,0,0-.1.294V-5.7q0,.114-.313.257a1.524,1.524,0,0,1-.636.142.262.262,0,0,1-.219-.114.431.431,0,0,1-.085-.266q.076-.76.114-1.976V-8.835a29.422,29.422,0,0,0-.152-3.04v-.076q0-.285.247-.285a.423.423,0,0,1,.19.038l.741.342a1.17,1.17,0,0,0,.494.114h2.85a.4.4,0,0,0,.295-.1.4.4,0,0,0,.1-.295v-.836a.4.4,0,0,0-.1-.294.4.4,0,0,0-.295-.1H5.016a19.684,19.684,0,0,0-2.508.209H2.413a.428.428,0,0,1-.4-.247l-.076-.152a1.058,1.058,0,0,1-.076-.228.209.209,0,0,1,.1-.18.382.382,0,0,1,.266-.047q.646.057,1.957.095H8.436a.353.353,0,0,0,.4-.4l-.057-1.121v-.076q0-.3.266-.3a1.142,1.142,0,0,1,.19.038,8.425,8.425,0,0,1,1,.389q.275.143.275.276,0,.1-.152.19L10.3-14.9a.536.536,0,0,0-.266.475v.1a.4.4,0,0,0,.1.295.4.4,0,0,0,.295.1h4.18a.546.546,0,0,0,.475-.247l.228-.323q.057-.076.171-.238a1.945,1.945,0,0,1,.2-.247.24.24,0,0,1,.161-.085,1.807,1.807,0,0,1,.646.427,5.006,5.006,0,0,1,.76.75.418.418,0,0,1,.1.228.272.272,0,0,1-.114.209.728.728,0,0,1-.361.076H10.431a.4.4,0,0,0-.295.1.4.4,0,0,0-.1.294v.836a.4.4,0,0,0,.1.295.4.4,0,0,0,.295.1Zm-5,2.451a.4.4,0,0,0,.295-.1.4.4,0,0,0,.1-.294v-1.1a.4.4,0,0,0-.1-.294.4.4,0,0,0-.295-.1H5.6a.4.4,0,0,0-.294.1.4.4,0,0,0-.1.294v1.1a.4.4,0,0,0,.1.294.4.4,0,0,0,.294.1Zm5.054,0a.4.4,0,0,0,.295-.1.4.4,0,0,0,.1-.294v-1.1a.4.4,0,0,0-.1-.294.4.4,0,0,0-.295-.1H10.431a.4.4,0,0,0-.295.1.4.4,0,0,0-.1.294v1.1a.4.4,0,0,0,.1.294.4.4,0,0,0,.295.1Zm-4.655.95a.4.4,0,0,0-.1-.294.4.4,0,0,0-.295-.1H5.6a.4.4,0,0,0-.294.1.4.4,0,0,0-.1.294V-7.22a.4.4,0,0,0,.1.294.4.4,0,0,0,.294.1H8.436a.4.4,0,0,0,.295-.1.4.4,0,0,0,.1-.294Zm1.6-.4a.4.4,0,0,0-.295.1.4.4,0,0,0-.1.294V-7.22a.4.4,0,0,0,.1.294.4.4,0,0,0,.295.1H13.49a.4.4,0,0,0,.295-.1.4.4,0,0,0,.1-.294V-8.341a.4.4,0,0,0-.1-.294.4.4,0,0,0-.295-.1ZM14.9-4.313a.546.546,0,0,0,.475-.247l.228-.323q.095-.114.19-.247a2.6,2.6,0,0,1,.19-.237.256.256,0,0,1,.171-.1q.152,0,.665.437a5.3,5.3,0,0,1,.76.76.418.418,0,0,1,.095.228.232.232,0,0,1-.133.209.526.526,0,0,1-.323.076H13.452a.4.4,0,0,0-.294.1.4.4,0,0,0-.1.294V-.38a2.888,2.888,0,0,1-.114.893,1.088,1.088,0,0,1-.466.57,2.842,2.842,0,0,1-1.073.342h-.076a.411.411,0,0,1-.4-.323.937.937,0,0,0-.38-.513A4.091,4.091,0,0,0,9.139.152q-.38-.057-.38-.209,0-.133.418-.133.589.057,1.216.095t1.026.038a.556.556,0,0,0,.361-.085.412.412,0,0,0,.1-.314V-3.363a.4.4,0,0,0-.1-.294.4.4,0,0,0-.294-.1H4.6a20.466,20.466,0,0,0-2.508.209H1.976A.39.39,0,0,1,1.6-3.8L1.52-3.952a.506.506,0,0,1-.057-.228.209.209,0,0,1,.1-.181.382.382,0,0,1,.266-.048q.646.057,1.957.1h7.695a.353.353,0,0,0,.4-.4q0-.228-.038-.684v-.038q0-.323.266-.323a.423.423,0,0,1,.19.038,6.9,6.9,0,0,1,.95.37q.266.143.266.257,0,.076-.152.171l-.019.019q-.285.171-.285.361a.191.191,0,0,0,.1.161.548.548,0,0,0,.294.067ZM5.111-2.736Q4.769-3,4.845-3.078A.205.205,0,0,1,5-3.135l.247.038A5.247,5.247,0,0,1,7.609-2a1.981,1.981,0,0,1,.77,1.4.813.813,0,0,1-.171.532.54.54,0,0,1-.437.209.8.8,0,0,1-.19-.019.514.514,0,0,1-.342-.342,4.987,4.987,0,0,0-.855-1.33A7.4,7.4,0,0,0,5.111-2.736ZM33.364-9.671a.536.536,0,0,0,.475-.266l.133-.19a2.358,2.358,0,0,1,.152-.219q.095-.124.152-.19a.171.171,0,0,1,.133-.067,1.73,1.73,0,0,1,.627.389,5.013,5.013,0,0,1,.76.713.327.327,0,0,1,.076.209.312.312,0,0,1-.171.247,2.109,2.109,0,0,1-.285.133.467.467,0,0,0-.342.456V-.342a2.854,2.854,0,0,1-.1.855,1.08,1.08,0,0,1-.427.551,2.471,2.471,0,0,1-.988.342l-.114.019q-.266,0-.361-.342a1.026,1.026,0,0,0-.342-.532,3.253,3.253,0,0,0-1.2-.437q-.38-.057-.38-.209,0-.114.3-.114.361,0,1.235.076l.76.038a.443.443,0,0,0,.333-.095.482.482,0,0,0,.085-.323V-2.755a.4.4,0,0,0-.1-.295.4.4,0,0,0-.294-.1H27.17a.4.4,0,0,0-.295.1.4.4,0,0,0-.1.295v1.007q.057,1.615.095,2.413V.76a.516.516,0,0,1-.152.38,1.409,1.409,0,0,1-.912.323.382.382,0,0,1-.276-.123.364.364,0,0,1-.123-.257q.076-1.121.133-2.175t.076-2.764V-7.79q0-.342-.209-.342a.425.425,0,0,0-.285.152,16.627,16.627,0,0,1-3.325,2.755q-.323.209-.418.076a.077.077,0,0,1-.019-.057q0-.114.247-.3a19.064,19.064,0,0,0,5.073-6.422.473.473,0,0,0,.057-.209q0-.266-.361-.266H24.624a19.684,19.684,0,0,0-2.508.209h-.095a.428.428,0,0,1-.4-.247l-.076-.152a1.058,1.058,0,0,1-.076-.228.209.209,0,0,1,.095-.181.382.382,0,0,1,.266-.047q.646.057,1.957.1h3.04a.464.464,0,0,0,.456-.3,10,10,0,0,0,.722-2.451q.057-.323.323-.323a1.143,1.143,0,0,1,.19.038q1.444.532,1.444.722,0,.076-.19.133l-.057.019a.581.581,0,0,0-.418.361,14.152,14.152,0,0,1-.551,1.33.473.473,0,0,0-.057.209q0,.266.342.266h6.1a.546.546,0,0,0,.475-.247l.228-.323q.1-.114.19-.247a2.6,2.6,0,0,1,.19-.237.256.256,0,0,1,.171-.1,1.8,1.8,0,0,1,.684.437,5.678,5.678,0,0,1,.779.741.418.418,0,0,1,.1.228.272.272,0,0,1-.114.209.541.541,0,0,1-.323.1h-8.93a.529.529,0,0,0-.475.285,20.726,20.726,0,0,1-1.178,1.938.7.7,0,0,0-.152.285q-.019.114.057.152a1,1,0,0,0,.437.076Zm.114,2.964a.4.4,0,0,0,.294-.1.4.4,0,0,0,.1-.295V-8.7a.4.4,0,0,0-.1-.295.4.4,0,0,0-.294-.1H27.17a.4.4,0,0,0-.295.1.4.4,0,0,0-.1.295v1.6a.4.4,0,0,0,.1.295.4.4,0,0,0,.295.1Zm-6.308.57a.4.4,0,0,0-.295.1.4.4,0,0,0-.1.294v1.615a.4.4,0,0,0,.1.294.4.4,0,0,0,.295.1h6.308a.4.4,0,0,0,.294-.1.4.4,0,0,0,.1-.294V-5.738a.4.4,0,0,0-.1-.294.4.4,0,0,0-.294-.1ZM55.176-11.1a.536.536,0,0,0,.475-.266l.114-.19q.057-.076.142-.209a.892.892,0,0,1,.152-.19.215.215,0,0,1,.143-.057,1.362,1.362,0,0,1,.551.342,3.866,3.866,0,0,1,.646.646.327.327,0,0,1,.076.209.281.281,0,0,1-.171.247l-.152.076a.441.441,0,0,0-.361.437v6.384q.038,2.071.133,4.18v.1a.408.408,0,0,1-.19.38,1.592,1.592,0,0,1-.969.323h-.038a.288.288,0,0,1-.152-.133A.437.437,0,0,1,55.5.931,1.039,1.039,0,0,0,55.537.7l.038-.3V.323a.4.4,0,0,0-.1-.295.4.4,0,0,0-.294-.1H44.346q-.4,0-.4.38a2.777,2.777,0,0,1,.019.342l.019.19a.414.414,0,0,1-.152.323,1.382,1.382,0,0,1-.874.266.381.381,0,0,1-.276-.124.364.364,0,0,1-.124-.257q.076-1.121.133-2.176t.076-2.764V-7.9a29.41,29.41,0,0,0-.171-3.344v-.076q0-.285.247-.285a.423.423,0,0,1,.19.038l.893.38a1.136,1.136,0,0,0,.475.1h3.5a.407.407,0,0,0,.437-.361q.285-1.482.361-2.014v-.076q0-.342-.38-.342h-3.61a20.466,20.466,0,0,0-2.508.209h-.114a.39.39,0,0,1-.38-.247L41.61-14.1a.473.473,0,0,1-.057-.209q0-.285.38-.247.646.057,1.957.1H55.233a.546.546,0,0,0,.475-.247l.247-.342q.076-.095.2-.256a2.566,2.566,0,0,1,.209-.247.24.24,0,0,1,.162-.086,2.131,2.131,0,0,1,.7.446,5.525,5.525,0,0,1,.836.769.418.418,0,0,1,.095.228.272.272,0,0,1-.114.209.575.575,0,0,1-.342.1h-7.03a.529.529,0,0,0-.475.285q-.4.836-1.083,2.033a.354.354,0,0,0-.076.228.209.209,0,0,0,.1.181.422.422,0,0,0,.247.066Zm-8.284.969a.4.4,0,0,0-.1-.295.4.4,0,0,0-.294-.1H44.346a.4.4,0,0,0-.295.1.4.4,0,0,0-.1.295v9.1a.4.4,0,0,0,.1.295.4.4,0,0,0,.295.1h2.147a.4.4,0,0,0,.294-.1.4.4,0,0,0,.1-.295Zm1.14,2.071a.4.4,0,0,0,.1.294.4.4,0,0,0,.295.1h2.6a.4.4,0,0,0,.295-.1.4.4,0,0,0,.1-.294v-2.071a.4.4,0,0,0-.1-.295.4.4,0,0,0-.295-.1h-2.6a.4.4,0,0,0-.295.1.4.4,0,0,0-.1.295ZM55.176-.627a.4.4,0,0,0,.294-.1.4.4,0,0,0,.1-.295v-9.1a.4.4,0,0,0-.1-.295.4.4,0,0,0-.294-.1h-2.2a.4.4,0,0,0-.295.1.4.4,0,0,0-.1.295v9.1a.4.4,0,0,0,.1.295.4.4,0,0,0,.295.1ZM48.032-4.56a.4.4,0,0,0,.1.294.4.4,0,0,0,.295.1h2.6a.4.4,0,0,0,.295-.1.4.4,0,0,0,.1-.294V-6.726a.4.4,0,0,0-.1-.295.4.4,0,0,0-.295-.1h-2.6a.4.4,0,0,0-.295.1.4.4,0,0,0-.1.295Zm3.4,1.33a.4.4,0,0,0-.1-.294.4.4,0,0,0-.295-.1h-2.6a.4.4,0,0,0-.295.1.4.4,0,0,0-.1.294v2.2a.4.4,0,0,0,.1.295.4.4,0,0,0,.295.1h2.6a.4.4,0,0,0,.295-.1.4.4,0,0,0,.1-.295Zm23.959-9.082a.564.564,0,0,0,.494-.247l.133-.19a3.2,3.2,0,0,0,.218-.256q.143-.181.257-.181a1.327,1.327,0,0,1,.57.323,3.015,3.015,0,0,1,.608.589.291.291,0,0,1,.1.209.272.272,0,0,1-.114.209.567.567,0,0,1-.342.076H74.043a.4.4,0,0,0-.295.1.4.4,0,0,0-.1.295v.684a.4.4,0,0,0,.1.295.4.4,0,0,0,.295.1H76a.536.536,0,0,0,.475-.266l.171-.247q.057-.1.161-.238t.171-.219a.19.19,0,0,1,.143-.076q.152,0,.608.39a4.591,4.591,0,0,1,.684.693.282.282,0,0,1,.076.209.291.291,0,0,1-.1.209.575.575,0,0,1-.342.1H68.381a.964.964,0,0,0-.266.038q-.133.038-.19.057a.4.4,0,0,1-.209.038H65.93a.4.4,0,0,0-.295.1.4.4,0,0,0-.1.295V-7.98a.465.465,0,0,0,.323.456,4.748,4.748,0,0,1,1.634,1.149A1.859,1.859,0,0,1,68-5.225a.689.689,0,0,1-.143.456.46.46,0,0,1-.37.171,1.048,1.048,0,0,1-.209-.038.73.73,0,0,1-.342-.4,6.85,6.85,0,0,0-.912-1.615q-.152-.19-.266-.19a.194.194,0,0,0-.161.1.459.459,0,0,0-.066.266V-3.5q.038,2.071.133,4.18v.1a.455.455,0,0,1-.19.4,1.4,1.4,0,0,1-.893.285.382.382,0,0,1-.276-.123.364.364,0,0,1-.123-.257q.076-1.121.133-2.175t.076-2.764V-5.51q0-.342-.19-.342-.152,0-.266.228a15.18,15.18,0,0,1-2.242,3.306q-.247.3-.4.171a.182.182,0,0,1-.057-.133.569.569,0,0,1,.114-.3,20.274,20.274,0,0,0,2.66-6.593l.019-.114a.29.29,0,0,0-.1-.238.421.421,0,0,0-.276-.085h-.323a5.259,5.259,0,0,0-1.007.152.6.6,0,0,1-.171.038.4.4,0,0,1-.361-.247L61.731-9.8a.473.473,0,0,1-.057-.209q0-.266.38-.228.494.038,1.406.076h.532a.4.4,0,0,0,.295-.1.4.4,0,0,0,.1-.295v-2.451a.374.374,0,0,0-.114-.3.343.343,0,0,0-.323-.038q-1.235.323-1.976.475a.8.8,0,0,1-.19.019q-.19,0-.228-.114v-.038q0-.133.323-.247,1.14-.456,1.482-.627a11.067,11.067,0,0,0,2.85-1.824.4.4,0,0,1,.285-.133.4.4,0,0,1,.285.133q1.121.95,1.121,1.178,0,.1-.266.1h-.19a1.553,1.553,0,0,0-.494.076,10.624,10.624,0,0,1-1.1.418.444.444,0,0,0-.323.456v2.926a.548.548,0,0,0,.066.295.2.2,0,0,0,.181.1.5.5,0,0,0,.418-.247l.342-.456a.35.35,0,0,1,.3-.171.411.411,0,0,1,.266.114l.627.57a.328.328,0,0,0,.228.114,1.142,1.142,0,0,0,.19-.038A.983.983,0,0,1,68.4-10.3h3.686a.4.4,0,0,0,.295-.1.4.4,0,0,0,.1-.295v-.684a.4.4,0,0,0-.1-.295.4.4,0,0,0-.295-.1h-.8a12.866,12.866,0,0,0-1.786.19.421.421,0,0,1-.133.019.415.415,0,0,1-.38-.247l-.076-.133a.473.473,0,0,1-.057-.209q0-.285.38-.247.646.057,1.957.095h.893a.4.4,0,0,0,.295-.1.4.4,0,0,0,.1-.295v-.513a.4.4,0,0,0-.1-.294.4.4,0,0,0-.295-.1h-.931a14.381,14.381,0,0,0-2.128.209h-.114a.39.39,0,0,1-.38-.247l-.1-.171a.473.473,0,0,1-.057-.209q0-.285.38-.247.646.057,1.957.095h1.368a.353.353,0,0,0,.4-.4q0-.266-.038-.8v-.038q0-.323.266-.323a.423.423,0,0,1,.19.038,6.9,6.9,0,0,1,.95.371q.266.143.266.256,0,.1-.152.19l-.057.038a.493.493,0,0,0-.266.418.2.2,0,0,0,.1.18.548.548,0,0,0,.295.067H75.81a.536.536,0,0,0,.475-.266l.171-.247q.076-.1.152-.209a1.825,1.825,0,0,1,.161-.209.233.233,0,0,1,.161-.095,1.529,1.529,0,0,1,.589.38,3.63,3.63,0,0,1,.665.684.418.418,0,0,1,.1.228.272.272,0,0,1-.114.209.541.541,0,0,1-.323.1h-3.8a.4.4,0,0,0-.295.1.4.4,0,0,0-.1.294v.513a.4.4,0,0,0,.1.295.4.4,0,0,0,.295.1Zm0,3.686a.546.546,0,0,0,.475-.247l.114-.152.143-.19a1.093,1.093,0,0,1,.152-.171.215.215,0,0,1,.143-.057,1.322,1.322,0,0,1,.542.332,3.526,3.526,0,0,1,.617.618.42.42,0,0,1,.1.19q0,.133-.19.266l-.133.057a.436.436,0,0,0-.342.437V-5.89q.057,2.432.114,3.61v.1a.408.408,0,0,1-.19.38,2.028,2.028,0,0,1-.437.228,1.24,1.24,0,0,1-.437.095q-.19,0-.19-.3a.244.244,0,0,0-.1-.209.494.494,0,0,0-.294-.076H70.832a.4.4,0,0,0-.295.1.4.4,0,0,0-.1.295v.038q0,.114-.3.257a1.5,1.5,0,0,1-.646.143.288.288,0,0,1-.228-.114.4.4,0,0,1-.1-.266q.095-.893.133-2.394V-5.4a29.728,29.728,0,0,0-.171-3.344v-.076q0-.285.247-.285a.423.423,0,0,1,.19.038l.741.323a1.262,1.262,0,0,0,.494.114Zm.076,1.995a.4.4,0,0,0,.294-.1.4.4,0,0,0,.1-.295v-.627a.4.4,0,0,0-.1-.294.4.4,0,0,0-.294-.1H70.832a.4.4,0,0,0-.295.1.4.4,0,0,0-.1.294v.627a.4.4,0,0,0,.1.295.4.4,0,0,0,.295.1ZM70.433-5.073a.4.4,0,0,0,.1.294.4.4,0,0,0,.295.1h4.636a.4.4,0,0,0,.294-.1.4.4,0,0,0,.1-.294v-.608a.4.4,0,0,0-.1-.295.4.4,0,0,0-.294-.1H70.832a.4.4,0,0,0-.295.1.4.4,0,0,0-.1.295Zm.4.969a.4.4,0,0,0-.295.1.4.4,0,0,0-.1.295V-3a.4.4,0,0,0,.1.295.4.4,0,0,0,.295.1h4.636a.4.4,0,0,0,.294-.1.4.4,0,0,0,.1-.295v-.7a.4.4,0,0,0-.1-.295.4.4,0,0,0-.294-.1Zm.3,2.565a.425.425,0,0,1,.285-.152.383.383,0,0,1,.266.133l.342.323a3.005,3.005,0,0,0,.4.3q.38.247.38.361,0,.095-.209.095h-.057a1.034,1.034,0,0,0-.494.133,16.933,16.933,0,0,1-2.289.988,22.766,22.766,0,0,1-2.5.722.8.8,0,0,1-.19.019.306.306,0,0,1-.247-.114.077.077,0,0,1-.019-.057q0-.133.323-.285.437-.171,1.1-.475a11.823,11.823,0,0,0,1.558-.9A9.247,9.247,0,0,0,71.136-1.539Zm3.059.589q-.285-.133-.285-.266,0-.171.209-.171l.228.038A9.917,9.917,0,0,1,77.378-.266q.94.608.94,1.159a.5.5,0,0,1-.18.4.643.643,0,0,1-.427.152.847.847,0,0,1-.589-.247A7.1,7.1,0,0,0,75.934.133,13.636,13.636,0,0,0,74.195-.95ZM113.22-15.6q-.48.12-.48.24t.48.24a9.518,9.518,0,0,1,4.68,2.64,6.43,6.43,0,0,1,1.76,4.56,9.588,9.588,0,0,1-.82,3.74,7.641,7.641,0,0,1-2.9,3.34,9.812,9.812,0,0,1-5.56,1.4,8.87,8.87,0,0,1-4.46-1,6.113,6.113,0,0,1-2.48-2.42,5.923,5.923,0,0,1-.74-2.74,2.587,2.587,0,0,1,.62-1.9,1.954,1.954,0,0,1,1.42-.62,2.5,2.5,0,0,1,1.52.5,1.658,1.658,0,0,1,.68,1.42,2.437,2.437,0,0,1-.44,1.16,4.187,4.187,0,0,0-.34.56,1.412,1.412,0,0,0-.14.64,3.07,3.07,0,0,0,.88,2.12,4.118,4.118,0,0,0,3.12.96,5.457,5.457,0,0,0,3.16-.96,6.517,6.517,0,0,0,2.2-2.64,8.828,8.828,0,0,0,.8-3.84,6.84,6.84,0,0,0-1.6-4.72,5.633,5.633,0,0,0-4.44-1.8,6.519,6.519,0,0,0-.84.08,6.941,6.941,0,0,1-.96.08,1.217,1.217,0,0,1-.74-.22.724.724,0,0,1-.3-.62.739.739,0,0,1,.3-.6,1.147,1.147,0,0,1,.74-.24,4.281,4.281,0,0,1,1.04.12,8.594,8.594,0,0,0,1,.08,5.483,5.483,0,0,0,3.24-1.12q1.56-1.12,1.56-4.8,0-3.32-1.42-4.7a4.59,4.59,0,0,0-3.3-1.38,5.073,5.073,0,0,0-2.26.54,2.039,2.039,0,0,0-1.1,2.02,3.356,3.356,0,0,0,.32,1.36,2.028,2.028,0,0,1,.28,1.04,1.718,1.718,0,0,1-.46,1.24,1.515,1.515,0,0,1-1.14.48,2.01,2.01,0,0,1-1.78-.78,2.987,2.987,0,0,1-.54-1.74,4.29,4.29,0,0,1,.9-2.38,7.442,7.442,0,0,1,2.54-2.22,7.553,7.553,0,0,1,3.76-.92,8.135,8.135,0,0,1,4.06.98,6.837,6.837,0,0,1,2.66,2.6,6.97,6.97,0,0,1,.92,3.5,6.8,6.8,0,0,1-1.36,4.18A7.153,7.153,0,0,1,113.22-15.6Zm22.84-2.52a6.781,6.781,0,0,1,4,1.18,7.563,7.563,0,0,1,2.56,3.1,9.77,9.77,0,0,1,.88,4.12,12.351,12.351,0,0,1-1.06,5.12,9.149,9.149,0,0,1-3,3.76,7.426,7.426,0,0,1-4.46,1.4A7.738,7.738,0,0,1,130.3-.96a9.908,9.908,0,0,1-3.24-4.26,16.041,16.041,0,0,1-1.16-6.3,26.69,26.69,0,0,1,1.6-9.78,14.8,14.8,0,0,1,4.02-6.08,7.474,7.474,0,0,1,4.74-2.02,8.488,8.488,0,0,1,3.18.54,4.7,4.7,0,0,1,2.02,1.42,2.969,2.969,0,0,1,.68,1.84,1.931,1.931,0,0,1-.58,1.42,1.885,1.885,0,0,1-1.38.58,1.913,1.913,0,0,1-1.48-.74,3.2,3.2,0,0,1-.72-1.94,2.28,2.28,0,0,0-.48-1.36,1.712,1.712,0,0,0-1.32-.44q-2.64,0-4.24,3.36a27.385,27.385,0,0,0-2.24,8.12.606.606,0,0,0,.12.5.609.609,0,0,0,.48.18,1.732,1.732,0,0,0,1.04-.44A7.209,7.209,0,0,1,136.06-18.12ZM134.98-.96a3.7,3.7,0,0,0,2.62-1.08A7.174,7.174,0,0,0,139.38-5a12.979,12.979,0,0,0,.64-4.2q0-4.24-1.62-5.64a5.256,5.256,0,0,0-3.5-1.4,5.408,5.408,0,0,0-3.08,1.04,6.231,6.231,0,0,0-2.28,3.28,3.52,3.52,0,0,0-.16,1.04,19.5,19.5,0,0,0,1.26,7.08A4.319,4.319,0,0,0,134.98-.96ZM150.924.416A1.35,1.35,0,0,1,149.936,0a1.35,1.35,0,0,1-.416-.988,1.337,1.337,0,0,1,.416-1,1.372,1.372,0,0,1,.988-.4,1.38,1.38,0,0,1,1.014.416,1.35,1.35,0,0,1,.416.988,1.35,1.35,0,0,1-.416.988A1.38,1.38,0,0,1,150.924.416Zm13.539-13.553a4.916,4.916,0,0,1,2.9.856,5.484,5.484,0,0,1,1.856,2.248,7.083,7.083,0,0,1,.638,2.987,8.955,8.955,0,0,1-.768,3.712,6.633,6.633,0,0,1-2.175,2.726A5.384,5.384,0,0,1,163.68.406a5.61,5.61,0,0,1-3.393-1.1,7.183,7.183,0,0,1-2.349-3.089,11.63,11.63,0,0,1-.841-4.567,19.35,19.35,0,0,1,1.16-7.091,10.733,10.733,0,0,1,2.915-4.408,5.419,5.419,0,0,1,3.436-1.465,6.154,6.154,0,0,1,2.306.392,3.4,3.4,0,0,1,1.464,1.03,2.153,2.153,0,0,1,.493,1.334,1.4,1.4,0,0,1-.42,1.029,1.366,1.366,0,0,1-1,.421,1.387,1.387,0,0,1-1.073-.537,2.321,2.321,0,0,1-.522-1.406,1.653,1.653,0,0,0-.348-.986,1.241,1.241,0,0,0-.957-.319q-1.914,0-3.074,2.436a19.855,19.855,0,0,0-1.624,5.887.44.44,0,0,0,.087.363.442.442,0,0,0,.348.13,1.256,1.256,0,0,0,.754-.319A5.227,5.227,0,0,1,164.463-13.137ZM163.68-.7a2.682,2.682,0,0,0,1.9-.783,5.2,5.2,0,0,0,1.29-2.146,9.409,9.409,0,0,0,.464-3.045q0-3.074-1.174-4.089a3.811,3.811,0,0,0-2.538-1.015,3.921,3.921,0,0,0-2.233.754,4.518,4.518,0,0,0-1.653,2.378,2.552,2.552,0,0,0-.116.754,14.139,14.139,0,0,0,.913,5.133A3.131,3.131,0,0,0,163.68-.7Zm11.832.7q-.2,0-.2-.406,0-.435.2-.435h.464a5.146,5.146,0,0,0,2.291-.435,1.434,1.434,0,0,0,.87-1.363V-16.53a2.877,2.877,0,0,0-.16-1.174.977.977,0,0,0-.754-.406,15.75,15.75,0,0,0-2.219-.1h-.493q-.2,0-.2-.435,0-.406.2-.406a9.52,9.52,0,0,0,2.827-.392,7.613,7.613,0,0,0,2.393-1.261.7.7,0,0,1,.377-.174q.348,0,.348.522V-2.639q0,1.8,3.161,1.8h.435a.159.159,0,0,1,.16.1.918.918,0,0,1,.044.333q0,.406-.2.406Zm30.98-.513q.152,0,.152.266,0,.247-.152.247h-4.256q-.133,0-.133-.247a.532.532,0,0,1,.029-.2.1.1,0,0,1,.1-.067h.247a2.15,2.15,0,0,0,.883-.152.635.635,0,0,0,.333-.646V-3.895q0-1.349-.038-2.147Q203.585-8.36,201.7-8.36a2.9,2.9,0,0,0-1.425.38,3.466,3.466,0,0,0-1.2,1.159.6.6,0,0,0-.133.323V-6.4q.019.3.019,1.178,0,1.577-.076,3.914a.634.634,0,0,0,.342.636,2.1,2.1,0,0,0,.893.162h.247q.133,0,.133.266,0,.247-.133.247h-4.256q-.152,0-.152-.247,0-.266.152-.266h.247a2.15,2.15,0,0,0,.883-.152.635.635,0,0,0,.332-.646V-3.8q0-1.444-.038-2.242-.076-2.318-1.957-2.318a2.9,2.9,0,0,0-1.415.37,3.458,3.458,0,0,0-1.187,1.13,1.034,1.034,0,0,0-.133.494l-.019,5.054a.634.634,0,0,0,.342.636,2.1,2.1,0,0,0,.893.162h.247q.152,0,.152.266,0,.247-.152.247h-4.256q-.133,0-.133-.247a.532.532,0,0,1,.029-.2.1.1,0,0,1,.1-.067h.247a2.1,2.1,0,0,0,.893-.162.634.634,0,0,0,.342-.636l-.076-5.8a.83.83,0,0,0-.18-.589.842.842,0,0,0-.437-.247q-.257-.057-.808-.133-.171-.019-.171-.3a.163.163,0,0,1,.1-.171q.38-.114,1.083-.294t1.368-.333a.421.421,0,0,1,.133-.019q.3,0,.3.361V-8.3q0,.323.19.323a.467.467,0,0,0,.285-.171,3.382,3.382,0,0,1,2.527-1.14,3.227,3.227,0,0,1,1.71.418,2.781,2.781,0,0,1,1.045,1.121q.076.209.209.209a.358.358,0,0,0,.247-.152,3.574,3.574,0,0,1,2.907-1.6,2.94,2.94,0,0,1,2.261.836,3.124,3.124,0,0,1,.836,2.052q.019.3.019,1.178,0,1.577-.076,3.914a.634.634,0,0,0,.342.636,2.1,2.1,0,0,0,.893.162ZM213.637-6.2a.234.234,0,0,1-.255.2h-3.635q-.2,0-.244-.122a.3.3,0,0,1-.033-.133A.368.368,0,0,1,209.5-6.4a7.743,7.743,0,0,1,.787-1.48q.465-.682,1.219-1.579a11.917,11.917,0,0,0,1.175-1.557,2.433,2.433,0,0,0,.366-1.258,1.736,1.736,0,0,0-.332-1.053,1.2,1.2,0,0,0-1.042-.454,1.489,1.489,0,0,0-.887.26.765.765,0,0,0-.366.637.675.675,0,0,0,.039.244,1.012,1.012,0,0,0,.127.222,1.426,1.426,0,0,1,.116.216.6.6,0,0,1,.039.227.577.577,0,0,1-.161.427.562.562,0,0,1-.416.161.527.527,0,0,1-.4-.216.889.889,0,0,1-.183-.593,1.8,1.8,0,0,1,.249-.864,2.113,2.113,0,0,1,.754-.77,2.284,2.284,0,0,1,1.236-.316,2.333,2.333,0,0,1,1.286.316,1.784,1.784,0,0,1,.693.787,2.432,2.432,0,0,1,.205.981,1.99,1.99,0,0,1-.155.815,2.414,2.414,0,0,1-.421.643q-.266.294-.8.781-.122.122-.31.288t-.432.41a8.656,8.656,0,0,0-1.529,2.039.276.276,0,0,0-.033.122q0,.155.211.155h1.009a5.692,5.692,0,0,0,1.208-.094,1.087,1.087,0,0,0,.6-.338,2.718,2.718,0,0,0,.4-.787q.022-.066.078-.066a.917.917,0,0,1,.1.022.435.435,0,0,1,.1.044.075.075,0,0,1,.033.066l-.011.055Zm28.012-2.6a.546.546,0,0,0,.475-.247l.133-.19q.038-.057.133-.19a1.183,1.183,0,0,1,.171-.2.232.232,0,0,1,.152-.066q.133,0,.532.361a4.87,4.87,0,0,1,.627.665.327.327,0,0,1,.076.209.282.282,0,0,1-.19.247l-.133.057a.451.451,0,0,0-.38.437q-.266,7.087-1.5,8.341a2.458,2.458,0,0,1-1.6.7h-.038q-.285,0-.38-.361a.886.886,0,0,0-.3-.513A4.078,4.078,0,0,0,238,0q-.361-.057-.361-.247,0-.076.114-.114a.75.75,0,0,1,.3-.019q1.6.19,2.166.19a1.356,1.356,0,0,0,.409-.047.882.882,0,0,0,.294-.18q.817-.722,1.2-7.41v-.038q0-.38-.4-.38h-3.192a.376.376,0,0,0-.418.38,14.155,14.155,0,0,1-1.663,5.406,10.425,10.425,0,0,1-4,3.734q-.342.209-.418.076a.077.077,0,0,1-.019-.057q0-.133.247-.323a11.345,11.345,0,0,0,2.973-3.315,12.225,12.225,0,0,0,1.416-3.981,33.033,33.033,0,0,0,.418-5.206.353.353,0,0,0-.4-.4h-.76a9.3,9.3,0,0,0-1.71.19.326.326,0,0,1-.133.019.379.379,0,0,1-.361-.266l-.076-.152a.506.506,0,0,1-.057-.228.209.209,0,0,1,.1-.18.382.382,0,0,1,.266-.048q.646.057,1.957.1h1.786a.353.353,0,0,0,.4-.4q-.038-1.577-.133-2.584v-.076q0-.3.266-.3a1.143,1.143,0,0,1,.19.038q1.349.4,1.349.646,0,.1-.171.19l-.057.038a.536.536,0,0,0-.266.475V-12.9a.4.4,0,0,0,.1.294.4.4,0,0,0,.295.1H242.2a.546.546,0,0,0,.475-.247l.228-.342q.057-.076.171-.256a1.59,1.59,0,0,1,.2-.266.24.24,0,0,1,.161-.086q.133,0,.665.456a5.558,5.558,0,0,1,.779.779.418.418,0,0,1,.1.228.272.272,0,0,1-.114.209.541.541,0,0,1-.323.1h-5.776a.353.353,0,0,0-.4.4q-.076,1.539-.133,2.318v.057q0,.361.38.361ZM230.42-14.25a.4.4,0,0,0-.294.1.4.4,0,0,0-.1.294v10.3q.038,2.071.133,4.18v.1a.508.508,0,0,1-.171.4,1.316,1.316,0,0,1-.912.342.381.381,0,0,1-.275-.123.364.364,0,0,1-.124-.257q.076-1.121.133-2.175t.076-2.764v-7.752a29.41,29.41,0,0,0-.171-3.344v-.076q0-.285.247-.285a.423.423,0,0,1,.19.038l.874.38a1.136,1.136,0,0,0,.475.1h1.748a.58.58,0,0,0,.494-.228l.152-.171q.057-.057.219-.228a.436.436,0,0,1,.275-.171q.133,0,.57.427a6.177,6.177,0,0,1,.684.769.327.327,0,0,1,.076.209.244.244,0,0,1-.209.247l-.228.038a.535.535,0,0,0-.456.285q-1.368,2.508-2.185,3.743a.5.5,0,0,0-.076.247.435.435,0,0,0,.171.323,6.569,6.569,0,0,1,1.7,2.043,4.713,4.713,0,0,1,.542,2.137,3.157,3.157,0,0,1-.465,1.862,2.1,2.1,0,0,1-1.53.779H231.9q-.3,0-.361-.361a1.161,1.161,0,0,0-.209-.608q-.1-.152-.551-.247-.361-.076-.361-.228,0-.057.1-.095a.9.9,0,0,1,.294-.038h.931a.986.986,0,0,0,.475-.095.852.852,0,0,0,.38-.447,2.371,2.371,0,0,0,.114-.826,5.8,5.8,0,0,0-1.52-3.819.506.506,0,0,1-.133-.342A1.048,1.048,0,0,1,231.1-9.8q.684-1.786,1.33-3.99a.494.494,0,0,0,.019-.152q0-.3-.361-.3Zm21.147-1.368a.409.409,0,0,1,.361-.209.474.474,0,0,1,.209.038q1.121.475,1.121.627,0,.038-.133.076a.717.717,0,0,0-.456.228l-1.083.969-1.235,1.1a.417.417,0,0,0-.152.266q0,.152.247.3a6.548,6.548,0,0,1,2.071,1.453,2.195,2.195,0,0,1,.646,1.359.851.851,0,0,1-.18.561.576.576,0,0,1-.465.219.405.405,0,0,1-.209-.038.279.279,0,0,1-.2-.114,1.994,1.994,0,0,1-.143-.247,8.117,8.117,0,0,0-.9-1.615,7.914,7.914,0,0,0-1.359-1.5.435.435,0,0,1-.171-.323.508.508,0,0,1,.1-.247A33.241,33.241,0,0,0,251.567-15.618Zm4.921-.019a.4.4,0,0,1,.342-.19.474.474,0,0,1,.209.038q1.121.494,1.121.665a.719.719,0,0,1-.266.076.682.682,0,0,0-.323.19q-.912.817-2.375,1.995a.283.283,0,0,0-.152.247q0,.171.247.3a6.631,6.631,0,0,1,2.157,1.4,2.088,2.088,0,0,1,.674,1.34.813.813,0,0,1-.181.551.587.587,0,0,1-.465.209,1.048,1.048,0,0,1-.209-.038.373.373,0,0,1-.2-.123q-.067-.086-.161-.238a7.847,7.847,0,0,0-.969-1.558,8.678,8.678,0,0,0-1.425-1.463.421.421,0,0,1-.171-.3.523.523,0,0,1,.1-.266Q255.785-14.535,256.488-15.637Zm5.168,0a.427.427,0,0,1,.342-.209.506.506,0,0,1,.228.057q1.121.532,1.121.7a.864.864,0,0,1-.285.076.777.777,0,0,0-.342.19q-1.178.988-2.546,2.014a.322.322,0,0,0-.171.266q0,.171.266.285a6.95,6.95,0,0,1,2.3,1.453,2.175,2.175,0,0,1,.722,1.4.742.742,0,0,1-.181.532.613.613,0,0,1-.465.19.9.9,0,0,1-.209-.019.373.373,0,0,1-.2-.124q-.067-.086-.161-.237a8.006,8.006,0,0,0-1.064-1.615,8.928,8.928,0,0,0-1.539-1.482.421.421,0,0,1-.171-.3.431.431,0,0,1,.114-.285Q260.877-14.516,261.656-15.637ZM258.065-4.085a.342.342,0,0,0,.3.209.342.342,0,0,0,.266-.133q.4-.4.8-.855a14.079,14.079,0,0,0,1.919-2.812.343.343,0,0,1,.3-.228.523.523,0,0,1,.266.1q1.292.893,1.292,1.083,0,.057-.19.095h-.057a.787.787,0,0,0-.475.209q-.741.7-1.7,1.463a20.376,20.376,0,0,1-1.91,1.349.408.408,0,0,0-.209.3.434.434,0,0,0,.1.247,7.713,7.713,0,0,0,2.3,1.843A15.611,15.611,0,0,0,264.62.114q.4.095.361.209a.178.178,0,0,1-.114.095l-.247.1a1.115,1.115,0,0,0-.76.589.406.406,0,0,1-.361.285.494.494,0,0,1-.152-.019,9.865,9.865,0,0,1-4.493-2.745,9.246,9.246,0,0,1-1.948-4.36q-.019-.247-.076-.247-.038,0-.1.247a8,8,0,0,1-.95,2.878A7.174,7.174,0,0,1,253.41-.513a17.056,17.056,0,0,1-4.541,1.919l-.247.038a.2.2,0,0,1-.19-.095l-.019-.038q0-.152.361-.266A12.566,12.566,0,0,0,253.5-1.672a6.97,6.97,0,0,0,1.862-3.572,10.184,10.184,0,0,0,.152-1.748,13.024,13.024,0,0,0-.1-1.539v-.076a.306.306,0,0,1,.114-.247.4.4,0,0,1,.3-.076q1.539.171,1.539.38,0,.038-.066.086a.824.824,0,0,0-.086.066l-.019.019a.569.569,0,0,0-.247.551A10.651,10.651,0,0,0,258.065-4.085Zm-5.909-3.078q.057-.38.209-.38.152.038.209.361.019.209.019.589a3.8,3.8,0,0,1-.456,1.929,3.089,3.089,0,0,1-1.064,1.149,1.452,1.452,0,0,1-.76.247.62.62,0,0,1-.608-.342.529.529,0,0,1-.038-.228.8.8,0,0,1,.323-.589,1.326,1.326,0,0,1,.342-.228,3.3,3.3,0,0,0,1.15-.988A3.676,3.676,0,0,0,252.156-7.163Zm25.517-7.98a.05.05,0,0,0-.057.057q0,.152.266.38A14.771,14.771,0,0,0,280.9-12.72a23.49,23.49,0,0,0,3.781,1.53q.342.114.342.266a.32.32,0,0,1-.152.161q-.133.086-.171.1a1.493,1.493,0,0,0-.627.532q-.152.247-.323.247a.448.448,0,0,1-.19-.057,17.846,17.846,0,0,1-3.505-2.023,12.853,12.853,0,0,1-2.689-2.594.369.369,0,0,0-.285-.171.329.329,0,0,0-.266.152,17.956,17.956,0,0,1-2.831,2.432q-.19.133-.19.266,0,.171.323.209.551.038,1.691.076h1.729a.6.6,0,0,0,.494-.247l.171-.228a1.639,1.639,0,0,0,.161-.209,1.213,1.213,0,0,1,.181-.219.232.232,0,0,1,.152-.066,1.563,1.563,0,0,1,.627.371,4.308,4.308,0,0,1,.7.655.291.291,0,0,1,.1.209.316.316,0,0,1-.114.209.575.575,0,0,1-.342.1H275.6a9.106,9.106,0,0,0-1.482.19h-.114a.39.39,0,0,1-.38-.247l-.114-.228a.343.343,0,0,0-.3-.228.383.383,0,0,0-.247.076,22.836,22.836,0,0,1-3.914,2.09.671.671,0,0,1-.266.057q-.133,0-.152-.076v-.038q0-.133.285-.266a22.124,22.124,0,0,0,2.6-1.615A21.276,21.276,0,0,0,273.93-13.3a6.961,6.961,0,0,0,1.786-2.489.382.382,0,0,1,.361-.285.494.494,0,0,1,.152.019l1.387.437a.6.6,0,0,1,.323.218q.095.143-.057.2ZM281.606-4.2a1.462,1.462,0,0,1,.56.3,4.429,4.429,0,0,1,.674.57.258.258,0,0,1,.076.19.312.312,0,0,1-.171.247l-.114.057a.436.436,0,0,0-.342.437V-1.5l.038.969q0,.4.038,1.083v.1a.408.408,0,0,1-.19.38,2.189,2.189,0,0,1-.456.2,1.574,1.574,0,0,1-.475.086.232.232,0,0,1-.209-.133.448.448,0,0,1-.057-.19.665.665,0,0,1,.038-.209,1.992,1.992,0,0,0,.038-.342.152.152,0,0,0-.1-.143.731.731,0,0,0-.295-.047h-6.384a.4.4,0,0,0-.294.1.4.4,0,0,0-.1.295v.418q0,.114-.342.266a1.672,1.672,0,0,1-.684.152.238.238,0,0,1-.209-.114.468.468,0,0,1-.076-.266q.057-.494.076-1.007l.019-.475v-.931q0-.456-.038-1.33-.019-.323-.19-.323-.152,0-.266.247A8.015,8.015,0,0,1,269.18.8q-.323.228-.418.095a.077.077,0,0,1-.019-.057q0-.133.209-.323a8.279,8.279,0,0,0,2.289-3.572,14.629,14.629,0,0,0,.6-4.294V-8.816A9.277,9.277,0,0,0,271.8-9.8v-.038q0-.342.247-.342a.473.473,0,0,1,.209.057l.76.361a1.17,1.17,0,0,0,.494.114h6.5a.546.546,0,0,0,.475-.247l.114-.152.123-.181a.97.97,0,0,1,.152-.18.215.215,0,0,1,.143-.057,1.362,1.362,0,0,1,.551.342,4.4,4.4,0,0,1,.646.627.42.42,0,0,1,.1.19q0,.133-.19.266L282-8.987a.432.432,0,0,0-.323.437v1.045q.057,1.615.1,2.394v.1a.408.408,0,0,1-.19.38,1.7,1.7,0,0,1-.456.219,1.621,1.621,0,0,1-.494.086q-.152,0-.152-.361a.341.341,0,0,0-.1-.266.422.422,0,0,0-.294-.095h-6.878a.407.407,0,0,0-.437.361,1.666,1.666,0,0,1-.038.247.421.421,0,0,0-.019.133.431.431,0,0,0,.266.361l.76.361a1.261,1.261,0,0,0,.494.114h6.346a.613.613,0,0,0,.494-.228l.1-.133q.057-.076.19-.218A.363.363,0,0,1,281.606-4.2Zm-1.121-4.484a.4.4,0,0,0-.1-.295.4.4,0,0,0-.294-.1H273.4a.4.4,0,0,0-.294.1.4.4,0,0,0-.1.295v.646a.4.4,0,0,0,.1.294.4.4,0,0,0,.294.1h6.688a.4.4,0,0,0,.294-.1.4.4,0,0,0,.1-.294Zm0,1.976a.4.4,0,0,0-.1-.295.4.4,0,0,0-.294-.1H273.4a.353.353,0,0,0-.4.4l-.057.7v.057q0,.361.38.361h6.764a.4.4,0,0,0,.294-.1.4.4,0,0,0,.1-.295Zm-6.612,6a.4.4,0,0,0,.1.294.4.4,0,0,0,.294.1h6.384a.4.4,0,0,0,.295-.1.4.4,0,0,0,.1-.294V-2.527a.4.4,0,0,0-.1-.294.4.4,0,0,0-.295-.1h-6.384a.4.4,0,0,0-.294.1.4.4,0,0,0-.1.294ZM302.468-13.68a.546.546,0,0,0,.475-.247l.228-.342q.076-.095.2-.266t.2-.257a.211.211,0,0,1,.152-.085q.133,0,.665.456a5.559,5.559,0,0,1,.779.779.291.291,0,0,1,.095.209.272.272,0,0,1-.114.209.567.567,0,0,1-.342.076H291.771a.4.4,0,0,0-.294.1.4.4,0,0,0-.1.294V-8.8q0,1.976-.161,3.6a15.383,15.383,0,0,1-.713,3.3,9.181,9.181,0,0,1-1.672,3.021.617.617,0,0,1-.218.2.165.165,0,0,1-.161.01.182.182,0,0,1-.057-.133,1.043,1.043,0,0,1,.1-.3,12.278,12.278,0,0,0,1.387-4.246,39.7,39.7,0,0,0,.323-5.424v-2.774q0-1.121-.1-2.318v-.076a.307.307,0,0,1,.066-.209.207.207,0,0,1,.161-.076.473.473,0,0,1,.209.057l.836.38a1.261,1.261,0,0,0,.494.114h4.465a.353.353,0,0,0,.4-.4q-.038-1.026-.076-1.444v-.038q0-.342.285-.342l.171.038a8.022,8.022,0,0,1,.988.37q.285.143.285.257,0,.1-.171.19l-.057.038a.536.536,0,0,0-.266.475v.456a.4.4,0,0,0,.1.294.4.4,0,0,0,.294.1Zm-1.083,4.731a.536.536,0,0,0,.475-.266l.1-.152.124-.181a.97.97,0,0,1,.152-.181.215.215,0,0,1,.142-.057,1.331,1.331,0,0,1,.542.323,3.967,3.967,0,0,1,.637.608.258.258,0,0,1,.076.19.322.322,0,0,1-.171.266l-.114.057a.833.833,0,0,0-.247.19.416.416,0,0,0-.076.266v1.273q.057,1.862.1,2.831v.1a.423.423,0,0,1-.171.38,1.6,1.6,0,0,1-.447.247,1.316,1.316,0,0,1-.447.1q-.076,0-.133-.1a.575.575,0,0,1-.057-.275.341.341,0,0,0-.1-.266.422.422,0,0,0-.294-.1h-2.47a.4.4,0,0,0-.294.1.4.4,0,0,0-.1.295v1.045a.4.4,0,0,0,.1.295.4.4,0,0,0,.294.1h3.686a.546.546,0,0,0,.475-.247l.19-.285a2.74,2.74,0,0,0,.161-.228,1.363,1.363,0,0,1,.18-.228.262.262,0,0,1,.171-.095q.152,0,.646.418a4.781,4.781,0,0,1,.722.722.411.411,0,0,1,.1.209.291.291,0,0,1-.1.209.575.575,0,0,1-.342.095h-5.89a.4.4,0,0,0-.294.1.4.4,0,0,0-.1.295v.38l.057,1.159V.779a.426.426,0,0,1-.133.342,1.239,1.239,0,0,1-.4.256,1.217,1.217,0,0,1-.475.1.256.256,0,0,1-.228-.114.468.468,0,0,1-.076-.266q.057-.494.076-.988l.019-.475V-.893a.4.4,0,0,0-.1-.295.4.4,0,0,0-.294-.1h-2.679a20.466,20.466,0,0,0-2.508.209h-.114a.39.39,0,0,1-.38-.247l-.1-.171a.473.473,0,0,1-.057-.209q0-.285.38-.247.646.057,1.957.1h3.5a.4.4,0,0,0,.294-.1.4.4,0,0,0,.1-.295V-3.306a.4.4,0,0,0-.1-.295.4.4,0,0,0-.294-.1H294.64a.4.4,0,0,0-.295.1.4.4,0,0,0-.1.295v.076q0,.114-.323.257a1.632,1.632,0,0,1-.665.142.223.223,0,0,1-.19-.114.468.468,0,0,1-.076-.266q.076-.722.114-1.862V-6.194a26.472,26.472,0,0,0-.133-2.869v-.076q0-.285.247-.285a.423.423,0,0,1,.19.038l.7.323a1.261,1.261,0,0,0,.494.114h2.432a.4.4,0,0,0,.294-.1.4.4,0,0,0,.1-.295v-.76a.4.4,0,0,0-.1-.295.4.4,0,0,0-.294-.1H295.1a20.466,20.466,0,0,0-2.508.209h-.114a.39.39,0,0,1-.38-.247l-.076-.152a.506.506,0,0,1-.057-.228.209.209,0,0,1,.1-.181.382.382,0,0,1,.266-.047q.646.057,1.957.095h2.755a.353.353,0,0,0,.4-.4l-.057-.912v-.038q0-.342.285-.342a1.143,1.143,0,0,1,.19.038q1.121.4,1.121.608,0,.057-.133.152a.578.578,0,0,0-.247.475v.019a.4.4,0,0,0,.1.295.4.4,0,0,0,.294.1h3a.546.546,0,0,0,.475-.247l.19-.285q.076-.1.181-.238a1.942,1.942,0,0,1,.181-.219.219.219,0,0,1,.152-.076,1.642,1.642,0,0,1,.646.389,4.04,4.04,0,0,1,.722.694.418.418,0,0,1,.1.228.272.272,0,0,1-.114.209.667.667,0,0,1-.361.1h-5.168a.4.4,0,0,0-.294.1.4.4,0,0,0-.1.295v.76a.4.4,0,0,0,.1.295.4.4,0,0,0,.294.1Zm-4.351,2.318a.4.4,0,0,0,.294-.1.4.4,0,0,0,.1-.295v-.988a.4.4,0,0,0-.1-.295.4.4,0,0,0-.294-.1H294.64a.4.4,0,0,0-.295.1.4.4,0,0,0-.1.295v.988a.4.4,0,0,0,.1.295.4.4,0,0,0,.295.1Zm4.427,0a.4.4,0,0,0,.294-.1.4.4,0,0,0,.1-.295v-.988a.4.4,0,0,0-.1-.295.4.4,0,0,0-.294-.1h-2.47a.4.4,0,0,0-.294.1.4.4,0,0,0-.1.295v.988a.4.4,0,0,0,.1.295.4.4,0,0,0,.294.1Zm-6.821.57a.4.4,0,0,0-.295.1.4.4,0,0,0-.1.294v1.007a.4.4,0,0,0,.1.295.4.4,0,0,0,.295.1h2.394a.4.4,0,0,0,.294-.1.4.4,0,0,0,.1-.295V-5.662a.4.4,0,0,0-.1-.294.4.4,0,0,0-.294-.1Zm4.351,0a.4.4,0,0,0-.294.1.4.4,0,0,0-.1.294v1.007a.4.4,0,0,0,.1.295.4.4,0,0,0,.294.1h2.47a.4.4,0,0,0,.294-.1.4.4,0,0,0,.1-.295V-5.662a.4.4,0,0,0-.1-.294.4.4,0,0,0-.294-.1ZM322.437-11.1a.536.536,0,0,0,.475-.266l.114-.19q.057-.076.143-.209a.892.892,0,0,1,.152-.19.215.215,0,0,1,.142-.057,1.362,1.362,0,0,1,.551.342,3.867,3.867,0,0,1,.646.646.327.327,0,0,1,.076.209.281.281,0,0,1-.171.247l-.152.076a.441.441,0,0,0-.361.437v6.384q.038,2.071.133,4.18v.1a.408.408,0,0,1-.19.38,1.592,1.592,0,0,1-.969.323h-.038a.288.288,0,0,1-.152-.133.436.436,0,0,1-.076-.247A1.04,1.04,0,0,0,322.8.7l.038-.3V.323a.4.4,0,0,0-.1-.295.4.4,0,0,0-.294-.1h-10.83q-.4,0-.4.38a2.778,2.778,0,0,1,.019.342l.019.19a.414.414,0,0,1-.152.323,1.382,1.382,0,0,1-.874.266.381.381,0,0,1-.275-.124.364.364,0,0,1-.124-.257q.076-1.121.133-2.176t.076-2.764V-7.9a29.406,29.406,0,0,0-.171-3.344v-.076q0-.285.247-.285a.423.423,0,0,1,.19.038l.893.38a1.136,1.136,0,0,0,.475.1h3.5a.407.407,0,0,0,.437-.361q.285-1.482.361-2.014v-.076q0-.342-.38-.342h-3.61a20.466,20.466,0,0,0-2.508.209h-.114a.39.39,0,0,1-.38-.247l-.1-.171a.473.473,0,0,1-.057-.209q0-.285.38-.247.646.057,1.957.1h11.343a.546.546,0,0,0,.475-.247l.247-.342q.076-.095.2-.256a2.562,2.562,0,0,1,.209-.247.24.24,0,0,1,.161-.086,2.131,2.131,0,0,1,.7.446,5.525,5.525,0,0,1,.836.769.418.418,0,0,1,.1.228.272.272,0,0,1-.114.209.575.575,0,0,1-.342.1h-7.03a.529.529,0,0,0-.475.285q-.4.836-1.083,2.033a.354.354,0,0,0-.076.228.209.209,0,0,0,.1.181.422.422,0,0,0,.247.066Zm-8.284.969a.4.4,0,0,0-.1-.295.4.4,0,0,0-.294-.1h-2.147a.4.4,0,0,0-.294.1.4.4,0,0,0-.1.295v9.1a.4.4,0,0,0,.1.295.4.4,0,0,0,.294.1h2.147a.4.4,0,0,0,.294-.1.4.4,0,0,0,.1-.295Zm1.14,2.071a.4.4,0,0,0,.1.294.4.4,0,0,0,.294.1h2.6a.4.4,0,0,0,.294-.1.4.4,0,0,0,.1-.294v-2.071a.4.4,0,0,0-.1-.295.4.4,0,0,0-.294-.1h-2.6a.4.4,0,0,0-.294.1.4.4,0,0,0-.1.295Zm7.144,7.429a.4.4,0,0,0,.294-.1.4.4,0,0,0,.1-.295v-9.1a.4.4,0,0,0-.1-.295.4.4,0,0,0-.294-.1h-2.2a.4.4,0,0,0-.294.1.4.4,0,0,0-.1.295v9.1a.4.4,0,0,0,.1.295.4.4,0,0,0,.294.1ZM315.293-4.56a.4.4,0,0,0,.1.294.4.4,0,0,0,.294.1h2.6a.4.4,0,0,0,.294-.1.4.4,0,0,0,.1-.294V-6.726a.4.4,0,0,0-.1-.295.4.4,0,0,0-.294-.1h-2.6a.4.4,0,0,0-.294.1.4.4,0,0,0-.1.295Zm3.4,1.33a.4.4,0,0,0-.1-.294.4.4,0,0,0-.294-.1h-2.6a.4.4,0,0,0-.294.1.4.4,0,0,0-.1.294v2.2a.4.4,0,0,0,.1.295.4.4,0,0,0,.294.1h2.6a.4.4,0,0,0,.294-.1.4.4,0,0,0,.1-.295Zm23.959-9.082a.564.564,0,0,0,.494-.247l.133-.19a3.205,3.205,0,0,0,.219-.256q.143-.181.257-.181a1.327,1.327,0,0,1,.57.323,3.015,3.015,0,0,1,.608.589.29.29,0,0,1,.1.209.272.272,0,0,1-.114.209.567.567,0,0,1-.342.076H341.3a.4.4,0,0,0-.294.1.4.4,0,0,0-.1.295v.684a.4.4,0,0,0,.1.295.4.4,0,0,0,.294.1h1.957a.536.536,0,0,0,.475-.266l.171-.247q.057-.1.161-.238t.171-.219a.19.19,0,0,1,.142-.076q.152,0,.608.39a4.593,4.593,0,0,1,.684.693.282.282,0,0,1,.076.209.291.291,0,0,1-.1.209.575.575,0,0,1-.342.1h-9.671a.964.964,0,0,0-.266.038q-.133.038-.19.057a.405.405,0,0,1-.209.038h-1.786a.4.4,0,0,0-.294.1.4.4,0,0,0-.1.295V-7.98a.465.465,0,0,0,.323.456,4.748,4.748,0,0,1,1.634,1.149,1.859,1.859,0,0,1,.513,1.15.689.689,0,0,1-.142.456.46.46,0,0,1-.371.171,1.047,1.047,0,0,1-.209-.038.73.73,0,0,1-.342-.4,6.851,6.851,0,0,0-.912-1.615q-.152-.19-.266-.19a.194.194,0,0,0-.161.1.459.459,0,0,0-.066.266V-3.5q.038,2.071.133,4.18v.1a.455.455,0,0,1-.19.4,1.4,1.4,0,0,1-.893.285.382.382,0,0,1-.276-.123.364.364,0,0,1-.124-.257q.076-1.121.133-2.175t.076-2.764V-5.51q0-.342-.19-.342-.152,0-.266.228a15.18,15.18,0,0,1-2.242,3.306q-.247.3-.4.171a.182.182,0,0,1-.057-.133.569.569,0,0,1,.114-.3,20.275,20.275,0,0,0,2.66-6.593l.019-.114a.29.29,0,0,0-.1-.238.421.421,0,0,0-.275-.085h-.323a5.259,5.259,0,0,0-1.007.152.6.6,0,0,1-.171.038.4.4,0,0,1-.361-.247l-.057-.133a.473.473,0,0,1-.057-.209q0-.266.38-.228.494.038,1.406.076h.532a.4.4,0,0,0,.294-.1.4.4,0,0,0,.1-.295v-2.451a.374.374,0,0,0-.114-.3.343.343,0,0,0-.323-.038q-1.235.323-1.976.475a.8.8,0,0,1-.19.019q-.19,0-.228-.114v-.038q0-.133.323-.247,1.14-.456,1.482-.627a11.067,11.067,0,0,0,2.85-1.824.4.4,0,0,1,.285-.133.4.4,0,0,1,.285.133q1.121.95,1.121,1.178,0,.1-.266.1h-.19a1.553,1.553,0,0,0-.494.076,10.628,10.628,0,0,1-1.1.418.444.444,0,0,0-.323.456v2.926a.548.548,0,0,0,.066.295.2.2,0,0,0,.181.1.5.5,0,0,0,.418-.247l.342-.456a.35.35,0,0,1,.3-.171.41.41,0,0,1,.266.114l.627.57a.328.328,0,0,0,.228.114,1.143,1.143,0,0,0,.19-.038.983.983,0,0,1,.247-.019h3.686a.4.4,0,0,0,.295-.1.4.4,0,0,0,.1-.295v-.684a.4.4,0,0,0-.1-.295.4.4,0,0,0-.295-.1h-.8a12.866,12.866,0,0,0-1.786.19.421.421,0,0,1-.133.019.415.415,0,0,1-.38-.247l-.076-.133a.473.473,0,0,1-.057-.209q0-.285.38-.247.646.057,1.957.095h.893a.4.4,0,0,0,.295-.1.4.4,0,0,0,.1-.295v-.513a.4.4,0,0,0-.1-.294.4.4,0,0,0-.295-.1h-.931a14.381,14.381,0,0,0-2.128.209h-.114a.39.39,0,0,1-.38-.247l-.1-.171a.473.473,0,0,1-.057-.209q0-.285.38-.247.646.057,1.957.095h1.368a.353.353,0,0,0,.4-.4q0-.266-.038-.8v-.038q0-.323.266-.323a.423.423,0,0,1,.19.038,6.9,6.9,0,0,1,.95.371q.266.143.266.256,0,.1-.152.19l-.057.038a.493.493,0,0,0-.266.418.2.2,0,0,0,.1.18.548.548,0,0,0,.294.067h1.767a.536.536,0,0,0,.475-.266l.171-.247q.076-.1.152-.209a1.83,1.83,0,0,1,.161-.209.233.233,0,0,1,.161-.095,1.528,1.528,0,0,1,.589.38,3.63,3.63,0,0,1,.665.684.418.418,0,0,1,.1.228.272.272,0,0,1-.114.209.541.541,0,0,1-.323.1h-3.8a.4.4,0,0,0-.294.1.4.4,0,0,0-.1.294v.513a.4.4,0,0,0,.1.295.4.4,0,0,0,.294.1Zm0,3.686a.546.546,0,0,0,.475-.247l.114-.152.142-.19a1.093,1.093,0,0,1,.152-.171.215.215,0,0,1,.142-.057,1.322,1.322,0,0,1,.542.332,3.526,3.526,0,0,1,.618.618.42.42,0,0,1,.095.19q0,.133-.19.266l-.133.057a.436.436,0,0,0-.342.437V-5.89q.057,2.432.114,3.61v.1a.408.408,0,0,1-.19.38,2.027,2.027,0,0,1-.437.228,1.24,1.24,0,0,1-.437.095q-.19,0-.19-.3a.244.244,0,0,0-.1-.209.494.494,0,0,0-.294-.076h-4.636a.4.4,0,0,0-.294.1.4.4,0,0,0-.1.295v.038q0,.114-.3.257a1.5,1.5,0,0,1-.646.143.288.288,0,0,1-.228-.114.4.4,0,0,1-.1-.266q.095-.893.133-2.394V-5.4a29.734,29.734,0,0,0-.171-3.344v-.076q0-.285.247-.285a.423.423,0,0,1,.19.038l.741.323a1.261,1.261,0,0,0,.494.114Zm.076,1.995a.4.4,0,0,0,.294-.1.4.4,0,0,0,.1-.295v-.627a.4.4,0,0,0-.1-.294.4.4,0,0,0-.294-.1h-4.636a.4.4,0,0,0-.294.1.4.4,0,0,0-.1.294v.627a.4.4,0,0,0,.1.295.4.4,0,0,0,.294.1Zm-5.035,1.558a.4.4,0,0,0,.1.294.4.4,0,0,0,.294.1h4.636a.4.4,0,0,0,.294-.1.4.4,0,0,0,.1-.294v-.608a.4.4,0,0,0-.1-.295.4.4,0,0,0-.294-.1h-4.636a.4.4,0,0,0-.294.1.4.4,0,0,0-.1.295Zm.4.969a.4.4,0,0,0-.294.1.4.4,0,0,0-.1.295V-3a.4.4,0,0,0,.1.295.4.4,0,0,0,.294.1h4.636a.4.4,0,0,0,.294-.1.4.4,0,0,0,.1-.295v-.7a.4.4,0,0,0-.1-.295.4.4,0,0,0-.294-.1Zm.3,2.565a.425.425,0,0,1,.285-.152.383.383,0,0,1,.266.133l.342.323a3.007,3.007,0,0,0,.4.3q.38.247.38.361,0,.095-.209.095H339.8a1.034,1.034,0,0,0-.494.133,16.931,16.931,0,0,1-2.289.988,22.768,22.768,0,0,1-2.5.722.8.8,0,0,1-.19.019.306.306,0,0,1-.247-.114.077.077,0,0,1-.019-.057q0-.133.323-.285.437-.171,1.1-.475a11.823,11.823,0,0,0,1.558-.9A9.246,9.246,0,0,0,338.4-1.539Zm3.059.589q-.285-.133-.285-.266,0-.171.209-.171l.228.038a9.917,9.917,0,0,1,3.03,1.083q.941.608.941,1.159a.5.5,0,0,1-.181.4.643.643,0,0,1-.427.152.847.847,0,0,1-.589-.247A7.1,7.1,0,0,0,343.194.133,13.637,13.637,0,0,0,341.456-.95ZM358.784.266a2.98,2.98,0,0,1-1.986-.8,5.5,5.5,0,0,1-1.482-2.394,11.833,11.833,0,0,1-.56-3.9,11.822,11.822,0,0,1,.57-3.914,5.647,5.647,0,0,1,1.491-2.423,2.983,2.983,0,0,1,2-.807,2.961,2.961,0,0,1,1.985.807,5.579,5.579,0,0,1,1.482,2.423,12.007,12.007,0,0,1,.56,3.914,11.651,11.651,0,0,1-.57,3.9,5.572,5.572,0,0,1-1.491,2.394A3,3,0,0,1,358.784.266Zm.038-.646q1.1,0,1.738-1.606a13.872,13.872,0,0,0,.637-4.836,14.042,14.042,0,0,0-.637-4.854q-.637-1.625-1.738-1.625-1.121,0-1.767,1.625a13.851,13.851,0,0,0-.646,4.854,13.683,13.683,0,0,0,.646,4.836Q357.7-.38,358.822-.38ZM367.239.3a.986.986,0,0,1-.722-.3.986.986,0,0,1-.3-.722.977.977,0,0,1,.3-.732,1,1,0,0,1,.722-.294,1.008,1.008,0,0,1,.741.3.986.986,0,0,1,.3.722.986.986,0,0,1-.3.722A1.008,1.008,0,0,1,367.239.3Zm8.265-14.25a3.675,3.675,0,0,1,2.223.722,4.706,4.706,0,0,1,1.539,2.023,7.619,7.619,0,0,1,.551,2.993,12.678,12.678,0,0,1-.76,4.646,7.032,7.032,0,0,1-1.91,2.888,3.55,3.55,0,0,1-2.251.96,4.032,4.032,0,0,1-1.51-.256,2.23,2.23,0,0,1-.96-.675,1.41,1.41,0,0,1-.323-.874.917.917,0,0,1,.276-.674.9.9,0,0,1,.655-.275.908.908,0,0,1,.7.351,1.521,1.521,0,0,1,.342.921,1.083,1.083,0,0,0,.228.646.813.813,0,0,0,.627.209q1.254,0,2.014-1.6A13.007,13.007,0,0,0,378.012-5.8a.416.416,0,0,0-.057-.285.256.256,0,0,0-.228-.114.574.574,0,0,0-.342.152,3.377,3.377,0,0,1-2.394.969,3.221,3.221,0,0,1-1.9-.561,3.592,3.592,0,0,1-1.216-1.473,4.641,4.641,0,0,1-.418-1.957,5.867,5.867,0,0,1,.5-2.432,4.345,4.345,0,0,1,1.425-1.786A3.527,3.527,0,0,1,375.5-13.946Zm.038,7.98A2.569,2.569,0,0,0,377-6.46a2.96,2.96,0,0,0,1.083-1.558,1.672,1.672,0,0,0,.076-.494,9.263,9.263,0,0,0-.6-3.363,2.052,2.052,0,0,0-2.061-1.349,1.757,1.757,0,0,0-1.245.513,3.407,3.407,0,0,0-.845,1.406,6.165,6.165,0,0,0-.3,1.995,3.511,3.511,0,0,0,.77,2.679A2.5,2.5,0,0,0,375.542-5.966ZM386.923.266a2.98,2.98,0,0,1-1.986-.8,5.5,5.5,0,0,1-1.482-2.394,11.833,11.833,0,0,1-.56-3.9,11.822,11.822,0,0,1,.57-3.914,5.647,5.647,0,0,1,1.491-2.423,2.983,2.983,0,0,1,2-.807,2.961,2.961,0,0,1,1.985.807,5.579,5.579,0,0,1,1.482,2.423,12.007,12.007,0,0,1,.56,3.914,11.651,11.651,0,0,1-.57,3.9,5.572,5.572,0,0,1-1.491,2.394A3,3,0,0,1,386.923.266Zm.038-.646q1.1,0,1.738-1.606a13.872,13.872,0,0,0,.637-4.836,14.042,14.042,0,0,0-.637-4.854q-.637-1.625-1.738-1.625-1.121,0-1.767,1.625a13.851,13.851,0,0,0-.646,4.854,13.683,13.683,0,0,0,.646,4.836Q385.84-.38,386.961-.38ZM396.67,0a15.139,15.139,0,0,1-.133-2.147V-5.871a4.236,4.236,0,0,1,.627-1.9,2.974,2.974,0,0,1,2.489-1.444c1.368,0,2.128.912,2.128,2.584v4.484A13.61,13.61,0,0,1,401.648,0h1.71a13.194,13.194,0,0,1-.133-2.128V-5.871a4.088,4.088,0,0,1,.627-1.957,2.846,2.846,0,0,1,2.394-1.387c1.52,0,2.185.779,2.185,2.584v4.484A11.534,11.534,0,0,1,408.3,0h1.71a13.351,13.351,0,0,1-.133-2.128V-6.821a3.867,3.867,0,0,0-.646-2.47,3.283,3.283,0,0,0-2.774-1.159,3.732,3.732,0,0,0-3.515,2.071,2.5,2.5,0,0,0-.589-1.1,3.069,3.069,0,0,0-2.451-.969,3.692,3.692,0,0,0-2.679.988,3.911,3.911,0,0,0-.722.95c.019-.361.038-.589.038-.684v-1.045H395a13.77,13.77,0,0,1,.133,2.147v5.947A14.265,14.265,0,0,1,395,0ZM408.2-14.63c.152-.551.38-.76.8-.76.4,0,.684.228.684.551,0,.361-.114.494-1.064,1.178a2.44,2.44,0,0,0-1.311,1.9,2.137,2.137,0,0,1-.038.266,6.756,6.756,0,0,1,.7-.019h1.957a5.766,5.766,0,0,1,.76.038v-.893a4.2,4.2,0,0,1-.741.057h-1.52c.152-.323.266-.437.855-.855a5.819,5.819,0,0,0,.779-.57,1.222,1.222,0,0,0,.532-1.045c0-.836-.627-1.368-1.6-1.368a1.609,1.609,0,0,0-1.729,1.349Zm15.428-.665a.067.067,0,0,0-.076.076.725.725,0,0,0,.209.361,14.4,14.4,0,0,0,3.116,2.565,24.892,24.892,0,0,0,4.1,2.071,1.27,1.27,0,0,1,.228.124q.095.067.1.123a.172.172,0,0,1-.1.152,1.538,1.538,0,0,1-.247.114,1.523,1.523,0,0,0-.608.532.421.421,0,0,1-.342.247.448.448,0,0,1-.19-.057,20.3,20.3,0,0,1-3.762-2.537,13.671,13.671,0,0,1-2.755-3.106.321.321,0,0,0-.266-.19.322.322,0,0,0-.266.171,20.907,20.907,0,0,1-3.6,3.5,24.16,24.16,0,0,1-4.512,2.831q-.361.171-.418.019v-.038q0-.133.266-.285a20.754,20.754,0,0,0,2.936-2.09A23.933,23.933,0,0,0,420.1-13.3a7.822,7.822,0,0,0,1.6-2.66q.114-.285.342-.285a.494.494,0,0,1,.152.019l1.425.437a.518.518,0,0,1,.247.133.262.262,0,0,1,.1.171.16.16,0,0,1-.1.133Zm-1.976,4.75a10.154,10.154,0,0,0-1.406.171.421.421,0,0,1-.133.019.378.378,0,0,1-.361-.247l-.076-.152a.473.473,0,0,1-.057-.209.227.227,0,0,1,.1-.2.382.382,0,0,1,.266-.047q.684.057,1.976.095h1.6a.564.564,0,0,0,.494-.247l.152-.209q.057-.076.161-.209a1.518,1.518,0,0,1,.181-.2.232.232,0,0,1,.152-.066,1.5,1.5,0,0,1,.608.342,3.233,3.233,0,0,1,.665.627.418.418,0,0,1,.1.228.274.274,0,0,1-.1.19.494.494,0,0,1-.361.114Zm3.857,1.805a.546.546,0,0,0,.475-.247l.133-.171.142-.19a1.093,1.093,0,0,1,.152-.171.215.215,0,0,1,.142-.057q.133,0,.542.371a3.656,3.656,0,0,1,.617.693.327.327,0,0,1,.076.209.282.282,0,0,1-.19.247,1.742,1.742,0,0,1-.323.076.65.65,0,0,0-.456.3q-.038.076-.57,1.083l-.741,1.425a.473.473,0,0,0-.057.209q0,.266.342.266h.608a.6.6,0,0,0,.494-.247l.114-.152q.057-.076.19-.237a.355.355,0,0,1,.247-.162,1.637,1.637,0,0,1,.6.333,3.492,3.492,0,0,1,.693.617.327.327,0,0,1,.076.209.312.312,0,0,1-.171.247.479.479,0,0,1-.114.057.737.737,0,0,0-.1.038.436.436,0,0,0-.342.437v1.292q.057,1.862.1,2.85V.684a.408.408,0,0,1-.19.38,2.568,2.568,0,0,1-.456.209,1.433,1.433,0,0,1-.475.095.22.22,0,0,1-.19-.133.473.473,0,0,1-.057-.209A1.04,1.04,0,0,1,426.861.8L426.9.589a.4.4,0,0,0-.1-.294.4.4,0,0,0-.294-.1h-7.6a.4.4,0,0,0-.294.1.4.4,0,0,0-.1.294v.475q0,.114-.342.276a1.629,1.629,0,0,1-.7.161.223.223,0,0,1-.19-.114.468.468,0,0,1-.076-.266q.076-.741.114-1.9v-1.14a27.454,27.454,0,0,0-.133-2.926v-.076q0-.285.247-.285a.423.423,0,0,1,.19.038l.779.361a1.261,1.261,0,0,0,.494.114h4.807a.48.48,0,0,0,.475-.285q.608-1.14,1.368-2.736a.473.473,0,0,0,.057-.209q0-.266-.361-.266H420a20.466,20.466,0,0,0-2.508.209h-.114a.39.39,0,0,1-.38-.247l-.076-.152a.506.506,0,0,1-.057-.228.209.209,0,0,1,.1-.181.382.382,0,0,1,.266-.047q.646.057,1.957.1Zm-6.612,4.6a.4.4,0,0,0-.294.1.4.4,0,0,0-.1.294V-.76a.4.4,0,0,0,.1.294.4.4,0,0,0,.294.1h7.6a.4.4,0,0,0,.294-.1.4.4,0,0,0,.1-.294V-3.743a.4.4,0,0,0-.1-.294.4.4,0,0,0-.294-.1Zm29.431-6.536a1.625,1.625,0,0,1,1.225.636,5.132,5.132,0,0,1,.9,1.482A3.849,3.849,0,0,1,450.8-7.22a.919.919,0,0,1-.209.6.606.606,0,0,1-.475.256,1.793,1.793,0,0,1-.627-.228,2.407,2.407,0,0,0-.874-.114q-.171,0-.589.038l-.4.019q-.133,0-.133-.076,0-.1.209-.152,1.615-.418,1.615-1.007a3.071,3.071,0,0,0-.181-.865,3.928,3.928,0,0,0-.475-1,.806.806,0,0,0-.637-.437q-.513,0-.9.941a5.91,5.91,0,0,0-.428,2.08V-6.8a18.335,18.335,0,0,0,.1,1.985,8.26,8.26,0,0,0,.2,1.263q.057.152.161.485t.161.608a2.583,2.583,0,0,1,.057.523q0,1.406-1.672,1.938a12.8,12.8,0,0,1-3.876.532A6.509,6.509,0,0,1,439.41.076a1.641,1.641,0,0,1-1.149-1.634,8.315,8.315,0,0,1,.247-1.6l.019-.133a.493.493,0,0,0-.228-.4,4.113,4.113,0,0,1-1.159-1.33,4.056,4.056,0,0,1-.475-2.033,2.386,2.386,0,0,1,.608-1.719,2.2,2.2,0,0,1,1.672-.637h.038a.5.5,0,0,0,.294-.086.358.358,0,0,0,.143-.275q0-.513.019-.8,0-.361-.342-.361a3.194,3.194,0,0,0-.333.019,3.537,3.537,0,0,1-.37.019,2.731,2.731,0,0,1-1.492-.38,1.954,1.954,0,0,1-.827-1.1.6.6,0,0,1-.038-.171.067.067,0,0,1,.076-.076.209.209,0,0,1,.133.076,3.818,3.818,0,0,0,.807.551,2.227,2.227,0,0,0,.978.19,4,4,0,0,0,1.064-.152.429.429,0,0,0,.342-.456q0-.76-.038-1.1a2.236,2.236,0,0,0-.161-.712,1.984,1.984,0,0,0-.56-.637l-.228-.152q-.114-.076-.114-.152,0-.1.152-.162a.95.95,0,0,1,.38-.066,2.037,2.037,0,0,1,1.235.361,1.123,1.123,0,0,1,.494.95.633.633,0,0,0,.266.475,2.313,2.313,0,0,0,.741.19q.8.1.8.684a.846.846,0,0,1-.475.741,7.982,7.982,0,0,1-1.444.684.752.752,0,0,0-.257.171.464.464,0,0,0-.1.266l-.114,1.425v.057a.613.613,0,0,0,.228.456,1.009,1.009,0,0,1,.418.836,1.8,1.8,0,0,1-.057.437,2.774,2.774,0,0,1-.152.418,4.492,4.492,0,0,0-.285.817,9.687,9.687,0,0,0-.228,1.938q-.019.342-.048.627a.783.783,0,0,1-.1.38.511.511,0,0,1-.456.228.515.515,0,0,0-.247.361,5.507,5.507,0,0,0-.057.779,1.257,1.257,0,0,0,.694,1.3,4.079,4.079,0,0,0,1.605.294A13.743,13.743,0,0,0,444.711-.9a1.741,1.741,0,0,0,1.53-1.777V-5.8a13.361,13.361,0,0,1,.4-3.325Q447.039-10.678,448.331-10.678Zm-7.942-2.3a.8.8,0,0,0-.019.19.31.31,0,0,0,.076.228.151.151,0,0,0,.19.019q.342-.171.342-.38a.322.322,0,0,0-.171-.266l-.171-.019q-.209,0-.228.133ZM437.368-7.2a3.591,3.591,0,0,0,.342,1.52q.342.741.76.741.551,0,.779-2.109.019-.152.057-.437a3.809,3.809,0,0,0,.038-.494q0-.8-.57-.8a1.173,1.173,0,0,0-1.1.513A2.059,2.059,0,0,0,437.368-7.2Z" transform="translate(705.799 2701.827)" fill="#333"/><path d="M5.58,0q-.434,0-.434-.868,0-.93.434-.93h.992a11,11,0,0,0,4.9-.93,3.065,3.065,0,0,0,1.86-2.914v-29.7a6.152,6.152,0,0,0-.341-2.511,2.088,2.088,0,0,0-1.612-.868,33.673,33.673,0,0,0-4.743-.217H5.58q-.434,0-.434-.93,0-.868.434-.868a20.353,20.353,0,0,0,6.045-.837,16.276,16.276,0,0,0,5.115-2.7,1.5,1.5,0,0,1,.806-.372q.744,0,.744,1.116V-5.642q0,3.844,6.758,3.844h.93a.34.34,0,0,1,.341.217,1.964,1.964,0,0,1,.093.713q0,.868-.434.868ZM61.274-.765A1.052,1.052,0,0,1,60.194,0H36.7a.247.247,0,0,1-.248-.157,1.26,1.26,0,0,1-.068-.472q0-.675.315-.675h.72a5.49,5.49,0,0,0,2.97-.608,2.443,2.443,0,0,0,.9-2.182v-24.48a2.452,2.452,0,0,0-.945-2.205,5.361,5.361,0,0,0-2.925-.63H36.7q-.315,0-.315-.63t.315-.63h12.78a.283.283,0,0,1,.292.158,1.26,1.26,0,0,1,.068.472q0,.63-.36.63h-.675a5.313,5.313,0,0,0-2.97.653,2.461,2.461,0,0,0-.945,2.183v24.48A2.25,2.25,0,0,0,45.817-2a6.551,6.551,0,0,0,2.993.653l1.035.045,1.8-.045a11.457,11.457,0,0,0,6.435-1.823A18.965,18.965,0,0,0,62.624-7.83a.407.407,0,0,1,.36-.225,1.036,1.036,0,0,1,.4.135q.36.18.36.45l-.045.225-1.35,3.6ZM71.534,0q-.36,0-.36-.63t.36-.63h.72a5.382,5.382,0,0,0,2.925-.607,2.443,2.443,0,0,0,.9-2.183V-28.575a2.5,2.5,0,0,0-.9-2.228,5.382,5.382,0,0,0-2.925-.608h-.72q-.315,0-.315-.63v-.225a.384.384,0,0,1,.247-.338,2.048,2.048,0,0,1,.607-.068q.81-.045,4.5-.045,4.86,0,8.19.135a21.181,21.181,0,0,1,7.942,1.845,13.883,13.883,0,0,1,5.985,5.243,16.555,16.555,0,0,1,2.318,9.157,16.465,16.465,0,0,1-2.318,9.113,14.035,14.035,0,0,1-5.985,5.265A20.915,20.915,0,0,1,84.764-.09q-2.97.135-7.425.135ZM83.909-1.35a14.173,14.173,0,0,0,5.558-1.26,11.984,11.984,0,0,0,5.175-4.613q2.228-3.353,2.228-9.113,0-5.805-2.228-9.157a11.828,11.828,0,0,0-5.175-4.59,14.389,14.389,0,0,0-5.558-1.237h-.36a5.209,5.209,0,0,0-2.947.63,2.534,2.534,0,0,0-.878,2.2V-4.14A2.479,2.479,0,0,0,80.6-1.98a5.209,5.209,0,0,0,2.947.63Zm58.41.045a.247.247,0,0,1,.247.157,1.26,1.26,0,0,1,.068.473q0,.675-.315.675H128.864q-.315,0-.315-.675,0-.63.315-.63,3.645,0,3.645-1.35a2.527,2.527,0,0,0-.675-1.4l-9.81-11.61a.874.874,0,0,0-.675-.405,1.007,1.007,0,0,0-.675.36l-2.655,2.61a1.6,1.6,0,0,0-.495,1.17v7.83a2.443,2.443,0,0,0,.9,2.182,5.382,5.382,0,0,0,2.925.608h.765q.315,0,.315.63,0,.675-.315.675h-12.78q-.315,0-.315-.675a1.26,1.26,0,0,1,.068-.473.247.247,0,0,1,.247-.157h.675a5.329,5.329,0,0,0,2.97-.63,2.451,2.451,0,0,0,.9-2.16v-24.48a2.469,2.469,0,0,0-.923-2.228,5.506,5.506,0,0,0-2.948-.608h-.675q-.315,0-.315-.63t.315-.63h12.78a.283.283,0,0,1,.292.158,1.26,1.26,0,0,1,.068.472q0,.63-.36.63h-.765a5.209,5.209,0,0,0-2.948.63,2.534,2.534,0,0,0-.877,2.205V-16.56a.9.9,0,0,0,.157.562.47.47,0,0,0,.382.2.908.908,0,0,0,.63-.315q3.06-3.015,5.85-5.827t4.905-4.883l1.395-1.44a2.22,2.22,0,0,0,.675-1.395,1.454,1.454,0,0,0-.81-1.26,4.42,4.42,0,0,0-2.295-.5q-.315,0-.315-.63t.315-.63h11.655a.283.283,0,0,1,.292.158,1.26,1.26,0,0,1,.068.472q0,.63-.36.63a9.229,9.229,0,0,0-6.21,2.88q-1.08.99-9.135,8.865a1.037,1.037,0,0,0-.36.72,1.111,1.111,0,0,0,.27.63q.18.225.54.63t.855,1.08q1.89,2.205,5.332,6.345t4.478,5.31a12.961,12.961,0,0,0,3.15,2.88A6.667,6.667,0,0,0,142.319-1.3Zm20.1-12.167a.671.671,0,0,0,.176.5.671.671,0,0,0,.5.176h9.12q.672,0,.672.64t-.672.64H163.1a.671.671,0,0,0-.5.176.671.671,0,0,0-.176.5V-1.7q0,.672-.64.672t-.64-.672v-9.152a.671.671,0,0,0-.176-.5.671.671,0,0,0-.5-.176H151.32q-.672,0-.672-.64t.672-.64h9.152a.671.671,0,0,0,.5-.176.671.671,0,0,0,.176-.5v-9.152q0-.672.64-.672t.64.672Zm49.216-9.76a.2.2,0,0,1,.208.112.9.9,0,0,1,.048.336q0,.448-.256.448h-.48a2.925,2.925,0,0,0-1.712.64,3.867,3.867,0,0,0-1.328,1.952q-.288.8-2.336,8.1t-3.2,11.52a.676.676,0,0,1-.736.576h-.416a.723.723,0,0,1-.768-.576q-2.08-7.872-4.384-16.1a.6.6,0,0,0-.16-.352.369.369,0,0,0-.256-.128q-.256,0-.416.48l-4.416,16.1a.7.7,0,0,1-.768.576h-.416a.723.723,0,0,1-.768-.576q-1.088-4.32-3.024-11.792t-2.224-8.432a2.69,2.69,0,0,0-2.784-1.984h-.512q-.224,0-.224-.448t.224-.448h8.9a.2.2,0,0,1,.208.112.9.9,0,0,1,.048.336q0,.448-.256.448h-.48a3.535,3.535,0,0,0-1.84.416,1.311,1.311,0,0,0-.688,1.184,1.907,1.907,0,0,0,.032.416q.256,1.28,3.744,15.2.16.48.416.48a.369.369,0,0,0,.256-.128.6.6,0,0,0,.16-.352l4.032-14.624a1.89,1.89,0,0,0,.1-.512l-.032-.1a2.576,2.576,0,0,0-1.1-1.552,3.782,3.782,0,0,0-1.9-.432h-.544q-.224,0-.224-.448t.224-.448h8.7a.2.2,0,0,1,.208.112.9.9,0,0,1,.048.336q0,.448-.256.448h-.48a2.412,2.412,0,0,0-1.472.448,1.373,1.373,0,0,0-.608,1.152,1.706,1.706,0,0,0,.032.384l1.984,7.616q1.376,5.248,2.016,7.776.16.48.448.48t.416-.48q3.68-12.928,4.16-14.816a2.09,2.09,0,0,0,.064-.608,1.762,1.762,0,0,0-.64-1.408,2.385,2.385,0,0,0-1.6-.544h-.544q-.224,0-.224-.448t.224-.448ZM216.312,0q-.224,0-.224-.448t.224-.448h.512a3.694,3.694,0,0,0,2.1-.464,1.732,1.732,0,0,0,.656-1.52V-20.32a1.744,1.744,0,0,0-.672-1.568,3.813,3.813,0,0,0-2.08-.448h-.512q-.224,0-.224-.448t.224-.448h9.056a.2.2,0,0,1,.208.112.9.9,0,0,1,.048.336q0,.448-.256.448h-.48a3.779,3.779,0,0,0-2.128.448,1.8,1.8,0,0,0-.624,1.568V-2.88a1.737,1.737,0,0,0,.64,1.552,3.9,3.9,0,0,0,2.112.432h.48a.2.2,0,0,1,.208.112.9.9,0,0,1,.048.336q0,.448-.256.448Zm25.7.448a10.867,10.867,0,0,1-4.864-1.264,11.023,11.023,0,0,1-4.256-3.856,11.166,11.166,0,0,1-1.728-6.336,13.467,13.467,0,0,1,1.536-6.5,12,12,0,0,1,3.936-4.432,8.8,8.8,0,0,1,4.9-1.584,7.275,7.275,0,0,1,1.888.224q.832.224,1.92.608.416.16.816.288a2.255,2.255,0,0,0,.656.128,2.637,2.637,0,0,0,1.312-.384.856.856,0,0,1,.416-.16q.256,0,.352.384l1.088,4.48.064.352v.064a.329.329,0,0,1-.192.288l-.16.064h-.1a.527.527,0,0,1-.384-.224q-.16-.224-1.024-1.6a7.042,7.042,0,0,0-2.544-2.336,7.7,7.7,0,0,0-3.888-.96,6.02,6.02,0,0,0-4.912,2.064,10.463,10.463,0,0,0-2.24,4.464,19.453,19.453,0,0,0-.528,4.064,12.557,12.557,0,0,0,1.3,6.016,8.566,8.566,0,0,0,3.232,3.5,7.783,7.783,0,0,0,3.888,1.1,6.548,6.548,0,0,0,4.1-1.3,15.012,15.012,0,0,0,3.232-3.568q.16-.192.288-.192a.556.556,0,0,1,.32.16.514.514,0,0,1,.224.352.491.491,0,0,1-.064.192Q247.352.448,242.008.448Zm22.624-13.472a.671.671,0,0,0,.176.5.671.671,0,0,0,.5.176h6.432a.671.671,0,0,1,.5.176.671.671,0,0,1,.176.5v.256a.671.671,0,0,1-.176.5.671.671,0,0,1-.5.176H265.3a.671.671,0,0,0-.5.176.671.671,0,0,0-.176.5v6.432a.671.671,0,0,1-.176.5.671.671,0,0,1-.5.176H263.7a.671.671,0,0,1-.5-.176.671.671,0,0,1-.176-.5V-10.08a.671.671,0,0,0-.176-.5.671.671,0,0,0-.5-.176h-6.432a.671.671,0,0,1-.5-.176.671.671,0,0,1-.176-.5v-.256a.671.671,0,0,1,.176-.5.671.671,0,0,1,.5-.176h6.432a.671.671,0,0,0,.5-.176.671.671,0,0,0,.176-.5v-6.432a.671.671,0,0,1,.176-.5.671.671,0,0,1,.5-.176h.256a.671.671,0,0,1,.5.176.671.671,0,0,1,.176.5ZM286.776.416a14.446,14.446,0,0,1-2.736-.3A17.007,17.007,0,0,1,281.3-.64a2.513,2.513,0,0,0-.8-.128,2.049,2.049,0,0,0-1.28.512.691.691,0,0,1-.448.192q-.288,0-.448-.48l-1.28-5.376-.032-.192q0-.16.32-.288l.192-.032a.39.39,0,0,1,.352.256Q280.92-.7,286.456-.7a7.728,7.728,0,0,0,3.92-1.04,3.774,3.774,0,0,0,1.808-3.568,4.117,4.117,0,0,0-.64-2.192,4.668,4.668,0,0,0-1.856-1.68,14.529,14.529,0,0,0-1.92-.832q-.928-.32-2.272-.736a22.446,22.446,0,0,1-2.816-.96,7.88,7.88,0,0,1-3.376-2.56,5.592,5.592,0,0,1-.912-3.1A6.963,6.963,0,0,1,278.968-20a5.686,5.686,0,0,1,2.064-2.464,6.816,6.816,0,0,1,4.016-1.056,9.644,9.644,0,0,1,1.984.208,17.4,17.4,0,0,1,2.176.624,3.261,3.261,0,0,0,.864.16,1.738,1.738,0,0,0,1.12-.416.817.817,0,0,1,.48-.192q.32,0,.416.416l1.344,4.608.032.224q0,.192-.256.288a1.016,1.016,0,0,1-.288.064.376.376,0,0,1-.32-.192,12.1,12.1,0,0,0-1.376-1.728,11.005,11.005,0,0,0-2.656-2.048,7.293,7.293,0,0,0-3.712-.96,4.391,4.391,0,0,0-3.008.912,4.216,4.216,0,0,0-1.312,1.856,5.4,5.4,0,0,0-.288,1.424q0,2.272,2.72,3.648a26.571,26.571,0,0,0,3.584,1.28q1.408.416,2.416.768a16.728,16.728,0,0,1,1.968.832,6.3,6.3,0,0,1,3.712,5.952,5.56,5.56,0,0,1-.944,3.168A6.366,6.366,0,0,1,290.968-.4,10.032,10.032,0,0,1,286.776.416ZM300.152,0q-.224,0-.224-.448t.224-.448h.512a3.694,3.694,0,0,0,2.1-.464,1.732,1.732,0,0,0,.656-1.52V-20.32a1.744,1.744,0,0,0-.672-1.568,3.812,3.812,0,0,0-2.08-.448h-.512q-.224,0-.224-.448t.224-.448h9.056a.2.2,0,0,1,.208.112.9.9,0,0,1,.048.336q0,.448-.256.448h-.48a3.779,3.779,0,0,0-2.128.448,1.8,1.8,0,0,0-.624,1.568V-2.88a1.737,1.737,0,0,0,.64,1.552,3.9,3.9,0,0,0,2.112.432h.48a.2.2,0,0,1,.208.112.9.9,0,0,1,.048.336q0,.448-.256.448Zm25.7.448a10.867,10.867,0,0,1-4.864-1.264,11.023,11.023,0,0,1-4.256-3.856A11.166,11.166,0,0,1,315-11.008a13.467,13.467,0,0,1,1.536-6.5,12,12,0,0,1,3.936-4.432,8.8,8.8,0,0,1,4.9-1.584,7.275,7.275,0,0,1,1.888.224q.832.224,1.92.608.416.16.816.288a2.255,2.255,0,0,0,.656.128,2.637,2.637,0,0,0,1.312-.384.856.856,0,0,1,.416-.16q.256,0,.352.384l1.088,4.48.064.352v.064a.329.329,0,0,1-.192.288l-.16.064h-.1a.527.527,0,0,1-.384-.224q-.16-.224-1.024-1.6a7.042,7.042,0,0,0-2.544-2.336,7.7,7.7,0,0,0-3.888-.96,6.02,6.02,0,0,0-4.912,2.064,10.463,10.463,0,0,0-2.24,4.464,19.454,19.454,0,0,0-.528,4.064,12.557,12.557,0,0,0,1.3,6.016,8.566,8.566,0,0,0,3.232,3.5,7.783,7.783,0,0,0,3.888,1.1,6.548,6.548,0,0,0,4.1-1.3,15.011,15.011,0,0,0,3.232-3.568q.16-.192.288-.192a.556.556,0,0,1,.32.16.514.514,0,0,1,.224.352.491.491,0,0,1-.064.192Q331.192.448,325.848.448Z" transform="translate(705.799 2609.894)" fill="#333"/><path d="M-41.388,0q-.168,0-.168-.336t.168-.336H-41a2.778,2.778,0,0,0,1.572-.336,1.352,1.352,0,0,0,.468-1.176V-15.24a1.321,1.321,0,0,0-.492-1.176A2.8,2.8,0,0,0-41-16.752h-.384q-.168,0-.168-.336v-.12a.2.2,0,0,1,.132-.18,1.092,1.092,0,0,1,.324-.036l3.912-.024q2.328,0,3.408.024a7.478,7.478,0,0,1,4.128,1.152A3.4,3.4,0,0,1-28.02-13.32a3.007,3.007,0,0,1-1.08,2.376A7.388,7.388,0,0,1-31.884-9.5q-.288.072-.288.192,0,.1.288.168a9.223,9.223,0,0,1,3.468,1.608A3.333,3.333,0,0,1-27.036-4.8a4,4,0,0,1-.876,2.58,5.423,5.423,0,0,1-2.34,1.656A8.945,8.945,0,0,1-33.492,0Zm4.368-10.152a.5.5,0,0,0,.132.372.5.5,0,0,0,.372.132h.12q3.48,0,4.812-1.008a3.273,3.273,0,0,0,1.332-2.76,2.859,2.859,0,0,0-1.26-2.412,5.99,5.99,0,0,0-3.588-.924,2.426,2.426,0,0,0-1.476.348,1.392,1.392,0,0,0-.444,1.164Zm2.112,9.48a7.2,7.2,0,0,0,4.02-1.044,3.471,3.471,0,0,0,1.6-3.108q0-4.128-7.1-4.128h-.12a.5.5,0,0,0-.372.132.5.5,0,0,0-.132.372v6.264A1.332,1.332,0,0,0-36.54-1a2.87,2.87,0,0,0,1.56.324Zm28.944,0a.117.117,0,0,1,.12.108,1.049,1.049,0,0,1,.024.228Q-5.82,0-5.964,0H-12.78a.132.132,0,0,1-.132-.084.672.672,0,0,1-.036-.252.672.672,0,0,1,.036-.252.132.132,0,0,1,.132-.084A4.154,4.154,0,0,0-11.2-.948a1,1,0,0,0,.672-1,1.6,1.6,0,0,0-.1-.552L-11.8-5.88a.561.561,0,0,0-.576-.408h-5.76a.561.561,0,0,0-.576.408l-.408,1.128-.528,1.536A3.178,3.178,0,0,0-19.86-2.16q0,1.488,2.28,1.488a.117.117,0,0,1,.12.108,1.049,1.049,0,0,1,.024.228q0,.336-.144.336h-5.9a.132.132,0,0,1-.132-.084.672.672,0,0,1-.036-.252.672.672,0,0,1,.036-.252.132.132,0,0,1,.132-.084,2.469,2.469,0,0,0,1.416-.5,3.539,3.539,0,0,0,1.176-1.656l5.4-14.328a.791.791,0,0,1,.5-.48l.408-.12a.978.978,0,0,1,.336-.072.278.278,0,0,1,.192.048.285.285,0,0,1,.144.168l.816,2.376q.816,2.328,2.46,7.056T-8.7-2.736A2.771,2.771,0,0,0-5.964-.672Zm-12.048-7.1a.762.762,0,0,0-.048.216.32.32,0,0,0,.12.264.525.525,0,0,0,.336.1h4.752q.456,0,.456-.384l-.048-.192-2.4-6.912a1.344,1.344,0,0,0-.24-.5q-.144-.168-.192-.048Q-16.62-11.712-18.012-7.776ZM4.956.312A10.835,10.835,0,0,1,2.9.084,12.755,12.755,0,0,1,.852-.48a1.885,1.885,0,0,0-.6-.1,1.537,1.537,0,0,0-.96.384.519.519,0,0,1-.336.144q-.216,0-.336-.36L-2.34-4.44l-.024-.144q0-.12.24-.216l.144-.024a.293.293,0,0,1,.264.192q2.28,4.1,6.432,4.1a5.8,5.8,0,0,0,2.94-.78A2.831,2.831,0,0,0,9.012-3.984a3.088,3.088,0,0,0-.48-1.644A3.5,3.5,0,0,0,7.14-6.888,10.9,10.9,0,0,0,5.7-7.512Q5-7.752,4-8.064a16.835,16.835,0,0,1-2.112-.72A5.91,5.91,0,0,1-.648-10.7a4.194,4.194,0,0,1-.684-2.328A5.222,5.222,0,0,1-.9-15,4.265,4.265,0,0,1,.648-16.848,5.112,5.112,0,0,1,3.66-17.64a7.233,7.233,0,0,1,1.488.156,13.048,13.048,0,0,1,1.632.468,2.446,2.446,0,0,0,.648.12,1.3,1.3,0,0,0,.84-.312.613.613,0,0,1,.36-.144q.24,0,.312.312l1.008,3.456.024.168q0,.144-.192.216a.762.762,0,0,1-.216.048.282.282,0,0,1-.24-.144,9.075,9.075,0,0,0-1.032-1.3A8.254,8.254,0,0,0,6.3-16.128a5.47,5.47,0,0,0-2.784-.72,3.293,3.293,0,0,0-2.256.684,3.162,3.162,0,0,0-.984,1.392A4.049,4.049,0,0,0,.06-13.7,3.09,3.09,0,0,0,2.1-10.968a19.928,19.928,0,0,0,2.688.96Q5.844-9.7,6.6-9.432a12.547,12.547,0,0,1,1.476.624A4.724,4.724,0,0,1,10.86-4.344a4.17,4.17,0,0,1-.708,2.376A4.775,4.775,0,0,1,8.1-.3,7.524,7.524,0,0,1,4.956.312ZM15.468,0Q15.3,0,15.3-.336t.168-.336h.384a2.771,2.771,0,0,0,1.572-.348,1.3,1.3,0,0,0,.492-1.14V-15.24a1.308,1.308,0,0,0-.5-1.176,2.859,2.859,0,0,0-1.56-.336h-.384q-.168,0-.168-.336t.168-.336H22.26a.151.151,0,0,1,.156.084.672.672,0,0,1,.036.252q0,.336-.192.336H21.9a2.834,2.834,0,0,0-1.6.336,1.352,1.352,0,0,0-.468,1.176V-2.16A1.3,1.3,0,0,0,20.316-1,2.928,2.928,0,0,0,21.9-.672h.36a.151.151,0,0,1,.156.084.672.672,0,0,1,.036.252q0,.336-.192.336ZM35.22.336a8.15,8.15,0,0,1-3.648-.948A8.268,8.268,0,0,1,28.38-3.5a8.374,8.374,0,0,1-1.3-4.752,10.1,10.1,0,0,1,1.152-4.872,9,9,0,0,1,2.952-3.324A6.6,6.6,0,0,1,34.86-17.64a5.457,5.457,0,0,1,1.416.168q.624.168,1.44.456.312.12.612.216a1.692,1.692,0,0,0,.492.1,1.978,1.978,0,0,0,.984-.288.642.642,0,0,1,.312-.12q.192,0,.264.288l.816,3.36.048.264v.048a.247.247,0,0,1-.144.216l-.12.048h-.072a.4.4,0,0,1-.288-.168q-.12-.168-.768-1.2a5.281,5.281,0,0,0-1.908-1.752,5.774,5.774,0,0,0-2.916-.72,4.515,4.515,0,0,0-3.684,1.548,7.847,7.847,0,0,0-1.68,3.348,14.59,14.59,0,0,0-.4,3.048,9.418,9.418,0,0,0,.972,4.512,6.425,6.425,0,0,0,2.424,2.628,5.837,5.837,0,0,0,2.916.828,4.911,4.911,0,0,0,3.072-.972,11.259,11.259,0,0,0,2.424-2.676q.12-.144.216-.144a.417.417,0,0,1,.24.12.385.385,0,0,1,.168.264.368.368,0,0,1-.048.144Q39.228.336,35.22.336Zm-64.428,17.24a7.345,7.345,0,0,1,2.82.588,5.256,5.256,0,0,1,2.112,1.6,3.829,3.829,0,0,1,.8,2.424,3.761,3.761,0,0,1-1.764,3.588,10.626,10.626,0,0,1-4.5,1.188q-.312.024-1.368.024h-.864a.5.5,0,0,0-.372.132.5.5,0,0,0-.132.372v5.328a1.336,1.336,0,0,0,.48,1.176,2.842,2.842,0,0,0,1.584.336h.384q.168,0,.168.312,0,.36-.168.36H-36.84q-.168,0-.168-.336t.168-.336h.384a2.869,2.869,0,0,0,1.548-.336,1.3,1.3,0,0,0,.516-1.176V19.76a1.313,1.313,0,0,0-.5-1.164,2.779,2.779,0,0,0-1.56-.348h-.384q-.168,0-.168-.336t.168-.336ZM-30.6,26.288a5.258,5.258,0,0,0,3.792-1.152,4.17,4.17,0,0,0,1.1-3.048q0-2.448-1.6-3.144a7.955,7.955,0,0,0-3.2-.7q-1.968,0-1.968,1.512v6.024a.5.5,0,0,0,.132.372.5.5,0,0,0,.372.132Zm24.5,8.3A.561.561,0,0,1-6.672,35H-19.2a.132.132,0,0,1-.132-.084.672.672,0,0,1-.036-.252q0-.36.168-.36h.384a2.928,2.928,0,0,0,1.584-.324,1.3,1.3,0,0,0,.48-1.164V19.76a1.308,1.308,0,0,0-.5-1.176,2.859,2.859,0,0,0-1.56-.336H-19.2q-.168,0-.168-.336t.168-.336h6.816a.151.151,0,0,1,.156.084.672.672,0,0,1,.036.252q0,.336-.192.336h-.36a2.834,2.834,0,0,0-1.584.348,1.313,1.313,0,0,0-.5,1.164V32.816a1.2,1.2,0,0,0,.492,1.116,3.494,3.494,0,0,0,1.6.348l.552.024.96-.024A6.111,6.111,0,0,0-7.8,33.308a10.115,10.115,0,0,0,2.424-2.484.217.217,0,0,1,.192-.12.553.553,0,0,1,.216.072q.192.1.192.24l-.024.12-.72,1.92Zm22.224-.264a.117.117,0,0,1,.12.108,1.049,1.049,0,0,1,.024.228q0,.336-.144.336H9.312a.132.132,0,0,1-.132-.084.9.9,0,0,1,0-.5.132.132,0,0,1,.132-.084,4.154,4.154,0,0,0,1.584-.276,1,1,0,0,0,.672-1,1.6,1.6,0,0,0-.1-.552L10.3,29.12a.561.561,0,0,0-.576-.408H3.96a.561.561,0,0,0-.576.408l-.408,1.128-.528,1.536a3.178,3.178,0,0,0-.216,1.056q0,1.488,2.28,1.488a.117.117,0,0,1,.12.108,1.049,1.049,0,0,1,.024.228q0,.336-.144.336h-5.9a.132.132,0,0,1-.132-.084.672.672,0,0,1-.036-.252.672.672,0,0,1,.036-.252.132.132,0,0,1,.132-.084,2.469,2.469,0,0,0,1.416-.5A3.539,3.539,0,0,0,1.2,32.168L6.6,17.84a.791.791,0,0,1,.5-.48l.408-.12a.978.978,0,0,1,.336-.072.278.278,0,0,1,.192.048.285.285,0,0,1,.144.168L9,19.76q.816,2.328,2.46,7.056t1.932,5.448A2.771,2.771,0,0,0,16.128,34.328ZM4.08,27.224a.762.762,0,0,0-.048.216.32.32,0,0,0,.12.264.525.525,0,0,0,.336.1H9.24q.456,0,.456-.384l-.048-.192-2.4-6.912a1.345,1.345,0,0,0-.24-.5q-.144-.168-.192-.048Q5.472,23.288,4.08,27.224ZM19.848,35q-.144,0-.144-.36,0-.312.144-.312h.384a2.094,2.094,0,0,0,1.4-.552,1.74,1.74,0,0,0,.636-1.368V19.736a1.307,1.307,0,0,0-.48-1.152,2.786,2.786,0,0,0-1.56-.336h-.384q-.168,0-.168-.336t.168-.336h3.864a.69.69,0,0,1,.6.312L33.1,30.3q.168.24.336.24.288,0,.288-.432V20.168A1.613,1.613,0,0,0,33.4,19.2a2.286,2.286,0,0,0-.816-.7,2.078,2.078,0,0,0-.948-.252h-.36a.151.151,0,0,1-.156-.084.672.672,0,0,1-.036-.252q0-.336.192-.336H37.08a.151.151,0,0,1,.156.084.672.672,0,0,1,.036.252q0,.336-.192.336H36.7a2.069,2.069,0,0,0-1.4.564,1.751,1.751,0,0,0-.636,1.356V34.5a.692.692,0,0,1-.084.372.241.241,0,0,1-.2.132.614.614,0,0,1-.5-.312L23.856,20.408q-.168-.24-.336-.24-.288,0-.288.432V32.408a1.7,1.7,0,0,0,.672,1.368,2.2,2.2,0,0,0,1.416.552H25.7q.168,0,.168.312,0,.36-.168.36Z" transform="translate(578.75 2581.471)" fill="#333"/><path d="M729.523.5H0v-1H729.523Z" transform="translate(502.649 2643.688)" fill="#7590a6"/></g></svg>