<svg xmlns="http://www.w3.org/2000/svg" xmlns:xlink="http://www.w3.org/1999/xlink" width="710" height="265" viewBox="0 0 710 265"><defs><linearGradient id="a" x1="0.5" x2="0.5" y2="1" gradientUnits="objectBoundingBox"><stop offset="0" stop-color="#253339"/><stop offset="1" stop-color="#4e6d77"/></linearGradient></defs><g transform="translate(-240 -23387)"><rect width="710" height="265" transform="translate(240 23387)" fill="url(#a)"/><rect width="690" height="185" transform="translate(250 23457)" fill="#24343a"/><path d="M-287.97.98a12.294,12.294,0,0,1-7.805-2.94,20.392,20.392,0,0,1-5.95-8.89A40.709,40.709,0,0,1-304-25.34a40.774,40.774,0,0,1,2.275-14.455,20.5,20.5,0,0,1,5.985-8.96,12.432,12.432,0,0,1,7.91-2.975,12.346,12.346,0,0,1,7.84,2.975,20.5,20.5,0,0,1,5.985,8.96A40.774,40.774,0,0,1-271.73-25.34a39.862,39.862,0,0,1-2.31,14.455A20.762,20.762,0,0,1-280.06-2,12.432,12.432,0,0,1-287.97.98Zm.14-2.45q4.2,0,6.58-5.95t2.38-17.92q0-11.97-2.38-17.955t-6.58-5.985q-4.27,0-6.685,5.985T-296.93-25.34q0,11.97,2.415,17.92T-287.83-1.47ZM-246.39.98A12.294,12.294,0,0,1-254.2-1.96a20.392,20.392,0,0,1-5.95-8.89,40.709,40.709,0,0,1-2.275-14.49,40.774,40.774,0,0,1,2.275-14.455,20.5,20.5,0,0,1,5.985-8.96,12.432,12.432,0,0,1,7.91-2.975,12.346,12.346,0,0,1,7.84,2.975,20.5,20.5,0,0,1,5.985,8.96A40.774,40.774,0,0,1-230.15-25.34a39.862,39.862,0,0,1-2.31,14.455A20.762,20.762,0,0,1-238.48-2,12.432,12.432,0,0,1-246.39.98Zm.14-2.45q4.2,0,6.58-5.95t2.38-17.92q0-11.97-2.38-17.955t-6.58-5.985q-4.27,0-6.685,5.985T-255.35-25.34q0,11.97,2.415,17.92T-246.25-1.47ZM-204.81.98a12.294,12.294,0,0,1-7.805-2.94,20.392,20.392,0,0,1-5.95-8.89,40.709,40.709,0,0,1-2.275-14.49,40.774,40.774,0,0,1,2.275-14.455,20.5,20.5,0,0,1,5.985-8.96,12.432,12.432,0,0,1,7.91-2.975,12.346,12.346,0,0,1,7.84,2.975,20.5,20.5,0,0,1,5.985,8.96A40.774,40.774,0,0,1-188.57-25.34a39.862,39.862,0,0,1-2.31,14.455A20.762,20.762,0,0,1-196.9-2,12.432,12.432,0,0,1-204.81.98Zm.14-2.45q4.2,0,6.58-5.95t2.38-17.92q0-11.97-2.38-17.955t-6.58-5.985q-4.27,0-6.685,5.985T-213.77-25.34q0,11.97,2.415,17.92T-204.67-1.47Zm27.72,9.38a.411.411,0,0,1-.35-.21.68.68,0,0,1-.14-.35.4.4,0,0,1,.14-.28,11.588,11.588,0,0,0,2.135-2.45,4.14,4.14,0,0,0,.735-2.1A1.767,1.767,0,0,0-175.48.77q-2.73-1.33-2.73-3.71a4.019,4.019,0,0,1,1.225-3.01,4.111,4.111,0,0,1,2.975-1.19,3.97,3.97,0,0,1,2.905,1.225A4.22,4.22,0,0,1-169.88-2.8a10.458,10.458,0,0,1-2.065,6.37,14.79,14.79,0,0,1-4.725,4.27ZM-143.42.98a12.294,12.294,0,0,1-7.8-2.94,20.392,20.392,0,0,1-5.95-8.89,40.709,40.709,0,0,1-2.275-14.49,40.774,40.774,0,0,1,2.275-14.455,20.5,20.5,0,0,1,5.985-8.96,12.432,12.432,0,0,1,7.91-2.975,12.346,12.346,0,0,1,7.84,2.975,20.5,20.5,0,0,1,5.985,8.96A40.774,40.774,0,0,1-127.18-25.34a39.862,39.862,0,0,1-2.31,14.455A20.762,20.762,0,0,1-135.51-2,12.432,12.432,0,0,1-143.42.98Zm.14-2.45q4.2,0,6.58-5.95t2.38-17.92q0-11.97-2.38-17.955t-6.58-5.985q-4.27,0-6.685,5.985T-152.38-25.34q0,11.97,2.415,17.92T-143.28-1.47ZM-101.84.98a12.294,12.294,0,0,1-7.805-2.94,20.392,20.392,0,0,1-5.95-8.89,40.709,40.709,0,0,1-2.275-14.49A40.774,40.774,0,0,1-115.6-39.795a20.5,20.5,0,0,1,5.985-8.96,12.432,12.432,0,0,1,7.91-2.975,12.346,12.346,0,0,1,7.84,2.975,20.5,20.5,0,0,1,5.985,8.96A40.774,40.774,0,0,1-85.6-25.34a39.862,39.862,0,0,1-2.31,14.455A20.762,20.762,0,0,1-93.93-2,12.432,12.432,0,0,1-101.84.98Zm.14-2.45q4.2,0,6.58-5.95t2.38-17.92q0-11.97-2.38-17.955t-6.58-5.985q-4.27,0-6.685,5.985T-110.8-25.34q0,11.97,2.415,17.92T-101.7-1.47ZM-60.26.98a12.294,12.294,0,0,1-7.805-2.94,20.392,20.392,0,0,1-5.95-8.89A40.709,40.709,0,0,1-76.29-25.34a40.774,40.774,0,0,1,2.275-14.455,20.5,20.5,0,0,1,5.985-8.96,12.432,12.432,0,0,1,7.91-2.975,12.346,12.346,0,0,1,7.84,2.975,20.5,20.5,0,0,1,5.985,8.96A40.774,40.774,0,0,1-44.02-25.34a39.862,39.862,0,0,1-2.31,14.455A20.762,20.762,0,0,1-52.35-2,12.432,12.432,0,0,1-60.26.98Zm.14-2.45q4.2,0,6.58-5.95t2.38-17.92q0-11.97-2.38-17.955t-6.58-5.985q-4.27,0-6.685,5.985T-69.22-25.34q0,11.97,2.415,17.92T-60.12-1.47Zm30.746-12.324a.8.8,0,0,0-.589.209.8.8,0,0,0-.209.589v5.7q.076,4.1.266,8.4V1.33a.986.986,0,0,1-.3.722,3.254,3.254,0,0,1-1.045.684A3.323,3.323,0,0,1-32.566,3a1.033,1.033,0,0,1-.665-.228.668.668,0,0,1-.285-.532q.152-2.242.266-4.351t.152-5.529v-14.82a58.436,58.436,0,0,0-.342-6.65v-.152q0-.57.494-.57a.846.846,0,0,1,.38.076l2.2.988a2.523,2.523,0,0,0,.988.228h20.71a1.092,1.092,0,0,0,.95-.494l.3-.418q.114-.152.3-.418a3.29,3.29,0,0,1,.323-.4A.4.4,0,0,1-6.5-30.4a4.038,4.038,0,0,1,1.349.779A11.58,11.58,0,0,1-3.5-28.234a.822.822,0,0,1,.19.418.562.562,0,0,1-.342.494l-.418.228a1.5,1.5,0,0,0-.513.342.767.767,0,0,0-.171.532V-1.292A5.724,5.724,0,0,1-5.035.684,2.529,2.529,0,0,1-6.194,1.957a7.545,7.545,0,0,1-2.584.779h-.114a.815.815,0,0,1-.836-.684A2.424,2.424,0,0,0-10.6.722,8.558,8.558,0,0,0-13.794-.3q-.76-.114-.76-.418,0-.228.608-.228.266,0,3.23.19.646.038,1.159.076t.855.038a1.113,1.113,0,0,0,.8-.228A.987.987,0,0,0-7.676-1.6V-13a.8.8,0,0,0-.209-.589.8.8,0,0,0-.589-.209Zm8.854-12.882a.8.8,0,0,0-.209-.589.8.8,0,0,0-.589-.209h-8.056a.8.8,0,0,0-.589.209.8.8,0,0,0-.209.589v10.982a.8.8,0,0,0,.209.589.8.8,0,0,0,.589.209h8.056a.8.8,0,0,0,.589-.209.8.8,0,0,0,.209-.589Zm3.724-.8a.8.8,0,0,0-.589.209.8.8,0,0,0-.209.589v10.982a.8.8,0,0,0,.209.589.8.8,0,0,0,.589.209h8.322a.8.8,0,0,0,.589-.209.8.8,0,0,0,.209-.589V-26.676a.8.8,0,0,0-.209-.589.8.8,0,0,0-.589-.209Z" transform="translate(873 23575)" fill="#c7b469"/><path d="M-83.424-14.872a.621.621,0,0,0,.55-.308l.264-.4q.066-.088.2-.3a1.84,1.84,0,0,1,.231-.308.278.278,0,0,1,.187-.1q.154,0,.748.539a6.056,6.056,0,0,1,.858.913.484.484,0,0,1,.11.264.315.315,0,0,1-.132.242.792.792,0,0,1-.4.088h-2.772a.461.461,0,0,0-.341.121.461.461,0,0,0-.121.341V-13a.51.51,0,0,0,.418.506,5.278,5.278,0,0,1,2.167,1.155,1.972,1.972,0,0,1,.693,1.353.952.952,0,0,1-.209.627.667.667,0,0,1-.539.253H-81.6a.767.767,0,0,1-.484-.242.774.774,0,0,1-.176-.308,6.824,6.824,0,0,0-1.21-1.936.328.328,0,0,0-.286-.176.252.252,0,0,0-.2.11.481.481,0,0,0-.088.308v1.166q.066,2.42.132,3.608v.132a.542.542,0,0,1-.2.418,2.057,2.057,0,0,1-.583.308,1.975,1.975,0,0,1-.671.132A.439.439,0,0,1-85.7-5.72a.441.441,0,0,1-.121-.308q.088-1.232.154-3.344v-.9a.641.641,0,0,0-.055-.286.176.176,0,0,0-.165-.11q-.154,0-.33.242a14.367,14.367,0,0,1-3.168,3.41.913.913,0,0,1-.308.165q-.132.033-.176-.033A.149.149,0,0,1-89.914-7a.705.705,0,0,1,.2-.374A15.184,15.184,0,0,0-87.8-10.285a22.956,22.956,0,0,0,1.408-3.421.572.572,0,0,0,.022-.176q0-.352-.418-.352h-.55a8.357,8.357,0,0,0-1.584.2.572.572,0,0,1-.176.022.466.466,0,0,1-.418-.286l-.088-.154a.548.548,0,0,1-.066-.242.263.263,0,0,1,.121-.22.443.443,0,0,1,.319-.066q.726.066,2.2.11h.9a.408.408,0,0,0,.462-.462q-.044-1.716-.154-2.794v-.088q0-.352.33-.352a.572.572,0,0,1,.176.022q1.826.506,1.826.792,0,.088-.176.2l-.066.044a.621.621,0,0,0-.308.55v1.628a.461.461,0,0,0,.121.341.461.461,0,0,0,.341.121Zm9.416-2.2a.621.621,0,0,0,.55-.308l.2-.286q.088-.11.176-.242a2.112,2.112,0,0,1,.187-.242.269.269,0,0,1,.187-.11,2.1,2.1,0,0,1,.748.484,6.827,6.827,0,0,1,.924.88.379.379,0,0,1,.088.242q0,.154-.22.308l-.22.11a.871.871,0,0,0-.3.2.444.444,0,0,0-.1.308v4q.044,2.4.154,4.84V-6.8a.511.511,0,0,1-.242.462,2.872,2.872,0,0,1-.638.308,2.067,2.067,0,0,1-.682.132.3.3,0,0,1-.286-.154.548.548,0,0,1-.066-.242,1.2,1.2,0,0,1,.044-.264l.044-.22q0-.44-.462-.44H-77.7a.461.461,0,0,0-.341.121.461.461,0,0,0-.121.341v.44q0,.176-.429.385a2.058,2.058,0,0,1-.913.209.485.485,0,0,1-.341-.132.407.407,0,0,1-.143-.308q.154-2.134.2-4.708v-2.6a34.423,34.423,0,0,0-.2-3.872v-.088q0-.33.286-.33a.49.49,0,0,1,.22.044l1.166.506a1.461,1.461,0,0,0,.572.132Zm.088,3.036a.461.461,0,0,0,.341-.121.461.461,0,0,0,.121-.341v-1.474a.461.461,0,0,0-.121-.341.461.461,0,0,0-.341-.121H-77.7a.461.461,0,0,0-.341.121.461.461,0,0,0-.121.341V-14.5a.461.461,0,0,0,.121.341.461.461,0,0,0,.341.121ZM-77.7-13.4a.461.461,0,0,0-.341.121.461.461,0,0,0-.121.341v1.474a.461.461,0,0,0,.121.341A.461.461,0,0,0-77.7-11h3.784a.461.461,0,0,0,.341-.121.461.461,0,0,0,.121-.341v-1.474a.461.461,0,0,0-.121-.341.461.461,0,0,0-.341-.121Zm0,3.058a.461.461,0,0,0-.341.121.461.461,0,0,0-.121.341v1.584a.461.461,0,0,0,.121.341.461.461,0,0,0,.341.121h3.784a.461.461,0,0,0,.341-.121.461.461,0,0,0,.121-.341V-9.878a.461.461,0,0,0-.121-.341.461.461,0,0,0-.341-.121Zm-3.96,5.1a1.642,1.642,0,0,1-.275-.253q-.077-.1-.033-.143a.255.255,0,0,1,.176-.044,1.508,1.508,0,0,1,.286.022,5.294,5.294,0,0,1,2.673,1.089,2.193,2.193,0,0,1,.869,1.6,1.074,1.074,0,0,1-.22.693A.7.7,0,0,1-78.76-2a1.2,1.2,0,0,1-.264-.044.6.6,0,0,1-.4-.4,6.085,6.085,0,0,0-.924-1.474A9.354,9.354,0,0,0-81.664-5.236Zm-2.75,2.6A16.966,16.966,0,0,0-84.5-4.488v-.044q0-.4.33-.4l.2.044a10.2,10.2,0,0,1,1.309.462q.363.176.363.308,0,.066-.154.176l-.022.022a.669.669,0,0,0-.286.55V-.682a.29.29,0,0,0,.176.308,3.126,3.126,0,0,0,.836.066h2.6q2.024,0,2.354-.022a1.405,1.405,0,0,0,.33-.088.466.466,0,0,0,.176-.2,2.016,2.016,0,0,0,.11-.264q.2-.594.506-1.716.132-.418.264-.418t.132.462L-75.24-.9a.481.481,0,0,0,.088.308.965.965,0,0,0,.286.22.583.583,0,0,1,.33.55.742.742,0,0,1-.374.671,3.555,3.555,0,0,1-1.386.33q-1.012.1-2.97.1h-2.75a6.45,6.45,0,0,1-1.529-.132,1.029,1.029,0,0,1-.682-.473,2.19,2.19,0,0,1-.187-1.023Zm9.394-1.43q-.4-.352-.286-.418a.215.215,0,0,1,.154-.044,1.055,1.055,0,0,1,.308.066,8.924,8.924,0,0,1,2.486,1.133,4.794,4.794,0,0,1,1.4,1.375,2.562,2.562,0,0,1,.429,1.32,1.244,1.244,0,0,1-.242.792.751.751,0,0,1-.616.308.873.873,0,0,1-.4-.088.672.672,0,0,1-.374-.44,6.923,6.923,0,0,0-1.111-2.09A12.534,12.534,0,0,0-75.02-4.07Zm-11.726.044q.132-.44.286-.44.176.044.242.418.044.528.044.748A4.644,4.644,0,0,1-86.7-1.023a3.7,3.7,0,0,1-1.232,1.4,1.711,1.711,0,0,1-.9.286.976.976,0,0,1-.638-.2.723.723,0,0,1-.242-.594.934.934,0,0,1,.2-.572,1.639,1.639,0,0,1,.506-.44,3.907,3.907,0,0,0,1.375-1.122A4.451,4.451,0,0,0-86.746-4.026ZM-53.174-6.49a.632.632,0,0,0,.55-.286l.286-.418q.088-.11.231-.308t.231-.3a.244.244,0,0,1,.176-.1,2.313,2.313,0,0,1,.836.528,5.724,5.724,0,0,1,.946.9.484.484,0,0,1,.11.264.315.315,0,0,1-.132.242.665.665,0,0,1-.4.11H-55.9a.461.461,0,0,0-.341.121.461.461,0,0,0-.121.341v4.334a.454.454,0,0,0,.418.506q1.452.132,3.234.132,3.432,0,4.884-.022h.11q.352,0,.352.132,0,.066-.143.165L-47.718,0a1.354,1.354,0,0,0-.55.9.49.49,0,0,1-.506.418h-4.07A18.486,18.486,0,0,1-56.958.935,6.843,6.843,0,0,1-59.807-.44,7.563,7.563,0,0,1-61.82-3.256q-.132-.286-.264-.286-.154,0-.286.264a11.545,11.545,0,0,1-4.136,4.84q-.352.22-.462.11a.09.09,0,0,1-.022-.066q0-.132.242-.374a13.282,13.282,0,0,0,3.124-5.324,13.186,13.186,0,0,0,.451-1.969,15.415,15.415,0,0,0,.187-1.969.385.385,0,0,1,.143-.341.546.546,0,0,1,.407-.055q2,.418,2,.682,0,.088-.2.176l-.066.022a.719.719,0,0,0-.4.506,17.4,17.4,0,0,1-.66,2.266,1.2,1.2,0,0,0-.044.264.781.781,0,0,0,.088.352A6.1,6.1,0,0,0-58.586-1.21a.7.7,0,0,0,.2.044.293.293,0,0,0,.242-.11.481.481,0,0,0,.088-.308v-8.69a.461.461,0,0,0-.121-.341.461.461,0,0,0-.341-.121h-2.288a23.7,23.7,0,0,0-2.9.242h-.132a.452.452,0,0,1-.44-.286l-.088-.176a.548.548,0,0,1-.066-.242.263.263,0,0,1,.11-.231.443.443,0,0,1,.308-.055q.792.066,2.288.11h8.492a.709.709,0,0,0,.572-.264l.572-.7a.5.5,0,0,1,.374-.2.409.409,0,0,1,.264.088.274.274,0,0,0,.2.088q.22,0,.33-.33.352-.9.528-1.43a.7.7,0,0,0,.044-.2.293.293,0,0,0-.11-.242.481.481,0,0,0-.308-.088h-12.54q-.418,0-.462.462a4.189,4.189,0,0,1-.4,1.584,2.532,2.532,0,0,1-.814.99,1.374,1.374,0,0,1-.858.286,1,1,0,0,1-.66-.22.783.783,0,0,1-.264-.638,1.221,1.221,0,0,1,.682-.99,3.329,3.329,0,0,0,1.122-1.155,3.719,3.719,0,0,0,.55-1.727q.044-.462.176-.462.176,0,.264.4a1.975,1.975,0,0,1,.11.418.478.478,0,0,0,.484.418h4.84a.408.408,0,0,0,.462-.462q-.044-1.32-.132-2.376v-.088q0-.352.33-.352a.572.572,0,0,1,.176.022,14.086,14.086,0,0,1,1.485.495q.429.187.429.319,0,.088-.2.2l-.066.044a.621.621,0,0,0-.308.55v1.188a.461.461,0,0,0,.121.341.461.461,0,0,0,.341.121h5.258a.671.671,0,0,0,.572-.264l.22-.264q.088-.088.286-.319t.33-.231q.154,0,.7.528a9.621,9.621,0,0,1,.88.946.692.692,0,0,1,.088.242q0,.22-.264.286l-.132.022a.949.949,0,0,0-.55.286,15.738,15.738,0,0,1-1.914,1.782.477.477,0,0,0-.22.352.355.355,0,0,0,.176.264l.352.308A.477.477,0,0,1-49.9-11a.211.211,0,0,1-.132.2.793.793,0,0,1-.352.066H-55.9a.461.461,0,0,0-.341.121.461.461,0,0,0-.121.341v3.322a.461.461,0,0,0,.121.341.461.461,0,0,0,.341.121ZM-28.8-12.078a.632.632,0,0,0,.55-.286l.264-.352.209-.275a2.922,2.922,0,0,1,.231-.275.254.254,0,0,1,.176-.088,1.5,1.5,0,0,1,.572.33,8.511,8.511,0,0,1,.825.7q.385.374.385.528-.022.352-.55.352h-7.788a23.7,23.7,0,0,0-2.9.242h-.132a.452.452,0,0,1-.44-.286l-.088-.176a.586.586,0,0,1-.066-.264.242.242,0,0,1,.11-.209.443.443,0,0,1,.308-.055q.748.066,2.266.11H-33.2a.461.461,0,0,0,.341-.121.461.461,0,0,0,.121-.341v-1.078a.461.461,0,0,0-.121-.341.461.461,0,0,0-.341-.121h-1.364a23.7,23.7,0,0,0-2.9.242H-37.6a.452.452,0,0,1-.44-.286l-.088-.154a.586.586,0,0,1-.066-.264.242.242,0,0,1,.11-.209.443.443,0,0,1,.308-.055q.748.066,2.266.11h2.31a.461.461,0,0,0,.341-.121.461.461,0,0,0,.121-.341v-.792a.468.468,0,0,0-.132-.363.433.433,0,0,0-.352-.1q-1.914.088-3.916.132-.4,0-.44-.2V-16.5q0-.176.44-.242,2.244-.286,5.038-.836a17.942,17.942,0,0,0,3.542-1.078.586.586,0,0,1,.264-.066.551.551,0,0,1,.4.22,4.879,4.879,0,0,1,1.1,1.518q0,.154-.33.11l-.264-.044a3.718,3.718,0,0,0-.572,0q-1.386.2-2.684.308a.435.435,0,0,0-.44.484v.968a.461.461,0,0,0,.121.341.461.461,0,0,0,.341.121H-27.7a.632.632,0,0,0,.55-.286l.264-.374q.066-.088.2-.275a2.252,2.252,0,0,1,.231-.286.278.278,0,0,1,.187-.1,1.979,1.979,0,0,1,.77.495,6.644,6.644,0,0,1,.88.847.379.379,0,0,1,.088.242.333.333,0,0,1-.132.264.609.609,0,0,1-.374.088h-5.588a.461.461,0,0,0-.341.121.461.461,0,0,0-.121.341v1.078a.461.461,0,0,0,.121.341.461.461,0,0,0,.341.121Zm-1.364,1.958a.632.632,0,0,0,.55-.286l.2-.264q.088-.11.253-.33t.3-.22a1.94,1.94,0,0,1,.715.451,5.073,5.073,0,0,1,.847.825.379.379,0,0,1,.088.242.366.366,0,0,1-.176.286l-.132.066a.5.5,0,0,0-.4.506V-6.8q.066,2.926.132,4.4v.11a.472.472,0,0,1-.22.44,3.111,3.111,0,0,1-.649.3,2.133,2.133,0,0,1-.671.121.242.242,0,0,1-.209-.11.488.488,0,0,1-.077-.286q0-.374-.462-.374h-8.1a.461.461,0,0,0-.341.121.461.461,0,0,0-.121.341v.044q0,.154-.462.363a2.273,2.273,0,0,1-.946.209.526.526,0,0,1-.352-.132.4.4,0,0,1-.154-.308q.088-1.3.154-2.519t.088-3.2v-2.9q0-.462-.088-.462h-.11a.237.237,0,0,1-.209-.121.635.635,0,0,1-.077-.341v-2.332q0-.4-.264-.4a.543.543,0,0,0-.308.132,14.053,14.053,0,0,1-2.2,1.474q-.352.176-.462.066a.09.09,0,0,1-.022-.066q0-.132.264-.352a18.9,18.9,0,0,0,2.024-2.266,11.506,11.506,0,0,0,1.078-1.694,9.535,9.535,0,0,0,.726-1.76q.11-.33.352-.33a.586.586,0,0,1,.264.066q1.87.836,1.87,1.078,0,.088-.2.132l-.066.022a.81.81,0,0,0-.506.352,11.028,11.028,0,0,1-.968,1.232.4.4,0,0,0-.132.286.555.555,0,0,0,.2.374q.462.4.462.572,0,.11-.2.22a.5.5,0,0,0-.308.506v2.332a.539.539,0,0,1-.2.484.49.49,0,0,0-.044.22.352.352,0,0,0,.22.33l.44.2a1.315,1.315,0,0,0,.55.11Zm.088,2.4a.461.461,0,0,0,.341-.121.461.461,0,0,0,.121-.341v-.858a.461.461,0,0,0-.121-.341.461.461,0,0,0-.341-.121h-8.1a.461.461,0,0,0-.341.121.461.461,0,0,0-.121.341v.858a.461.461,0,0,0,.121.341.461.461,0,0,0,.341.121Zm-8.1.616a.461.461,0,0,0-.341.121.461.461,0,0,0-.121.341v.88a.461.461,0,0,0,.121.341.461.461,0,0,0,.341.121h8.1a.461.461,0,0,0,.341-.121.461.461,0,0,0,.121-.341v-.88a.461.461,0,0,0-.121-.341.461.461,0,0,0-.341-.121Zm0,2.442a.461.461,0,0,0-.341.121.461.461,0,0,0-.121.341v.88a.461.461,0,0,0,.121.341.461.461,0,0,0,.341.121h8.1a.461.461,0,0,0,.341-.121.461.461,0,0,0,.121-.341V-4.2a.461.461,0,0,0-.121-.341.461.461,0,0,0-.341-.121Zm1.078,2.838A.492.492,0,0,1-36.762-2a.588.588,0,0,1,.308.154l.594.528a2.033,2.033,0,0,0,.462.352q.616.4.616.55t-.352.154h-.22a1.461,1.461,0,0,0-.572.132A22.06,22.06,0,0,1-39.193,1a28.028,28.028,0,0,1-3.795.759h-.176q-.22,0-.286-.11V1.606q0-.132.4-.264a24.454,24.454,0,0,0,2.816-1.1A12.718,12.718,0,0,0-37.092-1.826Zm4.356.9q-.418-.132-.418-.286,0-.088.132-.132a.868.868,0,0,1,.352-.022,23.556,23.556,0,0,1,4.147.583A7.058,7.058,0,0,1-26.279.11q.671.484.671.946a.64.64,0,0,1-.286.539,1.124,1.124,0,0,1-.682.209,1.342,1.342,0,0,1-.836-.286A12.146,12.146,0,0,0-29.623.22,20.789,20.789,0,0,0-32.736-.924ZM-14.674-10.1a.632.632,0,0,0,.55-.286l.264-.374q.066-.088.2-.275a2.252,2.252,0,0,1,.231-.286.278.278,0,0,1,.187-.1,1.979,1.979,0,0,1,.77.5,5.5,5.5,0,0,1,.858.847.484.484,0,0,1,.11.264.317.317,0,0,1-.11.22.816.816,0,0,1-.44.11h-3.08a.461.461,0,0,0-.341.121.461.461,0,0,0-.121.341v.55a.51.51,0,0,0,.418.506,5.631,5.631,0,0,1,2.464,1.331,2.373,2.373,0,0,1,.792,1.595,1.03,1.03,0,0,1-.22.682.687.687,0,0,1-.55.264.943.943,0,0,1-.33-.066A.68.68,0,0,1-13.4-4.62a7.386,7.386,0,0,0-1.628-2.508.444.444,0,0,0-.308-.154.224.224,0,0,0-.187.11.488.488,0,0,0-.077.286v2.728q.044,2.376.154,4.862V.836a.571.571,0,0,1-.176.418,2.081,2.081,0,0,1-.583.352,1.73,1.73,0,0,1-.671.154.555.555,0,0,1-.374-.132A.4.4,0,0,1-17.4,1.32q.088-1.144.143-2.244t.077-2.794v-1.65q0-.374-.22-.374-.154,0-.308.242a16.542,16.542,0,0,1-2.948,3.608q-.352.308-.484.154a.149.149,0,0,1-.044-.11.741.741,0,0,1,.176-.374A20.278,20.278,0,0,0-18-8.976a.488.488,0,0,0,.022-.154q0-.352-.418-.352h-.572a9.93,9.93,0,0,0-1.5.2.572.572,0,0,1-.176.022.466.466,0,0,1-.418-.286l-.066-.132a.548.548,0,0,1-.066-.242.271.271,0,0,1,.11-.22.406.406,0,0,1,.308-.066q.748.066,2.222.11h.9a.461.461,0,0,0,.341-.121.461.461,0,0,0,.121-.341v-3.5A35.1,35.1,0,0,0-17.38-18v-.088q0-.352.308-.352a1.323,1.323,0,0,1,.22.044q1.8.506,1.8.792,0,.11-.176.22l-.066.044a.621.621,0,0,0-.308.55v6.226a.461.461,0,0,0,.121.341.461.461,0,0,0,.341.121Zm10.45,4.6q.22,0,.352-.374l.22-.528q.066-.132.176-.374a3.128,3.128,0,0,1,.187-.363q.077-.121.165-.121a1.8,1.8,0,0,1,.6.286,7.062,7.062,0,0,1,.869.616q.4.33.4.484,0,.352-.44.462l-2.288.506A.49.49,0,0,0-4.4-4.4v1.562q.066,2.244.11,3.52V.814a.565.565,0,0,1-.154.418,1.8,1.8,0,0,1-.594.374,1.9,1.9,0,0,1-.726.154.476.476,0,0,1-.352-.132.422.422,0,0,1-.132-.308q.132-1.848.176-3.7v-1.54a.416.416,0,0,0-.143-.352.431.431,0,0,0-.363-.066l-5.038,1.1a.488.488,0,0,1-.154.022.385.385,0,0,1-.374-.22.245.245,0,0,1-.022-.11q0-.2.4-.264l5.3-1.188a.484.484,0,0,0,.4-.506v-8.558A35.1,35.1,0,0,0-6.27-18v-.088a.311.311,0,0,1,.352-.352.572.572,0,0,1,.176.022,13.4,13.4,0,0,1,1.452.5q.418.187.418.319,0,.11-.176.22l-.066.044a.632.632,0,0,0-.286.55v10.8Q-4.4-5.5-4.224-5.5Zm-9.834-10.8q.066-.4.352-.4a.7.7,0,0,1,.2.044l.616.242a3.436,3.436,0,0,0,.55.176q.7.176.7.352,0,.11-.242.22l-.066.022a.919.919,0,0,0-.462.418,35.532,35.532,0,0,1-1.936,3.3q-.154.264-.33.264t-.176-.264a1.213,1.213,0,0,1,.044-.242l.022-.11q.264-.946.462-2.046A19.549,19.549,0,0,0-14.058-16.3Zm-6.732.242q-.154-.418-.044-.484l.066-.022a.741.741,0,0,1,.374.176,6.079,6.079,0,0,1,1.584,1.716,3.308,3.308,0,0,1,.506,1.628,1.506,1.506,0,0,1-.242.891.711.711,0,0,1-.594.341.9.9,0,0,1-.4-.11.462.462,0,0,1-.209-.22,1.215,1.215,0,0,1-.077-.33A11.265,11.265,0,0,0-20.79-16.06Zm10.12.11q-.352-.352-.264-.418a.229.229,0,0,1,.132-.022.975.975,0,0,1,.308.044,5.464,5.464,0,0,1,2.486,1.221A2.215,2.215,0,0,1-7.216-13.6a1,1,0,0,1-.22.66.687.687,0,0,1-.55.264.829.829,0,0,1-.33-.066.667.667,0,0,1-.374-.418,4.953,4.953,0,0,0-.77-1.419A11.354,11.354,0,0,0-10.67-15.95Zm-.462,5.17q-.4-.308-.286-.418a.255.255,0,0,1,.176-.044,1.508,1.508,0,0,1,.286.022,5.571,5.571,0,0,1,2.607,1.144A2.148,2.148,0,0,1-7.5-8.536a.953.953,0,0,1-.22.649.722.722,0,0,1-.572.253,1.931,1.931,0,0,1-.286-.044.654.654,0,0,1-.4-.4,5.8,5.8,0,0,0-.88-1.408A9.723,9.723,0,0,0-11.132-10.78ZM20.9,2.4a.394.394,0,0,1-.242-.11A12.324,12.324,0,0,1,18.744.517a13.347,13.347,0,0,1-2.178-3.531A12.876,12.876,0,0,1,15.532-8.36a12.876,12.876,0,0,1,1.034-5.346,13.347,13.347,0,0,1,2.178-3.531,12.324,12.324,0,0,1,1.914-1.771.394.394,0,0,1,.242-.11.189.189,0,0,1,.121.044.135.135,0,0,1,.055.11.6.6,0,0,1-.154.286,18.471,18.471,0,0,0-1.628,2.046,13.545,13.545,0,0,0-1.518,3.289A15.545,15.545,0,0,0,17.05-8.36a15.545,15.545,0,0,0,.726,4.983A13.545,13.545,0,0,0,19.294-.088a18.472,18.472,0,0,0,1.628,2.046.6.6,0,0,1,.154.286.129.129,0,0,1-.066.11A.214.214,0,0,1,20.9,2.4Zm17.622-8.03a.461.461,0,0,0-.121-.341.461.461,0,0,0-.341-.121H30.822a.443.443,0,0,0-.484.418,11.664,11.664,0,0,1-1.595,4.059,10.2,10.2,0,0,1-3.4,3.179q-.352.22-.462.11a.127.127,0,0,1-.044-.088q0-.088.264-.352a10.62,10.62,0,0,0,2.409-3.157,12.615,12.615,0,0,0,1.144-3.63,28.085,28.085,0,0,0,.3-4.3v-3.85a30.657,30.657,0,0,0-.154-3.322v-.088q0-.352.286-.352a.49.49,0,0,1,.22.044l1.408.616a1.315,1.315,0,0,0,.55.11H37.95a.632.632,0,0,0,.55-.286l.176-.264q.088-.11.253-.33t.3-.22a2.338,2.338,0,0,1,.781.451,5.834,5.834,0,0,1,.957.825.379.379,0,0,1,.088.242.366.366,0,0,1-.176.286l-.22.11a.541.541,0,0,0-.4.528V-.682A3.491,3.491,0,0,1,40.1.5a1.578,1.578,0,0,1-.649.77,3.565,3.565,0,0,1-1.452.451h-.11q-.308,0-.418-.374a1.511,1.511,0,0,0-.484-.88,4.592,4.592,0,0,0-1.694-.638q-.44-.066-.44-.242,0-.11.33-.11.55,0,1.782.088.66.066.99.066A.6.6,0,0,0,38.4-.506a.569.569,0,0,0,.121-.4Zm-.462-6.182a.461.461,0,0,0,.341-.121.461.461,0,0,0,.121-.341V-15.62a.461.461,0,0,0-.121-.341.461.461,0,0,0-.341-.121H31.13a.461.461,0,0,0-.341.121.461.461,0,0,0-.121.341v3.344a.461.461,0,0,0,.121.341.461.461,0,0,0,.341.121Zm-6.93.66a.461.461,0,0,0-.341.121.461.461,0,0,0-.121.341v.814q0,1.54-.11,2.64v.088q0,.4.418.4H38.06a.461.461,0,0,0,.341-.121.461.461,0,0,0,.121-.341v-3.476a.461.461,0,0,0-.121-.341.461.461,0,0,0-.341-.121ZM55.726-.11a.472.472,0,0,1-.22.44,2.881,2.881,0,0,1-.583.275A1.888,1.888,0,0,1,54.3.726q-.22,0-.22-.44a.461.461,0,0,0-.121-.341.461.461,0,0,0-.341-.121h-2.2a.489.489,0,0,0-.341.11.4.4,0,0,0-.121.308,2.512,2.512,0,0,1,.022.352v.2a.538.538,0,0,1-.132.4,1.588,1.588,0,0,1-1.1.374.387.387,0,0,1-.3-.132.441.441,0,0,1-.121-.308q.132-1.98.176-4V-4.488q0-.4-.308-.4a.548.548,0,0,0-.242.066q-.7.352-1.056.506a.709.709,0,0,1-.308.088.238.238,0,0,1-.176-.066.09.09,0,0,1-.022-.066q0-.132.33-.33a15.454,15.454,0,0,0,4.136-3.762.589.589,0,0,0,.11-.286.4.4,0,0,0-.242-.352q-.44-.264-1.276-.7a1.063,1.063,0,0,0-.286-.088.507.507,0,0,0-.352.176,10.977,10.977,0,0,1-1.5,1.276q-.352.22-.484.088l-.044-.088q0-.132.242-.374a15.33,15.33,0,0,0,1.188-1.562,11.763,11.763,0,0,0,.968-1.859,12.8,12.8,0,0,0,.682-2.013q.066-.352.374-.352a1.323,1.323,0,0,1,.22.044q1.606.594,1.606.836,0,.088-.2.176l-.066.022a.919.919,0,0,0-.462.418l-.088.176a.548.548,0,0,0-.066.242q0,.308.4.308h.88a.712.712,0,0,0,.55-.242l.22-.242.176-.2a1.887,1.887,0,0,1,.3-.253l.121-.077L54.78-13.4l.154-.572a2.094,2.094,0,0,0,.154-.484.572.572,0,0,0,.022-.176q0-.352-.418-.352h-4.51q-.418,0-.484.462a2.481,2.481,0,0,1-.55,1.353,1.205,1.205,0,0,1-.88.451.778.778,0,0,1-.539-.187.632.632,0,0,1-.209-.5,1.2,1.2,0,0,1,.11-.44.633.633,0,0,1,.209-.286,2.3,2.3,0,0,0,.187-.154,3.531,3.531,0,0,0,1.144-2.068q.066-.44.22-.44.154.044.242.418l.044.286a.451.451,0,0,0,.484.44h1.122a.408.408,0,0,0,.462-.462q-.044-1.254-.11-1.76v-.044q0-.4.33-.4l.2.044q1.716.484,1.716.77,0,.088-.176.2l-.066.044a.621.621,0,0,0-.308.55v.594a.461.461,0,0,0,.121.341.461.461,0,0,0,.341.121H54.8a.712.712,0,0,0,.55-.242l.2-.22q.066-.066.187-.209a1.384,1.384,0,0,1,.209-.209.293.293,0,0,1,.176-.066q.154,0,.638.462a6.408,6.408,0,0,1,.77.858.692.692,0,0,1,.088.242q0,.22-.264.286l-.11.022a.917.917,0,0,0-.572.242q-.528.462-1.166.924a.373.373,0,0,0-.2.308.483.483,0,0,0,.176.308,4.254,4.254,0,0,1,.77.792.379.379,0,0,1,.088.242.264.264,0,0,1-.22.264l-.176.044a1,1,0,0,0-.319.121.615.615,0,0,0-.209.253,16.419,16.419,0,0,1-1.034,1.694.589.589,0,0,0-.11.286.4.4,0,0,0,.264.352,5.976,5.976,0,0,1,1.65,1.265,1.9,1.9,0,0,1,.55,1.155.565.565,0,0,1-.154.418.6.6,0,0,1-.44.154,1.108,1.108,0,0,1-.528-.286,13.093,13.093,0,0,0-2.024-1.694.5.5,0,0,0-.286-.11.507.507,0,0,0-.352.176,13.568,13.568,0,0,1-1.936,1.694q-.286.22-.286.374a.156.156,0,0,0,.11.154l.088.044a1.315,1.315,0,0,0,.55.11h2.068a.689.689,0,0,0,.572-.286l.132-.176.165-.22a1.266,1.266,0,0,1,.176-.2.249.249,0,0,1,.165-.066A1.587,1.587,0,0,1,55.4-6a4.74,4.74,0,0,1,.748.715.379.379,0,0,1,.088.242.325.325,0,0,1-.2.286l-.022.022a.8.8,0,0,0-.275.2.441.441,0,0,0-.121.308v1.232q.066,1.87.11,2.772ZM65.1-18.216a2.358,2.358,0,0,1,.847.55,6.448,6.448,0,0,1,.979.946.379.379,0,0,1,.088.242.333.333,0,0,1-.132.264.609.609,0,0,1-.374.088H63.118a.613.613,0,0,0-.55.33q-.352.638-.99,1.672a.409.409,0,0,0-.088.264q0,.286.4.286h1.738a.632.632,0,0,0,.55-.286l.176-.242q.066-.088.187-.242a1.634,1.634,0,0,1,.2-.22.249.249,0,0,1,.165-.066,1.779,1.779,0,0,1,.682.429,5.638,5.638,0,0,1,.814.781.3.3,0,0,1,.088.22.373.373,0,0,1-.2.308.338.338,0,0,1-.132.044.564.564,0,0,0-.374.528v4.026q.044,2.4.154,4.84v.088a.511.511,0,0,1-.242.462,2.938,2.938,0,0,1-.627.308,1.927,1.927,0,0,1-.649.132q-.242,0-.242-.418a.369.369,0,0,0-.121-.286.489.489,0,0,0-.341-.11H59.818a.461.461,0,0,0-.341.121.461.461,0,0,0-.121.341v.11q0,.154-.418.363a1.989,1.989,0,0,1-.9.209.422.422,0,0,1-.308-.132.422.422,0,0,1-.132-.308q.154-2.156.2-4.774V-9.966a34.424,34.424,0,0,0-.2-3.872v-.088a.355.355,0,0,1,.077-.242.24.24,0,0,1,.187-.088.548.548,0,0,1,.242.066l1.1.484a1.461,1.461,0,0,0,.572.132h.33a.454.454,0,0,0,.506-.418l.2-1.65v-.066q0-.418-.44-.418h-.814a10.767,10.767,0,0,0-1.98.22.378.378,0,0,1-.154.022A.439.439,0,0,1,57-16.192l-.066-.132a.586.586,0,0,1-.066-.264.242.242,0,0,1,.11-.209.443.443,0,0,1,.308-.055q.748.066,2.266.11H63.6a.621.621,0,0,0,.55-.308l.286-.418q.066-.088.22-.308a3.639,3.639,0,0,1,.253-.33A.269.269,0,0,1,65.1-18.216Zm-1.386,7.81a.461.461,0,0,0,.341-.121.461.461,0,0,0,.121-.341v-1.606a.461.461,0,0,0-.121-.341.461.461,0,0,0-.341-.121H59.818a.461.461,0,0,0-.341.121.461.461,0,0,0-.121.341v1.606a.461.461,0,0,0,.121.341.461.461,0,0,0,.341.121Zm-12.87-.4a.456.456,0,0,0-.132.286q0,.242.33.308,1.078.308,1.276.374a.7.7,0,0,0,.2.044.468.468,0,0,0,.418-.264q.286-.484.594-1.144a.548.548,0,0,0,.066-.242q0-.308-.418-.308H51.9a.689.689,0,0,0-.572.286Q51.018-11.022,50.842-10.8Zm8.514,3.168a.461.461,0,0,0,.121.341.461.461,0,0,0,.341.121h3.894a.461.461,0,0,0,.341-.121.461.461,0,0,0,.121-.341V-9.306a.461.461,0,0,0-.121-.341.461.461,0,0,0-.341-.121H59.818a.461.461,0,0,0-.341.121.461.461,0,0,0-.121.341Zm0,3.278a.461.461,0,0,0,.121.341.461.461,0,0,0,.341.121h3.894a.461.461,0,0,0,.341-.121.461.461,0,0,0,.121-.341V-6.072a.461.461,0,0,0-.121-.341.461.461,0,0,0-.341-.121H59.818a.461.461,0,0,0-.341.121.461.461,0,0,0-.121.341Zm-8.4,3.08a.461.461,0,0,0,.121.341.461.461,0,0,0,.341.121h2.2a.461.461,0,0,0,.341-.121.461.461,0,0,0,.121-.341V-4.334a.461.461,0,0,0-.121-.341.461.461,0,0,0-.341-.121h-2.2a.461.461,0,0,0-.341.121.461.461,0,0,0-.121.341ZM59.4-2.31a.479.479,0,0,1,.374-.264.484.484,0,0,1,.264.11l.572.418a3.6,3.6,0,0,0,.484.308q.638.374.638.506,0,.088-.22.088H61.49a.822.822,0,0,0-.572.22A11.029,11.029,0,0,1,58.641.539,19.55,19.55,0,0,1,55.77,1.716l-.264.044q-.176,0-.22-.088V1.628q0-.154.308-.33.352-.22,1.1-.748A10.819,10.819,0,0,0,58.223-.8,9.125,9.125,0,0,0,59.4-2.31Zm3.3.462q-.374-.308-.264-.418a.215.215,0,0,1,.154-.044.975.975,0,0,1,.308.044,7.976,7.976,0,0,1,2.3.869,4.134,4.134,0,0,1,1.3,1.133A2.01,2.01,0,0,1,66.9.858a.952.952,0,0,1-.209.627.69.69,0,0,1-.561.253.549.549,0,0,1-.242-.044.388.388,0,0,1-.253-.11,1.514,1.514,0,0,1-.165-.242A8.117,8.117,0,0,0,64.317-.286,14.1,14.1,0,0,0,62.7-1.848Zm7.744,4.092a.6.6,0,0,1,.154-.286A18.471,18.471,0,0,0,72.226-.088a13.545,13.545,0,0,0,1.518-3.289A15.545,15.545,0,0,0,74.47-8.36a15.545,15.545,0,0,0-.726-4.983,13.545,13.545,0,0,0-1.518-3.289A18.471,18.471,0,0,0,70.6-18.678a.6.6,0,0,1-.154-.286.135.135,0,0,1,.055-.11.189.189,0,0,1,.121-.044.394.394,0,0,1,.242.11,12.324,12.324,0,0,1,1.914,1.771,13.347,13.347,0,0,1,2.178,3.531A12.876,12.876,0,0,1,75.988-8.36a12.876,12.876,0,0,1-1.034,5.346A13.347,13.347,0,0,1,72.776.517a12.323,12.323,0,0,1-1.914,1.771.394.394,0,0,1-.242.11.214.214,0,0,1-.11-.044A.129.129,0,0,1,70.444,2.244ZM-104.58,31.962a.322.322,0,0,1-.2-.09,10.083,10.083,0,0,1-1.566-1.449,10.92,10.92,0,0,1-1.782-2.889,10.535,10.535,0,0,1-.846-4.374,10.535,10.535,0,0,1,.846-4.374,10.92,10.92,0,0,1,1.782-2.889,10.083,10.083,0,0,1,1.566-1.449.322.322,0,0,1,.2-.09.155.155,0,0,1,.1.036.111.111,0,0,1,.045.09.492.492,0,0,1-.126.234,15.113,15.113,0,0,0-1.332,1.674,11.082,11.082,0,0,0-1.242,2.691,12.719,12.719,0,0,0-.594,4.077,12.719,12.719,0,0,0,.594,4.077,11.082,11.082,0,0,0,1.242,2.691,15.113,15.113,0,0,0,1.332,1.674.492.492,0,0,1,.126.234.106.106,0,0,1-.054.09A.175.175,0,0,1-104.58,31.962Zm15.5-11.844a.517.517,0,0,0,.45-.234l.216-.288.171-.225a2.391,2.391,0,0,1,.189-.225.207.207,0,0,1,.144-.072,1.224,1.224,0,0,1,.468.27,6.963,6.963,0,0,1,.675.576q.315.306.315.432-.018.288-.45.288h-6.372a19.389,19.389,0,0,0-2.376.2h-.108a.37.37,0,0,1-.36-.234l-.072-.144a.479.479,0,0,1-.054-.216.2.2,0,0,1,.09-.171.362.362,0,0,1,.252-.045q.612.054,1.854.09h1.368a.377.377,0,0,0,.279-.1.377.377,0,0,0,.1-.279v-.882a.377.377,0,0,0-.1-.279.377.377,0,0,0-.279-.1H-93.8a19.389,19.389,0,0,0-2.376.2h-.108a.37.37,0,0,1-.36-.234l-.072-.126a.479.479,0,0,1-.054-.216.2.2,0,0,1,.09-.171.362.362,0,0,1,.252-.045q.612.054,1.854.09h1.89a.377.377,0,0,0,.279-.1.377.377,0,0,0,.1-.279V16.95a.383.383,0,0,0-.108-.3.354.354,0,0,0-.288-.081q-1.566.072-3.2.108-.324,0-.36-.162V16.5q0-.144.36-.2,1.836-.234,4.122-.684a14.68,14.68,0,0,0,2.9-.882.479.479,0,0,1,.216-.054.451.451,0,0,1,.324.18,3.992,3.992,0,0,1,.9,1.242q0,.126-.27.09l-.216-.036a3.042,3.042,0,0,0-.468,0q-1.134.162-2.2.252a.356.356,0,0,0-.36.4V17.6a.377.377,0,0,0,.1.279.377.377,0,0,0,.279.1h2.394a.517.517,0,0,0,.45-.234l.216-.306q.054-.072.162-.225a1.842,1.842,0,0,1,.189-.234.227.227,0,0,1,.153-.081,1.619,1.619,0,0,1,.63.4,5.436,5.436,0,0,1,.72.693.31.31,0,0,1,.072.2.273.273,0,0,1-.108.216A.5.5,0,0,1-86,18.48h-4.572a.377.377,0,0,0-.279.1.377.377,0,0,0-.1.279v.882a.377.377,0,0,0,.1.279.377.377,0,0,0,.279.1Zm-1.116,1.6a.517.517,0,0,0,.45-.234l.162-.216q.072-.09.207-.27t.243-.18a1.588,1.588,0,0,1,.585.369,4.15,4.15,0,0,1,.693.675.31.31,0,0,1,.072.2.3.3,0,0,1-.144.234l-.108.054a.413.413,0,0,0-.324.414v1.674q.054,2.394.108,3.6v.09a.386.386,0,0,1-.18.36,2.545,2.545,0,0,1-.531.243,1.746,1.746,0,0,1-.549.1.2.2,0,0,1-.171-.09.4.4,0,0,1-.063-.234q0-.306-.378-.306H-96.75a.377.377,0,0,0-.279.1.377.377,0,0,0-.1.279v.036q0,.126-.378.3a1.86,1.86,0,0,1-.774.171.43.43,0,0,1-.288-.108.324.324,0,0,1-.126-.252q.072-1.062.126-2.061t.072-2.619V21.666q0-.378-.072-.378h-.09a.194.194,0,0,1-.171-.1.519.519,0,0,1-.063-.279V19q0-.324-.216-.324a.444.444,0,0,0-.252.108,11.5,11.5,0,0,1-1.8,1.206q-.288.144-.378.054a.073.073,0,0,1-.018-.054q0-.108.216-.288a15.465,15.465,0,0,0,1.656-1.854,9.414,9.414,0,0,0,.882-1.386,7.8,7.8,0,0,0,.594-1.44q.09-.27.288-.27a.479.479,0,0,1,.216.054q1.53.684,1.53.882,0,.072-.162.108l-.054.018a.663.663,0,0,0-.414.288,9.022,9.022,0,0,1-.792,1.008.327.327,0,0,0-.108.234.454.454,0,0,0,.162.306q.378.324.378.468,0,.09-.162.18a.408.408,0,0,0-.252.414v1.908a.441.441,0,0,1-.162.4.4.4,0,0,0-.036.18.288.288,0,0,0,.18.27l.36.162a1.076,1.076,0,0,0,.45.09Zm.072,1.962a.377.377,0,0,0,.279-.1.377.377,0,0,0,.1-.279v-.7a.377.377,0,0,0-.1-.279.377.377,0,0,0-.279-.1H-96.75a.377.377,0,0,0-.279.1.377.377,0,0,0-.1.279v.7a.377.377,0,0,0,.1.279.377.377,0,0,0,.279.1Zm-6.624.5a.377.377,0,0,0-.279.1.377.377,0,0,0-.1.279v.72a.377.377,0,0,0,.1.279.377.377,0,0,0,.279.1h6.624a.377.377,0,0,0,.279-.1.377.377,0,0,0,.1-.279v-.72a.377.377,0,0,0-.1-.279.377.377,0,0,0-.279-.1Zm0,2a.377.377,0,0,0-.279.1.377.377,0,0,0-.1.279v.72a.377.377,0,0,0,.1.279.377.377,0,0,0,.279.1h6.624a.377.377,0,0,0,.279-.1.377.377,0,0,0,.1-.279v-.72a.377.377,0,0,0-.1-.279.377.377,0,0,0-.279-.1Zm.882,2.322a.4.4,0,0,1,.27-.144.481.481,0,0,1,.252.126l.486.432a1.663,1.663,0,0,0,.378.288q.5.324.5.45t-.288.126h-.18a1.2,1.2,0,0,0-.468.108,18.049,18.049,0,0,1-2.673.927,22.932,22.932,0,0,1-3.105.621h-.144q-.18,0-.234-.09v-.036q0-.108.324-.216a20.007,20.007,0,0,0,2.3-.9A10.406,10.406,0,0,0-95.868,28.506Zm3.564.738q-.342-.108-.342-.234,0-.072.108-.108a.71.71,0,0,1,.288-.018,19.273,19.273,0,0,1,3.393.477,5.775,5.775,0,0,1,1.836.729q.549.4.549.774a.524.524,0,0,1-.234.441.92.92,0,0,1-.558.171,1.1,1.1,0,0,1-.684-.234,9.938,9.938,0,0,0-1.809-1.062A17.01,17.01,0,0,0-92.3,29.244Zm22.536-12.15a.553.553,0,0,0,.45-.252l.2-.324a2.529,2.529,0,0,0,.171-.252,1.769,1.769,0,0,1,.171-.243.2.2,0,0,1,.144-.081,1.979,1.979,0,0,1,.684.369,4.173,4.173,0,0,1,.774.639.389.389,0,0,1,.09.2.275.275,0,0,1-.09.2.511.511,0,0,1-.324.144l-4.968.342a.514.514,0,0,0-.234.081.183.183,0,0,0-.09.153.351.351,0,0,0,.126.234,6.433,6.433,0,0,0,3.618,1.584l.288.036a.34.34,0,0,0,.342-.2,6.124,6.124,0,0,0,.45-1.17q.108-.324.216-.324.09.036.072.36l-.036,1.08a.551.551,0,0,0,.252.468.5.5,0,0,1,.306.414.546.546,0,0,1-.018.162q-.126.522-.99.522a5.79,5.79,0,0,1-1.17-.162l-.108-.018q-.126,0-.126.072a.3.3,0,0,0,.108.18q.324.27.324.432,0,.09-.2.18h-.018a.421.421,0,0,0-.306.432v1.818q.036,2,.126,3.87v.072a.435.435,0,0,1-.2.4,2.489,2.489,0,0,1-.54.243,1.785,1.785,0,0,1-.54.1q-.234,0-.234-.36t-.378-.36h-6.552a.377.377,0,0,0-.279.1.377.377,0,0,0-.1.279v.108q0,.126-.378.288a1.906,1.906,0,0,1-.756.162.454.454,0,0,1-.306-.108.324.324,0,0,1-.126-.252q.072-1.062.126-2.061t.072-2.619V21.36a.382.382,0,0,0-.081-.234q-.081-.108-.117-.162a1.058,1.058,0,0,1-.036-.252V19a.4.4,0,0,0-.063-.234.183.183,0,0,0-.153-.09.358.358,0,0,0-.234.09,14.628,14.628,0,0,1-2.07,1.3q-.306.144-.378.036a.073.073,0,0,1-.018-.054q0-.108.234-.288a13.414,13.414,0,0,0,1.944-2,8.414,8.414,0,0,0,.9-1.314,9.547,9.547,0,0,0,.666-1.44q.09-.252.288-.252a.479.479,0,0,1,.216.054q1.494.72,1.494.918,0,.072-.162.108h-.054a.733.733,0,0,0-.432.288,8.331,8.331,0,0,1-.792.972.389.389,0,0,0-.108.252.446.446,0,0,0,.162.288q.288.288.288.432,0,.09-.144.18a.408.408,0,0,0-.252.414v1.746a.428.428,0,0,1-.2.414v.036a.314.314,0,0,0,.18.27l.18.072a1.2,1.2,0,0,0,.468.108h6.5a.549.549,0,0,0,.468-.216.436.436,0,0,0,.108-.234q0-.18-.252-.27a6.4,6.4,0,0,1-3.222-2.358.447.447,0,0,0-.468-.234l-2.682.2H-77.6a.363.363,0,0,1-.378-.252l-.018-.072q0-.2.36-.234l2.3-.144q.306-.036.306-.27a.4.4,0,0,0-.036-.18,12.015,12.015,0,0,1-.558-1.782l-.018-.09a.275.275,0,0,1,.1-.225.4.4,0,0,1,.261-.081,5.747,5.747,0,0,1,1.1.072q.324.072.324.18,0,.036-.108.144a.4.4,0,0,0-.18.342.468.468,0,0,0,.018.144,6.478,6.478,0,0,0,.522,1.332.444.444,0,0,0,.468.252Zm-2.916-1.728q-.252-.2-.252-.27a.1.1,0,0,1,.081-.1.861.861,0,0,1,.3-.009,3.656,3.656,0,0,1,1.818.477,1.108,1.108,0,0,1,.594.873.561.561,0,0,1-.162.414.561.561,0,0,1-.414.162.468.468,0,0,1-.144-.018.534.534,0,0,1-.36-.252,6.345,6.345,0,0,0-.666-.675A6.294,6.294,0,0,0-72.684,15.366Zm1.26,8.01a.377.377,0,0,0,.279-.1.377.377,0,0,0,.1-.279v-.792a.377.377,0,0,0-.1-.279.377.377,0,0,0-.279-.1h-6.552a.377.377,0,0,0-.279.1.377.377,0,0,0-.1.279V23a.377.377,0,0,0,.1.279.377.377,0,0,0,.279.1Zm.378.882a.377.377,0,0,0-.1-.279.377.377,0,0,0-.279-.1h-6.552a.377.377,0,0,0-.279.1.377.377,0,0,0-.1.279v.828a.377.377,0,0,0,.1.279.377.377,0,0,0,.279.1h6.552a.377.377,0,0,0,.279-.1.377.377,0,0,0,.1-.279Zm-6.93,1.728a.377.377,0,0,0-.279.1.377.377,0,0,0-.1.279v.846a.377.377,0,0,0,.1.279.377.377,0,0,0,.279.1h6.552a.377.377,0,0,0,.279-.1.377.377,0,0,0,.1-.279v-.846a.377.377,0,0,0-.1-.279.377.377,0,0,0-.279-.1Zm.81,2.52a.378.378,0,0,1,.27-.126.378.378,0,0,1,.27.126l.45.45a3.378,3.378,0,0,0,.36.306q.468.342.468.468,0,.108-.306.108l-.18-.018h-.09a1.143,1.143,0,0,0-.4.09,19.418,19.418,0,0,1-2.781.909,22,22,0,0,1-3.159.567h-.126q-.216,0-.252-.108v-.036q0-.108.324-.2a17.744,17.744,0,0,0,2.556-.918A9.109,9.109,0,0,0-77.166,28.506Zm3.726.72q-.324-.09-.324-.216,0-.054.108-.1a.664.664,0,0,1,.306-.027,19.325,19.325,0,0,1,3.465.459A5.937,5.937,0,0,1-68,30.072q.558.4.558.774a.509.509,0,0,1-.234.423.92.92,0,0,1-.558.171,1.213,1.213,0,0,1-.684-.216,10.712,10.712,0,0,0-1.89-1.062A18.473,18.473,0,0,0-73.44,29.226Zm11.484-6.876q0-.324-.18-.324a.345.345,0,0,0-.27.18,14.85,14.85,0,0,1-1.422,1.674.446.446,0,0,1-.288.162.1.1,0,0,1-.108-.108.571.571,0,0,1,.126-.306,28.012,28.012,0,0,0,2.43-5.058q.27-.774.522-1.746a16.392,16.392,0,0,0,.36-1.71q.036-.306.288-.306a1.082,1.082,0,0,1,.18.036q1.674.558,1.674.774,0,.072-.162.144l-.072.018a.54.54,0,0,0-.342.378,35.114,35.114,0,0,1-1.44,3.24.479.479,0,0,0-.054.216.451.451,0,0,0,.18.324q.342.288.342.45,0,.108-.144.162a.408.408,0,0,0-.252.414V26.67q.036,1.98.126,3.942v.072a.435.435,0,0,1-.2.4,1.774,1.774,0,0,1-1.044.36.489.489,0,0,1-.315-.108.317.317,0,0,1-.135-.252q.072-1.062.126-2.061t.072-2.619Zm11.25-3.636a.534.534,0,0,0,.468-.234l.126-.18a3.035,3.035,0,0,0,.207-.243q.135-.171.243-.171a1.68,1.68,0,0,1,.63.351,4.472,4.472,0,0,1,.738.639.389.389,0,0,1,.09.2.266.266,0,0,1-.162.234l-.18.108a.713.713,0,0,0-.243.162.363.363,0,0,0-.081.252v1.71q.054,2.448.108,3.672v.09a.386.386,0,0,1-.18.36,2.489,2.489,0,0,1-.54.243,1.828,1.828,0,0,1-.558.1.249.249,0,0,1-.234-.126.448.448,0,0,1-.054-.2,1.581,1.581,0,0,1,.036-.234l.036-.216v-.018a.377.377,0,0,0-.1-.279.377.377,0,0,0-.279-.1H-52.9a.377.377,0,0,0-.279.1.377.377,0,0,0-.1.279v1.656q.036,1.854.126,3.726V30.7a.467.467,0,0,1-.144.342,1.442,1.442,0,0,1-.477.27,1.7,1.7,0,0,1-.585.108.48.48,0,0,1-.324-.108.324.324,0,0,1-.126-.252q.126-1.818.162-4.032V25.212a.377.377,0,0,0-.1-.279.377.377,0,0,0-.279-.1H-57.2a.692.692,0,0,0-.279.045q-.1.045-.1.117a1.631,1.631,0,0,0,.018.288v.27a.427.427,0,0,1-.126.342,1.571,1.571,0,0,1-.459.243,1.684,1.684,0,0,1-.567.1.29.29,0,0,1-.234-.108.382.382,0,0,1-.09-.252q.072-.99.126-2.682v-1.53a28.165,28.165,0,0,0-.162-3.168v-.072q0-.27.234-.27a.4.4,0,0,1,.18.036l.972.432a1.123,1.123,0,0,0,.468.09h2.2q.378,0,.378-.036V18.66a25.4,25.4,0,0,0-.18-3.258v-.054q0-.378.378-.324l1.53.216a.449.449,0,0,1,.225.1.226.226,0,0,1,.1.171.248.248,0,0,1-.09.162.441.441,0,0,1-.252.162.418.418,0,0,0-.342.414v2.088a.377.377,0,0,0,.1.279.377.377,0,0,0,.279.1Zm-6.5.522a.377.377,0,0,0-.279.1.377.377,0,0,0-.1.279v4.32a.377.377,0,0,0,.1.279.377.377,0,0,0,.279.1h2.178a.377.377,0,0,0,.279-.1.377.377,0,0,0,.1-.279v-4.32a.377.377,0,0,0-.1-.279.377.377,0,0,0-.279-.1Zm4.3,0a.377.377,0,0,0-.279.1.377.377,0,0,0-.1.279v4.32a.377.377,0,0,0,.1.279.377.377,0,0,0,.279.1h2.268a.377.377,0,0,0,.279-.1.377.377,0,0,0,.1-.279v-4.32a.377.377,0,0,0-.1-.279.377.377,0,0,0-.279-.1Zm16.524-3.456a.141.141,0,0,0-.126.162.515.515,0,0,0,.09.27,10.1,10.1,0,0,0,2.826,2.871,19.593,19.593,0,0,0,4.05,2.133q.306.108.306.234-.018.126-.306.252a1.628,1.628,0,0,0-.828.846q-.144.234-.306.234a.425.425,0,0,1-.18-.054,14.637,14.637,0,0,1-3.555-2.646,11.089,11.089,0,0,1-2.349-3.492q-.108-.234-.234-.234-.144,0-.252.2A16.221,16.221,0,0,1-40.563,20.5a17.672,17.672,0,0,1-4.545,2.952q-.342.144-.4.018V23.43q0-.108.252-.288A16.137,16.137,0,0,0-42.4,20.91a19.714,19.714,0,0,0,2.448-2.853,11.261,11.261,0,0,0,1.5-2.853.345.345,0,0,1,.468-.252l1.566.4a.586.586,0,0,1,.315.171q.1.117-.027.189A.813.813,0,0,1-36.378,15.78Zm.666,8.946a28.714,28.714,0,0,0-.162-3.222v-.072q0-.288.27-.288a.468.468,0,0,1,.144.018,11.824,11.824,0,0,1,1.26.405q.36.153.36.261,0,.09-.162.18l-.054.036a.508.508,0,0,0-.252.45v4.194q.036,1.962.126,3.96v.09a.482.482,0,0,1-.162.378,1.972,1.972,0,0,1-.5.252,1.78,1.78,0,0,1-.594.108.414.414,0,0,1-.306-.108.345.345,0,0,1-.108-.252q.108-1.548.144-3.078Zm-5.058-2.268a8.8,8.8,0,0,0-.036-.936v-.036q0-.324.27-.324a.592.592,0,0,1,.18.036q1.386.4,1.386.63,0,.054-.144.162l-.036.036a.517.517,0,0,0-.234.45V23.79a11.652,11.652,0,0,1-.432,2.988,6.289,6.289,0,0,1-1.539,2.574,8.388,8.388,0,0,1-3.231,1.98.863.863,0,0,1-.252.054q-.144,0-.144-.072,0-.126.432-.378a6.782,6.782,0,0,0,3-3.078,10.15,10.15,0,0,0,.783-4.086Zm26.946,3.24a.517.517,0,0,0,.45-.234l.234-.324q.072-.09.189-.243a2.431,2.431,0,0,1,.2-.234.227.227,0,0,1,.153-.081,1.9,1.9,0,0,1,.684.423,5.031,5.031,0,0,1,.774.711.4.4,0,0,1,.09.216.257.257,0,0,1-.108.2.632.632,0,0,1-.342.09H-16.74q-.342,0-.342.234a.3.3,0,0,0,.144.234,13.68,13.68,0,0,0,2.745,1.764,16.676,16.676,0,0,0,3.159,1.206q.378.09.342.18a.189.189,0,0,1-.126.117q-.108.045-.18.081a1.463,1.463,0,0,0-.666.7q-.108.252-.306.252a1.082,1.082,0,0,1-.18-.036,13.746,13.746,0,0,1-3.159-1.863,11.583,11.583,0,0,1-2.475-2.619q-.144-.252-.216-.252t-.072.378V27.84q.054,1.89.09,2.862v.09a.4.4,0,0,1-.162.36,1.8,1.8,0,0,1-1.1.306.31.31,0,0,1-.252-.108.382.382,0,0,1-.09-.252q.072-.99.126-2.664V27.57a.4.4,0,0,0-.063-.234.183.183,0,0,0-.153-.09.351.351,0,0,0-.234.126,15.1,15.1,0,0,1-2.826,2.043,20.539,20.539,0,0,1-3.42,1.539.863.863,0,0,1-.252.054.171.171,0,0,1-.144-.072.073.073,0,0,1-.018-.054q0-.108.288-.27a19.974,19.974,0,0,0,2.871-1.791,15.688,15.688,0,0,0,2.349-2.133.444.444,0,0,0,.108-.252q0-.216-.324-.216h-2a19.389,19.389,0,0,0-2.376.2h-.108a.37.37,0,0,1-.36-.234l-.072-.144a.479.479,0,0,1-.054-.216.2.2,0,0,1,.09-.171.362.362,0,0,1,.252-.045q.612.054,1.854.09h4.212a.377.377,0,0,0,.279-.1.377.377,0,0,0,.1-.279V24.312a.377.377,0,0,0-.1-.279.377.377,0,0,0-.279-.1h-1.782a19.389,19.389,0,0,0-2.376.2H-24.1a.37.37,0,0,1-.36-.234l-.072-.126a.448.448,0,0,1-.054-.2q0-.27.36-.234.612.054,1.854.09h2.538a.377.377,0,0,0,.279-.1.377.377,0,0,0,.1-.279v-.9a.377.377,0,0,0-.1-.279.377.377,0,0,0-.279-.1h-2.61a19.389,19.389,0,0,0-2.376.2h-.108a.37.37,0,0,1-.36-.234l-.072-.144a.479.479,0,0,1-.054-.216.2.2,0,0,1,.09-.171.362.362,0,0,1,.252-.045q.612.054,1.854.09h1.566q.378,0,.378-.126a1.8,1.8,0,0,0-.036-.216,4.929,4.929,0,0,0-.9-1.872.549.549,0,0,0-.468-.216h-1.062a15.047,15.047,0,0,0-2.124.2h-.108a.37.37,0,0,1-.36-.234l-.072-.126a.448.448,0,0,1-.054-.2q0-.27.36-.234.612.054,1.854.09h3.114a.334.334,0,0,0,.378-.378q-.036-1.53-.162-2.682v-.036q0-.324.27-.324a1.082,1.082,0,0,1,.18.036q1.368.4,1.368.594a.125.125,0,0,1-.063.1.781.781,0,0,0-.081.063l-.018.018a.536.536,0,0,0-.252.45V17.94a.377.377,0,0,0,.1.279.377.377,0,0,0,.279.1h.882a.334.334,0,0,0,.378-.378q-.036-1.53-.162-2.682v-.036q0-.324.27-.324a1.082,1.082,0,0,1,.18.036,7.3,7.3,0,0,1,1.071.36q.3.144.3.252,0,.072-.126.162l-.018.018a.536.536,0,0,0-.252.45V17.94a.429.429,0,0,0,.081.279.256.256,0,0,0,.207.1.482.482,0,0,0,.45-.252,10.3,10.3,0,0,0,.675-1.287,13.714,13.714,0,0,0,.513-1.323q.09-.27.306-.27a.448.448,0,0,1,.2.054q1.422.558,1.422.756,0,.072-.162.108l-.09.018a.762.762,0,0,0-.414.252,19.686,19.686,0,0,1-1.548,1.494.34.34,0,0,0-.162.252.163.163,0,0,0,.09.144.45.45,0,0,0,.234.054h1.224a.517.517,0,0,0,.45-.234l.216-.306q.072-.09.189-.243a2.391,2.391,0,0,1,.189-.225.207.207,0,0,1,.144-.072,1.868,1.868,0,0,1,.675.405,4.643,4.643,0,0,1,.765.693.275.275,0,0,1,.09.2.257.257,0,0,1-.108.2.544.544,0,0,1-.324.09h-3.168a1.981,1.981,0,0,0-.495.054q-.207.054-.081.09.378.126.378.252,0,.072-.2.162l-.09.036a.812.812,0,0,0-.4.27q-.684.72-1.116,1.116a.348.348,0,0,0-.144.252q0,.2.306.2h1.836a.517.517,0,0,0,.45-.234l.234-.306q.072-.09.189-.243a2.391,2.391,0,0,1,.189-.225.207.207,0,0,1,.144-.072,1.765,1.765,0,0,1,.657.4,4.909,4.909,0,0,1,.747.693.4.4,0,0,1,.09.216.257.257,0,0,1-.108.2.6.6,0,0,1-.324.09h-5.49a.377.377,0,0,0-.279.1.377.377,0,0,0-.1.279v.9a.377.377,0,0,0,.1.279.377.377,0,0,0,.279.1h2.448a.517.517,0,0,0,.45-.234l.2-.27a2.592,2.592,0,0,0,.153-.216,1.292,1.292,0,0,1,.171-.216.248.248,0,0,1,.162-.09,1.734,1.734,0,0,1,.612.378,4.52,4.52,0,0,1,.72.666.4.4,0,0,1,.09.216.22.22,0,0,1-.126.2.5.5,0,0,1-.306.072h-4.572a.377.377,0,0,0-.279.1.377.377,0,0,0-.1.279V25.32a.377.377,0,0,0,.1.279.377.377,0,0,0,.279.1Zm-10.422-9.972q-.2-.2-.2-.306,0-.09.126-.09a.888.888,0,0,1,.27.054,3.95,3.95,0,0,1,1.629.963,1.7,1.7,0,0,1,.513,1.125.842.842,0,0,1-.18.558.562.562,0,0,1-.45.216.57.57,0,0,1-.288-.072A.371.371,0,0,1-23,18.03a1.31,1.31,0,0,1-.108-.252,4.5,4.5,0,0,0-.432-1.062A5.05,5.05,0,0,0-24.246,15.726Zm7.668,3.366a.24.24,0,0,0-.09-.2.363.363,0,0,0-.234-.072h-4.032q-.288,0-.288.126,0,.09.216.252a2.386,2.386,0,0,1,.7.711,1.421,1.421,0,0,1,.234.729.725.725,0,0,1-.018.2,1.8,1.8,0,0,0-.036.216q0,.2.27.2h1.944A.482.482,0,0,0-17.46,21q.522-.972.846-1.746ZM.954,17.562a.564.564,0,0,0,.468-.234l.468-.612a.39.39,0,0,1,.288-.18.389.389,0,0,1,.252.108l.936.792a.378.378,0,0,0,.27.126.4.4,0,0,0,.27-.144,12.679,12.679,0,0,0,1.26-1.854.324.324,0,0,1,.288-.2.525.525,0,0,1,.27.108q1.224.954,1.224,1.17,0,.09-.2.09H6.624a.5.5,0,0,0-.414.216,25.094,25.094,0,0,1-3.312,3.4.35.35,0,0,0-.162.27.163.163,0,0,0,.09.144.45.45,0,0,0,.234.054h2a.517.517,0,0,0,.45-.234l.252-.36q.054-.072.18-.252a2.977,2.977,0,0,1,.207-.27.22.22,0,0,1,.153-.09,2.159,2.159,0,0,1,.693.459,5.962,5.962,0,0,1,.819.765.4.4,0,0,1,.09.216.257.257,0,0,1-.108.2.544.544,0,0,1-.324.09H1.944a.79.79,0,0,0-.486.162A27.576,27.576,0,0,1-.936,23.178q-.2.144-.2.252a.163.163,0,0,0,.09.144.45.45,0,0,0,.234.054h4.1a.534.534,0,0,0,.468-.234l.126-.18q.054-.072.153-.2a1.337,1.337,0,0,1,.162-.18.2.2,0,0,1,.135-.054,1.68,1.68,0,0,1,.63.351,4.472,4.472,0,0,1,.738.639.31.31,0,0,1,.072.2.3.3,0,0,1-.144.234l-.18.108a.713.713,0,0,0-.243.162.363.363,0,0,0-.081.252v1.836q.036,1.98.126,3.942v.072a.435.435,0,0,1-.2.4,2.442,2.442,0,0,1-.549.243,1.87,1.87,0,0,1-.549.1.249.249,0,0,1-.234-.126.448.448,0,0,1-.054-.2.985.985,0,0,1,.036-.216l.036-.18a.344.344,0,0,0-.378-.378H-2.088a.377.377,0,0,0-.279.1.377.377,0,0,0-.1.279v.378q0,.126-.369.3a1.84,1.84,0,0,1-.783.171.4.4,0,0,1-.279-.108.333.333,0,0,1-.117-.252q.072-.918.117-1.8t.063-2.25V25.32q0-.342-.252-.342a.448.448,0,0,0-.2.054A36.41,36.41,0,0,1-7.7,26.454a.639.639,0,0,1-.234.036q-.144,0-.162-.072v-.036q0-.126.288-.252a37.058,37.058,0,0,0,3.726-1.98.5.5,0,0,0,.252-.468v-.306q0-.342.252-.342a.566.566,0,0,1,.2.072l.216.126a.363.363,0,0,0,.234.072.539.539,0,0,0,.288-.108q1.044-.72,1.908-1.386a.348.348,0,0,0,.144-.252q0-.216-.324-.216H-4.842a19.389,19.389,0,0,0-2.376.2h-.108a.37.37,0,0,1-.36-.234l-.072-.144a.479.479,0,0,1-.054-.216.2.2,0,0,1,.09-.171.362.362,0,0,1,.252-.045q.612.054,1.854.09H-2.16a.377.377,0,0,0,.279-.1.377.377,0,0,0,.1-.279V18.48a.377.377,0,0,0-.1-.279.377.377,0,0,0-.279-.1H-3.2a17.579,17.579,0,0,0-2.3.2h-.108a.37.37,0,0,1-.36-.234l-.09-.162a.448.448,0,0,1-.054-.2q0-.27.36-.234.612.054,1.854.09H-2.16a.334.334,0,0,0,.378-.378q-.036-1.206-.126-1.98v-.036q0-.324.288-.324a.468.468,0,0,1,.144.018q1.494.4,1.494.63,0,.072-.126.162l-.036.018a.508.508,0,0,0-.252.45v1.062a.377.377,0,0,0,.1.279.377.377,0,0,0,.279.1ZM2.862,18.57a.363.363,0,0,0,.126-.252.183.183,0,0,0-.09-.153.435.435,0,0,0-.252-.063H-.018a.377.377,0,0,0-.279.1.377.377,0,0,0-.1.279v1.962a.377.377,0,0,0,.1.279.377.377,0,0,0,.279.1H.216A.788.788,0,0,0,.7,20.64Q1.656,19.776,2.862,18.57Zm.5,7.992a.344.344,0,0,0,.378-.378V24.51a.344.344,0,0,0-.378-.378H-2.088a.377.377,0,0,0-.279.1.377.377,0,0,0-.1.279v1.674a.377.377,0,0,0,.1.279.377.377,0,0,0,.279.1Zm-5.454.522a.377.377,0,0,0-.279.1.377.377,0,0,0-.1.279v1.854a.377.377,0,0,0,.1.279.377.377,0,0,0,.279.1H3.366a.344.344,0,0,0,.378-.378V27.462a.344.344,0,0,0-.378-.378Zm25.7-9.54a.517.517,0,0,0,.45-.234l.252-.36q.054-.072.18-.252a2.977,2.977,0,0,1,.207-.27.22.22,0,0,1,.153-.09,2.159,2.159,0,0,1,.693.459,5.962,5.962,0,0,1,.819.765.4.4,0,0,1,.09.216.257.257,0,0,1-.108.2.544.544,0,0,1-.324.09H20.646a.435.435,0,0,0-.252.063.183.183,0,0,0-.09.153.4.4,0,0,0,.144.252,12.1,12.1,0,0,0,2.673,1.773,18.3,18.3,0,0,0,3.249,1.269q.36.09.324.18-.018.072-.135.126t-.171.072a1.493,1.493,0,0,0-.7.774q-.126.27-.306.27a.425.425,0,0,1-.18-.054A16.808,16.808,0,0,1,22,20.928a9.861,9.861,0,0,1-2.322-2.61q-.144-.252-.216-.252-.09,0-.09.378v.918q.054,1.494.09,2.232V21.7a.467.467,0,0,1-.144.342,1.65,1.65,0,0,1-.5.234,2.01,2.01,0,0,1-.585.09.331.331,0,0,1-.27-.108.382.382,0,0,1-.09-.252q.072-.774.108-1.962v-.5q0-.324-.2-.324a.4.4,0,0,0-.252.144A16.327,16.327,0,0,1,11.214,23.2a.7.7,0,0,1-.234.054.177.177,0,0,1-.162-.09.073.073,0,0,1-.018-.054q0-.108.288-.27a15.667,15.667,0,0,0,2.979-1.917,15.3,15.3,0,0,0,2.367-2.385.358.358,0,0,0,.09-.234.2.2,0,0,0-.09-.171.4.4,0,0,0-.234-.063H14.04a19.389,19.389,0,0,0-2.376.2h-.108a.37.37,0,0,1-.36-.234l-.072-.144a.448.448,0,0,1-.054-.2.215.215,0,0,1,.09-.189.362.362,0,0,1,.252-.045q.63.054,1.872.09H17.6a.334.334,0,0,0,.378-.378q-.036-1.08-.108-1.944V15.15q0-.288.27-.288a.468.468,0,0,1,.144.018q1.548.414,1.548.648,0,.09-.162.18l-.054.036a.508.508,0,0,0-.252.45v.972a.344.344,0,0,0,.378.378ZM21.4,22.854a.517.517,0,0,0,.45-.234l.18-.252.153-.207a1.841,1.841,0,0,1,.171-.207.207.207,0,0,1,.144-.072,1.668,1.668,0,0,1,.6.4,4.873,4.873,0,0,1,.729.72.31.31,0,0,1,.072.2.3.3,0,0,1-.162.234l-.162.09a.713.713,0,0,0-.243.162.363.363,0,0,0-.081.252v6.12a.344.344,0,0,0,.378.378h.252a.508.508,0,0,0,.45-.252l.234-.36q.054-.072.18-.252a2.977,2.977,0,0,1,.207-.27.22.22,0,0,1,.153-.09,2.1,2.1,0,0,1,.684.459,5.4,5.4,0,0,1,.81.783.31.31,0,0,1,.072.2.242.242,0,0,1-.108.216.5.5,0,0,1-.306.072H13.806a18.648,18.648,0,0,0-2.376.2h-.09a.419.419,0,0,1-.4-.234l-.072-.126a.479.479,0,0,1-.054-.216.2.2,0,0,1,.09-.171.362.362,0,0,1,.252-.045q.612.054,1.854.09h.792a.344.344,0,0,0,.378-.378V25.77a27.861,27.861,0,0,0-.162-3.168V22.53q0-.27.234-.27a.4.4,0,0,1,.18.036l1.1.468a1.076,1.076,0,0,0,.45.09Zm.09,2.43a.344.344,0,0,0,.378-.378V23.754a.344.344,0,0,0-.378-.378h-5.58a.344.344,0,0,0-.378.378v1.152a.344.344,0,0,0,.378.378Zm-5.958,2.142a.344.344,0,0,0,.378.378h5.58a.344.344,0,0,0,.378-.378V26.184a.344.344,0,0,0-.378-.378h-5.58a.344.344,0,0,0-.378.378ZM21.87,28.7a.344.344,0,0,0-.378-.378h-5.58a.344.344,0,0,0-.378.378v1.35a.344.344,0,0,0,.378.378h5.58a.344.344,0,0,0,.378-.378ZM40.734,24.69a.517.517,0,0,0,.45-.234l.234-.342q.072-.09.189-.252t.189-.243a.2.2,0,0,1,.144-.081,1.892,1.892,0,0,1,.684.432,4.683,4.683,0,0,1,.774.738.4.4,0,0,1,.09.216.257.257,0,0,1-.108.2.544.544,0,0,1-.324.09H38.5a.344.344,0,0,0-.378.378v3.546a.372.372,0,0,0,.342.414q1.188.108,2.646.108,2.808,0,4-.018h.09q.288,0,.288.108,0,.054-.117.135L45.2,30a1.108,1.108,0,0,0-.45.738.4.4,0,0,1-.414.342H41a15.125,15.125,0,0,1-3.366-.315,5.6,5.6,0,0,1-2.331-1.125,6.188,6.188,0,0,1-1.647-2.3q-.108-.234-.216-.234-.126,0-.234.216a9.446,9.446,0,0,1-3.384,3.96q-.288.18-.378.09a.073.073,0,0,1-.018-.054q0-.108.2-.306a11.048,11.048,0,0,0,2.925-5.967,12.612,12.612,0,0,0,.153-1.611.315.315,0,0,1,.117-.279.447.447,0,0,1,.333-.045q1.638.342,1.638.558,0,.072-.162.144l-.054.018a.588.588,0,0,0-.324.414,14.239,14.239,0,0,1-.54,1.854.985.985,0,0,0-.036.216.639.639,0,0,0,.072.288,4.989,4.989,0,0,0,2.556,2.412.571.571,0,0,0,.162.036.24.24,0,0,0,.2-.09.394.394,0,0,0,.072-.252v-7.11a.344.344,0,0,0-.378-.378H34.488a19.389,19.389,0,0,0-2.376.2H32a.37.37,0,0,1-.36-.234l-.072-.144a.448.448,0,0,1-.054-.2.215.215,0,0,1,.09-.189.362.362,0,0,1,.252-.045q.648.054,1.872.09H40.68a.58.58,0,0,0,.468-.216l.468-.576a.412.412,0,0,1,.306-.162.335.335,0,0,1,.216.072.224.224,0,0,0,.162.072q.18,0,.27-.27.288-.738.432-1.17a.571.571,0,0,0,.036-.162.24.24,0,0,0-.09-.2.394.394,0,0,0-.252-.072H32.436q-.342,0-.378.378a3.428,3.428,0,0,1-.324,1.3,2.072,2.072,0,0,1-.666.81,1.124,1.124,0,0,1-.7.234.815.815,0,0,1-.54-.18.641.641,0,0,1-.216-.522,1,1,0,0,1,.558-.81,2.724,2.724,0,0,0,.918-.945,3.043,3.043,0,0,0,.45-1.413q.036-.378.144-.378.144,0,.216.324a1.616,1.616,0,0,1,.09.342.391.391,0,0,0,.4.342h3.96a.334.334,0,0,0,.378-.378q-.036-1.08-.108-1.944V15.1q0-.288.27-.288a.468.468,0,0,1,.144.018,11.525,11.525,0,0,1,1.215.4q.351.153.351.261,0,.072-.162.162l-.054.036a.508.508,0,0,0-.252.45v.972a.344.344,0,0,0,.378.378h4.3a.549.549,0,0,0,.468-.216l.18-.216q.072-.072.234-.261t.27-.189q.126,0,.576.432a7.872,7.872,0,0,1,.72.774.566.566,0,0,1,.072.2q0,.18-.216.234L45,18.264a.776.776,0,0,0-.45.234,12.877,12.877,0,0,1-1.566,1.458.39.39,0,0,0-.18.288.29.29,0,0,0,.144.216l.288.252a.39.39,0,0,1,.18.288.173.173,0,0,1-.108.162.649.649,0,0,1-.288.054H38.5a.344.344,0,0,0-.378.378v2.718a.344.344,0,0,0,.378.378ZM52.02,30.108a.968.968,0,0,1-.63-.324,2.192,2.192,0,0,1-.522-.756,11.6,11.6,0,0,1-.7-4.284,11.169,11.169,0,0,1,.18-2.115q.18-.927.486-1.971.2-.7.288-1.107a3.684,3.684,0,0,0,.09-.8,2.312,2.312,0,0,0-.135-.765,1.614,1.614,0,0,0-.369-.621q-.036-.036-.108-.117a.238.238,0,0,1-.072-.153q0-.072.108-.072a.7.7,0,0,1,.288.09,3.521,3.521,0,0,1,1.17.909,2.185,2.185,0,0,1,.45,1.431,2.594,2.594,0,0,1-.162.882,7.655,7.655,0,0,1-.486,1.044q-.18.36-.36.765a4.708,4.708,0,0,0-.27.765,5.159,5.159,0,0,0-.18,1.386,3.691,3.691,0,0,0,.09.837q.09.387.234.387.072,0,.171-.153l.135-.207.99-2.034q.126-.2.2-.2.054,0,.054.072l-.054.216q-.27.72-.567,1.773a6.636,6.636,0,0,0-.3,1.719,4.946,4.946,0,0,0,.09.936q.09.468.252,1.152a4.462,4.462,0,0,1,.162.756.541.541,0,0,1-.153.414A.519.519,0,0,1,52.02,30.108Zm6.534-10.1a4.692,4.692,0,0,1-1.584-.234,3.248,3.248,0,0,1-.99-.531,2.083,2.083,0,0,1-.576-.657.561.561,0,0,1-.072-.234q0-.072.054-.072a.561.561,0,0,1,.18.09q.144.09.252.144a3.612,3.612,0,0,0,1.386.252,10.387,10.387,0,0,0,1.314-.108,12.769,12.769,0,0,0,1.386-.252,1.481,1.481,0,0,1,.45-.09,1.263,1.263,0,0,1,.738.225.643.643,0,0,1,.324.531q0,.486-.918.711A8.143,8.143,0,0,1,58.554,20.01Zm.558,9.324a6.533,6.533,0,0,1-2.529-.441,2.7,2.7,0,0,1-1.5-1.611,1.4,1.4,0,0,1-.126-.414.064.064,0,0,1,.072-.072.264.264,0,0,1,.144.072q.09.072.144.108a4.062,4.062,0,0,0,1.62.774,5.331,5.331,0,0,0,1.224.108,16.621,16.621,0,0,0,2.25-.2q.684-.072.738-.072a1.134,1.134,0,0,1,.774.252.735.735,0,0,1,.288.558q0,.576-.873.756A11.319,11.319,0,0,1,59.112,29.334Zm19.746-1.08a2.1,2.1,0,0,1,.576.54.989.989,0,0,1,.2.558.55.55,0,0,1-.18.4.569.569,0,0,1-.414.18,1.359,1.359,0,0,1-.81-.36A15.322,15.322,0,0,0,76.41,28.4a.448.448,0,0,0-.2-.054q-.216,0-.27.306-.432,1.89-3.33,1.89a5.9,5.9,0,0,1-1.53-.207,3.376,3.376,0,0,1-1.305-.648,1.38,1.38,0,0,1-.531-1.107,1.709,1.709,0,0,1,1.242-1.638,7.361,7.361,0,0,1,2.79-.5,7.855,7.855,0,0,1,.936.054h.054q.342,0,.342-.36-.162-2.52-.18-4.464-.018-.486-.018-1.206l-.072-2.61a3.219,3.219,0,0,0-.171-.981,1.039,1.039,0,0,0-.531-.531q-.306-.162-.306-.306,0-.126.171-.189a1.233,1.233,0,0,1,.423-.063,2.286,2.286,0,0,1,1.341.36,1.179,1.179,0,0,1,.513,1.026,4.1,4.1,0,0,1-.126.9,8.183,8.183,0,0,0-.2,1.17l-.036.576a.383.383,0,0,0,.108.3.341.341,0,0,0,.306.063,6.976,6.976,0,0,0,1.746-.486,1.275,1.275,0,0,1,.522-.09,1.374,1.374,0,0,1,.747.2.583.583,0,0,1,.315.5q0,.45-.774.666a5.8,5.8,0,0,1-1.566.216,3.929,3.929,0,0,1-.99-.126,2.362,2.362,0,0,0-.27-.036q-.162,0-.162.09,0,1.476.108,2.61t.288,2.358a3.953,3.953,0,0,1,.072.468q.018.306.576.486A10.812,10.812,0,0,1,78.858,28.254Zm-6.624,1.188a3.6,3.6,0,0,0,1.7-.315,1.42,1.42,0,0,0,.693-1.089v-.09a.347.347,0,0,0-.288-.342,6.376,6.376,0,0,0-1.764-.27,5.765,5.765,0,0,0-1.746.279q-.882.279-.882.855,0,.558.765.765A5.8,5.8,0,0,0,72.234,29.442Zm22.14-6.8a4.908,4.908,0,0,1,1.926.387A3.546,3.546,0,0,1,97.8,24.2a3.151,3.151,0,0,1,.585,1.926,3.291,3.291,0,0,1-.684,2.061,4.418,4.418,0,0,1-1.782,1.368,5.679,5.679,0,0,1-2.286.477,3.445,3.445,0,0,1-1.818-.468,1.4,1.4,0,0,1-.774-1.224,1.286,1.286,0,0,1,.5-1.026,1.857,1.857,0,0,1,1.233-.414,2.279,2.279,0,0,1,1.242.378,2.737,2.737,0,0,1,.954,1.062q.144.234.306.234a.31.31,0,0,0,.2-.072,3.653,3.653,0,0,0,1.134-1.134,2.713,2.713,0,0,0,.432-1.476,2.407,2.407,0,0,0-.864-2.034A3.235,3.235,0,0,0,94.14,23.2a3.659,3.659,0,0,0-2.115.675,6.937,6.937,0,0,0-1.917,2.313q-.072.126-.288.522a1.81,1.81,0,0,1-.423.558.727.727,0,0,1-.459.162.7.7,0,0,1-.54-.216.745.745,0,0,1-.2-.522,2.082,2.082,0,0,1,.4-1.152,18.678,18.678,0,0,1,1.35-1.692q2.916-3.348,4.176-4.986.09-.126.225-.288a1.558,1.558,0,0,0,.2-.288.527.527,0,0,0,.063-.234.542.542,0,0,0-.144-.351.394.394,0,0,0-.288-.171q-.216,0-.468.324a6.191,6.191,0,0,1-1.188,1.215,2.062,2.062,0,0,1-1.242.477,1.058,1.058,0,0,1-.837-.387A2.26,2.26,0,0,1,90,17.976l-.018-.324q0-.162.072-.162.054,0,.27.27a.724.724,0,0,0,.576.324,2.847,2.847,0,0,0,.981-.279,12.483,12.483,0,0,0,1.449-.747,1.589,1.589,0,0,1,.846-.306,2.479,2.479,0,0,1,.855.2,2.928,2.928,0,0,1,.891.531.966.966,0,0,1,.378.729,1.322,1.322,0,0,1-.648,1.008,22.431,22.431,0,0,0-3.636,3.474.311.311,0,0,0-.108.216.18.18,0,0,0,.063.144.254.254,0,0,0,.171.054.448.448,0,0,0,.2-.054A5.6,5.6,0,0,1,94.374,22.638Zm-.828,6.48a.7.7,0,0,0,.243-.207.238.238,0,0,0,.027-.243,1.4,1.4,0,0,0-1.278-.918.684.684,0,0,0-.486.153.489.489,0,0,0-.162.369q0,.342.531.594A2.592,2.592,0,0,0,93.546,29.118Zm10.89,2.718a.492.492,0,0,1,.126-.234,15.113,15.113,0,0,0,1.332-1.674,11.082,11.082,0,0,0,1.242-2.691,12.719,12.719,0,0,0,.594-4.077,12.719,12.719,0,0,0-.594-4.077,11.082,11.082,0,0,0-1.242-2.691,15.113,15.113,0,0,0-1.332-1.674.492.492,0,0,1-.126-.234.111.111,0,0,1,.045-.09.155.155,0,0,1,.1-.036.322.322,0,0,1,.2.09,10.083,10.083,0,0,1,1.566,1.449,10.92,10.92,0,0,1,1.782,2.889,10.535,10.535,0,0,1,.846,4.374,10.535,10.535,0,0,1-.846,4.374,10.92,10.92,0,0,1-1.782,2.889,10.083,10.083,0,0,1-1.566,1.449.322.322,0,0,1-.2.09.175.175,0,0,1-.09-.036A.106.106,0,0,1,104.436,31.836Z" transform="translate(427 23545)" fill="#efefef"/><path d="M0,0H252V37H0Z" transform="translate(360 23404)" fill="#a79758"/><path d="M11.265-8.235a.431.431,0,0,0,.375-.195l.18-.24.143-.187a1.992,1.992,0,0,1,.158-.187.173.173,0,0,1,.12-.06,1.02,1.02,0,0,1,.39.225,5.8,5.8,0,0,1,.562.48q.263.255.263.36-.015.24-.375.24H7.77a16.157,16.157,0,0,0-1.98.165H5.7a.308.308,0,0,1-.3-.2l-.06-.12a.4.4,0,0,1-.045-.18.165.165,0,0,1,.075-.142.3.3,0,0,1,.21-.038q.51.045,1.545.075h1.14A.314.314,0,0,0,8.5-8.318.314.314,0,0,0,8.58-8.55v-.735A.314.314,0,0,0,8.5-9.517.314.314,0,0,0,8.265-9.6h-.93a16.157,16.157,0,0,0-1.98.165h-.09a.308.308,0,0,1-.3-.195l-.06-.1a.4.4,0,0,1-.045-.18.165.165,0,0,1,.075-.142.3.3,0,0,1,.21-.037q.51.045,1.545.075H8.265A.314.314,0,0,0,8.5-10.1a.314.314,0,0,0,.082-.233v-.54a.319.319,0,0,0-.09-.248.3.3,0,0,0-.24-.067q-1.3.06-2.67.09-.27,0-.3-.135v-.015q0-.12.3-.165,1.53-.2,3.435-.57a12.233,12.233,0,0,0,2.415-.735.4.4,0,0,1,.18-.045.376.376,0,0,1,.27.15,3.327,3.327,0,0,1,.75,1.035q0,.105-.225.075l-.18-.03a2.535,2.535,0,0,0-.39,0q-.945.135-1.83.21a.3.3,0,0,0-.3.33v.66a.314.314,0,0,0,.082.233.314.314,0,0,0,.233.083h2a.431.431,0,0,0,.375-.2l.18-.255q.045-.06.135-.187a1.535,1.535,0,0,1,.158-.195.189.189,0,0,1,.127-.068,1.349,1.349,0,0,1,.525.337,4.53,4.53,0,0,1,.6.578.258.258,0,0,1,.06.165.227.227,0,0,1-.09.18.415.415,0,0,1-.255.06H10.02a.314.314,0,0,0-.233.082.314.314,0,0,0-.082.233v.735a.314.314,0,0,0,.082.233.314.314,0,0,0,.233.082ZM10.335-6.9a.431.431,0,0,0,.375-.195l.135-.18q.06-.075.172-.225t.2-.15a1.323,1.323,0,0,1,.487.307,3.459,3.459,0,0,1,.578.563.258.258,0,0,1,.06.165.249.249,0,0,1-.12.2l-.09.045a.344.344,0,0,0-.27.345v1.4q.045,1.995.09,3v.075a.322.322,0,0,1-.15.3,2.121,2.121,0,0,1-.443.2,1.455,1.455,0,0,1-.458.083.165.165,0,0,1-.142-.075.333.333,0,0,1-.052-.2q0-.255-.315-.255H4.875a.314.314,0,0,0-.233.082.314.314,0,0,0-.082.232v.03q0,.105-.315.248A1.55,1.55,0,0,1,3.6-.765a.358.358,0,0,1-.24-.09.27.27,0,0,1-.105-.21q.06-.885.105-1.717t.06-2.183v-1.98q0-.315-.06-.315H3.285a.161.161,0,0,1-.142-.082.433.433,0,0,1-.053-.233v-1.59q0-.27-.18-.27a.37.37,0,0,0-.21.09A9.582,9.582,0,0,1,1.2-8.34Q.96-8.22.885-8.3A.061.061,0,0,1,.87-8.34q0-.09.18-.24a12.887,12.887,0,0,0,1.38-1.545,7.845,7.845,0,0,0,.735-1.155,6.5,6.5,0,0,0,.5-1.2q.075-.225.24-.225a.4.4,0,0,1,.18.045q1.275.57,1.275.735,0,.06-.135.09l-.045.015a.552.552,0,0,0-.345.24,7.519,7.519,0,0,1-.66.84.272.272,0,0,0-.09.2.379.379,0,0,0,.135.255q.315.27.315.39,0,.075-.135.15a.34.34,0,0,0-.21.345v1.59a.368.368,0,0,1-.135.33.334.334,0,0,0-.03.15.24.24,0,0,0,.15.225l.3.135a.9.9,0,0,0,.375.075Zm.06,1.635a.314.314,0,0,0,.233-.082.314.314,0,0,0,.082-.233v-.585a.314.314,0,0,0-.082-.233A.314.314,0,0,0,10.4-6.48H4.875a.314.314,0,0,0-.233.082.314.314,0,0,0-.082.233v.585a.314.314,0,0,0,.082.233.314.314,0,0,0,.233.082Zm-5.52.42a.314.314,0,0,0-.233.083.314.314,0,0,0-.082.233v.6a.314.314,0,0,0,.082.232.314.314,0,0,0,.233.082H10.4a.314.314,0,0,0,.233-.082.314.314,0,0,0,.082-.232v-.6a.314.314,0,0,0-.082-.233.314.314,0,0,0-.233-.083Zm0,1.665a.314.314,0,0,0-.233.083.314.314,0,0,0-.082.232v.6a.314.314,0,0,0,.082.232.314.314,0,0,0,.233.083H10.4a.314.314,0,0,0,.233-.083.314.314,0,0,0,.082-.232v-.6a.314.314,0,0,0-.082-.232A.314.314,0,0,0,10.4-3.18ZM5.61-1.245a.336.336,0,0,1,.225-.12.4.4,0,0,1,.21.105L6.45-.9a1.386,1.386,0,0,0,.315.24q.42.27.42.375t-.24.1H6.8a1,1,0,0,0-.39.09A15.041,15.041,0,0,1,4.177.683,19.11,19.11,0,0,1,1.59,1.2H1.47q-.15,0-.195-.075V1.1q0-.09.27-.18a16.673,16.673,0,0,0,1.92-.75A8.672,8.672,0,0,0,5.61-1.245ZM8.58-.63Q8.3-.72,8.3-.825q0-.06.09-.09a.592.592,0,0,1,.24-.015,16.061,16.061,0,0,1,2.827.4,4.812,4.812,0,0,1,1.53.608q.458.33.458.645a.436.436,0,0,1-.2.367.767.767,0,0,1-.465.143.915.915,0,0,1-.57-.2A8.281,8.281,0,0,0,10.7.15,14.175,14.175,0,0,0,8.58-.63ZM27.36-10.755a.461.461,0,0,0,.375-.21l.165-.27a2.107,2.107,0,0,0,.142-.21,1.474,1.474,0,0,1,.143-.2.166.166,0,0,1,.12-.068,1.649,1.649,0,0,1,.57.307,3.477,3.477,0,0,1,.645.533.324.324,0,0,1,.075.165.229.229,0,0,1-.075.165.426.426,0,0,1-.27.12l-4.14.285a.429.429,0,0,0-.195.068.153.153,0,0,0-.075.128.293.293,0,0,0,.1.195A5.361,5.361,0,0,0,27.96-8.43l.24.03a.283.283,0,0,0,.285-.165,5.1,5.1,0,0,0,.375-.975q.09-.27.18-.27.075.03.06.3l-.03.9a.459.459,0,0,0,.21.39.42.42,0,0,1,.255.345.455.455,0,0,1-.015.135q-.1.435-.825.435a4.825,4.825,0,0,1-.975-.135l-.09-.015q-.1,0-.1.06a.246.246,0,0,0,.09.15q.27.225.27.36,0,.075-.165.15H27.7a.351.351,0,0,0-.255.36V-4.86q.03,1.665.1,3.225v.06a.363.363,0,0,1-.165.33,2.074,2.074,0,0,1-.45.2,1.487,1.487,0,0,1-.45.082q-.2,0-.2-.3t-.315-.3H20.52a.314.314,0,0,0-.233.083.314.314,0,0,0-.083.232v.09q0,.105-.315.24a1.588,1.588,0,0,1-.63.135.378.378,0,0,1-.255-.09.27.27,0,0,1-.105-.21q.06-.885.105-1.717t.06-2.183V-7.2a.318.318,0,0,0-.067-.2q-.068-.09-.1-.135a.882.882,0,0,1-.03-.21V-9.165a.333.333,0,0,0-.052-.2.153.153,0,0,0-.128-.075.3.3,0,0,0-.195.075A12.19,12.19,0,0,1,16.77-8.28q-.255.12-.315.03A.061.061,0,0,1,16.44-8.3q0-.09.195-.24a11.178,11.178,0,0,0,1.62-1.665,7.012,7.012,0,0,0,.75-1.1,7.956,7.956,0,0,0,.555-1.2q.075-.21.24-.21a.4.4,0,0,1,.18.045q1.245.6,1.245.765,0,.06-.135.09h-.045a.611.611,0,0,0-.36.24,6.942,6.942,0,0,1-.66.81.324.324,0,0,0-.09.21.371.371,0,0,0,.135.24q.24.24.24.36,0,.075-.12.15a.34.34,0,0,0-.21.345v1.455a.357.357,0,0,1-.165.345v.03a.261.261,0,0,0,.15.225l.15.06a1,1,0,0,0,.39.09H25.92a.458.458,0,0,0,.39-.18.363.363,0,0,0,.09-.2q0-.15-.21-.225A5.336,5.336,0,0,1,23.505-9.81a.373.373,0,0,0-.39-.2L20.88-9.84h-.045a.3.3,0,0,1-.315-.21l-.015-.06q0-.165.3-.195l1.92-.12q.255-.03.255-.225a.334.334,0,0,0-.03-.15,10.012,10.012,0,0,1-.465-1.485l-.015-.075a.229.229,0,0,1,.082-.187.333.333,0,0,1,.218-.068,4.789,4.789,0,0,1,.915.06q.27.06.27.15,0,.03-.09.12a.33.33,0,0,0-.15.285.39.39,0,0,0,.015.12,5.4,5.4,0,0,0,.435,1.11.37.37,0,0,0,.39.21ZM24.93-12.2q-.21-.165-.21-.225a.084.084,0,0,1,.067-.083.718.718,0,0,1,.247-.007,3.047,3.047,0,0,1,1.515.4.923.923,0,0,1,.495.727.467.467,0,0,1-.135.345.467.467,0,0,1-.345.135.39.39,0,0,1-.12-.015.445.445,0,0,1-.3-.21,5.287,5.287,0,0,0-.555-.562A5.245,5.245,0,0,0,24.93-12.2ZM25.98-5.52a.314.314,0,0,0,.233-.082.314.314,0,0,0,.083-.233v-.66a.314.314,0,0,0-.083-.233.314.314,0,0,0-.233-.082H20.52a.314.314,0,0,0-.233.082.314.314,0,0,0-.083.233v.66a.314.314,0,0,0,.083.233.314.314,0,0,0,.233.082Zm.315.735a.314.314,0,0,0-.083-.233A.314.314,0,0,0,25.98-5.1H20.52a.314.314,0,0,0-.233.082.314.314,0,0,0-.083.233v.69a.314.314,0,0,0,.083.233.314.314,0,0,0,.233.082h5.46a.314.314,0,0,0,.233-.082A.314.314,0,0,0,26.3-4.1ZM20.52-3.345a.314.314,0,0,0-.233.082.314.314,0,0,0-.083.232v.705a.314.314,0,0,0,.083.232.314.314,0,0,0,.233.083h5.46a.314.314,0,0,0,.233-.083.314.314,0,0,0,.083-.232V-3.03a.314.314,0,0,0-.083-.232.314.314,0,0,0-.233-.082Zm.675,2.1a.315.315,0,0,1,.225-.105.315.315,0,0,1,.225.105l.375.375a2.815,2.815,0,0,0,.3.255q.39.285.39.39t-.255.09l-.15-.015H22.23a.953.953,0,0,0-.33.075,16.181,16.181,0,0,1-2.317.758,18.332,18.332,0,0,1-2.632.472h-.1q-.18,0-.21-.09v-.03q0-.09.27-.165a14.787,14.787,0,0,0,2.13-.765A7.59,7.59,0,0,0,21.195-1.245Zm3.1.6q-.27-.075-.27-.18,0-.045.09-.082a.554.554,0,0,1,.255-.023,16.1,16.1,0,0,1,2.888.382A4.948,4.948,0,0,1,28.83.06Q29.3.39,29.3.7a.424.424,0,0,1-.195.353.767.767,0,0,1-.465.142,1.011,1.011,0,0,1-.57-.18A8.926,8.926,0,0,0,26.49.135,15.4,15.4,0,0,0,24.3-.645Zm15,1.02A5.324,5.324,0,0,1,36.743-.2a2.071,2.071,0,0,1-1.057-2,3.007,3.007,0,0,1,.54-1.793,5.733,5.733,0,0,1,1.4-1.358.254.254,0,0,0,.135-.21.336.336,0,0,0-.12-.225,2.506,2.506,0,0,1-.608-.878A3.211,3.211,0,0,1,36.84-7.83a5.564,5.564,0,0,1,.1-1.088q.1-.487.112-.592.075-.315.128-.637a3.79,3.79,0,0,0,.052-.608,1.5,1.5,0,0,0-.345-1.035q-.105-.1-.2-.187t-.1-.113q0-.105.225-.105a1.759,1.759,0,0,1,.36.045,1.518,1.518,0,0,1,.36.12,1.631,1.631,0,0,1,.705.48,1.211,1.211,0,0,1,.24.78,1.662,1.662,0,0,1-.068.48,4.609,4.609,0,0,1-.165.458q-.1.232-.142.367t-.173.427a3.482,3.482,0,0,0-.195.638,3.515,3.515,0,0,0-.068.7,2.4,2.4,0,0,0,.263,1.1q.262.518.592.518a1.105,1.105,0,0,0,.4-.09q.225-.09.585-.27.09-.045.4-.18A1.311,1.311,0,0,1,40.4-6.75a1.223,1.223,0,0,1,.667.195.539.539,0,0,1,.308.435.45.45,0,0,1-.27.442,3.718,3.718,0,0,1-.885.233,7.044,7.044,0,0,0-2.52.923A2.236,2.236,0,0,0,36.54-2.49a1.609,1.609,0,0,0,.525,1.245,2.29,2.29,0,0,0,1.59.48,7.526,7.526,0,0,0,1.305-.15,5.742,5.742,0,0,1,1.05-.135q.945,0,.945.6,0,.435-.757.63A7.765,7.765,0,0,1,39.3.375ZM54.015.315A2.889,2.889,0,0,1,51.472-.743a5.6,5.6,0,0,1-.743-3.2q0-1.365.195-3.315a17.2,17.2,0,0,0,.135-1.77,3.5,3.5,0,0,0-.157-1.14,1.28,1.28,0,0,0-.548-.69q-.135-.075-.135-.15,0-.1.2-.15a1.966,1.966,0,0,1,.427-.045,1.394,1.394,0,0,1,1.178.443,1.973,1.973,0,0,1,.337,1.222,8.521,8.521,0,0,1-.1,1.148q-.1.728-.12.863a2.558,2.558,0,0,0-.06.345,20.99,20.99,0,0,0-.3,3.255,5.71,5.71,0,0,0,.248,1.882,1.726,1.726,0,0,0,.81.983,3.332,3.332,0,0,0,1.553.3q1.98,0,4.83-2.25l.142-.1a.307.307,0,0,1,.158-.068q.045,0,.045.06a.623.623,0,0,1-.18.3Q56.655.315,54.015.315ZM74.16-10.755a.461.461,0,0,0,.375-.21l.165-.27a2.106,2.106,0,0,0,.142-.21,1.474,1.474,0,0,1,.143-.2.166.166,0,0,1,.12-.068,1.649,1.649,0,0,1,.57.307,3.477,3.477,0,0,1,.645.533.324.324,0,0,1,.075.165.229.229,0,0,1-.075.165.426.426,0,0,1-.27.12l-4.14.285a.429.429,0,0,0-.195.068.153.153,0,0,0-.075.128.293.293,0,0,0,.105.195A5.361,5.361,0,0,0,74.76-8.43L75-8.4a.283.283,0,0,0,.285-.165,5.1,5.1,0,0,0,.375-.975q.09-.27.18-.27.075.03.06.3l-.03.9a.459.459,0,0,0,.21.39.42.42,0,0,1,.255.345.455.455,0,0,1-.015.135q-.1.435-.825.435a4.825,4.825,0,0,1-.975-.135l-.09-.015q-.1,0-.1.06a.246.246,0,0,0,.09.15q.27.225.27.36,0,.075-.165.15h-.015a.351.351,0,0,0-.255.36V-4.86q.03,1.665.105,3.225v.06a.363.363,0,0,1-.165.33,2.074,2.074,0,0,1-.45.2,1.487,1.487,0,0,1-.45.082q-.195,0-.195-.3t-.315-.3H67.32a.314.314,0,0,0-.232.083.314.314,0,0,0-.082.232v.09q0,.105-.315.24a1.588,1.588,0,0,1-.63.135.379.379,0,0,1-.255-.09.27.27,0,0,1-.1-.21q.06-.885.1-1.717t.06-2.183V-7.2a.318.318,0,0,0-.068-.2q-.067-.09-.1-.135a.881.881,0,0,1-.03-.21V-9.165a.333.333,0,0,0-.052-.2.153.153,0,0,0-.128-.075.3.3,0,0,0-.195.075A12.19,12.19,0,0,1,63.57-8.28q-.255.12-.315.03A.061.061,0,0,1,63.24-8.3q0-.09.195-.24a11.178,11.178,0,0,0,1.62-1.665,7.012,7.012,0,0,0,.75-1.1,7.956,7.956,0,0,0,.555-1.2q.075-.21.24-.21a.4.4,0,0,1,.18.045q1.245.6,1.245.765,0,.06-.135.09h-.045a.611.611,0,0,0-.36.24,6.942,6.942,0,0,1-.66.81.324.324,0,0,0-.09.21.371.371,0,0,0,.135.24q.24.24.24.36,0,.075-.12.15a.34.34,0,0,0-.21.345v1.455a.357.357,0,0,1-.165.345v.03a.261.261,0,0,0,.15.225l.15.06a1,1,0,0,0,.39.09H72.72a.458.458,0,0,0,.39-.18.363.363,0,0,0,.09-.2q0-.15-.21-.225A5.336,5.336,0,0,1,70.305-9.81a.373.373,0,0,0-.39-.2L67.68-9.84h-.045a.3.3,0,0,1-.315-.21l-.015-.06q0-.165.3-.195l1.92-.12q.255-.03.255-.225a.334.334,0,0,0-.03-.15,10.012,10.012,0,0,1-.465-1.485l-.015-.075a.229.229,0,0,1,.082-.187.333.333,0,0,1,.217-.068,4.789,4.789,0,0,1,.915.06q.27.06.27.15,0,.03-.09.12a.33.33,0,0,0-.15.285.39.39,0,0,0,.015.12,5.4,5.4,0,0,0,.435,1.11.37.37,0,0,0,.39.21ZM71.73-12.2q-.21-.165-.21-.225a.084.084,0,0,1,.067-.083.718.718,0,0,1,.247-.007,3.047,3.047,0,0,1,1.515.4.923.923,0,0,1,.495.727.467.467,0,0,1-.135.345.467.467,0,0,1-.345.135.39.39,0,0,1-.12-.015.445.445,0,0,1-.3-.21,5.288,5.288,0,0,0-.555-.562A5.245,5.245,0,0,0,71.73-12.2ZM72.78-5.52a.314.314,0,0,0,.232-.082.314.314,0,0,0,.083-.233v-.66a.314.314,0,0,0-.083-.233.314.314,0,0,0-.232-.082H67.32a.314.314,0,0,0-.232.082.314.314,0,0,0-.082.233v.66a.314.314,0,0,0,.082.233.314.314,0,0,0,.232.082Zm.315.735a.314.314,0,0,0-.083-.233A.314.314,0,0,0,72.78-5.1H67.32a.314.314,0,0,0-.232.082.314.314,0,0,0-.082.233v.69a.314.314,0,0,0,.082.233.314.314,0,0,0,.232.082h5.46a.314.314,0,0,0,.232-.082A.314.314,0,0,0,73.1-4.1ZM67.32-3.345a.314.314,0,0,0-.232.082.314.314,0,0,0-.082.232v.705a.314.314,0,0,0,.082.232.314.314,0,0,0,.232.083h5.46a.314.314,0,0,0,.232-.083.314.314,0,0,0,.083-.232V-3.03a.314.314,0,0,0-.083-.232.314.314,0,0,0-.232-.082ZM68-1.245a.315.315,0,0,1,.225-.105.315.315,0,0,1,.225.105l.375.375a2.815,2.815,0,0,0,.3.255q.39.285.39.39t-.255.09l-.15-.015H69.03a.953.953,0,0,0-.33.075,16.182,16.182,0,0,1-2.318.758,18.332,18.332,0,0,1-2.632.472h-.1q-.18,0-.21-.09v-.03q0-.09.27-.165a14.786,14.786,0,0,0,2.13-.765A7.59,7.59,0,0,0,68-1.245Zm3.1.6q-.27-.075-.27-.18,0-.045.09-.082a.554.554,0,0,1,.255-.023,16.1,16.1,0,0,1,2.887.382A4.948,4.948,0,0,1,75.63.06Q76.1.39,76.1.7a.424.424,0,0,1-.195.353.767.767,0,0,1-.465.142,1.011,1.011,0,0,1-.57-.18A8.926,8.926,0,0,0,73.29.135,15.4,15.4,0,0,0,71.1-.645Zm14.115.96A2.889,2.889,0,0,1,82.673-.743a5.6,5.6,0,0,1-.743-3.2q0-1.365.195-3.315a17.2,17.2,0,0,0,.135-1.77,3.5,3.5,0,0,0-.158-1.14,1.28,1.28,0,0,0-.548-.69q-.135-.075-.135-.15,0-.1.2-.15a1.966,1.966,0,0,1,.428-.045,1.394,1.394,0,0,1,1.177.443,1.973,1.973,0,0,1,.338,1.222,8.521,8.521,0,0,1-.105,1.148q-.1.728-.12.863a2.558,2.558,0,0,0-.06.345,20.99,20.99,0,0,0-.3,3.255,5.71,5.71,0,0,0,.247,1.882,1.726,1.726,0,0,0,.81.983,3.332,3.332,0,0,0,1.552.3q1.98,0,4.83-2.25l.143-.1a.307.307,0,0,1,.158-.068q.045,0,.045.06a.623.623,0,0,1-.18.3Q87.855.315,85.215.315ZM105.24-.57a.314.314,0,0,0,.232-.082.314.314,0,0,0,.083-.233v-1.23A23.927,23.927,0,0,0,105.42-4.8v-.06a.212.212,0,0,1,.24-.24.39.39,0,0,1,.12.015,8.492,8.492,0,0,1,.982.338q.278.128.278.218,0,.06-.12.135l-.03.015a.423.423,0,0,0-.21.375V-2.79q.03,1.6.1,3.195V.48a.334.334,0,0,1-.135.3,1.511,1.511,0,0,1-.413.2,1.535,1.535,0,0,1-.487.083.167.167,0,0,1-.075-.015q-.18-.045-.18-.285a.82.82,0,0,0,.03-.18q0-.015.03-.315V.18a.314.314,0,0,0-.083-.233.314.314,0,0,0-.232-.082H96.96a.314.314,0,0,0-.232.082.314.314,0,0,0-.083.233V.2a1.96,1.96,0,0,1,.03.375A.93.93,0,0,1,96.652.8a.273.273,0,0,1-.1.142,1.2,1.2,0,0,1-.368.18,1.442,1.442,0,0,1-.443.075A.3.3,0,0,1,95.43.9q.075-.7.1-1.9v-1.11A23.929,23.929,0,0,0,95.4-4.8v-.06a.212.212,0,0,1,.24-.24.39.39,0,0,1,.12.015,8.493,8.493,0,0,1,.983.338q.277.128.277.218,0,.06-.12.135l-.045.03a.4.4,0,0,0-.21.375V-.885a.314.314,0,0,0,.083.233.314.314,0,0,0,.232.082h3.18a.314.314,0,0,0,.232-.082.314.314,0,0,0,.083-.233v-5.22a.314.314,0,0,0-.083-.233.314.314,0,0,0-.232-.082H97.65a.314.314,0,0,0-.233.082.314.314,0,0,0-.082.233v.225q0,.09-.3.217a1.523,1.523,0,0,1-.6.128.276.276,0,0,1-.225-.09.318.318,0,0,1-.075-.21q.06-.63.09-1.59V-8.37a21.3,21.3,0,0,0-.135-2.52v-.03q0-.27.24-.27a.39.39,0,0,1,.12.015,8.493,8.493,0,0,1,.982.337q.278.128.278.218,0,.06-.12.135l-.045.03a.4.4,0,0,0-.21.375v2.925a.314.314,0,0,0,.082.233.314.314,0,0,0,.233.082h2.49a.314.314,0,0,0,.232-.082.314.314,0,0,0,.083-.233V-9.54a23.927,23.927,0,0,0-.135-2.685v-.06a.212.212,0,0,1,.24-.24.39.39,0,0,1,.12.015,8.079,8.079,0,0,1,1.027.345q.292.135.293.225t-.12.15l-.045.03a.431.431,0,0,0-.195.375v4.23a.314.314,0,0,0,.082.233.314.314,0,0,0,.233.082h2.565a.314.314,0,0,0,.233-.082.314.314,0,0,0,.082-.233V-8.2a23.927,23.927,0,0,0-.135-2.685v-.06a.212.212,0,0,1,.24-.24.39.39,0,0,1,.12.015,8.493,8.493,0,0,1,.982.337q.278.128.278.218,0,.06-.12.135l-.03.015a.423.423,0,0,0-.21.375V-9.06q.045,1.89.09,2.82v.075a.322.322,0,0,1-.15.3,1.7,1.7,0,0,1-.405.18,1.556,1.556,0,0,1-.465.075.221.221,0,0,1-.21-.105.354.354,0,0,1-.045-.15.526.526,0,0,1,.03-.165l.03-.255q0-.06-.082-.1a.577.577,0,0,0-.233-.037h-2.565a.314.314,0,0,0-.233.082.314.314,0,0,0-.082.233v5.22a.314.314,0,0,0,.082.233.314.314,0,0,0,.233.082Zm11.175.885a2.889,2.889,0,0,1-2.542-1.058,5.6,5.6,0,0,1-.743-3.2q0-1.365.195-3.315a17.2,17.2,0,0,0,.135-1.77,3.5,3.5,0,0,0-.158-1.14,1.28,1.28,0,0,0-.548-.69q-.135-.075-.135-.15,0-.1.2-.15a1.966,1.966,0,0,1,.428-.045,1.394,1.394,0,0,1,1.177.443,1.973,1.973,0,0,1,.338,1.222,8.521,8.521,0,0,1-.105,1.148q-.1.728-.12.863a2.558,2.558,0,0,0-.06.345,20.99,20.99,0,0,0-.3,3.255,5.71,5.71,0,0,0,.247,1.882,1.726,1.726,0,0,0,.81.983,3.332,3.332,0,0,0,1.552.3q1.98,0,4.83-2.25l.143-.1a.307.307,0,0,1,.158-.068q.045,0,.045.06a.623.623,0,0,1-.18.3Q119.055.315,116.415.315Zm15.555-9.48q0,.255-.39.555a7.925,7.925,0,0,1-1.74,1.035.455.455,0,0,0-.27.345l-.33,1.56q-.1.465-.525,2.46t-.54,2.34a2.686,2.686,0,0,1-.338.742.5.5,0,0,1-.412.233.715.715,0,0,1-.5-.2.712.712,0,0,1-.217-.548,1.727,1.727,0,0,1,.18-.66,25.334,25.334,0,0,0,1.77-5.46l.015-.09a.2.2,0,0,0-.09-.187.374.374,0,0,0-.255-.022,4.836,4.836,0,0,1-.78.075,2.082,2.082,0,0,1-1.56-.9.287.287,0,0,1-.1-.18.08.08,0,0,1,.09-.09.891.891,0,0,1,.225.075,2.754,2.754,0,0,0,.99.21,3.443,3.443,0,0,0,.81-.12q.3-.075.69-.21a.418.418,0,0,0,.285-.33l.15-1.185a2.966,2.966,0,0,0,.03-.42,1.266,1.266,0,0,0-.18-.735,2.229,2.229,0,0,0-.63-.54q-.12-.075-.12-.135t.113-.075a1.025,1.025,0,0,1,.262-.03,2.3,2.3,0,0,1,.473.06,2.37,2.37,0,0,1,.5.165,1.666,1.666,0,0,1,.5.315.716.716,0,0,1,.188.54v.06l-.015.1a.385.385,0,0,0,.135.3q.255.18.39.255a3.208,3.208,0,0,0,.585.21,2.488,2.488,0,0,1,.465.2A.308.308,0,0,1,131.97-9.165ZM130.005-9.3a.39.39,0,0,0-.015.12.305.305,0,0,0,.045.173.138.138,0,0,0,.12.067.219.219,0,0,0,.135-.045q.285-.21.285-.345a.429.429,0,0,0-.075-.225.293.293,0,0,0-.24-.165q-.165,0-.21.2Zm6.825.8a1.447,1.447,0,0,1,.525.532,1.213,1.213,0,0,1,.18.577q0,.435-.72.54l-.413.06a3.585,3.585,0,0,0-.547.12,3.446,3.446,0,0,0-.533.21,3.751,3.751,0,0,0-.413.225.38.38,0,0,1-.18.06q-.075,0-.075-.06a.261.261,0,0,1,.075-.15q.09-.09.39-.345.435-.345.645-.548a.554.554,0,0,0,.21-.367q0-.15-.225-.315a1.935,1.935,0,0,0-.72-.352,2.934,2.934,0,0,0-.705-.1,1.6,1.6,0,0,0-.277.023,1.347,1.347,0,0,1-.158.022q-.21,0-.21-.12,0-.09.195-.18a4.055,4.055,0,0,1,1.35-.255,3.382,3.382,0,0,1,.893.113A2.512,2.512,0,0,1,136.83-8.5Zm-.615,7.32a1.257,1.257,0,0,1,.75.165.508.508,0,0,1,.2.285.418.418,0,0,1,.03.18.6.6,0,0,1-.458.608,4.041,4.041,0,0,1-1.268.158,5.329,5.329,0,0,1-2.67-.6,1.971,1.971,0,0,1-1.05-1.83,2.422,2.422,0,0,1,.06-.555,1.573,1.573,0,0,1,.135-.39q.09-.165.18-.3t.165-.135q.06,0,.06.09a.728.728,0,0,1-.03.173q-.03.112-.045.2a1.405,1.405,0,0,0-.015.225,1.867,1.867,0,0,0,.128.645,1.544,1.544,0,0,0,.457.63,2.1,2.1,0,0,0,.788.383,4.258,4.258,0,0,0,1.208.157q.15,0,.352-.015l.4-.03A6.1,6.1,0,0,1,136.215-1.185Zm15.195-10.65a.431.431,0,0,0,.375-.195l.135-.2.128-.172a1.5,1.5,0,0,1,.135-.165.158.158,0,0,1,.113-.053,1.39,1.39,0,0,1,.5.33,4.061,4.061,0,0,1,.607.6.258.258,0,0,1,.06.165.246.246,0,0,1-.135.2.588.588,0,0,1-.135.06.353.353,0,0,0-.27.36v1.02q.045,1.485.075,2.28v.075a.4.4,0,0,1-.135.315,1.512,1.512,0,0,1-.42.233,1.314,1.314,0,0,1-.465.1.162.162,0,0,1-.143-.083.433.433,0,0,1-.053-.232.314.314,0,0,0-.082-.233.314.314,0,0,0-.232-.082h-3.255a.314.314,0,0,0-.232.082.314.314,0,0,0-.083.233v.12q0,.105-.307.233a1.613,1.613,0,0,1-.622.127.242.242,0,0,1-.2-.09.318.318,0,0,1-.075-.21q.06-.63.09-1.575V-9.54a24.13,24.13,0,0,0-.12-2.46v-.06q0-.225.195-.225a.334.334,0,0,1,.15.03l.78.345a.9.9,0,0,0,.375.075Zm-7.185,3.3q.1,0,.21-.225l.165-.285a1.984,1.984,0,0,0,.128-.21,1.65,1.65,0,0,1,.143-.225.163.163,0,0,1,.12-.075q.105,0,.473.375a4.194,4.194,0,0,1,.548.66.373.373,0,0,1,.045.165.227.227,0,0,1-.09.18.385.385,0,0,1-.24.06h-1.29a.314.314,0,0,0-.232.082.314.314,0,0,0-.083.233v3.315a.3.3,0,0,0,.06.2.2.2,0,0,0,.165.075l.135-.03q.3-.12,1.275-.555a1.24,1.24,0,0,1,.24-.075q.09-.015.1.03v.03q0,.105-.18.225l-.45.33q-1.83,1.365-3.165,2.28a.694.694,0,0,0-.21.18.087.087,0,0,1-.015.06.193.193,0,0,1-.18.135q-.135,0-.24-.195l-.375-.795a.373.373,0,0,1-.045-.165.247.247,0,0,1,.2-.255q.75-.27,1.3-.495a.377.377,0,0,0,.24-.375V-7.8a.314.314,0,0,0-.083-.233.314.314,0,0,0-.232-.082h-.21a2.8,2.8,0,0,0-.585.105.476.476,0,0,1-.135.03.318.318,0,0,1-.285-.2l-.03-.06a.4.4,0,0,1-.045-.18q0-.2.285-.165l.765.045h.24a.314.314,0,0,0,.232-.083.314.314,0,0,0,.083-.232v-.585a23.929,23.929,0,0,0-.135-2.685v-.06a.212.212,0,0,1,.24-.24.39.39,0,0,1,.12.015,8.933,8.933,0,0,1,1.005.338q.285.128.285.217,0,.06-.12.135l-.045.03a.423.423,0,0,0-.21.375v2.46Q144.12-8.535,144.225-8.535ZM151.47-9.9a.314.314,0,0,0,.232-.082.314.314,0,0,0,.082-.233v-.855a.314.314,0,0,0-.082-.233.314.314,0,0,0-.232-.083h-3.255a.314.314,0,0,0-.232.083.314.314,0,0,0-.083.233v.855a.314.314,0,0,0,.083.233.314.314,0,0,0,.232.082Zm-3.255.42a.314.314,0,0,0-.232.083.314.314,0,0,0-.083.233v.9a.314.314,0,0,0,.083.233.314.314,0,0,0,.232.083h3.255a.314.314,0,0,0,.232-.083.314.314,0,0,0,.082-.233v-.9A.314.314,0,0,0,151.7-9.4a.314.314,0,0,0-.232-.083Zm4.14,3.315a.431.431,0,0,0,.375-.2l.195-.285.15-.2a1.939,1.939,0,0,1,.173-.21.189.189,0,0,1,.128-.068,1.577,1.577,0,0,1,.57.36,3.9,3.9,0,0,1,.645.615.33.33,0,0,1,.075.18.215.215,0,0,1-.09.165.454.454,0,0,1-.27.075H148.98a.4.4,0,0,0-.375.225l-.36.6a.279.279,0,0,0-.06.18q0,.2.27.2h4.065a.458.458,0,0,0,.39-.18l.12-.135q.045-.045.128-.142a.943.943,0,0,1,.142-.142.2.2,0,0,1,.12-.045,1.186,1.186,0,0,1,.457.278,4.218,4.218,0,0,1,.563.517.258.258,0,0,1,.06.165.188.188,0,0,1-.15.195l-.1.045a.429.429,0,0,0-.2.127.406.406,0,0,0-.083.218q-.285,3.585-1.245,4.38a2.322,2.322,0,0,1-1.17.45H151.5q-.24,0-.285-.3a.825.825,0,0,0-.225-.48,1.578,1.578,0,0,0-.78-.345q-.285-.06-.285-.2,0-.09.24-.09.075,0,.885.045l.435.03a1.168,1.168,0,0,0,.292-.03.671.671,0,0,0,.217-.1,2.44,2.44,0,0,0,.495-1.14,15.115,15.115,0,0,0,.345-2.325V-3.78a.265.265,0,0,0-.3-.3h-.3a.351.351,0,0,0-.36.255,9,9,0,0,1-4.38,4.875q-.27.135-.33.03a.087.087,0,0,1-.015-.06q0-.105.2-.24a9.264,9.264,0,0,0,3.285-4.5.476.476,0,0,0,.03-.135.2.2,0,0,0-.075-.165.328.328,0,0,0-.21-.06h-.33a.4.4,0,0,0-.375.225,9.39,9.39,0,0,1-1.86,2.317A12.02,12.02,0,0,1,145.185.27a.576.576,0,0,1-.225.075.121.121,0,0,1-.12-.06.087.087,0,0,1-.015-.06q0-.12.195-.225a10.575,10.575,0,0,0,1.95-1.673A10.754,10.754,0,0,0,148.44-3.7a.373.373,0,0,0,.045-.165q0-.21-.27-.21h-.345a.458.458,0,0,0-.39.18,10.144,10.144,0,0,1-2.9,2.115q-.255.15-.33.03a.061.061,0,0,1-.015-.045q0-.105.2-.24a9.268,9.268,0,0,0,1.59-1.507,9.379,9.379,0,0,0,1.185-1.808.373.373,0,0,0,.045-.165q0-.21-.285-.21h-.3a4.143,4.143,0,0,0-.945.135.39.39,0,0,1-.12.015.3.3,0,0,1-.285-.195l-.06-.105a.373.373,0,0,1-.045-.165q0-.225.3-.2.51.045,1.545.075Zm11.67-5.175q-.09-.18-.195-.18a.253.253,0,0,0-.21.15,14.93,14.93,0,0,1-2.8,3.015,16.772,16.772,0,0,1-3.66,2.37.739.739,0,0,1-.217.067.112.112,0,0,1-.113-.038v-.03q0-.09.21-.225a16.1,16.1,0,0,0,2.34-1.845,18.09,18.09,0,0,0,2.07-2.28,6.569,6.569,0,0,0,1.125-2.175.279.279,0,0,1,.39-.225l1.35.4a.449.449,0,0,1,.18.1.193.193,0,0,1,.075.142q0,.09-.1.1a.337.337,0,0,0-.165.27.256.256,0,0,0,.045.12,9.482,9.482,0,0,0,2.4,2.168,18.254,18.254,0,0,0,3.27,1.672q.255.12.255.21t-.255.195a1.277,1.277,0,0,0-.63.645.3.3,0,0,1-.255.18.575.575,0,0,1-.18-.045,13.85,13.85,0,0,1-2.9-2.108A9.724,9.724,0,0,1,164.025-11.34ZM162.33-6.69a11.353,11.353,0,0,0-1.68.165h-.09a.327.327,0,0,1-.3-.2l-.06-.105a.4.4,0,0,1-.045-.18.165.165,0,0,1,.075-.142.3.3,0,0,1,.21-.037q.51.045,1.545.075h2.625a.431.431,0,0,0,.375-.195l.21-.3q.06-.09.165-.232a1.939,1.939,0,0,1,.173-.21.189.189,0,0,1,.128-.068,1.711,1.711,0,0,1,.563.375,5.213,5.213,0,0,1,.682.645.33.33,0,0,1,.075.18.147.147,0,0,1-.075.135.414.414,0,0,1-.3.09ZM160.83.045a.314.314,0,0,0-.232.083.314.314,0,0,0-.083.233V.8q0,.09-.33.24a1.616,1.616,0,0,1-.675.15.242.242,0,0,1-.195-.09.318.318,0,0,1-.075-.21q.06-.7.09-1.785V-1.95a23.728,23.728,0,0,0-.135-2.64v-.06q0-.225.195-.225a.334.334,0,0,1,.15.03l.885.39a.924.924,0,0,0,.39.09h5.31a.484.484,0,0,0,.39-.18l.135-.18a1.821,1.821,0,0,0,.128-.15,1.2,1.2,0,0,1,.143-.158.183.183,0,0,1,.12-.052,1.536,1.536,0,0,1,.525.315,5.088,5.088,0,0,1,.645.555.324.324,0,0,1,.075.165.222.222,0,0,1-.135.2.379.379,0,0,1-.09.045.582.582,0,0,0-.075.03.344.344,0,0,0-.27.345V-2.22q.045,1.8.09,2.625v.06a.363.363,0,0,1-.165.33,2.566,2.566,0,0,1-.465.187,1.631,1.631,0,0,1-.465.083h-.06q-.18-.045-.18-.3a.82.82,0,0,0,.03-.18l.03-.2V.36a.314.314,0,0,0-.083-.233.314.314,0,0,0-.232-.083Zm0-3.975a.314.314,0,0,0-.232.082.314.314,0,0,0-.083.233V-.7a.314.314,0,0,0,.083.232.314.314,0,0,0,.232.082h5.385a.314.314,0,0,0,.232-.082A.314.314,0,0,0,166.53-.7v-2.91a.314.314,0,0,0-.083-.233.314.314,0,0,0-.232-.082Z" transform="translate(425 23428)" fill="#efefef"/><path d="M13.518-9.882a.517.517,0,0,0,.45-.234l.216-.288.171-.225a2.391,2.391,0,0,1,.189-.225.207.207,0,0,1,.144-.072,1.224,1.224,0,0,1,.468.27,6.963,6.963,0,0,1,.675.576q.315.306.315.432-.018.288-.45.288H9.324a19.389,19.389,0,0,0-2.376.2H6.84A.37.37,0,0,1,6.48-9.4L6.408-9.54a.479.479,0,0,1-.054-.216.2.2,0,0,1,.09-.171A.362.362,0,0,1,6.7-9.972q.612.054,1.854.09H9.918a.377.377,0,0,0,.279-.1.377.377,0,0,0,.1-.279v-.882a.377.377,0,0,0-.1-.279.377.377,0,0,0-.279-.1H8.8a19.389,19.389,0,0,0-2.376.2H6.318a.37.37,0,0,1-.36-.234l-.072-.126a.479.479,0,0,1-.054-.216.2.2,0,0,1,.09-.171.362.362,0,0,1,.252-.045q.612.054,1.854.09h1.89a.377.377,0,0,0,.279-.1.377.377,0,0,0,.1-.279v-.648a.383.383,0,0,0-.108-.3.354.354,0,0,0-.288-.081q-1.566.072-3.2.108-.324,0-.36-.162V-13.5q0-.144.36-.2,1.836-.234,4.122-.684a14.68,14.68,0,0,0,2.9-.882.479.479,0,0,1,.216-.054.451.451,0,0,1,.324.18,3.992,3.992,0,0,1,.9,1.242q0,.126-.27.09l-.216-.036a3.042,3.042,0,0,0-.468,0q-1.134.162-2.2.252a.356.356,0,0,0-.36.4v.792a.377.377,0,0,0,.1.279.377.377,0,0,0,.279.1h2.394a.517.517,0,0,0,.45-.234l.216-.306q.054-.072.162-.225a1.842,1.842,0,0,1,.189-.234.227.227,0,0,1,.153-.081,1.619,1.619,0,0,1,.63.4,5.436,5.436,0,0,1,.72.693.31.31,0,0,1,.072.2.273.273,0,0,1-.108.216.5.5,0,0,1-.306.072H12.024a.377.377,0,0,0-.279.1.377.377,0,0,0-.1.279v.882a.377.377,0,0,0,.1.279.377.377,0,0,0,.279.1ZM12.4-8.28a.517.517,0,0,0,.45-.234l.162-.216q.072-.09.207-.27t.243-.18a1.588,1.588,0,0,1,.585.369,4.15,4.15,0,0,1,.693.675.31.31,0,0,1,.072.2.3.3,0,0,1-.144.234l-.108.054a.413.413,0,0,0-.324.414v1.674q.054,2.394.108,3.6v.09a.386.386,0,0,1-.18.36,2.545,2.545,0,0,1-.531.243,1.746,1.746,0,0,1-.549.1.2.2,0,0,1-.171-.09.4.4,0,0,1-.063-.234q0-.306-.378-.306H5.85a.377.377,0,0,0-.279.1.377.377,0,0,0-.1.279v.036q0,.126-.378.3a1.86,1.86,0,0,1-.774.171.43.43,0,0,1-.288-.108.324.324,0,0,1-.126-.252q.072-1.062.126-2.061T4.1-5.958V-8.334q0-.378-.072-.378h-.09a.194.194,0,0,1-.171-.1.519.519,0,0,1-.063-.279V-11q0-.324-.216-.324a.444.444,0,0,0-.252.108,11.5,11.5,0,0,1-1.8,1.206q-.288.144-.378.054a.073.073,0,0,1-.018-.054q0-.108.216-.288A15.464,15.464,0,0,0,2.916-12.15,9.414,9.414,0,0,0,3.8-13.536a7.8,7.8,0,0,0,.594-1.44q.09-.27.288-.27a.479.479,0,0,1,.216.054q1.53.684,1.53.882,0,.072-.162.108l-.054.018A.663.663,0,0,0,5.8-13.9,9.023,9.023,0,0,1,5-12.888a.327.327,0,0,0-.108.234.454.454,0,0,0,.162.306q.378.324.378.468,0,.09-.162.18a.408.408,0,0,0-.252.414v1.908a.441.441,0,0,1-.162.4.4.4,0,0,0-.036.18.288.288,0,0,0,.18.27l.36.162a1.076,1.076,0,0,0,.45.09Zm.072,1.962a.377.377,0,0,0,.279-.1.377.377,0,0,0,.1-.279v-.7a.377.377,0,0,0-.1-.279.377.377,0,0,0-.279-.1H5.85a.377.377,0,0,0-.279.1.377.377,0,0,0-.1.279v.7a.377.377,0,0,0,.1.279.377.377,0,0,0,.279.1Zm-6.624.5a.377.377,0,0,0-.279.1.377.377,0,0,0-.1.279v.72a.377.377,0,0,0,.1.279.377.377,0,0,0,.279.1h6.624a.377.377,0,0,0,.279-.1.377.377,0,0,0,.1-.279v-.72a.377.377,0,0,0-.1-.279.377.377,0,0,0-.279-.1Zm0,2a.377.377,0,0,0-.279.1.377.377,0,0,0-.1.279v.72a.377.377,0,0,0,.1.279.377.377,0,0,0,.279.1h6.624a.377.377,0,0,0,.279-.1.377.377,0,0,0,.1-.279v-.72a.377.377,0,0,0-.1-.279.377.377,0,0,0-.279-.1Zm.882,2.322A.4.4,0,0,1,7-1.638a.481.481,0,0,1,.252.126l.486.432a1.663,1.663,0,0,0,.378.288q.5.324.5.45t-.288.126h-.18a1.2,1.2,0,0,0-.468.108A18.049,18.049,0,0,1,5.013.819a22.932,22.932,0,0,1-3.105.621H1.764q-.18,0-.234-.09V1.314q0-.108.324-.216a20.008,20.008,0,0,0,2.3-.9A10.406,10.406,0,0,0,6.732-1.494ZM10.3-.756Q9.954-.864,9.954-.99q0-.072.108-.108a.711.711,0,0,1,.288-.018,19.273,19.273,0,0,1,3.393.477A5.774,5.774,0,0,1,15.579.09q.549.4.549.774a.524.524,0,0,1-.234.441.92.92,0,0,1-.558.171,1.1,1.1,0,0,1-.684-.234A9.938,9.938,0,0,0,12.843.18,17.009,17.009,0,0,0,10.3-.756Zm22.536-12.15a.553.553,0,0,0,.45-.252l.2-.324a2.528,2.528,0,0,0,.171-.252,1.768,1.768,0,0,1,.171-.243.2.2,0,0,1,.144-.081,1.979,1.979,0,0,1,.684.369,4.173,4.173,0,0,1,.774.639.389.389,0,0,1,.09.2.275.275,0,0,1-.09.2.511.511,0,0,1-.324.144l-4.968.342a.514.514,0,0,0-.234.081.183.183,0,0,0-.09.153.351.351,0,0,0,.126.234,6.433,6.433,0,0,0,3.618,1.584l.288.036a.34.34,0,0,0,.342-.2,6.124,6.124,0,0,0,.45-1.17q.108-.324.216-.324.09.036.072.36l-.036,1.08a.551.551,0,0,0,.252.468.5.5,0,0,1,.306.414.546.546,0,0,1-.018.162q-.126.522-.99.522a5.79,5.79,0,0,1-1.17-.162l-.108-.018q-.126,0-.126.072a.3.3,0,0,0,.108.18q.324.27.324.432,0,.09-.2.18h-.018a.421.421,0,0,0-.306.432v1.818q.036,2,.126,3.87v.072a.435.435,0,0,1-.2.4,2.489,2.489,0,0,1-.54.243,1.785,1.785,0,0,1-.54.1q-.234,0-.234-.36t-.378-.36H24.624a.377.377,0,0,0-.279.1.377.377,0,0,0-.1.279v.108q0,.126-.378.288a1.906,1.906,0,0,1-.756.162.454.454,0,0,1-.306-.108A.324.324,0,0,1,22.68-1.3q.072-1.062.126-2.061t.072-2.619V-8.64a.382.382,0,0,0-.081-.234q-.081-.108-.117-.162a1.058,1.058,0,0,1-.036-.252V-11a.4.4,0,0,0-.063-.234.183.183,0,0,0-.153-.09.358.358,0,0,0-.234.09,14.628,14.628,0,0,1-2.07,1.3q-.306.144-.378.036a.073.073,0,0,1-.018-.054q0-.108.234-.288a13.414,13.414,0,0,0,1.944-2,8.414,8.414,0,0,0,.9-1.314,9.547,9.547,0,0,0,.666-1.44q.09-.252.288-.252a.479.479,0,0,1,.216.054q1.494.72,1.494.918,0,.072-.162.108h-.054a.733.733,0,0,0-.432.288,8.33,8.33,0,0,1-.792.972.389.389,0,0,0-.108.252.446.446,0,0,0,.162.288q.288.288.288.432,0,.09-.144.18a.408.408,0,0,0-.252.414v1.746a.428.428,0,0,1-.2.414v.036a.314.314,0,0,0,.18.27l.18.072a1.2,1.2,0,0,0,.468.108h6.5a.549.549,0,0,0,.468-.216.436.436,0,0,0,.108-.234q0-.18-.252-.27a6.4,6.4,0,0,1-3.222-2.358.447.447,0,0,0-.468-.234l-2.682.2H25a.363.363,0,0,1-.378-.252l-.018-.072q0-.2.36-.234l2.3-.144q.306-.036.306-.27a.4.4,0,0,0-.036-.18,12.015,12.015,0,0,1-.558-1.782l-.018-.09a.275.275,0,0,1,.1-.225.4.4,0,0,1,.261-.081,5.747,5.747,0,0,1,1.1.072q.324.072.324.18,0,.036-.108.144a.4.4,0,0,0-.18.342.468.468,0,0,0,.018.144A6.478,6.478,0,0,0,29-12.924a.444.444,0,0,0,.468.252Zm-2.916-1.728q-.252-.2-.252-.27a.1.1,0,0,1,.081-.1.861.861,0,0,1,.3-.009,3.656,3.656,0,0,1,1.818.477,1.108,1.108,0,0,1,.594.873.561.561,0,0,1-.162.414.561.561,0,0,1-.414.162.468.468,0,0,1-.144-.018.534.534,0,0,1-.36-.252,6.345,6.345,0,0,0-.666-.675A6.294,6.294,0,0,0,29.916-14.634Zm1.26,8.01a.377.377,0,0,0,.279-.1.377.377,0,0,0,.1-.279v-.792a.377.377,0,0,0-.1-.279.377.377,0,0,0-.279-.1H24.624a.377.377,0,0,0-.279.1.377.377,0,0,0-.1.279V-7a.377.377,0,0,0,.1.279.377.377,0,0,0,.279.1Zm.378.882a.377.377,0,0,0-.1-.279.377.377,0,0,0-.279-.1H24.624a.377.377,0,0,0-.279.1.377.377,0,0,0-.1.279v.828a.377.377,0,0,0,.1.279.377.377,0,0,0,.279.1h6.552a.377.377,0,0,0,.279-.1.377.377,0,0,0,.1-.279Zm-6.93,1.728a.377.377,0,0,0-.279.1.377.377,0,0,0-.1.279v.846a.377.377,0,0,0,.1.279.377.377,0,0,0,.279.1h6.552a.377.377,0,0,0,.279-.1.377.377,0,0,0,.1-.279v-.846a.377.377,0,0,0-.1-.279.377.377,0,0,0-.279-.1Zm.81,2.52a.378.378,0,0,1,.27-.126.378.378,0,0,1,.27.126l.45.45a3.378,3.378,0,0,0,.36.306q.468.342.468.468,0,.108-.306.108l-.18-.018h-.09a1.143,1.143,0,0,0-.4.09A19.418,19.418,0,0,1,23.5.819a22,22,0,0,1-3.159.567h-.126q-.216,0-.252-.108V1.242q0-.108.324-.2A17.744,17.744,0,0,0,22.842.126,9.109,9.109,0,0,0,25.434-1.494Zm3.726.72q-.324-.09-.324-.216,0-.054.108-.1a.664.664,0,0,1,.306-.027,19.325,19.325,0,0,1,3.465.459A5.937,5.937,0,0,1,34.6.072q.558.4.558.774a.509.509,0,0,1-.234.423.92.92,0,0,1-.558.171,1.213,1.213,0,0,1-.684-.216A10.712,10.712,0,0,0,31.788.162,18.474,18.474,0,0,0,29.16-.774Z" transform="translate(375 23429)" fill="#efefef"/><path d="M17.928-13.536a.774.774,0,0,0,.624-.288l.288-.36q.072-.1.24-.288a3.38,3.38,0,0,1,.276-.288.317.317,0,0,1,.2-.1q.168,0,.768.576a5.809,5.809,0,0,1,.888,1.032.413.413,0,0,1,.1.264.355.355,0,0,1-.216.312.79.79,0,0,1-.24.048.637.637,0,0,0-.552.432,18.176,18.176,0,0,1-2.088,4.176.642.642,0,0,0-.12.312.489.489,0,0,0,.24.408A10.68,10.68,0,0,1,20.58-4.9a3.877,3.877,0,0,1,.732,1.968,1.055,1.055,0,0,1-.216.708.721.721,0,0,1-.576.252,2.945,2.945,0,0,1-.384-.048.863.863,0,0,1-.48-.456,16.164,16.164,0,0,0-2.52-3.408.48.48,0,0,0-.36-.192.5.5,0,0,0-.36.168,16.47,16.47,0,0,1-6.384,3.768,1.185,1.185,0,0,1-.36.072q-.144,0-.168-.1v-.048q0-.168.384-.336a16.592,16.592,0,0,0,5.568-4.368.509.509,0,0,0,.12-.336.529.529,0,0,0-.168-.384,36.24,36.24,0,0,0-2.976-2.592q-.336-.288-.336-.432,0-.1.144-.1a1.317,1.317,0,0,1,.384.12,29.652,29.652,0,0,1,3.5,1.8.642.642,0,0,0,.312.12.431.431,0,0,0,.384-.264,15.7,15.7,0,0,0,1.392-3.288.624.624,0,0,0,.024-.192q0-.384-.456-.384H12.1a.475.475,0,0,0-.528.48,20.5,20.5,0,0,1-.924,5.4A10.882,10.882,0,0,1,7.92-2.52q-.312.36-.48.192a.207.207,0,0,1-.072-.144,1.057,1.057,0,0,1,.168-.384A14.777,14.777,0,0,0,9.324-7.944a39.036,39.036,0,0,0,.444-6.168V-16.7a18.507,18.507,0,0,0-.1-2.016v-.048q0-.432.312-.432a.6.6,0,0,1,.264.072l1.392.624a1.5,1.5,0,0,0,.624.12H18.24a.69.69,0,0,0,.6-.312l.36-.5.252-.336a3.508,3.508,0,0,1,.3-.36.331.331,0,0,1,.216-.12,2.761,2.761,0,0,1,.96.624,7.166,7.166,0,0,1,1.1,1.056.367.367,0,0,1,.12.264.328.328,0,0,1-.144.24.843.843,0,0,1-.456.12H12.12a.5.5,0,0,0-.372.132.5.5,0,0,0-.132.372v3.168a.5.5,0,0,0,.132.372.5.5,0,0,0,.372.132ZM2.592-18.888a1.149,1.149,0,0,1-.264-.432q0-.1.168-.1a1.185,1.185,0,0,1,.36.072,6.888,6.888,0,0,1,2.916,1.68A2.971,2.971,0,0,1,6.7-15.7a1.366,1.366,0,0,1-.276.876.842.842,0,0,1-.684.348,1.169,1.169,0,0,1-.48-.1.677.677,0,0,1-.384-.528,7.96,7.96,0,0,0-.888-1.992A9.428,9.428,0,0,0,2.592-18.888Zm1.152,9a.677.677,0,0,0,.6-.336l.24-.36q.072-.1.2-.3a1.9,1.9,0,0,1,.228-.3.277.277,0,0,1,.192-.1,2.343,2.343,0,0,1,.876.552,7.552,7.552,0,0,1,1.044.984.528.528,0,0,1,.12.288q0,.168-.24.312L6.672-9a.557.557,0,0,0-.456.552v5.5a.9.9,0,0,0,.24.624A5.132,5.132,0,0,0,8.124-1.152a7.489,7.489,0,0,0,2.148.516,33.562,33.562,0,0,0,3.36.132q5.928,0,8.712-.072h.12a.683.683,0,0,1,.276.048q.108.048.108.1,0,.072-.12.144T22.44-.12A1.532,1.532,0,0,0,21.6.888a.557.557,0,0,1-.552.456H13.656a19.868,19.868,0,0,1-3.432-.24A5.924,5.924,0,0,1,7.956.228,6.074,6.074,0,0,1,6.24-1.632.418.418,0,0,0,5.88-1.9a.527.527,0,0,0-.336.192Q4.08.024,3.048,1.056q-.264.264-.264.312v.048a.639.639,0,0,1-.288.072A.325.325,0,0,1,2.184,1.3L1.56.048A.639.639,0,0,1,1.488-.24a.433.433,0,0,1,.288-.384q1.128-.552,2.3-1.2a.636.636,0,0,0,.36-.6v-6.24a.5.5,0,0,0-.132-.372.5.5,0,0,0-.372-.132h-.48a6.2,6.2,0,0,0-1.224.192.728.728,0,0,1-.216.024.462.462,0,0,1-.432-.312l-.072-.168A.6.6,0,0,1,1.44-9.7q0-.336.48-.288.432.048,1.3.1Zm40.248-7.2a.677.677,0,0,0,.6-.336l.312-.456a4.264,4.264,0,0,0,.264-.36,3.1,3.1,0,0,1,.24-.324.266.266,0,0,1,.192-.108,1.713,1.713,0,0,1,.648.408,10.849,10.849,0,0,1,.948.864q.444.456.444.624-.024.384-.6.384H45.048a.668.668,0,0,0-.6.36,11.673,11.673,0,0,1-2.568,3.1.466.466,0,0,0-.216.36q0,.192.312.312a23.231,23.231,0,0,0,5.4,1.2q.5.048.5.168a.285.285,0,0,1-.168.168l-.24.12a1.825,1.825,0,0,0-.864,1.056.508.508,0,0,1-.624.36,17.667,17.667,0,0,1-5.616-2.184.687.687,0,0,0-.36-.12,1.1,1.1,0,0,0-.336.1,24.319,24.319,0,0,1-7.344,2.5.728.728,0,0,1-.216.024q-.264,0-.312-.144v-.048q0-.12.456-.264a22.139,22.139,0,0,0,6.264-2.736.52.52,0,0,0,.216-.36.537.537,0,0,0-.192-.36,10.9,10.9,0,0,1-1.92-2.592q-.144-.288-.336-.288-.168,0-.312.264l-.552.984a.787.787,0,0,0-.12.36.25.25,0,0,0,.012.1.167.167,0,0,1,.012.072l-.12.024a.569.569,0,0,1-.432-.216l-.408-.528a.66.66,0,0,1-.12-.336.466.466,0,0,1,.216-.36l.6-.456a.464.464,0,0,0,.192-.336q0-.288-.432-.288a7.061,7.061,0,0,0-1.3.192.762.762,0,0,1-.216.048.462.462,0,0,1-.432-.312l-.1-.168a.6.6,0,0,1-.072-.264q0-.36.48-.312.816.072,2.472.12h2.808a.445.445,0,0,0,.5-.5q-.048-1.416-.12-2.064V-19.7q0-.432.384-.432a.624.624,0,0,1,.192.024q1.968.552,1.968.864,0,.12-.216.24l-.072.048a.677.677,0,0,0-.336.6v.768a.5.5,0,0,0,.132.372.5.5,0,0,0,.372.132ZM28.032-19.32q-.432-.36-.312-.432a.331.331,0,0,1,.24-.072,1.01,1.01,0,0,1,.24.024,5.3,5.3,0,0,1,2.676,1.008,2.068,2.068,0,0,1,.876,1.536,1.114,1.114,0,0,1-.264.744.867.867,0,0,1-.7.312,1.313,1.313,0,0,1-.288-.048.485.485,0,0,1-.276-.156,1.84,1.84,0,0,1-.18-.3,6.078,6.078,0,0,0-.84-1.368A9.743,9.743,0,0,0,28.032-19.32ZM42-15.792a.6.6,0,0,0,.072-.264.3.3,0,0,0-.12-.24.484.484,0,0,0-.312-.1H37.368q-.456,0-.456.312a.528.528,0,0,0,.12.288,8.57,8.57,0,0,0,2.52,2.376,1.159,1.159,0,0,0,.312.1.573.573,0,0,0,.408-.192A9.863,9.863,0,0,0,42-15.792ZM26.664-4.584a.193.193,0,0,1,.132-.18.923.923,0,0,1,.372-.06H27.7a.581.581,0,0,0,.336-.072,1.565,1.565,0,0,0,.288-.432q.288-.552.912-1.932t2.136-4.884l1.272-2.9q.192-.432.408-.432.12,0,.12.192a1.185,1.185,0,0,1-.072.36L31.8-11.04Q30.288-6.648,30.12-6a8.113,8.113,0,0,0-.36,2.136,3.209,3.209,0,0,0,.108.768q.108.432.156.576.216.768.324,1.38a6.933,6.933,0,0,1,.084,1.4,1.97,1.97,0,0,1-.42,1.272,1.289,1.289,0,0,1-1.02.456.731.731,0,0,1-.516-.216,1.384,1.384,0,0,1-.348-.648A1.139,1.139,0,0,1,28.1.864,2.247,2.247,0,0,1,28.128.5a16.121,16.121,0,0,0,.168-2.28,7.227,7.227,0,0,0-.12-1.44,1.19,1.19,0,0,0-.36-.744,2.033,2.033,0,0,0-.672-.288Q26.664-4.368,26.664-4.584Zm-.1-9.336q-.384-.312-.312-.432a.331.331,0,0,1,.24-.072,1.01,1.01,0,0,1,.24.024,5.1,5.1,0,0,1,2.544.96A1.939,1.939,0,0,1,30.1-12a1.037,1.037,0,0,1-.264.708.83.83,0,0,1-.648.3.847.847,0,0,1-.336-.072.719.719,0,0,1-.432-.456A6.827,6.827,0,0,0,26.568-13.92Zm10.1,6.528a.4.4,0,0,0,.132.312.533.533,0,0,0,.372.12h5.376a.445.445,0,0,0,.5-.5l-.072-1.224v-.048q0-.432.36-.432l.216.048q1.944.576,1.944.84,0,.12-.216.24l-.072.048a.677.677,0,0,0-.336.6V-4.44q.048,2.616.168,5.28V.96a.534.534,0,0,1-.216.48,2.417,2.417,0,0,1-.66.324,2.457,2.457,0,0,1-.78.132.442.442,0,0,1-.36-.144.509.509,0,0,1-.12-.336q.1-1.1.144-2.76V-2.472a.5.5,0,0,0-.132-.372.5.5,0,0,0-.372-.132H36.72a.615.615,0,0,0-.576.408,7.4,7.4,0,0,1-4.08,4.32q-.408.216-.528.048a.1.1,0,0,1-.024-.072q0-.12.336-.384a6.87,6.87,0,0,0,2.364-3.156,12,12,0,0,0,.636-4v-1.68A10.118,10.118,0,0,0,34.8-8.64v-.048q0-.432.36-.432a.79.79,0,0,1,.24.048q1.848.528,1.848.816a.166.166,0,0,1-.084.132,1.041,1.041,0,0,0-.108.084l-.048.024a.677.677,0,0,0-.336.6Zm.5,1.128q-.5,0-.5.48a11.826,11.826,0,0,1-.12,1.56v.12q0,.432.456.432h5.544a.5.5,0,0,0,.372-.132.5.5,0,0,0,.132-.372V-5.76a.5.5,0,0,0-.132-.372.5.5,0,0,0-.372-.132ZM53.448-9.912a.6.6,0,0,0-.072-.312.217.217,0,0,0-.192-.12q-.144,0-.336.264a15.683,15.683,0,0,1-1.2,1.728q-.216.288-.384.288-.144,0-.144-.168a1.317,1.317,0,0,1,.12-.384,43.244,43.244,0,0,0,2.352-6.528q.288-1.032.528-2.328a21.067,21.067,0,0,0,.312-2.3q.048-.432.384-.432a1.443,1.443,0,0,1,.24.048q2.088.624,2.088.912,0,.1-.216.192l-.1.048a.953.953,0,0,0-.288.2.7.7,0,0,0-.144.3,37.149,37.149,0,0,1-1.512,4.344.79.79,0,0,0-.048.24.556.556,0,0,0,.264.456q.624.5.624.7,0,.12-.216.216a.56.56,0,0,0-.36.576v7.584q.048,2.616.168,5.28v.1a.558.558,0,0,1-.264.5,2.4,2.4,0,0,1-1.3.432.606.606,0,0,1-.408-.144.432.432,0,0,1-.168-.336q.1-1.416.168-2.748t.1-3.492Zm16.32-5.232a38.286,38.286,0,0,0-.216-4.3v-.1q0-.384.336-.384a1.443,1.443,0,0,1,.24.048q1.992.576,1.992.864,0,.12-.216.24l-.072.048a.677.677,0,0,0-.336.6V-.6A4.218,4.218,0,0,1,71.352.612a1.5,1.5,0,0,1-.612.792,3.641,3.641,0,0,1-1.4.492h-.12a.482.482,0,0,1-.48-.408,1.534,1.534,0,0,0-.48-.864,3.37,3.37,0,0,0-1.584-.6q-.48-.072-.48-.264,0-.144.384-.144.5,0,1.656.1l.984.048a.6.6,0,0,0,.444-.12.608.608,0,0,0,.108-.408Zm-7.44-3a.69.69,0,0,0,.6-.312l.312-.456a4.265,4.265,0,0,0,.264-.36,3.1,3.1,0,0,1,.24-.324.266.266,0,0,1,.192-.108,2.456,2.456,0,0,1,.9.576,6.409,6.409,0,0,1,1.02.984.528.528,0,0,1,.12.288.343.343,0,0,1-.144.264.843.843,0,0,1-.456.12H61.512a.483.483,0,0,0-.528.456q-.264,1.464-.6,2.712a.412.412,0,0,0-.024.168q0,.384.456.384h1.32a.774.774,0,0,0,.624-.288l.192-.24a4.047,4.047,0,0,0,.276-.324q.18-.228.324-.228.168,0,.732.48a6.913,6.913,0,0,1,.876.864.413.413,0,0,1,.1.264.355.355,0,0,1-.216.312l-.144.048a.63.63,0,0,0-.5.5,28.194,28.194,0,0,1-2.34,8.148,13.862,13.862,0,0,1-5.2,5.748.69.69,0,0,1-.336.156q-.144.012-.192-.06a.138.138,0,0,1-.048-.1q0-.12.288-.408a15.951,15.951,0,0,0,4.584-6.936,2.836,2.836,0,0,0,.144-.624q.024-.264-.1-.216a.76.76,0,0,1-.384.1.953.953,0,0,1-.432-.1.742.742,0,0,1-.408-.5,6.764,6.764,0,0,0-1.128-1.9.376.376,0,0,0-.336-.192.418.418,0,0,0-.36.264,18.149,18.149,0,0,1-1.9,2.568q-.312.36-.48.24a.163.163,0,0,1-.048-.12,1.116,1.116,0,0,1,.144-.408A26.28,26.28,0,0,0,59.16-16.944v-.1q0-.432-.48-.432h-.216a2.918,2.918,0,0,0-.744.144,1.443,1.443,0,0,1-.24.048.461.461,0,0,1-.432-.288l-.072-.12a.639.639,0,0,1-.072-.288.264.264,0,0,1,.12-.228.483.483,0,0,1,.336-.06q.816.072,2.472.12Zm3.36,5.808a38.286,38.286,0,0,0-.216-4.3v-.1q0-.384.336-.384a1.443,1.443,0,0,1,.24.048q1.9.552,1.9.84a.166.166,0,0,1-.084.132,1.041,1.041,0,0,0-.108.084l-.024.024a.715.715,0,0,0-.336.6v5.832q.048,2.616.168,5.28v.12a.534.534,0,0,1-.216.48,2.543,2.543,0,0,1-.624.324,2.017,2.017,0,0,1-.7.132.519.519,0,0,1-.384-.144A.46.46,0,0,1,65.5-3.7q.144-2.04.192-4.152Zm-3.072-.288q0-.432-.456-.432H60.432a.561.561,0,0,0-.576.408,15.788,15.788,0,0,1-.84,2.064.6.6,0,0,0-.072.264q0,.264.36.408a3.733,3.733,0,0,1,2.184,1.7q.168.312.24.312t.144-.288a37.729,37.729,0,0,0,.744-4.344Z" transform="translate(265 23432)" fill="#efefef"/></g></svg>