<svg xmlns="http://www.w3.org/2000/svg" xmlns:xlink="http://www.w3.org/1999/xlink" width="1082.915" height="84.06" viewBox="0 0 1082.915 84.06"><defs><filter id="a" x="0" y="0" width="1082.915" height="84.06" filterUnits="userSpaceOnUse"><feOffset input="SourceAlpha"/><feGaussianBlur stdDeviation="4" result="b"/><feFlood flood-color="#fff"/><feComposite operator="in" in2="b"/><feComposite in="SourceGraphic"/></filter></defs><g transform="matrix(1, 0, 0, 1, 0, 0)" filter="url(#a)"><path d="M15.8-21.58q0-1.17-.65-1.17-.52,0-.91.78A54.544,54.544,0,0,1,4.745-9.49q-.975.91-1.365.52A.441.441,0,0,1,3.25-9.3a2.191,2.191,0,0,1,.52-1.1,56.734,56.734,0,0,0,6.338-11.668A86.238,86.238,0,0,0,14.43-35.945l.065-.39a.992.992,0,0,0-.358-.812,1.442,1.442,0,0,0-.943-.292h-1.82a28.392,28.392,0,0,0-4.94.65l-.39.065a1.457,1.457,0,0,1-1.365-.91l-.26-.455a1.618,1.618,0,0,1-.2-.715.778.778,0,0,1,.358-.65,1.309,1.309,0,0,1,.943-.2q2.145.2,6.37.325H14.43a1.362,1.362,0,0,0,1.007-.357A1.362,1.362,0,0,0,15.8-40.69v-.91a103.689,103.689,0,0,0-.585-11.635v-.26a.919.919,0,0,1,1.04-1.04,1.691,1.691,0,0,1,.52.065,38.708,38.708,0,0,1,4.355,1.463q1.235.553,1.235.943,0,.325-.585.65l-.26.2A1.976,1.976,0,0,0,20.67-49.6v8.905a1.362,1.362,0,0,0,.358,1.007,1.362,1.362,0,0,0,1.007.357h.715a1.868,1.868,0,0,0,1.625-.845l.78-1.17q.26-.325.683-.91t.683-.878a.721.721,0,0,1,.52-.292q.455,0,2.243,1.56a19.7,19.7,0,0,1,2.632,2.665.966.966,0,0,1,.26.715.866.866,0,0,1-.325.715,2.282,2.282,0,0,1-1.235.325h-8.58a1.362,1.362,0,0,0-1.007.357,1.362,1.362,0,0,0-.358,1.007v3.445A1.708,1.708,0,0,0,21.775-31,18.046,18.046,0,0,1,28.7-26.52a7.582,7.582,0,0,1,2.177,4.81,3.409,3.409,0,0,1-.682,2.21,2.187,2.187,0,0,1-1.788.845,3.538,3.538,0,0,1-1.3-.325,2.313,2.313,0,0,1-1.04-1.43,27.943,27.943,0,0,0-3.7-7.41q-.455-.65-.91-.65a.662.662,0,0,0-.552.325,1.569,1.569,0,0,0-.228.91v15.08q.13,7.02.455,14.365V2.6a1.687,1.687,0,0,1-.52,1.235,6.08,6.08,0,0,1-1.788.975,5.989,5.989,0,0,1-2.048.39,1.864,1.864,0,0,1-1.2-.39,1.143,1.143,0,0,1-.488-.91q.26-3.835.455-7.442T15.8-13ZM35.62-40.5a103.689,103.689,0,0,0-.585-11.635v-.26a.919.919,0,0,1,1.04-1.04,1.691,1.691,0,0,1,.52.065,34.5,34.5,0,0,1,4.517,1.495q1.268.585,1.268.975,0,.325-.52.65l-.2.13a1.868,1.868,0,0,0-.845,1.625V-3.7a2.144,2.144,0,0,0,.585,1.722,3.9,3.9,0,0,0,2.34.488H49.27a43.316,43.316,0,0,0,5.265-.2,2.16,2.16,0,0,0,.845-.26,1.677,1.677,0,0,0,.585-.715q.78-1.3,2.21-9.49.26-1.235.65-1.235t.39,1.365l.26,8.775a1.81,1.81,0,0,0,.975,1.625,2.56,2.56,0,0,1,.813.78A1.91,1.91,0,0,1,61.49.13a2.091,2.091,0,0,1-1.04,1.885,9.155,9.155,0,0,1-3.673.91q-2.633.26-7.767.26H42.705q-4.095,0-5.59-1.235T35.62-2.6Zm48.49-2.73a1.889,1.889,0,0,0,1.69-.91l.325-.585q.13-.2.423-.617a4.819,4.819,0,0,1,.52-.65.683.683,0,0,1,.487-.228,5.141,5.141,0,0,1,1.982,1.2A15.107,15.107,0,0,1,91.91-42.77a1.406,1.406,0,0,1,.325.715q0,.39-.585.845l-.65.325a1.491,1.491,0,0,0-1.17,1.5v24.7a9.27,9.27,0,0,1-.618,3.835,3.624,3.624,0,0,1-2.5,1.82,1.116,1.116,0,0,1-.455.065q-.91,0-1.1-1.3l-.195-.975a3.206,3.206,0,0,0-.845-1.365q-.325-.195-1.3-.715-.455-.26-.455-.52,0-.39.975-.39l1.755.065a.632.632,0,0,0,.552-.227,1.318,1.318,0,0,0,.163-.747v-24.9a1.362,1.362,0,0,0-.357-1.007,1.362,1.362,0,0,0-1.008-.358H83.46a1.362,1.362,0,0,0-1.007.358A1.362,1.362,0,0,0,82.1-40.04v28.08q.13,7.085.455,14.3V2.6a1.511,1.511,0,0,1-.715,1.365,5.431,5.431,0,0,1-3.315,1.17,1.244,1.244,0,0,1-.878-.423,1.244,1.244,0,0,1-.423-.878q.26-3.835.455-7.443t.26-9.458V-40.04a1.362,1.362,0,0,0-.357-1.007,1.362,1.362,0,0,0-1.007-.358h-.585a1.362,1.362,0,0,0-1.007.358,1.362,1.362,0,0,0-.357,1.007v15.47q.13,7.085.455,14.3v.325A1.739,1.739,0,0,1,74.49-8.58a5.431,5.431,0,0,1-3.315,1.17,1.357,1.357,0,0,1-.943-.39,1.2,1.2,0,0,1-.423-.91q.26-3.445.423-6.825t.228-8.515v-8.32a99.957,99.957,0,0,0-.585-11.375V-44q0-.975.845-.975a1.447,1.447,0,0,1,.65.13l2.73,1.235a4,4,0,0,0,1.69.39h.455A1.206,1.206,0,0,0,77.61-44.59q-.13-5.2-.455-8.385v-.26a.919.919,0,0,1,1.04-1.04,1.691,1.691,0,0,1,.52.065q5.2,1.495,5.2,2.34,0,.325-.52.65l-.2.13a1.833,1.833,0,0,0-.91,1.625v4.875a1.362,1.362,0,0,0,.357,1.007,1.362,1.362,0,0,0,1.007.357Zm31.59-8.19a1.833,1.833,0,0,0,1.625-.91l.455-.65q.195-.26.52-.715a5.627,5.627,0,0,1,.552-.682.683.683,0,0,1,.488-.228,4.967,4.967,0,0,1,1.95,1.2,14.894,14.894,0,0,1,2.275,2.178,1.406,1.406,0,0,1,.325.715.961.961,0,0,1-.585.845l-.39.195a1.491,1.491,0,0,0-1.17,1.5v4.485q.195,6.565.325,9.88v.325a1.363,1.363,0,0,1-.715,1.3,6.963,6.963,0,0,1-3.575.91.716.716,0,0,1-.617-.325,1.443,1.443,0,0,1-.228-.845q0-1.105-1.365-1.105H99.775a1.362,1.362,0,0,0-1.007.358,1.362,1.362,0,0,0-.357,1.007v.26q0,.39-1.138.878a6.817,6.817,0,0,1-2.7.488,1.048,1.048,0,0,1-.845-.39,1.378,1.378,0,0,1-.325-.91q.26-2.535.39-6.5v-3.9A94.651,94.651,0,0,0,93.34-52.13v-.26q0-1.04.845-1.04a1.447,1.447,0,0,1,.65.13l3.575,1.56a3.886,3.886,0,0,0,1.625.325Zm-.13,8a1.362,1.362,0,0,0,1.007-.358,1.362,1.362,0,0,0,.357-1.007V-48.1a1.362,1.362,0,0,0-.357-1.007,1.362,1.362,0,0,0-1.007-.357H99.775a1.362,1.362,0,0,0-1.007.357A1.362,1.362,0,0,0,98.41-48.1v3.315a1.362,1.362,0,0,0,.357,1.007,1.362,1.362,0,0,0,1.007.358ZM99.775-41.6a1.362,1.362,0,0,0-1.007.357,1.362,1.362,0,0,0-.357,1.007v3.64a1.362,1.362,0,0,0,.357,1.007,1.362,1.362,0,0,0,1.007.358H115.57a1.362,1.362,0,0,0,1.007-.358,1.362,1.362,0,0,0,.357-1.007v-3.64a1.362,1.362,0,0,0-.357-1.007,1.362,1.362,0,0,0-1.007-.357ZM117.39-17.55a1.833,1.833,0,0,0,1.625-.91l.65-1.04q.26-.39.618-.943a5.147,5.147,0,0,1,.618-.812.749.749,0,0,1,.52-.26,6.183,6.183,0,0,1,2.21,1.462,14.513,14.513,0,0,1,2.535,2.568,1.119,1.119,0,0,1,.26.715.984.984,0,0,1-.39.78,1.8,1.8,0,0,1-1.105.26h-9.425a1.362,1.362,0,0,0-1.008.358,1.362,1.362,0,0,0-.357,1.007V-1.3a1.032,1.032,0,0,0,.26.845,2.239,2.239,0,0,0,1.17.195h2.99l2.925-.065a1.141,1.141,0,0,0,.488-.2,2.24,2.24,0,0,0,.423-.585,13.38,13.38,0,0,0,.52-1.95q.325-1.5.52-2.21l.585-2.405q.26-1.235.65-1.235.13,0,.26.39a3.123,3.123,0,0,1,.13.975l.13,5.59a1.626,1.626,0,0,0,.195.845,4.9,4.9,0,0,0,.715.845,1.979,1.979,0,0,1,.585,1.56A2.369,2.369,0,0,1,124.9,3.51a20.353,20.353,0,0,1-6.6.715h-4.1q-2.925,0-3.835-.942a4.917,4.917,0,0,1-.91-3.413V-14.365a1.362,1.362,0,0,0-.357-1.007,1.362,1.362,0,0,0-1.007-.358h-2.4a1.286,1.286,0,0,0-1.43,1.3q-1.1,7.67-4.907,12.188T87.815,4.81a3.208,3.208,0,0,1-.975.2q-.39,0-.455-.26V4.55q0-.39.975-.91a21.121,21.121,0,0,0,8.385-7.248A24.8,24.8,0,0,0,98.995-14.3v-.26q0-1.17-1.3-1.17H96.33a19.123,19.123,0,0,0-3.51.52,2.063,2.063,0,0,1-.585.13,1.251,1.251,0,0,1-1.17-.845l-.195-.39a1.731,1.731,0,0,1-.195-.78A.716.716,0,0,1,91-17.712a1.308,1.308,0,0,1,.91-.163q2.21.195,6.695.325h4.81a1.445,1.445,0,0,0,1.007-.325,1.167,1.167,0,0,0,.357-.91,103.689,103.689,0,0,0-.585-11.635v-.26q0-1.04.91-1.04a3.908,3.908,0,0,1,.65.13,34.345,34.345,0,0,1,4,1.365q1.137.52,1.137.91,0,.195-.52.585l-.13.065a1.833,1.833,0,0,0-.91,1.625v8.125a1.362,1.362,0,0,0,.357,1.008,1.362,1.362,0,0,0,1.007.357ZM115.9-29.185q.195-1.04,1.04-1.04a1.618,1.618,0,0,1,.715.195l1.69.91a14.077,14.077,0,0,0,1.56.715q2.015.715,2.015,1.235,0,.39-.715.585l-.26.065a2.746,2.746,0,0,0-1.5.975,39.86,39.86,0,0,1-6.435,5.655q-.975.65-1.3.325a.53.53,0,0,1-.13-.39A2.2,2.2,0,0,1,112.9-21,41.256,41.256,0,0,0,115.9-29.185ZM93.73-28.015q-.78-1.17-.455-1.365a.376.376,0,0,1,.26-.065,2.611,2.611,0,0,1,1.04.26,14.033,14.033,0,0,1,5.232,3.542,6.044,6.044,0,0,1,1.658,3.8,2.948,2.948,0,0,1-.682,2.015,2.124,2.124,0,0,1-1.658.78,2.162,2.162,0,0,1-1.17-.325,1.864,1.864,0,0,1-.975-1.43A23.507,23.507,0,0,0,93.73-28.015ZM163.6-45.435A28.98,28.98,0,0,1,174.72-43.16a21.533,21.533,0,0,1,9.23,7.28q3.705,5,3.705,12.74,0,9.425-5.655,14.788a29.5,29.5,0,0,1-12.837,7.28A50.97,50.97,0,0,1,156.13.845a3.478,3.478,0,0,1-.845-.1q-.39-.1-.39-.227,0-.26.845-.488a15.653,15.653,0,0,1,1.69-.357q10.92-1.82,17.842-7.507T182.2-23.465q0-7.215-3.055-11.667a17.241,17.241,0,0,0-7.475-6.338,22.232,22.232,0,0,0-8.775-1.885q-1.17.715-.91,1.56a22.349,22.349,0,0,1,.91,3.64,21.882,21.882,0,0,1,.325,3.575,29.134,29.134,0,0,1-.585,5.493,34.439,34.439,0,0,1-1.755,6.013,48.086,48.086,0,0,1-4.842,9.685,30.5,30.5,0,0,1-5.363,6.37q-2.6,2.21-4.225,2.21a6.038,6.038,0,0,1-4.518-2.405,17.8,17.8,0,0,1-3.38-6.24,24.706,24.706,0,0,1-1.268-7.8,21.816,21.816,0,0,1,3.8-12.675,25.4,25.4,0,0,1,9.88-8.515A28.3,28.3,0,0,1,163.6-45.435Zm-2.6,7.15a15.942,15.942,0,0,0-.39-3.705,1.258,1.258,0,0,0-1.625-1.04,21.489,21.489,0,0,0-8.775,3.8,21.288,21.288,0,0,0-6.3,7.28,20.054,20.054,0,0,0-2.34,9.587,18.3,18.3,0,0,0,.942,6.273,10.778,10.778,0,0,0,2.145,3.8q1.2,1.235,1.917,1.235,1.56,0,3.738-2.34a39.253,39.253,0,0,0,4.193-5.46,44.509,44.509,0,0,0,5-10.042A30.1,30.1,0,0,0,161.005-38.285Zm83.785,9.3a1.868,1.868,0,0,0,1.625-.845l1.04-1.43q.325-.455.715-.975a8.486,8.486,0,0,1,.78-.91,1.065,1.065,0,0,1,.65-.39q.52,0,2.7,1.755a23.292,23.292,0,0,1,3.152,2.925,1.431,1.431,0,0,1,.325.78.936.936,0,0,1-.325.65,2.282,2.282,0,0,1-1.235.325h-20.93a1.443,1.443,0,0,0-.845.227.716.716,0,0,0-.325.618,1.21,1.21,0,0,0,.26.78,48.187,48.187,0,0,0,10.27,11.8,50.545,50.545,0,0,0,13,8.092q1.1.52,1.1.78a.45.45,0,0,1-.228.358,2.109,2.109,0,0,1-.487.26q-.26.1-.455.162a5.7,5.7,0,0,0-2.925,2.795q-.39.845-1.04.845a1.618,1.618,0,0,1-.715-.195,47.605,47.605,0,0,1-11.895-10.53A55.411,55.411,0,0,1,230.36-26a11.017,11.017,0,0,0-.455-1.1h-.065V-12.35q.13,7.02.455,14.365V2.34a1.764,1.764,0,0,1-.52,1.3,6.591,6.591,0,0,1-1.852,1.138,5.524,5.524,0,0,1-2.178.487,1.864,1.864,0,0,1-1.2-.39,1.143,1.143,0,0,1-.488-.91q.26-3.835.455-7.443t.26-9.458v-6.5q0-1.17-.715-1.17-.455,0-.91.65A61.473,61.473,0,0,1,213.07-8.71,66.945,66.945,0,0,1,200.07.2q-1.235.585-1.5.13a.376.376,0,0,1-.065-.26q0-.455.845-1.04a68.257,68.257,0,0,0,11.9-11.115,70.6,70.6,0,0,0,9.035-13.39,1.618,1.618,0,0,0,.195-.715q0-.91-1.235-.91h-9.1a70.015,70.015,0,0,0-8.58.715h-.39a1.336,1.336,0,0,1-1.3-.845l-.26-.52a1.731,1.731,0,0,1-.2-.78.716.716,0,0,1,.325-.618,1.308,1.308,0,0,1,.91-.163q2.21.195,6.7.325H223.4a1.362,1.362,0,0,0,1.008-.358,1.362,1.362,0,0,0,.357-1.007V-39.39a1.362,1.362,0,0,0-.357-1.007,1.362,1.362,0,0,0-1.008-.357H215.02a70.016,70.016,0,0,0-8.58.715h-.39a1.336,1.336,0,0,1-1.3-.845l-.26-.52a1.731,1.731,0,0,1-.2-.78.716.716,0,0,1,.325-.618,1.308,1.308,0,0,1,.91-.162q2.21.2,6.7.325H223.4A1.207,1.207,0,0,0,224.77-44q-.13-5.265-.585-9.36v-.13q0-1.17,1.04-1.17a1.691,1.691,0,0,1,.52.065,34.5,34.5,0,0,1,4.518,1.495q1.268.585,1.268.975,0,.325-.585.65l-.2.13a1.833,1.833,0,0,0-.91,1.625V-44A1.362,1.362,0,0,0,230.2-43a1.362,1.362,0,0,0,1.008.357h9.49a1.868,1.868,0,0,0,1.625-.845l.975-1.365q.26-.39.715-1.008a8.406,8.406,0,0,1,.747-.91.821.821,0,0,1,.552-.292,7.5,7.5,0,0,1,2.6,1.657,21.692,21.692,0,0,1,3.055,2.828,1.21,1.21,0,0,1,.26.78.866.866,0,0,1-.325.715,2.884,2.884,0,0,1-1.3.325h-18.4a1.362,1.362,0,0,0-1.008.357,1.362,1.362,0,0,0-.357,1.007v9.035a1.362,1.362,0,0,0,.357,1.007,1.362,1.362,0,0,0,1.008.358Zm65.195,3.9a1.868,1.868,0,0,0,1.625-.845l1.04-1.43q.26-.325.747-.975t.78-.975a.8.8,0,0,1,.553-.325q.52,0,2.7,1.755a23.291,23.291,0,0,1,3.152,2.925.994.994,0,0,1,.325.715.93.93,0,0,1-.39.715,1.966,1.966,0,0,1-1.17.325h-21.32q-1.235,0-1.235.845a1.74,1.74,0,0,0,.325.845,43.936,43.936,0,0,0,10.27,10.14,52.6,52.6,0,0,0,13,6.955q1.17.39,1.17.65a.382.382,0,0,1-.2.325,2.228,2.228,0,0,1-.455.227q-.26.1-.455.163A5.86,5.86,0,0,0,317.72-.2q-.39.91-1.105.91a1.533,1.533,0,0,1-.65-.195,45.435,45.435,0,0,1-11.082-8.255A48.092,48.092,0,0,1,296.4-19.37q-.455-.845-.91-.845-.65,0-.65,1.17v6.7q.13,7.02.455,14.365V2.34a1.764,1.764,0,0,1-.52,1.3,6.59,6.59,0,0,1-1.853,1.138,5.524,5.524,0,0,1-2.177.487,1.611,1.611,0,0,1-1.137-.39,1.2,1.2,0,0,1-.423-.91q.455-6.565.585-14.495v-5.2a1.6,1.6,0,0,0-.195-.878.6.6,0,0,0-.52-.292,1.391,1.391,0,0,0-.91.585A61.781,61.781,0,0,1,277.908-6.24a68.459,68.459,0,0,1-12.772,7.865q-1.235.52-1.495.065a.376.376,0,0,1-.065-.26q0-.39.91-.975a63.63,63.63,0,0,0,11.863-9.913,67.543,67.543,0,0,0,9.2-12.122,1.618,1.618,0,0,0,.195-.715.8.8,0,0,0-.325-.65,1.311,1.311,0,0,0-.845-.26h-9.555a70.016,70.016,0,0,0-8.58.715h-.39a1.336,1.336,0,0,1-1.3-.845l-.26-.52a1.731,1.731,0,0,1-.195-.78.716.716,0,0,1,.325-.618,1.308,1.308,0,0,1,.91-.163q2.21.195,6.7.325H288.4a1.362,1.362,0,0,0,1.008-.358,1.362,1.362,0,0,0,.357-1.007V-40.82a1.362,1.362,0,0,0-.357-1.007,1.362,1.362,0,0,0-1.008-.357H277.94a70.016,70.016,0,0,0-8.58.715h-.39a1.336,1.336,0,0,1-1.3-.845l-.325-.585a1.731,1.731,0,0,1-.2-.78.716.716,0,0,1,.325-.618,1.308,1.308,0,0,1,.91-.162q2.21.2,6.695.325H288.4A1.206,1.206,0,0,0,289.77-45.5q-.13-4.875-.455-7.865v-.13q0-1.17.975-1.17l.585.13a41.62,41.62,0,0,1,4.388,1.462q1.268.553,1.267.943,0,.325-.585.65l-.2.13a1.833,1.833,0,0,0-.91,1.625V-45.5a1.362,1.362,0,0,0,.358,1.007,1.362,1.362,0,0,0,1.007.357h11.44a1.868,1.868,0,0,0,1.625-.845l.975-1.365q.26-.39.715-1.007a8.411,8.411,0,0,1,.747-.91.821.821,0,0,1,.553-.292,7.839,7.839,0,0,1,2.665,1.722,19.361,19.361,0,0,1,3.055,2.893,1.431,1.431,0,0,1,.325.78.936.936,0,0,1-.325.65,2.411,2.411,0,0,1-1.3.325H296.2a1.362,1.362,0,0,0-1.007.357,1.362,1.362,0,0,0-.358,1.007v14.365a1.362,1.362,0,0,0,.358,1.007,1.362,1.362,0,0,0,1.007.358ZM304.59-40.17q.2-.975.975-.975a1.618,1.618,0,0,1,.715.195l2.73,1.43q3.055,1.105,3.055,1.69,0,.39-.78.585l-.26.065a2.784,2.784,0,0,0-1.495,1.04,45.53,45.53,0,0,1-8.645,9.035q-.975.78-1.365.39a.53.53,0,0,1-.13-.39,1.645,1.645,0,0,1,.26-.78l.455-.91a45.691,45.691,0,0,0,2.535-5.492A53.178,53.178,0,0,0,304.59-40.17Zm-29.9.65q-.715-1.17-.39-1.365a.376.376,0,0,1,.26-.065,2.6,2.6,0,0,1,1.04.39,18.483,18.483,0,0,1,6.24,5.005,8.806,8.806,0,0,1,2.015,5.135,4.2,4.2,0,0,1-.747,2.568,2.235,2.235,0,0,1-1.853,1.007,2.744,2.744,0,0,1-1.495-.455,2.1,2.1,0,0,1-.845-1.5A30.5,30.5,0,0,0,274.69-39.52Zm99.645,2.145a6.121,6.121,0,0,1,4.1,1.5,4.879,4.879,0,0,1,1.755,3.9,6.413,6.413,0,0,1-2.7,5.233,30.282,30.282,0,0,1-7.117,3.933l-2.99,1.105q-7.345,2.795-6.825,2.6a1.666,1.666,0,0,0-1.1,1.56,15.053,15.053,0,0,0,0,2.8q0,.585.032,2.34a20.84,20.84,0,0,1-.032,2.275,3.325,3.325,0,0,1-.878,2.08,2.432,2.432,0,0,1-1.853.91A2.247,2.247,0,0,1,355-8a2.856,2.856,0,0,1-.747-1.95q0-.26.26-2.99a13.839,13.839,0,0,1,.13-1.43v-.26q0-1.04-.845-1.04a1.21,1.21,0,0,0-.78.26q-5.98,3.64-5.98,7.8,0,4.745,9.295,4.745a20.434,20.434,0,0,0,3.413-.26q1.528-.26,3.348-.715.325-.065,1.625-.357a11.263,11.263,0,0,1,2.47-.293,3.625,3.625,0,0,1,2.21.585,1.917,1.917,0,0,1,.78,1.625q0,2.21-3.737,3.12a33.863,33.863,0,0,1-8.027.91q-7.54,0-10.693-2.373a7.352,7.352,0,0,1-3.152-6.143,8.883,8.883,0,0,1,2.47-6.11,27.387,27.387,0,0,1,7.02-5.265,1.763,1.763,0,0,0,.975-1.56v-.975a9.875,9.875,0,0,0-1.105-5.2,3.122,3.122,0,0,0-2.6-1.755q-2.08,0-4.128,2.308A53.847,53.847,0,0,0,342.81-19.5l-.715,1.1q-.2.26-.975,1.43a9.86,9.86,0,0,1-1.495,1.82,2.047,2.047,0,0,1-1.3.65,2.206,2.206,0,0,1-1.918-.975,4.09,4.09,0,0,1-.682-2.4,4.7,4.7,0,0,1,1.625-3.445l.975-.91q1.82-1.69,3.152-3.087a23.206,23.206,0,0,0,2.5-3.153,45.181,45.181,0,0,0,4.55-9.3,2.063,2.063,0,0,0,.13-.585.755.755,0,0,0-.358-.682,1.574,1.574,0,0,0-1.007-.163,27.494,27.494,0,0,1-3.055.26,7.766,7.766,0,0,1-3.8-.878,22.546,22.546,0,0,1-3.8-2.827.713.713,0,0,1-.26-.455q0-.2.325-.2a3.785,3.785,0,0,1,.91.2,13.877,13.877,0,0,0,4.745.845,24.907,24.907,0,0,0,6.825-1.04,1.6,1.6,0,0,0,1.235-1.43,12.813,12.813,0,0,0,.195-2.08,4.732,4.732,0,0,0-2.08-4.16q-.52-.325-.52-.65a1.626,1.626,0,0,1,.39-.942,1.167,1.167,0,0,1,.91-.358,12.083,12.083,0,0,1,2.568.39,4.336,4.336,0,0,1,2.177.975,2.426,2.426,0,0,1,.455,1.625v.13a2.224,2.224,0,0,0,.227.942,1.291,1.291,0,0,0,.747.682,7.494,7.494,0,0,0,1.69.2,4.561,4.561,0,0,0,1.43-.2,8.441,8.441,0,0,1,1.365-.13q1.56,0,1.56,1.235a3.441,3.441,0,0,1-1.073,2.275A11.516,11.516,0,0,1,357.7-42.64a29.681,29.681,0,0,1-4.55,1.95,2.145,2.145,0,0,0-1.3,1.3,74.8,74.8,0,0,1-3.38,8.645,2.158,2.158,0,0,0-.2.845.46.46,0,0,0,.52.52l.52-.13a8.924,8.924,0,0,1,1.755-.26,6.779,6.779,0,0,1,6.955,4.745q.325.715.52.715.325,0,.585-.65a27.281,27.281,0,0,1,4.81-7.15,19.8,19.8,0,0,1,4.777-3.672A11.382,11.382,0,0,1,374.335-37.375Zm-19.89-9.815q-.26,0-.585,1.04,0,.975.39.78l.715-.455q.455-.26.455-.52t-.52-.585l-.325-.26Zm14.43,21.32a19.117,19.117,0,0,0,4.777-3.8,5.865,5.865,0,0,0,1.788-3.543q0-2.015-2.535-2.015a8.371,8.371,0,0,0-3.835,1.137,15.465,15.465,0,0,0-4.03,3.153,21.448,21.448,0,0,0-2.5,3.445,25.375,25.375,0,0,0-1.983,4.095,3.007,3.007,0,0,0-.26,1.235.924.924,0,0,0,.13.52q.13.195.26.065l1.43-.715Q366.21-24.31,368.875-25.87Zm41.21,24.7q-1.365,0-1.365,1.3a12.531,12.531,0,0,1,.065,1.365l.065.65a1.406,1.406,0,0,1-.39,1.04A4.615,4.615,0,0,1,406.8,4.29a5.684,5.684,0,0,1-2.242.455,1.864,1.864,0,0,1-1.2-.39,1.143,1.143,0,0,1-.488-.91q.26-3.835.455-7.443t.26-9.457V-37.7A101.711,101.711,0,0,0,403-49.14v-.26q0-.975.845-.975a1.447,1.447,0,0,1,.65.13l3.965,1.755a4,4,0,0,0,1.69.39h24.765a2.035,2.035,0,0,0,1.69-.845l.585-.78q.26-.325.813-.975t.943-.65a6.08,6.08,0,0,1,2.307,1.4,17.521,17.521,0,0,1,2.7,2.5.994.994,0,0,1,.325.715.927.927,0,0,1-.52.78l-.65.39a2.573,2.573,0,0,0-.878.585,1.313,1.313,0,0,0-.293.91v31q.13,7.085.455,14.3V1.5a1.511,1.511,0,0,1-.715,1.365A9.3,9.3,0,0,1,439.6,3.9a6.485,6.485,0,0,1-2.21.455h-.26q-.78-.195-.78-1.3a3.556,3.556,0,0,0,.13-.78q0-.13.13-1.56V.2a1.362,1.362,0,0,0-.358-1.008,1.362,1.362,0,0,0-1.008-.357ZM435.24-26a1.362,1.362,0,0,0,1.008-.358,1.362,1.362,0,0,0,.358-1.007V-44.85a1.362,1.362,0,0,0-.358-1.008,1.362,1.362,0,0,0-1.008-.357H410.085a1.362,1.362,0,0,0-1.007.357,1.362,1.362,0,0,0-.358,1.008v17.485a1.362,1.362,0,0,0,.358,1.007,1.362,1.362,0,0,0,1.007.358Zm-25.155,1.885a1.362,1.362,0,0,0-1.007.358,1.362,1.362,0,0,0-.358,1.007V-4.42a1.362,1.362,0,0,0,.358,1.008,1.362,1.362,0,0,0,1.007.358H435.24a1.362,1.362,0,0,0,1.008-.358,1.362,1.362,0,0,0,.358-1.008V-22.75a1.362,1.362,0,0,0-.358-1.007,1.362,1.362,0,0,0-1.008-.358ZM506.87-42.51a1.984,1.984,0,0,0,1.69-.78l.715-.78q.26-.26.845-.943t.975-.682q.455,0,2.113,1.56a26.716,26.716,0,0,1,2.633,2.8,2.045,2.045,0,0,1,.26.715q0,.65-.78.845l-.325.065a2.565,2.565,0,0,0-1.69.78,43.788,43.788,0,0,1-5.785,4.745,2.061,2.061,0,0,1-1.1.455q-.39,0-.39-.455a2.611,2.611,0,0,1,.26-1.04q.13-.39,1.365-3.835a1.691,1.691,0,0,0,.065-.52q0-1.04-1.235-1.04H469.365a1.312,1.312,0,0,0-1.43,1.365,12.671,12.671,0,0,1-1.138,4.615,6.963,6.963,0,0,1-2.307,2.86,4.569,4.569,0,0,1-2.47.845,2.6,2.6,0,0,1-1.82-.65,2.418,2.418,0,0,1-.715-1.885,2.865,2.865,0,0,1,.553-1.69A3.884,3.884,0,0,1,461.5-36.4a9.7,9.7,0,0,0,2.99-3.347,11.834,11.834,0,0,0,1.56-4.778q.2-1.365.585-1.365.52,0,.78,1.17l.195.975a1.392,1.392,0,0,0,1.5,1.235h14.43a1.206,1.206,0,0,0,1.365-1.365q-.13-5.265-.585-9.36v-.13q0-1.17,1.04-1.17a1.691,1.691,0,0,1,.52.065q5.59,1.5,5.59,2.34,0,.26-.52.585l-.2.13a1.868,1.868,0,0,0-.845,1.625v5.915a1.362,1.362,0,0,0,.358,1.007,1.362,1.362,0,0,0,1.007.358h2.21a1.641,1.641,0,0,0,1.625-.975,49.177,49.177,0,0,0,3.9-9.685,1.051,1.051,0,0,1,1.1-.975,1.621,1.621,0,0,1,.715.13q5.785,2.47,5.785,3.185,0,.26-.585.39l-.325.065a3.228,3.228,0,0,0-1.56.91,60.33,60.33,0,0,1-5.655,5.265,1.262,1.262,0,0,0-.585.975.588.588,0,0,0,.325.52,1.626,1.626,0,0,0,.845.2Zm-36.53-9.815q-.91-1.04-.65-1.235a.634.634,0,0,1,.455-.13,3.118,3.118,0,0,1,.91.195,13.646,13.646,0,0,1,6.078,3.25,5.978,5.978,0,0,1,1.917,4.1,3.369,3.369,0,0,1-.747,2.21,2.307,2.307,0,0,1-1.852.91,2.58,2.58,0,0,1-1.17-.26,1.736,1.736,0,0,1-.65-.585,3.118,3.118,0,0,1-.325-.91,12.974,12.974,0,0,0-1.43-3.932A17.854,17.854,0,0,0,470.34-52.325ZM496.73-34.9a1.929,1.929,0,0,0,1.69-.845l.52-.715q.2-.26.552-.715a4.83,4.83,0,0,1,.585-.65.737.737,0,0,1,.487-.195,5.764,5.764,0,0,1,2.112,1.3,13.444,13.444,0,0,1,2.438,2.34,1.119,1.119,0,0,1,.26.715,1.081,1.081,0,0,1-.52.845l-.455.2a1.666,1.666,0,0,0-1.105,1.56V-28.8l.13,2.6q0,1.1.13,2.925a3.123,3.123,0,0,1-.13.975,1.253,1.253,0,0,1-.52.65,8.662,8.662,0,0,1-1.853.78,6.54,6.54,0,0,1-1.852.325q-.845,0-.845-1.235A1.089,1.089,0,0,0,498-22.62a1.445,1.445,0,0,0-1.008-.325H491.2a1.362,1.362,0,0,0-1.007.358,1.362,1.362,0,0,0-.358,1.007v3.9a1.362,1.362,0,0,0,.358,1.007,1.362,1.362,0,0,0,1.007.358h10.4a1.868,1.868,0,0,0,1.625-.845l.455-.585.487-.65a3.738,3.738,0,0,1,.52-.585.737.737,0,0,1,.487-.195,6.592,6.592,0,0,1,2.242,1.267,21.956,21.956,0,0,1,2.763,2.242,1.406,1.406,0,0,1,.325.715.961.961,0,0,1-.585.845l-.52.325a2.574,2.574,0,0,0-.878.585,1.313,1.313,0,0,0-.293.91V-4.1A6.952,6.952,0,0,1,507.1.228Q505.96,1.69,502.45,2.275h-.325a1.219,1.219,0,0,1-1.3-1.17,4.457,4.457,0,0,0-1.04-2.275,8.923,8.923,0,0,0-3.7-1.56q-1.3-.2-1.3-.65,0-.195.39-.325a2.566,2.566,0,0,1,1.04-.065q3.51.26,5.72.26a1.506,1.506,0,0,0,1.04-.26,1.269,1.269,0,0,0,.26-.91v-8.385a1.362,1.362,0,0,0-.358-1.007,1.362,1.362,0,0,0-1.008-.358H491.2a1.362,1.362,0,0,0-1.007.358,1.362,1.362,0,0,0-.358,1.007v4.55q.2,7.085.39,10.465v.325a1.739,1.739,0,0,1-.585,1.365,5.643,5.643,0,0,1-3.965,1.5,1.218,1.218,0,0,1-.943-.39,1.3,1.3,0,0,1-.357-.91q.39-5.85.52-11.7v-5.2a1.362,1.362,0,0,0-.357-1.007,1.362,1.362,0,0,0-1.008-.358h-10.27a1.362,1.362,0,0,0-1.008.358,1.362,1.362,0,0,0-.358,1.007V-9.3q.2,5.85.325,8.97v.39a1.312,1.312,0,0,1-.585,1.17,6.011,6.011,0,0,1-1.755.91,6.6,6.6,0,0,1-2.21.39.958.958,0,0,1-.812-.39,1.475,1.475,0,0,1-.292-.91q.26-2.21.39-5.72V-8.06q0-4.94-.39-9.035v-.26q0-.975.845-.975a1.447,1.447,0,0,1,.65.13l3.445,1.5a4.316,4.316,0,0,0,1.69.39h10.335a1.362,1.362,0,0,0,1.008-.358,1.362,1.362,0,0,0,.357-1.007v-3.9a1.362,1.362,0,0,0-.357-1.007,1.362,1.362,0,0,0-1.008-.358h-5.46a1.362,1.362,0,0,0-1.008.358,1.362,1.362,0,0,0-.358,1.007v.26q0,.39-1.4,1.007a6.8,6.8,0,0,1-2.763.618.875.875,0,0,1-.78-.39,1.6,1.6,0,0,1-.26-.91q.195-1.495.26-3.055a14.008,14.008,0,0,1,.065-1.495V-28.47q0-4.225-.26-7.15v-.26q0-.975.845-.975a1.447,1.447,0,0,1,.65.13l3.25,1.43a4.316,4.316,0,0,0,1.69.39Zm1.625,3.25A1.362,1.362,0,0,0,498-32.662a1.362,1.362,0,0,0-1.008-.358H478.075a1.362,1.362,0,0,0-1.008.358,1.362,1.362,0,0,0-.358,1.007v5.46a1.362,1.362,0,0,0,.358,1.007,1.362,1.362,0,0,0,1.008.358H496.99A1.362,1.362,0,0,0,498-25.187a1.362,1.362,0,0,0,.358-1.007ZM537.55.39a3.5,3.5,0,0,1-2.275-1.17,7.915,7.915,0,0,1-1.885-2.73,41.9,41.9,0,0,1-2.535-15.47,40.332,40.332,0,0,1,.65-7.638q.65-3.347,1.755-7.118.715-2.535,1.04-4a13.3,13.3,0,0,0,.325-2.892,8.349,8.349,0,0,0-.487-2.763A5.827,5.827,0,0,0,532.8-45.63q-.13-.13-.39-.423a.859.859,0,0,1-.26-.552q0-.26.39-.26a2.518,2.518,0,0,1,1.04.325,12.715,12.715,0,0,1,4.225,3.283,7.89,7.89,0,0,1,1.625,5.167,9.366,9.366,0,0,1-.585,3.185,27.635,27.635,0,0,1-1.755,3.77q-.65,1.3-1.3,2.762a17,17,0,0,0-.975,2.763,18.629,18.629,0,0,0-.65,5,13.328,13.328,0,0,0,.325,3.022q.325,1.4.845,1.4.26,0,.617-.552t.487-.747l3.575-7.345q.455-.715.715-.715.2,0,.2.26l-.2.78q-.975,2.6-2.047,6.4a23.962,23.962,0,0,0-1.073,6.207,17.86,17.86,0,0,0,.325,3.38q.325,1.69.91,4.16a16.111,16.111,0,0,1,.585,2.73,1.954,1.954,0,0,1-.552,1.495A1.875,1.875,0,0,1,537.55.39Zm23.6-36.465a16.942,16.942,0,0,1-5.72-.845,11.727,11.727,0,0,1-3.575-1.917,7.52,7.52,0,0,1-2.08-2.372,2.024,2.024,0,0,1-.26-.845q0-.26.2-.26a2.026,2.026,0,0,1,.65.325q.52.325.91.52a13.044,13.044,0,0,0,5.005.91,37.511,37.511,0,0,0,4.745-.39,46.108,46.108,0,0,0,5.005-.91,5.347,5.347,0,0,1,1.625-.325,4.559,4.559,0,0,1,2.665.812,2.323,2.323,0,0,1,1.17,1.918q0,1.755-3.315,2.567A29.4,29.4,0,0,1,561.145-36.075ZM563.16-2.4A23.592,23.592,0,0,1,554.028-4,9.759,9.759,0,0,1,548.6-9.815a5.043,5.043,0,0,1-.455-1.495.23.23,0,0,1,.26-.26.954.954,0,0,1,.52.26q.325.26.52.39a14.667,14.667,0,0,0,5.85,2.8,19.251,19.251,0,0,0,4.42.39,60.02,60.02,0,0,0,8.125-.715q2.47-.26,2.665-.26a4.094,4.094,0,0,1,2.795.91,2.653,2.653,0,0,1,1.04,2.015q0,2.08-3.153,2.73A40.875,40.875,0,0,1,563.16-2.4Zm75.985-38.87a8.315,8.315,0,0,1,2.86.845,2.118,2.118,0,0,1,1.04,2.015q0,2.08-2.73,2.08a26.1,26.1,0,0,1-3.445-.39,89.936,89.936,0,0,0-11.05-.91q-2.08,0-3.055.065a1.362,1.362,0,0,0-1.365,1.43q-.13,5.07-.13,7.6v2.8a3.856,3.856,0,0,0,.52,1.69,23.591,23.591,0,0,1,1.755,4.778,20.234,20.234,0,0,1,.65,4.972,15.539,15.539,0,0,1-2.535,8.937A19.609,19.609,0,0,1,615.583.52a24.894,24.894,0,0,1-7.052,2.99,2.755,2.755,0,0,1-.65.13q-.455,0-.455-.325,0-.455.65-.715A18.581,18.581,0,0,0,614.9-2.145a16.908,16.908,0,0,0,3.38-5.59,17.108,17.108,0,0,0,.975-4.745q0-.13-.39.227a6.228,6.228,0,0,1-.91.682,6.3,6.3,0,0,1-1.495.813,3.974,3.974,0,0,1-1.365.292,4.422,4.422,0,0,1-3.217-1.4,11.643,11.643,0,0,1-2.307-3.347,21.144,21.144,0,0,1-1.268-3.575,14.07,14.07,0,0,1-.487-3.51,8.244,8.244,0,0,1,1.852-5.427,5.98,5.98,0,0,1,4.843-2.243,4.533,4.533,0,0,1,1.56.26,3.91,3.91,0,0,0,.65.13q.845,0,.91-.975.325-3.185.39-4.94a1.326,1.326,0,0,0-.423-1.072,1.209,1.209,0,0,0-1.072-.228A64.33,64.33,0,0,0,603.98-32.5a10.936,10.936,0,0,1-5.07,1.5,7.281,7.281,0,0,1-3.64-1.04,12.884,12.884,0,0,1-2.925-2.5Q590.85-36.2,590.85-36.92q0-.325.455-.325a11.725,11.725,0,0,1,1.95.39,24.973,24.973,0,0,0,3.965.455,19.035,19.035,0,0,0,4.615-.52q4.095-.91,14.885-2.665a1.275,1.275,0,0,0,1.235-1.365q0-1.3-.26-4.42a8.163,8.163,0,0,0-.812-3.055,5.062,5.062,0,0,0-1.528-1.95q-.455-.325-.943-.65t-.487-.52q0-.455.91-.78a5.048,5.048,0,0,1,1.69-.325,6.8,6.8,0,0,1,2.535.52q3.575,1.3,3.575,3.77a2.734,2.734,0,0,1-.065.65,1.691,1.691,0,0,0-.065.52,1.484,1.484,0,0,0,.78,1.235q2.925,1.56,5.07,2.5a17.154,17.154,0,0,0,4.16,1.268,23.148,23.148,0,0,0,5.005.715Zm-13.65.52q.325,0,.943-.033a3.734,3.734,0,0,0,.91-.13q.293-.1.293-.292,0-.26-.422-.52a3.473,3.473,0,0,1-.553-.39q-.78-.455-3.12-2.08a1.722,1.722,0,0,0-.845-.26q-.845,0-.91,1.04-.13,1.17-.13,1.69,0,1.365,1.95,1.17a5.784,5.784,0,0,1,1.105-.13A4.038,4.038,0,0,0,625.495-40.755ZM614.445-15.8a2.706,2.706,0,0,0,2.307-1.235,6.267,6.267,0,0,0,.878-3.64,12.12,12.12,0,0,0-1.04-4.778q-1.04-2.437-2.99-2.437a3.186,3.186,0,0,0-2.762,1.69,7.363,7.363,0,0,0-1.073,4.03,7.37,7.37,0,0,0,1.462,4.29A4.045,4.045,0,0,0,614.445-15.8Zm70.85-10.79a17.725,17.725,0,0,1,6.955,1.4,12.805,12.805,0,0,1,5.427,4.257,11.38,11.38,0,0,1,2.112,6.955,11.883,11.883,0,0,1-2.47,7.443,15.956,15.956,0,0,1-6.435,4.94A20.507,20.507,0,0,1,682.63.13a12.441,12.441,0,0,1-6.565-1.69,5.037,5.037,0,0,1-2.795-4.42,4.644,4.644,0,0,1,1.787-3.705,6.7,6.7,0,0,1,4.453-1.495,8.231,8.231,0,0,1,4.485,1.365A9.885,9.885,0,0,1,687.44-5.98q.52.845,1.1.845a1.119,1.119,0,0,0,.715-.26,13.19,13.19,0,0,0,4.095-4.095,9.8,9.8,0,0,0,1.56-5.33q0-4.94-3.12-7.345a11.683,11.683,0,0,0-7.345-2.405,13.215,13.215,0,0,0-7.638,2.438q-3.542,2.438-6.922,8.352-.26.455-1.04,1.885a6.535,6.535,0,0,1-1.527,2.015,2.626,2.626,0,0,1-1.658.585,2.514,2.514,0,0,1-1.95-.78A2.69,2.69,0,0,1,663-11.96a7.518,7.518,0,0,1,1.43-4.16,67.441,67.441,0,0,1,4.875-6.11q10.53-12.09,15.08-18.005.325-.455.813-1.04a5.624,5.624,0,0,0,.715-1.04,1.9,1.9,0,0,0,.228-.845,1.957,1.957,0,0,0-.52-1.267,1.423,1.423,0,0,0-1.04-.618q-.78,0-1.69,1.17a22.355,22.355,0,0,1-4.29,4.388,7.447,7.447,0,0,1-4.485,1.722,3.82,3.82,0,0,1-3.022-1.4A8.161,8.161,0,0,1,669.5-43.42l-.065-1.17q0-.585.26-.585.2,0,.975.975a2.614,2.614,0,0,0,2.08,1.17,10.281,10.281,0,0,0,3.542-1.008,45.081,45.081,0,0,0,5.233-2.7,5.739,5.739,0,0,1,3.055-1.1,8.953,8.953,0,0,1,3.087.715,10.573,10.573,0,0,1,3.218,1.917,3.489,3.489,0,0,1,1.365,2.633q0,1.885-2.34,3.64A81,81,0,0,0,676.78-26.39a1.124,1.124,0,0,0-.39.78.65.65,0,0,0,.227.52.917.917,0,0,0,.617.2,1.618,1.618,0,0,0,.715-.2A20.2,20.2,0,0,1,685.295-26.585Zm-2.99,23.4a2.539,2.539,0,0,0,.878-.747.86.86,0,0,0,.1-.878q-1.625-3.315-4.615-3.315a2.471,2.471,0,0,0-1.755.553,1.767,1.767,0,0,0-.585,1.332q0,1.235,1.917,2.145A9.359,9.359,0,0,0,682.3-3.185Zm83.2-36.335a6.018,6.018,0,0,1-4.42-1.82,5.942,5.942,0,0,1-1.82-4.355,5.911,5.911,0,0,1,1.82-4.388,6.073,6.073,0,0,1,4.42-1.787,5.836,5.836,0,0,1,4.323,1.82,6,6,0,0,1,1.787,4.355,6,6,0,0,1-1.787,4.355A5.836,5.836,0,0,1,765.505-39.52Zm0-10.66a4.363,4.363,0,0,0-3.153,1.3,4.278,4.278,0,0,0-1.332,3.185,4.149,4.149,0,0,0,1.3,3.088,4.389,4.389,0,0,0,3.185,1.267,4.2,4.2,0,0,0,3.088-1.267,4.2,4.2,0,0,0,1.267-3.088,4.389,4.389,0,0,0-1.267-3.185A4.149,4.149,0,0,0,765.505-50.18Zm-15.6,19.89a1.286,1.286,0,0,0-1.3,1.43v2.015q0,3.12.455,10.4.39,5.2.39,7.215a19.453,19.453,0,0,1-.878,5.98q-.878,2.73-3.218,2.795-1.495,0-1.885-2.47A8.265,8.265,0,0,0,741-7.443a24.249,24.249,0,0,0-3.705-2.957q-.455-.325-.455-.52,0-.26.325-.26l.39.065q.26.065,2.307.682a11.829,11.829,0,0,0,3.088.618q.91,0,1.17-.553a4.532,4.532,0,0,0,.325-1.592l.065-7.215q0-5.915-.065-9.035-.13-1.43-1.495-1.235-6.435.975-10.985,2.145a12.859,12.859,0,0,1-3.38.52,5.53,5.53,0,0,1-3.283-1.04,6.125,6.125,0,0,1-2.177-3.055,4.2,4.2,0,0,1-.39-1.625q0-.78.325-.78a3.35,3.35,0,0,1,1.3.65,8.187,8.187,0,0,0,2.438.877,16.538,16.538,0,0,0,3.608.358q2.145,0,12.545-.845,1.43-.13,1.3-1.5a40.3,40.3,0,0,0-.78-8.255,4.521,4.521,0,0,0-2.535-2.535q-1.3-.455-1.3-.78,0-.455,1.268-1.04a5.688,5.688,0,0,1,2.372-.585,6.125,6.125,0,0,1,2.795.877,11.2,11.2,0,0,1,2.828,2.145,3.572,3.572,0,0,1,1.2,2.307,3.6,3.6,0,0,1-.292,1.267q-.293.747-.422,1.007a15.932,15.932,0,0,0-.65,5.005v.13q0,1.43,1.43,1.3,6.175-.78,7.995-1.17a25.4,25.4,0,0,0,2.8-1.17,9.634,9.634,0,0,1,1.462-.715,3.8,3.8,0,0,1,1.268-.195,9.666,9.666,0,0,1,3.12.715,14.347,14.347,0,0,1,3.445,1.787q1.495,1.073,1.495,2.048,0,1.5-2.145,1.5-.715,0-2.4-.195-4.875-.455-7.15-.455Q754.845-30.745,749.905-30.29Zm-16.25,7.735q.26,0,.26.455a4.332,4.332,0,0,1-.1.91q-.1.455-.162.845a21.1,21.1,0,0,1-3.478,8.58q-2.5,3.445-5.427,3.445a3.6,3.6,0,0,1-2.437-.812,2.729,2.729,0,0,1-.943-2.177,3.375,3.375,0,0,1,1.138-2.47,9.084,9.084,0,0,1,2.828-1.82,17.183,17.183,0,0,0,7.28-5.59q.13-.195.487-.78T733.655-22.555Zm25.35.455a26.155,26.155,0,0,1,10.237,4.128q4.192,2.957,4.193,6.792a3.121,3.121,0,0,1-.812,2.307,2.551,2.551,0,0,1-1.852.813,2.464,2.464,0,0,1-1.95-.813,12.9,12.9,0,0,1-1.625-2.632q-.2-.39-.78-1.495a13.392,13.392,0,0,0-1.3-2.015,20.606,20.606,0,0,0-6.435-5.915,6.723,6.723,0,0,1-.91-.585q-.325-.26-.325-.455,0-.325.455-.325Q758.03-22.3,759.005-22.1Zm78-24.245A2.981,2.981,0,0,1,834.47-48.1a17.707,17.707,0,0,0-2.21-2.957,11.106,11.106,0,0,0-2.73-1.983l-.845-.422a9.088,9.088,0,0,1-.812-.455q-.358-.228-.357-.423,0-.455,1.69-.455a17.094,17.094,0,0,1,4.258.617,10.936,10.936,0,0,1,4.095,1.983,4.218,4.218,0,0,1,1.723,3.445,2.233,2.233,0,0,1-.715,1.787A2.339,2.339,0,0,1,837.005-46.345Zm-6.89,5.785a3.181,3.181,0,0,1-1.625-.455,2.774,2.774,0,0,1-1.17-1.495,14.407,14.407,0,0,0-1.82-3.413,11.548,11.548,0,0,0-2.73-2.567q-.26-.13-.715-.39a3.212,3.212,0,0,1-.65-.455.562.562,0,0,1-.2-.39q0-.455.91-.455a15.335,15.335,0,0,1,3.607.747,15.151,15.151,0,0,1,4.713,2.308,4.722,4.722,0,0,1,2.145,3.965,2.5,2.5,0,0,1-.715,1.95A2.513,2.513,0,0,1,830.115-40.56ZM808.6-34.84a3.437,3.437,0,0,1-1.592-.423,4.013,4.013,0,0,1-1.2-.877,36.516,36.516,0,0,0-2.99-3.217,17.776,17.776,0,0,0-2.99-2.178,7.878,7.878,0,0,0-1.853-.943,10.941,10.941,0,0,1-1.137-.423q-.715-.39-.715-.52,0-.715,2.925-.715a21.191,21.191,0,0,1,5.557.748,12.7,12.7,0,0,1,4.583,2.178,4.317,4.317,0,0,1,1.82,3.51,3.208,3.208,0,0,1-.65,2.015A2.1,2.1,0,0,1,808.6-34.84ZM798.4-.65a1.965,1.965,0,0,1-1.495-.91,16.432,16.432,0,0,1-2.7-4.712A15.081,15.081,0,0,1,793-10.92q0-1.3.65-1.3.26,0,.682.617a12.106,12.106,0,0,0,.878,1.137,5.013,5.013,0,0,0,3.7,1.43,8.309,8.309,0,0,0,3.38-.78,85.127,85.127,0,0,0,18.4-11.05,99.589,99.589,0,0,0,16.9-16.445q.585-.845,1.1-.845.39,0,.39.325a2.71,2.71,0,0,1-.455,1.235A84.245,84.245,0,0,1,827.612-22.88a115.424,115.424,0,0,1-13,11.44A94.031,94.031,0,0,1,802.49-3.575a8.038,8.038,0,0,0-2.08,1.625Q799.11-.65,798.4-.65Zm2.925-20.865a3.173,3.173,0,0,1-1.43-.358,3.055,3.055,0,0,1-1.105-.878,36.222,36.222,0,0,0-2.6-2.6,18.318,18.318,0,0,0-2.535-1.82,18.36,18.36,0,0,0-2.7-1.235q-1.138-.39-1.4-.455-.52-.195-.52-.455,0-.455,1.593-.682a21,21,0,0,1,2.958-.228,14.626,14.626,0,0,1,7.085,1.657q3.055,1.658,3.055,4.517a2.529,2.529,0,0,1-.682,1.82A2.28,2.28,0,0,1,801.32-21.515ZM873.6-34.84a3.437,3.437,0,0,1-1.592-.423,4.013,4.013,0,0,1-1.2-.877,36.516,36.516,0,0,0-2.99-3.217,17.776,17.776,0,0,0-2.99-2.178,7.878,7.878,0,0,0-1.853-.943,10.941,10.941,0,0,1-1.137-.423q-.715-.39-.715-.52,0-.715,2.925-.715a21.191,21.191,0,0,1,5.557.748,12.7,12.7,0,0,1,4.583,2.178,4.317,4.317,0,0,1,1.82,3.51,3.208,3.208,0,0,1-.65,2.015A2.1,2.1,0,0,1,873.6-34.84ZM863.4-.65a1.965,1.965,0,0,1-1.495-.91,16.432,16.432,0,0,1-2.7-4.712A15.081,15.081,0,0,1,858-10.92q0-1.3.65-1.3.26,0,.682.617a12.106,12.106,0,0,0,.878,1.137,5.013,5.013,0,0,0,3.7,1.43,8.309,8.309,0,0,0,3.38-.78,85.127,85.127,0,0,0,18.4-11.05,99.589,99.589,0,0,0,16.9-16.445q.585-.845,1.1-.845.39,0,.39.325a2.71,2.71,0,0,1-.455,1.235A84.245,84.245,0,0,1,892.612-22.88a115.424,115.424,0,0,1-13,11.44A94.031,94.031,0,0,1,867.49-3.575a8.038,8.038,0,0,0-2.08,1.625Q864.11-.65,863.4-.65Zm2.925-20.865a3.173,3.173,0,0,1-1.43-.358,3.055,3.055,0,0,1-1.105-.878,36.222,36.222,0,0,0-2.6-2.6,18.318,18.318,0,0,0-2.535-1.82,18.36,18.36,0,0,0-2.7-1.235q-1.138-.39-1.4-.455-.52-.195-.52-.455,0-.455,1.593-.682a21,21,0,0,1,2.958-.228,14.626,14.626,0,0,1,7.085,1.657q3.055,1.658,3.055,4.517a2.529,2.529,0,0,1-.682,1.82A2.28,2.28,0,0,1,866.32-21.515Zm86.125-7.02a3.533,3.533,0,0,1,1.82.877,13.926,13.926,0,0,1,2.112,1.95,3.092,3.092,0,0,1,.943,1.593,1.521,1.521,0,0,1-.292.878,5.739,5.739,0,0,1-.358.487,4.6,4.6,0,0,0-1.17,2.21q-.2.91-.585,10.4l-.065,1.43v5.265Q954.46-.26,951.86-.26a1.55,1.55,0,0,1-1.365-.878,3.693,3.693,0,0,1-.52-1.917q0-.585-.975-.585l-.975.065q-3.38.195-7.182.455a45.585,45.585,0,0,0-5.038.52,8.159,8.159,0,0,0-1.755.39,6.624,6.624,0,0,1-1.755.325,2.486,2.486,0,0,1-1.69-.975,11.281,11.281,0,0,1-1.625-2.275,4.09,4.09,0,0,1-.52-1.43q0-.52.455-.52a5.236,5.236,0,0,1,1.04.455,6.823,6.823,0,0,0,3.055.975q1.755-.065,6.4-.26T948.8-6.37q1.3-.13,1.3-.78l.065-.78.39-4.29v-.325q0-1.17-.52-1.17a2.734,2.734,0,0,1-.65.065q-3.38.13-5.785.227l-3.965.162-2.21.13a20.246,20.246,0,0,0-2.86.39,5.73,5.73,0,0,1-1.365.195,3.791,3.791,0,0,1-2.437-1.1,5.654,5.654,0,0,1-1.723-2.47,2.1,2.1,0,0,1-.13-.78q0-.65.39-.65a2.132,2.132,0,0,1,.813.423,6.556,6.556,0,0,0,1.268.683,7.361,7.361,0,0,0,2.34.39q2.145-.065,6.793-.292t9.133-.488a1.332,1.332,0,0,0,1.365-1.365q.325-4.55.325-5.46,0-.52-.715-.52-2.08.065-7.312.325t-6.922.52l-2.34.39a10.649,10.649,0,0,1-2.08.325,3.068,3.068,0,0,1-2.015-.943,6.907,6.907,0,0,1-1.625-2.177,3.509,3.509,0,0,1-.455-1.43q0-.715.455-.715a1.262,1.262,0,0,1,.682.325q.423.325.682.52a7.864,7.864,0,0,0,3.9.715q3.445,0,9.328-.26t6.858-.715a13.826,13.826,0,0,0,1.462-.78A2.536,2.536,0,0,1,952.445-28.535Zm48.035-4.68q-2.015,0-3.7-2.6a14.982,14.982,0,0,0-4.1-4.258,14.31,14.31,0,0,0-5.265-2.372q-1.1-.325-1.1-.585,0-.325,1.235-.487a19.417,19.417,0,0,1,2.535-.163,25.888,25.888,0,0,1,5.688.65,12.249,12.249,0,0,1,4.777,2.08,7.03,7.03,0,0,1,1.983,2.21,4.96,4.96,0,0,1,.682,2.405,3.467,3.467,0,0,1-.715,2.21A2.415,2.415,0,0,1,1000.48-33.215ZM987.8-9.3a10.759,10.759,0,0,1-.325-2.21,5.28,5.28,0,0,1,.228-1.658q.228-.682.422-.682.26,0,.65.748a6.044,6.044,0,0,0,1.1,1.462,4.2,4.2,0,0,0,3.12,1.56q2.34,0,8.45-3.64A119.372,119.372,0,0,0,1015.82-24.18a180.63,180.63,0,0,0,16.705-15.86q.585-.715.975-.715a.23.23,0,0,1,.26.26,2.978,2.978,0,0,1-.585,1.365A119.5,119.5,0,0,1,1022.612-26.1q-5.948,6.4-11.537,11.375a98.8,98.8,0,0,1-9.295,7.507l-1.17.78a9.031,9.031,0,0,0-1.332.845,13.758,13.758,0,0,0-1.333,1.3,3.638,3.638,0,0,1-2.86,1.495,6.684,6.684,0,0,1-4.453-2.048A8.917,8.917,0,0,1,987.8-9.3ZM1053.13,4.42a8.75,8.75,0,0,1-4.55-1.235,9.346,9.346,0,0,1-3.315-3.315,8.869,8.869,0,0,1-1.235-4.615,8.75,8.75,0,0,1,1.235-4.55,9.087,9.087,0,0,1,3.315-3.282,8.931,8.931,0,0,1,4.55-1.2,8.931,8.931,0,0,1,4.55,1.2,8.838,8.838,0,0,1,3.282,3.282,8.931,8.931,0,0,1,1.2,4.55,9.054,9.054,0,0,1-1.2,4.615,9.086,9.086,0,0,1-3.282,3.315A8.75,8.75,0,0,1,1053.13,4.42Zm0-2.08A6.717,6.717,0,0,0,1058.1.26a6.878,6.878,0,0,0,2.047-5,6.642,6.642,0,0,0-2.08-4.908,6.8,6.8,0,0,0-4.94-2.048,6.878,6.878,0,0,0-5.005,2.048,6.643,6.643,0,0,0-2.08,4.908,6.793,6.793,0,0,0,2.08,5.037A6.878,6.878,0,0,0,1053.13,2.34Z" transform="translate(8.75 66.8)" fill="#333"/></g></svg>