<svg xmlns="http://www.w3.org/2000/svg" viewBox="0 0 400 118.36"><defs><style>.cls-1{fill:#5f5e5e;}</style></defs><g id="レイヤー_2" data-name="レイヤー 2"><g id="レイヤー_1-2" data-name="レイヤー 1"><path class="cls-1" d="M24.7,18.07c17,0,23.09,13.21,23.1,17.5a3.77,3.77,0,0,1-3.8,3.9c-2.92,0-3.51-2.53-3.9-4.09-.49-2.24-3.51-10.32-15-10.3-9.25,0-13.33,4.39-15.57,9.75a30.82,30.82,0,0,0-2,11.77c0,7.7,2.55,20.65,17.25,20.63,2.92,0,12.46-.3,15.17-10.24,1.07-3.7,1.56-5.35,4.38-5.35a3.33,3.33,0,0,1,3.6,3.6c0,2.33-1.64,6.61-3.78,9.92-2.72,4-7.88,9.07-19.17,9.08C9.67,74.25,0,64.43,0,46.13,0,27.24,10.39,18.08,24.7,18.07Z"/><path class="cls-1" d="M120.73,46c0,24.82-17,28.14-24,28.15-7.89,0-24.06-4-24.08-28.11,0-22.29,13.89-28,24-28.06C107.85,18,120.71,24.89,120.73,46ZM80,46.06c0,16.94,9.56,21.11,16.67,21.1s16.64-4.3,16.62-21.14c0-16.65-9.46-21-16.66-21C89,25,80,29.8,80,46.06Z"/><path class="cls-1" d="M156.16,25.73a24.27,24.27,0,0,1,17.72-7.8c5.35,0,12.55,1.93,15.29,8,.68,1.47,1.26,3.21,1.27,8.28l0,36.32a3.53,3.53,0,0,1-3.59,3.6,3.59,3.59,0,0,1-3.61-3.6l0-34.66c0-1.55-.1-5.94-.88-7.2-2-3.11-5.36-3.79-8.66-3.79-11.88,0-16.94,11.5-17.52,13l0,32.7a3.62,3.62,0,0,1-3.7,3.61,3.58,3.58,0,0,1-3.51-3.6l-.05-49a3.53,3.53,0,0,1,3.61-3.6,3.59,3.59,0,0,1,3.6,3.59Z"/><path class="cls-1" d="M266.78,45.88c0,24.83-17,28.14-24,28.15-7.88,0-24-4-24.07-28.1,0-22.3,13.9-28.06,24-28.07C253.91,17.85,266.76,24.75,266.78,45.88Zm-40.69,0c0,16.94,9.56,21.11,16.67,21.1s16.64-4.29,16.62-21.14c0-16.65-9.46-21-16.66-21C235,24.88,226.07,29.66,226.09,45.92Z"/><path class="cls-1" d="M352.65,33c0-4.38,0-8.27-7.9-8.27A15.11,15.11,0,0,0,331,32.87l0,37.48a3.54,3.54,0,0,1-3.6,3.61,3.65,3.65,0,0,1-3.6-3.6l0-37.29c0-7.79-2.15-8.27-7-8.27-7.29,0-11.48,2.84-14.59,8.2l0,37.37a3.56,3.56,0,1,1-7.11,0l0-49a3.47,3.47,0,0,1,3.6-3.6,3.52,3.52,0,0,1,3.51,3.6v1.95C304,21.6,307.66,17.8,317,17.79s11.79,4.47,12.86,6.91c4.08-5.27,9.73-6.93,15.86-6.93,14.12,0,14.13,9.32,14.13,13.22l0,39.33a3.6,3.6,0,0,1-3.6,3.61,3.66,3.66,0,0,1-3.6-3.6Z"/><path class="cls-1" d="M399.56,5.45a5.5,5.5,0,1,1-11,0,5.5,5.5,0,0,1,11,0Zm-1.88,64.74a3.55,3.55,0,0,1-3.6,3.7,3.6,3.6,0,0,1-3.51-3.69l-.05-48.78a3.56,3.56,0,1,1,7.11-.1Z"/><path class="cls-1" d="M1.56,102c0-.84-.08-1.62-.16-2.35a7.12,7.12,0,0,0,1.14.12l.45,0,.57-.09c-.05.68-.08,1.35-.08,2h0a4.19,4.19,0,0,1,3.78-2.29,4.39,4.39,0,0,1,1.24.19,4.84,4.84,0,0,1,1.1.52,3.64,3.64,0,0,1,.85.81,2.8,2.8,0,0,1,.48,1h0A4.48,4.48,0,0,1,12.7,100a4.55,4.55,0,0,1,2.43-.65,5.2,5.2,0,0,1,1.56.23,3.28,3.28,0,0,1,1.23.71,3.36,3.36,0,0,1,.82,1.25,5.24,5.24,0,0,1,.29,1.83c0,.29,0,.6,0,.94s0,.73-.06,1.18,0,1-.05,1.52,0,1.23,0,2c0,.46,0,.9,0,1.32s0,.89.06,1.38a2.59,2.59,0,0,0-.56-.05H17.3a2.71,2.71,0,0,0-.56.05c.05-.43.11-1.28.17-2.57S17,106,17,103.72a5,5,0,0,0-.14-1.19,2.89,2.89,0,0,0-.45-1,2.12,2.12,0,0,0-.82-.64,3,3,0,0,0-1.27-.25,3.16,3.16,0,0,0-1.56.36,3.08,3.08,0,0,0-1,.84,2.29,2.29,0,0,0-.32.56,3.06,3.06,0,0,0-.18.85c0,.38-.07.91-.09,1.6s0,1.63,0,2.83c0,.73,0,1.4,0,2s.06,1.26.09,2a10.47,10.47,0,0,0-1.1-.05,10.66,10.66,0,0,0-1.11.05c.08-.93.13-1.88.16-2.85s0-1.91,0-2.84,0-1.42,0-1.87,0-.81-.06-1.07a3.8,3.8,0,0,0-.14-.65,5.87,5.87,0,0,0-.24-.56A2.38,2.38,0,0,0,8,101a2.45,2.45,0,0,0-1.23-.35,2.84,2.84,0,0,0-2.46,1.1,5.22,5.22,0,0,0-.78,3.07V107c0,.76,0,1.56,0,2.4s.08,1.6.16,2.28a11.11,11.11,0,0,0-1.14-.05,11.11,11.11,0,0,0-1.14.05c.08-.68.14-1.44.16-2.28s0-1.64,0-2.4v-2.64C1.6,103.6,1.59,102.8,1.56,102Z"/><path class="cls-1" d="M34.71,99.66a6.31,6.31,0,0,1,2-.31,5,5,0,0,1,1.68.27,3.72,3.72,0,0,1,1.3.76,3.45,3.45,0,0,1,.85,1.2,3.64,3.64,0,0,1,.31,1.53c0,1,0,1.93,0,2.89s-.05,2-.05,3c0,.21,0,.42,0,.65a1.89,1.89,0,0,0,.12.61,1.06,1.06,0,0,0,.29.45.81.81,0,0,0,.57.17H42a.62.62,0,0,0,.26-.09v.56a3.08,3.08,0,0,1-.7.21,5.14,5.14,0,0,1-.92.07,1.79,1.79,0,0,1-1.27-.42,1.72,1.72,0,0,1-.51-1.08,6.93,6.93,0,0,1-1.8,1.35,4.93,4.93,0,0,1-2.18.43,4.38,4.38,0,0,1-1.24-.18,2.86,2.86,0,0,1-1.07-.58,3,3,0,0,1-.76-1,2.78,2.78,0,0,1-.29-1.31,3,3,0,0,1,.95-2.36,5.15,5.15,0,0,1,2.62-1.12c.91-.15,1.62-.28,2.14-.39a5.1,5.1,0,0,0,1.13-.35.72.72,0,0,0,.45-.42,2.12,2.12,0,0,0,.07-.62,4.91,4.91,0,0,0-.15-1.22,2.71,2.71,0,0,0-.48-1,2.48,2.48,0,0,0-.86-.7,2.87,2.87,0,0,0-1.3-.27,3.94,3.94,0,0,0-1.89.46,3,3,0,0,0-1.31,1.27H32.6v-1.32A7,7,0,0,1,34.71,99.66Zm3.16,5.94-1.15.22c-.38.08-.77.17-1.15.29a3.93,3.93,0,0,0-1,.48,2.49,2.49,0,0,0-.71.77,2.36,2.36,0,0,0-.26,1.17,2.31,2.31,0,0,0,.68,1.8,2.22,2.22,0,0,0,1.52.61,3.14,3.14,0,0,0,1.76-.53,3.91,3.91,0,0,0,1.22-1.25l.1-3.81A5.61,5.61,0,0,1,37.87,105.6Z"/><path class="cls-1" d="M54.92,98c0-.68,0-1.35,0-2s0-1.29-.06-1.89-.06-1.12-.09-1.54a7.33,7.33,0,0,0,1.14.13A7.56,7.56,0,0,0,57,92.52c0,.42-.07.93-.09,1.54s0,1.23-.07,1.89,0,1.33,0,2,0,1.3,0,1.88v4.62c0,.32.1.48.31.48a.82.82,0,0,0,.44-.17l.55-.41c.15-.12.41-.35.77-.69s.77-.73,1.22-1.18.91-.93,1.39-1.43.9-1,1.29-1.45a4.22,4.22,0,0,0,1,.12l.56,0,.71-.09q-1.6,1.29-3.06,2.55c-1,.84-1.9,1.69-2.79,2.55q1.45,1.76,3,3.51c1,1.17,2.07,2.32,3.14,3.46a5.63,5.63,0,0,0-.78-.05H63.24a4.15,4.15,0,0,0-.69.05l-1.27-1.49-1.41-1.69c-.46-.56-.91-1.08-1.33-1.57s-.79-.9-1.09-1.22a.77.77,0,0,0-.18-.18.37.37,0,0,0-.2-.08c-.17,0-.26.1-.26.31v1.52c0,.76,0,1.5,0,2.22s.08,1.45.17,2.18a11.3,11.3,0,0,0-1.15-.05,11.11,11.11,0,0,0-1.14.05c0-.39.06-.88.09-1.48s0-1.22.06-1.88,0-1.33,0-2,0-1.31,0-1.88v-4.6C54.93,99.26,54.93,98.63,54.92,98Z"/><path class="cls-1" d="M77.53,101.13a5.35,5.35,0,0,1,4.33-1.78,5.88,5.88,0,0,1,2.33.42,5,5,0,0,1,1.64,1.12,4.54,4.54,0,0,1,1,1.64,6.31,6.31,0,0,1,.31,2c0,.17,0,.33,0,.49s0,.33,0,.5l-2.72,0c-.89,0-1.8,0-2.71,0-.56,0-1.12,0-1.67,0l-1.66,0a1.74,1.74,0,0,0,0,.38v.33a5.83,5.83,0,0,0,.29,1.85,4.14,4.14,0,0,0,.86,1.49,3.92,3.92,0,0,0,1.37,1,4.44,4.44,0,0,0,1.88.37,4.26,4.26,0,0,0,1-.14,5.64,5.64,0,0,0,1-.38,5.32,5.32,0,0,0,.95-.57,4.89,4.89,0,0,0,.78-.71l.13.07-.16,1.25a7.17,7.17,0,0,1-1.89,1,6.48,6.48,0,0,1-2.35.43,7.13,7.13,0,0,1-2.5-.42,5.56,5.56,0,0,1-2-1.22,5.48,5.48,0,0,1-1.27-1.89,6.15,6.15,0,0,1-.44-2.36A7.44,7.44,0,0,1,77.53,101.13Zm2.8-.53a3.79,3.79,0,0,0-1.07,1.08,5.23,5.23,0,0,0-.64,1.42,7.5,7.5,0,0,0-.26,1.46l1.64,0,1.66,0,1.7,0,1.68,0a10.68,10.68,0,0,0-.11-1.45,4.64,4.64,0,0,0-.46-1.42,3.12,3.12,0,0,0-1-1.09,2.7,2.7,0,0,0-1.6-.43A2.78,2.78,0,0,0,80.33,100.6Z"/><path class="cls-1" d="M119.15,109.92c-.3-.72-.61-1.49-1-2.3s-.69-1.62-1-2.46-.69-1.63-1-2.36-.59-1.39-.82-2l-.54-1.24.61.09.56,0a5.25,5.25,0,0,0,.56,0l.61-.09q.8,2.43,1.75,4.83c.65,1.59,1.32,3.23,2,4.92q1.06-2.23,2-4.77t1.74-5a3,3,0,0,0,1.68,0q-.18.36-.57,1.2c-.27.57-.58,1.25-.94,2s-.77,1.66-1.2,2.61l-1.32,3-1.33,3c-.44,1-.85,1.93-1.22,2.82s-.7,1.69-1,2.41-.49,1.3-.62,1.72a2.94,2.94,0,0,0-1.73,0,51.09,51.09,0,0,0,3.4-6.66C119.69,111.24,119.45,110.65,119.15,109.92Z"/><path class="cls-1" d="M138,102.75a5.39,5.39,0,0,1,1.43-2,5.74,5.74,0,0,1,2-1.09,7.12,7.12,0,0,1,4.41,0,5.66,5.66,0,0,1,2,1.09,5.39,5.39,0,0,1,1.43,2,8.08,8.08,0,0,1,0,5.86,5.39,5.39,0,0,1-1.43,2,5.29,5.29,0,0,1-2,1.06,8.25,8.25,0,0,1-4.41,0,5.22,5.22,0,0,1-3.43-3,8.08,8.08,0,0,1,0-5.86Zm1.88,5a5.35,5.35,0,0,0,.65,1.76,3.45,3.45,0,0,0,1.22,1.24,3.61,3.61,0,0,0,1.88.45,3.66,3.66,0,0,0,1.88-.45,3.62,3.62,0,0,0,1.22-1.24,5.34,5.34,0,0,0,.64-1.76,11.26,11.26,0,0,0,0-4.12,5.34,5.34,0,0,0-.64-1.76,3.62,3.62,0,0,0-1.22-1.24,3.66,3.66,0,0,0-1.88-.45,3.61,3.61,0,0,0-1.88.45,3.45,3.45,0,0,0-1.22,1.24,5.35,5.35,0,0,0-.65,1.76,11.26,11.26,0,0,0,0,4.12Z"/><path class="cls-1" d="M162.34,105.54c0-.63,0-1.27,0-1.89s0-1.24,0-1.93,0-1.4,0-2.11a5.9,5.9,0,0,0,1.07.12,5.8,5.8,0,0,0,1-.12c-.08,1-.15,2.13-.19,3.34s-.06,2.45-.06,3.72a6.57,6.57,0,0,0,.23,2,2.83,2.83,0,0,0,.55,1.06,2.87,2.87,0,0,0,.91.67,2.84,2.84,0,0,0,1.28.27,3.21,3.21,0,0,0,1.78-.47,2.94,2.94,0,0,0,1-1.16c.12-.29.21-.53.28-.74a4,4,0,0,0,.16-.81,11.6,11.6,0,0,0,.08-1.37c0-.58,0-1.37,0-2.37v-2.13c0-.37,0-.73,0-1.07s0-.66,0-1l.54.09a4.7,4.7,0,0,0,1.06,0l.51-.09c-.08,1.32-.13,2.59-.15,3.82s0,2.53,0,3.9c0,.76,0,1.51,0,2.24s0,1.43.08,2.11a9.93,9.93,0,0,0-2,0c0-.16,0-.32,0-.49s0-.34,0-.53v-1.09h-.05a4.28,4.28,0,0,1-1.7,1.79,4.63,4.63,0,0,1-2.26.57,4.39,4.39,0,0,1-3.11-1.05,4,4,0,0,1-1.13-3C162.31,106.94,162.32,106.18,162.34,105.54Z"/><path class="cls-1" d="M191.41,101.41a2.36,2.36,0,0,0-.75-.13,2.21,2.21,0,0,0-1.09.28,2.63,2.63,0,0,0-.81.75,3.72,3.72,0,0,0-.51,1.12,5.14,5.14,0,0,0-.18,1.39v2.79c0,1.14,0,2,0,2.61a13.19,13.19,0,0,0,.09,1.46,8.65,8.65,0,0,0-1-.05,9.15,9.15,0,0,0-1.07.05c0-.58.08-1.36.09-2.35s0-2.21,0-3.65v-.81c0-.66,0-1.43,0-2.29s0-1.85-.09-3l.53.09a4.63,4.63,0,0,0,.54,0l.48,0,.53-.09c-.07.61-.1,1.09-.11,1.45s0,.69,0,1l0,0c1-1.83,2.11-2.75,3.35-2.75a2.21,2.21,0,0,1,.39,0,2.12,2.12,0,0,1,.42.13,3.05,3.05,0,0,0-.15.92c0,.42,0,.8,0,1.13l-.18.13A1.24,1.24,0,0,0,191.41,101.41Z"/><path class="cls-1" d="M220.43,102.75a5.39,5.39,0,0,1,1.43-2,5.74,5.74,0,0,1,2-1.09,7.12,7.12,0,0,1,4.41,0,5.84,5.84,0,0,1,2,1.09,5.39,5.39,0,0,1,1.43,2,8.08,8.08,0,0,1,0,5.86,5.39,5.39,0,0,1-1.43,2,5.44,5.44,0,0,1-2,1.06,8.25,8.25,0,0,1-4.41,0,5.22,5.22,0,0,1-3.43-3,8.08,8.08,0,0,1,0-5.86Zm1.88,5a5.35,5.35,0,0,0,.65,1.76,3.45,3.45,0,0,0,1.22,1.24,3.61,3.61,0,0,0,1.88.45,3.66,3.66,0,0,0,1.88-.45,3.62,3.62,0,0,0,1.22-1.24,5.34,5.34,0,0,0,.64-1.76,11.26,11.26,0,0,0,0-4.12,5.34,5.34,0,0,0-.64-1.76,3.62,3.62,0,0,0-1.22-1.24,3.66,3.66,0,0,0-1.88-.45,3.61,3.61,0,0,0-1.88.45,3.45,3.45,0,0,0-1.22,1.24,5.35,5.35,0,0,0-.65,1.76,11.26,11.26,0,0,0,0,4.12Z"/><path class="cls-1" d="M246.87,109.29q-.51-1.46-1.11-3.09c-.4-1.09-.81-2.21-1.24-3.35s-.86-2.23-1.29-3.24l.6.09a5.74,5.74,0,0,0,.6,0l.56,0,.61-.09c.44,1.59.92,3.19,1.46,4.79s1.13,3.25,1.79,4.94c.2-.48.45-1.1.73-1.88s.59-1.62.89-2.52.61-1.81.92-2.74.57-1.8.81-2.59a3.16,3.16,0,0,0,.76.12,1.86,1.86,0,0,0,.36,0l.35-.09c.43,1.62.92,3.23,1.48,4.81s1.14,3.23,1.75,4.92c.22-.54.48-1.21.78-2s.6-1.61.92-2.49.65-1.76,1-2.68l.93-2.56a3.75,3.75,0,0,0,.81.12,3,3,0,0,0,.77-.12q-1.45,3.08-2.71,6.07t-2.35,6a3.28,3.28,0,0,0-.66-.05H256a.67.67,0,0,0-.3.05c-.44-1.51-.93-3-1.45-4.55s-1.13-3.13-1.8-4.8c-.21.5-.45,1.14-.74,1.89s-.59,1.56-.89,2.43-.61,1.74-.92,2.63l-.81,2.4a5.07,5.07,0,0,0-1.42,0C247.48,111.05,247.2,110.25,246.87,109.29Z"/><path class="cls-1" d="M281.68,101.65a2.43,2.43,0,0,0-2-1,3.05,3.05,0,0,0-2.6,1.1,5,5,0,0,0-.83,3.07V107c0,.76,0,1.56,0,2.4s.08,1.6.17,2.28a11.3,11.3,0,0,0-1.15-.05,11.11,11.11,0,0,0-1.14.05c.08-.68.14-1.44.16-2.28s0-1.64,0-2.4v-2.64c0-.76,0-1.56,0-2.4s-.08-1.62-.16-2.35a7.12,7.12,0,0,0,1.14.12l.45,0,.57-.09c-.05.68-.08,1.35-.08,2h.05A5.4,5.4,0,0,1,278,100a4.49,4.49,0,0,1,2.37-.6,5.12,5.12,0,0,1,1.44.21,3.33,3.33,0,0,1,1.31.7,3.61,3.61,0,0,1,1,1.34,5.42,5.42,0,0,1,.37,2.17c0,.73,0,1.48-.05,2.25s-.05,1.59-.05,2.46v1.65c0,.27,0,.53,0,.8s0,.51,0,.75a11.47,11.47,0,0,0-2.14,0c0-.88.08-1.79.12-2.72s.06-1.89.06-2.87v-1.55A4.8,4.8,0,0,0,281.68,101.65Z"/><path class="cls-1" d="M314.9,109.87a3.15,3.15,0,0,0,.63.57,3.74,3.74,0,0,0,.84.45,2.77,2.77,0,0,0,1,.18,2.68,2.68,0,0,0,.93-.16,2.42,2.42,0,0,0,.79-.43,1.84,1.84,0,0,0,.54-.71,2.25,2.25,0,0,0,.21-1,1.58,1.58,0,0,0-.45-1.21,3.26,3.26,0,0,0-1.1-.68,10.73,10.73,0,0,0-1.45-.47,6.44,6.44,0,0,1-1.45-.57,3.46,3.46,0,0,1-1.1-1,2.79,2.79,0,0,1-.45-1.68,4.06,4.06,0,0,1,.28-1.54,3.54,3.54,0,0,1,.81-1.2,3.8,3.8,0,0,1,1.32-.8,5.09,5.09,0,0,1,1.81-.3,4.34,4.34,0,0,1,1.59.26q.64.26,1.23.45a5.72,5.72,0,0,0-.38.94,6.41,6.41,0,0,0-.23.87H320a2.32,2.32,0,0,0-.78-1.09,2.18,2.18,0,0,0-1.45-.49,2.48,2.48,0,0,0-.76.13,2.11,2.11,0,0,0-.69.38,2.15,2.15,0,0,0-.51.66,2.24,2.24,0,0,0-.2,1,1.74,1.74,0,0,0,.44,1.26,3.27,3.27,0,0,0,1.11.69,11.84,11.84,0,0,0,1.45.45,6.57,6.57,0,0,1,1.45.53,3.16,3.16,0,0,1,1.1,1,2.74,2.74,0,0,1,.45,1.67,3.55,3.55,0,0,1-.32,1.45,3.93,3.93,0,0,1-.92,1.28,4.17,4.17,0,0,1-1.43.89,5.42,5.42,0,0,1-1.91.32,7.14,7.14,0,0,1-1.95-.23,6.23,6.23,0,0,1-1.33-.53,5.6,5.6,0,0,0,.32-.9,3.67,3.67,0,0,0,.17-1h.3A2.82,2.82,0,0,0,314.9,109.87Z"/><path class="cls-1" d="M336.48,96.2c-.05.65-.09,1.28-.11,1.9s-.06,1.24-.09,1.86h1l1.65-.06a.85.85,0,0,0,0,.28v.53a.73.73,0,0,0,0,.25c-.22,0-.45,0-.69,0l-.76,0h-1.24a7.81,7.81,0,0,0-.07.82c0,.47,0,1-.06,1.69s0,1.33,0,2,0,1.35,0,1.91,0,.94,0,1.39a4,4,0,0,0,.24,1.24,2,2,0,0,0,.61.87,1.81,1.81,0,0,0,1.17.33,3.14,3.14,0,0,0,.54,0,4,4,0,0,0,.6-.12v.61c-.29.05-.61.11-.95.19a5.11,5.11,0,0,1-1,.11,2.74,2.74,0,0,1-3.12-3.1c0-.46,0-1,0-1.49s0-1.11.07-1.75,0-1.34.06-2.11,0-1.63,0-2.58h-.82l-.43,0-.48,0a2.89,2.89,0,0,0,0-.29,2.71,2.71,0,0,0,0-.29,2.09,2.09,0,0,0,0-.25,2.34,2.34,0,0,0,0-.26c.76,0,1.32.08,1.68.08,0-.34,0-.76,0-1.27s0-1-.07-1.58l2.11-.89Z"/><path class="cls-1" d="M353.87,109.92c-.29-.72-.61-1.49-.95-2.3s-.69-1.62-1-2.46-.69-1.63-1-2.36-.58-1.39-.82-2l-.54-1.24.61.09.56,0a5.12,5.12,0,0,0,.56,0l.61-.09c.53,1.62,1.11,3.23,1.76,4.83s1.32,3.23,2,4.92q1.07-2.23,2-4.77c.66-1.7,1.23-3.36,1.74-5a3,3,0,0,0,1.68,0q-.18.36-.57,1.2l-.94,2c-.37.79-.76,1.66-1.2,2.61l-1.32,3-1.33,3c-.44,1-.85,1.93-1.22,2.82s-.7,1.69-1,2.41-.49,1.3-.62,1.72a2.94,2.94,0,0,0-1.73,0,52.46,52.46,0,0,0,3.41-6.66Z"/><path class="cls-1" d="M373.89,98c0-.68,0-1.35,0-2s0-1.29-.06-1.89-.05-1.12-.09-1.54a5.11,5.11,0,0,0,2.29,0c0,.42-.06.93-.09,1.54s0,1.23-.06,1.89,0,1.33,0,2,0,1.3,0,1.88v4.6c0,.57,0,1.2,0,1.88s0,1.34,0,2,0,1.29.06,1.88.06,1.09.09,1.48a13.14,13.14,0,0,0-2.29,0c0-.39.07-.88.09-1.48s0-1.22.06-1.88,0-1.33,0-2,0-1.31,0-1.88v-4.6C373.91,99.26,373.9,98.63,373.89,98Z"/><path class="cls-1" d="M390.41,101.13a5.33,5.33,0,0,1,4.33-1.78,5.91,5.91,0,0,1,2.33.42,4.92,4.92,0,0,1,1.63,1.12,4.41,4.41,0,0,1,1,1.64,6.32,6.32,0,0,1,.32,2c0,.17,0,.33,0,.49s0,.33,0,.5l-2.72,0c-.9,0-1.8,0-2.72,0-.56,0-1.11,0-1.66,0l-1.67,0a3.18,3.18,0,0,0,0,.38v.33a5.56,5.56,0,0,0,.29,1.85,4.12,4.12,0,0,0,.85,1.49,3.92,3.92,0,0,0,1.37,1,4.47,4.47,0,0,0,1.88.37,4.33,4.33,0,0,0,1.05-.14,5.92,5.92,0,0,0,1-.38,5.69,5.69,0,0,0,.95-.57,4.8,4.8,0,0,0,.77-.71l.13.07-.15,1.25a7.33,7.33,0,0,1-1.89,1,6.52,6.52,0,0,1-2.35.43,7.18,7.18,0,0,1-2.51-.42,5.6,5.6,0,0,1-1.95-1.22,5.34,5.34,0,0,1-1.27-1.89,6.16,6.16,0,0,1-.45-2.36A7.44,7.44,0,0,1,390.41,101.13Zm2.79-.53a3.76,3.76,0,0,0-1.06,1.08,4.94,4.94,0,0,0-.64,1.42,8.41,8.41,0,0,0-.27,1.46l1.64,0,1.67,0,1.7,0,1.68,0a9.34,9.34,0,0,0-.12-1.45,4.38,4.38,0,0,0-.46-1.42,2.93,2.93,0,0,0-.95-1.09,2.68,2.68,0,0,0-1.6-.43A2.78,2.78,0,0,0,393.2,100.6Z"/></g></g></svg>