<?xml version="1.0" encoding="utf-8"?>
<!-- Generator: Adobe Illustrator 24.3.0, SVG Export Plug-In . SVG Version: 6.00 Build 0)  -->
<svg version="1.1" id="レイヤー_1" xmlns="http://www.w3.org/2000/svg" xmlns:xlink="http://www.w3.org/1999/xlink" x="0px"
	 y="0px" viewBox="0 0 315 88" style="enable-background:new 0 0 315 88;" xml:space="preserve">
<style type="text/css">
	.st0{enable-background:new    ;}
	.st1{fill:#333333;}
</style>
<g class="st0">
	<path class="st1" d="M12.5,77.5c-0.1,0.1-0.2,0.1-0.5,0.1c-0.4,0.4-1,0.8-1.5,1.1l-0.1-0.1c0.2-0.3,0.4-0.8,0.5-1.2H3.1
		c0,0.8-0.3,1.3-0.6,1.6c-0.3,0.2-0.8,0.2-0.9-0.1c-0.1-0.3,0.1-0.6,0.3-0.7c0.5-0.3,0.9-1,0.8-1.8h0.2C3,76.7,3,76.9,3.1,77.1h5.3
		c0.4-0.6,0.9-1.5,1.1-2.2l1.4,0.6c-0.1,0.1-0.2,0.2-0.5,0.2c-0.4,0.5-1.1,1-1.7,1.5h2.1l0.6-0.6L12.5,77.5z M10.1,81.9l1.1,0.8
		c-0.1,0.1-0.3,0.2-0.5,0.2v2.7c0,0.1-0.5,0.3-0.8,0.3H9.8v-0.8H4.1v0.5c0,0.1-0.4,0.3-0.8,0.3H3.2v-4l1,0.4H6
		c0.1-0.4,0.2-1,0.3-1.4H4.9v0.3c0,0.1-0.4,0.3-0.8,0.3H3.9v-3.3l1,0.4h3.9l0.5-0.5l1,0.8c-0.1,0.1-0.3,0.2-0.5,0.2v2
		c0,0.1-0.5,0.3-0.8,0.3l0,0V81H7.4c-0.3,0.4-0.6,1-0.9,1.4h3.2L10.1,81.9z M3.3,75.1c2.5,0.7,1.7,2.5,0.8,1.8
		c-0.1-0.6-0.5-1.3-0.9-1.7L3.3,75.1z M9.8,84.8v-2H4.1v2H9.8z M4.9,80.6H9V79H4.9V80.6z M5.9,74.9c2.3,1,1.3,2.7,0.5,1.9
		c0-0.6-0.3-1.3-0.7-1.8L5.9,74.9z"/>
	<path class="st1" d="M20.5,82.5c1.1,1.1,3.1,2,4.7,2.4V85c-0.3,0.1-0.6,0.3-0.8,0.8c-1.7-0.6-3.3-1.8-4.3-3.2H20v3.2
		c0,0.1-0.3,0.3-0.8,0.3H19v-3c-1.2,1.2-3,2.1-4.9,2.8L14,85.7c1.6-0.8,3.2-1.9,4.1-3h-3.8l-0.1-0.3h4.7V81h-3.5l-0.1-0.3h3.6v-1.1
		h-4.1l0.2-0.4h3h-0.1c0-0.5-0.4-1.2-0.8-1.6h-2.8l-0.1-0.3h4V75l1.2,0.1c0,0.2-0.1,0.3-0.4,0.3v1.9h1.1V75l1.2,0.1
		c0,0.2-0.1,0.3-0.4,0.3v1.9h0.4c0.4-0.6,0.9-1.4,1.1-2.1l1.3,0.5c-0.1,0.1-0.2,0.2-0.5,0.2c-0.4,0.4-1,1-1.6,1.4h1.6l0.6-0.7
		c0,0,0.7,0.5,1.1,0.9c0,0.1-0.1,0.2-0.3,0.2h-3l0.7,0.2c0,0.1-0.2,0.2-0.5,0.2c-0.3,0.4-0.8,0.8-1.3,1.2h2l0.6-0.7
		c0,0,0.7,0.5,1.1,0.9c0,0.1-0.2,0.2-0.3,0.2h-4.1v1.1H22l0.6-0.7c0,0,0.6,0.5,1,0.8c0,0.1-0.1,0.2-0.3,0.2h-3.4v1.2H23l0.6-0.7
		c0,0,0.7,0.5,1.1,0.9c0,0.1-0.2,0.2-0.3,0.2h-3.9V82.5z M15.7,75.2c2.5,0.7,1.7,2.5,0.9,1.8c-0.1-0.6-0.6-1.3-1-1.7L15.7,75.2z
		 M17.6,77.6c1.2,0.5,1.3,1.3,0.9,1.6h1.9c0.3-0.5,0.6-1.1,0.8-1.6H17.6z"/>
	<path class="st1" d="M31.1,76.3c-0.1,0.1-0.3,0.2-0.5,0.2V84c0,0.1-0.5,0.3-0.8,0.3h-0.1v-0.8h-1.5v1.1c0,0.1-0.3,0.3-0.8,0.3h-0.2
		v-9.3l1.1,0.4h1.2l0.5-0.6L31.1,76.3z M28.1,76.4v3.2h1.5v-3.2H28.1z M29.6,83.2v-3.3h-1.5v3.3H29.6z M30.8,79.3l-0.1-0.4h2.8v-1.7
		h-2.4L31,76.8h2.5V75l1.4,0.1c0,0.2-0.1,0.3-0.4,0.3v1.4h1.4l0.6-0.8c0,0,0.7,0.5,1.1,0.9c0,0.1-0.2,0.2-0.3,0.2h-2.7v1.7h1.7
		l0.6-0.8c0,0,0.7,0.5,1.1,0.9c0,0.1-0.1,0.2-0.3,0.2h-6.9V79.3z M37,80.2c0,0,0.6,0.5,1,0.9c0,0.1-0.2,0.2-0.3,0.2H36v3.5
		c0,0.7-0.2,1.2-1.4,1.3c0-0.3-0.1-0.5-0.3-0.7s-0.5-0.3-1.1-0.3v-0.2c0,0,1.3,0.1,1.6,0.1c0.2,0,0.3-0.1,0.3-0.2v-3.4h-4.2
		l-0.1-0.3h4.3v-1.4l1.3,0.1c0,0.2-0.1,0.3-0.4,0.3V81h0.5L37,80.2z M31.7,81.7c2.8,0.9,2,2.9,1,2.1c-0.1-0.7-0.7-1.5-1.1-2
		L31.7,81.7z"/>
	<path class="st1" d="M41.1,79.1v6.5c0,0.1-0.3,0.4-0.8,0.4h-0.2V75.3l1,0.5h2.1l0.5-0.5l1,0.8c-0.1,0.1-0.2,0.2-0.4,0.2v3.2
		c0,0.1-0.5,0.3-0.8,0.3h-0.1v-0.6h-2.3V79.1z M41.1,76.1v1.2h2.3v-1.2H41.1z M43.4,78.8v-1.2h-2.3v1.2H43.4z M47.7,80.7
		c-0.1,0.1-0.2,0.2-0.4,0.2v3.6c0,0.1-0.5,0.3-0.8,0.3h-0.1v-0.7h-2.7v0.5c0,0.1-0.4,0.3-0.7,0.3h-0.1V80l0.9,0.4h2.5l0.5-0.5
		L47.7,80.7z M43.7,80.8v1.3h2.7v-1.3H43.7z M46.4,83.8v-1.4h-2.7v1.4H46.4z M50.4,76c-0.1,0.1-0.3,0.2-0.5,0.2v8.4
		c0,0.7-0.1,1.2-1.4,1.3c0-0.3-0.1-0.5-0.3-0.7c-0.2-0.1-0.4-0.3-1-0.3v-0.2c0,0,1.2,0.1,1.4,0.1s0.3-0.1,0.3-0.3v-5.4h-2.4v0.3
		c0,0.1-0.4,0.3-0.8,0.3h-0.1v-4.3l1,0.4h2.2l0.5-0.6L50.4,76z M46.6,76.1v1.2H49v-1.2H46.6z M49,78.8v-1.2h-2.4v1.2H49z"/>
	<path class="st1" d="M52.5,86l-0.3-0.3L63,74.9l0.3,0.3L52.5,86z"/>
	<path class="st1" d="M70.3,84.6V85h-4.8v-0.4l1.9-0.3c0-0.7,0-1.4,0-2.1v-4.8l-1.8,0.2v-0.5l2.7-0.7l0.2,0.1v1.9v3.8
		c0,0.7,0,1.4,0,2.1L70.3,84.6z"/>
	<path class="st1" d="M77.8,80.8c0,3.2-1.4,4.4-2.7,4.4c-1.4,0-2.8-1.2-2.8-4.4c0-3.2,1.3-4.4,2.8-4.4
		C76.5,76.4,77.8,77.6,77.8,80.8z M75.1,84.7c0.8,0,1.6-0.8,1.6-3.9s-0.8-3.9-1.6-3.9c-0.8,0-1.6,0.8-1.6,3.9
		C73.5,83.9,74.2,84.7,75.1,84.7z"/>
	<path class="st1" d="M80.2,79.5c0-0.5,0.4-0.9,0.9-0.9S82,79,82,79.5s-0.4,0.9-0.9,0.9C80.5,80.3,80.2,79.9,80.2,79.5z M80.2,84.3
		c0-0.5,0.4-0.9,0.9-0.9s0.9,0.4,0.9,0.9s-0.4,0.9-0.9,0.9C80.5,85.2,80.2,84.8,80.2,84.3z"/>
	<path class="st1" d="M89.8,80.8c0,3.2-1.4,4.4-2.7,4.4c-1.4,0-2.8-1.2-2.8-4.4c0-3.2,1.3-4.4,2.8-4.4
		C88.4,76.4,89.8,77.6,89.8,80.8z M87,84.7c0.8,0,1.6-0.8,1.6-3.9s-0.8-3.9-1.6-3.9c-0.8,0-1.6,0.8-1.6,3.9
		C85.4,83.9,86.2,84.7,87,84.7z"/>
	<path class="st1" d="M97.1,80.8c0,3.2-1.4,4.4-2.7,4.4c-1.4,0-2.8-1.2-2.8-4.4c0-3.2,1.3-4.4,2.8-4.4
		C95.7,76.4,97.1,77.6,97.1,80.8z M94.3,84.7c0.8,0,1.6-0.8,1.6-3.9s-0.8-3.9-1.6-3.9c-0.8,0-1.6,0.8-1.6,3.9
		C92.7,83.9,93.5,84.7,94.3,84.7z"/>
	<path class="st1" d="M101.7,80c-1,0-1.8,0.5-2.5,1.2L98.9,81c0.8-1.2,1.9-1.7,3-1.7c0.9,0,1.7,0.3,2.6,0.8c0.9,0.6,1.6,0.9,2.5,0.9
		c1,0,1.8-0.5,2.5-1.2l0.2,0.2c-0.8,1.2-1.9,1.7-3,1.7c-0.9,0-1.7-0.3-2.6-0.8C103.2,80.3,102.5,80,101.7,80z"/>
	<path class="st1" d="M117.1,84v1h-5.4v-0.8c0.7-0.7,1.4-1.5,2-2.1c1.3-1.4,1.9-2.4,1.9-3.5s-0.6-1.8-1.6-1.8c-0.2,0-0.4,0-0.7,0.1
		l-0.3,1c-0.2,0.6-0.4,0.8-0.7,0.8c-0.3,0-0.5-0.1-0.6-0.4c0.2-1.3,1.3-2,2.6-2c1.7,0,2.4,0.9,2.4,2.2c0,1.1-0.6,2-2.6,3.9
		c-0.4,0.4-0.9,0.9-1.5,1.5h4.5V84z"/>
	<path class="st1" d="M124.4,80.8c0,3.2-1.4,4.4-2.7,4.4c-1.4,0-2.8-1.2-2.8-4.4c0-3.2,1.3-4.4,2.8-4.4
		C123,76.4,124.4,77.6,124.4,80.8z M121.6,84.7c0.8,0,1.6-0.8,1.6-3.9s-0.8-3.9-1.6-3.9c-0.8,0-1.6,0.8-1.6,3.9
		C120,83.9,120.8,84.7,121.6,84.7z"/>
	<path class="st1" d="M126.7,79.5c0-0.5,0.4-0.9,0.9-0.9c0.5,0,0.9,0.4,0.9,0.9s-0.4,0.9-0.9,0.9C127.1,80.3,126.7,79.9,126.7,79.5z
		 M126.7,84.3c0-0.5,0.4-0.9,0.9-0.9c0.5,0,0.9,0.4,0.9,0.9s-0.4,0.9-0.9,0.9C127.1,85.2,126.7,84.8,126.7,84.3z"/>
	<path class="st1" d="M136.3,80.8c0,3.2-1.4,4.4-2.7,4.4c-1.4,0-2.8-1.2-2.8-4.4c0-3.2,1.3-4.4,2.8-4.4
		C135,76.4,136.3,77.6,136.3,80.8z M133.6,84.7c0.8,0,1.6-0.8,1.6-3.9s-0.8-3.9-1.6-3.9s-1.6,0.8-1.6,3.9
		C132,83.9,132.7,84.7,133.6,84.7z"/>
	<path class="st1" d="M143.6,80.8c0,3.2-1.4,4.4-2.7,4.4c-1.4,0-2.8-1.2-2.8-4.4c0-3.2,1.3-4.4,2.8-4.4
		C142.3,76.4,143.6,77.6,143.6,80.8z M140.9,84.7c0.8,0,1.6-0.8,1.6-3.9s-0.8-3.9-1.6-3.9s-1.6,0.8-1.6,3.9
		C139.3,83.9,140,84.7,140.9,84.7z"/>
</g>
<g class="st0">
	<path class="st1" d="M67.1,45.9c0,10.8-4.5,14.7-9.1,14.7c-4.7,0-9.2-3.9-9.2-14.7s4.5-14.8,9.2-14.8
		C62.6,31.1,67.1,35.1,67.1,45.9z M58,58.9c2.7,0,5.2-2.7,5.2-13s-2.5-13-5.2-13c-2.8,0-5.3,2.7-5.3,13S55.2,58.9,58,58.9z"/>
	<path class="st1" d="M89.1,58.7V60H72.9v-1.4l6.2-0.9c0-2.3,0.1-4.7,0.1-7V34.6l-5.8,0.6v-1.5l9-2.3l0.6,0.4l-0.2,6.3v12.7
		c0,2.3,0,4.7,0.1,7L89.1,58.7z"/>
	<path class="st1" d="M112.5,56.6V60h-18v-2.7c2.4-2.4,4.7-4.9,6.6-6.9c4.4-4.6,6.3-8,6.3-11.6c0-3.6-2.1-6-5.4-6
		c-0.6,0-1.5,0.1-2.4,0.3l-0.9,3.2c-0.5,2-1.3,2.8-2.4,2.8c-0.9,0-1.7-0.5-2.1-1.3c0.6-4.5,4.4-6.6,8.8-6.6c5.6,0,8.2,3.1,8.2,7.5
		c0,3.8-2,6.8-8.8,13.1c-1.2,1.2-3.1,3-5.1,4.9L112.5,56.6L112.5,56.6z"/>
	<path class="st1" d="M135.3,45.9c0,10.8-4.5,14.7-9.1,14.7c-4.7,0-9.2-3.9-9.2-14.7s4.5-14.8,9.2-14.8
		C130.7,31.1,135.3,35.1,135.3,45.9z M126.1,58.9c2.7,0,5.2-2.7,5.2-13s-2.5-13-5.2-13c-2.8,0-5.3,2.7-5.3,13S123.3,58.9,126.1,58.9
		z"/>
	<path class="st1" d="M139.6,47.7h10.2v2.6h-10.2V47.7z"/>
	<path class="st1" d="M172.5,56.6V60h-18v-2.7c2.4-2.4,4.7-4.9,6.6-6.9c4.4-4.6,6.3-8,6.3-11.6c0-3.6-2.1-6-5.4-6
		c-0.6,0-1.5,0.1-2.4,0.3l-0.9,3.2c-0.5,2-1.3,2.8-2.4,2.8c-0.9,0-1.7-0.5-2.1-1.3c0.6-4.5,4.4-6.6,8.8-6.6c5.6,0,8.2,3.1,8.2,7.5
		c0,3.8-2,6.8-8.8,13.1c-1.2,1.2-3.1,3-5.1,4.9L172.5,56.6L172.5,56.6z"/>
	<path class="st1" d="M194.5,58.7V60h-16.2v-1.4l6.2-0.9c0-2.3,0.1-4.7,0.1-7V34.6l-5.8,0.6v-1.5l9-2.3l0.6,0.4l-0.2,6.3v12.7
		c0,2.3,0,4.7,0.1,7L194.5,58.7z"/>
	<path class="st1" d="M217.9,45.9c0,10.8-4.5,14.7-9.1,14.7c-4.7,0-9.2-3.9-9.2-14.7s4.5-14.8,9.2-14.8
		C213.4,31.1,217.9,35.1,217.9,45.9z M208.8,58.9c2.7,0,5.2-2.7,5.2-13s-2.5-13-5.2-13c-2.8,0-5.3,2.7-5.3,13S206,58.9,208.8,58.9z"
		/>
	<path class="st1" d="M222.2,47.7h10.2v2.6h-10.2V47.7z"/>
	<path class="st1" d="M242.2,35.7c-0.5,1.8-1.1,2.6-2.5,2.6c-0.9,0-1.6-0.4-2-1.5c0.8-3.8,4.2-5.6,8.2-5.6c5.1,0,8.3,2.8,8.3,6.8
		c0,3.2-2.2,5.9-6,7.1c4.8,0.9,7,3.6,7,7.2c0,4.8-4,8.3-9.8,8.3c-4.4,0-7.6-1.8-8.4-6.1c0.5-1,1.2-1.4,2.1-1.4
		c1.4,0,1.9,0.9,2.4,2.9l0.7,2.6c0.9,0.2,1.7,0.3,2.5,0.3c4.4,0,6.6-2.4,6.6-6.4s-2.3-6.4-6.8-6.4h-2.1v-1.9h1.7
		c3.9,0,6.4-2.2,6.4-6.1c0-3.4-2-5.2-5.4-5.2c-0.6,0-1.3,0-2.1,0.2L242.2,35.7z"/>
	<path class="st1" d="M277.8,56.6V60h-18v-2.7c2.4-2.4,4.7-4.9,6.6-6.9c4.4-4.6,6.3-8,6.3-11.6c0-3.6-2.1-6-5.4-6
		c-0.6,0-1.5,0.1-2.4,0.3l-0.9,3.2c-0.5,2-1.3,2.8-2.4,2.8c-0.9,0-1.7-0.5-2.1-1.3c0.6-4.5,4.4-6.6,8.8-6.6c5.6,0,8.2,3.1,8.2,7.5
		c0,3.8-2,6.8-8.8,13.1c-1.2,1.2-3.1,3-5.1,4.9L277.8,56.6L277.8,56.6z"/>
	<path class="st1" d="M286.5,43c1.4-0.4,2.8-0.6,4.4-0.6c5.7,0,9.6,3.2,9.6,8.8s-4,9.4-10.2,9.4c-4.4,0-7.3-2-8.2-6.1
		c0.4-0.9,1.1-1.4,2.1-1.4c1.3,0,1.8,0.6,2.4,2.8l0.7,2.6c0.9,0.3,1.8,0.4,2.7,0.4c4.4,0,6.7-2.8,6.7-7.2c0-4.6-2.6-7-6.8-7
		c-1.4,0-2.8,0.2-4.2,0.6l-1.1-0.3l0.9-13.2h14.3v3.4H287L286.5,43z"/>
</g>
<g class="st0">
	<path class="st1" d="M5.8,11.6c1.2-0.6,2.4-1,3.8-1c1.7,0,2.9,1,2.9,2.6c0,1.4-1.1,2.6-2.9,2.6c-1.1,0-2-0.5-2.7-1.6L7.1,14
		c0.5,0.6,1.2,1,2.2,1c1.3,0,2.1-0.9,2.1-2c0-1-0.6-1.8-2.1-1.8c-1.1,0-2.4,0.6-3.4,1.2c0.1,1.9,0.2,2.5,0.2,3
		c0,0.6-0.4,1.4-0.9,1.4c-0.4,0-0.4-0.5-0.8-0.9C4,15.5,3.3,15,2.8,14.7c-0.4,0.4-0.6,0.6-0.8,0.6c-0.2,0-0.3-0.1-0.5-0.3
		s-0.3-0.4-0.3-0.7c0-0.4,0.1-0.5,0.4-0.5c0.4,0,0.6,0,0.8-0.2C3,13.4,4.1,12.6,5,12v-0.9V9.4C4.5,9.6,3.9,9.7,3.5,9.7
		c-0.7,0-1.4-0.2-1.9-1.5L1.8,8c0.7,0.7,0.9,0.8,1.7,0.8c0.4,0,1-0.1,1.5-0.3c0-1,0-1.9,0-2.2C5,6,4.9,5.9,4.7,5.8
		C4.5,5.7,4.2,5.7,3.8,5.7V5.4c0.3-0.2,0.7-0.3,1.1-0.3c0.6,0,1.5,0.5,1.5,0.8s-0.2,0.6-0.3,1C6,7.2,5.9,7.7,5.9,8.2
		c1-0.4,1.4-0.8,1.7-0.8c0.2,0,0.8,0,0.8,0.4c0,0.2-0.2,0.4-0.5,0.6C7.4,8.7,6.5,9,5.8,9.2c0,0.6-0.1,1.2-0.1,1.8L5.8,11.6L5.8,11.6
		z M5,12.8c-0.6,0.5-1.3,1.1-1.9,1.6c0.5,0.3,1.1,0.5,1.5,0.7c0.3,0.1,0.4,0,0.4-0.3V12.8z M9.3,7c0.7-0.2,1.3-0.2,1.9-0.1
		c1.1,0.1,2.1,1.1,2.2,2c0,0.3-0.1,0.6-0.5,0.6c-0.3,0.1-0.5-0.4-0.9-0.3c-0.3,0-0.8,0.3-1.1,0.4l-0.2-0.2c0.3-0.2,0.9-0.6,1.1-0.8
		c0.2-0.2,0.2-0.3,0-0.5c-0.5-0.8-1.6-0.9-2.5-0.8V7z"/>
	<path class="st1" d="M17.5,9.1v7.6c0,0.1-0.4,0.4-0.9,0.4h-0.2V4.6l1.1,0.5h2.6l0.5-0.6l1.2,0.9c-0.1,0.1-0.3,0.2-0.5,0.2v3.9
		c0,0.1-0.5,0.3-0.9,0.3h-0.2V9.1H17.5z M17.5,5.6v1.3h2.7V5.6H17.5z M20.2,8.7V7.3h-2.7v1.4H20.2z M25.2,11.4
		c-0.1,0.1-0.3,0.2-0.5,0.3V15c0,0.1-0.5,0.3-0.9,0.3h-0.2v-0.8h-3.1v0.7c0,0.1-0.5,0.3-0.9,0.3h-0.2v-4.9l1.1,0.5h3l0.5-0.6
		L25.2,11.4z M23.6,14v-2.6h-3.1V14H23.6z M28.4,5.5c-0.1,0.1-0.3,0.2-0.6,0.3v9.9c0,0.8-0.2,1.3-1.6,1.4c0-0.3-0.1-0.6-0.3-0.7
		c-0.2-0.2-0.5-0.3-1.1-0.4v-0.2c0,0,1.3,0.1,1.6,0.1c0.3,0,0.3-0.1,0.3-0.3V9.1h-2.9v0.4c0,0.1-0.5,0.3-0.9,0.3h-0.1V4.7l1.1,0.5
		h2.6L27,4.5L28.4,5.5z M23.9,5.6v1.3h2.9V5.6H23.9z M26.7,8.7V7.3h-2.9v1.4H26.7z"/>
	<path class="st1" d="M32.8,8.5c0-0.8-0.2-1.2-1.1-1.9l0.1-0.2c0.4,0,0.7,0.1,1,0.2c0.6,0.3,1.3,0.9,1.3,1.5s-0.6,1.5-0.6,3
		c0,1.6,0.8,2.5,1.3,2.8c0.2,0.1,0.4,0.1,0.5-0.1c0.4-0.7,0.9-1.7,1.4-2.5l0.4,0.2c-0.3,1-0.7,2.1-0.8,2.6c-0.1,0.7,0.1,0.7,0.1,1.1
		c0,0.4-0.5,0.7-1.1,0.4c-1.1-0.5-2.5-1.7-2.6-4.3C32.7,10.2,32.8,9.2,32.8,8.5z M39.3,8l0.1-0.3c1.4,0.2,2.1,0.7,2.8,1.4
		c0.8,0.8,1.2,2.1,1.2,3.1c0,0.6-0.2,1-0.7,1c-0.3,0-0.5-0.2-0.5-0.5C42.1,12.1,42,11,41.5,10C41.1,9.1,40.3,8.4,39.3,8z"/>
	<path class="st1" d="M53.5,4.6c0,0.2-0.2,0.2-0.6,0.3c1.2,1.8,3.6,3.1,6,4v0.2c-0.5,0.1-0.9,0.5-1,1c-2.3-1.1-4.3-2.9-5.3-5
		c-1.3,2-4.1,4.3-6.8,5.5l-0.1-0.2c2.4-1.4,5.1-4.2,5.9-6.2L53.5,4.6z M55.7,11.3l1.3,1c-0.1,0.1-0.3,0.2-0.6,0.3v4.1
		c0,0.1-0.6,0.3-1,0.3h-0.2v-1h-5.8v0.7c0,0.1-0.5,0.4-1,0.4h-0.2v-5.7l1.2,0.5H55L55.7,11.3z M54.4,8.4c0,0,0.8,0.6,1.3,1.1
		c0,0.2-0.2,0.2-0.4,0.2h-6.2L49,9.4h4.6L54.4,8.4z M55.3,15.7v-3.3h-5.8v3.3H55.3z"/>
	<path class="st1" d="M65.5,9.8c1.3-0.8,2.6-1.4,4.1-1.4c1.9,0,3.5,1.3,3.5,3.2c0,2-1.4,3.8-5.3,4.7L67.7,16
		c3.5-1.3,4.3-3.2,4.3-4.7c0-1.3-1-2.4-2.5-2.4c-1.4,0-2.9,0.8-4,1.6c-0.1,1.5,0.1,3.1,0.1,3.9c0,0.4,0.1,0.7,0.1,1
		c0,0.6-0.3,1.3-0.7,1.3c-0.3,0-0.5-0.2-0.5-0.5c-0.1-0.4-0.1-0.6-0.3-1c-0.1-0.4-0.5-1-0.9-1.6c-0.3,0.4-0.5,0.8-0.8,1.1
		c-0.2,0.3-0.4,0.5-0.6,0.5c-0.2,0-0.4-0.2-0.4-0.6c0-0.3,0.1-0.5,0.3-0.8c0.6-0.6,2-2.4,3-3.9c0-0.3,0.1-0.7,0.1-1
		c-0.4,0.2-0.9,0.5-1.2,0.7s-0.4,0.5-0.7,0.5c-0.5,0-1.1-0.6-1.2-1.1c-0.1-0.2-0.1-0.4-0.1-0.6l0.3,0C62.2,8.8,62.4,9,62.7,9
		s1.6-0.5,2.3-0.9c0.1-0.9,0.2-1.7,0.2-2.1c0-0.3-0.1-0.4-0.3-0.5c-0.2-0.1-0.5-0.2-0.8-0.2V5c0.3-0.1,0.6-0.2,0.9-0.2
		c0.7,0,1.4,0.7,1.4,1.1c0,0.3-0.2,0.4-0.3,1c-0.1,0.2-0.2,0.5-0.2,1l0,0c0.3,0.1,0.6,0.4,0.6,0.6S66.4,8.8,66.2,9
		C66,9.2,65.8,9.5,65.5,9.8L65.5,9.8z M64.7,14.4c0-0.6,0-1.8,0-2.9c-0.4,0.6-0.8,1.2-1.3,1.8c0.4,0.5,0.8,1,1,1.2
		C64.6,14.7,64.7,14.7,64.7,14.4z"/>
	<path class="st1" d="M82.9,5.5c0.3-0.2,0.7-0.3,1-0.3c0.7,0,1.6,0.6,1.6,1c0,0.2-0.3,0.4-0.3,0.9c0,0.4-0.1,0.9-0.1,1.5
		c1.1-0.2,1.8-0.3,2.1-0.3c0.6,0,1.2,0.3,1.2,0.8c0,0.3-0.2,0.4-0.7,0.4c-0.6,0-1.1-0.1-2.1,0c-0.2,0-0.4,0-0.6,0.1
		c0,1-0.1,2.2-0.3,2.8c-0.1,0.7-0.5,1.1-1.1,1.1c-0.2,0-0.4-0.1-0.5-0.4c-0.2-0.4-0.8-0.7-1.4-1l0.1-0.3c0.6,0.2,1.3,0.4,1.6,0.4
		c0.2,0,0.4,0,0.5-0.4s0.2-1.4,0.2-2.1c-1.3,0.2-2.8,0.6-3.8,0.9c-0.1,1.2-0.1,2.5-0.1,3.2c0,1.4,0.3,1.6,2.1,1.6
		c1.7,0,2.9-0.4,3.3-0.4c0.5,0,1,0.2,1,0.6c0,0.3-0.2,0.4-0.7,0.6c-0.6,0.1-1.8,0.2-3.2,0.2c-2.1,0-3.3-0.4-3.3-2.1
		c0-0.8,0-2.1,0-3.4c-1.6,0.5-2.2,0.9-2.5,0.9c-0.4,0-1-0.5-1.2-1c-0.1-0.2-0.1-0.5-0.1-0.8l0.2-0.1c0.2,0.4,0.6,0.7,0.9,0.7
		s1.7-0.4,2.7-0.6c0-0.9,0-1.8,0-2.2c0-0.4-0.1-0.5-0.3-0.6C78.7,7,78.4,7,78.1,7V6.7c0.3-0.1,0.6-0.2,1-0.2c0.6,0,1.6,0.5,1.6,0.9
		c0,0.3-0.2,0.3-0.3,0.9c0,0.3-0.1,0.8-0.1,1.4c1-0.2,2.6-0.6,3.8-0.9c0-0.8,0-1.9,0-2.5c0-0.2-0.1-0.3-0.4-0.4
		c-0.2-0.1-0.5-0.1-0.8-0.1L82.9,5.5z"/>
	<path class="st1" d="M94.9,11c-0.3,0.7-0.8,2.3-1,2.8c-0.1,0.5-0.2,0.8-0.2,1c0,0.4,0.2,0.9,0.2,1.3c0,0.3-0.2,0.5-0.5,0.5
		s-0.5-0.2-0.7-0.6c-0.4-0.6-0.8-1.9-0.8-3.3c0-1.6,0.4-3,0.7-3.9c0.2-0.7,0.3-1.2,0.4-1.7c0-0.5-0.3-1-0.8-1.6l0.2-0.2
		c0.4,0.1,0.5,0.2,0.8,0.4c0.3,0.2,1,1,1,1.6c0,0.3-0.2,0.6-0.5,1.4c-0.4,0.8-1,2.3-1,3.7c0,0.6,0.1,1,0.2,1.3
		c0.1,0.2,0.2,0.2,0.3,0c0.3-0.5,1.1-2.2,1.4-3L94.9,11z M100.5,9.3c0,1.4,0.1,2.7,0.2,3.7c1.1,0.3,1.9,0.9,2.3,1.3
		c0.3,0.3,0.4,0.5,0.4,0.8s-0.2,0.5-0.4,0.5c-0.2,0-0.4-0.2-0.7-0.5c-0.5-0.5-1-0.8-1.5-1.1c0,0.1,0,0.2,0,0.3
		c0,1.1-0.7,1.9-2.5,1.9c-1.2,0-2.3-0.6-2.3-1.7c0-1.2,1.3-1.8,2.8-1.8c0.3,0,0.6,0,0.9,0.1c0-1-0.1-2.4-0.1-3.5
		c-0.5,0.1-1,0.1-1.5,0.1c-0.9,0-1.5-0.2-2.2-1.4l0.2-0.2c0.6,0.4,1.2,0.7,1.9,0.7c0.6,0,1.1-0.1,1.6-0.2c0-0.7,0-1.4,0-1.7
		c0-0.4-0.1-0.5-0.3-0.5C99,6,98.7,6,98.3,5.9V5.6c0.3-0.2,0.8-0.3,1.1-0.3c0.7,0,1.5,0.4,1.5,0.8c0,0.3-0.1,0.4-0.2,1
		c-0.1,0.3-0.1,0.7-0.1,1.1c0.3-0.1,0.5-0.2,0.6-0.2c0.7-0.3,1-0.4,1.1-0.4c0.3,0,0.8,0.2,0.8,0.5c0,0.3-0.2,0.4-0.7,0.6
		c-0.4,0.1-1.1,0.3-1.8,0.5v0.1H100.5z M99.8,13.7c-0.4-0.1-0.9-0.2-1.5-0.2c-0.8,0-1.7,0.4-1.7,1s0.6,0.9,1.4,0.9
		C99.5,15.4,99.8,14.8,99.8,13.7L99.8,13.7z"/>
	<path class="st1" d="M114.4,5.2c0.3,0,0.5,0,0.9,0c0.7,0.1,1.5,0.6,1.5,0.8c0,0.3-0.2,0.4-0.4,0.7c-0.2,0.3-0.3,0.5-0.5,0.8
		c0.1,0,0.1,0,0.2,0c0.6,0,2.3-0.2,2.7-0.3c0.4-0.1,0.5-0.3,0.8-0.3c0.4,0,1.4,0.6,1.4,1c0,0.3-0.5,0.4-0.7,0.8
		c-2,3.5-4.8,6.4-8.9,8l-0.2-0.3c3.6-1.9,6.9-5.5,8-8.3c0.1-0.2,0-0.2-0.1-0.2c-0.3,0-1.6,0.2-2.1,0.3c-0.3,0.1-0.6,0.2-0.8,0.2
		c-0.2,0-0.4-0.1-0.6-0.3c-1.1,1.5-2.6,2.8-4.3,3.6l-0.2-0.3c2.2-1.6,4.2-4.5,4.2-5.3c0-0.3-0.4-0.5-0.8-0.7L114.4,5.2z"/>
	<path class="st1" d="M124,6.6V6.3c0.3-0.1,0.6-0.2,0.9-0.2c0.5,0,1.5,0.6,1.5,1c0,0.3-0.2,0.4-0.3,1c0,0.6,0,3.5,0,4.2
		c0,0.6-0.2,0.8-0.5,0.8c-0.4,0-0.7-0.5-0.7-1.1c0-0.4,0.1-0.9,0.2-2c0-0.7,0-2.1-0.1-2.6c0-0.3-0.1-0.4-0.3-0.5
		C124.5,6.7,124.3,6.6,124,6.6z M125.6,16.8l-0.2-0.3c2.7-1.5,4-3.3,4.2-6.2c0.1-1.2,0.1-2.6,0-3.5c0-0.3,0-0.4-0.3-0.6
		c-0.2-0.1-0.5-0.2-0.8-0.2V5.7c0.3-0.2,0.8-0.4,1.1-0.4c0.6,0,1.6,0.6,1.6,0.9s-0.3,0.4-0.3,0.9c0,0.8-0.1,2.4-0.1,3.2
		C130.6,13.7,128.9,15.7,125.6,16.8z"/>
	<path class="st1" d="M140.3,5.4c0.3-0.1,0.7-0.3,1.1-0.3c0.7,0,1.5,0.5,1.5,0.8s-0.2,0.4-0.3,0.9c-0.1,0.4-0.1,1-0.1,1.5
		c2.1-0.2,2.2-0.5,2.4-0.5c0.5,0,1.4,0.4,1.4,0.8c0,0.2-0.2,0.4-0.4,0.4c-0.6,0-1.6-0.1-3.4,0c0,1.2,0,3.4,0,4.4
		c0,0.8,0.1,1.2,0.1,1.6c0,0.7-0.5,1.3-1,1.3c-0.4,0-0.4-0.5-0.8-0.8c-0.4-0.4-1-0.6-1.5-0.9l0.1-0.2c0.6,0.1,1.3,0.3,1.7,0.3
		c0.2,0,0.3-0.1,0.3-0.2c0.1-0.5,0-2.5,0-4.1c-1.3,1.9-4,4-6.5,5l-0.2-0.3c2.4-1.5,4.9-3.9,6.1-6c-1,0.1-1.9,0.3-2.5,0.4
		c-0.6,0.1-0.9,0.3-1.4,0.3c-0.4,0-1.1-0.7-1.2-1c-0.1-0.2-0.1-0.5-0.1-0.8l0.3-0.1c0.3,0.5,0.6,0.8,1,0.8c0.9,0,3-0.3,4.5-0.4
		c0-0.7,0-1.5,0-2c0-0.3-0.1-0.4-0.3-0.5c-0.3-0.1-0.6-0.2-0.9-0.2L140.3,5.4L140.3,5.4z"/>
	<path class="st1" d="M153.8,8.7l0.2-0.1c0.3,0.4,0.6,0.7,1,0.7c0.8,0,4.8-0.5,5.8-0.7c0.4-0.1,0.6-0.3,0.8-0.3
		c0.5,0,1.4,0.8,1.4,1.2c0,0.3-0.6,0.5-0.8,0.9c-1.4,2.7-3.5,4.9-7.3,6.3l-0.2-0.3c3.2-1.7,5.4-4.2,6.4-6.8c0.1-0.2,0-0.3-0.2-0.2
		c-1,0.1-4,0.6-5,0.8c-0.4,0.1-0.6,0.4-1,0.4s-1.1-0.7-1.2-1C153.8,9.3,153.8,9,153.8,8.7z M160.9,6.5c-1.1,0.2-2.9,0.6-4.1,0.6
		c-0.8,0-1.2-0.4-1.7-1.2l0.2-0.2c0.5,0.4,1,0.5,1.4,0.5c0.9,0,1.7-0.2,2.3-0.3c0.8-0.2,1-0.4,1.3-0.4c0.7,0,1.2,0.2,1.2,0.6
		C161.5,6.3,161.4,6.4,160.9,6.5z"/>
	<path class="st1" d="M171.9,5.2c0.3,0,0.7,0,1,0.1c0.6,0.2,1.3,0.9,1.3,1.3c0,0.3-0.3,0.3-0.7,0.7c-0.5,0.5-1.2,1.3-2.1,2.1
		c0.4,0.3,0.7,0.5,0.7,0.7s-0.1,0.4-0.1,0.8c-0.1,2,0,4.1,0,4.9c0,0.5-0.2,0.8-0.5,0.8c-0.5,0-0.8-0.7-0.8-1.2c0-0.3,0.1-0.6,0.2-1
		c0.1-1.1,0.2-3.2,0.1-3.8c0-0.3,0-0.4-0.2-0.6c-0.9,0.8-2.9,2.3-5.4,3.3l-0.2-0.3c3.4-1.9,5.9-4.6,6.9-6c0.3-0.4,0.4-0.6,0.4-0.8
		c0-0.2-0.3-0.4-0.8-0.7L171.9,5.2z"/>
	<path class="st1" d="M179.1,7.3c0.9,0,5.1-0.4,5.8-0.6c0.4-0.1,0.6-0.3,0.9-0.3c0.5,0,1.6,0.9,1.6,1.3s-0.5,0.6-0.7,1.1
		c-1.5,3.5-4,6.1-8.3,7.6l-0.2-0.3c4-2,6.6-5.2,7.4-8.4c0.1-0.2,0-0.2-0.2-0.2c-0.7,0-4.4,0.6-5.2,0.8c-0.4,0.1-0.7,0.4-1,0.4
		c-0.5,0-1.2-0.7-1.3-1.1c-0.1-0.2-0.1-0.5-0.1-0.8l0.3-0.1C178.3,6.8,178.6,7.3,179.1,7.3z"/>
	<path class="st1" d="M191.6,6.5c0.3,0.3,0.5,0.8,1,0.8c0.8,0,3.5-0.5,4.2-0.7c0.3-0.1,0.5-0.4,0.7-0.4c0.5,0,1.5,0.8,1.5,1.2
		c0,0.3-0.5,0.4-0.7,0.7c-0.5,0.7-1.3,2-2.3,3.1c2.3,0.9,4.5,2.4,4.5,3.7c0,0.3-0.2,0.6-0.6,0.6c-0.4,0-0.7-0.4-1.3-1.2
		c-0.9-1.1-1.6-1.9-2.9-2.7c-1.3,1.4-3.3,3.1-6.2,4.2l-0.2-0.3c3.3-1.7,6.6-5.1,7.9-7.9c0.1-0.2,0-0.2-0.2-0.2
		c-0.9,0.1-2.8,0.6-3.5,0.8c-0.4,0.1-0.5,0.4-0.9,0.4c-0.5,0-1.1-0.7-1.2-1.1c-0.1-0.2-0.2-0.5-0.2-0.9L191.6,6.5z"/>
	<path class="st1" d="M208.8,7.3c0.6,0,2.4-0.2,2.8-0.3c0.4-0.1,0.5-0.4,0.8-0.4c0.4,0,1.3,0.7,1.3,1.1c0,0.3-0.5,0.4-0.7,0.8
		c-0.6,1.1-1.3,2.2-2.1,3.2c0.8,0.6,1.5,1.3,1.5,1.9c0,0.4-0.2,0.6-0.6,0.6c-0.5,0-0.7-0.6-1.7-1.7c-1.7,1.8-3.8,3.2-6.4,4.3
		l-0.2-0.3c2.3-1.1,4.4-2.9,5.9-4.7c-0.8-0.8-1.8-1.4-2.9-1.9c-0.9,0.9-1.8,1.6-2.9,2.2l-0.2-0.3c2.2-1.6,4.5-4.8,4.5-5.7
		c0-0.3-0.4-0.5-0.8-0.7l0.1-0.2c0.3,0,0.5,0,0.9,0c0.7,0.1,1.5,0.6,1.5,0.8c0,0.3-0.2,0.4-0.4,0.7C209,6.9,208.9,7.1,208.8,7.3
		L208.8,7.3z M211.7,7.6c-0.4,0-1.7,0.2-2.2,0.4c-0.3,0.1-0.6,0.2-0.8,0.2c-0.1,0-0.3-0.1-0.5-0.3c-0.4,0.6-0.9,1.1-1.4,1.7
		c1.1,0.4,2.3,0.9,3.2,1.4c0.8-1.1,1.5-2.2,1.8-3.2C212,7.7,211.9,7.6,211.7,7.6z"/>
	<path class="st1" d="M222.5,5.2c0.3,0,0.7,0,1,0.1c0.6,0.2,1.3,0.9,1.3,1.3c0,0.3-0.3,0.3-0.7,0.7c-0.5,0.5-1.2,1.3-2.1,2.1
		c0.4,0.3,0.7,0.5,0.7,0.7s-0.1,0.4-0.1,0.8c-0.1,2,0,4.1,0,4.9c0,0.5-0.2,0.8-0.5,0.8c-0.5,0-0.8-0.7-0.8-1.2c0-0.3,0.1-0.6,0.2-1
		c0.1-1.1,0.2-3.2,0.1-3.8c0-0.3,0-0.4-0.2-0.6c-0.9,0.8-2.9,2.3-5.4,3.3l-0.2-0.3c3.4-1.9,5.9-4.6,6.9-6c0.3-0.4,0.4-0.6,0.4-0.8
		c0-0.2-0.3-0.4-0.8-0.7L222.5,5.2z"/>
	<path class="st1" d="M230.4,8.3V8.1c0.2-0.1,0.6-0.2,0.9-0.1c0.5,0,1.6,0.6,1.6,1.1c0,0.3-0.3,0.4-0.3,0.8
		c-0.5,2.2-1.8,4.5-4.5,6.1l-0.2-0.3c2.2-1.8,3.6-4.7,3.6-6.5C231.5,8.6,230.8,8.5,230.4,8.3z M233.3,6.5c0.4-0.2,0.6-0.2,1-0.2
		c0.6,0,1.6,0.6,1.6,0.9s-0.3,0.4-0.4,0.8c-0.1,0.7-0.2,4.3-0.2,5.3c0,0.2,0.1,0.2,0.3,0.2c1.9-0.8,3.8-2.2,5.2-3.7l0.3,0.2
		c-1.2,1.8-3.2,3.5-5.1,4.6c-0.3,0.2-0.5,0.6-0.8,0.6c-0.4,0-1-0.8-1-1.1s0.2-0.4,0.2-0.9c0.1-0.8,0.1-4.5,0.1-5.8
		c0-0.4-0.4-0.5-1.1-0.6L233.3,6.5z"/>
	<path class="st1" d="M249.4,5.4c0.3-0.1,0.7-0.2,0.9-0.2c0.7,0,1.5,0.6,1.5,0.9s-0.3,0.3-0.3,0.9c0,0.5,0,1.1,0,1.7
		c1.5-0.1,1.7-0.3,2-0.3c0.6,0,1.5,0.3,1.5,0.8c0,0.3-0.1,0.4-0.4,0.4c-0.4,0-1-0.2-2.1-0.2c-0.3,0-0.6,0-0.9,0
		c-0.1,1.8-0.1,3.5-1,4.7c-0.7,1-2,1.9-3.8,2.5l-0.2-0.3c1.1-0.5,2.3-1.3,3.1-2.6c0.7-1,0.8-2.7,0.8-4.3c-1,0.1-2,0.2-2.9,0.3
		c0,1.1,0,2.2,0,2.7c0,0.6-0.2,0.8-0.5,0.8c-0.4,0-0.7-0.7-0.7-1.1c0-0.4,0.2-0.9,0.2-2.3c-0.7,0.1-1.2,0.2-1.6,0.3
		c-0.4,0.1-0.7,0.3-1,0.3c-0.4,0-1-0.7-1.1-1c-0.1-0.2-0.1-0.6-0.1-0.8l0.2-0.1c0.3,0.4,0.5,0.8,0.9,0.8c0.5,0,1.8-0.2,2.7-0.2
		c0-0.8,0-1.7-0.1-2.1c-0.1-0.3-0.4-0.4-1-0.5V6.3c0.3-0.1,0.6-0.2,0.9-0.2c0.5,0,1.4,0.4,1.4,0.9c0,0.3-0.2,0.3-0.2,0.8
		c0,0.3,0,0.8,0,1.3l2.9-0.3c0-1.2,0-2-0.1-2.6c0-0.3-0.4-0.4-1-0.5L249.4,5.4z"/>
	<path class="st1" d="M257.6,7.2c0.7,0.1,1.2,0.2,1.8,0.7c0,0,0,0,0.1,0.1c1.4-0.1,4.6-0.4,5.1-0.4c0.5-0.1,0.6-0.4,0.9-0.4
		c0.4,0,1.5,0.9,1.5,1.3c0,0.3-0.5,0.5-0.6,0.9c-0.1,0.7-0.4,2.4-0.7,3.8c0.5,0,0.9,0.3,0.9,0.6s-0.1,0.5-0.5,0.5s-1.1-0.1-1.8-0.1
		c-1.1,0-2.9,0.1-4.5,0.2c0,0.1,0,0.3,0,0.5c0,0.4-0.1,0.6-0.5,0.6c-0.3,0-0.7-0.4-0.7-1.1c0-0.3,0.1-1.1,0-1.6c0-1-0.2-3.2-0.4-4
		c-0.1-0.5-0.3-0.8-0.8-1.2L257.6,7.2z M264.6,13.1c0.3-1.6,0.6-3.9,0.6-4.6c0-0.1,0-0.2-0.2-0.2c-0.8,0-3,0.2-3.7,0.3
		c-0.4,0.1-0.9,0.2-1.1,0.2s-0.4-0.1-0.6-0.2c0,1,0.1,3.5,0.2,4.9C261.2,13.3,263.3,13.2,264.6,13.1z"/>
	<path class="st1" d="M281.1,7.7l0.3,0.2c-1.7,3-4.3,5.3-7.4,7.3c-0.3,0.2-0.5,0.6-0.8,0.6c-0.6,0-1.5-0.7-1.8-1.2
		c-0.1-0.3-0.3-0.7-0.3-1l0.2-0.1c0.4,0.4,0.9,0.9,1.3,0.9C273.9,14.3,279.1,10.6,281.1,7.7z M271.4,6.4c1.7,0.4,3.7,1.3,3.7,2.5
		c0,0.4-0.3,0.6-0.6,0.6c-0.3,0-0.5-0.2-0.9-0.6c-0.7-0.8-1.1-1.3-2.4-2.2L271.4,6.4z"/>
	<path class="st1" d="M288.4,6.7c0,0,0.8,0.6,1.2,1.1c0,0.2-0.2,0.2-0.4,0.2H287v1.3c3.3,1.2,2.4,3.4,1.3,2.6
		c-0.2-0.7-0.7-1.7-1.3-2.3v7.2c0,0.1-0.5,0.4-0.9,0.4h-0.2v-6.5c-0.7,1.3-1.6,2.5-2.7,3.5L283,14c1.3-1.6,2.2-3.9,2.6-6.1h-2.3
		l-0.1-0.4h2.6V4.2l1.6,0.2c0,0.2-0.2,0.4-0.5,0.4v2.7h0.7L288.4,6.7z M295.7,15.6c0.3,0.2,0.5,0.3,0.5,0.5c0,0.5-0.6,0.7-2.8,0.7
		H292c-1.2,0-1.6-0.3-1.6-1.2v-11l1.7,0.2c0,0.2-0.2,0.3-0.5,0.4v10.2c0,0.3,0.1,0.5,0.7,0.5h1.2c0.6,0,1,0,1.2,0s0.2-0.1,0.3-0.2
		c0.1-0.3,0.3-1.3,0.6-2.3h0.2L295.7,15.6z"/>
	<path class="st1" d="M303.1,12.8c0,0.8-0.1,1.2-1,1.3c0-0.3,0-0.5-0.1-0.7s-0.2-0.3-0.5-0.3v-0.2c0,0,0.5,0,0.6,0s0.2-0.1,0.2-0.2
		V7.1h-0.8v9.7c0,0.1-0.4,0.3-0.8,0.3h-0.1v-10h-0.7v7c0,0.1-0.4,0.3-0.8,0.3h-0.2V6.2l1,0.5h0.6V4.3l1.6,0.2c0,0.2-0.1,0.3-0.5,0.4
		v1.8h0.7l0.5-0.6L304,7c-0.1,0.1-0.3,0.2-0.6,0.3v5.5H303.1z M311,15.8c0.3,0.1,0.3,0.3,0.3,0.5c0,0.4-0.4,0.6-1.9,0.6h-0.9
		c-0.9,0-1.1-0.3-1.1-0.9v-3.4h-1.1c-0.3,2.5-1.3,3.8-4,4.5l-0.1-0.2c2.1-1,2.8-2.3,2.9-4.3h-1.8l-0.1-0.4h3.2v-3l1.5,0.2
		c0,0.2-0.1,0.3-0.5,0.4v2.5h2l0.6-0.9c0,0,0.8,0.6,1.2,1c0,0.1-0.2,0.2-0.4,0.2h-2.4v0.1v3c0,0.2,0,0.2,0.3,0.2h0.7
		c0.3,0,0.5,0,0.6,0s0.1,0,0.2-0.2s0.3-0.9,0.4-1.7h0.2L311,15.8z M303.9,9.6c2.7,1,1.7,2.9,0.8,2.1c-0.1-0.7-0.6-1.5-0.9-2
		L303.9,9.6z M305,9.2c0,0.1-0.3,0.3-0.9,0.3H304v-5l1.2,0.5h3.9l0.5-0.6l1.1,0.8c-0.1,0.1-0.2,0.2-0.5,0.3v3.6
		c0,0.1-0.4,0.3-0.9,0.3h-0.2V8.8H305V9.2z M305,5.4v1.3h4.1V5.4H305z M309.2,8.4V7H305v1.4H309.2z M308.1,11.7
		c0.3-0.5,0.7-1.4,1-2.2l1.5,0.6c-0.1,0.1-0.2,0.3-0.5,0.2c-0.5,0.6-1.2,1.2-1.8,1.5L308.1,11.7z"/>
</g>
<g id="フリーダイヤル" transform="translate(1479 632.346)">
	<path id="パス_6" class="st1" d="M-1453.1-585.3c0,3.3,1.9,4,4,4s5-0.7,5-4c0-2.5-2.9-4.8-5-6
		C-1451.2-590.1-1453.1-587.9-1453.1-585.3z"/>
	<path id="パス_7" class="st1" d="M-1472.1-585.3c0,2.7,2.3,5,5,5c2.1,0,4-1.7,4-5c0-2.5-1.9-4.8-4-6
		C-1469.2-590.1-1472.1-587.9-1472.1-585.3z"/>
	<path id="パス_8" class="st1" d="M-1477.1-600.3v25h38v-25H-1477.1z M-1439.1-594.3c-2.3,0-4.8,1.1-7,2c2.4,1.5,3.9,4.1,4,7
		c0,3.9-3.1,7-7,7s-7-3.1-7-7c0-3,2.7-5.4,5-7c-2.2-0.9-4.7-2-7-2s-4.8,1.1-7,2c2.4,1.5,3.9,4.1,4,7c0,4-2.3,7-6,7c-3.8,0-7-3.2-7-7
		c0.1-2.9,1.6-5.5,4-7c-2.2-0.9-4.7-2-7-2v-2c3.4-0.1,6.9,0.6,10,2c5.7-2.7,12.3-2.7,18,0c3.1-1.4,6.6-2.1,10-2V-594.3z"/>
</g>
</svg>
