<?xml version="1.0" encoding="utf-8"?>
<!-- Generator: Adobe Illustrator 24.3.0, SVG Export Plug-In . SVG Version: 6.00 Build 0)  -->
<svg version="1.1" id="レイヤー_1" xmlns="http://www.w3.org/2000/svg" xmlns:xlink="http://www.w3.org/1999/xlink" x="0px"
	 y="0px" viewBox="0 0 301 31.3" style="enable-background:new 0 0 301 31.3;" xml:space="preserve">
<style type="text/css">
	.st0{enable-background:new    ;}
	.st1{fill:#EFEFEF;}
</style>
<g transform="translate(-138 -7262.5)">
	<g class="st0">
		<path class="st1" d="M203.2,7278.2c0,10.8-4.5,14.7-9.1,14.7c-4.7,0-9.2-3.9-9.2-14.7c0-10.8,4.5-14.8,9.2-14.8
			C198.6,7263.4,203.2,7267.4,203.2,7278.2z M194,7291.2c2.7,0,5.2-2.7,5.2-13c0-10.3-2.5-13-5.2-13c-2.8,0-5.3,2.7-5.3,13
			C188.7,7288.5,191.2,7291.2,194,7291.2z"/>
		<path class="st1" d="M225.2,7291v1.4H209v-1.4l6.2-0.9c0-2.3,0.1-4.7,0.1-7v-16.2l-5.8,0.6v-1.5l9-2.3l0.6,0.4l-0.2,6.3v12.7
			c0,2.3,0,4.7,0.1,7L225.2,7291z"/>
		<path class="st1" d="M248.6,7288.9v3.4h-18v-2.7c2.4-2.4,4.7-4.9,6.6-6.9c4.4-4.6,6.3-8,6.3-11.6c0-3.6-2.1-6-5.4-6
			c-0.6,0-1.5,0.1-2.4,0.3l-0.9,3.2c-0.5,2-1.3,2.8-2.4,2.8c-0.9,0-1.7-0.5-2.1-1.3c0.6-4.5,4.4-6.6,8.8-6.6c5.6,0,8.2,3.1,8.2,7.5
			c0,3.8-2,6.8-8.8,13.1c-1.2,1.2-3.1,3-5.1,4.9H248.6z"/>
		<path class="st1" d="M271.3,7278.2c0,10.8-4.5,14.7-9.1,14.7c-4.7,0-9.2-3.9-9.2-14.7c0-10.8,4.5-14.8,9.2-14.8
			C266.8,7263.4,271.3,7267.4,271.3,7278.2z M262.2,7291.2c2.7,0,5.2-2.7,5.2-13c0-10.3-2.5-13-5.2-13c-2.8,0-5.3,2.7-5.3,13
			C256.9,7288.5,259.4,7291.2,262.2,7291.2z"/>
		<path class="st1" d="M275.6,7280h10.2v2.6h-10.2V7280z"/>
		<path class="st1" d="M308.5,7288.9v3.4h-18v-2.7c2.4-2.4,4.7-4.9,6.6-6.9c4.4-4.6,6.3-8,6.3-11.6c0-3.6-2.1-6-5.4-6
			c-0.6,0-1.5,0.1-2.4,0.3l-0.9,3.2c-0.5,2-1.3,2.8-2.4,2.8c-0.9,0-1.7-0.5-2.1-1.3c0.6-4.5,4.4-6.6,8.8-6.6c5.6,0,8.2,3.1,8.2,7.5
			c0,3.8-2,6.8-8.8,13.1c-1.2,1.2-3.1,3-5.1,4.9H308.5z"/>
		<path class="st1" d="M330.5,7291v1.4h-16.2v-1.4l6.2-0.9c0-2.3,0.1-4.7,0.1-7v-16.2l-5.8,0.6v-1.5l9-2.3l0.6,0.4l-0.2,6.3v12.7
			c0,2.3,0,4.7,0.1,7L330.5,7291z"/>
		<path class="st1" d="M354,7278.2c0,10.8-4.5,14.7-9.1,14.7c-4.7,0-9.2-3.9-9.2-14.7c0-10.8,4.5-14.8,9.2-14.8
			C349.4,7263.4,354,7267.4,354,7278.2z M344.8,7291.2c2.7,0,5.2-2.7,5.2-13c0-10.3-2.5-13-5.2-13c-2.8,0-5.3,2.7-5.3,13
			C339.5,7288.5,342,7291.2,344.8,7291.2z"/>
		<path class="st1" d="M358.3,7280h10.2v2.6h-10.2V7280z"/>
		<path class="st1" d="M378.2,7268c-0.5,1.8-1.1,2.6-2.5,2.6c-0.9,0-1.6-0.4-2-1.5c0.8-3.8,4.2-5.6,8.2-5.6c5.1,0,8.3,2.8,8.3,6.8
			c0,3.2-2.2,5.9-6,7.1c4.8,0.9,7,3.6,7,7.2c0,4.8-4,8.3-9.8,8.3c-4.4,0-7.6-1.8-8.4-6.1c0.5-1,1.2-1.4,2.1-1.4
			c1.4,0,1.9,0.9,2.4,2.9l0.7,2.6c0.9,0.2,1.7,0.3,2.5,0.3c4.4,0,6.6-2.4,6.6-6.4s-2.3-6.4-6.8-6.4h-2.1v-1.9h1.7
			c3.9,0,6.4-2.2,6.4-6.1c0-3.4-2-5.2-5.4-5.2c-0.6,0-1.3,0-2.1,0.2L378.2,7268z"/>
		<path class="st1" d="M413.9,7288.9v3.4h-18v-2.7c2.4-2.4,4.7-4.9,6.6-6.9c4.4-4.6,6.3-8,6.3-11.6c0-3.6-2.1-6-5.4-6
			c-0.6,0-1.5,0.1-2.4,0.3l-0.9,3.2c-0.5,2-1.3,2.8-2.4,2.8c-0.9,0-1.7-0.5-2.1-1.3c0.6-4.5,4.4-6.6,8.8-6.6c5.6,0,8.2,3.1,8.2,7.5
			c0,3.8-2,6.8-8.8,13.1c-1.2,1.2-3.1,3-5.1,4.9H413.9z"/>
		<path class="st1" d="M422.5,7275.3c1.4-0.4,2.8-0.6,4.4-0.6c5.7,0,9.6,3.2,9.6,8.8c0,5.6-4,9.4-10.2,9.4c-4.4,0-7.3-2-8.2-6.1
			c0.4-0.9,1.1-1.4,2.1-1.4c1.3,0,1.8,0.6,2.4,2.8l0.7,2.6c0.9,0.3,1.8,0.4,2.7,0.4c4.4,0,6.7-2.8,6.7-7.2c0-4.6-2.6-7-6.8-7
			c-1.4,0-2.8,0.2-4.2,0.6l-1.1-0.3l0.9-13.2h14.3v3.4h-12.6L422.5,7275.3z"/>
	</g>
	<g transform="translate(138 7281.346)">
		<path class="st1" d="M23.8-1.9c-0.1,2.6,1.9,4.7,4.5,4.9C30.9,3,33,1,33.1-1.5c0-0.1,0-0.3,0-0.4c0-2.5-2.5-4.6-4.7-5.8
			C26.3-6.5,23.8-4.5,23.8-1.9z"/>
		<path class="st1" d="M4.9-1.9C4.8,0.7,6.7,2.9,9.3,3c2.6,0.1,4.8-1.9,4.9-4.5c0-0.1,0-0.3,0-0.4c0-2.5-2.5-4.6-4.7-5.8
			C7.4-6.4,4.9-4.4,4.9-1.9z"/>
		<path class="st1" d="M0-16.2V8.6h37.9v-24.8H0z M37.9-10.2c-2.5,0-4.9,0.5-7.2,1.4c2.3,1.6,4.6,3.9,4.6,6.9c0,3.8-3.1,7-7,7
			c-3.8,0-6.9-3.2-6.9-7c0-3,2.2-5.4,4.5-6.9c-4.5-1.8-9.5-1.8-14,0c2.3,1.6,4.5,3.9,4.5,6.9c0,3.8-3,6.9-6.9,7c-3.9,0-7-3.1-7-7
			c0-3,2.3-5.4,4.7-6.9C4.9-9.7,2.5-10.2,0-10.2v-2.2c3.3,0,6.6,0.7,9.6,2.2c5.9-2.9,12.8-2.9,18.8,0c3-1.5,6.3-2.2,9.6-2.2
			L37.9-10.2z"/>
	</g>
</g>
</svg>
