<svg xmlns="http://www.w3.org/2000/svg" width="304.411" height="34.118" viewBox="0 0 304.411 34.118">
  <g id="ftr_tel_img" transform="translate(-132.549 -7260.701)">
    <path id="パス_33" data-name="パス 33" d="M5.72-14.12c0-10.32,2.52-13.04,5.32-13.04,2.68,0,5.2,2.76,5.2,13.04s-2.52,13-5.2,13C8.24-1.12,5.72-3.84,5.72-14.12Zm5.32-14.76c-4.72,0-9.2,4-9.2,14.76C1.84-3.32,6.32.56,11.04.56c4.6,0,9.12-3.88,9.12-14.68,0-10.76-4.52-14.76-9.12-14.76Zm25,26.64c-.04-2.32-.08-4.68-.08-7V-21.96l.16-6.28-.6-.44-9,2.32v1.52l5.84-.56V-9.24c0,2.32-.04,4.68-.08,7l-6.24.88V0H42.2V-1.36ZM50.56-3.4c2-1.88,3.88-3.68,5.12-4.88,6.72-6.36,8.76-9.36,8.76-13.12,0-4.4-2.52-7.48-8.16-7.48-4.36,0-8.2,2.16-8.8,6.64a2.331,2.331,0,0,0,2.12,1.32c1.12,0,1.88-.76,2.4-2.76l.88-3.2a11.01,11.01,0,0,1,2.36-.28c3.28,0,5.36,2.36,5.36,5.96,0,3.52-1.84,6.92-6.28,11.56-1.92,2-4.24,4.52-6.64,6.92V0h18V-3.4ZM74-14.12c0-10.32,2.52-13.04,5.32-13.04,2.68,0,5.2,2.76,5.2,13.04s-2.52,13-5.2,13C76.52-1.12,74-3.84,74-14.12Zm5.32-14.76c-4.72,0-9.2,4-9.2,14.76C70.12-3.32,74.6.56,79.32.56c4.6,0,9.12-3.88,9.12-14.68,0-10.76-4.52-14.76-9.12-14.76ZM92.8-9.72H103v-2.56H92.8Zm23.84-3.8c-3.36,0-5.96-2.12-5.96-6.76,0-4.56,2.44-6.88,5.36-6.88,3.24,0,5.48,3.12,5.48,10.24,0,.52,0,1.08-.04,1.56A6.729,6.729,0,0,1,116.64-13.52ZM109.36.84c11.16-2.64,16-9.92,16-18.28,0-7.04-3.48-11.44-9.16-11.44-5.4,0-9.28,3.56-9.28,9.04a8.178,8.178,0,0,0,2.344,6.17,8.178,8.178,0,0,0,6.136,2.43,8.025,8.025,0,0,0,5.88-2.24c-.88,6.2-4.48,10.32-12.24,12.96ZM139.4-1.08a5.386,5.386,0,0,1-4.116-1.611A5.386,5.386,0,0,1,133.76-6.84c0-2.96,1.4-4.56,4.24-6.36,5.08,2.44,6.72,4.16,6.72,6.76a5.092,5.092,0,0,1-1.471,3.861,5.092,5.092,0,0,1-3.849,1.5Zm-4.88-21.48a4.571,4.571,0,0,1,1.408-3.335,4.571,4.571,0,0,1,3.392-1.265c2.84,0,4.48,2.28,4.48,5.12,0,2.48-.96,4.24-3.48,6.2-4.6-2.2-5.8-4.36-5.8-6.72Zm7.12,7.36c4.04-2.24,5.28-4.8,5.28-6.96,0-3.92-2.88-6.72-7.52-6.72-4.56,0-8.2,2.76-8.2,7.28,0,3.04,1.64,5.68,5.44,7.72-4.12,2-6.36,4.24-6.36,7.48,0,4.52,3.64,6.96,9,6.96,5.16,0,8.96-3,8.96-7.44,0-3.84-2.12-6.12-6.6-8.32Zm20.52,1.68c-3.36,0-5.96-2.12-5.96-6.76,0-4.56,2.44-6.88,5.36-6.88,3.24,0,5.48,3.12,5.48,10.24,0,.52,0,1.08-.04,1.56a6.729,6.729,0,0,1-4.84,1.84ZM154.88.84c11.16-2.64,16-9.92,16-18.28,0-7.04-3.48-11.44-9.16-11.44-5.4,0-9.28,3.56-9.28,9.04a8.178,8.178,0,0,0,2.344,6.17,8.178,8.178,0,0,0,6.136,2.43,8.025,8.025,0,0,0,5.88-2.24c-.88,6.2-4.48,10.32-12.24,12.96ZM175.6-9.72h10.2v-2.56H175.6ZM195-24.88h12.64v-3.4H193.32l-.92,13.2,1.12.32a15.448,15.448,0,0,1,4.24-.56c4.24,0,6.84,2.4,6.84,6.96,0,4.4-2.36,7.24-6.72,7.24a8.889,8.889,0,0,1-2.68-.4l-.72-2.64c-.52-2.12-1.08-2.76-2.36-2.76a2.114,2.114,0,0,0-2.08,1.4c.88,4.04,3.72,6.08,8.16,6.08,6.2,0,10.24-3.76,10.24-9.36,0-5.68-3.88-8.84-9.56-8.84a14.718,14.718,0,0,0-4.44.64Zm19.52,13.76L224.2-24.6v13.48Zm17.84,0h-4.64V-28.64h-2.44L212.32-10.68v2.12H224.2V0h3.52V-8.56h4.64Zm8.16-13.76h12.64v-3.4H238.84l-.92,13.2,1.12.32a15.448,15.448,0,0,1,4.24-.56c4.24,0,6.84,2.4,6.84,6.96,0,4.4-2.36,7.24-6.72,7.24a8.889,8.889,0,0,1-2.68-.4L240-4.16c-.52-2.12-1.08-2.76-2.36-2.76a2.114,2.114,0,0,0-2.08,1.4c.88,4.04,3.72,6.08,8.16,6.08,6.2,0,10.24-3.76,10.24-9.36,0-5.68-3.88-8.84-9.56-8.84a14.718,14.718,0,0,0-4.44.64Z" transform="translate(183 7291.78)" fill="#fff"/>
    <g id="freecall" transform="translate(132.549 7260.701)">
      <rect id="長方形_1" data-name="長方形 1" width="43.451" height="26.353" fill="#fff"/>
      <g id="グループ_9" data-name="グループ 9" transform="translate(9.804 0.706)">
        <path id="パス_20" data-name="パス 20" d="M24.892,5.841V.9H18.539A5.858,5.858,0,0,0,12.5,6.939V25.606h5.412V15.724h14.2V10.782h-14.2V7.567a1.916,1.916,0,0,1,2.039-1.725Z" transform="translate(-12.5 -0.9)" fill="#1b2c7b"/>
      </g>
      <g id="グループ_10" data-name="グループ 10" transform="translate(24.784 0.706)">
        <path id="パス_21" data-name="パス 21" d="M36.227,9.684V7.175a1.339,1.339,0,0,1,1.412-1.333h2.667V.9H37.639A5.858,5.858,0,0,0,31.6,6.939V9.684Z" transform="translate(-31.6 -0.9)" fill="#1b2c7b"/>
      </g>
      <g id="グループ_11" data-name="グループ 11" transform="translate(24.784 16.706)">
        <path id="パス_22" data-name="パス 22" d="M36.227,21.3v2.588a1.339,1.339,0,0,0,1.412,1.333h2.667v4.941H37.639A5.858,5.858,0,0,1,31.6,24.124V21.378Z" transform="translate(-31.6 -21.3)" fill="#1b2c7b"/>
      </g>
      <g id="グループ_12" data-name="グループ 12" transform="translate(0.627 27.765)">
        <path id="パス_23" data-name="パス 23" d="M6.682,35.7a6.436,6.436,0,0,1-1.176,3.922A5.952,5.952,0,0,1,1.82,41.661l-.549-1.1c3.294-.549,3.765-2.2,4.078-3.686H.8V35.7H6.682Z" transform="translate(-0.8 -35.465)" fill="#fff"/>
        <path id="パス_24" data-name="パス 24" d="M11.155,39.4H9.9v-4h1.255Zm3.529-1.1c0,2.824-2.2,3.137-3.922,3.373l-.471-1.1a8.572,8.572,0,0,0,2.51-.549,1.621,1.621,0,0,0,.627-1.412V35.4h1.255Z" transform="translate(-2.763 -35.4)" fill="#fff"/>
        <path id="パス_25" data-name="パス 25" d="M24.031,38.4v1.255H17.6V38.4Z" transform="translate(-4.423 -36.047)" fill="#fff"/>
        <path id="パス_26" data-name="パス 26" d="M32.669,35.778V41.19H27.1V40.014h4.314V36.876H27.178V35.7h5.49Z" transform="translate(-6.472 -35.465)" fill="#fff"/>
        <path id="パス_27" data-name="パス 27" d="M42.41,38.4v1.255H35.9V38.4Z" transform="translate(-8.371 -36.047)" fill="#fff"/>
        <path id="パス_28" data-name="パス 28" d="M47.275,37.2a12.768,12.768,0,0,1-.235,2.431,3.7,3.7,0,0,1-1.1,2.118L45,40.812a2.822,2.822,0,0,0,.863-1.647,8.879,8.879,0,0,0,.157-1.8V35.478H47.2V37.2Zm2.039,2.9a1.8,1.8,0,0,0,1.1-.941,4.156,4.156,0,0,0,.471-1.569l1.1.549a4.513,4.513,0,0,1-1.255,2.51,4.359,4.359,0,0,1-2.588,1.02V35.4h1.176Z" transform="translate(-10.333 -35.4)" fill="#fff"/>
      </g>
    </g>
  </g>
</svg>
