<svg xmlns="http://www.w3.org/2000/svg" width="298.96" height="29.72" viewBox="0 0 298.96 29.72">
  <g id="ftr_tel_img" transform="translate(-138 -7262.9)">
    <path id="パス_33" data-name="パス 33" d="M5.72-14.12c0-10.32,2.52-13.04,5.32-13.04,2.68,0,5.2,2.76,5.2,13.04s-2.52,13-5.2,13C8.24-1.12,5.72-3.84,5.72-14.12Zm5.32-14.76c-4.72,0-9.2,4-9.2,14.76C1.84-3.32,6.32.56,11.04.56c4.6,0,9.12-3.88,9.12-14.68C20.16-24.88,15.64-28.88,11.04-28.88Zm25,26.64c-.04-2.32-.08-4.68-.08-7V-21.96l.16-6.28-.6-.44-9,2.32v1.52l5.84-.56V-9.24c0,2.32-.04,4.68-.08,7l-6.24.88V0H42.2V-1.36ZM50.56-3.4c2-1.88,3.88-3.68,5.12-4.88,6.72-6.36,8.76-9.36,8.76-13.12,0-4.4-2.52-7.48-8.16-7.48-4.36,0-8.2,2.16-8.8,6.64a2.331,2.331,0,0,0,2.12,1.32c1.12,0,1.88-.76,2.4-2.76l.88-3.2a11.01,11.01,0,0,1,2.36-.28c3.28,0,5.36,2.36,5.36,5.96,0,3.52-1.84,6.92-6.28,11.56-1.92,2-4.24,4.52-6.64,6.92V0h18V-3.4ZM74-14.12c0-10.32,2.52-13.04,5.32-13.04,2.68,0,5.2,2.76,5.2,13.04s-2.52,13-5.2,13C76.52-1.12,74-3.84,74-14.12Zm5.32-14.76c-4.72,0-9.2,4-9.2,14.76C70.12-3.32,74.6.56,79.32.56c4.6,0,9.12-3.88,9.12-14.68C88.44-24.88,83.92-28.88,79.32-28.88ZM92.8-9.72H103v-2.56H92.8Zm23.84-3.8c-3.36,0-5.96-2.12-5.96-6.76,0-4.56,2.44-6.88,5.36-6.88,3.24,0,5.48,3.12,5.48,10.24,0,.52,0,1.08-.04,1.56A6.729,6.729,0,0,1,116.64-13.52ZM109.36.84c11.16-2.64,16-9.92,16-18.28,0-7.04-3.48-11.44-9.16-11.44-5.4,0-9.28,3.56-9.28,9.04a8.178,8.178,0,0,0,8.48,8.6,8.025,8.025,0,0,0,5.88-2.24c-.88,6.2-4.48,10.32-12.24,12.96ZM139.4-1.08a5.386,5.386,0,0,1-5.64-5.76c0-2.96,1.4-4.56,4.24-6.36,5.08,2.44,6.72,4.16,6.72,6.76A5.092,5.092,0,0,1,139.4-1.08Zm-4.88-21.48a4.571,4.571,0,0,1,4.8-4.6c2.84,0,4.48,2.28,4.48,5.12,0,2.48-.96,4.24-3.48,6.2C135.72-18.04,134.52-20.2,134.52-22.56Zm7.12,7.36c4.04-2.24,5.28-4.8,5.28-6.96,0-3.92-2.88-6.72-7.52-6.72-4.56,0-8.2,2.76-8.2,7.28,0,3.04,1.64,5.68,5.44,7.72-4.12,2-6.36,4.24-6.36,7.48,0,4.52,3.64,6.96,9,6.96,5.16,0,8.96-3,8.96-7.44C148.24-10.72,146.12-13,141.64-15.2Zm20.52,1.68c-3.36,0-5.96-2.12-5.96-6.76,0-4.56,2.44-6.88,5.36-6.88,3.24,0,5.48,3.12,5.48,10.24,0,.52,0,1.08-.04,1.56A6.729,6.729,0,0,1,162.16-13.52ZM154.88.84c11.16-2.64,16-9.92,16-18.28,0-7.04-3.48-11.44-9.16-11.44-5.4,0-9.28,3.56-9.28,9.04a8.178,8.178,0,0,0,8.48,8.6,8.025,8.025,0,0,0,5.88-2.24c-.88,6.2-4.48,10.32-12.24,12.96ZM175.6-9.72h10.2v-2.56H175.6ZM195-24.88h12.64v-3.4H193.32l-.92,13.2,1.12.32a15.448,15.448,0,0,1,4.24-.56c4.24,0,6.84,2.4,6.84,6.96,0,4.4-2.36,7.24-6.72,7.24a8.889,8.889,0,0,1-2.68-.4l-.72-2.64c-.52-2.12-1.08-2.76-2.36-2.76a2.114,2.114,0,0,0-2.08,1.4c.88,4.04,3.72,6.08,8.16,6.08,6.2,0,10.24-3.76,10.24-9.36,0-5.68-3.88-8.84-9.56-8.84a14.718,14.718,0,0,0-4.44.64Zm19.52,13.76L224.2-24.6v13.48Zm17.84,0h-4.64V-28.64h-2.44L212.32-10.68v2.12H224.2V0h3.52V-8.56h4.64Zm8.16-13.76h12.64v-3.4H238.84l-.92,13.2,1.12.32a15.448,15.448,0,0,1,4.24-.56c4.24,0,6.84,2.4,6.84,6.96,0,4.4-2.36,7.24-6.72,7.24a8.889,8.889,0,0,1-2.68-.4L240-4.16c-.52-2.12-1.08-2.76-2.36-2.76a2.114,2.114,0,0,0-2.08,1.4c.88,4.04,3.72,6.08,8.16,6.08,6.2,0,10.24-3.76,10.24-9.36,0-5.68-3.88-8.84-9.56-8.84a14.718,14.718,0,0,0-4.44.64Z" transform="translate(183 7291.78)" fill="#fff"/>
    <g id="グループ_10" data-name="グループ 10" transform="translate(138 7282.101)">
      <path id="パス_30" data-name="パス 30" d="M23.8-1.9A4.762,4.762,0,0,0,28.3,3a4.746,4.746,0,0,0,4.8-4.5v-.4c0-2.5-2.5-4.6-4.7-5.8C26.3-6.5,23.8-4.5,23.8-1.9Z" fill="#efefef"/>
      <path id="パス_31" data-name="パス 31" d="M4.9-1.9A4.619,4.619,0,0,0,9.3,3a4.7,4.7,0,0,0,4.9-4.5v-.4c0-2.5-2.5-4.6-4.7-5.8C7.4-6.4,4.9-4.4,4.9-1.9Z" fill="#efefef"/>
      <path id="パス_32" data-name="パス 32" d="M0-16.2V8.6H37.9V-16.2H0Zm37.9,6a19.631,19.631,0,0,0-7.2,1.4c2.3,1.6,4.6,3.9,4.6,6.9a7.02,7.02,0,0,1-7,7,7,7,0,0,1-6.9-7c0-3,2.2-5.4,4.5-6.9a18.823,18.823,0,0,0-14,0c2.3,1.6,4.5,3.9,4.5,6.9a7,7,0,0,1-6.9,7,6.957,6.957,0,0,1-7-7c0-3,2.3-5.4,4.7-6.9A19.631,19.631,0,0,0,0-10.2v-2.2a21.432,21.432,0,0,1,9.6,2.2,21.4,21.4,0,0,1,18.8,0A21.432,21.432,0,0,1,38-12.4Z" fill="#efefef"/>
    </g>
  </g>
</svg>
