<svg xmlns="http://www.w3.org/2000/svg" width="178" height="152" viewBox="0 0 178 152"><g transform="translate(-51)"><g transform="translate(51)" fill="#fff" stroke="#d6d6d6" stroke-width="1"><rect width="178" height="152" stroke="none"/><rect x="0.5" y="0.5" width="177" height="151" fill="none"/></g><text transform="translate(140 121)" font-size="9" font-family="Optima-Regular, Optima" letter-spacing="0.04em"><tspan x="-60.143" y="0">CLIO SAPPORO KITA 10JYO</tspan></text><line x2="135.956" transform="translate(73.613 105.562)" fill="none" stroke="#000" stroke-width="0.5"/><text transform="translate(141 96)" font-size="15" font-family="YuMin-Medium, YuMincho" font-weight="500" letter-spacing="0.04em"><tspan x="-62.4" y="0">クリオ札幌北10条</tspan></text><g transform="translate(-175.051 -221.37)"><path d="M504.245,251.571c-13.368,0-22.084,8.045-22.084,18.49,0,10.3,8.794,18.313,22.084,18.313s21.972-8.014,21.972-18.313c0-10.446-8.611-18.49-21.972-18.49m.024,33.725c-7.818,0-12.762-6.951-12.762-15.235s4.528-15.413,12.762-15.413,12.6,7.131,12.6,15.413-4.778,15.235-12.6,15.235" transform="translate(-141.597)" fill="#004da0"/><path d="M267.135,285.213c-8.989,0-13.9-6.517-13.9-15.5,0-9.035,5.675-14.98,14.059-14.98,6.365,0,11.879,4.965,15.144,8.662l-1.045-8.328c-3.31-1.984-9.031-3.482-15.235-3.482-13.1,0-22.68,7.764-22.68,18.338s9.336,18.463,22.356,18.463c6.693,0,12.214-1.476,15.559-3.354l1.045-8.453c-3.544,3.928-8.7,8.64-15.307,8.64" transform="translate(0 -0.005)" fill="#004da0"/><path d="M456.481,254.021h-9.544v9.287l9.544-6.382Z" transform="translate(-122.187 -1.519)" fill="#009d95"/><path d="M456.481,297.78v-27.1l-9.544,6.373v20.73Z" transform="translate(-122.187 -10.191)" fill="#004da0"/><path d="M380.979,289.107l4.75-3.33h-21.7V254.021H352.188a11.352,11.352,0,0,1,2.3,7.107v27.979Z" transform="translate(-64.79 -1.518)" fill="#004da0"/></g></g></svg>