<svg xmlns="http://www.w3.org/2000/svg" viewBox="0 0 107.36 27.99"><defs><style>.cls-1{fill:#004da0;}.cls-2{fill:#009c8d;}</style></defs><g id="レイヤー_2" data-name="レイヤー 2"><g id="レイヤー_1-2" data-name="レイヤー 1"><path class="cls-1" d="M89.86,0C79.22,0,72.28,6.12,72.28,14.06S79.28,28,89.86,28s17.5-6.09,17.5-13.93S100.5,0,89.86,0m0,25.65c-6.22,0-10.16-5.29-10.16-11.59S83.32,2.34,89.88,2.34s10,5.43,10,11.72-3.81,11.59-10,11.59"/><path class="cls-1" d="M18.84,25.58c-7.16,0-11.07-4.95-11.07-11.79S12.29,2.4,19,2.4C24,2.4,28.43,6.17,31,9l-.84-6.34C27.56,1.14,23,0,18.06,0,7.63,0,0,5.91,0,14S7.43,28,17.8,28a27.36,27.36,0,0,0,12.39-2.55L31,19c-2.83,3-6.93,6.57-12.19,6.57"/><polygon class="cls-2" points="69.21 0.74 61.61 0.74 61.61 8.14 69.21 3.06 69.21 0.74"/><polygon class="cls-1" points="69.21 27.36 69.21 5.79 61.61 10.86 61.61 27.36 69.21 27.36"/><path class="cls-1" d="M55.85,27.36l3.78-2.52H42.35V.74H32.91a8.31,8.31,0,0,1,1.84,5.39V27.36Z"/></g></g></svg>