<svg xmlns="http://www.w3.org/2000/svg" width="63" height="41.116" viewBox="0 0 63 41.116">
  <g id="icon_tel_free" transform="translate(0 16.2)">
    <path id="パス_30" data-name="パス 30" d="M23.8,1.916a7.894,7.894,0,0,0,7.461,8.124,7.868,7.868,0,0,0,7.958-7.461V1.916c0-4.145-4.145-7.626-7.792-9.616C27.947-5.711,23.8-2.395,23.8,1.916Z" transform="translate(15.656 5.592)" fill="#efefef"/>
    <path id="パス_31" data-name="パス 31" d="M4.9,1.916A7.658,7.658,0,0,0,12.2,10.039a7.791,7.791,0,0,0,8.124-7.461V1.916c0-4.145-4.145-7.626-7.792-9.616C9.047-5.545,4.9-2.229,4.9,1.916Z" transform="translate(3.221 5.592)" fill="#efefef"/>
    <path id="パス_32" data-name="パス 32" d="M0-16.2V24.916H62.834V-16.2H0ZM62.834-6.253A32.546,32.546,0,0,0,50.9-3.932c3.813,2.653,7.626,6.466,7.626,11.439a11.523,11.523,0,1,1-23.045,0c0-4.974,3.647-8.953,7.461-11.439a31.207,31.207,0,0,0-23.211,0c3.813,2.653,7.461,6.466,7.461,11.439a11.523,11.523,0,1,1-23.045,0c0-4.974,3.813-8.953,7.792-11.439A32.546,32.546,0,0,0,0-6.253V-9.9A35.531,35.531,0,0,1,15.916-6.253a35.479,35.479,0,0,1,31.168,0A35.531,35.531,0,0,1,63-9.9Z" fill="#efefef"/>
  </g>
</svg>
