<svg id="icon_tel_free" xmlns="http://www.w3.org/2000/svg" width="63" height="49.467" viewBox="0 0 63 49.467">
  <rect id="長方形_1" data-name="長方形 1" width="63" height="38.209" fill="#fff"/>
  <g id="グループ_9" data-name="グループ 9" transform="translate(14.215 1.023)">
    <path id="パス_20" data-name="パス 20" d="M30.468,8.064V.9H21.256C15,.9,12.5,5.9,12.5,9.656V36.721h7.847V22.393H40.93V15.229H20.347V10.566c0-1.592,1.592-2.5,2.957-2.5Z" transform="translate(-12.5 -0.9)" fill="#1b2c7b"/>
  </g>
  <g id="グループ_10" data-name="グループ 10" transform="translate(35.935 1.023)">
    <path id="パス_21" data-name="パス 21" d="M38.309,13.636V10a1.942,1.942,0,0,1,2.047-1.933h3.866V.9H40.356C34.1.9,31.6,5.9,31.6,9.656v3.98Z" transform="translate(-31.6 -0.9)" fill="#1b2c7b"/>
  </g>
  <g id="グループ_11" data-name="グループ 11" transform="translate(35.935 24.222)">
    <path id="パス_22" data-name="パス 22" d="M38.309,21.3v3.753a1.942,1.942,0,0,0,2.047,1.933h3.866V34.15H40.356c-6.255,0-8.756-5-8.756-8.756v-3.98Z" transform="translate(-31.6 -21.3)" fill="#1b2c7b"/>
  </g>
  <g id="グループ_12" data-name="グループ 12" transform="translate(0.91 40.256)">
    <path id="パス_23" data-name="パス 23" d="M9.329,35.7c-.114,2.843-.8,4.549-1.706,5.686a8.63,8.63,0,0,1-5.345,2.957l-.8-1.592c4.776-.8,5.458-3.184,5.913-5.345H.8V35.7H9.329Z" transform="translate(-0.8 -35.359)" fill="#fff"/>
    <path id="パス_24" data-name="パス 24" d="M11.719,41.2H9.9V35.4h1.819Zm5.117-1.592c0,4.094-3.184,4.549-5.686,4.89l-.682-1.592a12.429,12.429,0,0,0,3.639-.8,2.351,2.351,0,0,0,.91-2.047V35.4h1.819Z" transform="translate(0.448 -35.4)" fill="#fff"/>
    <path id="パス_25" data-name="パス 25" d="M26.925,38.4v1.819H17.6V38.4Z" transform="translate(1.505 -34.988)" fill="#fff"/>
    <path id="パス_26" data-name="パス 26" d="M35.174,35.814V43.66H27.1V41.955h6.255V37.406H27.214V35.7h7.96Z" transform="translate(2.808 -35.359)" fill="#fff"/>
    <path id="パス_27" data-name="パス 27" d="M45.339,38.4v1.819H35.9V38.4Z" transform="translate(4.015 -34.988)" fill="#fff"/>
    <path id="パス_28" data-name="パス 28" d="M48.3,38.016a18.513,18.513,0,0,1-.341,3.525,5.371,5.371,0,0,1-1.592,3.07L45,43.247a4.092,4.092,0,0,0,1.251-2.388,12.874,12.874,0,0,0,.227-2.616V35.514h1.706v2.5Zm2.957,4.208a2.616,2.616,0,0,0,1.592-1.365,6.026,6.026,0,0,0,.682-2.274l1.592.8A6.544,6.544,0,0,1,53.3,43.019,6.32,6.32,0,0,1,49.549,44.5V35.4h1.706Z" transform="translate(5.264 -35.4)" fill="#fff"/>
  </g>
</svg>
