<svg xmlns="http://www.w3.org/2000/svg" width="299.529" height="79.9" viewBox="0 0 299.529 79.9">
  <g id="menu_tel" transform="translate(-1.391 -6.198)">
    <path id="パス_98" data-name="パス 98" d="M5.72-14.12c0-10.32,2.52-13.04,5.32-13.04,2.68,0,5.2,2.76,5.2,13.04s-2.52,13-5.2,13C8.24-1.12,5.72-3.84,5.72-14.12Zm5.32-14.76c-4.72,0-9.2,4-9.2,14.76C1.84-3.32,6.32.56,11.04.56c4.6,0,9.12-3.88,9.12-14.68,0-10.76-4.52-14.76-9.12-14.76Zm25,26.64c-.04-2.32-.08-4.68-.08-7V-21.96l.16-6.28-.6-.44-9,2.32v1.52l5.84-.56V-9.24c0,2.32-.04,4.68-.08,7l-6.24.88V0H42.2V-1.36ZM50.56-3.4c2-1.88,3.88-3.68,5.12-4.88,6.72-6.36,8.76-9.36,8.76-13.12,0-4.4-2.52-7.48-8.16-7.48-4.36,0-8.2,2.16-8.8,6.64a2.331,2.331,0,0,0,2.12,1.32c1.12,0,1.88-.76,2.4-2.76l.88-3.2a11.01,11.01,0,0,1,2.36-.28c3.28,0,5.36,2.36,5.36,5.96,0,3.52-1.84,6.92-6.28,11.56-1.92,2-4.24,4.52-6.64,6.92V0h18V-3.4ZM74-14.12c0-10.32,2.52-13.04,5.32-13.04,2.68,0,5.2,2.76,5.2,13.04s-2.52,13-5.2,13C76.52-1.12,74-3.84,74-14.12Zm5.32-14.76c-4.72,0-9.2,4-9.2,14.76C70.12-3.32,74.6.56,79.32.56c4.6,0,9.12-3.88,9.12-14.68,0-10.76-4.52-14.76-9.12-14.76ZM92.8-9.72H103v-2.56H92.8Zm23.84-3.8c-3.36,0-5.96-2.12-5.96-6.76,0-4.56,2.44-6.88,5.36-6.88,3.24,0,5.48,3.12,5.48,10.24,0,.52,0,1.08-.04,1.56A6.729,6.729,0,0,1,116.64-13.52ZM109.36.84c11.16-2.64,16-9.92,16-18.28,0-7.04-3.48-11.44-9.16-11.44-5.4,0-9.28,3.56-9.28,9.04a8.178,8.178,0,0,0,2.344,6.17,8.178,8.178,0,0,0,6.136,2.43,8.025,8.025,0,0,0,5.88-2.24c-.88,6.2-4.48,10.32-12.24,12.96ZM139.4-1.08a5.386,5.386,0,0,1-4.116-1.611A5.386,5.386,0,0,1,133.76-6.84c0-2.96,1.4-4.56,4.24-6.36,5.08,2.44,6.72,4.16,6.72,6.76a5.092,5.092,0,0,1-1.471,3.861,5.092,5.092,0,0,1-3.849,1.5Zm-4.88-21.48a4.571,4.571,0,0,1,1.408-3.335,4.571,4.571,0,0,1,3.392-1.265c2.84,0,4.48,2.28,4.48,5.12,0,2.48-.96,4.24-3.48,6.2-4.6-2.2-5.8-4.36-5.8-6.72Zm7.12,7.36c4.04-2.24,5.28-4.8,5.28-6.96,0-3.92-2.88-6.72-7.52-6.72-4.56,0-8.2,2.76-8.2,7.28,0,3.04,1.64,5.68,5.44,7.72-4.12,2-6.36,4.24-6.36,7.48,0,4.52,3.64,6.96,9,6.96,5.16,0,8.96-3,8.96-7.44,0-3.84-2.12-6.12-6.6-8.32Zm20.52,1.68c-3.36,0-5.96-2.12-5.96-6.76,0-4.56,2.44-6.88,5.36-6.88,3.24,0,5.48,3.12,5.48,10.24,0,.52,0,1.08-.04,1.56a6.729,6.729,0,0,1-4.84,1.84ZM154.88.84c11.16-2.64,16-9.92,16-18.28,0-7.04-3.48-11.44-9.16-11.44-5.4,0-9.28,3.56-9.28,9.04a8.178,8.178,0,0,0,2.344,6.17,8.178,8.178,0,0,0,6.136,2.43,8.025,8.025,0,0,0,5.88-2.24c-.88,6.2-4.48,10.32-12.24,12.96ZM175.6-9.72h10.2v-2.56H175.6ZM195-24.88h12.64v-3.4H193.32l-.92,13.2,1.12.32a15.448,15.448,0,0,1,4.24-.56c4.24,0,6.84,2.4,6.84,6.96,0,4.4-2.36,7.24-6.72,7.24a8.889,8.889,0,0,1-2.68-.4l-.72-2.64c-.52-2.12-1.08-2.76-2.36-2.76a2.114,2.114,0,0,0-2.08,1.4c.88,4.04,3.72,6.08,8.16,6.08,6.2,0,10.24-3.76,10.24-9.36,0-5.68-3.88-8.84-9.56-8.84a14.718,14.718,0,0,0-4.44.64Zm19.52,13.76L224.2-24.6v13.48Zm17.84,0h-4.64V-28.64h-2.44L212.32-10.68v2.12H224.2V0h3.52V-8.56h4.64Zm8.16-13.76h12.64v-3.4H238.84l-.92,13.2,1.12.32a15.448,15.448,0,0,1,4.24-.56c4.24,0,6.84,2.4,6.84,6.96,0,4.4-2.36,7.24-6.72,7.24a8.889,8.889,0,0,1-2.68-.4L240-4.16c-.52-2.12-1.08-2.76-2.36-2.76a2.114,2.114,0,0,0-2.08,1.4c.88,4.04,3.72,6.08,8.16,6.08,6.2,0,10.24-3.76,10.24-9.36,0-5.68-3.88-8.84-9.56-8.84a14.718,14.718,0,0,0-4.44.64Z" transform="translate(46.96 60.922)" fill="#333"/>
    <path id="パス_99" data-name="パス 99" d="M9.462-10.937A52.235,52.235,0,0,1,1.242-9.47l.036.242a73.863,73.863,0,0,0,8.5-.752c.327.145.558.145.679.036ZM5.134-9.3a3.98,3.98,0,0,1,.691,1.928c.849.776,1.855-.994-.546-2Zm-2.692.242a3.692,3.692,0,0,1,.837,1.77c.885.727,1.807-1.055-.715-1.855ZM8.189-4.742A7.737,7.737,0,0,1,6.273-2.475,6.406,6.406,0,0,1,3.921-4.742Zm.7-.934-.679.594H2.151l.109.339H3.642a7.427,7.427,0,0,0,2,2.728A14.481,14.481,0,0,1,.66.047L.72.241a14.62,14.62,0,0,0,5.541-1.77A12.1,12.1,0,0,0,10.784.241a1.185,1.185,0,0,1,.9-.921l.024-.145A15.1,15.1,0,0,1,7.062-2.062,8.768,8.768,0,0,0,9.353-4.548c.3-.012.449-.048.546-.17Zm1.916-1.916-.582.582H8.177a13.357,13.357,0,0,0,1.867-1.807c.267.024.412-.073.461-.218L9.062-9.519a17.1,17.1,0,0,1-1.225,2.51H2.151a3.811,3.811,0,0,0-.194-.643l-.182.012a1.734,1.734,0,0,1-.764,1.685A.617.617,0,0,0,.648-5.2c.133.315.582.352.921.158A1.632,1.632,0,0,0,2.2-6.657h8.039a12.221,12.221,0,0,1-.521,1.334l.133.085A11.328,11.328,0,0,0,11.4-6.463c.23-.012.364-.036.449-.133Zm4.826-3.358A19.218,19.218,0,0,1,12.9-4.742l.17.121A10.8,10.8,0,0,0,14.6-6.366V.241h.17a1.162,1.162,0,0,0,.812-.315V-7.13c.206-.036.315-.121.352-.23l-.558-.206a17.026,17.026,0,0,0,1.249-2.68c.267.012.412-.1.461-.242Zm7,3.164h-.485v-2.522c.3-.036.412-.145.449-.327l-1.455-.158v3.007H16.325l.1.352h4.716V-1.3c0,.218-.073.3-.364.3-.352,0-2.158-.121-2.158-.121v.182a3.688,3.688,0,0,1,1.443.412,1,1,0,0,1,.376.74c1.528-.158,1.71-.643,1.71-1.419V-7.433H24a.29.29,0,0,0,.315-.194c-.4-.412-1.091-.982-1.091-.982ZM17.076-6.16A8.027,8.027,0,0,1,18.653-3.3c1.006.776,1.782-1.394-1.443-2.934Zm9.748,3.589v-3.3h1.5v3.3Zm1.5-6.875v3.237h-1.5V-9.446Zm.376-.921-.5.57H26.958l-1.067-.436V-.826h.158c.473,0,.776-.23.776-.315V-2.22h1.5v.82h.145c.327,0,.776-.218.788-.315V-9.276a.948.948,0,0,0,.509-.242Zm7.723,3.819c.158,0,.279-.061.3-.194A14.1,14.1,0,0,0,35.6-7.7l-.6.788H33.25V-8.67h2.764c.17,0,.291-.061.327-.194-.424-.4-1.1-.934-1.1-.934l-.606.764H33.25v-1.382c.3-.048.424-.17.436-.339l-1.394-.133v1.855h-2.51l.1.364h2.413v1.758H29.419l.1.364Zm-6.111,2.5a4.692,4.692,0,0,1,1.14,2.061c.958.752,1.843-1.225-1.018-2.146Zm4.91-.873h-.461v-.958c.255-.048.376-.145.4-.3L33.82-6.318v1.394H29.468l.1.352H33.82v3.455c0,.17-.061.23-.291.23-.267,0-1.6-.085-1.6-.085V-.79a2.149,2.149,0,0,1,1.091.352.884.884,0,0,1,.291.667c1.3-.121,1.455-.546,1.455-1.285V-4.572h1.722c.17,0,.3-.061.327-.194-.376-.364-1.031-.885-1.031-.885Zm6.7-4.838V-8.6H39.6V-9.761ZM39.6-7.058V-8.246h2.328v1.188Zm2.328.364v.582h.145a1.335,1.335,0,0,0,.776-.267V-9.628a.907.907,0,0,0,.449-.218l-1-.776-.473.521H39.664l-1.006-.473V.229h.17c.449,0,.776-.242.776-.376V-6.694Zm.242,4.753V-3.335h2.7v1.394ZM44.878-5v1.309h-2.7V-5Zm.364-.861-.473.521H42.235l-.958-.424V-.789h.145c.364,0,.752-.206.752-.3v-.485h2.7V-.91h.145a1.193,1.193,0,0,0,.776-.315V-4.863a.858.858,0,0,0,.449-.206Zm-.158-1.2V-8.246h2.425v1.188Zm2.425-2.7V-8.6H45.084V-9.761Zm.339-.934-.461.594H45.132l-.97-.436v4.389h.121c.388,0,.8-.206.8-.291v-.255h2.425v5.5c0,.182-.061.267-.279.267-.255,0-1.419-.1-1.419-.1v.194a2,2,0,0,1,.994.352,1.09,1.09,0,0,1,.255.7C48.32.1,48.465-.339,48.465-1.09v-8.5a.905.905,0,0,0,.509-.23Zm13.858.036L61.367-11,50.406-.037l.34.337Z" transform="translate(0.77 85.798)" fill="#333"/>
    <path id="パス_30" data-name="パス 30" d="M3.6-.351A1.75,1.75,0,0,1,1.768-2.223c0-.962.455-1.482,1.378-2.067C4.8-3.5,5.33-2.938,5.33-2.093A1.655,1.655,0,0,1,3.6-.351ZM2.015-7.332a1.486,1.486,0,0,1,1.56-1.5A1.5,1.5,0,0,1,5.031-7.163,2.37,2.37,0,0,1,3.9-5.148C2.4-5.863,2.015-6.565,2.015-7.332ZM4.329-4.94C5.642-5.668,6.045-6.5,6.045-7.2A2.194,2.194,0,0,0,3.6-9.386,2.422,2.422,0,0,0,.936-7.02,2.822,2.822,0,0,0,2.7-4.511C1.365-3.861.637-3.133.637-2.08.637-.611,1.82.182,3.562.182c1.677,0,2.912-.975,2.912-2.418C6.474-3.484,5.785-4.225,4.329-4.94Zm4.81-.13a.969.969,0,0,0,.975-.949.977.977,0,0,0-.975-.988.974.974,0,0,0-.962.988A.966.966,0,0,0,9.139-5.07Zm0,5.252a.969.969,0,0,0,.975-.949.977.977,0,0,0-.975-.988.974.974,0,0,0-.962.988A.966.966,0,0,0,9.139.182Zm4.6-8.931a2.792,2.792,0,0,1,.689-.078,1.579,1.579,0,0,1,1.768,1.7,1.861,1.861,0,0,1-2.08,1.976h-.559v.624h.676a1.927,1.927,0,0,1,2.21,2.067A1.919,1.919,0,0,1,14.3-.364a3.077,3.077,0,0,1-.819-.1l-.234-.845c-.169-.65-.338-.936-.78-.936a.732.732,0,0,0-.689.455A2.445,2.445,0,0,0,14.508.182c1.9,0,3.185-1.131,3.185-2.7,0-1.17-.715-2.041-2.262-2.327a2.469,2.469,0,0,0,1.963-2.314c0-1.313-1.04-2.223-2.691-2.223a2.449,2.449,0,0,0-2.665,1.833.653.653,0,0,0,.663.481c.455,0,.65-.273.806-.845Zm6.279,4.16c0-3.354.819-4.238,1.729-4.238.871,0,1.69.9,1.69,4.238S22.62-.364,21.749-.364C20.839-.364,20.02-1.248,20.02-4.589Zm1.729-4.8c-1.534,0-2.99,1.3-2.99,4.8S20.215.182,21.749.182c1.5,0,2.964-1.261,2.964-4.771S23.244-9.386,21.749-9.386Zm9.7,4.836a5.224,5.224,0,0,0,2.769.91,4.019,4.019,0,0,0,3.3-1.885L37.31-5.72a3.744,3.744,0,0,1-2.756,1.287,5.063,5.063,0,0,1-2.665-.923,5.224,5.224,0,0,0-2.769-.91,4.022,4.022,0,0,0-3.3,1.885l.208.182a3.731,3.731,0,0,1,2.756-1.274A5.063,5.063,0,0,1,31.447-4.55ZM42.354-.728c-.013-.754-.026-1.521-.026-2.275V-7.137l.052-2.041-.195-.143-2.925.754v.494l1.9-.182V-3c0,.754-.013,1.521-.026,2.275L39.1-.442V0h5.252V-.442ZM45.76-9.191v1.105h4.992L46.93-.13l.13.13H48.2l3.341-8.5v-.689ZM54.184-5.07a.969.969,0,0,0,.975-.949.977.977,0,0,0-.975-.988.974.974,0,0,0-.962.988A.966.966,0,0,0,54.184-5.07Zm0,5.252a.969.969,0,0,0,.975-.949.977.977,0,0,0-.975-.988.974.974,0,0,0-.962.988A.966.966,0,0,0,54.184.182Zm4.6-8.931a2.792,2.792,0,0,1,.689-.078,1.579,1.579,0,0,1,1.768,1.7,1.861,1.861,0,0,1-2.08,1.976H58.6v.624h.676a1.927,1.927,0,0,1,2.21,2.067A1.919,1.919,0,0,1,59.345-.364a3.077,3.077,0,0,1-.819-.1l-.234-.845c-.169-.65-.338-.936-.78-.936a.732.732,0,0,0-.689.455A2.445,2.445,0,0,0,59.553.182c1.9,0,3.185-1.131,3.185-2.7,0-1.17-.715-2.041-2.262-2.327a2.469,2.469,0,0,0,1.963-2.314c0-1.313-1.04-2.223-2.691-2.223a2.449,2.449,0,0,0-2.665,1.833.653.653,0,0,0,.663.481c.455,0,.65-.273.806-.845Zm6.279,4.16c0-3.354.819-4.238,1.729-4.238.871,0,1.69.9,1.69,4.238s-.819,4.225-1.69,4.225C65.884-.364,65.065-1.248,65.065-4.589Zm1.729-4.8c-1.534,0-2.99,1.3-2.99,4.8S65.26.182,66.794.182c1.5,0,2.964-1.261,2.964-4.771S68.289-9.386,66.794-9.386Z" transform="translate(62.313 85.042)" fill="#333"/>
    <path id="パス_29" data-name="パス 29" d="M4.844-1.162c0,.28-.1.378-.406.266-.392-.168-.994-.448-1.5-.7a21.382,21.382,0,0,1,1.9-1.61Zm.742-3.78c0-.6.014-1.232.056-1.848A16.367,16.367,0,0,0,7.7-7.56c.308-.154.476-.336.476-.574-.014-.42-.56-.462-.784-.448-.266,0-.7.42-1.68.8a8.647,8.647,0,0,1,.168-1.26c.1-.448.308-.672.308-1.008,0-.364-.952-.826-1.526-.826a2.031,2.031,0,0,0-1.078.322l.042.252a3.216,3.216,0,0,1,.91.112c.224.084.294.14.308.49s0,1.218,0,2.2a7.224,7.224,0,0,1-1.54.28c-.714.028-.952-.126-1.652-.8l-.224.168C1.96-6.51,2.576-6.328,3.318-6.328a8.313,8.313,0,0,0,1.526-.238V-4c-.966.546-2.044,1.386-2.52,1.666a1.143,1.143,0,0,1-.826.182c-.336-.028-.42.084-.42.462a.924.924,0,0,0,.294.686.722.722,0,0,0,.49.266c.224,0,.392-.182.8-.574A12.417,12.417,0,0,1,4.1-.224c.448.42.462.882.826.882.476,0,.9-.714.9-1.358,0-.518-.168-1.022-.224-2.968a7.641,7.641,0,0,1,3.444-1.19c1.5,0,2.128.826,2.128,1.848a1.924,1.924,0,0,1-2.1,1.974,3.23,3.23,0,0,1-2.184-.84l-.224.21A3.126,3.126,0,0,0,9.324-.112a2.69,2.69,0,0,0,2.912-2.646A2.606,2.606,0,0,0,9.366-5.4,8.445,8.445,0,0,0,5.586-4.4ZM9.114-8.736a2.811,2.811,0,0,1,2.548.84.353.353,0,0,1-.028.532,10.8,10.8,0,0,1-1.106.77l.154.224a5.861,5.861,0,0,1,1.106-.392c.434-.07.616.336.938.28.336-.028.476-.308.462-.63a2.559,2.559,0,0,0-2.2-2.072,4.41,4.41,0,0,0-1.9.126Zm8.848,2.268H15.806l.112.406h3.206a.318.318,0,0,0,.35-.224c-.392-.35-.994-.77-.994-.77Zm0-1.414h-1.89l.112.406h2.884a.323.323,0,0,0,.35-.21c-.378-.35-.952-.77-.952-.77Zm-.91,6.216V-2.94h2.786v1.274Zm2.786-2.912v1.232H17.052V-4.578Zm4.032,0v1.232H20.944V-4.578ZM20.944-1.666V-2.94H23.87v1.274Zm5.306.182h-.182a6.32,6.32,0,0,1-.42,1.274c-.112.14-.28.154-.6.154H21.588c-.588,0-.644-.042-.644-.5v-.7H23.87v.588h.168a1.5,1.5,0,0,0,.938-.336V-4.4a.945.945,0,0,0,.546-.28L24.3-5.6l-.56.63H17.15L15.96-5.5V-.238h.168c.448,0,.924-.252.924-.364V-1.26h2.786v.644c0,1.26.308,1.484,1.722,1.484h3.43c1.372,0,1.778-.252,1.778-.7,0-.182-.056-.224-.49-.406Zm-4.7-4.578h3.332c.2,0,.322-.07.35-.224-.406-.364-1.05-.812-1.05-.812l-.546.63h-2.2Zm1.806-1.82h-1.9l.112.406H24.5c.2,0,.322-.07.35-.21-.378-.35-.966-.8-.966-.8Zm2.478-2.142-.63.658H20.958v-1.148h4.466c.2,0,.336-.07.378-.224-.5-.434-1.3-1.022-1.3-1.022l-.686.84H15.4l.112.406h4.326v1.148h-4.06a4.549,4.549,0,0,0-.182-.644l-.21.014a1.883,1.883,0,0,1-.84,1.778.651.651,0,0,0-.406.826c.14.378.672.406,1.036.168a1.873,1.873,0,0,0,.658-1.75h4V-5.46h.182c.574,0,.938-.21.938-.28V-8.974H25.27c-.112.476-.28,1.106-.42,1.5l.182.1a10.283,10.283,0,0,0,1.414-1.4c.252-.014.406-.042.5-.154Zm6.356-.378c.2,0,.322-.056.364-.21-.448-.42-1.162-1.008-1.162-1.008l-.644.826H28.126l.112.392Zm-.728,1.358h-4l.112.406h5.348c.2,0,.308-.07.35-.224-.448-.406-1.176-.98-1.176-.98ZM28.07-7.252l.112.42H32.1c.2,0,.336-.07.364-.224-.42-.406-1.092-.938-1.092-.938l-.6.742ZM32.1-5.04a.318.318,0,0,0,.35-.224c-.434-.42-1.12-.966-1.12-.966l-.6.77H28.07l.112.42ZM29.148-.364V-3.3h2.016v2.94ZM31.024-3.7H29.218l-1.092-.49V1.12h.14c.448,0,.882-.238.882-.35V.042h2.016V.854h.168a1.345,1.345,0,0,0,.882-.336v-3.64a1.1,1.1,0,0,0,.574-.28l-1.2-.91Zm7.252-.2V-.336H34.72V-3.892Zm.168-3.472H37.016v-2.758a16.982,16.982,0,0,0,1.918-.5c.364.112.616.112.742-.014L38.43-11.718a18.826,18.826,0,0,1-5.236,1.89l.042.224a21.339,21.339,0,0,0,2.688-.308v2.548H32.886l.112.42h2.926v2.632H34.79L33.656-4.8V1.12h.168c.462,0,.9-.252.9-.364V.07h3.556V.952h.182A1.567,1.567,0,0,0,39.382.6V-3.7a1.206,1.206,0,0,0,.588-.28l-1.246-.952-.588.616h-1.12V-6.944H40.04c.182,0,.322-.07.35-.224-.462-.476-1.26-1.12-1.26-1.12ZM41.1-8.736a2.921,2.921,0,0,0,0,.7A1.828,1.828,0,0,0,42.532-6.79a2.224,2.224,0,0,0,.9-.392,25.757,25.757,0,0,1,4.4-1.47c.154-.028.168.056.07.126a5.852,5.852,0,0,0-2.212,4.774,3.414,3.414,0,0,0,1.4,3.15A5.438,5.438,0,0,0,50.19.154c.644,0,1.106-.14,1.106-.56,0-.392-.5-.7-.882-.7a5.155,5.155,0,0,1-2.6-.434,2.53,2.53,0,0,1-1.19-2.478,4.879,4.879,0,0,1,1.918-4.3,4.448,4.448,0,0,1,2.324-.546c.49,0,.91.042,1.218.042.35,0,.546-.2.546-.434s-.168-.434-.49-.574a2.613,2.613,0,0,0-1.05-.182,20.486,20.486,0,0,0-3.234.616C45.5-8.848,42.994-8.12,42.224-8.12a1.269,1.269,0,0,1-.9-.7ZM51.072-7.7A6.989,6.989,0,0,1,52.36-6.538c.28.35.434.644.672.644s.364-.14.364-.392a1.089,1.089,0,0,0-.5-.868,5.291,5.291,0,0,0-1.666-.784Zm-1.26.924a6.366,6.366,0,0,1,1.274,1.288c.28.35.434.644.644.644a.383.383,0,0,0,.392-.42,1.1,1.1,0,0,0-.448-.812,5.474,5.474,0,0,0-1.68-.938ZM60.438-7.924a6.583,6.583,0,0,1-.532,2.268c-.546,1.218-1.82,3.346-2.7,3.346-.574,0-1.148-1.022-1.148-2.3A4.476,4.476,0,0,1,57.442-7.77a5.26,5.26,0,0,1,2.59-1.414A2.287,2.287,0,0,1,60.438-7.924ZM60.228.112c4.606-.266,6.188-2.618,6.188-5.026a4.885,4.885,0,0,0-5.222-4.9,6.1,6.1,0,0,0-4.13,1.5,5.439,5.439,0,0,0-1.932,3.99c0,1.764.994,3.318,1.988,3.318,1.512,0,3.122-2.674,3.71-4.382a7.078,7.078,0,0,0,.448-2.324,2.633,2.633,0,0,0-.7-1.568c.182-.014.35-.028.518-.028a3.943,3.943,0,0,1,4.1,4.116c0,2.52-1.568,4.326-5.026,5ZM72.044-1.162c0,.28-.1.378-.406.266-.392-.168-.994-.448-1.5-.7a21.381,21.381,0,0,1,1.9-1.61Zm.742-3.78c0-.6.014-1.232.056-1.848A16.367,16.367,0,0,0,74.9-7.56c.308-.154.476-.336.476-.574-.014-.42-.56-.462-.784-.448-.266,0-.7.42-1.68.8a8.647,8.647,0,0,1,.168-1.26c.1-.448.308-.672.308-1.008,0-.364-.952-.826-1.526-.826a2.031,2.031,0,0,0-1.078.322l.042.252a3.216,3.216,0,0,1,.91.112c.224.084.294.14.308.49s0,1.218,0,2.2a7.224,7.224,0,0,1-1.54.28c-.714.028-.952-.126-1.652-.8l-.224.168c.532,1.344,1.148,1.526,1.89,1.526a8.313,8.313,0,0,0,1.526-.238V-4c-.966.546-2.044,1.386-2.52,1.666a1.143,1.143,0,0,1-.826.182c-.336-.028-.42.084-.42.462a.924.924,0,0,0,.294.686.722.722,0,0,0,.49.266c.224,0,.392-.182.8-.574A12.417,12.417,0,0,1,71.3-.224c.448.42.462.882.826.882.476,0,.9-.714.9-1.358,0-.518-.168-1.022-.224-2.968a7.641,7.641,0,0,1,3.444-1.19c1.5,0,2.128.826,2.128,1.848a1.924,1.924,0,0,1-2.1,1.974,3.23,3.23,0,0,1-2.184-.84l-.224.21a3.126,3.126,0,0,0,2.66,1.554,2.69,2.69,0,0,0,2.912-2.646A2.606,2.606,0,0,0,76.566-5.4,8.445,8.445,0,0,0,72.786-4.4Zm3.528-3.794a2.811,2.811,0,0,1,2.548.84.353.353,0,0,1-.028.532,10.8,10.8,0,0,1-1.106.77l.154.224a5.861,5.861,0,0,1,1.106-.392c.434-.07.616.336.938.28.336-.028.476-.308.462-.63a2.559,2.559,0,0,0-2.2-2.072,4.41,4.41,0,0,0-1.9.126Zm9.422-1.722v1.344H82.992v-1.344ZM82.992-7.322V-8.708h2.744v1.386Zm2.744.406v.784H85.9a1.541,1.541,0,0,0,.9-.308V-10.3a1.05,1.05,0,0,0,.518-.238l-1.162-.91-.546.6H83.048L81.914-11.4V1.12h.2c.5,0,.882-.28.882-.42V-6.916Zm.238,4.942v-2.59H89.11v2.59ZM89.53-5.558l-.546.6H86.03l-1.12-.49V-.5h.154a1.27,1.27,0,0,0,.91-.336v-.714H89.11v.826h.182a1.374,1.374,0,0,0,.882-.35V-4.41a.942.942,0,0,0,.532-.252Zm-.14-1.764V-8.708h2.856v1.386Zm2.856-3.136v1.344H89.39v-1.344Zm.392-1.064-.532.672H89.46l-1.12-.49v5.11h.14c.448,0,.91-.224.91-.336v-.35h2.856V-.462c0,.224-.07.322-.336.322s-1.61-.1-1.61-.1v.21A2.164,2.164,0,0,1,91.434.35a.967.967,0,0,1,.308.7c1.414-.126,1.6-.588,1.6-1.4v-9.912a1.045,1.045,0,0,0,.588-.266Zm3.584,6.776a4.492,4.492,0,0,0,2.59,4.27c.658.266,1.12.014,1.12-.434,0-.35-.224-.392-.126-1.078a23.49,23.49,0,0,1,.8-2.59l-.35-.154A21.091,21.091,0,0,1,98.9-2.2a.359.359,0,0,1-.5.112,2.951,2.951,0,0,1-1.316-2.758,18.785,18.785,0,0,1,.56-3.024c0-.6-.77-1.274-1.33-1.526A3.908,3.908,0,0,0,95.3-9.6l-.112.2c.924.686,1.092,1.092,1.092,1.862C96.278-6.818,96.18-5.782,96.222-4.746ZM105-6.062a8.93,8.93,0,0,1,.714,2.73.55.55,0,0,0,.532.5c.448,0,.672-.308.672-.952A4.728,4.728,0,0,0,105.7-6.9a4.467,4.467,0,0,0-2.786-1.372l-.1.308A4.026,4.026,0,0,1,105-6.062Zm6.622,5.7v-3.3h5.838v3.3Zm5.684-3.71h-5.6L110.46-4.62V1.106h.182c.476,0,.98-.266.98-.364v-.7h5.838V.994h.182a1.822,1.822,0,0,0,.98-.322v-4.13a1.148,1.148,0,0,0,.6-.28l-1.3-1.008Zm-1.47-2.562H111.23l.112.392h6.2c.2,0,.336-.056.378-.21-.518-.476-1.344-1.12-1.344-1.12Zm-2-5.208c-.714,2-3.472,4.83-5.852,6.188l.1.2a16.439,16.439,0,0,0,6.776-5.488,11.3,11.3,0,0,0,5.264,4.97,1.348,1.348,0,0,1,.966-.966l.014-.2a12.8,12.8,0,0,1-5.992-3.99c.364-.028.546-.1.588-.266ZM125.2-1.47c-.182-.224-.644-.728-1.022-1.19.434-.616.868-1.26,1.26-1.848-.042,1.162-.014,2.31-.014,2.926C125.412-1.344,125.328-1.33,125.2-1.47Zm1.05-4.816A8.938,8.938,0,0,1,126.84-7c.2-.21.336-.35.336-.518s-.308-.476-.56-.6l-.028-.014c.084-.42.182-.756.238-.952a6.244,6.244,0,0,0,.308-.98c0-.448-.756-1.106-1.414-1.106a2.781,2.781,0,0,0-.924.182v.28a4.1,4.1,0,0,1,.8.224.432.432,0,0,1,.336.49c0,.406-.1,1.162-.21,2.086a10.873,10.873,0,0,1-2.352.924c-.266,0-.462-.224-.686-.616l-.238.084a2.508,2.508,0,0,0,.056.63,1.649,1.649,0,0,0,1.232,1.064c.252,0,.378-.294.672-.49s.77-.448,1.218-.686c-.042.322-.07.658-.1.994a35.468,35.468,0,0,1-3.01,3.892,1.039,1.039,0,0,0-.336.8c0,.336.21.574.448.56s.392-.224.588-.5q.357-.5.756-1.092a10.363,10.363,0,0,1,.924,1.582A4.713,4.713,0,0,1,125.16.2c.056.336.21.518.546.518.42,0,.672-.686.672-1.26,0-.336-.042-.6-.07-1.022a27.216,27.216,0,0,1-.14-3.85,6.527,6.527,0,0,1,3.948-1.638,2.377,2.377,0,0,1,2.52,2.408c0,1.568-.728,3.374-4.256,4.718l.14.308c3.892-.868,5.334-2.66,5.334-4.7a3.362,3.362,0,0,0-3.542-3.234A7.739,7.739,0,0,0,126.238-6.2Zm16.072-3.962a5.911,5.911,0,0,1,.826.112.432.432,0,0,1,.378.42c.042.574.028,1.652.028,2.464-1.2.266-2.856.658-3.836.9.028-.588.056-1.092.084-1.386.056-.56.294-.63.294-.9,0-.392-.924-.938-1.554-.938a2.879,2.879,0,0,0-1.008.238l.014.28a2.885,2.885,0,0,1,.812.154c.224.1.294.182.336.588.042.434.042,1.274.042,2.212a26.394,26.394,0,0,1-2.66.588c-.336,0-.686-.364-.924-.728l-.21.084a1.928,1.928,0,0,0,.084.784c.224.532.77,1.036,1.176,1.036a20.427,20.427,0,0,0,2.534-.91c.014,1.3,0,2.618.042,3.4.07,1.652,1.232,2.086,3.346,2.086A16.034,16.034,0,0,0,145.306,0c.476-.112.658-.266.658-.56,0-.406-.448-.6-.952-.6a21.666,21.666,0,0,1-3.276.378c-1.778,0-2.058-.21-2.1-1.61-.028-.616,0-1.946.056-3.15,1.008-.294,2.52-.644,3.836-.882a14.737,14.737,0,0,1-.2,2.114.425.425,0,0,1-.49.364,8.8,8.8,0,0,1-1.582-.35l-.1.28c.56.266,1.19.532,1.4.98.14.294.28.364.518.364.574,0,.938-.434,1.078-1.092a17.926,17.926,0,0,0,.28-2.8c.21-.028.392-.056.574-.07a14.145,14.145,0,0,1,2.128.028c.42,0,.658-.1.658-.434,0-.5-.6-.756-1.218-.756a15.433,15.433,0,0,0-2.1.35c.028-.588.056-1.092.084-1.5.028-.5.294-.616.294-.854,0-.42-.868-1.008-1.6-1.008a2.531,2.531,0,0,0-.966.294Zm9.772,5.1c-.336.714-1.092,2.478-1.4,2.954-.126.2-.252.182-.336,0a2.739,2.739,0,0,1-.224-1.288,9.426,9.426,0,0,1,.952-3.71c.336-.784.546-1.05.546-1.372a2.54,2.54,0,0,0-1.008-1.624,2.454,2.454,0,0,0-.826-.434l-.21.168a2.53,2.53,0,0,1,.8,1.568,7.609,7.609,0,0,1-.35,1.694,14.4,14.4,0,0,0-.658,3.878,6.287,6.287,0,0,0,.826,3.332c.224.336.462.574.742.574a.468.468,0,0,0,.49-.532c0-.378-.21-.826-.21-1.274a4.4,4.4,0,0,1,.2-.994c.182-.5.742-2.044,1.008-2.786Zm5.194,2.87c0,1.078-.28,1.624-1.778,1.624-.784,0-1.414-.252-1.414-.854,0-.644.9-.994,1.736-.994a5.858,5.858,0,0,1,1.456.168ZM158-6.832a14.554,14.554,0,0,0,1.848-.476c.5-.2.714-.308.714-.63s-.49-.5-.826-.5c-.126,0-.364.168-1.078.42-.168.07-.378.14-.63.224a9.043,9.043,0,0,1,.126-1.106,8.886,8.886,0,0,0,.224-.98c0-.336-.77-.756-1.47-.756a2.853,2.853,0,0,0-1.092.35l.028.266a4.893,4.893,0,0,1,.994.168c.21.07.28.14.28.532v1.736a8.164,8.164,0,0,1-1.61.154,3.205,3.205,0,0,1-1.932-.7l-.2.182a2.249,2.249,0,0,0,2.226,1.386,11.153,11.153,0,0,0,1.512-.112c.014,1.134.1,2.534.14,3.514a6.228,6.228,0,0,0-.91-.056c-1.54,0-2.828.56-2.828,1.792,0,1.078,1.036,1.68,2.282,1.68,1.764,0,2.478-.742,2.478-1.89a2.586,2.586,0,0,0-.014-.322A6.116,6.116,0,0,1,159.8-.84c.322.294.5.476.742.476.28,0,.434-.2.434-.532a1.149,1.149,0,0,0-.448-.812A5.337,5.337,0,0,0,158.2-2.982c-.084-1.008-.2-2.31-.2-3.71Z" transform="translate(0.313 18.042)" fill="#333"/>
    <g id="freecall" transform="translate(1.391 31.042)">
      <rect id="長方形_1" data-name="長方形 1" width="40.904" height="24.808" fill="#1b2c7b"/>
      <g id="グループ_9" data-name="グループ 9" transform="translate(9.229 0.665)">
        <path id="パス_20" data-name="パス 20" d="M24.166,5.552V.9H18.185A5.515,5.515,0,0,0,12.5,6.585V24.158h5.095v-9.3H30.958V10.2H17.595V7.176a1.8,1.8,0,0,1,1.92-1.624Z" transform="translate(-12.5 -0.9)" fill="#fff"/>
      </g>
      <g id="グループ_10" data-name="グループ 10" transform="translate(23.332 0.665)">
        <path id="パス_21" data-name="パス 21" d="M35.956,9.169V6.807a1.261,1.261,0,0,1,1.329-1.255H39.8V.9h-2.51A5.515,5.515,0,0,0,31.6,6.585V9.169Z" transform="translate(-31.6 -0.9)" fill="#fff"/>
      </g>
      <g id="グループ_11" data-name="グループ 11" transform="translate(23.332 15.727)">
        <path id="パス_22" data-name="パス 22" d="M35.956,21.3v2.437a1.261,1.261,0,0,0,1.329,1.255H39.8v4.652h-2.51A5.515,5.515,0,0,1,31.6,23.958V21.374Z" transform="translate(-31.6 -21.3)" fill="#fff"/>
      </g>
      <g id="グループ_12" data-name="グループ 12" transform="translate(0.591 26.137)">
        <path id="パス_23" data-name="パス 23" d="M6.338,35.7A6.059,6.059,0,0,1,5.23,39.392a5.6,5.6,0,0,1-3.47,1.92l-.517-1.034c3.1-.517,3.544-2.067,3.839-3.47H.8V35.7H6.338Z" transform="translate(-0.8 -35.479)" fill="#1b2c7b"/>
        <path id="パス_24" data-name="パス 24" d="M11.081,39.166H9.9V35.4h1.181ZM14.4,38.132c0,2.658-2.067,2.953-3.692,3.175l-.443-1.034a8.07,8.07,0,0,0,2.363-.517,1.526,1.526,0,0,0,.591-1.329V35.4H14.4Z" transform="translate(-3.181 -35.4)" fill="#1b2c7b"/>
        <path id="パス_25" data-name="パス 25" d="M23.654,38.4v1.181H17.6V38.4Z" transform="translate(-5.196 -36.185)" fill="#1b2c7b"/>
        <path id="パス_26" data-name="パス 26" d="M32.342,35.774v5.095H27.1V39.761h4.061V36.808H27.174V35.7h5.168Z" transform="translate(-7.682 -35.479)" fill="#1b2c7b"/>
        <path id="パス_27" data-name="パス 27" d="M42.028,38.4v1.181H35.9V38.4Z" transform="translate(-9.984 -36.185)" fill="#1b2c7b"/>
        <path id="パス_28" data-name="パス 28" d="M47.141,37.1a12.02,12.02,0,0,1-.222,2.289,3.487,3.487,0,0,1-1.034,1.994L45,40.495a2.656,2.656,0,0,0,.812-1.551,8.359,8.359,0,0,0,.148-1.7V35.474h1.108V37.1Zm1.92,2.732a1.7,1.7,0,0,0,1.034-.886,3.912,3.912,0,0,0,.443-1.477l1.034.517a4.249,4.249,0,0,1-1.181,2.363,4.1,4.1,0,0,1-2.437.96V35.4h1.108Z" transform="translate(-12.365 -35.4)" fill="#1b2c7b"/>
      </g>
    </g>
  </g>
</svg>
