<svg xmlns="http://www.w3.org/2000/svg" width="299.534" height="81.9" viewBox="0 0 299.534 81.9">
  <g id="menu_tel" transform="translate(-1.386 -4.2)">
    <path id="パス_97" data-name="パス 97" d="M1.442-10.563A5.609,5.609,0,0,1,3.2-8.57c1.135.6,1.7-1.712-1.637-2.12ZM4.967-7.9c-1.8.463-3.577.87-4.343,1.011l.634,1.348a.512.512,0,0,0,.29-.351C3.119-6.647,4.241-7.264,5.006-7.7ZM4-1V-2.211H9.455V-1ZM9.455-5.355v1.179H4V-5.355Zm0,2.737H4V-3.783H9.455ZM9.626-.049a1.4,1.4,0,0,0,.884-.337v-4.8a.869.869,0,0,0,.5-.253L9.864-6.366l-.528.618H4.082L2.96-6.268V.175h.158C3.554.175,4-.063,4-.176V-.6H9.455v.547ZM.994,1.986A15.381,15.381,0,0,0,5.8.695c.33.112.568.084.673-.056L5.218-.3A13.618,13.618,0,0,1,.928,1.775ZM7.29.2a10.265,10.265,0,0,1,3.551,1.586C11.976,2.618,13.824.316,7.33.007Zm3.5-9.362a10.333,10.333,0,0,1-.673,1.249l.172.112a9.868,9.868,0,0,0,1.637-1.179.8.8,0,0,0,.515-.14l-1.056-1.067-.568.618H6.524a7.811,7.811,0,0,0,.594-.8c.317.028.409-.028.462-.182l-1.544-.407a6.173,6.173,0,0,1-1.861,2.92l.132.154A6.173,6.173,0,0,0,6.155-9.159H7.422c-.33,1.5-1.294,2.344-3.274,2.934l.066.211c2.27-.393,3.67-1.151,4.211-2.835a4.136,4.136,0,0,0,3.432,3.285.844.844,0,0,1,.832-.842L12.7-6.59c-2.64-.449-3.683-1.333-4.079-2.569Zm9.517-.351a4.907,4.907,0,0,1,1.518,2.162c1.03.7,1.729-1.53-1.4-2.26ZM20-6.2a4.885,4.885,0,0,1,1.663,2.091c1.056.66,1.676-1.642-1.544-2.218ZM18.087-6.52a18.722,18.722,0,0,0,1.452-2.5.468.468,0,0,0,.488-.281l-1.412-.463c-.224,1.067-.515,2.344-.739,3.144ZM14.1-9.636a7.518,7.518,0,0,1,.726,2.765c.832.884,1.848-1.137-.568-2.849Zm3.353,4.464h2.218c.185,0,.33-.07.356-.225-.436-.421-1.148-1.011-1.148-1.011l-.62.842h-.805v-4.772c.343-.056.436-.2.475-.393L16.464-10.9v5.334H13.93l.106.393h2.006A13.511,13.511,0,0,1,13.9-.316l.172.182A10.329,10.329,0,0,0,16.464-3.25V2h.2c.356,0,.792-.253.792-.407V-4.036a4.9,4.9,0,0,1,1.426,2.162c1.016.73,1.756-1.544-1.426-2.4ZM24.7-2.66,24.45-2.6v-7.734c.33-.056.422-.2.462-.393l-1.5-.168v8.534l-3.894.884.185.351,3.709-.828V2h.2c.4,0,.845-.267.845-.421V-2.2l1.69-.379c.158-.042.277-.14.277-.295-.462-.365-1.2-.884-1.2-.884Zm6.9-6.892c.185,0,.317-.056.356-.211-.409-.421-1.1-1-1.1-1l-.607.814h-2.31l.106.393Zm-.673,1.362H27.354l.106.407h4.831c.172,0,.317-.07.343-.225-.422-.407-1.1-.983-1.1-.983Zm-2.97,1.8.106.421h3.617a.307.307,0,0,0,.343-.225c-.4-.407-1.016-.94-1.016-.94l-.568.744Zm3.722,2.218a.307.307,0,0,0,.343-.225c-.4-.393-1.016-.94-1.016-.94l-.568.758H27.961l.106.407ZM28.951.3V-2.351h1.808V.3Zm1.69-3.046H29l-1.016-.477V2h.145c.409,0,.818-.239.818-.337V.709h1.808v.772h.158c.33,0,.805-.239.805-.337V-2.169a1.01,1.01,0,0,0,.554-.281l-1.122-.9Zm3.617,1.418V-2.7h3.3v1.376Zm3.3-3.116v1.333h-3.3V-4.443Zm-.132-.407h-3.1l-1.082-.505V1.986h.172c.436,0,.845-.267.845-.379V-.934h3.3V.414c0,.182-.053.267-.251.267C37.069.681,36.066.6,36.066.6V.807a1.644,1.644,0,0,1,.9.393A1.609,1.609,0,0,1,37.2,2c1.241-.126,1.386-.6,1.386-1.446V-4.26a1.12,1.12,0,0,0,.541-.267l-1.2-.94Zm.488-1.488H36.343V-7.545h2.4c.185,0,.317-.07.343-.225-.422-.435-1.1-.983-1.1-.983l-.594.786H36.343V-9.1h2.746c.185,0,.3-.07.33-.225C39-9.749,38.27-10.366,38.27-10.366l-.62.842H36.343v-.786c.343-.056.449-.2.475-.393l-1.5-.154v1.333H32.607l.106.421h2.6v1.137H32.99l.106.421h2.218v1.207H32.277l.106.407h7c.172,0,.3-.07.33-.225-.436-.435-1.162-1.039-1.162-1.039Zm10.441-3.986a4.438,4.438,0,0,1,1.5,1.895c1.056.618,1.663-1.642-1.386-2.007Zm2.323,3.411a20.872,20.872,0,0,1-1.954,3.06A9.056,9.056,0,0,1,47.5-6.731v-.828h5.042c.2,0,.33-.07.356-.225-.488-.491-1.28-1.123-1.28-1.123l-.7.94H47.5v-2.372c.33-.056.436-.182.475-.379L46.428-10.9v2.934h-5.28l.106.407h5.174v3.888c-2.138,1.263-4.237,2.428-5.108,2.835L42.3.414a.53.53,0,0,0,.224-.421c1.69-1.333,2.97-2.456,3.907-3.285V.316c0,.225-.079.309-.33.309C45.781.624,44.25.5,44.25.5V.723a2.57,2.57,0,0,1,1.267.435,1.264,1.264,0,0,1,.33.828C47.325,1.832,47.5,1.3,47.5.414v-6.3a9.834,9.834,0,0,0,4.409,6.6,1.274,1.274,0,0,1,.937-1.025l.04-.154A9.3,9.3,0,0,1,48.9-3.587a18.891,18.891,0,0,0,2.68-2.288c.3.07.422,0,.5-.14Zm-8.1.281a6.761,6.761,0,0,1,1.571,2.765c1.122.9,1.993-1.642-1.439-2.863ZM61.74-4.457a1.339,1.339,0,0,0-1.294-1.376,1.339,1.339,0,0,0-1.294,1.376,1.339,1.339,0,0,0,1.294,1.376A1.339,1.339,0,0,0,61.74-4.457ZM71.877-.288c0,.281-.092.379-.383.267-.37-.168-.937-.449-1.412-.7a20.53,20.53,0,0,1,1.8-1.614Zm.7-3.79c0-.6.013-1.235.053-1.853A14.867,14.867,0,0,0,74.57-6.7c.29-.154.449-.337.449-.576-.013-.421-.528-.463-.739-.449-.251,0-.66.421-1.584.8a9.189,9.189,0,0,1,.158-1.263c.092-.449.29-.674.29-1.011,0-.365-.9-.828-1.439-.828a1.834,1.834,0,0,0-1.016.323l.04.253a2.863,2.863,0,0,1,.858.112c.211.084.277.14.29.491s0,1.221,0,2.2a6.446,6.446,0,0,1-1.452.281c-.673.028-.9-.126-1.558-.8L68.656-7c.5,1.348,1.082,1.53,1.782,1.53a7.406,7.406,0,0,0,1.439-.239v2.569c-.911.547-1.927,1.39-2.376,1.67a1.028,1.028,0,0,1-.779.182c-.317-.028-.4.084-.4.463a.956.956,0,0,0,.277.688.67.67,0,0,0,.462.267c.211,0,.37-.182.752-.576A11.81,11.81,0,0,1,71.178.652c.422.421.436.884.779.884.449,0,.845-.716.845-1.362,0-.519-.158-1.025-.211-2.976a6.925,6.925,0,0,1,3.247-1.193,1.766,1.766,0,0,1,2.006,1.853,1.869,1.869,0,0,1-1.98,1.979A2.949,2.949,0,0,1,73.8-1l-.211.211A2.919,2.919,0,0,0,76.1.765a2.608,2.608,0,0,0,2.746-2.653,2.526,2.526,0,0,0-2.706-2.653A7.6,7.6,0,0,0,72.577-3.53Zm3.326-3.8a2.558,2.558,0,0,1,2.4.842.368.368,0,0,1-.026.533,10.2,10.2,0,0,1-1.043.772l.145.225A5.311,5.311,0,0,1,78.424-5.9c.409-.07.581.337.884.281.317-.028.449-.309.436-.632a2.487,2.487,0,0,0-2.072-2.077,3.919,3.919,0,0,0-1.8.126Zm9.676-1.727v1.348H82.991V-9.608ZM82.991-6.464v-1.39h2.587v1.39Zm2.587.407v.786h.158a1.4,1.4,0,0,0,.845-.309V-9.454a.966.966,0,0,0,.488-.239l-1.1-.912-.515.6H83.044l-1.069-.547V2h.185c.475,0,.832-.281.832-.421V-6.057ZM85.8-1.1V-3.7H88.76v2.6ZM89.156-4.7l-.515.6H85.856L84.8-4.583V.372h.145A1.163,1.163,0,0,0,85.8.035V-.681H88.76V.147h.172A1.258,1.258,0,0,0,89.763-.2V-3.545a.869.869,0,0,0,.5-.253Zm-.132-1.769v-1.39h2.693v1.39Zm2.693-3.144v1.348H89.024V-9.608Zm.37-1.067-.5.674H89.09l-1.056-.491v5.123h.132c.422,0,.858-.225.858-.337v-.351h2.693V.414c0,.225-.066.323-.317.323s-1.518-.1-1.518-.1V.849a1.965,1.965,0,0,1,1.069.379,1,1,0,0,1,.29.7c1.333-.126,1.5-.59,1.5-1.4V-9.412a.962.962,0,0,0,.554-.267Zm4.171,6.794A4.522,4.522,0,0,0,98.7.4c.62.267,1.056.014,1.056-.435,0-.351-.211-.393-.119-1.081a24.675,24.675,0,0,1,.752-2.6l-.33-.154a21.615,21.615,0,0,1-1.28,2.541.327.327,0,0,1-.475.112A3.013,3.013,0,0,1,97.063-3.98a19.9,19.9,0,0,1,.528-3.032c0-.6-.726-1.277-1.254-1.53a3.5,3.5,0,0,0-.95-.211l-.106.2a2.012,2.012,0,0,1,1.03,1.867C96.31-5.959,96.218-4.92,96.257-3.881ZM104.534-5.2a9.416,9.416,0,0,1,.673,2.737c.066.337.264.505.5.505.422,0,.634-.309.634-.954a4.914,4.914,0,0,0-1.148-3.13,4.129,4.129,0,0,0-2.627-1.376l-.092.309A3.879,3.879,0,0,1,104.534-5.2ZM111.569.512V-2.8h5.5V.512Zm5.359-3.72h-5.28l-1.175-.547V1.986h.172c.449,0,.924-.267.924-.365v-.7h5.5v.954h.172a1.654,1.654,0,0,0,.924-.323V-2.59a1.058,1.058,0,0,0,.568-.281l-1.228-1.011Zm-1.386-2.569H111.2l.106.393h5.848c.185,0,.317-.056.356-.211-.488-.477-1.267-1.123-1.267-1.123ZM113.655-11c-.673,2.007-3.274,4.843-5.518,6.2l.092.2a15.74,15.74,0,0,0,6.389-5.5,10.968,10.968,0,0,0,4.963,4.983,1.315,1.315,0,0,1,.911-.969l.013-.2a12.06,12.06,0,0,1-5.65-4c.343-.028.515-.1.554-.267ZM125.165-.6c-.172-.225-.607-.73-.964-1.193.409-.618.818-1.263,1.188-1.853-.04,1.165-.013,2.316-.013,2.934C125.363-.47,125.284-.456,125.165-.6Zm.99-4.829a8.866,8.866,0,0,1,.554-.716c.185-.211.317-.351.317-.519s-.29-.477-.528-.6l-.026-.014c.079-.421.172-.758.224-.954a6.557,6.557,0,0,0,.29-.983,1.483,1.483,0,0,0-1.333-1.109,2.487,2.487,0,0,0-.871.182v.281a3.686,3.686,0,0,1,.752.225.432.432,0,0,1,.317.491c0,.407-.092,1.165-.2,2.091a9.891,9.891,0,0,1-2.218.926c-.251,0-.436-.225-.647-.618l-.224.084a2.669,2.669,0,0,0,.053.632,1.586,1.586,0,0,0,1.162,1.067c.238,0,.356-.295.634-.491s.726-.449,1.148-.688c-.04.323-.066.66-.092,1a35.364,35.364,0,0,1-2.838,3.9,1.076,1.076,0,0,0-.317.8c0,.337.2.576.422.561s.37-.225.554-.505q.337-.505.713-1.095a10.569,10.569,0,0,1,.871,1.586,4.963,4.963,0,0,1,.251.969c.053.337.2.519.515.519.4,0,.634-.688.634-1.263,0-.337-.04-.6-.066-1.025a29.005,29.005,0,0,1-.132-3.86A5.969,5.969,0,0,1,129.8-6.2a2.311,2.311,0,0,1,2.376,2.414c0,1.572-.686,3.383-4.013,4.73l.132.309c3.67-.87,5.029-2.667,5.029-4.716a3.254,3.254,0,0,0-3.34-3.242,7.01,7.01,0,0,0-3.841,1.362ZM142.1-9.4a5.261,5.261,0,0,1,.779.112.425.425,0,0,1,.356.421c.04.576.026,1.656.026,2.47-1.135.267-2.693.66-3.617.9.026-.59.053-1.095.079-1.39.053-.561.277-.632.277-.9,0-.393-.871-.94-1.465-.94a2.582,2.582,0,0,0-.95.239l.013.281a2.578,2.578,0,0,1,.766.154c.211.1.277.182.317.59.04.435.04,1.277.04,2.218a23.612,23.612,0,0,1-2.508.59c-.317,0-.647-.365-.871-.73l-.2.084a2.049,2.049,0,0,0,.079.786c.211.533.726,1.039,1.109,1.039a18.5,18.5,0,0,0,2.389-.912c.013,1.305,0,2.625.04,3.411.066,1.656,1.162,2.091,3.155,2.091a14.24,14.24,0,0,0,3-.239c.449-.112.62-.267.62-.561,0-.407-.422-.6-.9-.6a19.27,19.27,0,0,1-3.089.379c-1.676,0-1.94-.211-1.98-1.614-.026-.618,0-1.951.053-3.158.95-.295,2.376-.646,3.617-.884a15.688,15.688,0,0,1-.185,2.12c-.092.323-.238.365-.462.365a7.876,7.876,0,0,1-1.492-.351l-.092.281c.528.267,1.122.533,1.32.983.132.295.264.365.488.365.541,0,.884-.435,1.016-1.095a19.077,19.077,0,0,0,.264-2.807c.2-.028.37-.056.541-.07a12.545,12.545,0,0,1,2.006.028c.4,0,.62-.1.62-.435,0-.505-.568-.758-1.148-.758a13.752,13.752,0,0,0-1.98.351c.026-.59.053-1.095.079-1.5.026-.505.277-.618.277-.856,0-.421-.818-1.011-1.5-1.011a2.283,2.283,0,0,0-.911.295Zm10.006,5.109c-.317.716-1.03,2.484-1.32,2.962-.119.2-.238.182-.317,0a2.9,2.9,0,0,1-.211-1.291,9.925,9.925,0,0,1,.9-3.72,4.968,4.968,0,0,0,.515-1.376,2.57,2.57,0,0,0-.95-1.628,2.271,2.271,0,0,0-.779-.435l-.2.168a2.6,2.6,0,0,1,.752,1.572,8.054,8.054,0,0,1-.33,1.7,15.266,15.266,0,0,0-.62,3.888,6.615,6.615,0,0,0,.779,3.341c.211.337.436.576.7.576.3,0,.462-.211.462-.533,0-.379-.2-.828-.2-1.277a4.662,4.662,0,0,1,.185-1c.172-.505.7-2.049.95-2.793ZM157-1.411c0,1.081-.264,1.628-1.676,1.628-.739,0-1.333-.253-1.333-.856,0-.646.845-1,1.637-1A5.21,5.21,0,0,1,157-1.467Zm.673-4.562a13.07,13.07,0,0,0,1.742-.477c.475-.2.673-.309.673-.632s-.462-.505-.779-.505c-.119,0-.343.168-1.016.421-.158.07-.356.14-.594.225a9.626,9.626,0,0,1,.119-1.109,9.4,9.4,0,0,0,.211-.983c0-.337-.726-.758-1.386-.758a2.578,2.578,0,0,0-1.03.351l.026.267a4.364,4.364,0,0,1,.937.168c.2.07.264.14.264.533v1.741a7.254,7.254,0,0,1-1.518.154,2.914,2.914,0,0,1-1.822-.7l-.185.182c.7,1.221,1.28,1.39,2.1,1.39a9.9,9.9,0,0,0,1.426-.112c.013,1.137.092,2.541.132,3.523a5.527,5.527,0,0,0-.858-.056c-1.452,0-2.666.561-2.666,1.8,0,1.081.977,1.684,2.152,1.684,1.663,0,2.336-.744,2.336-1.895a2.758,2.758,0,0,0-.013-.323A5.8,5.8,0,0,1,159.366.035c.3.295.475.477.7.477.264,0,.409-.2.409-.533a1.174,1.174,0,0,0-.422-.814,4.963,4.963,0,0,0-2.191-1.277c-.079-1.011-.185-2.316-.185-3.72Z" transform="translate(1.276 15.198)" fill="#333"/>
    <g id="フリーダイヤル" transform="translate(1479 632.346)">
      <path id="パス_6" d="M-1453.1-585.3c0,3.3,1.9,4,4,4s5-.7,5-4c0-2.5-2.9-4.8-5-6C-1451.2-590.1-1453.1-587.9-1453.1-585.3Z" fill="#333"/>
      <path id="パス_7" d="M-1472.1-585.3a5.081,5.081,0,0,0,5,5c2.1,0,4-1.7,4-5,0-2.5-1.9-4.8-4-6C-1469.2-590.1-1472.1-587.9-1472.1-585.3Z" fill="#333"/>
      <path id="パス_8" d="M-1477.1-600.3v25h38v-25Zm38,6c-2.3,0-4.8,1.1-7,2a8.554,8.554,0,0,1,4,7,6.957,6.957,0,0,1-7,7,6.957,6.957,0,0,1-7-7c0-3,2.7-5.4,5-7-2.2-.9-4.7-2-7-2s-4.8,1.1-7,2a8.554,8.554,0,0,1,4,7c0,4-2.3,7-6,7a7.086,7.086,0,0,1-7-7,8.554,8.554,0,0,1,4-7c-2.2-.9-4.7-2-7-2v-2a22.949,22.949,0,0,1,10,2,21.012,21.012,0,0,1,18,0,22.949,22.949,0,0,1,10-2Z" fill="#333"/>
    </g>
    <path id="パス_98" data-name="パス 98" d="M5.72-14.12c0-10.32,2.52-13.04,5.32-13.04,2.68,0,5.2,2.76,5.2,13.04s-2.52,13-5.2,13C8.24-1.12,5.72-3.84,5.72-14.12Zm5.32-14.76c-4.72,0-9.2,4-9.2,14.76C1.84-3.32,6.32.56,11.04.56c4.6,0,9.12-3.88,9.12-14.68C20.16-24.88,15.64-28.88,11.04-28.88Zm25,26.64c-.04-2.32-.08-4.68-.08-7V-21.96l.16-6.28-.6-.44-9,2.32v1.52l5.84-.56V-9.24c0,2.32-.04,4.68-.08,7l-6.24.88V0H42.2V-1.36ZM50.56-3.4c2-1.88,3.88-3.68,5.12-4.88,6.72-6.36,8.76-9.36,8.76-13.12,0-4.4-2.52-7.48-8.16-7.48-4.36,0-8.2,2.16-8.8,6.64a2.331,2.331,0,0,0,2.12,1.32c1.12,0,1.88-.76,2.4-2.76l.88-3.2a11.01,11.01,0,0,1,2.36-.28c3.28,0,5.36,2.36,5.36,5.96,0,3.52-1.84,6.92-6.28,11.56-1.92,2-4.24,4.52-6.64,6.92V0h18V-3.4ZM74-14.12c0-10.32,2.52-13.04,5.32-13.04,2.68,0,5.2,2.76,5.2,13.04s-2.52,13-5.2,13C76.52-1.12,74-3.84,74-14.12Zm5.32-14.76c-4.72,0-9.2,4-9.2,14.76C70.12-3.32,74.6.56,79.32.56c4.6,0,9.12-3.88,9.12-14.68C88.44-24.88,83.92-28.88,79.32-28.88ZM92.8-9.72H103v-2.56H92.8Zm23.84-3.8c-3.36,0-5.96-2.12-5.96-6.76,0-4.56,2.44-6.88,5.36-6.88,3.24,0,5.48,3.12,5.48,10.24,0,.52,0,1.08-.04,1.56A6.729,6.729,0,0,1,116.64-13.52ZM109.36.84c11.16-2.64,16-9.92,16-18.28,0-7.04-3.48-11.44-9.16-11.44-5.4,0-9.28,3.56-9.28,9.04a8.178,8.178,0,0,0,8.48,8.6,8.025,8.025,0,0,0,5.88-2.24c-.88,6.2-4.48,10.32-12.24,12.96ZM139.4-1.08a5.386,5.386,0,0,1-5.64-5.76c0-2.96,1.4-4.56,4.24-6.36,5.08,2.44,6.72,4.16,6.72,6.76A5.092,5.092,0,0,1,139.4-1.08Zm-4.88-21.48a4.571,4.571,0,0,1,4.8-4.6c2.84,0,4.48,2.28,4.48,5.12,0,2.48-.96,4.24-3.48,6.2C135.72-18.04,134.52-20.2,134.52-22.56Zm7.12,7.36c4.04-2.24,5.28-4.8,5.28-6.96,0-3.92-2.88-6.72-7.52-6.72-4.56,0-8.2,2.76-8.2,7.28,0,3.04,1.64,5.68,5.44,7.72-4.12,2-6.36,4.24-6.36,7.48,0,4.52,3.64,6.96,9,6.96,5.16,0,8.96-3,8.96-7.44C148.24-10.72,146.12-13,141.64-15.2Zm20.52,1.68c-3.36,0-5.96-2.12-5.96-6.76,0-4.56,2.44-6.88,5.36-6.88,3.24,0,5.48,3.12,5.48,10.24,0,.52,0,1.08-.04,1.56A6.729,6.729,0,0,1,162.16-13.52ZM154.88.84c11.16-2.64,16-9.92,16-18.28,0-7.04-3.48-11.44-9.16-11.44-5.4,0-9.28,3.56-9.28,9.04a8.178,8.178,0,0,0,8.48,8.6,8.025,8.025,0,0,0,5.88-2.24c-.88,6.2-4.48,10.32-12.24,12.96ZM175.6-9.72h10.2v-2.56H175.6ZM195-24.88h12.64v-3.4H193.32l-.92,13.2,1.12.32a15.448,15.448,0,0,1,4.24-.56c4.24,0,6.84,2.4,6.84,6.96,0,4.4-2.36,7.24-6.72,7.24a8.889,8.889,0,0,1-2.68-.4l-.72-2.64c-.52-2.12-1.08-2.76-2.36-2.76a2.114,2.114,0,0,0-2.08,1.4c.88,4.04,3.72,6.08,8.16,6.08,6.2,0,10.24-3.76,10.24-9.36,0-5.68-3.88-8.84-9.56-8.84a14.718,14.718,0,0,0-4.44.64Zm19.52,13.76L224.2-24.6v13.48Zm17.84,0h-4.64V-28.64h-2.44L212.32-10.68v2.12H224.2V0h3.52V-8.56h4.64Zm8.16-13.76h12.64v-3.4H238.84l-.92,13.2,1.12.32a15.448,15.448,0,0,1,4.24-.56c4.24,0,6.84,2.4,6.84,6.96,0,4.4-2.36,7.24-6.72,7.24a8.889,8.889,0,0,1-2.68-.4L240-4.16c-.52-2.12-1.08-2.76-2.36-2.76a2.114,2.114,0,0,0-2.08,1.4c.88,4.04,3.72,6.08,8.16,6.08,6.2,0,10.24-3.76,10.24-9.36,0-5.68-3.88-8.84-9.56-8.84a14.718,14.718,0,0,0-4.44.64Z" transform="translate(46.96 59.98)" fill="#333"/>
    <path id="パス_99" data-name="パス 99" d="M9.462-10.937A52.234,52.234,0,0,1,1.242-9.47l.036.242a73.863,73.863,0,0,0,8.5-.752c.327.145.558.145.679.036ZM5.134-9.3a3.98,3.98,0,0,1,.691,1.928c.849.776,1.855-.994-.546-2Zm-2.692.242a3.692,3.692,0,0,1,.837,1.77c.885.727,1.807-1.055-.715-1.855ZM8.189-4.742A7.737,7.737,0,0,1,6.273-2.475,6.406,6.406,0,0,1,3.921-4.742Zm.7-.934-.679.594H2.151l.109.339H3.642a7.427,7.427,0,0,0,2,2.728A14.481,14.481,0,0,1,.66.047L.72.241a14.62,14.62,0,0,0,5.541-1.77A12.1,12.1,0,0,0,10.784.241a1.185,1.185,0,0,1,.9-.921l.024-.145A15.1,15.1,0,0,1,7.062-2.062,8.768,8.768,0,0,0,9.353-4.548c.3-.012.449-.048.546-.17Zm1.916-1.916-.582.582H8.177a13.357,13.357,0,0,0,1.867-1.807c.267.024.412-.073.461-.218L9.062-9.519a17.1,17.1,0,0,1-1.225,2.51H2.151a3.811,3.811,0,0,0-.194-.643l-.182.012a1.734,1.734,0,0,1-.764,1.685A.617.617,0,0,0,.648-5.2c.133.315.582.352.921.158A1.632,1.632,0,0,0,2.2-6.657h8.039a12.221,12.221,0,0,1-.521,1.334l.133.085A11.328,11.328,0,0,0,11.4-6.463c.23-.012.364-.036.449-.133Zm4.826-3.358a19.218,19.218,0,0,1-2.728,6.208l.17.121A10.8,10.8,0,0,0,14.6-6.366V.241h.17a1.162,1.162,0,0,0,.812-.315V-7.13c.206-.036.315-.121.352-.23l-.558-.206a17.026,17.026,0,0,0,1.249-2.68c.267.012.412-.1.461-.242Zm7,3.164h-.485v-2.522c.3-.036.412-.145.449-.327l-1.455-.158v3.007H16.325l.1.352h4.716V-1.3c0,.218-.073.3-.364.3-.352,0-2.158-.121-2.158-.121v.182a3.688,3.688,0,0,1,1.443.412,1,1,0,0,1,.376.74c1.528-.158,1.71-.643,1.71-1.419V-7.433H24a.29.29,0,0,0,.315-.194c-.4-.412-1.091-.982-1.091-.982ZM17.076-6.16A8.027,8.027,0,0,1,18.653-3.3c1.006.776,1.782-1.394-1.443-2.934Zm9.748,3.589v-3.3h1.5v3.3Zm1.5-6.875v3.237h-1.5V-9.446Zm.376-.921-.5.57H26.958l-1.067-.436V-.826h.158c.473,0,.776-.23.776-.315V-2.22h1.5V-1.4h.145c.327,0,.776-.218.788-.315V-9.276a.948.948,0,0,0,.509-.242Zm7.723,3.819c.158,0,.279-.061.3-.194A14.1,14.1,0,0,0,35.6-7.7L35-6.912H33.25V-8.67h2.764c.17,0,.291-.061.327-.194-.424-.4-1.1-.934-1.1-.934l-.606.764H33.25v-1.382c.3-.048.424-.17.436-.339l-1.394-.133v1.855h-2.51l.1.364h2.413v1.758H29.419l.1.364Zm-6.111,2.5a4.692,4.692,0,0,1,1.14,2.061c.958.752,1.843-1.225-1.018-2.146Zm4.91-.873h-.461v-.958c.255-.048.376-.145.4-.3L33.82-6.318v1.394H29.468l.1.352H33.82v3.455c0,.17-.061.23-.291.23-.267,0-1.6-.085-1.6-.085v.182a2.149,2.149,0,0,1,1.091.352.884.884,0,0,1,.291.667c1.3-.121,1.455-.546,1.455-1.285V-4.572h1.722c.17,0,.3-.061.327-.194-.376-.364-1.031-.885-1.031-.885Zm6.7-4.838V-8.6H39.6V-9.761ZM39.6-7.058V-8.246h2.328v1.188Zm2.328.364v.582h.145a1.335,1.335,0,0,0,.776-.267V-9.628a.907.907,0,0,0,.449-.218L42.3-10.622l-.473.521H39.664l-1.006-.473V.229h.17c.449,0,.776-.242.776-.376V-6.694Zm.242,4.753V-3.335h2.7v1.394ZM44.878-5v1.309h-2.7V-5Zm.364-.861-.473.521H42.235l-.958-.424V-.789h.145c.364,0,.752-.206.752-.3v-.485h2.7V-.91h.145a1.193,1.193,0,0,0,.776-.315V-4.863a.858.858,0,0,0,.449-.206Zm-.158-1.2V-8.246h2.425v1.188Zm2.425-2.7V-8.6H45.084V-9.761Zm.339-.934-.461.594H45.132l-.97-.436v4.389h.121c.388,0,.8-.206.8-.291v-.255h2.425v5.5c0,.182-.061.267-.279.267-.255,0-1.419-.1-1.419-.1v.194a2.005,2.005,0,0,1,.994.352,1.09,1.09,0,0,1,.255.7c1.261-.121,1.406-.558,1.406-1.309V-9.592a.905.905,0,0,0,.509-.23Zm13.858.036L61.367-11,50.406-.037,50.746.3ZM65.841-5c-1.018,0-1.807-.667-1.807-2.11s.74-2.182,1.625-2.182c.982,0,1.661.958,1.661,3.116,0,.218-.012.424-.024.63A2.052,2.052,0,0,1,65.841-5ZM63.634-.5c3.407-.812,4.85-3.128,4.85-5.771,0-2.158-1.055-3.54-2.777-3.54a2.686,2.686,0,0,0-2.813,2.837,2.519,2.519,0,0,0,2.57,2.68,2.485,2.485,0,0,0,1.77-.667,4.9,4.9,0,0,1-3.7,4.05Zm7.857-4.971a.9.9,0,0,0,.909-.885.911.911,0,0,0-.909-.921.908.908,0,0,0-.9.921A.9.9,0,0,0,71.491-5.469Zm0,4.9a.9.9,0,0,0,.909-.885.911.911,0,0,0-.909-.921.908.908,0,0,0-.9.921A.9.9,0,0,0,71.491-.571Zm4.086-4.68c0-3.189.776-4.025,1.625-4.025.812,0,1.576.837,1.576,4.025,0,3.3-.764,4.171-1.576,4.171C76.353-1.08,75.577-1.941,75.577-5.251ZM77.2-9.81c-1.431,0-2.8,1.237-2.8,4.559,0,3.431,1.37,4.68,2.8,4.68,1.394,0,2.764-1.249,2.764-4.68C79.966-8.573,78.6-9.81,77.2-9.81Zm5.4,4.559c0-3.189.776-4.025,1.625-4.025.812,0,1.576.837,1.576,4.025,0,3.3-.764,4.171-1.576,4.171C83.373-1.08,82.6-1.941,82.6-5.251ZM84.222-9.81c-1.431,0-2.8,1.237-2.8,4.559,0,3.431,1.37,4.68,2.8,4.68,1.394,0,2.764-1.249,2.764-4.68C86.986-8.573,85.616-9.81,84.222-9.81Zm9.53,4.826a4.872,4.872,0,0,0,2.583.849,3.749,3.749,0,0,0,3.08-1.758l-.194-.182a3.492,3.492,0,0,1-2.57,1.2,4.722,4.722,0,0,1-2.486-.861,4.872,4.872,0,0,0-2.583-.849A3.751,3.751,0,0,0,88.5-4.827l.194.17a3.48,3.48,0,0,1,2.57-1.188A4.722,4.722,0,0,1,93.751-4.984ZM104.409-1.42c-.012-.7-.024-1.419-.024-2.122V-7.712l.049-1.916-.182-.133-2.728.715v.461l1.77-.17v5.214c0,.7-.012,1.419-.024,2.122l-1.891.267v.412h4.9v-.412Zm6.353.352a1.669,1.669,0,0,1-1.71-1.807A2.2,2.2,0,0,1,110.338-4.9c1.564.727,2.037,1.334,2.037,2.158A1.557,1.557,0,0,1,110.762-1.068Zm-1.479-6.778a1.411,1.411,0,0,1,1.455-1.443A1.405,1.405,0,0,1,112.1-7.761,2.321,2.321,0,0,1,111.029-5.7C109.634-6.379,109.283-7.094,109.283-7.846Zm2.158,2.34a2.606,2.606,0,0,0,1.6-2.231,2.066,2.066,0,0,0-2.279-2.073A2.266,2.266,0,0,0,108.277-7.6a2.728,2.728,0,0,0,1.649,2.5C108.652-4.5,108-3.772,108-2.753c0,1.406,1.1,2.182,2.728,2.182a2.456,2.456,0,0,0,2.716-2.352C113.442-4.111,112.811-4.839,111.441-5.506Zm4.971.036a.9.9,0,0,0,.909-.885.911.911,0,0,0-.909-.921.908.908,0,0,0-.9.921A.9.9,0,0,0,116.412-5.469Zm0,4.9a.9.9,0,0,0,.909-.885.911.911,0,0,0-.909-.921.908.908,0,0,0-.9.921A.9.9,0,0,0,116.412-.571Zm4.086-4.68c0-3.189.776-4.025,1.625-4.025.812,0,1.576.837,1.576,4.025,0,3.3-.764,4.171-1.576,4.171C121.274-1.08,120.5-1.941,120.5-5.251Zm1.625-4.559c-1.431,0-2.8,1.237-2.8,4.559,0,3.431,1.37,4.68,2.8,4.68,1.394,0,2.764-1.249,2.764-4.68C124.887-8.573,123.517-9.81,122.123-9.81Zm5.4,4.559c0-3.189.776-4.025,1.625-4.025.812,0,1.576.837,1.576,4.025,0,3.3-.764,4.171-1.576,4.171C128.294-1.08,127.518-1.941,127.518-5.251Zm1.625-4.559c-1.431,0-2.8,1.237-2.8,4.559,0,3.431,1.37,4.68,2.8,4.68,1.394,0,2.764-1.249,2.764-4.68C131.907-8.573,130.537-9.81,129.143-9.81Z" transform="translate(0.77 85.798)" fill="#333"/>
  </g>
</svg>
