<?xml version="1.0" encoding="utf-8"?>
<!-- Generator: Adobe Illustrator 24.3.0, SVG Export Plug-In . SVG Version: 6.00 Build 0)  -->
<svg version="1.1" id="レイヤー_1" xmlns="http://www.w3.org/2000/svg" xmlns:xlink="http://www.w3.org/1999/xlink" x="0px"
	 y="0px" viewBox="0 0 117.1 86.8" style="enable-background:new 0 0 117.1 86.8;" xml:space="preserve">
<style type="text/css">
	.st0{fill:#FFFFFF;}
	.st1{fill:none;stroke:#FFFFFF;stroke-width:0.323;stroke-miterlimit:10;}
</style>
<g>
	<path class="st0" d="M19.4,43.8c-0.4,0.1-0.6,0.3-0.9,0.9c-1.7,3.1-3.1,4.6-4.9,5.6c-0.5,0.3-1.7,1-2.8,1.2l-0.1-0.1
		c3-1.9,5.6-4.6,7-8c-0.3,0-1.4,0.2-2,0.3c-0.1,0-0.3,0.1-0.4,0.1c-0.1,0-0.4-0.1-0.6-0.2c-1.2,1.5-1.8,2-3.7,3.2l0-0.1
		c1.9-2.1,2.4-2.7,3.2-4.1c0.3-0.5,0.4-0.9,0.4-1c0-0.2-0.5-0.5-0.8-0.7c0.2-0.1,0.5-0.1,0.7-0.1c0.5,0,1.7,0.6,1.7,1.1
		c0,0.2,0,0.2-0.4,0.5c-0.2,0.2-0.2,0.2-0.5,0.6c0.3,0,2.1-0.1,2.4-0.2c0.2-0.1,0.7-0.5,0.9-0.5c0.1,0,0.2,0.1,0.8,0.6
		c0.4,0.4,0.5,0.4,0.5,0.6C19.7,43.7,19.7,43.7,19.4,43.8"/>
	<path class="st0" d="M33,42.4c-0.1,0.3-0.2,0.6-0.2,1.6c0,0.4,0.1,1.9,0.1,2.2c0,0.2,0,1.1-0.5,1.1c-0.3,0-0.8-0.4-0.8-1.2
		c0-0.1,0.1-0.6,0.1-0.9c0-0.4,0.1-1.4,0.1-2.1c0-1,0-1.3-1.2-1.6c0.2-0.1,0.6-0.3,0.9-0.3c0.4,0,1.7,0.4,1.7,0.8
		C33.1,42.1,33.1,42.2,33,42.4 M37.7,42.3c-0.1,0.5,0,1.4,0,2c-0.1,2.6-0.2,4.4-1.7,5.9c-0.5,0.5-1.4,1.4-2.6,1.5v-0.1
		c1.8-1,2.7-3.1,3-4.2c0.3-1.6,0.3-3.8,0.3-4.2c0-1.9-0.1-2-1.3-2.3c0.2-0.2,0.5-0.4,1.1-0.4c0.7,0,1.7,0.4,1.7,0.8
		C37.9,41.5,37.7,42.2,37.7,42.3"/>
	<path class="st0" d="M59.2,44.5c-0.1,0-0.2,0-0.2,0c-0.7-0.1-1.5-0.2-2.2-0.2c-0.5,0-0.8,0-1,0c0,0.3,0,1,0,2c0,0.5,0.1,2.6,0.1,3
		c0,1.8-0.6,2.2-0.9,2.2c-0.3,0-0.4-0.3-0.6-0.8c-0.1-0.3-0.5-0.8-1.5-1.4v-0.1c0.7,0.2,1.6,0.3,1.6,0.3c0.2,0,0.2-0.1,0.2-0.2
		c0-0.2,0.1-2.9,0.1-3.6v-0.3c-1.3,2.1-3.3,3.7-5.7,4.5l0,0.1c1.7-1.2,4.3-3.6,5.3-5.5c-1.8,0.2-2.9,0.6-3,0.6
		c-0.1,0.1-0.4,0.1-0.5,0.1c-0.3,0-1.4-0.5-1.4-1.6c0-0.2,0-0.3,0.1-0.5c0.6,0.7,0.9,1,1.9,1s2.7-0.2,3.2-0.3c0-1.5-0.1-2.1-0.2-2.4
		c-0.1-0.3-0.4-0.4-1.1-0.7c0.4-0.4,0.9-0.4,0.9-0.4c0.5,0,1.6,0.5,1.6,0.9c0,0.1-0.2,0.4-0.2,0.5c-0.2,0.4-0.2,1-0.2,2
		c1.3-0.2,1.4-0.2,1.7-0.2c0.1,0,0.6-0.2,0.7-0.2c0.1,0,1.4,0.3,1.4,0.9C59.5,44.3,59.4,44.5,59.2,44.5"/>
	<path class="st0" d="M72.4,43.4c-0.9,0-1.2,0-1.5,0.1L70.6,43c0.7,0.1,1.3,0.1,2,0.1h0.9c0-2.3-0.2-2.9-0.4-3.3l1.7,0.5
		c0.1,0,0.3,0.1,0.3,0.3s-0.1,0.3-0.5,0.6c0,0.5,0,1.5,0,2h0.7l0.5-0.7c0.1-0.1,0.2-0.2,0.2-0.2c0.1,0,0.2,0.1,0.2,0.2l0.7,0.7
		c0.1,0,0.1,0.1,0.1,0.2c0,0.1-0.1,0.2-0.2,0.2h-2.4v1.3c1,0.3,2.1,1,2.1,1.9c0,0.4-0.2,0.6-0.6,0.6c-0.5,0-0.7-0.3-0.9-1.2
		c-0.1-0.3-0.3-0.8-0.6-1.1c0,2,0,2.2,0,3.1c0,0.6,0.1,3,0.1,3.5c0,0.4-0.1,0.7-0.7,0.7c-0.5,0-0.6-0.2-0.6-0.5c0-0.5,0.2-2.6,0.2-3
		c0.1-1.2,0.1-1.9,0.1-2.8c-0.9,1.4-1.9,2.5-3.2,3.4l-0.1-0.1c1.3-1.5,2.6-4.3,3.2-5.9L72.4,43.4L72.4,43.4z M79.3,40.4
		c0.1,0,0.2,0.1,0.2,0.2c0,0.2-0.2,0.3-0.5,0.4c0,0.8-0.1,3.4-0.1,4.2v5.1c0,0.2,0.1,0.3,0.6,0.3h0.9c0.9,0,1.2-0.2,1.6-2.6h0.1
		c0.3,1.4,0.3,1.6,0.4,2c0,0.1,0.3,0.2,0.4,0.3c0.1,0,0.1,0.1,0.1,0.2c0,0.3-0.2,1.4-2.1,1.4h-1.6c-1.4,0-1.6-0.3-1.6-1.4
		c0-0.2,0-1.1,0-1.3c0-1.2,0-2.4,0-3.7c0-0.9,0-4.2-0.1-4.8c0-0.2-0.1-0.6-0.2-0.8L79.3,40.4z"/>
	<path class="st0" d="M97.5,42l0.4-0.4c0,0,0.1-0.1,0.2-0.1s0.2,0.1,0.2,0.1l0.7,0.5c0.1,0,0.1,0.2,0.1,0.2c0,0.1-0.1,0.2-0.4,0.5
		c0,0.2,0,0.4,0,2.4c0,0.4,0.1,2.2,0.1,2.6c0,1.5-1.1,1.8-1.5,1.7c0-0.2-0.2-1.1-0.5-1.4c0,0.4,0,2.8,0,3.1c0,0.1,0,0.7,0,0.8
		c0,0.4-0.4,0.6-0.7,0.6c-0.4,0-0.4-0.3-0.4-0.4c0-0.3,0.1-1.7,0.1-2c0-1.7,0.1-3,0.1-4c0-0.7,0-1,0-3.8h-0.7
		c0.1,1.7,0.1,4.5,0.1,6.2c0,0.1,0,0.7,0,0.8c0,0.6-0.5,0.6-0.6,0.6c-0.4,0-0.5-0.2-0.5-0.4c0-0.4,0.1-4.1,0.1-4.9
		c0-1.5-0.1-2.5-0.2-3.3l1.2,0.6h0.6c0-0.3,0-0.7,0-0.9c0-0.7-0.1-1.2-0.3-1.6l1.5,0.5c0,0,0.3,0.1,0.3,0.2c0,0.2-0.2,0.3-0.5,0.4
		c0,0.2,0,0.9,0,1.4C96.9,42,97.5,42,97.5,42z M96.8,42.3c0,2.7,0,3,0,5.7c0.3,0,0.5,0,0.7,0c0.3,0,0.3,0,0.3-0.2
		c0-0.6-0.1-5.3-0.1-5.4v-0.1H96.8z M104.6,47.4l0.5-0.7c0.1-0.1,0.2-0.2,0.2-0.2c0.1,0,0.2,0.1,0.3,0.1l0.8,0.7
		c0.1,0.1,0.1,0.1,0.1,0.2c0,0.1-0.1,0.2-0.2,0.2H103c0,0.5,0,2.3,0,2.9c0,0.3,0,0.5,0.4,0.5c1,0,1.3,0,1.4-0.1
		c0.3-0.2,0.6-1.6,0.6-1.8h0.1c0,0.3,0.2,1.4,0.4,1.5c0.1,0,0.2,0.2,0.3,0.2c0.1,0,0.1,0.2,0.1,0.3c0,0.3-0.2,0.6-0.4,0.7
		c-0.3,0.2-1,0.3-2,0.3c-1.9,0-2.1-0.1-2.1-1.7v-2.8h-1.3l0.7,0.2c0.3,0.1,0.3,0.2,0.3,0.2c0,0.2-0.3,0.2-0.4,0.3
		c-0.2,0.8-0.5,1.3-0.9,1.9c-0.8,1-1.7,1.5-2.9,1.8L97.2,52c1.5-1.1,2.7-2.5,2.9-4.4c-0.1,0-0.5,0-0.9,0.1L99,47.3
		c0.8,0.1,1.8,0.1,2,0.1h0.7c0-0.5,0-1.7,0-2s-0.1-1.1-0.2-1.5h-0.9c0,0.4,0,0.8-0.8,0.8c-0.2,0-0.4-0.1-0.4-0.4c0-0.1,0-0.5,0-0.6
		c0-0.7,0-1.1,0-1.5c0-0.8-0.1-1.6-0.1-2.4c0-0.1,0-0.2,0-0.3l1.3,0.7h3l0.3-0.4c0-0.1,0.1-0.2,0.2-0.2s0.2,0,0.2,0.1l0.8,0.6
		c0.1,0.1,0.1,0.1,0.1,0.2c0,0.2-0.3,0.4-0.4,0.5c0,0.4,0.1,2.3,0.1,2.7c0,0.8-0.7,0.8-0.7,0.8c-0.4,0-0.4-0.3-0.4-0.6h-2.3l1.5,0.5
		c0,0,0.2,0.1,0.2,0.2c0,0.2-0.3,0.4-0.5,0.4c0,0.4,0,1.9,0,2.3h1.9V47.4z M99.4,44.8c0.7,0.2,1.6,0.7,1.6,1.6
		c0,0.4-0.3,0.6-0.6,0.6c-0.5,0-0.6-0.6-0.7-0.9C99.7,45.5,99.6,45.2,99.4,44.8L99.4,44.8z M100.6,42h3.2v-1.3h-3.2V42z M100.6,43.6
		h3.2v-1.3h-3.2V43.6z M105,45.3c0.1,0,0.2,0.1,0.2,0.2c0,0.1-0.1,0.2-0.4,0.2c-0.2,0.3-1.4,1.2-1.6,1.5l-0.1-0.1
		c0.1-0.4,0.5-1.3,0.7-2.4L105,45.3z"/>
	<path class="st0" d="M2.2,67.1c3.1-1.9,5.7-4.7,7.1-8c-0.7,0.1-1.8,0.2-2.1,0.3c-0.3,0.1-0.3,0.1-0.4,0.1s-0.5-0.1-0.6-0.2
		c-1.1,1.4-2,2.2-3.7,3.2l-0.1-0.1C5.5,59,6,57.4,6,57.2s-0.5-0.5-0.8-0.7c0.2-0.1,0.5-0.1,0.7-0.1c0.5,0,1.7,0.6,1.7,1.1
		c0,0.2,0,0.2-0.4,0.5c-0.2,0.2-0.3,0.4-0.5,0.6c0.4,0,2.1-0.1,2.4-0.2c0.2-0.1,0.7-0.5,0.9-0.5c0.1,0,0.2,0.1,0.8,0.6
		c0.4,0.4,0.5,0.4,0.5,0.6c0,0.1,0,0.2-0.4,0.3c-0.4,0.2-0.5,0.3-0.8,0.9C8.7,62.8,6.6,66.1,2.2,67.1L2.2,67.1z M12.1,57.9
		c0,0.3-0.2,0.5-0.4,0.5s-0.3-0.1-0.5-0.3c-0.4-0.5-0.9-1.1-1.7-1.6C10.7,56.5,12.1,57,12.1,57.9 M13.4,57.2c0,0.3-0.2,0.4-0.4,0.4
		s-0.2-0.1-0.7-0.6c-0.1-0.1-0.8-0.8-1.5-1.1C12,56,13.4,56.3,13.4,57.2"/>
	<path class="st0" d="M32.1,60.7c-0.1,0.1-0.1,0.1-0.4,0.8c-0.6,1.3-1.3,2.8-3,4.2c-0.7,0.6-2.3,1.7-3.8,1.7v-0.1
		c1.4-0.6,3.4-2.6,3.8-3c0.6-0.7,1.5-1.9,2.1-3.9c-0.8,0.1-4.3,0.4-5.1,0.8c-0.1,0-0.4,0.2-0.5,0.2c-0.3,0-1.4-0.8-1.4-1.8
		c0-0.2,0-0.3,0.1-0.5c0.1,0.2,0.3,0.4,0.6,0.6c0.3,0.2,0.4,0.3,0.8,0.3c0.9,0,5.4-0.4,5.6-0.4c0.1-0.1,0.5-0.5,0.6-0.5
		s1.2,0.8,1.2,1.2C32.7,60.4,32.5,60.5,32.1,60.7 M30.2,58c-0.7,0-2.7,0.2-3.3,0.3c-0.6,0.1-0.7,0.1-0.9,0.1c-0.7,0-1.3-1-1.2-1.7
		c0.7,0.7,1.4,0.7,2,0.7c1.6,0,2.7-0.3,2.8-0.4c0.1,0,0.6-0.3,0.7-0.3s0.7,0.2,0.9,0.3c0.2,0.1,0.4,0.2,0.4,0.5
		C31.6,57.9,31.4,57.9,30.2,58"/>
	<path class="st0" d="M47.3,59.4c-0.2,0-0.4-0.2-0.9-0.7c-1.2-1.2-1.8-1.5-2.3-1.7c0.3,0,0.4,0,0.7,0c0.5,0,3.1,0.2,3.1,1.8
		C47.8,59.2,47.5,59.4,47.3,59.4 M48.5,64.1c-0.5,0.4-1.4,1-1.8,1.4c-0.1,0.1-0.4,0.5-0.5,0.5s-0.1,0.1-0.2,0.1
		c-0.5,0-1.5-1.3-1.5-2c0-0.2,0.1-0.5,0.1-0.7c0.4,0.8,0.9,1,1.1,1c0.4,0,2.7-1.7,3.2-2.1c2.3-1.8,3.6-3.3,4.4-4.2h0.1
		C53.2,59,51.8,61.5,48.5,64.1"/>
	<path class="st0" d="M72.4,59.3c-0.4,0.1-0.6,0.3-0.9,0.9c-1.7,3.1-3.2,4.6-4.9,5.6c-0.5,0.3-1.7,1-2.8,1.2l-0.1-0.1
		c3.1-1.9,5.6-4.6,7.1-8c-0.3,0-1.4,0.2-2,0.3c-0.1,0-0.3,0.1-0.4,0.1s-0.4-0.1-0.6-0.2c-1.3,1.5-1.9,2-3.7,3.2L64,62.2
		c1.9-2.1,2.4-2.7,3.2-4.1c0.3-0.5,0.4-0.9,0.4-1c0-0.2-0.5-0.5-0.8-0.7c0.2-0.1,0.5-0.1,0.7-0.1c0.5,0,1.7,0.6,1.7,1.1
		c0,0.2,0,0.2-0.4,0.5c-0.2,0.2-0.2,0.2-0.5,0.6c0.4,0,2.1-0.1,2.4-0.2c0.2-0.1,0.7-0.5,0.9-0.5c0.1,0,0.2,0.1,0.8,0.6
		c0.4,0.4,0.5,0.4,0.5,0.6C72.8,59.2,72.7,59.2,72.4,59.3"/>
	<path class="st0" d="M92.4,60.7c-0.1,0.1-0.1,0.1-0.4,0.8c-0.6,1.3-1.3,2.8-3,4.2c-0.7,0.6-2.3,1.7-3.8,1.7v-0.1
		c1.4-0.6,3.4-2.6,3.8-3c0.6-0.7,1.5-1.9,2.1-3.9c-0.8,0.1-4.3,0.4-5.1,0.8c-0.1,0-0.4,0.2-0.5,0.2c-0.3,0-1.4-0.8-1.4-1.8
		c0-0.2,0-0.3,0.1-0.5c0.1,0.2,0.3,0.4,0.6,0.6c0.3,0.2,0.4,0.3,0.8,0.3c0.9,0,5.4-0.4,5.6-0.4c0.1-0.1,0.5-0.5,0.6-0.5
		s1.2,0.8,1.2,1.2C93,60.4,92.9,60.5,92.4,60.7 M90.6,58c-0.7,0-2.7,0.2-3.3,0.3c-0.6,0.1-0.7,0.1-0.9,0.1c-0.7,0-1.3-1-1.2-1.7
		c0.7,0.7,1.4,0.7,2,0.7c1.6,0,2.7-0.3,2.8-0.4c0.1,0,0.6-0.3,0.7-0.3s0.7,0.2,0.9,0.3c0.2,0.1,0.4,0.2,0.4,0.5
		C92,57.9,91.7,57.9,90.6,58"/>
	<path class="st0" d="M113.5,66.4c-0.4,0-0.6-0.4-0.7-0.6c-1.1-1.8-1.7-2.7-2.8-3.6c-2.1,2.6-4.3,3.9-6.3,4.3v-0.1
		c3.4-1.6,6.8-6.3,7.3-8.2c0,0-2.8,0.5-3.6,0.9c-0.4,0.2-0.5,0.2-0.6,0.2c-0.2,0-1.1-0.6-1.1-1.5c0-0.4,0.1-0.5,0.1-0.6
		c0.6,0.7,0.7,0.9,1.2,0.9c0.3,0,3.4-0.3,4-0.6c0.1-0.1,0.5-0.4,0.7-0.4s1.3,1,1.3,1.3c0,0.2-0.1,0.2-0.5,0.4
		c-0.1,0.1-0.2,0.2-0.4,0.5c-0.9,1.7-1.1,2-1.8,2.9c1.7,0.7,3.9,2.4,3.9,3.7C114.1,66,114,66.4,113.5,66.4"/>
	<path class="st0" d="M96.3,1.1c-11.2,0-18.4,6.4-18.4,14.7c0,8.2,7.3,14.6,18.4,14.6s18.3-6.4,18.3-14.6
		C114.6,7.6,107.4,1.1,96.3,1.1 M96.3,28c-6.5,0-10.7-5.5-10.7-12.1S89.4,3.6,96.3,3.6c6.9,0,10.5,5.7,10.5,12.3S102.8,28,96.3,28"
		/>
	<path class="st0" d="M21.8,28c-7.5,0-11.6-5.2-11.6-12.4C10.2,8.4,15,3.7,22,3.7c5.3,0,9.9,4,12.6,6.9L33.7,4
		C31,2.3,26.2,1.2,21,1.2C10.1,1.2,2.1,7.3,2.1,15.8c0,8.4,7.8,14.7,18.7,14.7c5.6,0,10.2-1.2,13-2.7l0.9-6.7
		C31.6,24.2,27.3,28,21.8,28"/>
	<polygon class="st0" points="74.6,1.9 66.7,1.9 66.7,9.7 74.6,4.4 	"/>
	<polygon class="st0" points="74.6,29.8 74.6,7.2 66.7,12.5 66.7,29.8 	"/>
	<path class="st0" d="M60.6,29.8l4-2.6H46.5V1.9h-9.9c1.3,1.7,1.9,3.4,1.9,5.7v22.3h22.1"/>
	<path class="st0" d="M6.7,85.2c-0.1,0.1-0.2,0.1-0.4,0.1c-0.1,0-0.3,0.1-0.5,0.1s-0.4,0-0.6,0c-0.4,0-0.8-0.1-1.1-0.2
		s-0.7-0.3-0.9-0.5s-0.5-0.5-0.6-0.9c-0.1-0.3-0.2-0.7-0.2-1.2c0-0.4,0.1-0.8,0.2-1.2c0.1-0.3,0.3-0.6,0.6-0.9s0.6-0.4,0.9-0.6
		c0.5,0.1,0.9,0,1.3,0c0.3,0,0.7,0,0.9,0.1c0.3,0.1,0.5,0.2,0.8,0.3c0,0.1-0.1,0.2-0.1,0.3c0,0.1,0,0.2-0.1,0.3l0,0
		c-0.1-0.1-0.1-0.1-0.2-0.2s-0.2-0.2-0.3-0.2c-0.1-0.1-0.3-0.1-0.4-0.2c-0.2-0.1-0.3-0.1-0.5-0.1c-0.3,0-0.6,0-0.9,0.1
		s-0.5,0.3-0.7,0.5s-0.3,0.5-0.5,0.8c-0.1,0.3-0.2,0.7-0.2,1.1s0.1,0.8,0.2,1.1c0.1,0.3,0.3,0.6,0.5,0.8c0.2,0.2,0.4,0.4,0.7,0.5
		s0.5,0.1,0.9,0.1c0.2,0,0.4,0,0.5-0.1c0.2,0,0.3-0.1,0.4-0.2s0.3-0.1,0.4-0.2s0.2-0.1,0.3-0.2l0,0L7,85.1
		C6.9,85.1,6.8,85.2,6.7,85.2"/>
	<path class="st0" d="M8.2,81c0-0.3,0-0.7,0-1c0.1,0,0.1,0,0.2,0c0.1,0,0.1,0,0.2,0c0.1,0,0.1,0,0.2,0c0.1,0,0.1,0,0.2,0
		c0,0.3,0,0.7,0,1s0,0.7,0,1c0,0.7,0,1.2,0,1.7s0,0.9,0,1.3c0.4,0,0.7,0,1.1,0c0.3,0,0.7,0,1.1-0.1c0,0.1,0,0.2,0,0.2
		c0,0.1,0,0.1,0,0.2c-0.2,0-0.5,0-0.7,0H9.6H8.9c-0.2,0-0.5,0-0.7,0c0-0.3,0-0.7,0-1s0-0.7,0-1V82C8.2,81.7,8.2,81.3,8.2,81"/>
	<path class="st0" d="M12.2,81c0-0.3,0-0.7,0-1c0.1,0,0.1,0,0.2,0c0.1,0,0.1,0,0.2,0c0.1,0,0.1,0,0.2,0c0.1,0,0.1,0,0.2,0
		c0,0.3,0,0.7,0,1s0,0.7,0,1v1.3c0,0.3,0,0.7,0,1s0,0.7,0,1c-0.1,0-0.2,0-0.4,0c-0.1,0-0.3,0-0.4,0c0-0.3,0-0.7,0-1s0-0.7,0-1V82
		C12.2,81.7,12.2,81.3,12.2,81"/>
	<path class="st0" d="M14.1,82.7c0-0.4,0.1-0.8,0.2-1.2c0.1-0.3,0.3-0.6,0.6-0.9c0.3-0.2,0.6-0.4,0.9-0.5c0.4-0.1,0.8-0.2,1.2-0.2
		s0.8,0.1,1.2,0.2c0.4,0.1,0.7,0.3,0.9,0.5c0.3,0.2,0.5,0.5,0.6,0.9c0.1,0.3,0.2,0.7,0.2,1.2c0,0.4-0.1,0.8-0.2,1.2
		c-0.1,0.3-0.3,0.6-0.6,0.9c-0.3,0.2-0.6,0.4-0.9,0.5c-0.4,0.1-0.8,0.2-1.2,0.2c-0.4,0-0.8-0.1-1.2-0.2c-0.4-0.1-0.7-0.3-0.9-0.5
		c-0.3-0.2-0.5-0.5-0.6-0.9C14.1,83.6,14.1,83.2,14.1,82.7 M19.2,82.7c0-0.4-0.1-0.8-0.2-1.1c-0.1-0.3-0.3-0.6-0.5-0.8
		c-0.2-0.2-0.4-0.4-0.7-0.5c-0.3-0.1-0.6-0.1-0.9-0.1s-0.6,0.1-0.9,0.1c-0.3,0.1-0.5,0.3-0.7,0.5s-0.3,0.5-0.5,0.8
		c-0.1,0.3-0.2,0.7-0.2,1.1s0.1,0.8,0.2,1.1c0.1,0.3,0.3,0.6,0.5,0.8c0.2,0.2,0.4,0.4,0.7,0.5c0.3,0.1,0.5,0.2,0.9,0.2
		c0.3,0,0.6-0.1,0.9-0.2s0.5-0.3,0.7-0.5s0.3-0.5,0.5-0.8C19.1,83.5,19.2,83.1,19.2,82.7"/>
	<path class="st0" d="M23.4,84.7c0.1,0.1,0.2,0.2,0.3,0.3c0.1,0.1,0.2,0.1,0.4,0.2c0.1,0.1,0.3,0.1,0.5,0.1s0.3,0,0.5-0.1
		c0.1-0.1,0.3-0.1,0.4-0.2s0.2-0.2,0.2-0.4c0.1-0.1,0.1-0.3,0.1-0.4c0-0.2-0.1-0.4-0.2-0.6c-0.1-0.1-0.3-0.3-0.5-0.4
		s-0.4-0.2-0.6-0.3c-0.2-0.1-0.4-0.2-0.6-0.3c-0.2-0.1-0.3-0.3-0.5-0.5c-0.1-0.2-0.2-0.4-0.2-0.7c0-0.2,0-0.4,0.1-0.6
		s0.2-0.3,0.3-0.5c0.1-0.1,0.3-0.2,0.5-0.3c0.2-0.1,0.4-0.1,0.7-0.1c0.3,0,0.5,0,0.7,0.1s0.4,0.2,0.5,0.3c0,0.1-0.1,0.2-0.1,0.3
		c0,0.1-0.1,0.2-0.1,0.4h-0.1c0-0.1-0.1-0.2-0.1-0.2c0-0.1-0.1-0.2-0.2-0.2c-0.1-0.1-0.2-0.1-0.3-0.2c-0.1-0.1-0.2-0.1-0.4-0.1
		c-0.1,0-0.3,0-0.4,0.1c-0.1,0-0.2,0.1-0.3,0.2c-0.1,0.1-0.2,0.2-0.2,0.3c-0.1,0.1-0.1,0.3-0.1,0.4c0,0.2,0.1,0.4,0.2,0.6
		c0.1,0.1,0.3,0.3,0.5,0.4s0.4,0.2,0.6,0.3s0.4,0.2,0.6,0.3c0.2,0.1,0.3,0.3,0.5,0.4s0.2,0.4,0.2,0.7c0,0.2,0,0.5-0.1,0.7
		s-0.2,0.4-0.4,0.6c-0.2,0.2-0.4,0.3-0.6,0.4s-0.5,0.1-0.8,0.1s-0.6,0-0.8-0.1c-0.2-0.1-0.4-0.2-0.5-0.3c0-0.1,0.1-0.2,0.1-0.3
		C23.2,85,23.2,84.9,23.4,84.7L23.4,84.7C23.2,84.5,23.3,84.6,23.4,84.7"/>
	<path class="st0" d="M31.7,85.4c-0.1,0-0.1,0-0.2,0h-0.2h-0.2c-0.1,0-0.1,0-0.2,0c0-0.1-0.1-0.3-0.1-0.4c-0.1-0.2-0.1-0.3-0.2-0.5
		s-0.2-0.4-0.2-0.6c-0.1-0.2-0.2-0.4-0.2-0.5c-0.2,0-0.3,0-0.5,0s-0.3,0-0.5,0s-0.3,0-0.5,0s-0.3,0-0.5,0c-0.2,0.4-0.3,0.8-0.5,1.2
		c-0.1,0.4-0.2,0.7-0.3,0.9c-0.1,0-0.2,0-0.3,0c-0.1,0-0.2,0-0.3,0c0.4-0.9,0.8-1.8,1.2-2.7c0.4-0.9,0.8-1.8,1.2-2.8h0.1
		c0.1,0.3,0.3,0.6,0.4,1s0.3,0.7,0.4,1.1c0.2,0.4,0.3,0.7,0.5,1.1s0.3,0.7,0.4,1s0.3,0.6,0.4,0.8C31.6,85.1,31.6,85.3,31.7,85.4
		 M28.2,83c0.1,0,0.3,0,0.4,0s0.3,0,0.4,0s0.3,0,0.4,0s0.3,0,0.4,0l-0.9-2L28.2,83z"/>
	<path class="st0" d="M32.7,82c0-0.3,0-0.7,0-1s0-0.7,0-1c0.1,0,0.3,0,0.4,0c0.1,0,0.3,0,0.4,0c0.1,0,0.1,0,0.2,0c0.1,0,0.2,0,0.3,0
		s0.2,0,0.3,0s0.2,0,0.2,0c0.1,0,0.2,0,0.3,0s0.2,0,0.4,0c0.1,0,0.3,0.1,0.4,0.1c0.1,0.1,0.2,0.1,0.3,0.2s0.2,0.2,0.2,0.4
		c0.1,0.1,0.1,0.3,0.1,0.6c0,0.3-0.1,0.6-0.2,0.8c-0.1,0.2-0.3,0.4-0.5,0.5s-0.4,0.2-0.7,0.2C34.4,83,34.2,83,34,83
		c-0.1,0-0.2,0-0.3,0s-0.2,0-0.3,0v0.4c0,0.3,0,0.7,0,1s0,0.7,0,1c-0.1,0-0.2,0-0.4,0c-0.1,0-0.3,0-0.4,0c0-0.3,0-0.7,0-1s0-0.7,0-1
		V82H32.7z M33.3,82.6c0.2,0,0.4,0.1,0.6,0.1c0.2,0,0.3,0,0.5-0.1c0.2,0,0.3-0.1,0.5-0.2c0.1-0.1,0.3-0.2,0.4-0.4
		c0.1-0.2,0.1-0.4,0.1-0.7c0-0.2,0-0.4-0.1-0.6c-0.1-0.1-0.2-0.3-0.3-0.3c-0.1-0.1-0.2-0.1-0.4-0.2c-0.2,0-0.3,0-0.6,0h-0.7V82.6z"
		/>
	<path class="st0" d="M37.1,82c0-0.3,0-0.7,0-1s0-0.7,0-1c0.1,0,0.3,0,0.4,0c0.1,0,0.3,0,0.4,0c0.1,0,0.1,0,0.2,0c0.1,0,0.2,0,0.3,0
		s0.2,0,0.3,0s0.2,0,0.2,0c0.1,0,0.2,0,0.3,0s0.2,0,0.4,0c0.1,0,0.3,0.1,0.4,0.1c0.1,0.1,0.2,0.1,0.3,0.2s0.2,0.2,0.2,0.4
		c0.1,0.1,0.1,0.3,0.1,0.6c0,0.3-0.1,0.6-0.2,0.8c-0.1,0.2-0.3,0.4-0.5,0.5s-0.4,0.2-0.7,0.2c-0.2,0-0.5,0.1-0.6,0.1s-0.2,0-0.3,0
		s-0.2,0-0.3,0v0.4c0,0.3,0,0.7,0,1s0,0.7,0,1c-0.1,0-0.2,0-0.4,0c-0.1,0-0.3,0-0.4,0c0-0.3,0-0.7,0-1s0-0.7,0-1V82H37.1z
		 M37.8,82.6c0.2,0,0.4,0.1,0.6,0.1c0.2,0,0.3,0,0.5-0.1c0.2,0,0.3-0.1,0.5-0.2c0.1-0.1,0.3-0.2,0.4-0.4c0.1-0.2,0.1-0.4,0.1-0.7
		c0-0.2,0-0.4-0.1-0.6c-0.1-0.1-0.2-0.3-0.3-0.3c-0.1-0.1-0.2-0.1-0.4-0.2c-0.2,0-0.3,0-0.6,0h-0.7V82.6z"/>
	<path class="st0" d="M41.1,82.7c0-0.4,0.1-0.8,0.2-1.2c0.1-0.3,0.3-0.6,0.6-0.9c0.3-0.2,0.6-0.4,0.9-0.5c0.4-0.1,0.8-0.2,1.2-0.2
		s0.8,0.1,1.2,0.2s0.7,0.3,0.9,0.5c0.3,0.2,0.5,0.5,0.6,0.9c0.1,0.3,0.2,0.7,0.2,1.2c0,0.4-0.1,0.8-0.2,1.2
		c-0.1,0.3-0.3,0.6-0.6,0.9c-0.3,0.2-0.6,0.4-0.9,0.5c-0.4,0.1-0.8,0.2-1.2,0.2s-0.8-0.1-1.2-0.2s-0.7-0.3-0.9-0.5
		c-0.3-0.2-0.5-0.5-0.6-0.9C41.2,83.6,41.1,83.2,41.1,82.7 M46.3,82.7c0-0.4-0.1-0.8-0.2-1.1c-0.1-0.3-0.3-0.6-0.5-0.8
		c-0.2-0.2-0.4-0.4-0.7-0.5s-0.6-0.1-0.9-0.1c-0.3,0-0.6,0.1-0.9,0.1c-0.3,0.1-0.5,0.3-0.7,0.5s-0.3,0.5-0.5,0.8
		c-0.1,0.3-0.2,0.7-0.2,1.1s0.1,0.8,0.2,1.1c0.1,0.3,0.3,0.6,0.5,0.8c0.2,0.2,0.4,0.4,0.7,0.5s0.5,0.2,0.9,0.2
		c0.3,0,0.6-0.1,0.9-0.2c0.3-0.1,0.5-0.3,0.7-0.5s0.3-0.5,0.5-0.8C46.2,83.5,46.3,83.1,46.3,82.7"/>
	<path class="st0" d="M48.2,82c0-0.3,0-0.7,0-1s0-0.7,0-1c0.2,0,0.3,0,0.4,0c0.1,0,0.3,0,0.4,0c0.2,0,0.3,0,0.4,0c0.1,0,0.3,0,0.4,0
		c0.2,0,0.4,0,0.6,0.1c0.2,0,0.4,0.1,0.5,0.2s0.3,0.2,0.4,0.4c0.1,0.2,0.1,0.4,0.1,0.6c0,0.3-0.1,0.5-0.2,0.6
		c-0.1,0.2-0.2,0.3-0.4,0.4s-0.3,0.2-0.5,0.3c-0.2,0.1-0.4,0.1-0.5,0.1c0.1,0.1,0.1,0.2,0.3,0.3c0.1,0.1,0.2,0.3,0.4,0.5
		c0.1,0.2,0.3,0.3,0.4,0.5c0.1,0.2,0.3,0.4,0.4,0.5s0.3,0.3,0.4,0.5c0.1,0.1,0.2,0.2,0.3,0.3c-0.1,0-0.2,0-0.2,0h-0.2h-0.2
		c-0.1,0-0.2,0-0.2,0c-0.1-0.1-0.2-0.3-0.4-0.5s-0.3-0.5-0.5-0.7c-0.2-0.3-0.4-0.5-0.6-0.8c-0.2-0.2-0.4-0.5-0.6-0.6h-0.3v0.6
		c0,0.3,0,0.7,0,1s0,0.7,0,1c-0.1,0-0.2,0-0.4,0c-0.1,0-0.3,0-0.4,0c0-0.3,0-0.7,0-1s0-0.7,0-1V82H48.2z M48.9,82.5
		c0.1,0,0.2,0,0.2,0c0.1,0,0.2,0,0.3,0c0.2,0,0.3,0,0.5-0.1c0.2,0,0.3-0.1,0.5-0.2c0.1-0.1,0.3-0.2,0.4-0.4c0.1-0.2,0.1-0.3,0.1-0.6
		c0-0.2,0-0.4-0.1-0.5s-0.2-0.2-0.3-0.3c-0.1-0.1-0.3-0.1-0.4-0.2c-0.1,0-0.3,0-0.4,0c-0.2,0-0.3,0-0.5,0s-0.2,0-0.3,0
		c0,0.3,0,0.6,0,0.9s0,0.6,0,0.8V82.5z"/>
	<path class="st0" d="M52.6,82.7c0-0.4,0.1-0.8,0.2-1.2c0.1-0.3,0.3-0.6,0.6-0.9c0.3-0.2,0.6-0.4,0.9-0.5c0.4-0.1,0.8-0.2,1.2-0.2
		s0.8,0.1,1.2,0.2s0.7,0.3,0.9,0.5c0.3,0.2,0.5,0.5,0.6,0.9c0.1,0.3,0.2,0.7,0.2,1.2c0,0.4-0.1,0.8-0.2,1.2
		c-0.1,0.3-0.3,0.6-0.6,0.9c-0.3,0.2-0.6,0.4-0.9,0.5c-0.4,0.1-0.8,0.2-1.2,0.2s-0.8-0.1-1.2-0.2s-0.7-0.3-0.9-0.5
		c-0.3-0.2-0.5-0.5-0.6-0.9C52.7,83.6,52.6,83.2,52.6,82.7 M57.8,82.7c0-0.4-0.1-0.8-0.2-1.1c-0.1-0.3-0.3-0.6-0.5-0.8
		c-0.2-0.2-0.4-0.4-0.7-0.5s-0.6-0.1-0.9-0.1c-0.3,0-0.6,0.1-0.9,0.1c-0.3,0.1-0.5,0.3-0.7,0.5s-0.3,0.5-0.5,0.8
		c-0.1,0.3-0.2,0.7-0.2,1.1s0.1,0.8,0.2,1.1c0.1,0.3,0.3,0.6,0.5,0.8c0.2,0.2,0.4,0.4,0.7,0.5s0.5,0.2,0.9,0.2
		c0.3,0,0.6-0.1,0.9-0.2c0.3-0.1,0.5-0.3,0.7-0.5s0.3-0.5,0.5-0.8C57.7,83.5,57.8,83.1,57.8,82.7"/>
	<path class="st0" d="M66.2,80.7c-0.1-0.1-0.2-0.2-0.4-0.2c-0.1-0.1-0.3-0.1-0.5-0.2c-0.2,0-0.4-0.1-0.6-0.1c-0.3,0-0.6,0-0.9,0.1
		c-0.3,0.1-0.5,0.3-0.7,0.5s-0.4,0.5-0.5,0.8s-0.2,0.7-0.2,1.1s0.1,0.7,0.2,1c0.1,0.3,0.3,0.6,0.5,0.8c0.2,0.2,0.4,0.4,0.7,0.5
		c0.3,0.1,0.6,0.2,1,0.2c0.1,0,0.2,0,0.3,0c0.1,0,0.2,0,0.3,0c0.1,0,0.2,0,0.3-0.1c0.1,0,0.2-0.1,0.2-0.1c0-0.2,0-0.3,0-0.5
		s0-0.3,0-0.5s0-0.4,0-0.5c0-0.2,0-0.4,0-0.5c0.1,0,0.3,0,0.4,0s0.1,0,0.2,0s0.1,0,0.2,0c0,0.1,0,0.3,0,0.6c0,0.3,0,0.6,0,1
		c0,0.1,0,0.2,0,0.3c0,0.1,0,0.2,0,0.3c-0.1,0-0.2,0.1-0.4,0.1c-0.2,0-0.3,0.1-0.5,0.1s-0.4,0.1-0.6,0.1s-0.4,0-0.5,0
		c-0.5,0-0.9-0.1-1.3-0.2c-0.4-0.1-0.7-0.3-1-0.5s-0.5-0.5-0.6-0.9s-0.2-0.8-0.2-1.2c0-0.4,0.1-0.8,0.2-1.2c0.1-0.3,0.4-0.6,0.6-0.9
		c0.3-0.2,0.6-0.4,1-0.6c0.4-0.1,0.8-0.2,1.3-0.2c0.3,0,0.5,0,0.7,0s0.4,0.1,0.5,0.1c0.2,0,0.3,0.1,0.4,0.1c0.1,0.1,0.2,0.1,0.3,0.1
		c0,0.1-0.1,0.2-0.1,0.3c0,0.1-0.1,0.2-0.1,0.3h-0.1C66.4,80.9,66.3,80.8,66.2,80.7"/>
	<path class="st0" d="M68.2,82c0-0.3,0-0.7,0-1s0-0.7,0-1c0.2,0,0.3,0,0.4,0s0.3,0,0.4,0c0.2,0,0.3,0,0.4,0s0.3,0,0.4,0
		c0.2,0,0.4,0,0.6,0.1c0.2,0,0.4,0.1,0.5,0.2s0.3,0.2,0.4,0.4c0.1,0.2,0.1,0.4,0.1,0.6c0,0.3-0.1,0.5-0.2,0.6
		c-0.1,0.2-0.2,0.3-0.4,0.4c-0.2,0.1-0.3,0.2-0.5,0.3c-0.2,0.1-0.4,0.1-0.5,0.1c0.1,0.1,0.1,0.2,0.3,0.3c0.1,0.1,0.2,0.3,0.4,0.5
		c0.1,0.2,0.3,0.3,0.4,0.5s0.3,0.4,0.4,0.5s0.3,0.3,0.4,0.5c0.1,0.1,0.2,0.2,0.3,0.3c-0.1,0-0.2,0-0.2,0h-0.2h-0.2
		c-0.1,0-0.2,0-0.2,0c-0.1-0.1-0.2-0.3-0.4-0.5c-0.2-0.2-0.3-0.5-0.5-0.7c-0.2-0.3-0.4-0.5-0.6-0.8c-0.2-0.2-0.4-0.5-0.6-0.6h-0.3
		v0.6c0,0.3,0,0.7,0,1s0,0.7,0,1c-0.1,0-0.2,0-0.4,0c-0.1,0-0.3,0-0.4,0c0-0.3,0-0.7,0-1s0-0.7,0-1V82H68.2z M68.8,82.5
		c0.1,0,0.2,0,0.2,0c0.1,0,0.2,0,0.3,0c0.2,0,0.3,0,0.5-0.1c0.2,0,0.3-0.1,0.5-0.2c0.1-0.1,0.3-0.2,0.4-0.4c0.1-0.2,0.1-0.3,0.1-0.6
		c0-0.2,0-0.4-0.1-0.5s-0.2-0.2-0.3-0.3c-0.1-0.1-0.3-0.1-0.4-0.2c-0.1,0-0.3,0-0.4,0c-0.2,0-0.3,0-0.5,0s-0.2,0-0.3,0
		c0,0.3,0,0.6,0,0.9s0,0.6,0,0.8C68.8,81.9,68.8,82.5,68.8,82.5z"/>
	<path class="st0" d="M77.4,85.4c-0.1,0-0.1,0-0.2,0H77h-0.2c-0.1,0-0.1,0-0.2,0c0-0.1-0.1-0.3-0.1-0.4c-0.1-0.2-0.1-0.3-0.2-0.5
		s-0.2-0.4-0.2-0.6c-0.1-0.2-0.2-0.4-0.2-0.5c-0.2,0-0.3,0-0.5,0s-0.3,0-0.5,0s-0.3,0-0.5,0s-0.3,0-0.5,0c-0.2,0.4-0.3,0.8-0.5,1.2
		c-0.1,0.4-0.2,0.7-0.3,0.9c-0.1,0-0.2,0-0.3,0c-0.1,0-0.2,0-0.3,0c0.4-0.9,0.8-1.8,1.2-2.7c0.4-0.9,0.8-1.8,1.2-2.8H75
		c0.1,0.3,0.3,0.6,0.4,1s0.3,0.7,0.4,1.1c0.2,0.4,0.3,0.7,0.5,1.1s0.3,0.7,0.4,1s0.3,0.6,0.4,0.8C77.2,85.1,77.3,85.3,77.4,85.4
		 M73.9,83c0.1,0,0.3,0,0.4,0s0.3,0,0.4,0s0.3,0,0.4,0s0.3,0,0.4,0l-0.9-2L73.9,83z"/>
	<path class="st0" d="M80.8,83.4c-0.7-0.7-1.4-1.5-2-2.2c0,0.1,0,0.3,0,0.6c0,0.2,0,0.6,0,1c0,0.1,0,0.2,0,0.4c0,0.2,0,0.3,0,0.5
		s0,0.4,0,0.5c0,0.2,0,0.4,0,0.5c0,0.2,0,0.3,0,0.4s0,0.2,0,0.2c-0.1,0-0.2,0-0.3,0c-0.1,0-0.2,0-0.3,0c0-0.1,0-0.1,0-0.3
		c0-0.1,0-0.3,0-0.5s0-0.4,0-0.6s0-0.5,0-0.7s0-0.5,0-0.7s0-0.4,0-0.6c0-0.5,0-0.9,0-1.3s0-0.6,0-0.8h0.1c0.3,0.3,0.7,0.7,1,1.1
		c0.4,0.4,0.7,0.8,1.1,1.2c0.4,0.4,0.7,0.7,1,1.1c0.3,0.3,0.6,0.6,0.8,0.9V83c0-0.5,0-1.1,0-1.6s0-1-0.1-1.5c0.1,0,0.2,0,0.3,0
		c0.1,0,0.1,0,0.3,0c0,0.1,0,0.3,0,0.5s0,0.5,0,0.7c0,0.3,0,0.5,0,0.8s0,0.5,0,0.6V83c0,0.2,0,0.4,0,0.6s0,0.4,0,0.6s0,0.4,0,0.5
		c0,0.2,0,0.3,0,0.4v0.3h-0.1C82.2,84.8,81.5,84.1,80.8,83.4"/>
	<path class="st0" d="M84.5,82c0-0.3,0-0.7,0-1s0-0.7,0-1c0.2,0,0.4,0,0.6,0s0.4,0,0.6,0s0.4,0,0.6,0s0.4,0,0.6,0
		c0.5,0,0.9,0.1,1.2,0.2c0.3,0.1,0.6,0.3,0.8,0.5c0.2,0.2,0.4,0.5,0.5,0.8s0.1,0.7,0.1,1.1c0,0.5-0.1,1-0.3,1.3
		c-0.2,0.4-0.4,0.6-0.7,0.9c-0.3,0.2-0.6,0.4-0.9,0.5s-0.7,0.1-1,0.1c-0.2,0-0.4,0-0.5,0s-0.3,0-0.5,0H85c-0.2,0-0.3,0-0.5,0
		c0-0.3,0-0.7,0-1s0-0.7,0-1V82z M85.2,83.4c0,0.6,0,1.1,0,1.7c0.1,0,0.3,0,0.4,0.1c0.2,0,0.4,0,0.6,0c0.3,0,0.6,0,0.9-0.1
		s0.5-0.2,0.8-0.4c0.2-0.2,0.4-0.4,0.6-0.8c0.1-0.3,0.2-0.8,0.2-1.3s-0.1-0.8-0.2-1.1c-0.1-0.3-0.3-0.5-0.5-0.7s-0.4-0.3-0.7-0.4
		c-0.3-0.1-0.6-0.1-0.9-0.1c-0.2,0-0.5,0-0.7,0s-0.4,0-0.6,0.1c0,0.3,0,0.5,0,0.8s0,0.6,0,0.8L85.2,83.4L85.2,83.4z"/>
	<path class="st0" d="M96.8,85.2c-0.1,0.1-0.2,0.1-0.4,0.1c-0.1,0-0.3,0.1-0.5,0.1s-0.4,0-0.6,0c-0.4,0-0.8-0.1-1.1-0.2
		c-0.3-0.1-0.7-0.3-0.9-0.5s-0.5-0.5-0.6-0.9c-0.1-0.3-0.2-0.7-0.2-1.2c0-0.4,0.1-0.8,0.2-1.2c0.1-0.3,0.3-0.6,0.6-0.9
		s0.6-0.4,0.9-0.6c0.4-0.1,0.8-0.2,1.2-0.2c0.3,0,0.7,0,0.9,0.1c0.3,0.1,0.5,0.2,0.8,0.3c0,0.1-0.1,0.2-0.1,0.3c0,0.1,0,0.2-0.1,0.3
		l0,0c-0.1-0.1-0.1-0.1-0.2-0.2s-0.2-0.2-0.3-0.2c-0.1-0.1-0.3-0.1-0.4-0.2C95.8,80,95.7,80,95.5,80c-0.3,0-0.6,0-0.9,0.1
		s-0.5,0.3-0.7,0.5s-0.3,0.5-0.5,0.8c-0.1,0.3-0.2,0.7-0.2,1.1s0.1,0.8,0.2,1.1c0.1,0.3,0.3,0.6,0.5,0.8c0.2,0.2,0.4,0.4,0.7,0.5
		c0.3,0.1,0.5,0.1,0.9,0.1c0.2,0,0.4,0,0.5-0.1c0.2,0,0.3-0.1,0.4-0.2s0.3-0.1,0.4-0.2s0.2-0.1,0.3-0.2l0,0L97,85.1
		C97,85.1,96.9,85.2,96.8,85.2"/>
	<path class="st0" d="M98.3,81c0-0.3,0-0.7,0-1c0.1,0,0.1,0,0.2,0s0.1,0,0.2,0s0.1,0,0.2,0s0.1,0,0.2,0c0,0.3,0,0.7,0,1s0,0.7,0,1
		c0,0.7,0,1.2,0,1.7s0,0.9,0,1.3c0.4,0,0.7,0,1.1,0c0.3,0,0.7,0,1.1-0.1c0,0.1,0,0.2,0,0.2c0,0.1,0,0.1,0,0.2c-0.2,0-0.5,0-0.7,0
		h-0.7H99c-0.2,0-0.5,0-0.7,0c0-0.3,0-0.7,0-1s0-0.7,0-1V82C98.3,81.7,98.3,81.3,98.3,81"/>
	<path class="st0" d="M106.6,85.4c-0.1,0-0.1,0-0.2,0h-0.2H106c-0.1,0-0.1,0-0.2,0c0-0.1-0.1-0.3-0.1-0.4c-0.1-0.2-0.1-0.3-0.2-0.5
		s-0.2-0.4-0.2-0.6c-0.1-0.2-0.2-0.4-0.2-0.5c-0.2,0-0.3,0-0.5,0s-0.3,0-0.5,0s-0.3,0-0.5,0s-0.3,0-0.5,0c-0.2,0.4-0.3,0.8-0.5,1.2
		c-0.1,0.4-0.2,0.7-0.3,0.9c-0.1,0-0.2,0-0.3,0c-0.1,0-0.2,0-0.3,0c0.4-0.9,0.8-1.8,1.2-2.7c0.4-0.9,0.8-1.8,1.2-2.8h0.1
		c0.1,0.3,0.3,0.6,0.4,1s0.3,0.7,0.4,1.1c0.2,0.4,0.3,0.7,0.5,1.1s0.3,0.7,0.4,1s0.3,0.6,0.4,0.8C106.5,85.1,106.6,85.3,106.6,85.4
		 M103.2,83c0.1,0,0.3,0,0.4,0s0.3,0,0.4,0s0.3,0,0.4,0s0.3,0,0.4,0l-0.9-2L103.2,83z"/>
	<path class="st0" d="M107.6,84.7c0.1,0.1,0.2,0.2,0.3,0.3c0.1,0.1,0.2,0.1,0.4,0.2c0.1,0.1,0.3,0.1,0.5,0.1s0.3,0,0.5-0.1
		c0.1-0.1,0.3-0.1,0.4-0.2s0.2-0.2,0.2-0.4c0.1-0.1,0.1-0.3,0.1-0.4c0-0.2-0.1-0.4-0.2-0.6c-0.1-0.1-0.3-0.3-0.5-0.4
		s-0.4-0.2-0.6-0.3c-0.2-0.1-0.4-0.2-0.6-0.3c-0.2-0.1-0.3-0.3-0.5-0.5c-0.1-0.2-0.2-0.4-0.2-0.7c0-0.2,0-0.4,0.1-0.6
		s0.2-0.3,0.3-0.5c0.1-0.1,0.3-0.2,0.5-0.3c0.2-0.1,0.4-0.1,0.7-0.1c0.3,0,0.5,0,0.7,0.1s0.4,0.2,0.5,0.3c0,0.1-0.1,0.2-0.1,0.3
		c0,0.1-0.1,0.2-0.1,0.4h-0.1c0-0.1-0.1-0.2-0.1-0.2c0-0.1-0.1-0.2-0.2-0.2c-0.1-0.1-0.2-0.1-0.3-0.2c-0.1-0.1-0.2-0.1-0.4-0.1
		c-0.1,0-0.3,0-0.4,0.1c-0.1,0-0.2,0.1-0.3,0.2c-0.1,0.1-0.2,0.2-0.2,0.3c-0.1,0.1-0.1,0.3-0.1,0.4c0,0.2,0.1,0.4,0.2,0.6
		c0.1,0.1,0.3,0.3,0.5,0.4s0.4,0.2,0.6,0.3s0.4,0.2,0.6,0.3c0.2,0.1,0.3,0.3,0.5,0.4s0.2,0.4,0.2,0.7c0,0.2,0,0.5-0.1,0.7
		s-0.2,0.4-0.4,0.6c-0.2,0.2-0.4,0.3-0.6,0.4s-0.5,0.1-0.8,0.1s-0.6,0-0.8-0.1c-0.2-0.1-0.4-0.2-0.5-0.3c0-0.1,0.1-0.2,0.1-0.3
		c0-0.1,0-0.2,0.1-0.4L107.6,84.7C107.5,84.5,107.5,84.6,107.6,84.7"/>
	<path class="st0" d="M111.6,84.7c0.1,0.1,0.2,0.2,0.3,0.3c0.1,0.1,0.2,0.1,0.4,0.2c0.1,0.1,0.3,0.1,0.5,0.1s0.3,0,0.5-0.1
		c0.1-0.1,0.3-0.1,0.4-0.2s0.2-0.2,0.2-0.4c0.1-0.1,0.1-0.3,0.1-0.4c0-0.2-0.1-0.4-0.2-0.6c-0.1-0.1-0.3-0.3-0.5-0.4
		s-0.4-0.2-0.6-0.3c-0.2-0.1-0.4-0.2-0.6-0.3c-0.2-0.1-0.3-0.3-0.5-0.5c-0.1-0.2-0.2-0.4-0.2-0.7c0-0.2,0-0.4,0.1-0.6
		s0.2-0.3,0.3-0.5c0.1-0.1,0.3-0.2,0.5-0.3c0.2-0.1,0.4-0.1,0.7-0.1c0.3,0,0.5,0,0.7,0.1s0.4,0.2,0.5,0.3c0,0.1-0.1,0.2-0.1,0.3
		c0,0.1-0.1,0.2-0.1,0.4h-0.1c0-0.1-0.1-0.2-0.1-0.2c0-0.1-0.1-0.2-0.2-0.2c-0.1-0.1-0.2-0.1-0.3-0.2c-0.1-0.1-0.2-0.1-0.4-0.1
		c-0.1,0-0.3,0-0.4,0.1c-0.1,0-0.2,0.1-0.3,0.2c-0.1,0.1-0.2,0.2-0.2,0.3c-0.1,0.1-0.1,0.3-0.1,0.4c0,0.2,0.1,0.4,0.2,0.6
		c0.1,0.1,0.3,0.3,0.5,0.4s0.4,0.2,0.6,0.3s0.4,0.2,0.6,0.3c0.2,0.1,0.3,0.3,0.5,0.4s0.2,0.4,0.2,0.7c0,0.2,0,0.5-0.1,0.7
		s-0.2,0.4-0.4,0.6c-0.2,0.2-0.4,0.3-0.6,0.4s-0.5,0.1-0.8,0.1s-0.6,0-0.8-0.1c-0.2-0.1-0.4-0.2-0.5-0.3c0-0.1,0.1-0.2,0.1-0.3
		c0-0.1,0-0.2,0.1-0.4L111.6,84.7C111.5,84.5,111.6,84.6,111.6,84.7"/>
	<line class="st1" x1="2.3" y1="72.8" x2="114.6" y2="72.8"/>
</g>
</svg>
