<svg xmlns="http://www.w3.org/2000/svg" width="366.509" height="60.062" viewBox="0 0 366.509 60.062"><g transform="translate(-999.396 -832.097)"><path d="M9.282-32.331a.62.62,0,0,1,.624-.507.726.726,0,0,1,.468.156l1.56,1.053q1.677.858,1.677,1.209,0,.156-.429.234h-.117a1.342,1.342,0,0,0-.975.507A41.783,41.783,0,0,1,7.956-25.8a35.575,35.575,0,0,1-4.875,3.413q-.663.351-.858.117a.159.159,0,0,1-.039-.117q0-.273.429-.663a41.968,41.968,0,0,0,3.12-3.471,28.943,28.943,0,0,0,2.009-2.886A23.029,23.029,0,0,0,9.282-32.331ZM31.044-19.5a1.121,1.121,0,0,0,.975-.507l.507-.741q.156-.195.41-.546t.41-.526A.432.432,0,0,1,33.657-22a3.99,3.99,0,0,1,1.463.936,10.415,10.415,0,0,1,1.658,1.6.858.858,0,0,1,.195.468.558.558,0,0,1-.234.429,1.18,1.18,0,0,1-.7.2H19.695a42.009,42.009,0,0,0-5.148.429h-.234a.8.8,0,0,1-.78-.507l-.156-.312a.971.971,0,0,1-.117-.429.467.467,0,0,1,.195-.41.785.785,0,0,1,.546-.1q1.4.117,4.056.195h3.9a.817.817,0,0,0,.6-.215.817.817,0,0,0,.215-.6v-4.407a.817.817,0,0,0-.215-.6.817.817,0,0,0-.6-.214H20.241a23.819,23.819,0,0,0-3.9.429h-.234a.8.8,0,0,1-.78-.507l-.156-.312a1.038,1.038,0,0,1-.117-.468.429.429,0,0,1,.2-.371.785.785,0,0,1,.546-.1q1.326.117,4.017.195h2.145a.724.724,0,0,0,.819-.819q-.078-2.457-.234-4.29v-.156q0-.624.546-.624a2.345,2.345,0,0,1,.39.078,20.185,20.185,0,0,1,2.438.819q.682.312.682.546,0,.156-.273.351l-.039.039a1.162,1.162,0,0,0-.546.975v2.262a.817.817,0,0,0,.214.6.817.817,0,0,0,.6.214H29.64a1.121,1.121,0,0,0,.975-.507l.507-.7q.156-.2.41-.546t.41-.527a.432.432,0,0,1,.312-.175,3.791,3.791,0,0,1,1.423.916,10.459,10.459,0,0,1,1.618,1.58.858.858,0,0,1,.2.468.558.558,0,0,1-.234.429,1.179,1.179,0,0,1-.7.2h-8a.817.817,0,0,0-.6.214.817.817,0,0,0-.214.6v4.407a.817.817,0,0,0,.214.6.817.817,0,0,0,.6.215ZM6.981-13.143q0-.7-.429-.7a.873.873,0,0,0-.585.312,29.031,29.031,0,0,1-3.081,2.847q-.624.429-.819.234l-.078-.156a1.456,1.456,0,0,1,.351-.663,53.109,53.109,0,0,0,4.836-7.137,24.469,24.469,0,0,0,2.691-6.123q.2-.585.624-.585A1.033,1.033,0,0,1,11-24.96q3.2,1.716,3.2,2.184,0,.156-.351.234h-.117a1.436,1.436,0,0,0-.9.624q-.741,1.131-2.262,3.159l-.546.741.039.039a1.611,1.611,0,0,1,.624.448.242.242,0,0,1-.078.41,1.349,1.349,0,0,0-.624.936v8.97q.078,4.251.273,8.58v.156a.934.934,0,0,1-.39.819,4.458,4.458,0,0,1-1.072.585,3.28,3.28,0,0,1-1.19.234,1.18,1.18,0,0,1-.76-.234.686.686,0,0,1-.293-.546q.156-2.3.273-4.465t.156-5.675Zm22.893,1.911a1.121,1.121,0,0,0,.975-.507l.468-.7q.156-.2.41-.546t.41-.526a.432.432,0,0,1,.312-.175,4.122,4.122,0,0,1,1.4.936,12.824,12.824,0,0,1,1.677,1.6.858.858,0,0,1,.195.468.558.558,0,0,1-.234.429,1.369,1.369,0,0,1-.741.2H27.261a.817.817,0,0,0-.6.214.817.817,0,0,0-.215.6V-2.3a.794.794,0,0,0,.7.9,27.786,27.786,0,0,0,4.992.39h4.407q.819,0,.819.234,0,.117-.234.273a2.373,2.373,0,0,0-.351.273,2.55,2.55,0,0,0-.819,1.6q-.117.78-.819.78H31.863A19.49,19.49,0,0,1,25.8,1.326a9.691,9.691,0,0,1-4.251-2.808,15.6,15.6,0,0,1-2.944-5.5q-.156-.507-.39-.507t-.351.507a20.95,20.95,0,0,1-5.733,9.555q-.585.507-.78.312a.265.265,0,0,1-.078-.2,1.333,1.333,0,0,1,.312-.624,25.685,25.685,0,0,0,3.744-9.555,28.556,28.556,0,0,0,.507-5.655q0-1.053-.039-1.521v-.078q0-.819.936-.7,3.588.663,3.588,1.092,0,.2-.312.312l-.156.078a1,1,0,0,0-.624.9,27.891,27.891,0,0,1-.585,3,2.079,2.079,0,0,0-.039.468,2,2,0,0,0,.117.624,12.7,12.7,0,0,0,3.744,5.577.858.858,0,0,0,.468.195.48.48,0,0,0,.39-.195.853.853,0,0,0,.156-.546v-6.4a62.213,62.213,0,0,0-.351-6.981v-.156q0-.624.546-.624a2.345,2.345,0,0,1,.39.078q3.237.9,3.237,1.4,0,.117-.273.312h-.039a1.078,1.078,0,0,0-.546,1.014v3.237a.817.817,0,0,0,.215.6.817.817,0,0,0,.6.215ZM65.208-26.871a1.121,1.121,0,0,0,.975-.507l.585-.78q.156-.234.429-.6a5.044,5.044,0,0,1,.449-.546.492.492,0,0,1,.331-.175,4.6,4.6,0,0,1,1.58,1.014,11.357,11.357,0,0,1,1.813,1.716.858.858,0,0,1,.2.468.562.562,0,0,1-.2.39,1.446,1.446,0,0,1-.78.2H60.879a.817.817,0,0,0-.6.214.817.817,0,0,0-.214.6v3.666a.817.817,0,0,0,.214.6.817.817,0,0,0,.6.215h8.346A1.121,1.121,0,0,0,70.2-20.9l.585-.819.41-.546a5.7,5.7,0,0,1,.487-.585.538.538,0,0,1,.351-.2,4.72,4.72,0,0,1,1.6,1.014A12.956,12.956,0,0,1,75.5-20.319a.6.6,0,0,1,.195.429.558.558,0,0,1-.234.429,1.369,1.369,0,0,1-.741.2H47.853a42.009,42.009,0,0,0-5.148.429h-.234a.8.8,0,0,1-.78-.507l-.156-.312a1.038,1.038,0,0,1-.117-.468.429.429,0,0,1,.195-.371.785.785,0,0,1,.546-.1q1.248.117,3.744.195h1.56a.817.817,0,0,0,.6-.215.817.817,0,0,0,.215-.6v-.819a62.213,62.213,0,0,0-.351-6.981v-.156a.552.552,0,0,1,.624-.624,1.015,1.015,0,0,1,.312.039,21.285,21.285,0,0,1,2.5.819q.7.312.7.546,0,.117-.273.312l-.078.039a1.1,1.1,0,0,0-.546.975v5.85a.817.817,0,0,0,.215.6.817.817,0,0,0,.6.215H56.2a.817.817,0,0,0,.6-.215.817.817,0,0,0,.215-.6v-3.822a62.88,62.88,0,0,0-.351-6.981v-.156q0-.624.585-.624a1.014,1.014,0,0,1,.312.039q3.51.9,3.51,1.4,0,.195-.351.39l-.117.078a1.1,1.1,0,0,0-.546.975v2.223a.817.817,0,0,0,.214.6.817.817,0,0,0,.6.215ZM57.018-14.2a34.587,34.587,0,0,0-.195-4.056v-.078q0-.7.585-.7l.351.078q1.755.507,2.457.8t.7.526q0,.156-.273.351l-.078.039a1.1,1.1,0,0,0-.546.975V-9.2a6.358,6.358,0,0,1-.253,1.97,2.443,2.443,0,0,1-1.014,1.267,5.778,5.778,0,0,1-2.282.741h-.156a.715.715,0,0,1-.527-.175,1.052,1.052,0,0,1-.253-.526,2.16,2.16,0,0,0-.7-1.326,5.2,5.2,0,0,0-2.34-.936q-.78-.117-.78-.429,0-.2.585-.195-.039,0,2.535.117l1.4.078a.912.912,0,0,0,.6-.156.705.705,0,0,0,.175-.546ZM49.53-17.238q.2-.546.585-.546a.726.726,0,0,1,.468.156l1.6.975q1.716.741,1.716,1.092,0,.2-.429.273h-.117a1.249,1.249,0,0,0-.936.546,31.592,31.592,0,0,1-4.465,4.5,31.467,31.467,0,0,1-5.557,3.763q-.7.312-.858.078a.159.159,0,0,1-.039-.117q0-.234.468-.624a36.175,36.175,0,0,0,4.173-4.251,20.973,20.973,0,0,0,1.989-2.886A18.821,18.821,0,0,0,49.53-17.238Zm15.132,1.014q-.663-.468-.546-.663A.422.422,0,0,1,64.428-17l.546.078a20.717,20.717,0,0,1,5.382,2.047,9.942,9.942,0,0,1,3.061,2.535,4.18,4.18,0,0,1,.956,2.4A1.669,1.669,0,0,1,74-8.814a1.247,1.247,0,0,1-.995.429,2.15,2.15,0,0,1-.429-.078,1.5,1.5,0,0,1-.78-.624,17.033,17.033,0,0,0-2.983-3.666A35.2,35.2,0,0,0,64.662-16.224Zm.585,4.758a.7.7,0,0,1,.624-.429,1.033,1.033,0,0,1,.507.156L67.9-10.686q1.638.819,1.638,1.17,0,.156-.507.234l-.234.039a1.434,1.434,0,0,0-.975.507,29.936,29.936,0,0,1-6.786,6.279,29.363,29.363,0,0,1-7.742,3.608A55.934,55.934,0,0,1,43.875,3l-.312.039q-.468,0-.546-.273V2.73q0-.273.741-.468A56.86,56.86,0,0,0,53.118-.7,27.636,27.636,0,0,0,60.45-5.3,23.147,23.147,0,0,0,63.083-8.21,22.306,22.306,0,0,0,65.247-11.466Zm37.47-23.877a14.218,14.218,0,0,1,8.008,2.233,14.717,14.717,0,0,1,5.2,5.929,17.965,17.965,0,0,1,1.809,8.008,23.555,23.555,0,0,1-2.156,10.087,18.109,18.109,0,0,1-6.16,7.392,15.834,15.834,0,0,1-9.24,2.772A16.24,16.24,0,0,1,90.436-2a19.943,19.943,0,0,1-6.622-8.547A31.547,31.547,0,0,1,81.465-23.1q0-10.78,3.234-18.441t8.162-11.512a16.081,16.081,0,0,1,9.933-3.85,16.838,16.838,0,0,1,6.738,1.194,9.549,9.549,0,0,1,4.043,3,6.014,6.014,0,0,1,1.309,3.5,4.052,4.052,0,0,1-1.232,3.042,4.062,4.062,0,0,1-2.926,1.194,4.275,4.275,0,0,1-3.234-1.5,6.216,6.216,0,0,1-1.54-3.965,4.856,4.856,0,0,0-.963-2.849,3.258,3.258,0,0,0-2.579-.924q-5.236,0-8.277,6.507a52.53,52.53,0,0,0-4.2,15.669q-.077,1.232.924,1.232a3.274,3.274,0,0,0,1.925-.847A15.007,15.007,0,0,1,102.717-35.343ZM100.176-1.925a7.044,7.044,0,0,0,5.2-2.233,14.76,14.76,0,0,0,3.388-5.968,26.555,26.555,0,0,0,1.193-8.123q0-8.008-3.08-10.7a9.977,9.977,0,0,0-6.7-2.7A10.588,10.588,0,0,0,94.439-29.8a12.99,12.99,0,0,0-4.659,5.621,5.153,5.153,0,0,0-.385,2A40.636,40.636,0,0,0,91.783-7.892Q94.093-1.925,100.176-1.925Zm46.8-27.793q-.663.117-.663.585a.92.92,0,0,0,.117.39,22.631,22.631,0,0,0,4.66,5.85,28.368,28.368,0,0,0,6.65,4.641q.663.312.663.468,0,.117-.2.234a1.949,1.949,0,0,1-.468.195,4.687,4.687,0,0,0-1.755,1.6.679.679,0,0,1-.585.429.726.726,0,0,1-.468-.156,29.545,29.545,0,0,1-5.869-6.123,28.888,28.888,0,0,1-3.919-7.527.912.912,0,0,0-.936-.663h-2.028a28.525,28.525,0,0,0-4.29.429h-.234a.879.879,0,0,1-.819-.507l-.156-.312a1.038,1.038,0,0,1-.117-.468.429.429,0,0,1,.195-.37.785.785,0,0,1,.546-.1q1.326.117,4.017.195h2.028a1.1,1.1,0,0,0,.975-.546l.468-.741a.705.705,0,0,1,.624-.39.891.891,0,0,1,.507.195l1.911,1.365a1.462,1.462,0,0,1,.468.546.314.314,0,0,1-.117.429A4.193,4.193,0,0,1,146.978-29.718Zm-15.21.546q.117-.624.624-.624a.971.971,0,0,1,.429.117l1.638.9q1.833.7,1.833,1.053,0,.2-.429.312l-.117.039a1.19,1.19,0,0,0-.858.624,41.311,41.311,0,0,1-4.622,6.591,30.534,30.534,0,0,1-6.064,5.5q-.663.429-.819.195a.226.226,0,0,1-.039-.156,1.068,1.068,0,0,1,.39-.624,36,36,0,0,0,5.538-7.683A26.1,26.1,0,0,0,131.768-29.172Zm3.939,14.157q0-.663-.78-.663h-1.521a24.448,24.448,0,0,0-3.588.39.864.864,0,0,1-.273.039.851.851,0,0,1-.78-.507l-.156-.312a1.039,1.039,0,0,1-.117-.468.429.429,0,0,1,.195-.371.785.785,0,0,1,.546-.1q1.326.117,4.017.195h13.572a1.19,1.19,0,0,0,1.014-.468l.39-.429q.156-.156.488-.527t.565-.371a3.332,3.332,0,0,1,1.248.8,10.575,10.575,0,0,1,1.482,1.424,1.227,1.227,0,0,1,.156.429.576.576,0,0,1-.351.507l-.273.117a.926.926,0,0,0-.78.9,93.4,93.4,0,0,1-1.053,10.823q-.7,4-1.989,5.246a5.77,5.77,0,0,1-3.705,1.443H143.9q-.624,0-.741-.78a2.076,2.076,0,0,0-.741-1.4,3.9,3.9,0,0,0-1.229-.624,12.4,12.4,0,0,0-1.969-.507q-.741-.117-.741-.468,0-.312.858-.234,3.237.351,4.836.351a3.7,3.7,0,0,0,.858-.078,1.263,1.263,0,0,0,.585-.351q.78-.741,1.326-4.388t.819-9.418V-14.9a.731.731,0,0,0-.234-.566.833.833,0,0,0-.585-.215h-7.02a.758.758,0,0,0-.858.741A27.487,27.487,0,0,1,137.4-8.424,18.833,18.833,0,0,1,133.445-2.5a26.557,26.557,0,0,1-7.566,5.3,1.5,1.5,0,0,1-.585.2.314.314,0,0,1-.312-.156q-.117-.156.156-.429a10.265,10.265,0,0,1,.936-.78,23.369,23.369,0,0,0,5.675-5.285,18.406,18.406,0,0,0,2.867-5.479,28.349,28.349,0,0,0,1.092-5.733Z" transform="translate(1207.5 889)" fill="#efefef"/><path d="M6.412-.252A.3.3,0,0,1,6.09,0H1.078Q.84,0,.784-.154A.772.772,0,0,1,.756-.308.465.465,0,0,1,.8-.49,8.622,8.622,0,0,1,1.834-2.38q.63-.868,1.652-2.016A14.8,14.8,0,0,0,4.991-6.335a3.035,3.035,0,0,0,.455-1.6A2.149,2.149,0,0,0,5-9.31a1.6,1.6,0,0,0-1.337-.56,1.939,1.939,0,0,0-1.113.308.918.918,0,0,0-.455.784.684.684,0,0,0,.063.308,1.554,1.554,0,0,0,.189.28,1.808,1.808,0,0,1,.189.3A.766.766,0,0,1,2.6-7.56a.759.759,0,0,1-.231.581.834.834,0,0,1-.595.217.766.766,0,0,1-.574-.3,1.172,1.172,0,0,1-.266-.8,2.179,2.179,0,0,1,.343-1.12,2.792,2.792,0,0,1,1.008-.966,3.1,3.1,0,0,1,1.6-.392,3.33,3.33,0,0,1,1.687.385,2.4,2.4,0,0,1,.973.994A2.86,2.86,0,0,1,6.86-7.658a2.5,2.5,0,0,1-.231,1.106,3,3,0,0,1-.6.84q-.371.364-1.085.966-.56.462-.952.812A9.613,9.613,0,0,0,2.016-1.526a.241.241,0,0,0-.056.154.168.168,0,0,0,.077.14.313.313,0,0,0,.189.056h1.4a8.011,8.011,0,0,0,1.6-.119,1.593,1.593,0,0,0,.833-.427,3.237,3.237,0,0,0,.574-.994q.028-.084.1-.084l.112.028a.621.621,0,0,1,.112.056A.094.094,0,0,1,7-2.632l-.014.07ZM18.578-7.588a.4.4,0,0,0,.35-.182l.182-.252q.07-.084.14-.182a1.913,1.913,0,0,1,.14-.175.189.189,0,0,1,.126-.077,1.438,1.438,0,0,1,.525.329,3.554,3.554,0,0,1,.595.567.308.308,0,0,1,.07.168.2.2,0,0,1-.07.14.492.492,0,0,1-.266.07H16.226a.338.338,0,0,0-.2.049.143.143,0,0,0-.07.119.307.307,0,0,0,.112.2,8.2,8.2,0,0,0,2.051,1.309,13.1,13.1,0,0,0,2.555.875q.28.07.266.126a.166.166,0,0,1-.1.1l-.14.07a1.063,1.063,0,0,0-.5.574q-.084.21-.252.21a.444.444,0,0,1-.126-.028l-.5-.21a.465.465,0,0,0-.182-.042.443.443,0,0,0-.224.056q-.028,0-.14.112a.323.323,0,0,0-.112.224v1.218q.042,1.792.084,2.66V.49a.325.325,0,0,1-.154.294,2.032,2.032,0,0,1-.406.189,1.262,1.262,0,0,1-.406.077.207.207,0,0,1-.2-.1.33.33,0,0,1-.042-.14A.766.766,0,0,1,17.57.644.87.87,0,0,0,17.6.518a.251.251,0,0,0-.077-.2A.311.311,0,0,0,17.3.252H12.11a.293.293,0,0,0-.217.077.293.293,0,0,0-.077.217V.784q0,.1-.294.224a1.482,1.482,0,0,1-.588.126.292.292,0,0,1-.2-.084.259.259,0,0,1-.091-.2q.056-.742.091-1.47T10.78-2.45v-1.4q0-.252-.2-.252a.348.348,0,0,0-.154.042q-.7.35-1.694.728a.452.452,0,0,1-.168.028.164.164,0,0,1-.14-.056A.057.057,0,0,1,8.414-3.4q0-.1.224-.2a13.987,13.987,0,0,0,2.226-1.463,11.022,11.022,0,0,0,1.764-1.757A.339.339,0,0,0,12.712-7a.154.154,0,0,0-.07-.133.311.311,0,0,0-.182-.049h-1.5a15.08,15.08,0,0,0-1.848.154H9.03a.288.288,0,0,1-.28-.182l-.056-.112a.373.373,0,0,1-.042-.168.154.154,0,0,1,.07-.133.282.282,0,0,1,.2-.035q.476.042,1.442.07h3.472a.293.293,0,0,0,.217-.077.293.293,0,0,0,.077-.217v-2.03a.3.3,0,0,0-.084-.224.263.263,0,0,0-.224-.07q-1.54.084-3.08.084H9.786q-.28-.028-.294-.14v-.014q0-.042.077-.077a.68.68,0,0,1,.2-.049q2.086-.154,4.4-.532t3.808-.784a.444.444,0,0,1,.126-.028.4.4,0,0,1,.28.14q.77.784.77.966,0,.084-.238.056l-.2-.042a.665.665,0,0,0-.154-.014,1.311,1.311,0,0,0-.21.014q-1.484.2-2.9.308a.27.27,0,0,0-.28.294v2.142a.293.293,0,0,0,.077.217.293.293,0,0,0,.217.077h.476a.313.313,0,0,0,.182-.035.208.208,0,0,0,.056-.133.78.78,0,0,1,.056-.168,9.931,9.931,0,0,0,.77-2.114q.042-.21.224-.21a.373.373,0,0,1,.168.042q1.19.588,1.19.756,0,.056-.126.084l-.07.014a.763.763,0,0,0-.336.2,16.123,16.123,0,0,1-1.274,1.218.264.264,0,0,0-.126.2.127.127,0,0,0,.07.112.35.35,0,0,0,.182.042ZM11.172-9.674a1.058,1.058,0,0,1-.1-.189q-.028-.077,0-.105a.111.111,0,0,1,.07-.014.542.542,0,0,1,.21.056,2.942,2.942,0,0,1,1.162.721,1.264,1.264,0,0,1,.364.833.726.726,0,0,1-.168.49.517.517,0,0,1-.406.2A.587.587,0,0,1,12-7.77a.448.448,0,0,1-.2-.336A4.042,4.042,0,0,0,11.172-9.674Zm2.954,3.3q0-.252-.154-.252a.307.307,0,0,0-.2.112,11.058,11.058,0,0,1-2.1,1.736q-.182.112-.182.224a.146.146,0,0,0,.112.14l.126.056a.93.93,0,0,0,.364.084h5.166a.427.427,0,0,0,.364-.168.241.241,0,0,0,.056-.154.276.276,0,0,0-.14-.224,7.874,7.874,0,0,1-2.086-2.17q-.112-.2-.2-.2t-.084.294v.49l.028.6q0,.266.028.686v.07a.375.375,0,0,1-.126.294,1.242,1.242,0,0,1-.812.252.226.226,0,0,1-.182-.084.3.3,0,0,1-.07-.2q.056-.518.084-1.33Zm-2.31,3.822a.293.293,0,0,0,.077.217.293.293,0,0,0,.217.077h1.736a.293.293,0,0,0,.217-.077.293.293,0,0,0,.077-.217V-3.556a.293.293,0,0,0-.077-.217.293.293,0,0,0-.217-.077H12.11a.293.293,0,0,0-.217.077.293.293,0,0,0-.077.217Zm3.374,0a.293.293,0,0,0,.077.217.293.293,0,0,0,.217.077H17.3a.293.293,0,0,0,.217-.077.293.293,0,0,0,.077-.217V-3.556a.293.293,0,0,0-.077-.217A.293.293,0,0,0,17.3-3.85h-1.82a.293.293,0,0,0-.217.077.293.293,0,0,0-.077.217Zm-1.05.98a.293.293,0,0,0-.077-.217.293.293,0,0,0-.217-.077H12.11a.293.293,0,0,0-.217.077.293.293,0,0,0-.077.217v1.12a.293.293,0,0,0,.077.217.293.293,0,0,0,.217.077h1.736a.293.293,0,0,0,.217-.077.293.293,0,0,0,.077-.217Zm1.344-.294a.293.293,0,0,0-.217.077.293.293,0,0,0-.077.217v1.12a.293.293,0,0,0,.077.217.293.293,0,0,0,.217.077H17.3a.293.293,0,0,0,.217-.077A.293.293,0,0,0,17.6-.448v-1.12a.293.293,0,0,0-.077-.217.293.293,0,0,0-.217-.077ZM32.508-.532a.293.293,0,0,0,.217-.077A.293.293,0,0,0,32.8-.826V-1.974a22.333,22.333,0,0,0-.126-2.506v-.056A.2.2,0,0,1,32.9-4.76a.364.364,0,0,1,.112.014,7.927,7.927,0,0,1,.917.315q.259.119.259.2,0,.056-.112.126l-.028.014a.4.4,0,0,0-.2.35V-2.6q.028,1.5.1,2.982v.07a.311.311,0,0,1-.126.28,1.41,1.41,0,0,1-.385.189,1.433,1.433,0,0,1-.455.077.156.156,0,0,1-.07-.014q-.168-.042-.168-.266a.766.766,0,0,0,.028-.168q0-.014.028-.294V.168a.293.293,0,0,0-.077-.217.293.293,0,0,0-.217-.077H24.78a.293.293,0,0,0-.217.077.293.293,0,0,0-.077.217V.182a1.83,1.83,0,0,1,.028.35.868.868,0,0,1-.021.217A.255.255,0,0,1,24.4.882a1.118,1.118,0,0,1-.343.168,1.346,1.346,0,0,1-.413.07.276.276,0,0,1-.294-.28q.07-.658.1-1.778V-1.974a22.333,22.333,0,0,0-.126-2.506v-.056a.2.2,0,0,1,.224-.224.364.364,0,0,1,.112.014,7.927,7.927,0,0,1,.917.315q.259.119.259.2,0,.056-.112.126l-.042.028a.375.375,0,0,0-.2.35v2.9a.293.293,0,0,0,.077.217.293.293,0,0,0,.217.077h2.968a.293.293,0,0,0,.217-.077.293.293,0,0,0,.077-.217V-5.7a.293.293,0,0,0-.077-.217.293.293,0,0,0-.217-.077H25.424a.293.293,0,0,0-.217.077.293.293,0,0,0-.077.217v.21q0,.084-.28.2a1.422,1.422,0,0,1-.56.119.258.258,0,0,1-.21-.084.3.3,0,0,1-.07-.2q.056-.588.084-1.484v-.882a19.876,19.876,0,0,0-.126-2.352v-.028q0-.252.224-.252a.364.364,0,0,1,.112.014,7.927,7.927,0,0,1,.917.315q.259.119.259.2,0,.056-.112.126l-.042.028a.375.375,0,0,0-.2.35v2.73a.293.293,0,0,0,.077.217.293.293,0,0,0,.217.077h2.324a.293.293,0,0,0,.217-.077.293.293,0,0,0,.077-.217V-8.9a22.333,22.333,0,0,0-.126-2.506v-.056a.2.2,0,0,1,.224-.224.364.364,0,0,1,.112.014,7.54,7.54,0,0,1,.959.322q.273.126.273.21t-.112.14l-.042.028a.4.4,0,0,0-.182.35v3.948a.293.293,0,0,0,.077.217.293.293,0,0,0,.217.077h2.394a.293.293,0,0,0,.217-.077.293.293,0,0,0,.077-.217v-.98A22.333,22.333,0,0,0,32-10.164v-.056a.2.2,0,0,1,.224-.224.364.364,0,0,1,.112.014,7.927,7.927,0,0,1,.917.315q.259.119.259.2,0,.056-.112.126l-.028.014a.4.4,0,0,0-.2.35v.966q.042,1.764.084,2.632v.07a.3.3,0,0,1-.14.28,1.584,1.584,0,0,1-.378.168,1.452,1.452,0,0,1-.434.07.207.207,0,0,1-.2-.1.33.33,0,0,1-.042-.14.491.491,0,0,1,.028-.154l.028-.238q0-.056-.077-.091a.539.539,0,0,0-.217-.035H29.442a.293.293,0,0,0-.217.077.293.293,0,0,0-.077.217V-.826a.293.293,0,0,0,.077.217.293.293,0,0,0,.217.077ZM42.84-5.642q-.056-.2-.126-.2t-.126.182A11.042,11.042,0,0,1,40.4-1.7,11.126,11.126,0,0,1,36.82,1.022q-.252.112-.308.014A.057.057,0,0,1,36.5.994q0-.084.21-.21a10,10,0,0,0,2.618-2.331,12.551,12.551,0,0,0,1.9-3.381,15.03,15.03,0,0,0,.924-4.214v-.7a.293.293,0,0,0-.077-.217.293.293,0,0,0-.217-.077h-.728a11.7,11.7,0,0,0-1.652.154H39.4a.288.288,0,0,1-.28-.182l-.056-.112a.348.348,0,0,1-.042-.154.168.168,0,0,1,.07-.147.282.282,0,0,1,.2-.035q.5.042,1.456.07h.882a.387.387,0,0,0,.364-.2l.294-.5a.261.261,0,0,1,.238-.154.246.246,0,0,1,.182.07l1.078.84a.3.3,0,0,1,.14.224.23.23,0,0,1-.126.182,2.578,2.578,0,0,1-.938.266.277.277,0,0,0-.28.308v.35a11.855,11.855,0,0,0,1.848,5.5A9.869,9.869,0,0,0,48.664-.14q.224.1.224.182,0,.056-.07.084a1.329,1.329,0,0,1-.2.056,1.2,1.2,0,0,0-.756.672q-.154.28-.322.182a10.537,10.537,0,0,1-2.891-2.751A10.6,10.6,0,0,1,42.84-5.642ZM53.27-.9a.293.293,0,0,0-.217.077.293.293,0,0,0-.077.217v.1L53,0l.014.126a.308.308,0,0,1-.1.224,1.072,1.072,0,0,1-.371.231,1.306,1.306,0,0,1-.483.091.381.381,0,0,1-.245-.084.246.246,0,0,1-.1-.2q.056-.826.1-1.6t.056-2.037V-7.154a21.905,21.905,0,0,0-.126-2.464v-.056q0-.21.182-.21a.312.312,0,0,1,.14.028l.84.378a.862.862,0,0,0,.364.084h6.636a.451.451,0,0,0,.364-.168l.294-.378a.258.258,0,0,1,.224-.126.317.317,0,0,1,.21.084,9.437,9.437,0,0,1,.749.637q.217.217.217.329t-.21.182l-.126.056a.327.327,0,0,0-.238.336v5.25q.028,1.54.1,3.066V-.07a.339.339,0,0,1-.154.308,2.135,2.135,0,0,1-.427.2,1.409,1.409,0,0,1-.455.084q-.224,0-.224-.28.028-.252.028-.364a.712.712,0,0,0,.014-.14.942.942,0,0,1,.014-.154V-.6a.293.293,0,0,0-.077-.217A.293.293,0,0,0,59.99-.9ZM53.27-9a.293.293,0,0,0-.217.077.293.293,0,0,0-.077.217v7.1a.293.293,0,0,0,.077.217.293.293,0,0,0,.217.077h6.72a.293.293,0,0,0,.217-.077.293.293,0,0,0,.077-.217v-7.1a.293.293,0,0,0-.077-.217A.293.293,0,0,0,59.99-9Z" transform="translate(1209.5 847)" fill="#efefef"/><path d="M21.351-1.98a.692.692,0,0,1-.181.511.692.692,0,0,1-.512.181h-.1a.692.692,0,0,1-.511-.181.692.692,0,0,1-.182-.511V-27.324a.692.692,0,0,1,.182-.512.692.692,0,0,1,.511-.181h9.7a.692.692,0,0,1,.512.181.692.692,0,0,1,.181.512v.1a.692.692,0,0,1-.181.512.692.692,0,0,1-.512.181H22.044a.692.692,0,0,0-.511.182.692.692,0,0,0-.181.511ZM41.712-5.643a.732.732,0,0,0-.116-.429.336.336,0,0,0-.28-.165.883.883,0,0,0-.429.165q-3.333,2.277-6.072,3.993a2.722,2.722,0,0,0-.5.429.579.579,0,0,1-.066.165.383.383,0,0,1-.33.231q-.33,0-.561-.429l-.924-2.046a.823.823,0,0,1-.066-.363q0-.4.495-.528,3.564-1.056,8.283-2.739a.772.772,0,0,0,.561-.792v-7.887a.692.692,0,0,0-.181-.511.692.692,0,0,0-.512-.182H38.676a35.547,35.547,0,0,0-4.356.363h-.2a.678.678,0,0,1-.66-.429l-.165-.3a.879.879,0,0,1-.1-.4.363.363,0,0,1,.165-.313.664.664,0,0,1,.462-.083q1.122.1,3.4.165h3.8a.692.692,0,0,0,.512-.181.692.692,0,0,0,.181-.512V-20.1a52.642,52.642,0,0,0-.3-5.907v-.132a.467.467,0,0,1,.528-.528.858.858,0,0,1,.264.033,19.652,19.652,0,0,1,2.211.742q.627.28.627.479,0,.165-.3.33l-.1.066a.931.931,0,0,0-.462.825V-6.27q.066,3.564.231,7.293v.2a.857.857,0,0,1-.264.627,2.867,2.867,0,0,1-.874.512,2.993,2.993,0,0,1-1.106.214.714.714,0,0,1-.528-.2.633.633,0,0,1-.2-.462q.2-2.706.264-5.478Zm9.966-19.239a.857.857,0,0,0-.264.726v9.339a.732.732,0,0,0,.116.429.336.336,0,0,0,.28.165.666.666,0,0,0,.462-.231q.891-.858,1.881-1.947a24.742,24.742,0,0,0,3.465-4.653.6.6,0,0,1,.528-.4.713.713,0,0,1,.462.2q2.508,1.848,2.508,2.244,0,.165-.33.165h-.132a1.233,1.233,0,0,0-.858.33,38.891,38.891,0,0,1-3.6,2.805,39.127,39.127,0,0,1-4.29,2.607.919.919,0,0,0-.495.825v10.2a1.022,1.022,0,0,0,.28.825,2,2,0,0,0,1.171.231h2.772q1.782,0,2.64-.066a.772.772,0,0,0,.693-.429,26.234,26.234,0,0,0,1.056-4.026q.132-.627.33-.627.1,0,.165.181a1.557,1.557,0,0,1,.066.512l.1,3.564a1.016,1.016,0,0,0,.528.825A.972.972,0,0,1,61.71-.2,1.13,1.13,0,0,1,61.182.808a4.512,4.512,0,0,1-1.848.5,36.867,36.867,0,0,1-3.828.148H52.371a6.812,6.812,0,0,1-2.145-.264A1.792,1.792,0,0,1,49.154.3a4.074,4.074,0,0,1-.314-1.782V-20.1a52.642,52.642,0,0,0-.3-5.907v-.132q0-.528.462-.528a1.984,1.984,0,0,1,.33.066,21.13,21.13,0,0,1,2.228.742q.644.281.644.479,0,.165-.264.33ZM65.043,0a.181.181,0,0,1-.181-.116.924.924,0,0,1-.049-.347.924.924,0,0,1,.049-.346.181.181,0,0,1,.181-.116h.5q3.762,0,3.762-2.244V-18.513a3.738,3.738,0,0,0-.215-1.518,1.124,1.124,0,0,0-.891-.545,16.552,16.552,0,0,0-2.393-.115h-.726q-.231,0-.231-.462t.231-.462a11.679,11.679,0,0,0,6.534-2.112.8.8,0,0,1,.429-.2.336.336,0,0,1,.281.165.732.732,0,0,1,.115.429V-3.168q0,2.244,3.8,2.244h.462a.181.181,0,0,1,.182.116.924.924,0,0,1,.049.346q0,.462-.231.462ZM88.8-12.969q-.4.1-.4.2t.363.2a8.353,8.353,0,0,1,4.076,2.194A5.245,5.245,0,0,1,94.38-6.567a6.669,6.669,0,0,1-.908,3.3A7.065,7.065,0,0,1,90.7-.594,9.149,9.149,0,0,1,86.13.462a8.032,8.032,0,0,1-3.779-.809A5.71,5.71,0,0,1,80.074-2.36a4.534,4.534,0,0,1-.743-2.392,2.153,2.153,0,0,1,.594-1.667,1.909,1.909,0,0,1,1.32-.544,2.317,2.317,0,0,1,1.4.445,1.512,1.512,0,0,1,.61,1.3A1.865,1.865,0,0,1,82.8-4.092a3.175,3.175,0,0,0-.33.5,1.1,1.1,0,0,0-.1.495,2.2,2.2,0,0,0,.841,1.716,3.954,3.954,0,0,0,2.623.726A4.444,4.444,0,0,0,89.5-2.409,6.847,6.847,0,0,0,90.882-6.8a5.751,5.751,0,0,0-1.3-3.911,4.651,4.651,0,0,0-3.713-1.5,5.378,5.378,0,0,0-.693.066,5.726,5.726,0,0,1-.792.066.931.931,0,0,1-.627-.2.661.661,0,0,1-.231-.528.609.609,0,0,1,.247-.495.946.946,0,0,1,.611-.2,3.531,3.531,0,0,1,.858.1,7.09,7.09,0,0,0,.825.066,4.491,4.491,0,0,0,2.723-.94q1.271-.94,1.271-3.976a5.219,5.219,0,0,0-1.172-3.845A3.863,3.863,0,0,0,86.1-23.232a4,4,0,0,0-1.9.462,1.643,1.643,0,0,0-.874,1.584,1.784,1.784,0,0,0,.132.726q.132.3.165.363a2.035,2.035,0,0,1,.3.99,1.584,1.584,0,0,1-.446,1.171,1.5,1.5,0,0,1-1.105.446,1.821,1.821,0,0,1-1.535-.66,2.56,2.56,0,0,1-.511-1.617,3.541,3.541,0,0,1,.792-2.046,6.219,6.219,0,0,1,2.228-1.831,6.9,6.9,0,0,1,3.217-.743,8,8,0,0,1,3.564.776A6.023,6.023,0,0,1,92.581-21.5a5.337,5.337,0,0,1,.874,2.986,5.384,5.384,0,0,1-1.171,3.432A6.4,6.4,0,0,1,88.8-12.969ZM114.939-24.42a1.161,1.161,0,0,0,.858-.33l.462-.462q.2-.165.544-.495a.962.962,0,0,1,.545-.33q.231,0,1.089.792a10.492,10.492,0,0,1,1.32,1.419.821.821,0,0,1,.1.363.448.448,0,0,1-.33.429,1.246,1.246,0,0,1-.4.066,1.184,1.184,0,0,0-.825.495,23.438,23.438,0,0,1-4.224,4.521.56.56,0,0,0-.3.462q0,.3.429.462a40.408,40.408,0,0,0,10.89,2.574q.693.033.693.231a.426.426,0,0,1-.182.2,2.388,2.388,0,0,1-.38.2,2.848,2.848,0,0,0-1.452,1.683.7.7,0,0,1-.858.5A29.685,29.685,0,0,1,112-15.741a.747.747,0,0,0-.495-.165.924.924,0,0,0-.462.132,38.182,38.182,0,0,1-13.629,4.686.858.858,0,0,1-.264.033q-.363,0-.429-.2v-.033q0-.2.66-.4a38.065,38.065,0,0,0,11.781-5.346.715.715,0,0,0,.33-.528.724.724,0,0,0-.264-.462,17.155,17.155,0,0,1-2.508-3.2.632.632,0,0,0-.495-.33.815.815,0,0,0-.462.2A27.319,27.319,0,0,1,98.6-16.533a1.064,1.064,0,0,1-.462.132.3.3,0,0,1-.264-.1v-.066q0-.2.462-.528a24.568,24.568,0,0,0,5.478-5.181,19.048,19.048,0,0,0,1.749-2.541,14.645,14.645,0,0,0,1.254-2.706.585.585,0,0,1,.561-.462,1.82,1.82,0,0,1,.363.066q3.168,1.122,3.168,1.452,0,.1-.3.165l-.132.033a1.267,1.267,0,0,0-.792.495,5.127,5.127,0,0,1-.363.5.713.713,0,0,0-.2.462.336.336,0,0,0,.165.281.732.732,0,0,0,.429.115Zm-.2,1.815a.614.614,0,0,0,.132-.4q0-.429-.594-.429h-5.94a1.128,1.128,0,0,0-.858.4l-.132.132a.727.727,0,0,0-.231.528.7.7,0,0,0,.165.462,14.675,14.675,0,0,0,3.333,3,.908.908,0,0,0,.462.165.761.761,0,0,0,.528-.264A22.566,22.566,0,0,0,114.741-22.6Zm5.643,13.827a.948.948,0,0,0,.825-.429l.5-.693q.165-.231.38-.544a3.383,3.383,0,0,1,.363-.462.417.417,0,0,1,.281-.149,4.146,4.146,0,0,1,1.3.875A11.91,11.91,0,0,1,125.6-8.712a.568.568,0,0,1,.132.363.5.5,0,0,1-.2.4,1.114,1.114,0,0,1-.561.132H114.609q-.627,0-.627.429a.644.644,0,0,0,.231.429,20.008,20.008,0,0,0,5.1,3.564A27.336,27.336,0,0,0,125.5-1.155q.627.165.627.3-.033.132-.247.231t-.313.132a3.033,3.033,0,0,0-1.452,1.617q-.2.495-.561.495a.54.54,0,0,1-.3-.066,21.478,21.478,0,0,1-6.006-3.581,19.362,19.362,0,0,1-4.389-5.3,2.523,2.523,0,0,0-.33-.495h-.1v3.234q.1,3.861.2,5.775v.165a.734.734,0,0,1-.3.66,3.257,3.257,0,0,1-.94.446,3.783,3.783,0,0,1-1.138.181.714.714,0,0,1-.528-.2.633.633,0,0,1-.2-.462q.2-2.739.264-5.445V-5.28q0-.561-.363-.561a.638.638,0,0,0-.462.264A29.085,29.085,0,0,1,97.119,1.749a1.583,1.583,0,0,1-.462.1q-.231,0-.264-.132V1.65q0-.231.495-.528a29.048,29.048,0,0,0,5.379-3.6,28.527,28.527,0,0,0,4.323-4.488.657.657,0,0,0,.165-.429.363.363,0,0,0-.165-.313.732.732,0,0,0-.429-.115h-3.993a34.189,34.189,0,0,0-4.356.363h-.165a.744.744,0,0,1-.693-.429l-.132-.264a1.838,1.838,0,0,1-.132-.4.363.363,0,0,1,.165-.314.664.664,0,0,1,.462-.082q1.122.1,3.4.165H109.1a.613.613,0,0,0,.693-.693,28.4,28.4,0,0,0-.165-3v-.066q0-.594.528-.594a.858.858,0,0,1,.264.033,21.13,21.13,0,0,1,2.228.743q.644.281.644.479,0,.165-.3.33l-.1.066a.931.931,0,0,0-.462.825v1.188a.692.692,0,0,0,.182.512.692.692,0,0,0,.511.181Zm28.974-10.164a.931.931,0,0,0,.825-.462l.3-.429q.132-.165.264-.363a3.169,3.169,0,0,1,.281-.363.4.4,0,0,1,.281-.165,3.329,3.329,0,0,1,1.155.743,11.724,11.724,0,0,1,1.419,1.3.568.568,0,0,1,.132.363.557.557,0,0,1-.33.462.517.517,0,0,1-.132.1l-.132.066a1.306,1.306,0,0,0-.446.3.666.666,0,0,0-.148.462v2.607q.1,3.927.2,5.742v.165a.708.708,0,0,1-.33.66,5.554,5.554,0,0,1-1.023.478,3.16,3.16,0,0,1-1.056.214.332.332,0,0,1-.281-.181.952.952,0,0,1-.115-.511v-.264a.692.692,0,0,0-.182-.512.692.692,0,0,0-.511-.181h-3.7q-.594,0-.594.4a.815.815,0,0,0,.2.462,22.2,22.2,0,0,0,5.247,4.026,28.6,28.6,0,0,0,6.435,2.706q.693.165.627.33-.033.132-.247.231t-.314.132a2.929,2.929,0,0,0-1.419,1.485.64.64,0,0,1-.594.462,1.985,1.985,0,0,1-.33-.066,23.678,23.678,0,0,1-5.643-3.581,22.149,22.149,0,0,1-4.356-5q-.231-.363-.462-.363-.33,0-.33.594v1.815q.1,4.125.2,6.171v.2a.847.847,0,0,1-.231.627,2.893,2.893,0,0,1-.924.545,3.122,3.122,0,0,1-1.122.214.759.759,0,0,1-.561-.2.633.633,0,0,1-.2-.462q.2-2.607.264-5.28V-5.049a.81.81,0,0,0-.1-.446.3.3,0,0,0-.264-.148.666.666,0,0,0-.462.231,29.247,29.247,0,0,1-5.181,4.026,35.17,35.17,0,0,1-6.336,3.069,1.583,1.583,0,0,1-.462.1.357.357,0,0,1-.264-.1.134.134,0,0,1-.033-.1q0-.2.528-.5a32.582,32.582,0,0,0,5.858-4.026,28.781,28.781,0,0,0,4.6-4.95.657.657,0,0,0,.165-.429.336.336,0,0,0-.165-.281.732.732,0,0,0-.429-.115h-2.805a.692.692,0,0,0-.512.181.692.692,0,0,0-.181.512v.363q0,.231-.71.561a3.374,3.374,0,0,1-1.436.33.532.532,0,0,1-.429-.2.7.7,0,0,1-.165-.462q.132-1.518.2-3.894V-13.6a52.2,52.2,0,0,0-.3-5.808v-.132q0-.495.429-.5a.735.735,0,0,1,.33.066l1.914.858a2.059,2.059,0,0,0,.858.165h4.653a.692.692,0,0,0,.512-.182.692.692,0,0,0,.182-.511v-1.98a.692.692,0,0,0-.182-.511.692.692,0,0,0-.512-.182h-6.336a35.547,35.547,0,0,0-4.356.363h-.2a.678.678,0,0,1-.66-.429l-.165-.3a.821.821,0,0,1-.1-.363q0-.495.66-.429,1.122.1,3.4.165h7.755a.613.613,0,0,0,.693-.693q-.066-1.716-.2-3.1v-.066q0-.594.5-.594l.3.066a19.652,19.652,0,0,1,2.211.743q.627.28.627.479,0,.165-.3.33l-.1.066a.931.931,0,0,0-.462.825v1.254a.692.692,0,0,0,.182.511.692.692,0,0,0,.512.182h6.435a.948.948,0,0,0,.825-.429l.561-.759q.165-.2.412-.528t.4-.5a.4.4,0,0,1,.281-.165,4.143,4.143,0,0,1,1.386.924,12.76,12.76,0,0,1,1.617,1.518.726.726,0,0,1,.165.4.472.472,0,0,1-.2.363,1.159,1.159,0,0,1-.627.165H144.738a.692.692,0,0,0-.512.182.692.692,0,0,0-.182.511v1.98a.692.692,0,0,0,.182.511.692.692,0,0,0,.512.182Zm-8.58,4.554a.692.692,0,0,0,.512-.182.692.692,0,0,0,.182-.511v-2.244a.692.692,0,0,0-.182-.512.692.692,0,0,0-.512-.181h-4.653a.692.692,0,0,0-.512.181.692.692,0,0,0-.181.512v2.244a.692.692,0,0,0,.181.511.692.692,0,0,0,.512.182Zm8.745,0a.692.692,0,0,0,.511-.182.692.692,0,0,0,.182-.511v-2.244a.692.692,0,0,0-.182-.512.692.692,0,0,0-.511-.181h-4.785a.692.692,0,0,0-.512.181.692.692,0,0,0-.182.512v2.244a.692.692,0,0,0,.182.511.692.692,0,0,0,.512.182Zm-8.052,1.65a.692.692,0,0,0-.182-.511.692.692,0,0,0-.512-.182h-4.653a.692.692,0,0,0-.512.182.692.692,0,0,0-.181.511v2.376a.692.692,0,0,0,.181.512.692.692,0,0,0,.512.181h4.653a.692.692,0,0,0,.512-.181.692.692,0,0,0,.182-.512Zm3.267-.693a.692.692,0,0,0-.512.182.692.692,0,0,0-.182.511v2.376a.692.692,0,0,0,.182.512.692.692,0,0,0,.512.181h4.785a.692.692,0,0,0,.511-.181.692.692,0,0,0,.182-.512v-2.376a.692.692,0,0,0-.182-.511.692.692,0,0,0-.511-.182Zm25.08-9.669a.692.692,0,0,1,.181-.511.692.692,0,0,1,.512-.182h.1a.692.692,0,0,1,.512.182.692.692,0,0,1,.182.511V2.244a.692.692,0,0,1-.182.511.692.692,0,0,1-.512.182h-9.7a.692.692,0,0,1-.512-.182.692.692,0,0,1-.182-.511v-.1a.692.692,0,0,1,.182-.512.692.692,0,0,1,.512-.181h8.217a.692.692,0,0,0,.512-.182.692.692,0,0,0,.182-.511ZM191.637-9.86a.575.575,0,0,0,.5-.26l.18-.26.17-.23a2.006,2.006,0,0,1,.18-.22.21.21,0,0,1,.15-.07q.14,0,.59.38a4.19,4.19,0,0,1,.67.68.44.44,0,0,1,.1.24.286.286,0,0,1-.12.22.6.6,0,0,1-.36.1h-2.38a.419.419,0,0,0-.31.11.419.419,0,0,0-.11.31v1.38a.419.419,0,0,0,.11.31.419.419,0,0,0,.31.11h.7a.61.61,0,0,0,.52-.24l.14-.16q.06-.06.21-.24t.27-.18a1.454,1.454,0,0,1,.58.34,4.018,4.018,0,0,1,.68.64.344.344,0,0,1,.08.22.235.235,0,0,1-.18.24l-.14.06a.455.455,0,0,0-.4.46,24.848,24.848,0,0,1-.53,4.26,4.078,4.078,0,0,1-.97,2.04,2.453,2.453,0,0,1-1.38.56h-.06a.345.345,0,0,1-.27-.1.627.627,0,0,1-.13-.3.776.776,0,0,0-.22-.52,1.871,1.871,0,0,0-.82-.4q-.38-.08-.38-.24t.44-.12q1,.08,1.34.08a1.437,1.437,0,0,0,.38-.04.6.6,0,0,0,.26-.16,3.312,3.312,0,0,0,.61-1.61,28.555,28.555,0,0,0,.43-3.57v-.04a.371.371,0,0,0-.42-.42h-3.72a.419.419,0,0,0-.31.11.419.419,0,0,0-.11.31v.24q0,.1-.33.28a1.583,1.583,0,0,1-.77.18.384.384,0,0,1-.28-.12.384.384,0,0,1-.12-.28q.14-1.84.18-4.02v-2.22a30.955,30.955,0,0,0-.18-3.52v-.08q0-.3.26-.3a.445.445,0,0,1,.2.04l1.02.44a1.2,1.2,0,0,0,.5.1h3.36a.575.575,0,0,0,.5-.26l.22-.3.19-.25a2.658,2.658,0,0,1,.21-.25.23.23,0,0,1,.16-.08,1.811,1.811,0,0,1,.66.42,5.368,5.368,0,0,1,.78.74.344.344,0,0,1,.08.22.3.3,0,0,1-.12.24.554.554,0,0,1-.34.08h-2.78a.419.419,0,0,0-.31.11.419.419,0,0,0-.11.31v1.32a.419.419,0,0,0,.11.31.419.419,0,0,0,.31.11h.4a.575.575,0,0,0,.5-.26l.16-.24q.04-.06.14-.22a1.057,1.057,0,0,1,.18-.23.244.244,0,0,1,.16-.07q.2,0,.78.53t.58.75q-.02.32-.48.32h-2.42a.419.419,0,0,0-.31.11.419.419,0,0,0-.11.31v1.34a.419.419,0,0,0,.11.31.419.419,0,0,0,.31.11Zm8.84-5.42a.575.575,0,0,0,.5-.26l.16-.24.17-.23a2,2,0,0,1,.18-.22.21.21,0,0,1,.15-.07,1.812,1.812,0,0,1,.66.42,5.626,5.626,0,0,1,.8.76.344.344,0,0,1,.08.22.332.332,0,0,1-.16.26.69.69,0,0,1-.2.1.491.491,0,0,0-.36.48v1.88q.04,2.1.14,4.12v.08a.465.465,0,0,1-.22.42,2.381,2.381,0,0,1-.57.27,1.94,1.94,0,0,1-.61.11.26.26,0,0,1-.24-.14.5.5,0,0,1-.06-.22,1.1,1.1,0,0,1,.04-.24l.04-.2a.419.419,0,0,0-.11-.31.419.419,0,0,0-.31-.11h-1.84a.378.378,0,0,0-.32.13.392.392,0,0,0-.06.33,15.774,15.774,0,0,0,1.9,4.64,8.668,8.668,0,0,0,3,3.02q.3.14.3.26a.17.17,0,0,1-.09.14,1.257,1.257,0,0,1-.25.12,1.647,1.647,0,0,0-.78.88q-.12.28-.3.28a.486.486,0,0,1-.24-.12,9.413,9.413,0,0,1-2.57-3.67A23.348,23.348,0,0,1,197.917-8a.42.42,0,0,0-.46-.4h-.24a.371.371,0,0,0-.42.42,20.907,20.907,0,0,1-.8,5.25,9.143,9.143,0,0,1-2.54,4.09.548.548,0,0,1-.32.2q-.16,0-.16-.14a1.174,1.174,0,0,1,.14-.36,11.714,11.714,0,0,0,1.81-4.53,33.373,33.373,0,0,0,.45-5.83v-3.36a25.118,25.118,0,0,0-.14-2.86v-.08q0-.3.26-.3a.445.445,0,0,1,.2.04l1.14.48a1.2,1.2,0,0,0,.5.1ZM189.2-12.62a.419.419,0,0,0,.31-.11.419.419,0,0,0,.11-.31v-1.32a.419.419,0,0,0-.11-.31.419.419,0,0,0-.31-.11h-.86a.419.419,0,0,0-.31.11.419.419,0,0,0-.11.31v1.32a.419.419,0,0,0,.11.31.419.419,0,0,0,.31.11Zm8.02-2.08a.419.419,0,0,0-.31.11.419.419,0,0,0-.11.31V-9.4a.419.419,0,0,0,.11.31.419.419,0,0,0,.31.11h3.34a.419.419,0,0,0,.31-.11.419.419,0,0,0,.11-.31v-4.88a.419.419,0,0,0-.11-.31.419.419,0,0,0-.31-.11Zm-9.3,4.42a.419.419,0,0,0,.11.31.419.419,0,0,0,.31.11h.86a.419.419,0,0,0,.31-.11.419.419,0,0,0,.11-.31v-1.34a.419.419,0,0,0-.11-.31.419.419,0,0,0-.31-.11h-.86a.419.419,0,0,0-.31.11.419.419,0,0,0-.11.31Zm1.7,1.42a.419.419,0,0,0-.11-.31.419.419,0,0,0-.31-.11h-.86a.419.419,0,0,0-.31.11.419.419,0,0,0-.11.31v1.38a.419.419,0,0,0,.11.31.419.419,0,0,0,.31.11h.86a.419.419,0,0,0,.31-.11.419.419,0,0,0,.11-.31Zm.62,3.62a.62.62,0,0,1-.2-.34q0-.1.14-.1a.674.674,0,0,1,.3.08,2.937,2.937,0,0,1,1.22.77,1.371,1.371,0,0,1,.38.87.735.735,0,0,1-.15.47.455.455,0,0,1-.37.19.279.279,0,0,1-.12-.02.341.341,0,0,1-.2-.13,1.176,1.176,0,0,1-.12-.27A4.194,4.194,0,0,0,190.237-5.24Zm-1.3.46q-.18-.4-.06-.46l.06-.02a.562.562,0,0,1,.32.18,4.181,4.181,0,0,1,1.04,1.2,2.369,2.369,0,0,1,.32,1.1,1.061,1.061,0,0,1-.15.59.45.45,0,0,1-.39.23.658.658,0,0,1-.2-.04q-.22-.08-.26-.46A6.624,6.624,0,0,0,188.937-4.78Zm-1.28.3a.949.949,0,0,1-.02-.22q0-.2.08-.22h.02q.14,0,.32.26a4.2,4.2,0,0,1,.84,2.38,1.94,1.94,0,0,1-.2.93q-.2.37-.48.37a.533.533,0,0,1-.24-.06.5.5,0,0,1-.18-.52,6.812,6.812,0,0,0,.06-.88A12.728,12.728,0,0,0,187.657-4.48Zm-1.24.14q.04-.42.16-.42.06,0,.13.1a.6.6,0,0,1,.09.28,9.49,9.49,0,0,1,.22,1.96,3.269,3.269,0,0,1-.35,1.7q-.35.56-.77.56a.47.47,0,0,1-.36-.15.577.577,0,0,1-.14-.41,1.09,1.09,0,0,1,.18-.6,3.356,3.356,0,0,0,.58-1.22A7.784,7.784,0,0,0,186.417-4.34Z" transform="translate(983.5 889)" fill="#efefef"/><path d="M12.848-9.984a.446.446,0,0,0,.176-.192l.16-.224q.048-.064.136-.176a1.28,1.28,0,0,1,.152-.168A.2.2,0,0,1,13.6-10.8q.112,0,.5.344a4.493,4.493,0,0,1,.6.616.275.275,0,0,1,.064.176.192.192,0,0,1-.16.192.246.246,0,0,1-.1.032.4.4,0,0,0-.288.4q-.048,2.976-.208,4.232a3.081,3.081,0,0,1-.56,1.672,1.683,1.683,0,0,1-1.04.5h-.032q-.288,0-.32-.336a.845.845,0,0,0-.16-.512,1,1,0,0,0-.464-.3q-.288-.1-.288-.208,0-.08.24-.08.256,0,.464.016t.336.016a.82.82,0,0,0,.264-.032.343.343,0,0,0,.152-.112A3.047,3.047,0,0,0,12.9-5.528q.1-1.112.144-3.576v-.032a.323.323,0,0,0-.072-.224.22.22,0,0,0-.168-.08.508.508,0,0,0-.144.032l-1.472.576a.391.391,0,0,0-.272.384V-5.92q.032,1.728.112,3.536v.1a.415.415,0,0,1-.128.3,1.544,1.544,0,0,1-.424.24,1.346,1.346,0,0,1-.488.1.427.427,0,0,1-.288-.1.288.288,0,0,1-.112-.224q.064-.928.1-1.824t.056-2.272V-7.872A.35.35,0,0,0,9.68-8.1a.213.213,0,0,0-.176-.08.508.508,0,0,0-.144.032l-1.216.48a.44.44,0,0,0-.2.152.427.427,0,0,0-.056.232V-1.1a.561.561,0,0,0,.224.512,1.81,1.81,0,0,0,.88.144h2.24A19.365,19.365,0,0,0,13.28-.512a.737.737,0,0,0,.28-.072.546.546,0,0,0,.184-.168A12.62,12.62,0,0,0,14.336-2.8q.064-.3.16-.3t.1.336L14.64-.96a.35.35,0,0,0,.064.224.7.7,0,0,0,.208.16.525.525,0,0,1,.3.464.573.573,0,0,1-.32.52A3.132,3.132,0,0,1,13.72.664q-.856.072-2.552.072H8.9A5.278,5.278,0,0,1,7.568.608,1.067,1.067,0,0,1,6.9.152a1.886,1.886,0,0,1-.2-.968V-6.688q0-.3-.256-.3L6.32-6.96,5.2-6.528a.882.882,0,0,1-.176.032.3.3,0,0,1-.24-.112l-.032-.08q0-.16.256-.256L6.432-7.5A.391.391,0,0,0,6.7-7.888v-2a18.105,18.105,0,0,0-.1-1.952v-.032q0-.288.24-.288l.144.032q1.312.4,1.312.576,0,.08-.144.16l-.048.032a.451.451,0,0,0-.224.4v2.48a.35.35,0,0,0,.064.224.213.213,0,0,0,.176.08.508.508,0,0,0,.144-.032l1.216-.48a.44.44,0,0,0,.2-.152.427.427,0,0,0,.056-.232V-11.1a19.022,19.022,0,0,0-.1-1.984v-.032q0-.288.24-.288l.144.032q1.3.384,1.3.576,0,.08-.144.16l-.048.032a.451.451,0,0,0-.224.4v2.56q0,.3.256.3l.128-.032,1.488-.576ZM4.16-8.576A.371.371,0,0,0,4.48-8.8l.176-.3q.048-.08.136-.232a1.434,1.434,0,0,1,.152-.224.177.177,0,0,1,.128-.072q.112,0,.512.392a4.534,4.534,0,0,1,.592.68.3.3,0,0,1,.064.192.245.245,0,0,1-.08.176.562.562,0,0,1-.3.08H4.288a.335.335,0,0,0-.248.088.335.335,0,0,0-.088.248v4.192a.35.35,0,0,0,.064.224.213.213,0,0,0,.176.08.508.508,0,0,0,.144-.032l1.52-.656a1.043,1.043,0,0,1,.24-.08q.1-.016.112.016v.016q0,.08-.192.256Q3.9-2.176,1.984-.912a.657.657,0,0,0-.256.272A.179.179,0,0,1,1.552-.5Q1.408-.5,1.3-.72L.928-1.584A.4.4,0,0,1,.9-1.76.255.255,0,0,1,1.1-2.016q.672-.24,1.408-.528a.4.4,0,0,0,.256-.4V-7.776a.335.335,0,0,0-.088-.248.335.335,0,0,0-.248-.088H2.176A3.641,3.641,0,0,0,1.52-8a.508.508,0,0,1-.144.032.339.339,0,0,1-.3-.208l-.048-.08a.426.426,0,0,1-.048-.192q0-.224.32-.192.272.032.848.064h.288a.335.335,0,0,0,.248-.088.335.335,0,0,0,.088-.248V-9.92a25.523,25.523,0,0,0-.144-2.864v-.064A.226.226,0,0,1,2.88-13.1a.416.416,0,0,1,.128.016,9.059,9.059,0,0,1,1.048.36q.3.136.3.232,0,.08-.128.16l-.048.032a.451.451,0,0,0-.224.4v2.992a.462.462,0,0,0,.056.248A.172.172,0,0,0,4.16-8.576Zm20.608.224a.3.3,0,0,0-.192-.064q-.208,0-.208.288v5.152q.032,1.744.112,3.52v.08a.428.428,0,0,1-.144.336,1.538,1.538,0,0,1-1.024.336.435.435,0,0,1-.28-.1.281.281,0,0,1-.12-.224q.064-.944.112-1.832t.064-2.328v-8.032A.335.335,0,0,0,23-11.464a.335.335,0,0,0-.248-.088H19.616a17.235,17.235,0,0,0-2.112.176h-.1a.329.329,0,0,1-.32-.208l-.064-.112a.426.426,0,0,1-.048-.192.176.176,0,0,1,.08-.152.322.322,0,0,1,.224-.04q.544.048,1.648.08h9.36a.46.46,0,0,0,.4-.208l.272-.4q.064-.08.192-.256a3.3,3.3,0,0,1,.208-.264.216.216,0,0,1,.144-.088,2.145,2.145,0,0,1,.7.464,5.525,5.525,0,0,1,.808.768.352.352,0,0,1,.08.192.23.23,0,0,1-.08.16.562.562,0,0,1-.3.08h-6a.335.335,0,0,0-.248.088.335.335,0,0,0-.088.248v1.968a.348.348,0,0,0,.32.368,9.381,9.381,0,0,1,2.4.856,4.355,4.355,0,0,1,1.368,1.072,1.707,1.707,0,0,1,.424,1,.631.631,0,0,1-.152.44.523.523,0,0,1-.408.168.644.644,0,0,1-.176-.016.5.5,0,0,1-.32-.24A7.31,7.31,0,0,0,26.544-7,16.56,16.56,0,0,0,24.768-8.352Zm14.24,6.784a1.81,1.81,0,0,1,.248-.04q.1-.008.12.056v.016q0,.08-.24.224-1.76.848-4.864,2.08a.561.561,0,0,0-.256.176l-.048.08a.2.2,0,0,1-.176.112q-.144,0-.256-.208L33.088.08A.4.4,0,0,1,33.04-.1q0-.192.256-.24.592-.1,1.536-.32l.32-.064a.343.343,0,0,0,.3-.368V-5.5a.335.335,0,0,0-.088-.248.335.335,0,0,0-.248-.088h-.448a5.131,5.131,0,0,0-1.056.144.355.355,0,0,1-.112.016.318.318,0,0,1-.3-.208L33.152-6a.4.4,0,0,1-.048-.176q0-.224.3-.192.416.032,1.248.064h.464a.335.335,0,0,0,.248-.088.335.335,0,0,0,.088-.248V-8a.335.335,0,0,0-.088-.248.335.335,0,0,0-.248-.088h-.08a1.768,1.768,0,0,0-.368.08.426.426,0,0,1-.192.048.3.3,0,0,1-.272-.192.257.257,0,0,0-.24-.176.323.323,0,0,0-.224.112,8.052,8.052,0,0,1-.784.752q-.224.208-.336.112a.092.092,0,0,1-.032-.064.458.458,0,0,1,.144-.288A14.314,14.314,0,0,0,34.288-10.5a9.8,9.8,0,0,0,.544-1.344,10.28,10.28,0,0,0,.352-1.36q.048-.272.272-.272a.962.962,0,0,1,.16.032q1.328.5,1.328.672,0,.048-.144.112-.064.032-.064.064,0,.112.352.272a4.4,4.4,0,0,1,1.52.976,1.521,1.521,0,0,1,.48.976.655.655,0,0,1-.176.472.557.557,0,0,1-.416.184.6.6,0,0,1-.24-.048.617.617,0,0,1-.288-.3,7.354,7.354,0,0,0-1.328-1.872.351.351,0,0,0-.224-.128q-.144,0-.24.192a15.457,15.457,0,0,1-1.712,2.608.346.346,0,0,0-.1.224q0,.176.256.192.416.032,1.248.064h.64a.451.451,0,0,0,.4-.224l.16-.256q.064-.08.152-.216a1.267,1.267,0,0,1,.152-.2.184.184,0,0,1,.128-.064q.128,0,.528.352a3.579,3.579,0,0,1,.576.608.352.352,0,0,1,.08.192.229.229,0,0,1-.1.176.562.562,0,0,1-.3.08H36.88a.335.335,0,0,0-.248.088A.335.335,0,0,0,36.544-8v1.36a.356.356,0,0,0,.08.248.268.268,0,0,0,.208.088h.032a.451.451,0,0,0,.4-.224L37.44-6.8q.064-.1.152-.232a1.267,1.267,0,0,1,.152-.2.184.184,0,0,1,.128-.064q.128,0,.536.368a3.472,3.472,0,0,1,.584.64.352.352,0,0,1,.08.192.229.229,0,0,1-.1.176.484.484,0,0,1-.288.08H36.88a.335.335,0,0,0-.248.088.335.335,0,0,0-.088.248v4.112a.315.315,0,0,0,.1.256.292.292,0,0,0,.256.048Zm4.88-4.176a.3.3,0,0,0-.24.1.319.319,0,0,0-.048.272,8.49,8.49,0,0,0,1.336,3.1A6.491,6.491,0,0,0,47.184-.288q.24.112.24.208a.16.16,0,0,1-.064.12.666.666,0,0,1-.176.1,1.9,1.9,0,0,0-.736.784q-.1.224-.224.224a.266.266,0,0,1-.176-.1Q43.984-.8,43.28-5.04l-.1-.7h-.016a9.555,9.555,0,0,1-1.48,4.04,8.95,8.95,0,0,1-3.48,2.84.614.614,0,0,1-.24.08.129.129,0,0,1-.128-.064.093.093,0,0,1-.016-.064q0-.144.208-.256a8.329,8.329,0,0,0,2.68-2.656,9.961,9.961,0,0,0,1.24-3.552l.016-.1a.244.244,0,0,0-.088-.2.355.355,0,0,0-.232-.072H41.1a8.175,8.175,0,0,0-1.312.16h-.1a.329.329,0,0,1-.32-.208l-.064-.128a.4.4,0,0,1-.048-.176.192.192,0,0,1,.088-.16.322.322,0,0,1,.232-.048q.512.048,1.536.08h.64a.317.317,0,0,0,.352-.32q.112-1.328.128-2.576a.3.3,0,0,0-.336-.336H40.88a.4.4,0,0,0-.4.256,7.823,7.823,0,0,1-1.216,2,.386.386,0,0,1-.256.16q-.112,0-.112-.128a.54.54,0,0,1,.064-.24,11.8,11.8,0,0,0,.672-1.9,9.149,9.149,0,0,0,.3-1.448,11.4,11.4,0,0,0,.112-1.528v-.1q0-.3.272-.3a.416.416,0,0,1,.128.016q1.36.32,1.36.512,0,.048-.144.128l-.048.016a.6.6,0,0,0-.288.352q-.128.528-.4,1.344a.508.508,0,0,0-.032.144.213.213,0,0,0,.08.176.35.35,0,0,0,.224.064h.7a.616.616,0,0,0,.248-.04.128.128,0,0,0,.088-.12,18.6,18.6,0,0,0-.16-2.912v-.032q0-.352.368-.3,1.424.144,1.424.352,0,.064-.128.144l-.048.032a.451.451,0,0,0-.224.4l-.032,2.144a.3.3,0,0,0,.336.336h.544a.46.46,0,0,0,.4-.208l.192-.288q.08-.1.16-.208a2.187,2.187,0,0,1,.16-.2.216.216,0,0,1,.144-.088q.128,0,.576.376a4.424,4.424,0,0,1,.656.648.352.352,0,0,1,.08.192.229.229,0,0,1-.1.176.562.562,0,0,1-.3.08H43.776a.323.323,0,0,0-.352.336q-.064,1.712-.144,2.544v.048q0,.3.32.3h1.232a.451.451,0,0,0,.4-.224l.176-.256a2.517,2.517,0,0,1,.152-.216q.1-.136.168-.208a.177.177,0,0,1,.128-.072q.128,0,.568.376a4.573,4.573,0,0,1,.648.648.346.346,0,0,1,.08.176.2.2,0,0,1-.064.144.4.4,0,0,1-.32.112ZM37.424-2.08q-.16.256-.3.192-.128-.048-.128-.08a11.586,11.586,0,0,0,.248-1.424,12.566,12.566,0,0,0,.088-1.424q0-.3.224-.3a.962.962,0,0,1,.16.032l.368.144q.112.032.208.056t.192.056q.448.112.448.24,0,.08-.16.16l-.048.016a.659.659,0,0,0-.3.336A18.388,18.388,0,0,1,37.424-2.08Zm-3.136.544a.5.5,0,0,1-.272-.1.35.35,0,0,1-.176-.336l.016-.4a9.123,9.123,0,0,0-.336-2.288,1.4,1.4,0,0,1-.032-.208q0-.112.064-.144h.032q.112,0,.272.176a4.1,4.1,0,0,1,.792,1.192,2.9,2.9,0,0,1,.248,1.1,1.342,1.342,0,0,1-.176.736A.509.509,0,0,1,34.288-1.536ZM59.152-9.184a.451.451,0,0,0,.4-.224l.144-.208q.064-.08.128-.176a1.537,1.537,0,0,1,.136-.176.2.2,0,0,1,.136-.08,1.614,1.614,0,0,1,.56.36,5.684,5.684,0,0,1,.688.632.275.275,0,0,1,.064.176.27.27,0,0,1-.16.224.251.251,0,0,1-.064.048l-.064.032a.633.633,0,0,0-.216.144.323.323,0,0,0-.072.224v1.264q.048,1.9.1,2.784v.08a.343.343,0,0,1-.16.32,2.693,2.693,0,0,1-.5.232,1.532,1.532,0,0,1-.512.1.161.161,0,0,1-.136-.088.462.462,0,0,1-.056-.248v-.128a.335.335,0,0,0-.088-.248.335.335,0,0,0-.248-.088H57.44q-.288,0-.288.192a.4.4,0,0,0,.1.224,10.761,10.761,0,0,0,2.544,1.952,13.869,13.869,0,0,0,3.12,1.312q.336.08.3.16-.016.064-.12.112t-.152.064a1.42,1.42,0,0,0-.688.72.31.31,0,0,1-.288.224A.962.962,0,0,1,61.808.7a11.48,11.48,0,0,1-2.736-1.736A10.739,10.739,0,0,1,56.96-3.456q-.112-.176-.224-.176-.16,0-.16.288v.88q.048,2,.1,2.992v.1a.411.411,0,0,1-.112.3,1.4,1.4,0,0,1-.448.264,1.514,1.514,0,0,1-.544.1.368.368,0,0,1-.272-.1.307.307,0,0,1-.1-.224q.1-1.264.128-2.56v-.864a.393.393,0,0,0-.048-.216.147.147,0,0,0-.128-.072.323.323,0,0,0-.224.112A14.181,14.181,0,0,1,52.416-.672,17.052,17.052,0,0,1,49.344.816a.767.767,0,0,1-.224.048.173.173,0,0,1-.128-.048.065.065,0,0,1-.016-.048q0-.1.256-.24a15.8,15.8,0,0,0,2.84-1.952,13.954,13.954,0,0,0,2.232-2.4.319.319,0,0,0,.08-.208.163.163,0,0,0-.08-.136.355.355,0,0,0-.208-.056h-1.36a.335.335,0,0,0-.248.088.335.335,0,0,0-.088.248v.176q0,.112-.344.272a1.636,1.636,0,0,1-.7.16.258.258,0,0,1-.208-.1.339.339,0,0,1-.08-.224q.064-.736.1-1.888v-1.1a25.309,25.309,0,0,0-.144-2.816v-.064q0-.24.208-.24a.356.356,0,0,1,.16.032l.928.416a1,1,0,0,0,.416.08h2.256a.335.335,0,0,0,.248-.088.335.335,0,0,0,.088-.248v-.96a.335.335,0,0,0-.088-.248.335.335,0,0,0-.248-.088H51.92a17.235,17.235,0,0,0-2.112.176h-.1a.329.329,0,0,1-.32-.208l-.08-.144a.4.4,0,0,1-.048-.176q0-.24.32-.208.544.048,1.648.08h3.76a.3.3,0,0,0,.336-.336q-.032-.832-.1-1.5v-.032q0-.288.24-.288l.144.032a9.528,9.528,0,0,1,1.072.36q.3.136.3.232,0,.08-.144.16l-.048.032a.451.451,0,0,0-.224.4v.608a.335.335,0,0,0,.088.248.335.335,0,0,0,.248.088h3.12a.46.46,0,0,0,.4-.208l.272-.368q.08-.1.2-.256t.192-.24a.2.2,0,0,1,.136-.08A2.009,2.009,0,0,1,61.9-12a6.187,6.187,0,0,1,.784.736.352.352,0,0,1,.08.192.229.229,0,0,1-.1.176.562.562,0,0,1-.3.08H56.912a.335.335,0,0,0-.248.088.335.335,0,0,0-.088.248v.96a.335.335,0,0,0,.088.248.335.335,0,0,0,.248.088Zm-4.16,2.208a.335.335,0,0,0,.248-.088.335.335,0,0,0,.088-.248V-8.4a.335.335,0,0,0-.088-.248.335.335,0,0,0-.248-.088H52.736a.335.335,0,0,0-.248.088A.335.335,0,0,0,52.4-8.4v1.088a.335.335,0,0,0,.088.248.335.335,0,0,0,.248.088Zm4.24,0a.335.335,0,0,0,.248-.088.335.335,0,0,0,.088-.248V-8.4a.335.335,0,0,0-.088-.248.335.335,0,0,0-.248-.088h-2.32a.335.335,0,0,0-.248.088.335.335,0,0,0-.088.248v1.088a.335.335,0,0,0,.088.248.335.335,0,0,0,.248.088Zm-3.9.8a.335.335,0,0,0-.088-.248.335.335,0,0,0-.248-.088H52.736a.335.335,0,0,0-.248.088.335.335,0,0,0-.088.248v1.152a.335.335,0,0,0,.088.248.335.335,0,0,0,.248.088h2.256a.335.335,0,0,0,.248-.088.335.335,0,0,0,.088-.248Zm1.584-.336a.335.335,0,0,0-.248.088.335.335,0,0,0-.088.248v1.152a.335.335,0,0,0,.088.248.335.335,0,0,0,.248.088h2.32a.335.335,0,0,0,.248-.088.335.335,0,0,0,.088-.248V-6.176a.335.335,0,0,0-.088-.248.335.335,0,0,0-.248-.088Zm18.624-5.36a.46.46,0,0,0,.4-.208l.128-.176q.064-.08.184-.24t.216-.16a1.411,1.411,0,0,1,.52.328,3.689,3.689,0,0,1,.616.6.275.275,0,0,1,.064.176.266.266,0,0,1-.128.208.552.552,0,0,1-.16.08.7.7,0,0,0-.208.16.35.35,0,0,0-.064.224V-9.9q.048,1.424.08,2.176v.08a.336.336,0,0,1-.176.32,1.811,1.811,0,0,1-.432.192,1.571,1.571,0,0,1-.464.08.152.152,0,0,1-.128-.064.259.259,0,0,1-.048-.16.172.172,0,0,0-.088-.152.462.462,0,0,0-.248-.056H68.416q-.336,0-.336.288,0,.1-.32.24a1.583,1.583,0,0,1-.656.144.236.236,0,0,1-.2-.1.363.363,0,0,1-.072-.224q.064-.608.1-1.536v-.944a22.575,22.575,0,0,0-.112-2.416V-12.1q0-.24.208-.24a.356.356,0,0,1,.16.032l.8.352a.957.957,0,0,0,.4.08H69.6a.3.3,0,0,0,.336-.336l-.048-.928V-13.2q0-.256.224-.256a.962.962,0,0,1,.16.032q1.136.352,1.136.56,0,.048-.128.144l-.016.016a.477.477,0,0,0-.224.4v.1a.335.335,0,0,0,.088.248.335.335,0,0,0,.248.088h1.168a.3.3,0,0,0,.336-.336l-.048-.928V-13.2q0-.256.224-.256a.962.962,0,0,1,.16.032q1.152.352,1.152.56,0,.048-.128.144l-.016.016a.477.477,0,0,0-.224.4v.1a.335.335,0,0,0,.088.248.335.335,0,0,0,.248.088ZM69.6-9.92a.335.335,0,0,0,.248-.088.335.335,0,0,0,.088-.248v-.8a.335.335,0,0,0-.088-.248.335.335,0,0,0-.248-.088H68.416a.335.335,0,0,0-.248.088.335.335,0,0,0-.088.248v.8a.335.335,0,0,0,.088.248.335.335,0,0,0,.248.088Zm2.944,0a.335.335,0,0,0,.248-.088.335.335,0,0,0,.088-.248v-.8a.335.335,0,0,0-.088-.248.335.335,0,0,0-.248-.088H71.376a.335.335,0,0,0-.248.088.335.335,0,0,0-.088.248v.8a.335.335,0,0,0,.088.248.335.335,0,0,0,.248.088Zm3.056,0a.335.335,0,0,0,.248-.088.335.335,0,0,0,.088-.248v-.8a.335.335,0,0,0-.088-.248.335.335,0,0,0-.248-.088H74.336a.335.335,0,0,0-.248.088.335.335,0,0,0-.088.248v.8a.335.335,0,0,0,.088.248.335.335,0,0,0,.248.088ZM68.08-8.288a.335.335,0,0,0,.088.248.335.335,0,0,0,.248.088H69.6a.335.335,0,0,0,.248-.088.335.335,0,0,0,.088-.248V-9.12a.335.335,0,0,0-.088-.248.335.335,0,0,0-.248-.088H68.416a.335.335,0,0,0-.248.088.335.335,0,0,0-.088.248Zm4.8-.832a.335.335,0,0,0-.088-.248.335.335,0,0,0-.248-.088H71.376a.335.335,0,0,0-.248.088.335.335,0,0,0-.088.248v.832a.335.335,0,0,0,.088.248.335.335,0,0,0,.248.088h1.168a.335.335,0,0,0,.248-.088.335.335,0,0,0,.088-.248Zm1.456-.336a.335.335,0,0,0-.248.088A.335.335,0,0,0,74-9.12v.832a.335.335,0,0,0,.088.248.335.335,0,0,0,.248.088H75.6a.335.335,0,0,0,.248-.088.335.335,0,0,0,.088-.248V-9.12a.335.335,0,0,0-.088-.248.335.335,0,0,0-.248-.088ZM76.288-6.4a.46.46,0,0,0,.4-.208L76.9-6.88q.08-.1.16-.208a2.187,2.187,0,0,1,.16-.2.216.216,0,0,1,.144-.088,1.606,1.606,0,0,1,.592.368,4.482,4.482,0,0,1,.672.624.352.352,0,0,1,.08.192.229.229,0,0,1-.1.176.562.562,0,0,1-.3.08H68.048a16.576,16.576,0,0,0-2.112.176h-.08a.361.361,0,0,1-.336-.208L65.456-6.1a.891.891,0,0,1-.064-.192.176.176,0,0,1,.08-.152.322.322,0,0,1,.224-.04q.544.048,1.648.08Zm-1.28,1.616a.451.451,0,0,0,.4-.224l.112-.176a1.985,1.985,0,0,1,.128-.184q.08-.1.128-.16a.144.144,0,0,1,.112-.056,1.222,1.222,0,0,1,.48.3,3.868,3.868,0,0,1,.576.552.275.275,0,0,1,.064.176.237.237,0,0,1-.144.208l-.064.016a.376.376,0,0,0-.288.384V-3.5l.048,1.152v.1a.339.339,0,0,1-.144.3,1.893,1.893,0,0,1-.912.224.184.184,0,0,1-.208-.208.172.172,0,0,0-.088-.152.462.462,0,0,0-.248-.056H68.992a.335.335,0,0,0-.248.088.335.335,0,0,0-.088.248q0,.08-.288.2a1.784,1.784,0,0,1-.688.12.215.215,0,0,1-.192-.1.394.394,0,0,1-.064-.224q.032-.192.08-.96v-.656q0-.9-.064-1.552V-5.04q0-.24.208-.24a.356.356,0,0,1,.16.032l.832.368a1.062,1.062,0,0,0,.416.1Zm-6.016.464a.335.335,0,0,0-.248.088.335.335,0,0,0-.088.248v1.056a.335.335,0,0,0,.088.248.335.335,0,0,0,.248.088H74.96a.335.335,0,0,0,.248-.088.335.335,0,0,0,.088-.248V-3.984a.335.335,0,0,0-.088-.248.335.335,0,0,0-.248-.088ZM76.544.432a.46.46,0,0,0,.4-.208l.208-.3q.064-.08.168-.224t.168-.216a.177.177,0,0,1,.128-.072A1.734,1.734,0,0,1,78.2-.2a5.393,5.393,0,0,1,.7.664.346.346,0,0,1,.08.176.165.165,0,0,1-.1.16.532.532,0,0,1-.288.08H67.712a17.235,17.235,0,0,0-2.112.176h-.1a.329.329,0,0,1-.32-.208L65.12.736a.426.426,0,0,1-.048-.192.176.176,0,0,1,.08-.152.322.322,0,0,1,.224-.04q.544.048,1.648.08h1.984q.3,0,.64-.008T70.112.4a.246.246,0,0,1-.1-.032.447.447,0,0,1-.224-.384,3.771,3.771,0,0,0-.232-.816,3.684,3.684,0,0,0-.392-.736q-.176-.288-.112-.336a.167.167,0,0,1,.1-.016.767.767,0,0,1,.224.048,2.915,2.915,0,0,1,1.224.72,1.3,1.3,0,0,1,.392.864.965.965,0,0,1-.112.432.516.516,0,0,0-.112.224q0,.064.208.064h1.536a.4.4,0,0,0,.4-.256,11.433,11.433,0,0,0,.544-1.952.253.253,0,0,1,.272-.256.962.962,0,0,1,.16.032q1.36.432,1.36.624,0,.048-.144.112l-.08.032a1.207,1.207,0,0,0-.352.24q-.448.5-1.008,1.008a.351.351,0,0,0-.128.224q0,.192.288.192Zm5.68-10.848a17.59,17.59,0,0,0,.736-2.832q.032-.256.256-.256a.4.4,0,0,1,.176.032q1.36.528,1.36.72,0,.048-.144.112l-.08.032a.72.72,0,0,0-.336.272,16.68,16.68,0,0,1-1.424,1.952.319.319,0,0,0-.08.208.352.352,0,0,0,.112.256,1.325,1.325,0,0,1,.384.88.693.693,0,0,1-.16.472.508.508,0,0,1-.4.184.686.686,0,0,1-.24-.048.5.5,0,0,1-.272-.336,3.872,3.872,0,0,0-.4-.864,5.947,5.947,0,0,0-.608-.832q-.224-.256-.144-.3a.156.156,0,0,1,.112-.032.887.887,0,0,1,.288.064,3.546,3.546,0,0,1,.848.352Zm10.352-1.136a.451.451,0,0,0,.4-.224l.112-.176q.048-.064.128-.176a1.385,1.385,0,0,1,.136-.168.168.168,0,0,1,.12-.056,1.3,1.3,0,0,1,.5.3,4.448,4.448,0,0,1,.592.544.275.275,0,0,1,.064.176.237.237,0,0,1-.144.208l-.112.048a.393.393,0,0,0-.288.384V-9.44q.048,1.888.1,2.768v.064A.372.372,0,0,1,94-6.272a1.606,1.606,0,0,1-.912.256.176.176,0,0,1-.152-.08A.355.355,0,0,1,92.88-6.3a.268.268,0,0,0-.088-.208.356.356,0,0,0-.248-.08h-.88a.3.3,0,0,0-.256.1.313.313,0,0,0-.048.264,10.439,10.439,0,0,0,.784,2.144.279.279,0,0,0,.24.176.279.279,0,0,0,.24-.16,9.057,9.057,0,0,0,.928-1.68q.064-.208.24-.208a.44.44,0,0,1,.224.08q1.04.768,1.04.944,0,.08-.144.08h-.048a.794.794,0,0,0-.4.16q-.848.624-1.648,1.12a.288.288,0,0,0-.176.256.428.428,0,0,0,.08.208,7.183,7.183,0,0,0,2.432,2.08q.112.064.184.112t.072.1a.178.178,0,0,1-.1.088.815.815,0,0,0-.152.088,1.347,1.347,0,0,0-.608.688q-.1.208-.24.208a.277.277,0,0,1-.192-.1,8.258,8.258,0,0,1-1.9-2.536,13.359,13.359,0,0,1-1.064-3.816V-.416A2,2,0,0,1,90.9.672a1.522,1.522,0,0,1-1.024.56h-.064q-.272,0-.32-.3a1.271,1.271,0,0,0-.24-.512A1.9,1.9,0,0,0,88.4.032q-.32-.08-.32-.192,0-.08.24-.08.272,0,.5.016t.392.032l.5.032a.374.374,0,0,0,.248-.064.289.289,0,0,0,.072-.224V-3.872a.341.341,0,0,0-.064-.24.191.191,0,0,0-.192-.032.625.625,0,0,0-.352.288A8.282,8.282,0,0,1,88.184-1.5,7.114,7.114,0,0,1,86.16.3q-.288.16-.352.048a.093.093,0,0,1-.016-.064q0-.112.176-.272a6.541,6.541,0,0,0,1.4-1.712,9.309,9.309,0,0,0,.888-2.144.354.354,0,0,0,.016-.112q0-.256-.3-.256h-.256a3.665,3.665,0,0,0-.8.128.508.508,0,0,1-.144.032.308.308,0,0,1-.288-.208l-.048-.1a.426.426,0,0,1-.048-.192q0-.224.3-.192.336.032.944.064h.432a.536.536,0,0,0,.416-.176l.24-.256a.358.358,0,0,1,.24-.128.428.428,0,0,1,.224.112l.432.384a.428.428,0,0,0,.224.112.163.163,0,0,0,.136-.08.355.355,0,0,0,.056-.208V-6.256a.335.335,0,0,0-.088-.248.335.335,0,0,0-.248-.088h-.912a.335.335,0,0,0-.248.088.335.335,0,0,0-.088.248v.064q0,.1-.288.216a1.832,1.832,0,0,1-.7.12.236.236,0,0,1-.2-.1.363.363,0,0,1-.072-.224q.064-.688.1-1.76v-1.04a23.441,23.441,0,0,0-.144-2.736v-.064q0-.256.208-.256A.962.962,0,0,1,87.5-12l.912.368a.957.957,0,0,0,.4.08h.4a.322.322,0,0,0,.352-.3,8.445,8.445,0,0,0,.16-1.344q0-.368.4-.288,1.44.288,1.44.464,0,.064-.144.128l-.1.048a1.14,1.14,0,0,0-.32.272q-.3.368-.528.608a.346.346,0,0,0-.1.224q0,.192.288.192Zm-9.312,4.64a.332.332,0,0,0-.1.208q0,.192.288.192l1.44-.08q.288-.032.288-.24a.508.508,0,0,0-.032-.144,7,7,0,0,0-.368-.752q-.144-.288-.064-.336a.093.093,0,0,1,.064-.016.5.5,0,0,1,.256.112A4.081,4.081,0,0,1,86.28-6.9a1.832,1.832,0,0,1,.392,1.048A.873.873,0,0,1,86.5-5.3a.5.5,0,0,1-.408.216.539.539,0,0,1-.3-.1.459.459,0,0,1-.208-.384A2.72,2.72,0,0,0,85.52-5.9a.292.292,0,0,0-.4-.24l-.336.08A.338.338,0,0,0,84.5-5.7v2.768q.032,1.744.112,3.52v.08a.383.383,0,0,1-.16.336,1.452,1.452,0,0,1-.9.288.4.4,0,0,1-.272-.1.288.288,0,0,1-.112-.224q.064-.944.112-1.832t.064-2.328V-5.376a.3.3,0,0,0-.1-.24.319.319,0,0,0-.272-.048l-.944.192q-.24.048-.288.128l-.048.08a.2.2,0,0,1-.16.08.226.226,0,0,1-.152-.064.361.361,0,0,1-.1-.176l-.224-.64a.508.508,0,0,1-.032-.144q0-.24.288-.24.256-.016.848-.016a.462.462,0,0,0,.4-.24q.7-1.3,1.056-2.016A15,15,0,0,0,84.7-11.392q.08-.224.256-.224a.613.613,0,0,1,.192.048q1.264.608,1.264.8,0,.08-.16.112l-.08.016a.475.475,0,0,0-.336.208A34.517,34.517,0,0,1,83.264-6.912Zm9.28-2.4a.335.335,0,0,0,.248-.088.335.335,0,0,0,.088-.248v-1.088a.335.335,0,0,0-.088-.248.335.335,0,0,0-.248-.088h-3.76a.335.335,0,0,0-.248.088.335.335,0,0,0-.088.248v1.088a.335.335,0,0,0,.088.248.335.335,0,0,0,.248.088Zm-3.76.464a.335.335,0,0,0-.248.088.335.335,0,0,0-.088.248v1.1a.335.335,0,0,0,.088.248.335.335,0,0,0,.248.088h3.76a.335.335,0,0,0,.248-.088.335.335,0,0,0,.088-.248v-1.1a.335.335,0,0,0-.088-.248.335.335,0,0,0-.248-.088ZM85.008-4.064q-.128-.32-.016-.368l.048-.016a.547.547,0,0,1,.256.128,3.879,3.879,0,0,1,1.032,1.08,2.041,2.041,0,0,1,.328,1.032.966.966,0,0,1-.176.6.513.513,0,0,1-.416.232.656.656,0,0,1-.288-.08.424.424,0,0,1-.192-.4A7.061,7.061,0,0,0,85.008-4.064Zm-3.456-.112a.144.144,0,0,1,.056-.112.2.2,0,0,1,.136-.048.882.882,0,0,1,.176.032l.592.16q.656.08.656.24,0,.08-.16.16l-.032.016a.583.583,0,0,0-.288.352A9.971,9.971,0,0,1,81.312-.24q-.144.208-.24.208-.128,0-.128-.16a.767.767,0,0,1,.048-.224l.192-.624A13.533,13.533,0,0,0,81.448-2.5a11.277,11.277,0,0,0,.1-1.44Z" transform="translate(998.5 849)" fill="#efefef"/></g></svg>