<svg xmlns="http://www.w3.org/2000/svg" xmlns:xlink="http://www.w3.org/1999/xlink" width="866.572" height="97.825" viewBox="0 0 866.572 97.825"><defs><clipPath id="a"><rect width="866.572" height="97.825" fill="none"/></clipPath></defs><g transform="translate(0 0)"><g transform="translate(0 0)" clip-path="url(#a)"><path d="M1.116,8.129C1,7.982,1,7.982,1,7.952c0-.059.031-.088.118-.088.207,0,1.119.088,1.294.118,1.206.029,2.559.088,3.763.088.737,0,.884-.412.884-.824,0-.676-.118-4.646-.147-5.234,0-.265-.235-1.471-.235-1.735,0-.147.029-.235.176-.235.028,0,3.057.706,3.057,1.353,0,.147-.559.735-.588.853a36.487,36.487,0,0,0-.263,4.881c0,.353,0,.941.852.941.588,0,.824-.059,1.088-.5.531-.971.588-1.088.824-1.088a6.279,6.279,0,0,1,2.294,1.971c0,.412-.618.412-1.559.412H10.085c-.44,0-1,0-1,.824,0,2,0,2.381,1.059,2.763,3.176,1.088,3.882,2.559,3.882,3.529a1.257,1.257,0,0,1-1.235,1.235c-.44,0-.529-.147-1.146-1.559-.619-1.441-1.765-2.765-2.148-2.765a.4.4,0,0,0-.382.412c0,1.382.088,7.469.088,8.734,0,.382.09,1.882.09,2.882,0,.735,0,1.969-1.59,1.969-.734,0-.881-.176-.881-.852,0-.382.147-2.529.206-3.588.059-1.353.087-2.529.087-4.175V15.509a.223.223,0,0,0-.235-.206c-.146,0-.235.059-.5.618C5.087,18.568.763,23.361.088,23.478L0,23.42c.118-.206,1.323-2.029,1.587-2.412C5.293,15.186,6.822,10.276,6.822,9.6a.718.718,0,0,0-.676-.735c-1,0-2.647,0-3.557.059a5.216,5.216,0,0,1-.619.088c-.118,0-.176-.088-.265-.206ZM16.35.16c.118,0,1.851.412,2.118.5.706.206.941.265.941.588,0,.206-.148.353-.353.5-.384.235-.443.324-.443.882,0,14.144,0,15.2.09,18.084.087,2.294.087,2.647.235,2.853.293.441,1.44.647,2.644.647,2.648,0,3.029-.324,3.323-1.059a31.669,31.669,0,0,0,.794-4.969c0-.382,0-.559.147-.559.235,0,.529,2.175.588,2.587a4.727,4.727,0,0,0,.824,2.647c.266.324.353.441.353.647a2.712,2.712,0,0,1-1.706,2.059,12.48,12.48,0,0,1-4.263.618c-5.029,0-5.029-.5-5.029-8,0-9.822,0-14.5-.324-16.909-.028-.176-.235-.971-.146-1.088A.436.436,0,0,1,16.35.16" transform="translate(0 0.017)" fill="#1a1311"/><path d="M43.658,16.383c.2,0,.646,0,.763-.382.029-.118.029-2.353.029-3.557,0-2.588-.118-2.735-.91-2.735h-.619c-.588,0-.646.147-.91.618a1.245,1.245,0,0,1-1.118.5c-.794,0-.794-.294-.794-1.676,0-2.471,0-6.087-.206-7.381-.029-.176-.235-.941-.235-1,0-.118.176-.147.206-.147a9.071,9.071,0,0,1,1.618.676,2.939,2.939,0,0,0,1.647.353h4.441a1.523,1.523,0,0,0,1.381-.588c.176-.176.471-.5.588-.5.265,0,1.146.912,1.353,1.059.471.324.647.471.647.765,0,.206-.148.353-.412.559a1.123,1.123,0,0,0-.353.941c0,.853.088,4.557.088,5.322a1.356,1.356,0,0,1-1.294,1.382c-.353,0-.471-.176-.794-.618a.914.914,0,0,0-.765-.265H46.362c-.118,0-.235,0-.235.118s.031.147.529.353c.118.029.325.147.325.324a.8.8,0,0,1-.266.471c-.5.441-.5.618-.5,2.322,0,.324,0,2.529.029,2.647a.516.516,0,0,0,.559.441c1.059,0,2.587-4.616,2.587-5.146,0-.353,0-.412.148-.412.265,0,2.587,1.265,2.587,1.881,0,.5-.7.647-1.146.735a20.2,20.2,0,0,0-2.941,2.765c0,.176.206.176.324.176h1.146c.737,0,.8,0,.941-.059.325-.118,1.207-1.823,1.382-1.823.147,0,2.443,1.618,2.443,2.147,0,.5-.648.5-.972.5-.176,0-1.028.029-1.206.029H48.833c-.765,0-.765.471-.765.912,0,.529-.029,4.91,0,5.087.059.794.294,1.176,1.971,1.176,1.294,0,1.412-.471,1.7-1.588.06-.176.5-1.971.559-1.971.147,0,.353,2.559.471,3a1.343,1.343,0,0,0,.56.765.763.763,0,0,1,.353.618c0,1.118-1.443,1.206-3,1.206-4.322,0-4.469-.941-4.469-3.353,0-.706.06-3.851.06-4.5,0-1.118,0-1.353-.737-1.353H44.127c-.116,0-.265,0-.265.088,0,.147.06.147.706.382.118.059.618.235.618.5,0,.176-.765.647-.853.794a10.561,10.561,0,0,0-.91,2.175,10.254,10.254,0,0,1-7.351,6.088.1.1,0,0,1-.118-.118c0-.029.969-.529,1.147-.647a11.191,11.191,0,0,0,5.146-8.616c0-.647-.384-.647-.765-.647h-2.5c-.8,0-.8.206-.824,1.353A2.394,2.394,0,0,1,36.247,21c-.266,0-.294-.118-.588-.881-.235-.676-.765-1.206-1.09-1.206-.263,0-.263.235-.263.794,0,.852.176,5.028.176,5.381,0,.588,0,1.676-1.443,1.676a.781.781,0,0,1-.88-.824c0-.206.175-1.441.175-1.676.235-3.794.206-12,.206-16.232,0-1.176,0-1.294-.676-1.294-1,0-1.059,0-1.059.941V19.03a6.184,6.184,0,0,1-.175,2.381,1.543,1.543,0,0,1-1.119.5c-.675,0-.763-.618-.763-.912,0-.412.147-2.263.147-2.646.059-1.265.059-2.912.059-5.206,0-.793,0-4.91-.059-6.028C28.867,6.8,28.6,5.356,28.6,5.033c0-.088.118-.147.2-.147a3.6,3.6,0,0,1,1.676.763,2.278,2.278,0,0,0,1.382.294c.648,0,.648-.353.648-.852a36.331,36.331,0,0,0-.235-3.941,8.008,8.008,0,0,1-.266-.794c0-.118.088-.147.206-.147.588,0,3.029,1,3.029,1.382,0,.147-.647.559-.706.676A17.114,17.114,0,0,0,34.365,5.3c0,.647.265.647.91.647a1.124,1.124,0,0,0,.8-.235c.146-.088.7-.793.852-.793.178,0,1.971,1.293,1.971,1.763,0,.294-.263.441-.588.676-.235.176-.235.265-.235,1.088,0,1,0,7.175.059,7.469.088.412.384.471.794.471ZM35.04,6.738c-.263,0-.5,0-.616.206-.118.235-.176,6.145-.176,6.793,0,.559.029,4.412.118,4.588.118.324.382.353,1.323.353.618,0,.618-.176.618-.706-.029-3.294-.029-7.116-.029-10.439,0-.5,0-.794-.588-.794Zm4.178,4.588a6.8,6.8,0,0,1,2.851,1.646,2,2,0,0,1,.765,1.618c0,.735-.266,1.529-1.118,1.529-.56,0-.618-.176-1.294-2-.146-.412-1.322-2.557-1.322-2.7,0-.059.087-.088.118-.088m8.7-6.2c.881,0,.881-.412.881-1.412,0-.824,0-1.265-.881-1.265H42.864c-.884,0-.884.441-.884,1.382,0,1.059.148,1.294.824,1.294Zm-.029,3.793c.91,0,.91-.353.91-1.559,0-1.059,0-1.471-.91-1.471h-5c-.882,0-.882.529-.882.941,0,1.912.2,2.088.941,2.088Z" transform="translate(11.456 0.084)" fill="#1a1311"/><path d="M67.721,4.069c0,.088.06.206.06.324a22.565,22.565,0,0,1,.293,3.176c0,1.969-.44,4.7-3.028,8.616-2.353,3.587-3.851,4.293-5.028,4.293-1.941,0-3.676-3.029-3.676-6.616a10.359,10.359,0,0,1,3.263-7.5A12.169,12.169,0,0,1,68.987,2.54a9.563,9.563,0,0,1,4.732.941,9.219,9.219,0,0,1,5.119,8.557,10.967,10.967,0,0,1-7.41,10.351,18.071,18.071,0,0,1-4.884,1.088c-.118,0-.293-.029-.293-.206,0-.088.057-.118.794-.412,3.057-1.206,9.44-3.735,9.44-11.057,0-1.147-.118-8.145-8.145-8.145-.588,0-.619.235-.619.412M58.165,13.1c0,1.912.765,4.528,2.559,4.528.853,0,1.557-.353,3.587-3.41a16.818,16.818,0,0,0,2.882-8.557c0-1.765-.118-1.912-.5-1.912-2.793,0-8.528,3.794-8.528,9.351" transform="translate(22.566 1.017)" fill="#1a1311"/><path d="M87.554,13.072c-2.588,0-3.412.059-3.706.088-.116,0-.528.059-.618.059-.118,0-.175-.059-.263-.176l-.56-.676c-.118-.147-.146-.147-.146-.206,0-.029.059-.059.118-.059.206,0,1.118.088,1.294.088,1.44.088,2.646.118,4.027.118h5.853c.853,0,.853-.412.853-1.265,0-.529,0-3.528-.029-3.675-.088-.618-.5-.618-.852-.618H90.084c-2.559,0-3.412.059-3.706.088-.088,0-.529.059-.616.059-.118,0-.178-.059-.266-.176l-.557-.676c-.118-.118-.148-.147-.148-.206,0-.029.059-.059.118-.059.206,0,1.118.088,1.294.088,1.441.088,2.647.118,4.029.118h3.294c.528,0,.881-.088.881-.853a33.23,33.23,0,0,0-.118-3.41c-.029-.206-.206-1.088-.206-1.294,0-.176.235-.324.619-.324s2.557.412,2.557,1.059c0,.147-.5.588-.588.7-.206.265-.235.5-.235,1.206,0,.324-.031,1.823-.031,2.118.031.676.325.794.972.794h2.853c1.234,0,1.381,0,1.94-.676s1-1.206,1.206-1.206c.412,0,2.853,1.618,2.853,2.147,0,.5-.471.5-1.59.5H97.345c-.471,0-.852.029-.941.588-.028.176-.087,3.293-.087,3.851,0,.794.087,1.118,1,1.118h5.351c1.323,0,1.471,0,1.851-.588.588-.941.824-1.294,1.325-1.294.471,0,2.822,1.618,2.822,2.147,0,.5-.471.5-1.588.5H97.553c-.207,0-.443,0-.443.265a20.674,20.674,0,0,0,7.559,7.322,13.479,13.479,0,0,0,4.087,1.735c.5.118.531.118.531.235,0,.029-1,.441-1.207.529a3.949,3.949,0,0,0-1.471,1.147c-.206.293-.206.322-.352.322-1.031,0-6.381-4.234-9.116-9.82a6.634,6.634,0,0,0-.647-1.147.137.137,0,0,0-.147.147V14.9c0,1.235.057,6.645.088,7.763,0,.382.087,2.146.087,2.5a1.7,1.7,0,0,1-1.616,1.735c-.735,0-.793-.735-.793-1.118,0-.618.322-7.969.322-9.468,0-.176,0-.676-.265-.676-.175,0-.382.206-.528.382-4.06,5.351-9.645,8.85-11.41,8.85-.029,0-.06,0-.06-.088s.207-.206.443-.324C88.2,21.218,92.876,13.955,92.876,13.4c0-.324-.324-.324-.528-.324Z" transform="translate(32.912 0.042)" fill="#1a1311"/><path d="M125.553,13.291c-.175,0-.441.088-.441.353,0,.618,4.176,5.7,8.381,7.322a17.14,17.14,0,0,0,2.794.853c.353.088.588.235.588.353a11.358,11.358,0,0,1-1.587.794,4.543,4.543,0,0,0-1.119.94c-.088.088-.265.265-.41.265a22.03,22.03,0,0,1-8.851-9.085c-.266-.529-.294-.588-.588-1.206-.059-.118-.148-.206-.235-.206-.266,0-.266.382-.266.5,0,1.7.148,9.232.148,10.762,0,.706,0,2.029-1.5,2.029-.822,0-.822-.794-.822-1.118,0-.353.116-1.971.116-2.294.059-1.381.147-7.234.147-7.7,0-.235,0-.7-.353-.7-.206,0-.294.118-1.118,1.146a25.847,25.847,0,0,1-9.379,7.557,9.4,9.4,0,0,1-1.676.706c-.206,0-.266-.118-.266-.206a13.428,13.428,0,0,1,1.237-.912c5.675-3.881,9.32-8.615,9.32-9.791,0-.353-.353-.353-.706-.353h-3.853c-2.056,0-3.028.029-3.734.088-.087,0-.529.059-.618.059s-.147-.059-.265-.176l-.559-.676c-.118-.147-.118-.147-.118-.206s.031-.059.09-.059c.206,0,1.116.088,1.293.088,1.441.059,2.678.118,4.059.118h5.822c.765,0,.794-.441.794-.941V6.44c0-.765.029-1.441-.765-1.441h-3.234c-2.178,0-3.147.059-3.706.088-.088,0-.528.059-.618.059-.118,0-.176-.059-.263-.176l-.56-.676c-.118-.147-.146-.147-.146-.206,0-.029.057-.059.118-.059.2,0,1.116.088,1.294.088,1.44.088,2.644.118,4.026.118h3.088c.765,0,.765-.529.765-1.853a3.653,3.653,0,0,0-.147-1.118,3.4,3.4,0,0,1-.235-.94c0-.265.031-.324.206-.324.294,0,3,.7,3,1.116,0,.147-.088.265-.441.618-.235.265-.443.471-.443,1.471,0,.618.09,1.029.8,1.029h3.293a5.12,5.12,0,0,0,1.441-.088c.324-.147,1.293-1.5,1.618-1.5a9.24,9.24,0,0,1,2.5,1.941c0,.412-.588.412-1.587.412h-7.263c-.618,0-.824.324-.824,1.029,0,.853.059,4.616.059,5.381,0,.529,0,1.118.765,1.118.734,0,1.234-.529,1.7-1.235.765-1.118,2.031-3.41,2.031-4.587,0-.324,0-.618.293-.618.588,0,2.853,1.353,2.853,1.823,0,.175-.912.44-1.059.528-.854.765-2.529,2.294-3.353,3.059-.588.529-.647.647-.647.765,0,.265.294.265.384.265H130.2c1.353,0,1.5,0,1.882-.5.882-1.206.971-1.323,1.234-1.323a7.972,7.972,0,0,1,2.647,2.176c0,.412-.618.412-1.588.412Zm-7.5-1.559c-.763,0-.941-.412-1.851-2.529a16.115,16.115,0,0,0-1.176-2.028c-.235-.382-.676-1.029-.676-1.059,0-.088.057-.147.175-.147A11.1,11.1,0,0,1,116.38,7c1.557,1.057,2.763,1.851,2.763,3.234,0,.794-.412,1.5-1.088,1.5" transform="translate(43.703 0)" fill="#1a1311"/><path d="M138.263,9.753a.259.259,0,0,1,.265-.235c.088,0,1.618.412,1.941.412a49.256,49.256,0,0,0,4.941-.882c.5-.353.528-3.322.528-3.469a3.715,3.715,0,0,0-.735-2.5c-.441-.529-.5-.588-.5-.676,0-.206.353-.235.471-.235,1.969,0,3.115,1.118,3.115,1.882,0,.029-1.115,3.793-1.115,4.351,0,.176.116.265.322.265.147,0,1.5-.147,1.734-.147,2.206,0,3.912,1.059,3.912,3.765,0,2.323-.824,7.381-2.528,9.44a4.567,4.567,0,0,1-3,1.793c-1.088,0-1.381-1.028-1.734-2.028-.06-.206-.384-.882-.384-.971a.139.139,0,0,1,.148-.147,5.343,5.343,0,0,1,.734.206,7.308,7.308,0,0,0,1.5.206c.853,0,1.94-.412,2.794-3.588a23.455,23.455,0,0,0,.91-5.116c0-2.059-1.176-2.206-2.028-2.206a6.4,6.4,0,0,0-2.823.706c-.118.147-.146.265-.441,1.265-1.176,4-4.029,11.232-6.41,11.232a.863.863,0,0,1-.94-.94c0-.618.2-.853,1.969-2.794.793-.882,2.029-2.235,3.616-6.645a7.919,7.919,0,0,0,.413-1.382.206.206,0,0,0-.207-.235c-.647,0-3.382,1.176-3.97,1.176-1.146,0-2.5-1.853-2.5-2.5m20.407,6.234a14.8,14.8,0,0,1-2-.882c-.206-.059-.941-.088-.941-.2,0-.176.971-.676,1.146-.824,1.09-.824,1.207-.912,1.207-1.706A3.781,3.781,0,0,0,155.7,8.989c-.235-.118-.706-.324-.706-.441,0-.176.118-.176.207-.176,3.763,0,5.116,3.706,5.147,5.206,0,.353-.444,2.41-1.678,2.41m1.353-9.85c0,.5-.353,1.147-.852,1.147-.413,0-.648-.176-1.559-1.265a7.949,7.949,0,0,0-2.088-1.735c-.147-.088-.441-.324-.441-.441,0-.088.235-.265.5-.265,3.765,0,4.441,2.206,4.441,2.559m2.353-2.471a.807.807,0,0,1-.734.853c-.648,0-.972-.382-1.56-1.059A8.091,8.091,0,0,0,157.464,1.9c-.293-.088-.381-.206-.381-.294,0-.235.706-.412,1.059-.412,3.646,0,4.234,1.912,4.234,2.471" transform="translate(55.377 0.479)" fill="#1a1311"/><path d="M171.919,20.383c-1.5,1.176-3,2.146-4.41,2.146-1.325,0-1.443-1.5-1.443-2.028,0-3.176,2.825-6.557,6.413-9.028.909-.647,1.2-.912,1.2-3,0-.471-.09-.618-.648-.618-.057,0-1.116.059-1.322.059a3.9,3.9,0,0,1-3.763-2.146c0-.176.118-.294.353-.294.178,0,1.056.265,1.234.294a17.189,17.189,0,0,0,2,.118c.528,0,2.234,0,2.409-.441a11.272,11.272,0,0,0,.266-2.176c0-.294-.294-1.794-.294-1.853,0-.147.146-.176.263-.176.06,0,2.587.529,2.587,1.176,0,.029-.438.971-.468,1.029a3.907,3.907,0,0,0-.41,1.441c0,.235.027.294.38.294.616,0,3.323-.971,3.882-.971a1.136,1.136,0,0,1,1.234.971c0,.941-1.056,1.206-3.559,1.823-1.732.41-2.172.528-2.35.763a3.837,3.837,0,0,0-.324,1.441c0,.676.148.735.5.735a3.643,3.643,0,0,0,.85-.147,16,16,0,0,1,3.676-.559c4.293,0,6.675,2.971,6.675,6.734,0,6.381-5.853,8.028-8.585,8.763a9.608,9.608,0,0,1-2.028.353c-.178,0-.3-.059-.3-.206,0-.118.235-.206.588-.324,5.91-2,8.087-5.087,8.087-8.381,0-3.7-2.472-5.675-4.851-5.675-1.412,0-1.472.176-2,1.912a14.678,14.678,0,0,1-2.028,4,1.532,1.532,0,0,0-.322,1.059c0,.235.087,1.294.087,1.5,0,.794-.3,1.471-.941,1.471-.5,0-.707-.353-.912-.676-.206-.353-.235-.412-.324-.412a12.93,12.93,0,0,0-1.412,1.029m1.322-3.5c.118-.294.178-3.381.178-3.7,0-.176,0-.676-.206-.676-1.087,0-5.234,4.94-5.234,7.145,0,.412.148.706.619.647,1-.118,4.232-2.353,4.643-3.412M176.566,11c-1.529,0-1.529,1-1.529,2.029,0,.265,0,1.412.353,1.412.441,0,1.615-2.323,1.615-3.088a.636.636,0,0,0-.087-.294c-.057-.059-.266-.059-.352-.059" transform="translate(66.513 0.496)" fill="#1a1311"/><path d="M209.057,17.146a4.655,4.655,0,0,0-4.969-4.469c-3.882,0-6.381,4.028-6.912,4.94-.588,1-.881,1.559-1.675,1.559a.811.811,0,0,1-.853-.824c0-.735.235-1.382,2.323-3.822,1.912-2.235,2.2-2.618,6.645-8.851.969-1.382,1.382-2,1.382-2.323,0-.206-.206-.412-.559-.412-1.088,0-2.823,1.471-3.322,1.882-1.176.971-1.59,1.059-2.09,1.059-1.382,0-2.293-1.882-2.293-2.029,0-.088.087-.088.706-.088A14.232,14.232,0,0,0,202,2.708c1.825-.794,2.031-.882,2.678-.882,1.175,0,3.087.735,3.087,2.029,0,.853-.676,1.323-2.088,2.294a17.944,17.944,0,0,0-4.7,6.028c0,.088.088.206.176.206.176-.059.559-.206.734-.265a7.114,7.114,0,0,1,2.588-.471,6.348,6.348,0,0,1,6.617,6.116c0,3.735-3.616,6.351-7.351,6.351-2.912,0-5-1.557-5-3.028a2.831,2.831,0,0,1,2.91-2.382A4.342,4.342,0,0,1,205,20.587c.41.529.588.794,1,.794,1,0,3.059-1.794,3.059-4.235M201.5,19.793a1.2,1.2,0,0,0-1.235,1.029c0,.765,1.265,1.382,2.529,1.382a.486.486,0,0,0,.5-.529,2,2,0,0,0-1.793-1.882" transform="translate(77.961 0.731)" fill="#1a1311"/><path d="M225.2,17.437a3.264,3.264,0,1,1-6.528-.029,3.264,3.264,0,0,1,6.528.029m-5.7-.029a2.466,2.466,0,0,0,2.471,2.471,2.428,2.428,0,0,0,2.441-2.412,2.468,2.468,0,0,0-2.5-2.471,2.379,2.379,0,0,0-2.412,2.412" transform="translate(87.583 5.676)" fill="#1a1311"/><path d="M250.887,3.609c-2.588,0-3.412.059-3.7.088-.118,0-.531.059-.618.059-.118,0-.176-.059-.265-.176l-.559-.676c-.118-.147-.147-.147-.147-.206,0-.029.06-.059.118-.059.206,0,1.088.088,1.293.088,1.443.059,2.648.118,4.029.118h2.441c.529,0,.912-.147.912-.882a4.518,4.518,0,0,0-.147-1.147c0-.059-.118-.441-.118-.5,0-.206.235-.206.353-.206.147,0,1.676.382,2.175.5.235.059.619.147.619.471,0,.206-.148.324-.529.559a.535.535,0,0,0-.235.471c0,.735.471.735,1.029.735h3.5c.323,0,.91,0,.91-.765a6.292,6.292,0,0,0-.2-1.412,2.566,2.566,0,0,1-.206-.412c0-.147.324-.235.5-.235.263,0,2.353.382,2.471.412.146.029.353.147.353.324s-.059.206-.56.529a.8.8,0,0,0-.263.676c0,.882.412.882,1.029.882h1.529c1.322,0,1.44,0,1.882-.5.822-.971.91-1.088,1.175-1.088.175,0,2.763,1.588,2.763,1.941,0,.412-.588.412-1.587.412h-5.793c-.441,0-.941,0-.941.853,0,.206.029,1,0,1.147-.118.382-.412.647-1.735.647-.382,0-.5-.059-.5-.588,0-.235.059-1.265.029-1.471-.088-.529-.529-.588-.853-.588H257.5c-.647,0-1,.118-1,.971,0,.971,0,1.294-.471,1.529a2.738,2.738,0,0,1-1.206.294c-.471,0-.471-.294-.471-.588,0-1.971,0-2.206-.853-2.206Zm16.732,9.822c.441,0,.619-.029.823-.206.118-.118.5-.912.647-.912.381,0,3.176,1.618,3.176,2.381,0,.618-.882.618-1.059.618a3.444,3.444,0,0,0-1.912.324c-.176.059-1.41,1.118-1.471,1.118a.094.094,0,0,1-.088-.088,2.6,2.6,0,0,1,.176-.412,5.512,5.512,0,0,0,.382-1.441c0-.528-.382-.616-.735-.616H249.976c-.706,0-.765.176-.941,1.116-.294,1.382-1.09,2.853-2.294,2.853a1.163,1.163,0,0,1-1.087-1.029c0-.294.087-.412.969-1.353a4.97,4.97,0,0,0,1.529-2.969c0-.029.088-.324.235-.324s.529.647.616.735a.885.885,0,0,0,.706.206Zm-10.851,4.293c-1.059,0-1.351.471-1.351.618,0,.088.088.118.912.441,2.587,1,2.646,1.735,2.646,2.353,0,.735-.412,1.322-.882,1.322-.41,0-.528-.265-1.028-1.175-.029-.059-1.59-2.353-2.441-2.353a12.508,12.508,0,0,0-2.294,1.235,15.47,15.47,0,0,1-2.97,1.176c-.057,0-.118-.029-.118-.059,0-.059,2.147-1.588,2.471-1.823.5-.412,3.912-3.118,4.323-4.47.176-.587.176-.675.441-.675.324,0,2.706.5,2.706,1.028,0,.147-.235.265-.648.412-.265.118-1.116.794-1.116,1.029,0,.176.235.176.353.176H262.3a1.2,1.2,0,0,0,1.294-.647c.531-.706.588-.765.8-.765.353,0,2.293,1.5,2.293,2.029,0,.235-.176.382-.647.559-.412.147-.441.206-.852.824a19.243,19.243,0,0,1-15.291,7.41c-.265,0-1.765-.029-1.765-.265a1.879,1.879,0,0,1,.646-.176c10.145-1.529,14.145-7.057,14.145-7.734,0-.471-.471-.471-.765-.471Zm8.351-10.85a1.614,1.614,0,0,0,1.354-.5,4.858,4.858,0,0,1,.763-.559,17.971,17.971,0,0,1,1.912,1.118.714.714,0,0,1,.322.5c0,.235-.087.265-.675.588-.235.147-.235.235-.235,1.029,0,.441.059,2.353,0,2.735-.147.912-.735.912-1,.912-.823,0-.882-.176-1.235-.853a.781.781,0,0,0-.765-.353H252.651a.727.727,0,0,0-.824.529c-.118.471-.206.735-1.147.735-1.028,0-1.088-.471-1.088-.971,0-.353.09-1.853.09-2.147,0-.441-.029-2.353-.029-2.734,0-.147-.118-.706-.118-.824,0-.088.029-.235.206-.235a4.326,4.326,0,0,1,1.734.735,2.4,2.4,0,0,0,1.382.294Zm-12.438.793c-.91,0-.941.559-.941,1.029,0,1.706,0,2.029.941,2.029h1.676c.941,0,.941-.324.941-2.059,0-.765-.3-1-.941-1Zm7.441,3.059c.852,0,.852-.353.852-1.588,0-1.059,0-1.471-.824-1.471H258c-.853,0-.853.412-.853,1.471,0,1.206,0,1.588.853,1.588Zm5.35,0c.941,0,.941-.324.941-1.706,0-.912,0-1.353-.941-1.353h-1.7c-.941,0-.941.471-.941,1.294,0,1.412,0,1.765.941,1.765Z" transform="translate(98.366 0.008)" fill="#1a1311"/><path d="M274.448,9.753a.259.259,0,0,1,.265-.235c.088,0,1.618.412,1.941.412a49.259,49.259,0,0,0,4.941-.882c.5-.353.528-3.322.528-3.469a3.715,3.715,0,0,0-.735-2.5c-.441-.529-.5-.588-.5-.676,0-.206.353-.235.471-.235,1.969,0,3.115,1.118,3.115,1.882,0,.029-1.115,3.793-1.115,4.351,0,.176.116.265.322.265.147,0,1.5-.147,1.734-.147,2.206,0,3.912,1.059,3.912,3.765,0,2.323-.824,7.381-2.528,9.44a4.564,4.564,0,0,1-3,1.793c-1.088,0-1.381-1.028-1.734-2.028-.06-.206-.384-.882-.384-.971a.139.139,0,0,1,.148-.147,5.347,5.347,0,0,1,.734.206,7.307,7.307,0,0,0,1.5.206c.853,0,1.94-.412,2.794-3.588a23.454,23.454,0,0,0,.91-5.116c0-2.059-1.176-2.206-2.028-2.206a6.4,6.4,0,0,0-2.823.706c-.118.147-.146.265-.441,1.265-1.176,4-4.028,11.232-6.41,11.232a.863.863,0,0,1-.94-.94c0-.618.2-.853,1.969-2.794.793-.882,2.029-2.235,3.616-6.645a7.923,7.923,0,0,0,.413-1.382.206.206,0,0,0-.207-.235c-.647,0-3.382,1.176-3.97,1.176-1.146,0-2.5-1.853-2.5-2.5m20.407,6.234a14.8,14.8,0,0,1-2-.882c-.206-.059-.941-.088-.941-.2,0-.176.971-.676,1.146-.824,1.09-.824,1.207-.912,1.207-1.706a3.781,3.781,0,0,0-2.384-3.382c-.235-.118-.706-.324-.706-.441,0-.176.118-.176.207-.176,3.763,0,5.116,3.706,5.147,5.206,0,.353-.443,2.41-1.678,2.41m1.353-9.85c0,.5-.353,1.147-.851,1.147-.413,0-.648-.176-1.559-1.265a7.95,7.95,0,0,0-2.088-1.735c-.147-.088-.441-.324-.441-.441,0-.088.235-.265.5-.265,3.765,0,4.441,2.206,4.441,2.559m2.353-2.471a.807.807,0,0,1-.734.853c-.648,0-.972-.382-1.56-1.059A8.091,8.091,0,0,0,293.649,1.9c-.293-.088-.381-.206-.381-.294,0-.235.706-.412,1.059-.412,3.646,0,4.234,1.912,4.234,2.471" transform="translate(109.923 0.479)" fill="#1a1311"/><path d="M308.1,20.383c-1.5,1.176-3,2.146-4.412,2.146-1.324,0-1.441-1.5-1.441-2.028,0-3.176,2.823-6.557,6.412-9.028.91-.647,1.2-.912,1.2-3,0-.471-.088-.618-.647-.618-.059,0-1.116.059-1.323.059a3.906,3.906,0,0,1-3.763-2.146c0-.176.118-.294.353-.294.178,0,1.057.265,1.235.294a17.15,17.15,0,0,0,2,.118c.528,0,2.235,0,2.41-.441a11.254,11.254,0,0,0,.265-2.176c0-.294-.294-1.794-.294-1.853,0-.147.147-.176.265-.176.06,0,2.587.529,2.587,1.176,0,.029-.44.971-.469,1.029a3.908,3.908,0,0,0-.41,1.441c0,.235.028.294.381.294.616,0,3.322-.971,3.882-.971a1.137,1.137,0,0,1,1.234.971c0,.941-1.057,1.206-3.559,1.823-1.734.41-2.174.528-2.351.763a3.863,3.863,0,0,0-.324,1.441c0,.676.148.735.5.735a3.668,3.668,0,0,0,.852-.147,15.975,15.975,0,0,1,3.675-.559c4.294,0,6.676,2.971,6.676,6.734,0,6.381-5.853,8.028-8.587,8.763a9.573,9.573,0,0,1-2.028.353c-.178,0-.3-.059-.3-.206,0-.118.235-.206.588-.324,5.91-2,8.087-5.087,8.087-8.381,0-3.7-2.471-5.675-4.851-5.675-1.412,0-1.472.176-2,1.912a14.644,14.644,0,0,1-2.029,4,1.54,1.54,0,0,0-.322,1.059c0,.235.087,1.294.087,1.5,0,.794-.294,1.471-.941,1.471-.5,0-.706-.353-.91-.676-.207-.353-.235-.412-.325-.412a12.964,12.964,0,0,0-1.41,1.029m1.322-3.5c.118-.294.178-3.381.178-3.7,0-.176,0-.676-.207-.676-1.087,0-5.234,4.94-5.234,7.145,0,.412.148.706.619.647,1-.118,4.234-2.353,4.644-3.412M312.75,11c-1.529,0-1.529,1-1.529,2.029,0,.265,0,1.412.353,1.412.441,0,1.616-2.323,1.616-3.088a.653.653,0,0,0-.087-.294c-.059-.059-.266-.059-.353-.059" transform="translate(121.059 0.496)" fill="#1a1311"/><path d="M345.242,17.146a4.655,4.655,0,0,0-4.969-4.469c-3.882,0-6.382,4.028-6.91,4.94-.588,1-.884,1.559-1.676,1.559a.812.812,0,0,1-.854-.824c0-.735.235-1.382,2.325-3.822,1.91-2.235,2.206-2.618,6.645-8.851.971-1.382,1.381-2,1.381-2.323,0-.206-.2-.412-.557-.412-1.09,0-2.824,1.471-3.323,1.882-1.176.971-1.587,1.059-2.088,1.059-1.381,0-2.293-1.882-2.293-2.029,0-.088.088-.088.706-.088a14.251,14.251,0,0,0,4.557-1.059c1.822-.794,2.029-.882,2.676-.882,1.175,0,3.088.735,3.088,2.029,0,.853-.678,1.323-2.09,2.294a17.944,17.944,0,0,0-4.7,6.028c0,.088.09.206.176.206.176-.059.557-.206.735-.265a7.115,7.115,0,0,1,2.588-.471,6.347,6.347,0,0,1,6.616,6.116c0,3.735-3.618,6.351-7.351,6.351-2.91,0-5-1.557-5-3.028a2.831,2.831,0,0,1,2.912-2.382,4.339,4.339,0,0,1,3.351,1.882c.413.529.588.794,1,.794,1,0,3.057-1.794,3.057-4.235m-7.557,2.647a1.2,1.2,0,0,0-1.235,1.029c0,.765,1.265,1.382,2.529,1.382a.487.487,0,0,0,.5-.529,2,2,0,0,0-1.794-1.882" transform="translate(132.506 0.731)" fill="#1a1311"/><path d="M361.385,17.437a3.264,3.264,0,1,1-6.528-.029,3.264,3.264,0,0,1,6.528.029m-5.7-.029a2.466,2.466,0,0,0,2.471,2.471,2.427,2.427,0,0,0,2.44-2.412,2.465,2.465,0,0,0-2.5-2.471,2.38,2.38,0,0,0-2.412,2.412" transform="translate(142.128 5.676)" fill="#1a1311"/><path d="M5.238,72.477a15.23,15.23,0,0,0,1.957,5.038,7.5,7.5,0,0,0,3.189,2.737,12.259,12.259,0,0,0,5.038.888q4.241,0,6.507-2.211t2.265-6.451a9.978,9.978,0,0,0-.943-4.567,10.48,10.48,0,0,0-3.08-3.479,42.3,42.3,0,0,0-6.525-3.805,36.086,36.086,0,0,1-6.7-4.113,13.943,13.943,0,0,1-3.679-4.368A11.061,11.061,0,0,1,2.049,47a12.851,12.851,0,0,1,1.9-7.05,12.3,12.3,0,0,1,5.581-4.62,20.611,20.611,0,0,1,8.427-1.63,49.06,49.06,0,0,1,5.382.29,49.1,49.1,0,0,1,6.578,1.3v9.785H26.331a15.225,15.225,0,0,0-2.1-4.965,6.955,6.955,0,0,0-2.972-2.483,11.7,11.7,0,0,0-4.421-.706,9.879,9.879,0,0,0-4.223.87,6.751,6.751,0,0,0-2.954,2.627,7.8,7.8,0,0,0-1.088,4.186A9.329,9.329,0,0,0,9.5,48.955a10.21,10.21,0,0,0,2.881,3.3,34.548,34.548,0,0,0,5.8,3.407,44.009,44.009,0,0,1,7.194,4.312,15.2,15.2,0,0,1,3.986,4.549,11.986,11.986,0,0,1,1.433,5.962,15.492,15.492,0,0,1-1.2,6.433,11.2,11.2,0,0,1-3.316,4.277A13.528,13.528,0,0,1,21.2,83.586a26.543,26.543,0,0,1-6.469.742,53.182,53.182,0,0,1-13.12-1.922v-9.93Z" transform="translate(0.646 13.497)" fill="#1a1311"/><path d="M58.664,83.748V81.973a11.715,11.715,0,0,0,2.7-.8,2.945,2.945,0,0,0,1.323-1.214,4.278,4.278,0,0,0,.434-2.084,13.485,13.485,0,0,0-.29-2.664q-.29-1.431-.833-3.207L60.657,67.33H43.768l-1.232,3.553A35.673,35.673,0,0,0,41.3,74.942a12.157,12.157,0,0,0-.291,2.5,4.139,4.139,0,0,0,1.106,3.19,6.238,6.238,0,0,0,3.388,1.34v1.776H30.033V81.973a5.476,5.476,0,0,0,3.534-2.356,24.254,24.254,0,0,0,2.917-5.8L51.6,33.7h5.725L69.645,74.109a39.058,39.058,0,0,0,1.541,4.312A6.743,6.743,0,0,0,72.8,80.74a5.942,5.942,0,0,0,2.574,1.232v1.776ZM44.747,64.178H59.9L53.01,40.8Z" transform="translate(12.029 13.497)" fill="#1a1311"/><path d="M82.907,74.413a19.5,19.5,0,0,0,.235,3.406,5.478,5.478,0,0,0,.725,2.013,3.325,3.325,0,0,0,1.322,1.16,12.205,12.205,0,0,0,2.611.815v1.776H71.889V81.807A7.425,7.425,0,0,0,74.9,80.521a3.507,3.507,0,0,0,1-2.013,24.69,24.69,0,0,0,.235-3.986V43.173a25.679,25.679,0,0,0-.182-3.643,4.546,4.546,0,0,0-.6-1.777,3.082,3.082,0,0,0-1.105-1.014,12.37,12.37,0,0,0-2.356-.852V34.112H89.866q8.479,0,12.63,3.244t4.15,9.876a16.871,16.871,0,0,1-1.3,6.777,12.658,12.658,0,0,1-3.7,4.928,14.713,14.713,0,0,1-5.654,2.755,27.555,27.555,0,0,1-6.85.833q-4.023,0-6.234-.146Zm0-15.04h4.2A18.276,18.276,0,0,0,93.87,58.3a7.976,7.976,0,0,0,4.077-3.552,13.247,13.247,0,0,0,1.415-6.578,14.078,14.078,0,0,0-.835-5.2,8.156,8.156,0,0,0-5.8-5.147,17.687,17.687,0,0,0-4.421-.525q-3.588,0-5.4.146Z" transform="translate(28.793 13.662)" fill="#1a1311"/><path d="M116.384,74.413a19.5,19.5,0,0,0,.235,3.406,5.478,5.478,0,0,0,.725,2.013,3.325,3.325,0,0,0,1.322,1.16,12.205,12.205,0,0,0,2.611.815v1.776H105.366V81.807a7.425,7.425,0,0,0,3.008-1.286,3.507,3.507,0,0,0,1-2.013,24.688,24.688,0,0,0,.235-3.986V43.173a25.679,25.679,0,0,0-.182-3.643,4.546,4.546,0,0,0-.6-1.777,3.082,3.082,0,0,0-1.105-1.014,12.369,12.369,0,0,0-2.356-.852V34.112h17.977q8.479,0,12.63,3.244t4.15,9.876a16.871,16.871,0,0,1-1.3,6.777,12.658,12.658,0,0,1-3.7,4.928,14.713,14.713,0,0,1-5.654,2.755,27.555,27.555,0,0,1-6.85.833q-4.023,0-6.234-.146Zm0-15.04h4.2a18.276,18.276,0,0,0,6.759-1.07,7.976,7.976,0,0,0,4.077-3.552,13.247,13.247,0,0,0,1.415-6.578,14.078,14.078,0,0,0-.835-5.2,8.156,8.156,0,0,0-5.8-5.147,17.687,17.687,0,0,0-4.421-.525q-3.588,0-5.4.146Z" transform="translate(42.201 13.662)" fill="#1a1311"/><path d="M159.506,84.328a21.081,21.081,0,0,1-7.919-1.431,15.436,15.436,0,0,1-6.126-4.458,21.127,21.127,0,0,1-3.949-7.738,39.948,39.948,0,0,1-1.4-11.27,35.361,35.361,0,0,1,2.465-13.882,19.237,19.237,0,0,1,7.049-8.825A18.871,18.871,0,0,1,160.267,33.7a19.605,19.605,0,0,1,10.855,2.844,17.332,17.332,0,0,1,6.631,8.372,36.055,36.055,0,0,1,2.23,13.465A35.88,35.88,0,0,1,177.446,72.7a18.751,18.751,0,0,1-7.158,8.734,19.854,19.854,0,0,1-10.781,2.9M147.582,58.416q0,11.126,3.244,16.925t9.477,5.8a9.579,9.579,0,0,0,6.706-2.518,15.446,15.446,0,0,0,4.132-7.375A41.818,41.818,0,0,0,172.517,59.9,44.964,44.964,0,0,0,170.9,46.8q-1.611-5.2-4.4-7.556a9.748,9.748,0,0,0-6.487-2.357,10.044,10.044,0,0,0-5.6,1.522,11.8,11.8,0,0,0-3.878,4.332,22.075,22.075,0,0,0-2.246,6.8,51,51,0,0,0-.707,8.879" transform="translate(56.12 13.497)" fill="#1a1311"/><path d="M189.456,62.092V74.415a25.1,25.1,0,0,0,.2,3.787,4.648,4.648,0,0,0,.6,1.776,3.059,3.059,0,0,0,1.088.978,12.1,12.1,0,0,0,2.356.852v1.776H178.4V81.807a7.425,7.425,0,0,0,3.008-1.286,3.507,3.507,0,0,0,1-2.013,24.527,24.527,0,0,0,.235-3.986V43.173a25.678,25.678,0,0,0-.182-3.643,4.554,4.554,0,0,0-.6-1.776,3.1,3.1,0,0,0-1.1-1.015,12.43,12.43,0,0,0-2.357-.852V34.112h17.941q8.481,0,12.685,3.081t4.2,9.567a13.245,13.245,0,0,1-2.737,8.445,17.7,17.7,0,0,1-8.208,5.437v.29a10.636,10.636,0,0,1,3.787,2.591,26.043,26.043,0,0,1,3.5,5.237l3.262,5.945a35.854,35.854,0,0,0,2.429,3.986,9,9,0,0,0,2.066,2.1,6.852,6.852,0,0,0,2.791,1.014v1.776H210.079a42.893,42.893,0,0,1-2.611-4.132q-1.233-2.21-2.429-4.493l-3.189-6.053a38.9,38.9,0,0,0-2.374-4.06,7.271,7.271,0,0,0-1.7-1.829,4.882,4.882,0,0,0-1.667-.725,13.255,13.255,0,0,0-2.664-.2Zm0-24.645V58.975h4.1a23.366,23.366,0,0,0,5.111-.454,9.449,9.449,0,0,0,3.625-1.721,8.763,8.763,0,0,0,2.664-3.535,13.8,13.8,0,0,0,1-5.563,12.433,12.433,0,0,0-1.176-5.725A7.852,7.852,0,0,0,201.2,38.5a14.566,14.566,0,0,0-6.451-1.2q-3.26,0-5.291.146" transform="translate(71.454 13.662)" fill="#1a1311"/><path d="M234.239,84.328a21.08,21.08,0,0,1-7.919-1.431,15.436,15.436,0,0,1-6.126-4.458,21.128,21.128,0,0,1-3.949-7.738,39.949,39.949,0,0,1-1.4-11.27,35.361,35.361,0,0,1,2.465-13.882,19.237,19.237,0,0,1,7.049-8.825A18.871,18.871,0,0,1,235,33.7a19.605,19.605,0,0,1,10.855,2.844,17.332,17.332,0,0,1,6.631,8.372,36.055,36.055,0,0,1,2.23,13.465A35.88,35.88,0,0,1,252.179,72.7a18.75,18.75,0,0,1-7.158,8.734,19.854,19.854,0,0,1-10.781,2.9M222.315,58.416q0,11.126,3.244,16.925t9.477,5.8a9.579,9.579,0,0,0,6.706-2.518,15.446,15.446,0,0,0,4.132-7.375A41.819,41.819,0,0,0,247.25,59.9a44.963,44.963,0,0,0-1.613-13.1q-1.611-5.2-4.4-7.556a9.748,9.748,0,0,0-6.487-2.357,10.044,10.044,0,0,0-5.6,1.522,11.8,11.8,0,0,0-3.878,4.332,22.076,22.076,0,0,0-2.246,6.8,51,51,0,0,0-.707,8.879" transform="translate(86.052 13.497)" fill="#1a1311"/><path d="M300.94,63.975q1.3,2.174,2.192,3.805t1.832,3.661h.471q-.183-2.21-.326-8.788t-.144-11.869V43.172a33.11,33.11,0,0,0-.146-3.66,4.487,4.487,0,0,0-.525-1.776,2.894,2.894,0,0,0-1.052-1,11.636,11.636,0,0,0-2.338-.852V34.112h13.047v1.776a11.708,11.708,0,0,0-2.3.8,3.176,3.176,0,0,0-1.087.943,4.414,4.414,0,0,0-.636,1.739,23.3,23.3,0,0,0-.217,3.805V83.8h-4.529L284.994,49.949q-1.887-3.153-2.682-4.6t-1.486-2.863h-.616q.252,2.79.363,10.092t.108,14.551v7.395a27.3,27.3,0,0,0,.164,3.55,4.975,4.975,0,0,0,.543,1.776,3.031,3.031,0,0,0,1.123,1.088,10.18,10.18,0,0,0,2.41.87v1.776H271.693V81.807A7.422,7.422,0,0,0,274.7,80.52a3.5,3.5,0,0,0,1-2.011,24.531,24.531,0,0,0,.235-3.986V43.172a25.972,25.972,0,0,0-.181-3.643,4.593,4.593,0,0,0-.6-1.776,3.106,3.106,0,0,0-1.1-1.014,12.275,12.275,0,0,0-2.356-.852V34.112h11.343Z" transform="translate(108.819 13.662)" fill="#1a1311"/><path d="M346.357,34.112V45.057h-3.552a30.557,30.557,0,0,0-1.123-3.116,13.876,13.876,0,0,0-1.2-2.248,5.881,5.881,0,0,0-1.36-1.45,4.376,4.376,0,0,0-1.758-.744,12.891,12.891,0,0,0-2.428-.2H323.488V56.292h7.756a5.684,5.684,0,0,0,2.5-.452,3.563,3.563,0,0,0,1.5-1.541,14.182,14.182,0,0,0,1.141-3.407H339.8V64.809H336.39a13.088,13.088,0,0,0-1.123-3.279,3.9,3.9,0,0,0-1.468-1.577,5.435,5.435,0,0,0-2.555-.471h-7.756V80.394h11.271a11.01,11.01,0,0,0,2.881-.308,4.533,4.533,0,0,0,1.9-1.05,7.021,7.021,0,0,0,1.413-1.94,16.476,16.476,0,0,0,1.032-2.483q.418-1.286,1.143-3.751h3.588l-.689,12.721H312.47V81.807a7.426,7.426,0,0,0,3.008-1.286,3.515,3.515,0,0,0,1-2.013,24.686,24.686,0,0,0,.235-3.986V43.173a25.674,25.674,0,0,0-.182-3.643,4.53,4.53,0,0,0-.6-1.776,3.085,3.085,0,0,0-1.105-1.015,12.369,12.369,0,0,0-2.356-.852V34.112Z" transform="translate(125.151 13.662)" fill="#1a1311"/><path d="M362.815,34.112v1.776a4.756,4.756,0,0,0-2.5.943,2.415,2.415,0,0,0-.76,1.885,6.43,6.43,0,0,0,.689,2.536,35.393,35.393,0,0,0,1.957,3.625l5.256,8.806,5.182-8.372q1.16-1.882,1.739-3.007a12.127,12.127,0,0,0,.815-1.885,5.245,5.245,0,0,0,.235-1.559,2.872,2.872,0,0,0-.651-1.9,3.638,3.638,0,0,0-2.175-1.069V34.112h13.445v1.776a7.775,7.775,0,0,0-2.409,1.269,13.258,13.258,0,0,0-2.284,2.429q-1.214,1.594-3.461,5.036L369.7,57.307l9.206,15.149q1.956,3.227,2.808,4.512a24.354,24.354,0,0,0,1.6,2.174,10.046,10.046,0,0,0,1.594,1.541,8.141,8.141,0,0,0,2.12,1.123v1.776h-15.91V81.807a5.528,5.528,0,0,0,2.465-.923,2.287,2.287,0,0,0,.8-1.9,5.824,5.824,0,0,0-.525-2.248,26.3,26.3,0,0,0-1.613-3.043l-6.56-10.946-6.921,11.344a9.771,9.771,0,0,0-1.741,4.711,2.907,2.907,0,0,0,.653,1.958,3.688,3.688,0,0,0,2.175,1.05v1.776h-13.7V81.807a7.69,7.69,0,0,0,3.878-2.392A26.228,26.228,0,0,0,351.8,77.2q.979-1.34,3.116-4.675l8.554-13.337L353.246,42.375q-1.45-2.319-2.192-3.37a14.381,14.381,0,0,0-1.378-1.7,5.018,5.018,0,0,0-1.141-.924,7.558,7.558,0,0,0-1.16-.489V34.112Z" transform="translate(138.638 13.662)" fill="#1a1311"/><path d="M383.806,34.112h39.215V46.724h-3.552a34.86,34.86,0,0,0-1.577-4.928,9.774,9.774,0,0,0-1.648-2.753,5.181,5.181,0,0,0-1.867-1.342,8.523,8.523,0,0,0-2.99-.4h-4.6V74.413a19.339,19.339,0,0,0,.237,3.406,5.469,5.469,0,0,0,.724,2.013,3.329,3.329,0,0,0,1.323,1.16,12.216,12.216,0,0,0,2.609.815v1.776H395.114V81.807a18.9,18.9,0,0,0,1.92-.543,4.627,4.627,0,0,0,1.36-.706,3.343,3.343,0,0,0,.87-1.07,6.2,6.2,0,0,0,.543-1.776,20.31,20.31,0,0,0,.2-3.3V37.3H395.44a10.141,10.141,0,0,0-2.809.326,4.54,4.54,0,0,0-2.048,1.359,9.918,9.918,0,0,0-1.721,2.937,32.914,32.914,0,0,0-1.468,4.8h-3.588Z" transform="translate(153.723 13.662)" fill="#1a1311"/><path d="M452.735,34.112v1.776a9.585,9.585,0,0,0-2.538.725,2.929,2.929,0,0,0-1.3,1.232,4.47,4.47,0,0,0-.436,2.137,13.465,13.465,0,0,0,.29,2.664q.292,1.433.835,3.207l8.48,29.575,10.4-29.792c.144-.458.29-.943.436-1.45s.27-1,.379-1.486a10.692,10.692,0,0,0,.217-1.267q.055-.544.055-1.015a4.34,4.34,0,0,0-1-3.172,6.035,6.035,0,0,0-3.388-1.359V34.112h15.222v1.776A6.444,6.444,0,0,0,478,36.94a7.472,7.472,0,0,0-1.794,2.21,35.488,35.488,0,0,0-2.157,4.856l-15.04,40.157h-4.748L442.043,43.753a29.433,29.433,0,0,0-1.7-4.695,6.6,6.6,0,0,0-1.6-2.1,5.955,5.955,0,0,0-2.392-1.069V34.112Z" transform="translate(174.769 13.662)" fill="#1a1311"/><path d="M488.113,74.523a27.35,27.35,0,0,0,.164,3.552,4.969,4.969,0,0,0,.542,1.776,3.055,3.055,0,0,0,1.125,1.087,10.179,10.179,0,0,0,2.41.87v1.776h-15.3V81.807a7.425,7.425,0,0,0,3.008-1.286,3.507,3.507,0,0,0,1-2.013,24.53,24.53,0,0,0,.235-3.986V43.173a25.68,25.68,0,0,0-.182-3.643,4.555,4.555,0,0,0-.6-1.776,3.1,3.1,0,0,0-1.105-1.015,12.432,12.432,0,0,0-2.357-.852V34.112h15.3v1.776a10.038,10.038,0,0,0-2.3.8,3.341,3.341,0,0,0-1.123,1,4.461,4.461,0,0,0-.615,1.794,24.454,24.454,0,0,0-.2,3.7Z" transform="translate(191.073 13.662)" fill="#1a1311"/><path d="M502.244,72.477a15.231,15.231,0,0,0,1.957,5.038,7.5,7.5,0,0,0,3.189,2.737,12.259,12.259,0,0,0,5.038.888q4.242,0,6.507-2.211t2.265-6.451a9.977,9.977,0,0,0-.943-4.567,10.479,10.479,0,0,0-3.08-3.479,42.291,42.291,0,0,0-6.525-3.805,36.084,36.084,0,0,1-6.7-4.113,13.941,13.941,0,0,1-3.679-4.368A11.06,11.06,0,0,1,499.055,47a12.851,12.851,0,0,1,1.9-7.05,12.305,12.305,0,0,1,5.581-4.62,20.612,20.612,0,0,1,8.427-1.63,42.67,42.67,0,0,1,11.96,1.594v9.785h-3.588a15.229,15.229,0,0,0-2.1-4.965,6.954,6.954,0,0,0-2.972-2.483,11.7,11.7,0,0,0-4.421-.706,9.879,9.879,0,0,0-4.223.87,6.751,6.751,0,0,0-2.954,2.627,7.8,7.8,0,0,0-1.088,4.186,9.33,9.33,0,0,0,.926,4.349,10.21,10.21,0,0,0,2.881,3.3,34.548,34.548,0,0,0,5.8,3.407,44.007,44.007,0,0,1,7.194,4.312,15.193,15.193,0,0,1,3.986,4.549,11.985,11.985,0,0,1,1.433,5.962,15.492,15.492,0,0,1-1.2,6.433,11.2,11.2,0,0,1-3.316,4.277,13.528,13.528,0,0,1-5.074,2.392,26.543,26.543,0,0,1-6.469.742,53.183,53.183,0,0,1-13.12-1.922v-9.93Z" transform="translate(199.708 13.497)" fill="#1a1311"/><path d="M540.645,74.523a27.406,27.406,0,0,0,.162,3.552,4.967,4.967,0,0,0,.543,1.776,3.043,3.043,0,0,0,1.125,1.087,10.163,10.163,0,0,0,2.409.87v1.776H529.591V81.807a7.436,7.436,0,0,0,3.008-1.286,3.506,3.506,0,0,0,1-2.013,24.527,24.527,0,0,0,.235-3.986V43.173a25.952,25.952,0,0,0-.181-3.643,4.579,4.579,0,0,0-.6-1.776,3.1,3.1,0,0,0-1.105-1.015,12.374,12.374,0,0,0-2.356-.852V34.112h15.294v1.776a10.025,10.025,0,0,0-2.3.8,3.341,3.341,0,0,0-1.123,1,4.439,4.439,0,0,0-.616,1.794,24.7,24.7,0,0,0-.2,3.7Z" transform="translate(212.113 13.662)" fill="#1a1311"/><path d="M569.725,84.328a21.087,21.087,0,0,1-7.92-1.431,15.431,15.431,0,0,1-6.125-4.458,21.106,21.106,0,0,1-3.95-7.738,39.949,39.949,0,0,1-1.4-11.27A35.388,35.388,0,0,1,552.8,45.549a19.229,19.229,0,0,1,7.049-8.825A18.873,18.873,0,0,1,570.487,33.7a19.6,19.6,0,0,1,10.854,2.844,17.331,17.331,0,0,1,6.631,8.372,36.054,36.054,0,0,1,2.23,13.465A35.88,35.88,0,0,1,587.665,72.7a18.765,18.765,0,0,1-7.157,8.734,19.866,19.866,0,0,1-10.783,2.9M557.8,58.416q0,11.126,3.244,16.925t9.477,5.8a9.576,9.576,0,0,0,6.706-2.518,15.432,15.432,0,0,0,4.13-7.375A41.707,41.707,0,0,0,582.736,59.9a44.963,44.963,0,0,0-1.613-13.1q-1.611-5.2-4.4-7.556a9.754,9.754,0,0,0-6.489-2.357,10.041,10.041,0,0,0-5.6,1.522,11.816,11.816,0,0,0-3.878,4.332,22.11,22.11,0,0,0-2.246,6.8,50.992,50.992,0,0,0-.707,8.879" transform="translate(220.421 13.497)" fill="#1a1311"/><path d="M617.823,63.975q1.3,2.174,2.192,3.805t1.831,3.661h.472q-.183-2.21-.326-8.788t-.146-11.869V43.172a32.861,32.861,0,0,0-.144-3.66,4.488,4.488,0,0,0-.525-1.776,2.889,2.889,0,0,0-1.05-1,11.691,11.691,0,0,0-2.339-.852V34.112h13.047v1.776a11.764,11.764,0,0,0-2.3.8,3.176,3.176,0,0,0-1.087.943,4.416,4.416,0,0,0-.633,1.739,23.151,23.151,0,0,0-.217,3.805V83.8h-4.532L601.876,49.949q-1.882-3.153-2.681-4.6t-1.486-2.863h-.616q.252,2.79.363,10.092t.108,14.551v7.395a27.609,27.609,0,0,0,.163,3.55,4.974,4.974,0,0,0,.545,1.776,3.033,3.033,0,0,0,1.123,1.088,10.206,10.206,0,0,0,2.41.87v1.776H588.575V81.807a7.412,7.412,0,0,0,3.01-1.287,3.505,3.505,0,0,0,1-2.011,24.5,24.5,0,0,0,.237-3.986V43.172a25.912,25.912,0,0,0-.182-3.643,4.569,4.569,0,0,0-.6-1.776,3.094,3.094,0,0,0-1.1-1.014,12.257,12.257,0,0,0-2.357-.852V34.112h11.346Z" transform="translate(235.737 13.662)" fill="#1a1311"/></g></g></svg>