<svg xmlns="http://www.w3.org/2000/svg" width="369.199" height="56.133" viewBox="0 0 369.199 56.133"><g transform="translate(-549.38 -951.527)"><path d="M3.185,0a.192.192,0,0,1-.192-.123A.98.98,0,0,1,2.94-.49a.98.98,0,0,1,.053-.367A.192.192,0,0,1,3.185-.98H3.71Q7.7-.98,7.7-3.36V-19.635a3.965,3.965,0,0,0-.227-1.61,1.192,1.192,0,0,0-.945-.578,17.555,17.555,0,0,0-2.538-.122H3.22q-.245,0-.245-.49t.245-.49a12.386,12.386,0,0,0,6.93-2.24.847.847,0,0,1,.455-.21.357.357,0,0,1,.3.175.777.777,0,0,1,.122.455V-3.36q0,2.38,4.025,2.38h.49a.192.192,0,0,1,.193.123.98.98,0,0,1,.052.367q0,.49-.245.49ZM39.69-.6a.819.819,0,0,1-.84.6H20.09A.192.192,0,0,1,19.9-.123a.98.98,0,0,1-.052-.368q0-.49.245-.49h.525a4.053,4.053,0,0,0,2.275-.508,2.122,2.122,0,0,0,.735-1.873V-22.19a2.125,2.125,0,0,0-.77-1.89,3.973,3.973,0,0,0-2.24-.525H20.09q-.245,0-.245-.49,0-.455.245-.455H30.52a.22.22,0,0,1,.227.123.98.98,0,0,1,.052.367q0,.455-.28.455h-.49a3.858,3.858,0,0,0-2.257.542,2.154,2.154,0,0,0-.752,1.872V-3.22a1.744,1.744,0,0,0,.717,1.645,5.559,5.559,0,0,0,2.327.525l.805.035,1.3-.035a8.951,8.951,0,0,0,4.9-1.47A15.216,15.216,0,0,0,40.6-6.02a2.329,2.329,0,0,1,.385-.455.2.2,0,0,1,.14-.07.806.806,0,0,1,.315.105q.28.14.28.35l-.035.175Q40.25-2.2,39.69-.6Zm5.74.6q-.28,0-.28-.49,0-.455.28-.455h.525a3.9,3.9,0,0,0,2.2-.507,2.122,2.122,0,0,0,.735-1.873V-22.19A2.166,2.166,0,0,0,48.16-24.1a3.9,3.9,0,0,0-2.2-.507H45.43q-.245,0-.245-.49v-.14a.3.3,0,0,1,.193-.262,1.593,1.593,0,0,1,.472-.053l4.375-.035q3.675,0,6.02.105a15.985,15.985,0,0,1,6.038,1.452,11.1,11.1,0,0,1,4.69,4.112,12.774,12.774,0,0,1,1.837,7.14A12.706,12.706,0,0,1,66.973-5.67a11.226,11.226,0,0,1-4.69,4.13A15.788,15.788,0,0,1,56.245-.07q-1.435.105-5.53.105ZM55.475-1.05a10.11,10.11,0,0,0,4.165-.98,8.808,8.808,0,0,0,3.78-3.6,13.6,13.6,0,0,0,1.61-7.14,13.582,13.582,0,0,0-1.61-7.158,8.828,8.828,0,0,0-3.78-3.587,10.11,10.11,0,0,0-4.165-.98H55.23a4.052,4.052,0,0,0-2.292.49,1.971,1.971,0,0,0-.683,1.715V-3.22a1.928,1.928,0,0,0,.683,1.68,4.052,4.052,0,0,0,2.292.49ZM99.19-.98q.245,0,.245.49T99.19,0H88.305q-.245,0-.245-.49t.245-.49q2.625,0,2.625-1.05a2.449,2.449,0,0,0-.6-1.3l-7.175-8.75a.7.7,0,0,0-.525-.28.736.736,0,0,0-.525.245q-.63.665-1.26,1.26l-.56.56a1.244,1.244,0,0,0-.385.91v6.02a2.122,2.122,0,0,0,.735,1.873,3.9,3.9,0,0,0,2.205.508h.56q.245,0,.245.49T83.405,0H72.975q-.245,0-.245-.49a.98.98,0,0,1,.052-.367.192.192,0,0,1,.193-.123H73.5a3.975,3.975,0,0,0,2.24-.508,2.122,2.122,0,0,0,.735-1.873V-22.19A2.166,2.166,0,0,0,75.74-24.1,3.975,3.975,0,0,0,73.5-24.6h-.525q-.245,0-.245-.455,0-.49.245-.49h10.43a.22.22,0,0,1,.228.123.98.98,0,0,1,.052.367q0,.455-.28.455h-.56a3.783,3.783,0,0,0-2.222.525,2.2,2.2,0,0,0-.717,1.89v9.17a.777.777,0,0,0,.122.455.357.357,0,0,0,.3.175.768.768,0,0,0,.49-.28Q83.265-15.085,86-17.9t4.025-4.182a1.857,1.857,0,0,0,.525-1.12,1.149,1.149,0,0,0-.665-1.015,3.724,3.724,0,0,0-1.855-.385q-.245,0-.245-.49,0-.455.245-.455H97.51a.229.229,0,0,1,.228.105.842.842,0,0,1,.053.35q0,.49-.28.49a7.586,7.586,0,0,0-5.215,2.38q-.42.385-6.65,6.615a.729.729,0,0,0-.28.56.616.616,0,0,0,.175.455q6.93,8.61,8.61,10.64A12.307,12.307,0,0,0,96.618-1.61,4.747,4.747,0,0,0,99.19-.98Zm24.29-9.345a12.022,12.022,0,0,1-2.887-.368,27.992,27.992,0,0,1-3.448-1.137q-2.7-1.12-4.305-1.645A10.44,10.44,0,0,0,109.585-14a9.12,9.12,0,0,0-3.588.717,19.5,19.5,0,0,0-3.308,1.8.432.432,0,0,1-.245.105.363.363,0,0,1-.228-.105q-.123-.1-.123-.175a.34.34,0,0,1,.07-.175,12.509,12.509,0,0,1,3.448-3.028,9.443,9.443,0,0,1,5.162-1.452,12.451,12.451,0,0,1,2.923.367,25.635,25.635,0,0,1,3.448,1.137l.7.28q2.345.98,3.833,1.453a9.833,9.833,0,0,0,2.993.472,8.994,8.994,0,0,0,3.57-.717,19.581,19.581,0,0,0,3.325-1.838,1.108,1.108,0,0,1,.245-.1.363.363,0,0,1,.227.1q.123.1.123.175a.34.34,0,0,1-.07.175,12.509,12.509,0,0,1-3.447,3.028A9.443,9.443,0,0,1,123.48-10.325Zm22.925-3.43q-.42.105-.42.21t.385.21a8.859,8.859,0,0,1,4.322,2.328,5.563,5.563,0,0,1,1.628,4.042,7.074,7.074,0,0,1-.963,3.5,7.493,7.493,0,0,1-2.94,2.835A9.7,9.7,0,0,1,143.57.49a8.518,8.518,0,0,1-4.008-.858A6.056,6.056,0,0,1,137.148-2.5a4.809,4.809,0,0,1-.788-2.537,2.284,2.284,0,0,1,.63-1.767,2.025,2.025,0,0,1,1.4-.577,2.458,2.458,0,0,1,1.488.472,1.6,1.6,0,0,1,.648,1.383,1.978,1.978,0,0,1-.49,1.19,3.368,3.368,0,0,0-.35.525,1.169,1.169,0,0,0-.1.525,2.335,2.335,0,0,0,.893,1.82,4.193,4.193,0,0,0,2.783.77,4.713,4.713,0,0,0,3.885-1.855,7.262,7.262,0,0,0,1.47-4.655,6.1,6.1,0,0,0-1.382-4.148,4.933,4.933,0,0,0-3.937-1.592,5.7,5.7,0,0,0-.735.07,6.073,6.073,0,0,1-.84.07.988.988,0,0,1-.665-.21.7.7,0,0,1-.245-.56.646.646,0,0,1,.262-.525,1,1,0,0,1,.648-.21,3.745,3.745,0,0,1,.91.105,7.52,7.52,0,0,0,.875.07,4.763,4.763,0,0,0,2.888-1q1.347-1,1.347-4.217,0-2.87-1.242-4.077a4.1,4.1,0,0,0-2.958-1.208,4.243,4.243,0,0,0-2.012.49,1.742,1.742,0,0,0-.928,1.68,1.892,1.892,0,0,0,.14.77q.14.315.175.385a2.158,2.158,0,0,1,.315,1.05,1.68,1.68,0,0,1-.473,1.242,1.592,1.592,0,0,1-1.173.473,1.931,1.931,0,0,1-1.628-.7,2.715,2.715,0,0,1-.542-1.715,3.755,3.755,0,0,1,.84-2.17,6.6,6.6,0,0,1,2.363-1.942,7.317,7.317,0,0,1,3.413-.788,8.483,8.483,0,0,1,3.78.823,6.388,6.388,0,0,1,2.607,2.24,5.66,5.66,0,0,1,.927,3.167,5.711,5.711,0,0,1-1.242,3.64A6.79,6.79,0,0,1,146.4-13.755ZM175.7-.6a.819.819,0,0,1-.84.6H156.1a.192.192,0,0,1-.193-.123.98.98,0,0,1-.052-.368q0-.49.245-.49h.525a4.053,4.053,0,0,0,2.275-.508,2.122,2.122,0,0,0,.735-1.873V-22.19a2.125,2.125,0,0,0-.77-1.89,3.973,3.973,0,0,0-2.24-.525H156.1q-.245,0-.245-.49,0-.455.245-.455h10.43a.22.22,0,0,1,.228.123.98.98,0,0,1,.052.367q0,.455-.28.455h-.49a3.858,3.858,0,0,0-2.258.542,2.154,2.154,0,0,0-.753,1.872V-3.22a1.744,1.744,0,0,0,.717,1.645,5.559,5.559,0,0,0,2.327.525l.805.035,1.295-.035a8.951,8.951,0,0,0,4.9-1.47,15.217,15.217,0,0,0,3.535-3.5A2.328,2.328,0,0,1,177-6.475a.2.2,0,0,1,.14-.07.806.806,0,0,1,.315.105q.28.14.28.35l-.035.175Q176.26-2.2,175.7-.6Zm5.74.6q-.28,0-.28-.49,0-.455.28-.455h.525a3.9,3.9,0,0,0,2.205-.507,2.122,2.122,0,0,0,.735-1.873V-22.19a2.166,2.166,0,0,0-.735-1.907,3.9,3.9,0,0,0-2.205-.507h-.525q-.245,0-.245-.49v-.14a.3.3,0,0,1,.193-.262,1.592,1.592,0,0,1,.472-.053l4.375-.035q3.675,0,6.02.105a15.985,15.985,0,0,1,6.038,1.452,11.1,11.1,0,0,1,4.69,4.112,12.774,12.774,0,0,1,1.837,7.14,12.706,12.706,0,0,1-1.837,7.105,11.226,11.226,0,0,1-4.69,4.13,15.788,15.788,0,0,1-6.038,1.47q-1.435.105-5.53.105Zm10.045-1.05a10.11,10.11,0,0,0,4.165-.98,8.808,8.808,0,0,0,3.78-3.6,13.6,13.6,0,0,0,1.61-7.14,13.582,13.582,0,0,0-1.61-7.158,8.828,8.828,0,0,0-3.78-3.587,10.11,10.11,0,0,0-4.165-.98h-.245a4.052,4.052,0,0,0-2.292.49,1.971,1.971,0,0,0-.682,1.715V-3.22a1.928,1.928,0,0,0,.682,1.68,4.052,4.052,0,0,0,2.292.49ZM235.2-.98q.245,0,.245.49T235.2,0H224.315q-.245,0-.245-.49t.245-.49q2.625,0,2.625-1.05a2.449,2.449,0,0,0-.6-1.3l-7.175-8.75a.7.7,0,0,0-.525-.28.736.736,0,0,0-.525.245q-.63.665-1.26,1.26l-.56.56a1.244,1.244,0,0,0-.385.91v6.02a2.122,2.122,0,0,0,.735,1.873,3.9,3.9,0,0,0,2.205.508h.56q.245,0,.245.49t-.245.49h-10.43q-.245,0-.245-.49a.98.98,0,0,1,.052-.367.192.192,0,0,1,.193-.123h.525a3.975,3.975,0,0,0,2.24-.508,2.122,2.122,0,0,0,.735-1.873V-22.19a2.166,2.166,0,0,0-.735-1.907,3.975,3.975,0,0,0-2.24-.507h-.525q-.245,0-.245-.455,0-.49.245-.49h10.43a.22.22,0,0,1,.228.123.98.98,0,0,1,.052.367q0,.455-.28.455h-.56a3.783,3.783,0,0,0-2.223.525,2.2,2.2,0,0,0-.717,1.89v9.17a.777.777,0,0,0,.123.455.357.357,0,0,0,.3.175.768.768,0,0,0,.49-.28q2.45-2.415,5.18-5.233t4.025-4.182a1.857,1.857,0,0,0,.525-1.12,1.149,1.149,0,0,0-.665-1.015,3.723,3.723,0,0,0-1.855-.385q-.245,0-.245-.49,0-.455.245-.455h9.485a.229.229,0,0,1,.227.105.842.842,0,0,1,.053.35q0,.49-.28.49a7.586,7.586,0,0,0-5.215,2.38q-.42.385-6.65,6.615a.729.729,0,0,0-.28.56.615.615,0,0,0,.175.455q6.93,8.61,8.61,10.64a12.307,12.307,0,0,0,2.467,2.345A4.747,4.747,0,0,0,235.2-.98ZM251.279-23.8a.539.539,0,0,1,.364.5,1.683,1.683,0,0,1-.056.28L240.807,2.3a.445.445,0,0,1-.448.364.7.7,0,0,1-.308-.084l-.2-.084a.523.523,0,0,1-.364-.476,1.683,1.683,0,0,1,.056-.28l10.808-25.312a.445.445,0,0,1,.448-.364.7.7,0,0,1,.308.084Zm15.848,2.716q-.168-.336-.392-.336-.2,0-.392.28a29.077,29.077,0,0,1-5.32,5.824,35.832,35.832,0,0,1-6.888,4.7q-.532.252-.616.056v-.056q0-.14.364-.42a31.842,31.842,0,0,0,4.27-3.542,37.6,37.6,0,0,0,3.878-4.4,18.714,18.714,0,0,0,2.464-4.186.549.549,0,0,1,.728-.392l2.436.616a.735.735,0,0,1,.35.182.353.353,0,0,1,.126.238q0,.14-.2.224a.629.629,0,0,0-.308.5.479.479,0,0,0,.084.224,18.375,18.375,0,0,0,4.494,4.186,37.409,37.409,0,0,0,6.146,3.346,1.482,1.482,0,0,1,.378.2.252.252,0,0,1,.1.2q-.028.168-.476.392a2.723,2.723,0,0,0-1.288,1.232q-.168.364-.42.364a.709.709,0,0,1-.336-.112,27.722,27.722,0,0,1-5.4-4.186A19.417,19.417,0,0,1,267.127-21.084Zm3.808,14.672a.8.8,0,0,0,.7-.364l.364-.5q.112-.14.294-.378a3.781,3.781,0,0,1,.308-.364.353.353,0,0,1,.238-.126,3.123,3.123,0,0,1,1.092.658,7.714,7.714,0,0,1,1.26,1.134.616.616,0,0,1,.14.336.4.4,0,0,1-.14.28,1.038,1.038,0,0,1-.56.14H267.6a.587.587,0,0,0-.434.154.587.587,0,0,0-.154.434V-.168a.587.587,0,0,0,.154.434A.587.587,0,0,0,267.6.42h5.8a.8.8,0,0,0,.7-.364l.42-.588q.14-.2.322-.462a2.87,2.87,0,0,1,.308-.392.353.353,0,0,1,.238-.126,3.367,3.367,0,0,1,1.148.756A8.743,8.743,0,0,1,277.851.5a.616.616,0,0,1,.14.336.4.4,0,0,1-.14.28.983.983,0,0,1-.532.14H259.007a30.161,30.161,0,0,0-3.7.308h-.168a.575.575,0,0,1-.56-.364l-.14-.252a.746.746,0,0,1-.084-.336A.308.308,0,0,1,254.5.35a.563.563,0,0,1,.392-.07q.952.084,2.884.14h6.44a.587.587,0,0,0,.434-.154.587.587,0,0,0,.154-.434V-5.012a.587.587,0,0,0-.154-.434.587.587,0,0,0-.434-.154h-1.876a30.161,30.161,0,0,0-3.7.308h-.168a.575.575,0,0,1-.56-.364L257.8-5.88a.746.746,0,0,1-.084-.336.308.308,0,0,1,.14-.266.563.563,0,0,1,.392-.07q.952.084,2.884.14h3.08a.587.587,0,0,0,.434-.154A.587.587,0,0,0,264.8-7v-4.116a.587.587,0,0,0-.154-.434.587.587,0,0,0-.434-.154h-1.6a26.269,26.269,0,0,0-3.472.308h-.168a.575.575,0,0,1-.56-.364l-.112-.224a.7.7,0,0,1-.084-.308.335.335,0,0,1,.14-.294.563.563,0,0,1,.392-.07q.98.084,2.912.14h8.26a.8.8,0,0,0,.7-.364l.364-.476q.112-.14.294-.378a3.718,3.718,0,0,1,.294-.35.323.323,0,0,1,.224-.112,2.906,2.906,0,0,1,1.05.63,7.221,7.221,0,0,1,1.19,1.078.616.616,0,0,1,.14.336.4.4,0,0,1-.168.308.983.983,0,0,1-.532.14H267.6a.587.587,0,0,0-.434.154.587.587,0,0,0-.154.434V-7a.587.587,0,0,0,.154.434.587.587,0,0,0,.434.154Zm19.316-8.276a5.909,5.909,0,0,1,3.328.928,6.116,6.116,0,0,1,2.16,2.464,7.466,7.466,0,0,1,.752,3.328,9.789,9.789,0,0,1-.9,4.192A7.526,7.526,0,0,1,293.035-.7,6.58,6.58,0,0,1,289.2.448a6.749,6.749,0,0,1-4.048-1.28,8.288,8.288,0,0,1-2.752-3.552,13.11,13.11,0,0,1-.976-5.216,19.667,19.667,0,0,1,1.344-7.664,11.66,11.66,0,0,1,3.392-4.784,6.683,6.683,0,0,1,4.128-1.6,7,7,0,0,1,2.8.5,3.968,3.968,0,0,1,1.68,1.248,2.5,2.5,0,0,1,.544,1.456,1.684,1.684,0,0,1-.512,1.264,1.688,1.688,0,0,1-1.216.5,1.777,1.777,0,0,1-1.344-.624,2.583,2.583,0,0,1-.64-1.648,2.018,2.018,0,0,0-.4-1.184,1.354,1.354,0,0,0-1.072-.384q-2.176,0-3.44,2.7a21.831,21.831,0,0,0-1.744,6.512q-.032.512.384.512a1.361,1.361,0,0,0,.8-.352A6.236,6.236,0,0,1,290.251-14.688ZM289.2-.8a2.927,2.927,0,0,0,2.16-.928,6.134,6.134,0,0,0,1.408-2.48,11.036,11.036,0,0,0,.5-3.376q0-3.328-1.28-4.448a4.146,4.146,0,0,0-2.784-1.12,4.4,4.4,0,0,0-2.384.768,5.4,5.4,0,0,0-1.936,2.336,2.142,2.142,0,0,0-.16.832,16.888,16.888,0,0,0,.992,5.936A3.491,3.491,0,0,0,289.2-.8Zm28.916-18.324a2.13,2.13,0,0,1,1.008.406,6.136,6.136,0,0,1,1.134.91q.49.5.49.784a.522.522,0,0,1-.14.406,1.811,1.811,0,0,1-.448.266,5.962,5.962,0,0,0-.6.364,1.716,1.716,0,0,0-.462.56,42.636,42.636,0,0,1-3.668,5.32.594.594,0,0,0-.14.392.645.645,0,0,0,.224.448q1.848,1.764,1.848,3.08a1.685,1.685,0,0,1-.322,1.078,1.008,1.008,0,0,1-.826.406,1.057,1.057,0,0,1-.714-.322,2.82,2.82,0,0,1-.6-.826,17.227,17.227,0,0,0-.924-1.624.488.488,0,0,0-.42-.308.627.627,0,0,0-.42.224A33.059,33.059,0,0,1,300.3.392a2.412,2.412,0,0,1-.532.112q-.224,0-.224-.14,0-.112.588-.42A33.106,33.106,0,0,0,306.7-4.144a40.681,40.681,0,0,0,5.362-5.124.715.715,0,0,0,.168-.42.589.589,0,0,0-.2-.42,18.912,18.912,0,0,0-2.828-2.576l-.476-.392q-.168-.14-.168-.252t.14-.112a1.545,1.545,0,0,1,.308.084,22.694,22.694,0,0,1,3.92,2.072.64.64,0,0,0,.364.14.571.571,0,0,0,.476-.28,32.853,32.853,0,0,0,2.366-3.542,7.112,7.112,0,0,0,.91-1.946.3.3,0,0,0-.084-.238.44.44,0,0,0-.28-.07l-.616.084a16.242,16.242,0,0,1-3.108.364,7.234,7.234,0,0,1-1.344-.112.849.849,0,0,0-.252-.028.721.721,0,0,0-.532.28,38.166,38.166,0,0,1-3.948,4.438,16.177,16.177,0,0,1-3.92,2.982.8.8,0,0,1-.42.14q-.2,0-.2-.14t.364-.476a22.387,22.387,0,0,0,2.9-3.024,32.773,32.773,0,0,0,2.758-3.892,10.523,10.523,0,0,0,1.4-3.136,4.548,4.548,0,0,0,.056-.56q0-1.036-.9-1.036a1.293,1.293,0,0,1-.182-.014,1.04,1.04,0,0,1-.182-.042q-.084-.028-.084-.084,0-.224.476-.406a2.454,2.454,0,0,1,.868-.182,2.729,2.729,0,0,1,1.232.392,6.571,6.571,0,0,1,1.288.9q.56.5.56.84a.8.8,0,0,1-.21.462q-.21.266-.322.434l-.224.448a2.874,2.874,0,0,0-.224.49q-.056.182.028.182h.168a19.331,19.331,0,0,0,2.436-.2,11.175,11.175,0,0,0,2.1-.42,5.023,5.023,0,0,0,.812-.364A1.271,1.271,0,0,1,318.111-19.124Zm20.608-1.96a3.437,3.437,0,0,1,.812.714,1.293,1.293,0,0,1,.364.8.386.386,0,0,1-.084.28,1.257,1.257,0,0,1-.308.2,1.654,1.654,0,0,1-.252.14,1.173,1.173,0,0,0-.42.392,42.172,42.172,0,0,1-3.024,3.724.565.565,0,0,0-.2.392q0,.224.308.364.224.084.616.28a.816.816,0,0,1,.448.756,2.814,2.814,0,0,1-.14.672,8.972,8.972,0,0,0-.224,1.344v.588q-.028.588-.028,2.576,0,4.76.168,5.936a8.353,8.353,0,0,1,.084,1.12q0,1.6-.98,1.6a1.267,1.267,0,0,1-1.078-.5,2.342,2.342,0,0,1-.378-1.428q0-.9.028-1.582t.056-1.19q.112-2.016.112-2.968l-.028-4.368a5.7,5.7,0,0,0-.112-1.26.382.382,0,0,0-.392-.336.589.589,0,0,0-.42.2,33.379,33.379,0,0,1-8.624,5.908,1.694,1.694,0,0,1-.56.168q-.2,0-.2-.084,0-.2.56-.56a56.692,56.692,0,0,0,6.244-5.362,36.891,36.891,0,0,0,4.116-4.76,6.725,6.725,0,0,0,1.428-2.842,1.33,1.33,0,0,0-.392-.98,3.058,3.058,0,0,0-.252-.224q-.14-.112-.14-.168,0-.224.56-.224A4.144,4.144,0,0,1,338.719-21.084Zm28.7,3.08a2.616,2.616,0,0,1-1.9-.77,2.546,2.546,0,0,1-.784-1.89,2.546,2.546,0,0,1,.784-1.89,2.616,2.616,0,0,1,1.9-.77,2.546,2.546,0,0,1,1.89.784,2.583,2.583,0,0,1,.77,1.876,2.546,2.546,0,0,1-.784,1.89A2.583,2.583,0,0,1,367.419-18Zm0-.756a1.833,1.833,0,0,0,1.344-.56,1.833,1.833,0,0,0,.56-1.344,1.88,1.88,0,0,0-.56-1.358,1.811,1.811,0,0,0-1.344-.574,1.811,1.811,0,0,0-1.344.574,1.88,1.88,0,0,0-.56,1.358,1.833,1.833,0,0,0,.56,1.344A1.833,1.833,0,0,0,367.419-18.76ZM347.259.28q-.2,0-.2-.14,0-.168.56-.476A31.936,31.936,0,0,0,356.009-6.4a30.47,30.47,0,0,0,4.942-6.4,12.749,12.749,0,0,0,1.652-3.92q0-.224-.252-.224t-2.31.28q-2.058.28-4.4.728a39.08,39.08,0,0,0-3.906.924,3.8,3.8,0,0,1-1.148.2,2.382,2.382,0,0,1-1.512-.5,3.508,3.508,0,0,1-.868-1.148,2.828,2.828,0,0,1-.364-1.176q0-.308.252-.308a1.394,1.394,0,0,1,.644.224,5.912,5.912,0,0,0,1.036.336,4.72,4.72,0,0,0,.924.084q.868,0,5.054-.336a39.893,39.893,0,0,0,5.082-.588,5.614,5.614,0,0,0,1.008-.392,5.079,5.079,0,0,1,1.288-.392,2.321,2.321,0,0,1,1.008.448,6.776,6.776,0,0,1,1.26,1.036,1.626,1.626,0,0,1,.56.98.988.988,0,0,1-.168.56,5.8,5.8,0,0,1-.56.672,6.739,6.739,0,0,0-1.036,1.372A27.762,27.762,0,0,1,359.943-7.7a25.075,25.075,0,0,1-5.292,4.368A50.641,50.641,0,0,1,347.735.14,1.487,1.487,0,0,1,347.259.28Z" transform="translate(548.5 1005)" fill="#efefef"/><path d="M8.656-12.048q-.1-.192-.224-.192-.112,0-.224.16a16.615,16.615,0,0,1-3.04,3.328A20.475,20.475,0,0,1,1.232-6.064q-.3.144-.352.032v-.032q0-.08.208-.24a18.194,18.194,0,0,0,2.44-2.024A21.484,21.484,0,0,0,5.744-10.84a10.694,10.694,0,0,0,1.408-2.392.314.314,0,0,1,.416-.224L8.96-13.1a.42.42,0,0,1,.2.1.2.2,0,0,1,.072.136q0,.08-.112.128a.359.359,0,0,0-.176.288.274.274,0,0,0,.048.128A10.5,10.5,0,0,0,11.56-9.928a21.377,21.377,0,0,0,3.512,1.912.847.847,0,0,1,.216.112.144.144,0,0,1,.056.112q-.016.1-.272.224a1.556,1.556,0,0,0-.736.7q-.1.208-.24.208A.4.4,0,0,1,13.9-6.72a15.841,15.841,0,0,1-3.088-2.392A11.1,11.1,0,0,1,8.656-12.048Zm2.176,8.384a.46.46,0,0,0,.4-.208l.208-.288q.064-.08.168-.216a2.161,2.161,0,0,1,.176-.208.2.2,0,0,1,.136-.072,1.784,1.784,0,0,1,.624.376,4.408,4.408,0,0,1,.72.648.352.352,0,0,1,.08.192.23.23,0,0,1-.08.16.593.593,0,0,1-.32.08H8.928a.335.335,0,0,0-.248.088.335.335,0,0,0-.088.248V-.1A.335.335,0,0,0,8.68.152.335.335,0,0,0,8.928.24H12.24a.46.46,0,0,0,.4-.208L12.88-.3q.08-.112.184-.264a1.64,1.64,0,0,1,.176-.224.2.2,0,0,1,.136-.072,1.924,1.924,0,0,1,.656.432,5,5,0,0,1,.752.72.352.352,0,0,1,.08.192.23.23,0,0,1-.08.16.562.562,0,0,1-.3.08H4.016A17.235,17.235,0,0,0,1.9.9h-.1a.329.329,0,0,1-.32-.208L1.408.544A.426.426,0,0,1,1.36.352.176.176,0,0,1,1.44.2.322.322,0,0,1,1.664.16q.544.048,1.648.08h3.68A.335.335,0,0,0,7.24.152.335.335,0,0,0,7.328-.1V-2.864a.335.335,0,0,0-.088-.248A.335.335,0,0,0,6.992-3.2H5.92a17.235,17.235,0,0,0-2.112.176h-.1a.329.329,0,0,1-.32-.208L3.328-3.36a.426.426,0,0,1-.048-.192A.176.176,0,0,1,3.36-3.7a.322.322,0,0,1,.224-.04q.544.048,1.648.08h1.76a.335.335,0,0,0,.248-.088A.335.335,0,0,0,7.328-4V-6.352A.335.335,0,0,0,7.24-6.6a.335.335,0,0,0-.248-.088H6.08A15.011,15.011,0,0,0,4.1-6.512H4a.329.329,0,0,1-.32-.208l-.064-.128a.4.4,0,0,1-.048-.176.192.192,0,0,1,.08-.168.322.322,0,0,1,.224-.04q.56.048,1.664.08h4.72a.46.46,0,0,0,.4-.208l.208-.272q.064-.08.168-.216a2.125,2.125,0,0,1,.168-.2.184.184,0,0,1,.128-.064,1.661,1.661,0,0,1,.6.36,4.127,4.127,0,0,1,.68.616.352.352,0,0,1,.08.192.229.229,0,0,1-.1.176.562.562,0,0,1-.3.08H8.928A.335.335,0,0,0,8.68-6.6a.335.335,0,0,0-.088.248V-4a.335.335,0,0,0,.088.248.335.335,0,0,0,.248.088ZM17.456,0a.088.088,0,0,1-.088-.056.448.448,0,0,1-.024-.168.448.448,0,0,1,.024-.168.088.088,0,0,1,.088-.056h.24q1.824,0,1.824-1.088v-7.44a1.812,1.812,0,0,0-.1-.736.545.545,0,0,0-.432-.264,8.025,8.025,0,0,0-1.16-.056h-.352q-.112,0-.112-.224t.112-.224A5.662,5.662,0,0,0,20.64-11.5a.387.387,0,0,1,.208-.1.163.163,0,0,1,.136.08.355.355,0,0,1,.056.208v9.776q0,1.088,1.84,1.088H23.1a.088.088,0,0,1,.088.056.448.448,0,0,1,.024.168Q23.216,0,23.1,0ZM25.7,0a.088.088,0,0,1-.088-.056.448.448,0,0,1-.024-.168.448.448,0,0,1,.024-.168A.088.088,0,0,1,25.7-.448h.24q1.824,0,1.824-1.088v-7.44a1.812,1.812,0,0,0-.1-.736.545.545,0,0,0-.432-.264,8.025,8.025,0,0,0-1.16-.056h-.352q-.112,0-.112-.224t.112-.224A5.662,5.662,0,0,0,28.88-11.5a.387.387,0,0,1,.208-.1.163.163,0,0,1,.136.08.355.355,0,0,1,.056.208v9.776q0,1.088,1.84,1.088h.224a.088.088,0,0,1,.088.056.448.448,0,0,1,.024.168q0,.224-.112.224ZM44.048-10.928a1.217,1.217,0,0,1,.576.232,3.506,3.506,0,0,1,.648.52q.28.288.28.448a.3.3,0,0,1-.08.232,1.035,1.035,0,0,1-.256.152,3.406,3.406,0,0,0-.344.208.981.981,0,0,0-.264.32,24.362,24.362,0,0,1-2.1,3.04.339.339,0,0,0-.08.224.369.369,0,0,0,.128.256,2.731,2.731,0,0,1,1.056,1.76.963.963,0,0,1-.184.616.576.576,0,0,1-.472.232.6.6,0,0,1-.408-.184,1.612,1.612,0,0,1-.344-.472,9.845,9.845,0,0,0-.528-.928.279.279,0,0,0-.24-.176.358.358,0,0,0-.24.128A18.89,18.89,0,0,1,33.872.224a1.379,1.379,0,0,1-.3.064q-.128,0-.128-.08,0-.064.336-.24a18.918,18.918,0,0,0,3.752-2.336A23.246,23.246,0,0,0,40.592-5.3a.408.408,0,0,0,.1-.24.336.336,0,0,0-.112-.24A10.807,10.807,0,0,0,38.96-7.248l-.272-.224q-.1-.08-.1-.144t.08-.064a.883.883,0,0,1,.176.048,12.967,12.967,0,0,1,2.24,1.184.366.366,0,0,0,.208.08.326.326,0,0,0,.272-.16A18.774,18.774,0,0,0,42.92-8.552a4.064,4.064,0,0,0,.52-1.112.168.168,0,0,0-.048-.136.251.251,0,0,0-.16-.04l-.352.048a9.281,9.281,0,0,1-1.776.208,4.134,4.134,0,0,1-.768-.064.485.485,0,0,0-.144-.016.412.412,0,0,0-.3.16,21.812,21.812,0,0,1-2.256,2.536,9.244,9.244,0,0,1-2.24,1.7.458.458,0,0,1-.24.08q-.112,0-.112-.08t.208-.272A12.794,12.794,0,0,0,36.9-7.264,18.727,18.727,0,0,0,38.48-9.488a6.013,6.013,0,0,0,.8-1.792,2.6,2.6,0,0,0,.032-.32q0-.592-.512-.592a.739.739,0,0,1-.1-.008.594.594,0,0,1-.1-.024q-.048-.016-.048-.048,0-.128.272-.232a1.4,1.4,0,0,1,.5-.1,1.559,1.559,0,0,1,.7.224,3.755,3.755,0,0,1,.736.512q.32.288.32.48a.456.456,0,0,1-.12.264q-.12.152-.184.248l-.128.256a1.642,1.642,0,0,0-.128.28q-.032.1.016.1h.1a11.047,11.047,0,0,0,1.392-.112,6.386,6.386,0,0,0,1.2-.24,2.87,2.87,0,0,0,.464-.208A.726.726,0,0,1,44.048-10.928Zm14.976-1.12a1.964,1.964,0,0,1,.464.408.739.739,0,0,1,.208.456.221.221,0,0,1-.048.16.718.718,0,0,1-.176.112.946.946,0,0,1-.144.08.67.67,0,0,0-.24.224A24.1,24.1,0,0,1,57.36-8.48a.323.323,0,0,0-.112.224q0,.128.176.208.128.048.352.16a.466.466,0,0,1,.256.432,1.608,1.608,0,0,1-.08.384,5.125,5.125,0,0,0-.128.768v.336q-.016.336-.016,1.472,0,2.72.1,3.392a4.773,4.773,0,0,1,.048.64q0,.912-.56.912A.724.724,0,0,1,56.776.16a1.338,1.338,0,0,1-.216-.816q0-.512.016-.9t.032-.68q.064-1.152.064-1.7l-.016-2.5a3.258,3.258,0,0,0-.064-.72.218.218,0,0,0-.224-.192.336.336,0,0,0-.24.112A19.074,19.074,0,0,1,51.2-3.856a.968.968,0,0,1-.32.1q-.112,0-.112-.048,0-.112.32-.32a32.394,32.394,0,0,0,3.568-3.064,21.08,21.08,0,0,0,2.352-2.72,3.843,3.843,0,0,0,.816-1.624.76.76,0,0,0-.224-.56,1.746,1.746,0,0,0-.144-.128q-.08-.064-.08-.1,0-.128.32-.128A2.368,2.368,0,0,1,59.024-12.048Zm19.6,1.76a1.5,1.5,0,0,1-1.088-.44,1.455,1.455,0,0,1-.448-1.08,1.455,1.455,0,0,1,.448-1.08,1.5,1.5,0,0,1,1.088-.44,1.455,1.455,0,0,1,1.08.448,1.476,1.476,0,0,1,.44,1.072,1.455,1.455,0,0,1-.448,1.08A1.476,1.476,0,0,1,78.624-10.288Zm0-.432a1.047,1.047,0,0,0,.768-.32,1.047,1.047,0,0,0,.32-.768,1.074,1.074,0,0,0-.32-.776,1.035,1.035,0,0,0-.768-.328,1.035,1.035,0,0,0-.768.328,1.074,1.074,0,0,0-.32.776,1.047,1.047,0,0,0,.32.768A1.047,1.047,0,0,0,78.624-10.72ZM67.1.16q-.112,0-.112-.08,0-.1.32-.272A18.249,18.249,0,0,0,72.1-3.656a17.411,17.411,0,0,0,2.824-3.656,7.285,7.285,0,0,0,.944-2.24q0-.128-.144-.128t-1.32.16q-1.176.16-2.512.416a22.331,22.331,0,0,0-2.232.528,2.172,2.172,0,0,1-.656.112,1.361,1.361,0,0,1-.864-.288,2,2,0,0,1-.5-.656,1.616,1.616,0,0,1-.208-.672q0-.176.144-.176a.8.8,0,0,1,.368.128,3.378,3.378,0,0,0,.592.192,2.7,2.7,0,0,0,.528.048q.5,0,2.888-.192a22.8,22.8,0,0,0,2.9-.336,3.208,3.208,0,0,0,.576-.224,2.9,2.9,0,0,1,.736-.224,1.326,1.326,0,0,1,.576.256,3.872,3.872,0,0,1,.72.592.929.929,0,0,1,.32.56.564.564,0,0,1-.1.32,3.31,3.31,0,0,1-.32.384,3.851,3.851,0,0,0-.592.784A15.864,15.864,0,0,1,74.352-4.4a14.328,14.328,0,0,1-3.024,2.5A28.938,28.938,0,0,1,67.376.08.85.85,0,0,1,67.1.16Zm21.7-6.9a.335.335,0,0,0,.088.248.335.335,0,0,0,.248.088H93.7q.336,0,.336.32t-.336.32h-4.56a.335.335,0,0,0-.248.088.335.335,0,0,0-.088.248V-.848q0,.336-.32.336t-.32-.336V-5.424a.335.335,0,0,0-.088-.248.335.335,0,0,0-.248-.088H83.248q-.336,0-.336-.32t.336-.32h4.576a.335.335,0,0,0,.248-.088.335.335,0,0,0,.088-.248v-4.576q0-.336.32-.336t.32.336Zm16.88,1.28q0-.048.16-.208a5.365,5.365,0,0,0,.744-1.04,2.3,2.3,0,0,0,.376-.992q0-.272-.224-.272a7.3,7.3,0,0,0-1.024.24q-.88.24-1.9.56a.4.4,0,0,0-.288.384q-.048,1.408-.048,2.336a6.349,6.349,0,0,0,.1,1.312,1.17,1.17,0,0,0,.48.728,2.073,2.073,0,0,0,1.176.264,3.949,3.949,0,0,0,.744-.072q.376-.072.968-.216a5.39,5.39,0,0,1,.976-.176,1.891,1.891,0,0,1,.872.2.593.593,0,0,1,.392.52q0,.48-.96.672a9.637,9.637,0,0,1-1.152.176,13.912,13.912,0,0,1-1.472.08,4.49,4.49,0,0,1-1.984-.344,1.79,1.79,0,0,1-.912-1.024,5.916,5.916,0,0,1-.24-1.9q0-.656.032-2.064a.323.323,0,0,0-.064-.208.213.213,0,0,0-.176-.08.962.962,0,0,0-.16.032,7.47,7.47,0,0,0-.832.352,8.324,8.324,0,0,0-.736.4q-.32.192-.52.288a.846.846,0,0,1-.36.1,1.8,1.8,0,0,1-.744-.224,3.438,3.438,0,0,1-.8-.536.838.838,0,0,1-.344-.552.1.1,0,0,1,.112-.112.55.55,0,0,1,.168.048,1.563,1.563,0,0,0,.184.064,2.4,2.4,0,0,0,.784.144,6.473,6.473,0,0,0,1.3-.232q.936-.232,1.912-.536.288-.08.288-.32.016-.416.016-1.2,0-.672-.016-.848a1.878,1.878,0,0,0-.112-.528.915.915,0,0,0-.32-.368,1.414,1.414,0,0,0-.248-.152q-.12-.056-.176-.088a.1.1,0,0,1-.056-.1q0-.16.352-.32a1.594,1.594,0,0,1,.656-.16,1.571,1.571,0,0,1,.616.16,2.1,2.1,0,0,1,.616.408.7.7,0,0,1,.256.488,1.331,1.331,0,0,1-.144.5,4.69,4.69,0,0,0-.24.72l-.1.96v.032a.291.291,0,0,0,.1.248.306.306,0,0,0,.272.024l.752-.208a13.6,13.6,0,0,0,1.68-.528,1.55,1.55,0,0,0,.248-.12.692.692,0,0,1,.136-.072q.144-.08.272-.136a.6.6,0,0,1,.24-.056,2.273,2.273,0,0,1,.648.264,5.585,5.585,0,0,1,.944.6.9.9,0,0,1,.424.64.211.211,0,0,1-.1.192,2.207,2.207,0,0,1-.376.16l-.3.112a2.726,2.726,0,0,0-.464.272l-.368.224q-1.12.688-1.76,1.008a1.1,1.1,0,0,1-.24.112A.028.028,0,0,1,105.68-5.456ZM117.7-1.408a.829.829,0,0,1-.5-.248,3.2,3.2,0,0,1-.512-.56.99.99,0,0,1-.224-.44.5.5,0,0,1,.072-.216.778.778,0,0,0,.088-.28,16.881,16.881,0,0,0,.128-2.352,24.927,24.927,0,0,0-.208-3.248q-.064-.528-.752-.528-.1,0-.176-.008t-.08-.056q0-.208.336-.344a1.672,1.672,0,0,1,.624-.136,2.524,2.524,0,0,1,.736.136,2.884,2.884,0,0,1,.752.352.586.586,0,0,1,.32.456.894.894,0,0,1-.176.448,1.572,1.572,0,0,0-.192.336,1.417,1.417,0,0,0-.08.432l-.032.912L117.776-5.2q0,1.072.032,1.456a1.54,1.54,0,0,0,.048.312.137.137,0,0,0,.144.1,7.783,7.783,0,0,0,1.624-.664,24.719,24.719,0,0,0,3.24-1.92,22.394,22.394,0,0,0,3.552-3.048q.176-.192.272-.192.048,0,.048.08a.338.338,0,0,1-.056.16.782.782,0,0,1-.12.16,20.563,20.563,0,0,1-2.88,3.1,28.4,28.4,0,0,1-2.912,2.272,21.063,21.063,0,0,1-2.048,1.24,2.373,2.373,0,0,0-.432.368,2.938,2.938,0,0,1-.312.28A.461.461,0,0,1,117.7-1.408Zm22.4-8.752a1.32,1.32,0,0,1,.584.24,3.41,3.41,0,0,1,.7.56.9.9,0,0,1,.3.576.443.443,0,0,1-.12.328,2.514,2.514,0,0,1-.392.3,3.789,3.789,0,0,0-.392.264,1.18,1.18,0,0,0-.264.3,18.887,18.887,0,0,1-4.688,5.008A15.544,15.544,0,0,1,130.176.032L130,.048q-.144,0-.144-.1,0-.064.224-.16a19.79,19.79,0,0,0,5.192-3.152,19.788,19.788,0,0,0,4.248-5.312.645.645,0,0,0,.1-.288q0-.144-.176-.144a.94.94,0,0,0-.224.032q-.656.192-1.1.288a3.877,3.877,0,0,1-.824.1,2.115,2.115,0,0,1-.544-.064.561.561,0,0,0-.16-.016.428.428,0,0,0-.3.144,18.629,18.629,0,0,1-2.512,2.232,10.627,10.627,0,0,1-2.32,1.4,1.338,1.338,0,0,1-.224.064q-.064,0-.064-.048a.151.151,0,0,1,.064-.1,1.1,1.1,0,0,1,.176-.12,12.993,12.993,0,0,0,1.952-1.736,19.38,19.38,0,0,0,1.824-2.2,3.377,3.377,0,0,0,.752-1.568q0-.464-.64-.7-.176-.064-.176-.144t.176-.16a1.651,1.651,0,0,1,.608-.1,1.7,1.7,0,0,1,.816.216,2.3,2.3,0,0,1,.656.512.855.855,0,0,1,.256.52.937.937,0,0,1-.16.416l-.272.416a1.6,1.6,0,0,0-.176.288q-.048.112,0,.112a6.4,6.4,0,0,0,1.24-.128,3.156,3.156,0,0,0,1.016-.352q.1-.048.272-.16a1.334,1.334,0,0,1,.3-.152A.807.807,0,0,1,140.1-10.16Zm11.728,2.144a.322.322,0,0,0,.3.352,10.709,10.709,0,0,1,2.816.936,1.806,1.806,0,0,1,1.2,1.56.815.815,0,0,1-.16.512.486.486,0,0,1-.4.208q-.48,0-1.168-.848a7.552,7.552,0,0,0-2.192-1.9.377.377,0,0,0-.16-.048.213.213,0,0,0-.176.08.35.35,0,0,0-.064.224v2.4q.032,2.528.1,2.976a7.3,7.3,0,0,1,.16,1.152,1.047,1.047,0,0,1-.232.7.632.632,0,0,1-.456.272q-.256,0-.48-.384a3.659,3.659,0,0,1-.36-.88,3.111,3.111,0,0,1-.136-.72,2.962,2.962,0,0,1,.048-.464q.1-.624.128-1.04.048-.592.1-2.144,0-.32.032-.992.032-1.024.032-2.992a16.407,16.407,0,0,0-.08-2.064.987.987,0,0,0-.208-.544,2.677,2.677,0,0,0-.464-.384q-.08-.048-.128-.08a.094.094,0,0,1-.048-.08q0-.192.408-.288a3.166,3.166,0,0,1,.712-.1,1.309,1.309,0,0,1,.96.4.632.632,0,0,1,.192.464,1.769,1.769,0,0,1-.064.4,7.081,7.081,0,0,0-.176,1.7Zm22.8-2.272a1.5,1.5,0,0,1-1.088-.44,1.455,1.455,0,0,1-.448-1.08,1.455,1.455,0,0,1,.448-1.08,1.5,1.5,0,0,1,1.088-.44,1.455,1.455,0,0,1,1.08.448,1.476,1.476,0,0,1,.44,1.072,1.455,1.455,0,0,1-.448,1.08A1.476,1.476,0,0,1,174.624-10.288Zm0-.432a1.047,1.047,0,0,0,.768-.32,1.047,1.047,0,0,0,.32-.768,1.074,1.074,0,0,0-.32-.776,1.035,1.035,0,0,0-.768-.328,1.035,1.035,0,0,0-.768.328,1.074,1.074,0,0,0-.32.776,1.047,1.047,0,0,0,.32.768A1.047,1.047,0,0,0,174.624-10.72ZM163.1.16q-.112,0-.112-.08,0-.1.32-.272A18.249,18.249,0,0,0,168.1-3.656a17.411,17.411,0,0,0,2.824-3.656,7.285,7.285,0,0,0,.944-2.24q0-.128-.144-.128t-1.32.16q-1.176.16-2.512.416a22.33,22.33,0,0,0-2.232.528,2.172,2.172,0,0,1-.656.112,1.361,1.361,0,0,1-.864-.288,2,2,0,0,1-.5-.656,1.616,1.616,0,0,1-.208-.672q0-.176.144-.176a.8.8,0,0,1,.368.128,3.378,3.378,0,0,0,.592.192,2.7,2.7,0,0,0,.528.048q.5,0,2.888-.192a22.8,22.8,0,0,0,2.9-.336,3.208,3.208,0,0,0,.576-.224,2.9,2.9,0,0,1,.736-.224,1.327,1.327,0,0,1,.576.256,3.872,3.872,0,0,1,.72.592.929.929,0,0,1,.32.56.564.564,0,0,1-.1.32,3.311,3.311,0,0,1-.32.384,3.851,3.851,0,0,0-.592.784A15.864,15.864,0,0,1,170.352-4.4a14.328,14.328,0,0,1-3.024,2.5A28.937,28.937,0,0,1,163.376.08.85.85,0,0,1,163.1.16ZM182.08-10.32a1.064,1.064,0,0,1-.64-.24,2.024,2.024,0,0,1-.656-.72.4.4,0,0,1-.048-.176.092.092,0,0,1,.032-.064.092.092,0,0,1,.064-.032.67.67,0,0,1,.208.056,2.279,2.279,0,0,0,.272.088,3.261,3.261,0,0,0,.864.128,3.256,3.256,0,0,0,.64-.064,24.324,24.324,0,0,0,2.48-.464.944.944,0,0,0,.416-.192,1.758,1.758,0,0,1,.256-.12.931.931,0,0,1,.3-.04,1.713,1.713,0,0,1,.728.176,2.062,2.062,0,0,1,.616.424.7.7,0,0,1,.24.456.24.24,0,0,1-.136.24,1.4,1.4,0,0,1-.52.064q-.272,0-.464-.016-.544-.032-.944-.032a12.659,12.659,0,0,0-1.632.128,7.843,7.843,0,0,0-1.376.272A2.6,2.6,0,0,1,182.08-10.32ZM178.9.336q-.08,0-.08-.064,0-.048.128-.112a18.513,18.513,0,0,0,4.992-3.144,14.838,14.838,0,0,0,3.408-4.7q.1-.256.1-.272,0-.128-.192-.128-.208,0-1.936.328t-2.5.536a2.976,2.976,0,0,0-.576.192,2.326,2.326,0,0,0-.3.176q-.112.08-.16.112a.841.841,0,0,1-.432.112,1.584,1.584,0,0,1-.824-.272,2.723,2.723,0,0,1-.744-.672.868.868,0,0,1-.16-.544.636.636,0,0,1,.032-.216q.032-.088.1-.088a.379.379,0,0,1,.136.064q.1.064.2.112a2.886,2.886,0,0,0,.576.176,4.02,4.02,0,0,0,.848.08q.16,0,.544-.032.448-.048,2.536-.384t2.424-.416a1.99,1.99,0,0,0,.5-.256q.048-.032.16-.1a.4.4,0,0,1,.192-.064,1.294,1.294,0,0,1,.616.248,3.811,3.811,0,0,1,.7.56.858.858,0,0,1,.3.5.346.346,0,0,1-.1.224,2.807,2.807,0,0,1-.3.288,2.75,2.75,0,0,0-.672.72,14.456,14.456,0,0,1-3.688,4.352,16.345,16.345,0,0,1-5.7,2.656Zm19.856-8.512a1.143,1.143,0,0,1-.912-.64,3.688,3.688,0,0,0-1.008-1.048,3.523,3.523,0,0,0-1.3-.584q-.272-.08-.272-.144,0-.08.3-.12a4.78,4.78,0,0,1,.624-.04,6.372,6.372,0,0,1,1.4.16,3.015,3.015,0,0,1,1.176.512,1.73,1.73,0,0,1,.488.544,1.221,1.221,0,0,1,.168.592.854.854,0,0,1-.176.544A.6.6,0,0,1,198.752-8.176Zm-3.12,5.888a2.648,2.648,0,0,1-.08-.544,1.3,1.3,0,0,1,.056-.408q.056-.168.1-.168.064,0,.16.184a1.489,1.489,0,0,0,.272.36,1.033,1.033,0,0,0,.768.384,5.293,5.293,0,0,0,2.08-.9,29.382,29.382,0,0,0,3.536-2.576,44.46,44.46,0,0,0,4.112-3.9q.144-.176.24-.176a.057.057,0,0,1,.064.064.733.733,0,0,1-.144.336,29.415,29.415,0,0,1-2.6,3.208q-1.464,1.576-2.84,2.8a24.319,24.319,0,0,1-2.288,1.848l-.288.192a2.222,2.222,0,0,0-.328.208,3.388,3.388,0,0,0-.328.32.9.9,0,0,1-.7.368,1.645,1.645,0,0,1-1.1-.5A2.195,2.195,0,0,1,195.632-2.288Z" transform="translate(548.5 965)" fill="#efefef"/></g></svg>