<svg xmlns="http://www.w3.org/2000/svg" width="378.284" height="56.371" viewBox="0 0 378.284 56.371"><g transform="translate(-999.476 -951.464)"><path d="M8.505-11.62q0-.63-.35-.63-.28,0-.49.42a29.37,29.37,0,0,1-5.11,6.72q-.525.49-.735.28a.237.237,0,0,1-.07-.175A1.18,1.18,0,0,1,2.03-5.6a30.549,30.549,0,0,0,3.412-6.283A46.436,46.436,0,0,0,7.77-19.355l.035-.21A.534.534,0,0,0,7.613-20a.776.776,0,0,0-.508-.157h-.98a15.288,15.288,0,0,0-2.66.35l-.21.035a.785.785,0,0,1-.735-.49l-.14-.245a.871.871,0,0,1-.105-.385.419.419,0,0,1,.193-.35.7.7,0,0,1,.508-.105q1.155.105,3.43.175H7.77a.734.734,0,0,0,.543-.192.734.734,0,0,0,.193-.543v-.49a55.833,55.833,0,0,0-.315-6.265v-.14a.5.5,0,0,1,.56-.56.91.91,0,0,1,.28.035,20.843,20.843,0,0,1,2.345.787q.665.3.665.508,0,.175-.315.35l-.14.1a1.064,1.064,0,0,0-.455.875v4.8a.734.734,0,0,0,.193.543.734.734,0,0,0,.542.192h.385a1.006,1.006,0,0,0,.875-.455l.42-.63q.14-.175.368-.49t.367-.472a.388.388,0,0,1,.28-.157q.245,0,1.207.84A10.608,10.608,0,0,1,17.185-21.1a.52.52,0,0,1,.14.385.466.466,0,0,1-.175.385,1.229,1.229,0,0,1-.665.175h-4.62a.734.734,0,0,0-.542.192.734.734,0,0,0-.193.542v1.855a.919.919,0,0,0,.6.875,9.717,9.717,0,0,1,3.727,2.415,4.083,4.083,0,0,1,1.172,2.59,1.835,1.835,0,0,1-.368,1.19,1.178,1.178,0,0,1-.962.455,1.9,1.9,0,0,1-.7-.175,1.246,1.246,0,0,1-.56-.77,15.046,15.046,0,0,0-1.995-3.99q-.245-.35-.49-.35a.357.357,0,0,0-.3.175.845.845,0,0,0-.123.49v8.12q.07,3.78.245,7.735V1.4a.908.908,0,0,1-.28.665,3.274,3.274,0,0,1-.963.525,3.225,3.225,0,0,1-1.1.21,1,1,0,0,1-.648-.21A.616.616,0,0,1,8.12,2.1q.14-2.065.245-4.007T8.505-7ZM19.18-21.805a55.833,55.833,0,0,0-.315-6.265v-.14a.5.5,0,0,1,.56-.56.91.91,0,0,1,.28.035,18.575,18.575,0,0,1,2.432.805q.682.315.683.525,0,.175-.28.35l-.1.07a1.006,1.006,0,0,0-.455.875V-2a1.154,1.154,0,0,0,.315.928,2.1,2.1,0,0,0,1.26.262H26.53A23.324,23.324,0,0,0,29.365-.91a1.163,1.163,0,0,0,.455-.14.9.9,0,0,0,.315-.385,24.171,24.171,0,0,0,1.19-5.11q.14-.665.35-.665t.21.735l.14,4.725a.975.975,0,0,0,.525.875,1.378,1.378,0,0,1,.438.42A1.028,1.028,0,0,1,33.11.07a1.126,1.126,0,0,1-.56,1.015,4.93,4.93,0,0,1-1.977.49q-1.417.14-4.183.14H23a4.926,4.926,0,0,1-3.01-.665A3.056,3.056,0,0,1,19.18-1.4Zm26.11-1.47a1.017,1.017,0,0,0,.91-.49l.175-.315q.07-.1.228-.333a2.6,2.6,0,0,1,.28-.35.368.368,0,0,1,.263-.123,2.768,2.768,0,0,1,1.068.648A8.134,8.134,0,0,1,49.49-23.03a.757.757,0,0,1,.175.385q0,.21-.315.455l-.35.175a.8.8,0,0,0-.63.8v13.3a4.992,4.992,0,0,1-.333,2.065,1.951,1.951,0,0,1-1.347.98.6.6,0,0,1-.245.035q-.49,0-.6-.7l-.1-.525a1.726,1.726,0,0,0-.455-.735q-.175-.105-.7-.385-.245-.14-.245-.28,0-.21.525-.21l.945.035a.341.341,0,0,0,.3-.122.71.71,0,0,0,.088-.4v-13.4a.734.734,0,0,0-.193-.543.734.734,0,0,0-.542-.192H44.94a.734.734,0,0,0-.543.192.734.734,0,0,0-.192.543V-6.44q.07,3.815.245,7.7V1.4a.813.813,0,0,1-.385.735,2.924,2.924,0,0,1-1.785.63.67.67,0,0,1-.472-.228.67.67,0,0,1-.227-.472q.14-2.065.245-4.008t.14-5.093V-21.56a.734.734,0,0,0-.193-.543.734.734,0,0,0-.542-.192h-.315a.734.734,0,0,0-.542.192.734.734,0,0,0-.193.543v8.33q.07,3.815.245,7.7v.175a.936.936,0,0,1-.315.735,2.924,2.924,0,0,1-1.785.63.731.731,0,0,1-.507-.21.648.648,0,0,1-.228-.49q.14-1.855.228-3.675t.122-4.585v-4.48a53.823,53.823,0,0,0-.315-6.125v-.14q0-.525.455-.525a.779.779,0,0,1,.35.07l1.47.665a2.156,2.156,0,0,0,.91.21h.245a.65.65,0,0,0,.735-.735q-.07-2.8-.245-4.515v-.14a.5.5,0,0,1,.56-.56.91.91,0,0,1,.28.035q2.8.805,2.8,1.26,0,.175-.28.35l-.1.07a.987.987,0,0,0-.49.875v2.625a.734.734,0,0,0,.192.543.734.734,0,0,0,.542.192Zm17.01-4.41a.987.987,0,0,0,.875-.49l.245-.35q.105-.14.28-.385a3.03,3.03,0,0,1,.3-.368.368.368,0,0,1,.263-.122,2.674,2.674,0,0,1,1.05.647,8.02,8.02,0,0,1,1.225,1.173.757.757,0,0,1,.175.385.517.517,0,0,1-.315.455l-.21.105a.8.8,0,0,0-.63.8v2.415q.1,3.535.175,5.32v.175a.734.734,0,0,1-.385.7,3.749,3.749,0,0,1-1.925.49.385.385,0,0,1-.332-.175.777.777,0,0,1-.123-.455q0-.595-.735-.595H53.725a.734.734,0,0,0-.542.193.734.734,0,0,0-.193.542v.14q0,.21-.612.472a3.67,3.67,0,0,1-1.452.262.564.564,0,0,1-.455-.21.742.742,0,0,1-.175-.49q.14-1.365.21-3.5v-2.1a50.966,50.966,0,0,0-.245-5.425v-.14q0-.56.455-.56a.779.779,0,0,1,.35.07l1.925.84a2.093,2.093,0,0,0,.875.175Zm-.07,4.305a.734.734,0,0,0,.542-.193.734.734,0,0,0,.193-.542V-25.9a.734.734,0,0,0-.193-.543.734.734,0,0,0-.542-.192H53.725a.734.734,0,0,0-.542.192.734.734,0,0,0-.193.543v1.785a.734.734,0,0,0,.193.542.734.734,0,0,0,.542.193Zm-8.505.98a.734.734,0,0,0-.542.192.734.734,0,0,0-.193.542v1.96a.734.734,0,0,0,.193.542.734.734,0,0,0,.542.193H62.23a.734.734,0,0,0,.542-.193.734.734,0,0,0,.193-.542v-1.96a.734.734,0,0,0-.193-.542.734.734,0,0,0-.542-.192ZM63.21-9.45a.987.987,0,0,0,.875-.49l.35-.56q.14-.21.333-.507a2.771,2.771,0,0,1,.332-.437.4.4,0,0,1,.28-.14,3.329,3.329,0,0,1,1.19.788,7.815,7.815,0,0,1,1.365,1.382.6.6,0,0,1,.14.385.53.53,0,0,1-.21.42.969.969,0,0,1-.6.14H62.195a.734.734,0,0,0-.542.193.734.734,0,0,0-.193.543V-.7a.556.556,0,0,0,.14.455,1.205,1.205,0,0,0,.63.105h1.61l1.575-.035a.614.614,0,0,0,.262-.105A1.206,1.206,0,0,0,65.9-.6a7.2,7.2,0,0,0,.28-1.05q.175-.805.28-1.19l.315-1.3q.14-.665.35-.665.07,0,.14.21a1.682,1.682,0,0,1,.07.525l.07,3.01a.876.876,0,0,0,.1.455A2.638,2.638,0,0,0,67.9-.14a1.066,1.066,0,0,1,.315.84,1.276,1.276,0,0,1-.962,1.19,10.959,10.959,0,0,1-3.553.385H61.5a2.966,2.966,0,0,1-2.065-.507A2.648,2.648,0,0,1,58.94-.07V-7.735a.734.734,0,0,0-.193-.543.734.734,0,0,0-.542-.193h-1.3a.693.693,0,0,0-.77.7A12.813,12.813,0,0,1,53.5-1.207a13.313,13.313,0,0,1-6.213,3.8,1.727,1.727,0,0,1-.525.1q-.21,0-.245-.14V2.45q0-.21.525-.49a11.373,11.373,0,0,0,4.515-3.9A13.356,13.356,0,0,0,53.305-7.7v-.14q0-.63-.7-.63H51.87a10.3,10.3,0,0,0-1.89.28,1.111,1.111,0,0,1-.315.07.674.674,0,0,1-.63-.455l-.1-.21a.932.932,0,0,1-.1-.42A.385.385,0,0,1,49-9.538a.7.7,0,0,1,.49-.087q1.19.1,3.605.175h2.59a.778.778,0,0,0,.542-.175.629.629,0,0,0,.192-.49A55.833,55.833,0,0,0,56.1-16.38v-.14q0-.56.49-.56a2.1,2.1,0,0,1,.35.07,18.493,18.493,0,0,1,2.153.735q.612.28.612.49,0,.1-.28.315l-.07.035a.987.987,0,0,0-.49.875v4.375a.734.734,0,0,0,.193.543.734.734,0,0,0,.542.192ZM62.4-15.715q.105-.56.56-.56a.871.871,0,0,1,.385.1l.91.49a7.579,7.579,0,0,0,.84.385q1.085.385,1.085.665,0,.21-.385.315l-.14.035a1.479,1.479,0,0,0-.805.525A21.463,21.463,0,0,1,61.39-10.71q-.525.35-.7.175a.285.285,0,0,1-.07-.21,1.184,1.184,0,0,1,.175-.56A22.214,22.214,0,0,0,62.4-15.715Zm-11.935.63q-.42-.63-.245-.735a.2.2,0,0,1,.14-.035,1.406,1.406,0,0,1,.56.14,7.557,7.557,0,0,1,2.818,1.908,3.254,3.254,0,0,1,.893,2.047,1.588,1.588,0,0,1-.368,1.085,1.144,1.144,0,0,1-.893.42,1.164,1.164,0,0,1-.63-.175,1,1,0,0,1-.525-.77A12.657,12.657,0,0,0,50.47-15.085Zm32.13-2.17a1.006,1.006,0,0,0,.875-.455l.315-.455q.1-.14.3-.4a3.509,3.509,0,0,1,.315-.385.368.368,0,0,1,.263-.123q.245,0,1.033.665a7.332,7.332,0,0,1,1.172,1.19.77.77,0,0,1,.175.42.5.5,0,0,1-.21.385,1.059,1.059,0,0,1-.63.175H82.04a.734.734,0,0,0-.543.192.734.734,0,0,0-.192.543v2.415a.734.734,0,0,0,.192.542.734.734,0,0,0,.543.193h1.225a1.068,1.068,0,0,0,.91-.42l.245-.28q.1-.1.368-.42t.473-.315a2.544,2.544,0,0,1,1.015.6,7.032,7.032,0,0,1,1.19,1.12.6.6,0,0,1,.14.385.412.412,0,0,1-.315.42l-.245.1a.8.8,0,0,0-.7.8A43.486,43.486,0,0,1,85.417-2.9a7.137,7.137,0,0,1-1.7,3.57,4.292,4.292,0,0,1-2.415.98H81.2a.6.6,0,0,1-.472-.175A1.1,1.1,0,0,1,80.5.945a1.357,1.357,0,0,0-.385-.91,3.274,3.274,0,0,0-1.435-.7q-.665-.14-.665-.42t.77-.21q1.75.14,2.345.14a2.514,2.514,0,0,0,.665-.07,1.053,1.053,0,0,0,.455-.28,5.8,5.8,0,0,0,1.067-2.817,49.977,49.977,0,0,0,.753-6.247v-.07a.65.65,0,0,0-.735-.735h-6.51a.734.734,0,0,0-.542.193.734.734,0,0,0-.193.543v.42q0,.175-.577.49a2.771,2.771,0,0,1-1.347.315.672.672,0,0,1-.49-.21.672.672,0,0,1-.21-.49q.245-3.22.315-7.035v-3.885a54.175,54.175,0,0,0-.315-6.16v-.14q0-.525.455-.525a.779.779,0,0,1,.35.07l1.785.77a2.093,2.093,0,0,0,.875.175h5.88a1.006,1.006,0,0,0,.875-.455l.385-.525q.1-.14.332-.437a4.649,4.649,0,0,1,.368-.437.4.4,0,0,1,.28-.14,3.17,3.17,0,0,1,1.155.735,9.394,9.394,0,0,1,1.365,1.3.6.6,0,0,1,.14.385.53.53,0,0,1-.21.42.969.969,0,0,1-.6.14H82.04a.734.734,0,0,0-.543.193.734.734,0,0,0-.192.543v2.31a.734.734,0,0,0,.192.542.734.734,0,0,0,.543.193h.7a1.006,1.006,0,0,0,.875-.455l.28-.42q.07-.1.245-.385a1.85,1.85,0,0,1,.315-.4.428.428,0,0,1,.28-.122q.35,0,1.365.927t1.015,1.313q-.035.56-.84.56H82.04a.734.734,0,0,0-.543.193.734.734,0,0,0-.192.542v2.345a.734.734,0,0,0,.192.542.734.734,0,0,0,.543.193ZM98.07-26.74a1.006,1.006,0,0,0,.875-.455l.28-.42q.1-.14.3-.4a3.508,3.508,0,0,1,.315-.385.368.368,0,0,1,.262-.122,3.17,3.17,0,0,1,1.155.735,9.846,9.846,0,0,1,1.4,1.33.6.6,0,0,1,.14.385.582.582,0,0,1-.28.455,1.207,1.207,0,0,1-.35.175.86.86,0,0,0-.63.84v3.29q.07,3.675.245,7.21v.14a.813.813,0,0,1-.385.735,4.167,4.167,0,0,1-1,.472,3.394,3.394,0,0,1-1.067.193.454.454,0,0,1-.42-.245.871.871,0,0,1-.105-.385,1.914,1.914,0,0,1,.07-.42l.07-.35a.734.734,0,0,0-.192-.543.734.734,0,0,0-.543-.193H94.99a.662.662,0,0,0-.56.227.685.685,0,0,0-.105.578,27.605,27.605,0,0,0,3.325,8.12A15.168,15.168,0,0,0,102.9-.49q.525.245.525.455a.3.3,0,0,1-.158.245,2.2,2.2,0,0,1-.437.21,2.882,2.882,0,0,0-1.365,1.54q-.21.49-.525.49a.85.85,0,0,1-.42-.21,16.472,16.472,0,0,1-4.5-6.422A40.859,40.859,0,0,1,93.59-14a.734.734,0,0,0-.8-.7h-.42a.65.65,0,0,0-.735.735,36.586,36.586,0,0,1-1.4,9.187A16,16,0,0,1,85.785,2.38a.958.958,0,0,1-.56.35q-.28,0-.28-.245a2.054,2.054,0,0,1,.245-.63,20.5,20.5,0,0,0,3.167-7.928,58.4,58.4,0,0,0,.788-10.2v-5.88a43.956,43.956,0,0,0-.245-5v-.14q0-.525.455-.525a.779.779,0,0,1,.35.07l1.995.84a2.093,2.093,0,0,0,.875.175ZM78.33-22.085a.734.734,0,0,0,.542-.193.734.734,0,0,0,.193-.542v-2.31a.734.734,0,0,0-.193-.543.734.734,0,0,0-.542-.193H76.825a.734.734,0,0,0-.542.193.734.734,0,0,0-.193.543v2.31a.734.734,0,0,0,.193.542.734.734,0,0,0,.542.193Zm14.035-3.64a.734.734,0,0,0-.542.193.734.734,0,0,0-.193.542v8.54a.734.734,0,0,0,.193.543.734.734,0,0,0,.542.192H98.21a.734.734,0,0,0,.543-.192.734.734,0,0,0,.192-.543v-8.54a.734.734,0,0,0-.192-.542.734.734,0,0,0-.543-.193ZM76.09-17.99a.734.734,0,0,0,.193.542.734.734,0,0,0,.542.193H78.33a.734.734,0,0,0,.542-.193.734.734,0,0,0,.193-.542v-2.345a.734.734,0,0,0-.193-.542.734.734,0,0,0-.542-.193H76.825a.734.734,0,0,0-.542.193.734.734,0,0,0-.193.542ZM79.065-15.5a.734.734,0,0,0-.193-.543.734.734,0,0,0-.542-.192H76.825a.734.734,0,0,0-.542.192.734.734,0,0,0-.193.543v2.415a.734.734,0,0,0,.193.542.734.734,0,0,0,.542.193H78.33a.734.734,0,0,0,.542-.193.734.734,0,0,0,.193-.542ZM80.15-9.17a1.085,1.085,0,0,1-.35-.6q0-.175.245-.175a1.18,1.18,0,0,1,.525.14,5.14,5.14,0,0,1,2.135,1.347A2.4,2.4,0,0,1,83.37-6.93a1.286,1.286,0,0,1-.263.822.8.8,0,0,1-.647.332.487.487,0,0,1-.21-.035.6.6,0,0,1-.35-.227,2.058,2.058,0,0,1-.21-.473A7.34,7.34,0,0,0,80.15-9.17Zm-2.275.805q-.315-.7-.105-.805l.105-.035a.984.984,0,0,1,.56.315,7.317,7.317,0,0,1,1.82,2.1,4.146,4.146,0,0,1,.56,1.925,1.857,1.857,0,0,1-.263,1.032.788.788,0,0,1-.682.4,1.152,1.152,0,0,1-.35-.07q-.385-.14-.455-.805A11.592,11.592,0,0,0,77.875-8.365Zm-2.24.525a1.661,1.661,0,0,1-.035-.385q0-.35.14-.385h.035q.245,0,.56.455a7.357,7.357,0,0,1,1.47,4.165,3.4,3.4,0,0,1-.35,1.627q-.35.648-.84.648a.932.932,0,0,1-.42-.105.877.877,0,0,1-.315-.91,11.919,11.919,0,0,0,.105-1.54A22.274,22.274,0,0,0,75.635-7.84Zm-2.17.245q.07-.735.28-.735.1,0,.228.175a1.055,1.055,0,0,1,.157.49,16.607,16.607,0,0,1,.385,3.43A5.72,5.72,0,0,1,73.9-1.26q-.612.98-1.347.98a.823.823,0,0,1-.63-.263,1.01,1.01,0,0,1-.245-.717A1.907,1.907,0,0,1,72-2.31,5.873,5.873,0,0,0,73.01-4.445,13.623,13.623,0,0,0,73.465-7.595Zm58.87-15.19a.987.987,0,0,0,.875-.49l.49-.735q.175-.245.4-.577a3.589,3.589,0,0,1,.385-.49.442.442,0,0,1,.3-.158,4.106,4.106,0,0,1,1.417.945,11.222,11.222,0,0,1,1.628,1.575.757.757,0,0,1,.175.385.535.535,0,0,1-.175.385,1.059,1.059,0,0,1-.63.175H112.875a36.261,36.261,0,0,0-4.62.385h-.175a.789.789,0,0,1-.735-.455l-.14-.28a1.95,1.95,0,0,1-.14-.42.385.385,0,0,1,.175-.333.7.7,0,0,1,.49-.087q1.19.105,3.6.175h3.57l2.66-.07-.175-.035a.721.721,0,0,1-.35-.28,2.546,2.546,0,0,1-.21-.49,9.289,9.289,0,0,0-1.085-2.45,19.252,19.252,0,0,0-1.715-2.38,1.676,1.676,0,0,1-.385-.63q0-.14.28-.14a1.363,1.363,0,0,1,.49.07,8.8,8.8,0,0,1,3.868,2.118,3.824,3.824,0,0,1,1.243,2.573,2.026,2.026,0,0,1-.315,1.12,1.022,1.022,0,0,0-.21.455q0,.14.455.14h4.725q.6,0,.735-.245.735-1.4,1.4-3.028a19.725,19.725,0,0,0,.98-2.993q.1-.56.6-.56a2.1,2.1,0,0,1,.35.07q3.325,1.015,3.325,1.435,0,.14-.315.28l-.175.07a2.342,2.342,0,0,0-.77.56,37.66,37.66,0,0,1-3.465,3.5.68.68,0,0,0-.315.525.316.316,0,0,0,.175.28.876.876,0,0,0,.455.1ZM132.37-12.6a55.831,55.831,0,0,0-.315-6.265V-19q0-.56.525-.56a.91.91,0,0,1,.28.035q3.01.805,3.01,1.26,0,.14-.315.315l-.1.07a.937.937,0,0,0-.49.875V-.84a5.535,5.535,0,0,1-.228,1.75,2.2,2.2,0,0,1-.91,1.12,5.186,5.186,0,0,1-2.048.665H131.6a.7.7,0,0,1-.7-.6,2.175,2.175,0,0,0-.6-1.155,5.1,5.1,0,0,0-2.24-.84q-.7-.175-.7-.42,0-.175.525-.175.7,0,2.31.14l1.4.07a.887.887,0,0,0,.6-.157.7.7,0,0,0,.175-.543ZM113.225-6.335a.734.734,0,0,0-.542.192.734.734,0,0,0-.193.543v1.995q.1,3.15.175,4.76v.21a.908.908,0,0,1-.28.665,3.133,3.133,0,0,1-.893.543,2.912,2.912,0,0,1-1.137.227.836.836,0,0,1-.56-.21.63.63,0,0,1-.245-.49q.14-2.065.245-4.007T109.935-7v-5.39a54.765,54.765,0,0,0-.315-6.16v-.14q0-.525.455-.525a.779.779,0,0,1,.35.07l1.82.805a2.092,2.092,0,0,0,.875.175H117.5a1.1,1.1,0,0,0,.91-.455l.245-.315q.1-.14.368-.472t.472-.333a3.439,3.439,0,0,1,1.19.683,10.342,10.342,0,0,1,1.47,1.242.6.6,0,0,1,.14.385.575.575,0,0,1-.315.455,1.207,1.207,0,0,1-.35.175.86.86,0,0,0-.63.84V-.63a4.239,4.239,0,0,1-.507,2.31,3.091,3.091,0,0,1-2.153,1.05h-.14q-.6,0-.7-.665A2.021,2.021,0,0,0,117.04.98a2.613,2.613,0,0,0-1.47-.77Q114.9.035,114.9-.21t.77-.175q1.47.14,2.135.14a.574.574,0,0,0,.473-.157A.832.832,0,0,0,118.4-.91V-5.6a.734.734,0,0,0-.192-.543.734.734,0,0,0-.543-.192Zm12-5.39a55.833,55.833,0,0,0-.315-6.265v-.14q0-.56.49-.56a2.1,2.1,0,0,1,.35.07q2.905.84,2.905,1.26,0,.14-.315.315l-.1.07a.987.987,0,0,0-.49.875v4.165q.07,3.815.245,7.7v.175a.751.751,0,0,1-.35.7,2.785,2.785,0,0,1-.893.455,3.464,3.464,0,0,1-1.068.175.656.656,0,0,1-.507-.21.7.7,0,0,1-.192-.49q.175-1.75.245-4.62Zm-7.56-1.155a.734.734,0,0,0,.543-.192.734.734,0,0,0,.192-.543V-16.38a.734.734,0,0,0-.192-.543.734.734,0,0,0-.543-.192h-4.445a.734.734,0,0,0-.542.192.734.734,0,0,0-.193.543v2.765a.734.734,0,0,0,.193.543.734.734,0,0,0,.542.192Zm-4.445.98a.734.734,0,0,0-.542.193.734.734,0,0,0-.193.543v3.08a.734.734,0,0,0,.193.543.734.734,0,0,0,.542.193h4.445a.734.734,0,0,0,.543-.193.734.734,0,0,0,.192-.543v-3.08a.734.734,0,0,0-.192-.543.734.734,0,0,0-.543-.193Zm51.59-8.96a1.006,1.006,0,0,0,.875-.455l.28-.42q.1-.14.3-.4a3.506,3.506,0,0,1,.315-.385.368.368,0,0,1,.262-.123,3.842,3.842,0,0,1,1.348.788,12.383,12.383,0,0,1,1.628,1.383.757.757,0,0,1,.175.385.522.522,0,0,1-.28.455,3.722,3.722,0,0,1-.63.28.823.823,0,0,0-.63.84V-8.75a1.371,1.371,0,0,0,.087.525q.088.21.193.21.245,0,.56-.49l.385-.595q.14-.21.333-.508a2.771,2.771,0,0,1,.333-.438.4.4,0,0,1,.28-.14q.28,0,1.208.823a8.931,8.931,0,0,1,1.347,1.418.52.52,0,0,1,.14.385.535.535,0,0,1-.175.385A1.229,1.229,0,0,1,172.48-7h-3.29a.734.734,0,0,0-.543.193.734.734,0,0,0-.192.542V-1.05A5.619,5.619,0,0,1,168.21.77,2.343,2.343,0,0,1,167.2,1.96a6.178,6.178,0,0,1-2.275.735h-.175a.7.7,0,0,1-.7-.6,2.357,2.357,0,0,0-.77-1.4,5.8,5.8,0,0,0-2.625-.98q-.7-.1-.7-.385,0-.21.56-.21.84,0,2.73.14,1.12.1,1.645.105a.954.954,0,0,0,.683-.192.838.838,0,0,0,.192-.613v-4.83a.734.734,0,0,0-.192-.542A.734.734,0,0,0,165.025-7H149.94a.734.734,0,0,0-.542.193.734.734,0,0,0-.193.542v2.24q.1,3.36.175,5.25V1.4a.95.95,0,0,1-.28.7,3.259,3.259,0,0,1-2.17.735.712.712,0,0,1-.525-.21.672.672,0,0,1-.21-.49q.21-2.87.28-5.845V-6.265a.734.734,0,0,0-.193-.542A.734.734,0,0,0,145.74-7h-.77a10.3,10.3,0,0,0-1.89.28,1.111,1.111,0,0,1-.315.07.674.674,0,0,1-.63-.455l-.1-.245a.932.932,0,0,1-.1-.42q0-.455.665-.385.77.07,2.31.14h.84a.734.734,0,0,0,.542-.193.734.734,0,0,0,.193-.542v-6.44a54.173,54.173,0,0,0-.315-6.16v-.14q0-.56.455-.56a.779.779,0,0,1,.35.07l2.17.945a2.093,2.093,0,0,0,.875.175h5.18a.734.734,0,0,0,.542-.192.734.734,0,0,0,.193-.542V-24.71a.734.734,0,0,0-.193-.542.734.734,0,0,0-.542-.193h-6.475a36.261,36.261,0,0,0-4.62.385h-.175a.816.816,0,0,1-.77-.455l-.14-.245a.932.932,0,0,1-.1-.42.385.385,0,0,1,.175-.332.7.7,0,0,1,.49-.088q1.19.1,3.6.175H166.6a1.006,1.006,0,0,0,.875-.455l.525-.735q.175-.245.4-.577a3.589,3.589,0,0,1,.385-.49.442.442,0,0,1,.3-.157,4.13,4.13,0,0,1,1.418.91,11.965,11.965,0,0,1,1.663,1.54.535.535,0,0,1,.175.385.5.5,0,0,1-.21.385,1.3,1.3,0,0,1-.7.175h-12a.734.734,0,0,0-.542.193.734.734,0,0,0-.193.542v3.115a.734.734,0,0,0,.193.542.734.734,0,0,0,.542.192Zm-9.625,6.335a.734.734,0,0,0,.542-.193.734.734,0,0,0,.193-.542v-3.85a.734.734,0,0,0-.193-.542.734.734,0,0,0-.542-.192h-5.25a.734.734,0,0,0-.542.192.734.734,0,0,0-.193.542v3.85a.734.734,0,0,0,.193.542.734.734,0,0,0,.542.193Zm9.835,0a.734.734,0,0,0,.543-.193.734.734,0,0,0,.192-.542v-3.85a.734.734,0,0,0-.192-.542.734.734,0,0,0-.543-.192h-5.6a.734.734,0,0,0-.542.192.734.734,0,0,0-.193.542v3.85a.734.734,0,0,0,.193.542.734.734,0,0,0,.542.193Zm-9.1,1.75a.734.734,0,0,0-.193-.542.734.734,0,0,0-.542-.193h-5.25a.734.734,0,0,0-.542.193.734.734,0,0,0-.193.542V-8.75a.734.734,0,0,0,.193.542.734.734,0,0,0,.542.193h5.25a.734.734,0,0,0,.542-.193.734.734,0,0,0,.193-.542Zm3.5-.735a.734.734,0,0,0-.542.193.734.734,0,0,0-.193.542V-8.75a.734.734,0,0,0,.193.542.734.734,0,0,0,.542.193h5.6a.734.734,0,0,0,.543-.193.734.734,0,0,0,.192-.542v-4.025a.734.734,0,0,0-.192-.542.734.734,0,0,0-.543-.193ZM186.97-27.02a.987.987,0,0,0,.875-.49l.245-.35q.105-.14.28-.385a3.03,3.03,0,0,1,.3-.368.368.368,0,0,1,.262-.122,2.829,2.829,0,0,1,1.085.682,8.97,8.97,0,0,1,1.295,1.243.6.6,0,0,1,.14.385q0,.245-.35.49l-.14.07a.9.9,0,0,0-.6.84v2.31q.1,3.36.175,5.18v.175a.779.779,0,0,1-.315.7,3.274,3.274,0,0,1-.963.525,3.065,3.065,0,0,1-1.033.21q-.385,0-.385-.735v-.1a.734.734,0,0,0-.193-.543.734.734,0,0,0-.542-.192h-4.935a.734.734,0,0,0-.542.192.734.734,0,0,0-.193.543V-6.65q.07,3.78.245,7.735V1.3a.908.908,0,0,1-.28.665,2.981,2.981,0,0,1-.893.6,2.815,2.815,0,0,1-1.173.245.952.952,0,0,1-.613-.21.616.616,0,0,1-.262-.49q.14-2.065.245-4.007T178.85-7V-21.385a53.822,53.822,0,0,0-.315-6.125v-.14q0-.56.42-.56a.871.871,0,0,1,.385.1l1.855.875a2.155,2.155,0,0,0,.91.21Zm10.6,9.52q-.735,0-.735.525,0,.245-.735.56a3.706,3.706,0,0,1-1.47.315.516.516,0,0,1-.437-.21.794.794,0,0,1-.157-.49q.14-1.33.21-3.36v-2.03a49,49,0,0,0-.245-5.25v-.14q0-.525.455-.525a.779.779,0,0,1,.35.07l1.75.805a2.324,2.324,0,0,0,.91.21h5.11a.987.987,0,0,0,.875-.49l.245-.35q.07-.1.245-.35a2.179,2.179,0,0,1,.315-.368.428.428,0,0,1,.28-.122,3.5,3.5,0,0,1,1.208.717,11.489,11.489,0,0,1,1.488,1.278.6.6,0,0,1,.14.385.575.575,0,0,1-.315.455,1.372,1.372,0,0,1-.315.14.823.823,0,0,0-.63.84V-.84a4.353,4.353,0,0,1-.543,2.415,3.344,3.344,0,0,1-2.257,1.12h-.175a.656.656,0,0,1-.7-.63A2.648,2.648,0,0,0,201.95.84,4,4,0,0,0,200.3-.035q-.665-.14-.665-.42,0-.175.525-.175.56,0,1.68.07l.98.07a.7.7,0,0,0,.508-.158.754.754,0,0,0,.158-.543V-16.765a.734.734,0,0,0-.193-.543.734.734,0,0,0-.542-.192ZM187.11-22.82a.734.734,0,0,0,.542-.193.734.734,0,0,0,.193-.542v-1.75a.734.734,0,0,0-.193-.542.734.734,0,0,0-.542-.193h-4.935a.734.734,0,0,0-.542.193.734.734,0,0,0-.193.542v1.75a.734.734,0,0,0,.193.542.734.734,0,0,0,.542.193Zm15.645,0a.734.734,0,0,0,.542-.193.734.734,0,0,0,.193-.542v-1.75a.734.734,0,0,0-.193-.542.734.734,0,0,0-.542-.193h-5.18a.734.734,0,0,0-.542.193.734.734,0,0,0-.193.542v1.75a.734.734,0,0,0,.193.542.734.734,0,0,0,.542.193Zm-20.58.98a.734.734,0,0,0-.542.193.734.734,0,0,0-.193.542v1.82a.734.734,0,0,0,.193.542.734.734,0,0,0,.542.193h4.935a.734.734,0,0,0,.542-.193.734.734,0,0,0,.193-.542V-21.1a.734.734,0,0,0-.193-.542.734.734,0,0,0-.542-.193Zm15.4,0a.734.734,0,0,0-.542.193.734.734,0,0,0-.193.542v1.82a.734.734,0,0,0,.193.542.734.734,0,0,0,.542.193h5.18a.734.734,0,0,0,.542-.193.734.734,0,0,0,.193-.542V-21.1a.734.734,0,0,0-.193-.542.734.734,0,0,0-.542-.193Zm-.35,13.86a.9.9,0,0,0,.735-.455l.35-.525a5.039,5.039,0,0,0,.3-.42,2.512,2.512,0,0,1,.333-.42.483.483,0,0,1,.315-.175q.245,0,1.1.735a7.238,7.238,0,0,1,1.243,1.3.77.77,0,0,1,.175.42.5.5,0,0,1-.21.385,1.229,1.229,0,0,1-.665.175h-3.36a.734.734,0,0,0-.542.193.734.734,0,0,0-.193.543v1.82q.105,2.87.175,4.34V.105a.751.751,0,0,1-.35.7,3.051,3.051,0,0,1-1.82.525.564.564,0,0,1-.455-.21.742.742,0,0,1-.175-.49q.175-1.82.245-4.83V-6.23a.734.734,0,0,0-.193-.543.734.734,0,0,0-.542-.193h-2.66a.723.723,0,0,0-.8.665,10.63,10.63,0,0,1-1.663,4.218,10.732,10.732,0,0,1-3.937,3.342q-.63.315-.77.105a.143.143,0,0,1-.035-.105q0-.21.42-.6a10.773,10.773,0,0,0,3.6-6.86v-.14q0-.63-.665-.63h-.7a8.549,8.549,0,0,0-1.785.28.911.911,0,0,1-.28.035.815.815,0,0,1-.7-.455l-.1-.21a.871.871,0,0,1-.1-.385.385.385,0,0,1,.175-.333.779.779,0,0,1,.525-.087q.77.07,2.24.14h.84a.911.911,0,0,0,.56-.157.553.553,0,0,0,.21-.473v-3.6a.734.734,0,0,0-.192-.542.734.734,0,0,0-.542-.193h-.525a7.157,7.157,0,0,0-1.365.245,1.111,1.111,0,0,1-.315.07.741.741,0,0,1-.665-.455l-.1-.21a.871.871,0,0,1-.1-.385.419.419,0,0,1,.175-.367.7.7,0,0,1,.49-.088q1.225.105,3.64.175h7.84a1.006,1.006,0,0,0,.875-.455l.35-.525a5.039,5.039,0,0,0,.3-.42,2.512,2.512,0,0,1,.333-.42.483.483,0,0,1,.315-.175q.28,0,1.155.752a8.9,8.9,0,0,1,1.3,1.313.52.52,0,0,1,.14.385.535.535,0,0,1-.175.385,1.059,1.059,0,0,1-.63.175h-2.8a.734.734,0,0,0-.542.193.734.734,0,0,0-.193.542v3.5Q196.8-7.98,197.225-7.98Zm-6.055-4.97a.734.734,0,0,0-.542.193.734.734,0,0,0-.193.542v3.5q0,.735.7.735h2.555a.734.734,0,0,0,.542-.193.734.734,0,0,0,.193-.542v-3.5a.734.734,0,0,0-.193-.542.734.734,0,0,0-.542-.193Zm45.92-7.49q-.42.21-.42.49a.67.67,0,0,0,.35.525,28.238,28.238,0,0,0,5.81,2.975q.63.28.6.42t-.28.228q-.245.088-.35.122a3.068,3.068,0,0,0-1.575,1.47q-.245.455-.6.455a.871.871,0,0,1-.385-.1,24.228,24.228,0,0,1-7.228-5.967,24.7,24.7,0,0,1-4.5-8.733,1.93,1.93,0,0,1-.07-.385.573.573,0,0,1,.175-.42l.07-.035q.21,0,.49.665a19.078,19.078,0,0,0,2.31,4.095.758.758,0,0,0,.525.315.783.783,0,0,0,.525-.28,22.2,22.2,0,0,0,2.73-3.885.631.631,0,0,1,.56-.42.963.963,0,0,1,.49.175q2.38,1.54,2.38,1.925,0,.1-.315.175h-.1a1.659,1.659,0,0,0-.875.35q-2.205,1.5-4.13,2.59a.61.61,0,0,0-.385.525.864.864,0,0,0,.21.49q.56.56,1.82,1.68a.756.756,0,0,0,.49.21.783.783,0,0,0,.525-.28,17.255,17.255,0,0,0,3.115-3.92.631.631,0,0,1,.56-.42.963.963,0,0,1,.49.175q2.415,1.645,2.415,2.065,0,.105-.315.175h-.14a1.434,1.434,0,0,0-.77.245A30.274,30.274,0,0,1,237.09-20.44ZM235.795-9.2a1.006,1.006,0,0,0,.875-.455l.49-.7q.1-.14.35-.49a5.791,5.791,0,0,1,.4-.525.429.429,0,0,1,.3-.175,3.751,3.751,0,0,1,1.348.875A9.8,9.8,0,0,1,241.08-9.2a.77.77,0,0,1,.175.42.5.5,0,0,1-.21.385,1.229,1.229,0,0,1-.665.175h-7.175a.734.734,0,0,0-.542.193.734.734,0,0,0-.193.543V-1.4a.746.746,0,0,0,.227.647A2.127,2.127,0,0,0,233.73-.6h2.73l2.625-.035a.867.867,0,0,0,.7-.42,19.032,19.032,0,0,0,.98-3.465q.14-.665.35-.665t.21.735l.07,2.94a1.078,1.078,0,0,0,.56.875,1.049,1.049,0,0,1,.49.945,1.168,1.168,0,0,1-.508,1,4.129,4.129,0,0,1-1.82.525,34.274,34.274,0,0,1-3.8.158H233.1a6.609,6.609,0,0,1-2.065-.245,1.637,1.637,0,0,1-.98-.8,3.8,3.8,0,0,1-.28-1.645V-7.49a.734.734,0,0,0-.192-.543.734.734,0,0,0-.542-.193h-3.535a.7.7,0,0,0-.77.665,11.187,11.187,0,0,1-2.993,5.845q-2.432,2.59-7.787,4.27a1.679,1.679,0,0,1-.49.1q-.245,0-.315-.14V2.45q0-.21.56-.525a16.776,16.776,0,0,0,5.827-4.235,11.706,11.706,0,0,0,2.467-5.145v-.14q0-.63-.7-.63H219.38a33.166,33.166,0,0,0-4.41.385h-.175a.816.816,0,0,1-.77-.455l-.14-.245a.932.932,0,0,1-.1-.42.385.385,0,0,1,.175-.333.7.7,0,0,1,.49-.087q1.19.105,3.6.175h3.43q.735,0,.735-.63a4.944,4.944,0,0,0,.035-.665v-3.955a.734.734,0,0,0-.193-.542.734.734,0,0,0-.542-.193H219.38q-.63,0-.735-.385a.188.188,0,0,0-.21-.14,1.137,1.137,0,0,0-.63.245,27.944,27.944,0,0,1-4.935,2.555,1.679,1.679,0,0,1-.49.105.378.378,0,0,1-.28-.105.143.143,0,0,1-.035-.105q0-.21.525-.525a25.966,25.966,0,0,0,6.318-5.11,24.963,24.963,0,0,0,4.322-6.58,1.111,1.111,0,0,0,.07-.315.466.466,0,0,0-.175-.385.766.766,0,0,0-.49-.14H220.99a29.258,29.258,0,0,0-4.13.385h-.175a.816.816,0,0,1-.77-.455l-.14-.245a.932.932,0,0,1-.1-.42.385.385,0,0,1,.175-.333.7.7,0,0,1,.49-.087q1.19.1,3.6.175h3.15a1.133,1.133,0,0,0,.875-.385l.42-.455q.14-.14.473-.49t.542-.35q.245,0,1.1.752a9.829,9.829,0,0,1,1.313,1.348,1.1,1.1,0,0,1,.14.385.42.42,0,0,1-.35.42,1.152,1.152,0,0,1-.35.07,1.09,1.09,0,0,0-.84.6,23.614,23.614,0,0,1-6.475,8.12.661.661,0,0,0-.315.49.316.316,0,0,0,.175.28.876.876,0,0,0,.455.1H231.42a.987.987,0,0,0,.875-.49l.385-.56q.14-.21.333-.507a2.771,2.771,0,0,1,.333-.437.4.4,0,0,1,.28-.14,2.173,2.173,0,0,1,.875.543,12.994,12.994,0,0,1,1.242,1.155q.578.612.578.858-.035.56-.84.56h-2.275a.734.734,0,0,0-.542.193.734.734,0,0,0-.193.542V-9.94a.734.734,0,0,0,.193.543.734.734,0,0,0,.542.193ZM215.04-23.555a2.183,2.183,0,0,1-.367-.385q-.122-.175-.053-.245a.405.405,0,0,1,.28-.07,2.4,2.4,0,0,1,.455.035,7.365,7.365,0,0,1,3.448,1.487,2.814,2.814,0,0,1,1.1,2.047,1.608,1.608,0,0,1-.385,1.1,1.211,1.211,0,0,1-.945.437,1.313,1.313,0,0,1-.6-.14.878.878,0,0,1-.56-.7,8.2,8.2,0,0,0-.945-1.855A10.173,10.173,0,0,0,215.04-23.555Zm10.675,8.365a.734.734,0,0,0-.542.193.734.734,0,0,0-.193.542V-9.94q0,.735.7.735h3.36a.734.734,0,0,0,.542-.193.734.734,0,0,0,.192-.543v-4.515a.734.734,0,0,0-.192-.542.734.734,0,0,0-.542-.193Zm45.85-4.935a3.3,3.3,0,0,1,2.2.805,2.627,2.627,0,0,1,.945,2.1,3.453,3.453,0,0,1-1.452,2.818,16.307,16.307,0,0,1-3.833,2.117l-1.61.6q-3.955,1.5-3.675,1.4a.9.9,0,0,0-.6.84,8.107,8.107,0,0,0,0,1.505q0,.315.018,1.26a11.222,11.222,0,0,1-.018,1.225,1.79,1.79,0,0,1-.472,1.12,1.31,1.31,0,0,1-1,.49,1.21,1.21,0,0,1-.927-.455,1.538,1.538,0,0,1-.4-1.05q0-.14.14-1.61a7.451,7.451,0,0,1,.07-.77v-.14q0-.56-.455-.56a.652.652,0,0,0-.42.14q-3.22,1.96-3.22,4.2,0,2.555,5.005,2.555a11,11,0,0,0,1.837-.14q.823-.14,1.8-.385.175-.035.875-.192a6.064,6.064,0,0,1,1.33-.158,1.952,1.952,0,0,1,1.19.315,1.032,1.032,0,0,1,.42.875q0,1.19-2.013,1.68a18.234,18.234,0,0,1-4.323.49q-4.06,0-5.757-1.278a3.959,3.959,0,0,1-1.7-3.308,4.783,4.783,0,0,1,1.33-3.29,14.747,14.747,0,0,1,3.78-2.835.949.949,0,0,0,.525-.84v-.525a5.317,5.317,0,0,0-.6-2.8,1.681,1.681,0,0,0-1.4-.945,3.066,3.066,0,0,0-2.222,1.243A29,29,0,0,0,254.59-10.5l-.385.6q-.1.14-.525.77a5.309,5.309,0,0,1-.8.98,1.1,1.1,0,0,1-.7.35,1.188,1.188,0,0,1-1.033-.525,2.2,2.2,0,0,1-.368-1.3,2.531,2.531,0,0,1,.875-1.855l.525-.49q.98-.91,1.7-1.662a12.5,12.5,0,0,0,1.348-1.7,24.327,24.327,0,0,0,2.45-5,1.111,1.111,0,0,0,.07-.315.407.407,0,0,0-.193-.368.847.847,0,0,0-.542-.087,14.8,14.8,0,0,1-1.645.14,4.182,4.182,0,0,1-2.048-.472,12.14,12.14,0,0,1-2.048-1.523.384.384,0,0,1-.14-.245q0-.1.175-.1a2.038,2.038,0,0,1,.49.1,7.472,7.472,0,0,0,2.555.455,13.412,13.412,0,0,0,3.675-.56.861.861,0,0,0,.665-.77,6.9,6.9,0,0,0,.105-1.12,2.548,2.548,0,0,0-1.12-2.24q-.28-.175-.28-.35a.875.875,0,0,1,.21-.507.629.629,0,0,1,.49-.192,6.506,6.506,0,0,1,1.383.21,2.335,2.335,0,0,1,1.172.525,1.306,1.306,0,0,1,.245.875v.07a1.2,1.2,0,0,0,.122.507.7.7,0,0,0,.4.368,4.035,4.035,0,0,0,.91.1,2.456,2.456,0,0,0,.77-.1,4.545,4.545,0,0,1,.735-.07q.84,0,.84.665a1.853,1.853,0,0,1-.578,1.225,6.2,6.2,0,0,1-1.487,1.155,15.983,15.983,0,0,1-2.45,1.05,1.155,1.155,0,0,0-.7.7,40.273,40.273,0,0,1-1.82,4.655,1.162,1.162,0,0,0-.105.455.247.247,0,0,0,.28.28l.28-.07a4.806,4.806,0,0,1,.945-.14,3.65,3.65,0,0,1,3.745,2.555q.175.385.28.385.175,0,.315-.35a14.69,14.69,0,0,1,2.59-3.85,10.663,10.663,0,0,1,2.573-1.978A6.128,6.128,0,0,1,271.565-20.125Zm-10.71-5.285q-.14,0-.315.56,0,.525.21.42l.385-.245q.245-.14.245-.28t-.28-.315l-.175-.14Zm7.77,11.48a10.294,10.294,0,0,0,2.573-2.047,3.158,3.158,0,0,0,.962-1.907q0-1.085-1.365-1.085a4.508,4.508,0,0,0-2.065.612,8.328,8.328,0,0,0-2.17,1.7,11.549,11.549,0,0,0-1.348,1.855,13.663,13.663,0,0,0-1.068,2.2,1.619,1.619,0,0,0-.14.665.5.5,0,0,0,.07.28q.07.1.14.035l.77-.385Q267.19-13.09,268.625-13.93ZM292.11-27.02a1.006,1.006,0,0,0,.875-.455l.28-.385q.1-.14.28-.385a3.03,3.03,0,0,1,.3-.368.368.368,0,0,1,.263-.122,2.83,2.83,0,0,1,1.085.682,8.969,8.969,0,0,1,1.295,1.243.6.6,0,0,1,.14.385.591.591,0,0,1-.35.49.614.614,0,0,1-.175.07.9.9,0,0,0-.6.84v2.52q.1,3.64.175,5.53v.175a.734.734,0,0,1-.385.7,3.961,3.961,0,0,1-.945.42,3.35,3.35,0,0,1-.98.175.352.352,0,0,1-.3-.193,1.01,1.01,0,0,1-.122-.542v-.21a.734.734,0,0,0-.193-.542.734.734,0,0,0-.543-.192h-4.97a.734.734,0,0,0-.542.192.734.734,0,0,0-.193.542v9.765q.07,3.78.245,7.735v.21a.9.9,0,0,1-.245.665,2.635,2.635,0,0,1-.91.63,3.023,3.023,0,0,1-1.225.245.952.952,0,0,1-.612-.21.616.616,0,0,1-.263-.49q.14-2.065.245-4.007T283.885-7V-21.385a53.825,53.825,0,0,0-.315-6.125v-.14q0-.525.455-.525a.779.779,0,0,1,.35.07l1.89.875a2.155,2.155,0,0,0,.91.21Zm10.325,9.835a.734.734,0,0,0-.543.192.734.734,0,0,0-.192.542q0,.21-.735.525a3.706,3.706,0,0,1-1.47.315.483.483,0,0,1-.4-.21.794.794,0,0,1-.158-.49q.14-1.365.21-3.5v-2.135a53.144,53.144,0,0,0-.28-5.495v-.14q0-.525.455-.525a.779.779,0,0,1,.35.07l1.75.805a2.324,2.324,0,0,0,.91.21h5.18a.987.987,0,0,0,.875-.49l.245-.35q.1-.14.28-.385a3.03,3.03,0,0,1,.3-.368.368.368,0,0,1,.263-.122A3.584,3.584,0,0,1,310.7-28a11.872,11.872,0,0,1,1.505,1.3.6.6,0,0,1,.14.385.575.575,0,0,1-.315.455,1.371,1.371,0,0,1-.315.14.823.823,0,0,0-.63.84V-.98a6.023,6.023,0,0,1-.227,1.82,2.293,2.293,0,0,1-.893,1.173,4.832,4.832,0,0,1-2.03.682h-.175q-.56,0-.665-.63a2.506,2.506,0,0,0-.63-1.3,4.292,4.292,0,0,0-2.03-.875q-.7-.175-.7-.42,0-.21.56-.21.63,0,2.1.14l1.26.07a.824.824,0,0,0,.6-.175.824.824,0,0,0,.175-.6V-16.45a.734.734,0,0,0-.193-.542.734.734,0,0,0-.543-.192Zm-10.22-5.5a.734.734,0,0,0,.543-.193.734.734,0,0,0,.193-.542v-1.89a.734.734,0,0,0-.193-.542.734.734,0,0,0-.543-.193h-4.97a.733.733,0,0,0-.542.193.734.734,0,0,0-.193.542v1.89a.734.734,0,0,0,.193.542.733.733,0,0,0,.542.193Zm15.47,0a.734.734,0,0,0,.543-.193.734.734,0,0,0,.193-.542v-1.89a.734.734,0,0,0-.193-.542.734.734,0,0,0-.543-.193h-5.25a.734.734,0,0,0-.543.193.734.734,0,0,0-.192.542v1.89a.734.734,0,0,0,.192.542.734.734,0,0,0,.543.193Zm-20.44,1.015a.733.733,0,0,0-.542.193.734.734,0,0,0-.193.542v1.96a.734.734,0,0,0,.193.542.734.734,0,0,0,.542.192h4.97a.734.734,0,0,0,.543-.192.734.734,0,0,0,.193-.542v-1.96a.734.734,0,0,0-.193-.542.734.734,0,0,0-.543-.193Zm15.19,0a.734.734,0,0,0-.543.193.734.734,0,0,0-.192.542v1.96a.734.734,0,0,0,.192.542.734.734,0,0,0,.543.192h5.25a.734.734,0,0,0,.543-.192.734.734,0,0,0,.193-.542v-1.96a.734.734,0,0,0-.193-.542.734.734,0,0,0-.543-.193Zm-8.05,19.25a.734.734,0,0,0-.543.192.734.734,0,0,0-.193.543v.665q0,.245-.7.56a3.387,3.387,0,0,1-1.4.315.564.564,0,0,1-.455-.21.742.742,0,0,1-.175-.49q.175-1.575.245-4.2V-7.49a54.767,54.767,0,0,0-.315-6.16v-.14q0-.525.455-.525a.779.779,0,0,1,.35.07l1.715.77a2.324,2.324,0,0,0,.91.21h5.985a1.1,1.1,0,0,0,.91-.455l.21-.28q.07-.1.245-.333a1.763,1.763,0,0,1,.315-.332.465.465,0,0,1,.28-.1,2.988,2.988,0,0,1,1.1.63,8.1,8.1,0,0,1,1.313,1.155.6.6,0,0,1,.14.385.575.575,0,0,1-.315.455l-.14.07a1.386,1.386,0,0,0-.473.315.707.707,0,0,0-.158.49V-8.4q.1,4.3.21,6.3v.175a.751.751,0,0,1-.35.7,3.911,3.911,0,0,1-.98.525,3,3,0,0,1-1.05.21.454.454,0,0,1-.42-.245.825.825,0,0,1-.105-.35,1.227,1.227,0,0,1,.07-.385,3.67,3.67,0,0,0,.07-.63q0-.14-.193-.228a1.346,1.346,0,0,0-.543-.087Zm6.02-6.09a.734.734,0,0,0,.543-.193.734.734,0,0,0,.193-.542v-2.31a.734.734,0,0,0-.193-.542.734.734,0,0,0-.543-.193h-6.02a.734.734,0,0,0-.543.193.734.734,0,0,0-.193.542v2.31a.734.734,0,0,0,.193.542.734.734,0,0,0,.543.193Zm-6.02,1.015a.734.734,0,0,0-.543.193.734.734,0,0,0-.193.543V-4.2a.734.734,0,0,0,.193.542.734.734,0,0,0,.543.193h6.02a.734.734,0,0,0,.543-.193.734.734,0,0,0,.193-.542V-6.755a.734.734,0,0,0-.193-.543.734.734,0,0,0-.543-.193ZM342.51-18.2a1.006,1.006,0,0,0,.875-.455l.49-.7q.14-.175.367-.507a3.587,3.587,0,0,1,.385-.49.442.442,0,0,1,.3-.158,3.851,3.851,0,0,1,1.365.875,8.6,8.6,0,0,1,1.54,1.5.757.757,0,0,1,.175.385.535.535,0,0,1-.175.385,1.164,1.164,0,0,1-.63.175h-4.83a.734.734,0,0,0-.542.192.734.734,0,0,0-.193.542v5.5q.07,3.815.245,7.7v.175a.751.751,0,0,1-.35.7,3.64,3.64,0,0,1-2.065.56.952.952,0,0,1-.612-.21.616.616,0,0,1-.263-.49q.14-2.065.245-4.008t.14-5.092v-4.83a.734.734,0,0,0-.193-.542.734.734,0,0,0-.543-.192h-4.9a.707.707,0,0,0-.77.735,27.026,27.026,0,0,1-1.33,7.49,14.08,14.08,0,0,1-4.1,6.055,1.043,1.043,0,0,1-.455.3q-.21.053-.28-.052a.237.237,0,0,1-.07-.175,1.11,1.11,0,0,1,.245-.595,17.637,17.637,0,0,0,2.7-6.685,46.7,46.7,0,0,0,.665-8.33V-22.61q0-1.96-.14-3.36v-.105q0-.595.455-.595a2.1,2.1,0,0,1,.35.07l1.715.6a1.426,1.426,0,0,0,.49.1,3.072,3.072,0,0,0,.455-.07q2.555-.7,5.058-1.575a38.658,38.658,0,0,0,4.147-1.68.932.932,0,0,1,.42-.105,1.057,1.057,0,0,1,.63.28q2.1,2.1,2.1,2.45,0,.245-.56.175l-.455-.07a1.472,1.472,0,0,0-.35-.035,4.294,4.294,0,0,0-.56.07,90.638,90.638,0,0,1-10.4,1.47.693.693,0,0,0-.7.77v5.285a.734.734,0,0,0,.192.542.734.734,0,0,0,.543.193Zm-24.15-9.345q-.42-.49-.42-.63,0-.1.21-.1a2.03,2.03,0,0,1,.525.1,10.052,10.052,0,0,1,4.445,2.345,4.222,4.222,0,0,1,1.435,2.87,1.8,1.8,0,0,1-.4,1.208,1.259,1.259,0,0,1-1,.473,1.9,1.9,0,0,1-.7-.175,1.069,1.069,0,0,1-.6-.7,11.422,11.422,0,0,0-1.4-2.765A18.486,18.486,0,0,0,318.36-27.545Zm2.485,13.125a.987.987,0,0,0,.875-.49l.35-.525a5.046,5.046,0,0,0,.3-.42,2.513,2.513,0,0,1,.333-.42.483.483,0,0,1,.315-.175,3.832,3.832,0,0,1,1.277.805,12.21,12.21,0,0,1,1.592,1.435.77.77,0,0,1,.175.42q0,.245-.35.455l-.525.21a.812.812,0,0,0-.665.805v8.015a1.308,1.308,0,0,0,.35.91,7.545,7.545,0,0,0,2.415,1.715,10.639,10.639,0,0,0,3.08.753,46.948,46.948,0,0,0,4.8.192q8.47,0,12.39-.105h.175a1,1,0,0,1,.4.07q.158.07.158.14,0,.1-.175.21t-.42.245A2.368,2.368,0,0,0,346.5,1.3a.812.812,0,0,1-.8.665H335.2a28.4,28.4,0,0,1-4.953-.35A8.47,8.47,0,0,1,326.97.332a8.964,8.964,0,0,1-2.485-2.713.562.562,0,0,0-.525-.385.6.6,0,0,0-.455.245q-2.31,2.485-4.1,4.13-.385.35-.385.42v.035a.932.932,0,0,1-.42.105.54.54,0,0,1-.49-.315L317.2.035a.871.871,0,0,1-.1-.385.557.557,0,0,1,.455-.56q1.96-.875,3.85-1.855a.975.975,0,0,0,.525-.875v-9.03a.734.734,0,0,0-.193-.542.734.734,0,0,0-.542-.193h-.875a9.44,9.44,0,0,0-2.135.315.91.91,0,0,1-.28.035.7.7,0,0,1-.665-.49l-.1-.21a.871.871,0,0,1-.105-.385.385.385,0,0,1,.175-.333.779.779,0,0,1,.525-.087q.7.07,2.17.14ZM359.45.21a1.883,1.883,0,0,1-1.225-.63,4.263,4.263,0,0,1-1.015-1.47,22.561,22.561,0,0,1-1.365-8.33,21.718,21.718,0,0,1,.35-4.113q.35-1.8.945-3.832.385-1.365.56-2.153a7.163,7.163,0,0,0,.175-1.557,4.5,4.5,0,0,0-.263-1.488,3.137,3.137,0,0,0-.717-1.208q-.07-.07-.21-.227a.463.463,0,0,1-.14-.3q0-.14.21-.14a1.356,1.356,0,0,1,.56.175,6.847,6.847,0,0,1,2.275,1.768,4.248,4.248,0,0,1,.875,2.782,5.044,5.044,0,0,1-.315,1.715,14.882,14.882,0,0,1-.945,2.03q-.35.7-.7,1.487a9.153,9.153,0,0,0-.525,1.488,10.031,10.031,0,0,0-.35,2.695,7.177,7.177,0,0,0,.175,1.628q.175.752.455.752.14,0,.332-.3t.263-.4l1.925-3.955q.245-.385.385-.385.1,0,.1.14l-.1.42q-.525,1.4-1.1,3.448a12.9,12.9,0,0,0-.578,3.342,9.617,9.617,0,0,0,.175,1.82q.175.91.49,2.24a8.677,8.677,0,0,1,.315,1.47,1.052,1.052,0,0,1-.3.8A1.009,1.009,0,0,1,359.45.21Zm12.7-19.635a9.122,9.122,0,0,1-3.08-.455,6.315,6.315,0,0,1-1.925-1.032,4.05,4.05,0,0,1-1.12-1.278,1.09,1.09,0,0,1-.14-.455q0-.14.1-.14a1.091,1.091,0,0,1,.35.175q.28.175.49.28a7.024,7.024,0,0,0,2.7.49,20.2,20.2,0,0,0,2.555-.21,24.828,24.828,0,0,0,2.7-.49,2.879,2.879,0,0,1,.875-.175,2.455,2.455,0,0,1,1.435.438,1.251,1.251,0,0,1,.63,1.033q0,.945-1.785,1.382A15.833,15.833,0,0,1,372.155-19.425ZM373.24-1.3a12.7,12.7,0,0,1-4.917-.858A5.255,5.255,0,0,1,365.4-5.285a2.715,2.715,0,0,1-.245-.8.124.124,0,0,1,.14-.14.514.514,0,0,1,.28.14q.175.14.28.21a7.9,7.9,0,0,0,3.15,1.505,10.366,10.366,0,0,0,2.38.21,32.318,32.318,0,0,0,4.375-.385q1.33-.14,1.435-.14a2.2,2.2,0,0,1,1.505.49,1.428,1.428,0,0,1,.56,1.085q0,1.12-1.7,1.47A22.01,22.01,0,0,1,373.24-1.3Z" transform="translate(998.5 1005)" fill="#efefef"/><path d="M12.24-8.72a.46.46,0,0,0,.4-.208l.272-.384q.064-.1.192-.264a2.591,2.591,0,0,1,.208-.248.221.221,0,0,1,.144-.08,2.2,2.2,0,0,1,.7.456,6,6,0,0,1,.832.76.245.245,0,0,1,.08.176.229.229,0,0,1-.1.176.484.484,0,0,1-.288.08H8.944a.315.315,0,0,0-.256.1.319.319,0,0,0-.048.272A10.808,10.808,0,0,0,15.008-.16q.256.144.256.224a.15.15,0,0,1-.1.08l-.192.08a1.257,1.257,0,0,0-.864.736q-.1.224-.24.224a.3.3,0,0,1-.192-.064,10.309,10.309,0,0,1-3.648-3.76A15.16,15.16,0,0,1,8.384-7.5q-.016-.224-.08-.224-.048,0-.1.224A12.7,12.7,0,0,1,7.216-4.12,9.357,9.357,0,0,1,5.088-1.248,13.987,13.987,0,0,1,1.36,1.168a.54.54,0,0,1-.24.064.152.152,0,0,1-.128-.064A.093.093,0,0,1,.976,1.1q0-.112.24-.256a11.715,11.715,0,0,0,4.112-3.84A12.261,12.261,0,0,0,6.944-7.9v-.064q0-.288-.3-.288H3.728a17.235,17.235,0,0,0-2.112.176h-.1a.329.329,0,0,1-.32-.208l-.064-.128a.4.4,0,0,1-.048-.176.192.192,0,0,1,.08-.168.322.322,0,0,1,.224-.04q.56.048,1.664.08H6.72a.309.309,0,0,0,.336-.32Q7.12-10,7.12-10.5a21.35,21.35,0,0,0-.144-2.624v-.048q0-.336.336-.288l1.328.192a.414.414,0,0,1,.216.088.2.2,0,0,1,.088.152.184.184,0,0,1-.064.128l-.064.048a.839.839,0,0,0-.216.16.3.3,0,0,0-.072.208q-.064,2.288-.144,3.408v.048q0,.3.32.3Zm16.208-.64a.465.465,0,0,0,.416-.224l.112-.192q.032-.048.112-.176a.846.846,0,0,1,.144-.184.2.2,0,0,1,.128-.056,1.614,1.614,0,0,1,.56.36,4.7,4.7,0,0,1,.672.632.275.275,0,0,1,.064.176.263.263,0,0,1-.144.208.4.4,0,0,1-.1.048.621.621,0,0,0-.08.032.338.338,0,0,0-.288.368V-2.5a1.913,1.913,0,0,1-.224,1.032,1.4,1.4,0,0,1-.976.472l-.1.016q-.224,0-.3-.3a.95.95,0,0,0-.176-.5,1.316,1.316,0,0,0-.64-.336q-.3-.08-.3-.192,0-.08.24-.08.208,0,.624.032l.384.016a.309.309,0,0,0,.232-.064.313.313,0,0,0,.056-.208V-3.856a.335.335,0,0,0-.088-.248.335.335,0,0,0-.248-.088H26.736a.335.335,0,0,0-.248.088.335.335,0,0,0-.088.248v.592l.032.7q0,.3.032.816v.1a.41.41,0,0,1-.144.32,1.481,1.481,0,0,1-.88.24.236.236,0,0,1-.2-.1.363.363,0,0,1-.072-.224q.064-.688.1-1.744v-.7a.335.335,0,0,0-.088-.248.335.335,0,0,0-.248-.088h-1.7a.335.335,0,0,0-.248.088.335.335,0,0,0-.088.248v.592l.032.736q0,.3.032.816v.1a.411.411,0,0,1-.112.3,1.67,1.67,0,0,1-.432.248,1.39,1.39,0,0,1-.528.1.29.29,0,0,1-.208-.1.307.307,0,0,1-.1-.224q.112-1.584.144-3.52V-6.736a25.035,25.035,0,0,0-.144-2.816v-.064q0-.24.208-.24a.356.356,0,0,1,.16.032l.848.368a1.062,1.062,0,0,0,.416.1h2.4a1.863,1.863,0,0,0,.376-.032q.152-.032.1-.064L26-9.568a6.647,6.647,0,0,0-2.448-1.568q-.272-.1-.272-.208,0-.128.352-.112a9.558,9.558,0,0,1,2.4.544.531.531,0,0,0,.208.048.62.62,0,0,0,.256-.08q.544-.384,1.008-.784a.351.351,0,0,0,.128-.224q0-.192-.288-.192H24.256a16.577,16.577,0,0,0-2.112.176h-.08a.361.361,0,0,1-.336-.208l-.064-.128A.891.891,0,0,1,21.6-12.5a.176.176,0,0,1,.08-.152.322.322,0,0,1,.224-.04q.544.048,1.648.08H28a.569.569,0,0,0,.416-.176l.336-.336a.352.352,0,0,1,.256-.112.336.336,0,0,1,.24.112q.864.848.864,1.04,0,.08-.192.112l-.1.016a.949.949,0,0,0-.416.128,16.527,16.527,0,0,1-2.336,1.088q-.192.064-.192.176a.473.473,0,0,0,.128.24.83.83,0,0,1,.288.576.79.79,0,0,0,.048.24.2.2,0,0,0,.208.144ZM17.776-12.608q-.224-.256-.16-.3a.156.156,0,0,1,.112-.032.767.767,0,0,1,.224.048,4.623,4.623,0,0,1,1.9,1.1,1.924,1.924,0,0,1,.608,1.28.911.911,0,0,1-.184.584.576.576,0,0,1-.472.232.871.871,0,0,1-.32-.08.524.524,0,0,1-.24-.336,4.479,4.479,0,0,0-.56-1.288A7.385,7.385,0,0,0,17.776-12.608Zm7.152,5.552a.335.335,0,0,0,.248-.088.335.335,0,0,0,.088-.248V-8.544a.335.335,0,0,0-.088-.248.335.335,0,0,0-.248-.088h-1.7a.335.335,0,0,0-.248.088.335.335,0,0,0-.088.248v1.152a.335.335,0,0,0,.088.248.335.335,0,0,0,.248.088Zm3.6,0a.335.335,0,0,0,.248-.088.335.335,0,0,0,.088-.248V-8.544a.335.335,0,0,0-.088-.248.335.335,0,0,0-.248-.088H26.736a.335.335,0,0,0-.248.088.335.335,0,0,0-.088.248v1.152a.335.335,0,0,0,.088.248.335.335,0,0,0,.248.088Zm-10.08.464a.451.451,0,0,0,.4-.224l.16-.24q.048-.064.136-.2a1.267,1.267,0,0,1,.152-.2.184.184,0,0,1,.128-.064A1.7,1.7,0,0,1,20-7.144a5.164,5.164,0,0,1,.7.664.275.275,0,0,1,.064.176.263.263,0,0,1-.144.208l-.24.1a.371.371,0,0,0-.3.368v3.664a.6.6,0,0,0,.16.416,3.4,3.4,0,0,0,1.12.808,4.913,4.913,0,0,0,1.44.352A22.166,22.166,0,0,0,25.024-.3q3.968,0,5.808-.048h.08A.456.456,0,0,1,31.1-.32q.072.032.072.064,0,.048-.08.1L30.9-.048a1.025,1.025,0,0,0-.544.656.348.348,0,0,1-.352.3H25.04a13.246,13.246,0,0,1-2.288-.16A3.949,3.949,0,0,1,21.24.168a3.888,3.888,0,0,1-1.128-1.24.279.279,0,0,0-.24-.16.309.309,0,0,0-.224.128Q18.624.112,18.032.7q-.176.176-.176.224V.96a.426.426,0,0,1-.192.048A.216.216,0,0,1,17.456.88L17.04.08A.4.4,0,0,1,16.992-.1a.3.3,0,0,1,.192-.272l1.5-.816a.442.442,0,0,0,.224-.416V-5.776a.335.335,0,0,0-.088-.248.335.335,0,0,0-.248-.088h-.32a3.639,3.639,0,0,0-.784.128.485.485,0,0,1-.144.016.308.308,0,0,1-.288-.208l-.048-.112a.4.4,0,0,1-.048-.176q0-.224.32-.192.288.032.832.064Zm4.784.016a.335.335,0,0,0-.248.088.335.335,0,0,0-.088.248v1.248a.335.335,0,0,0,.088.248.335.335,0,0,0,.248.088h1.7a.335.335,0,0,0,.248-.088.335.335,0,0,0,.088-.248V-6.24a.335.335,0,0,0-.088-.248.335.335,0,0,0-.248-.088Zm3.5,0a.335.335,0,0,0-.248.088.335.335,0,0,0-.088.248v1.248a.335.335,0,0,0,.088.248.335.335,0,0,0,.248.088h1.792a.335.335,0,0,0,.248-.088.335.335,0,0,0,.088-.248V-6.24a.335.335,0,0,0-.088-.248.335.335,0,0,0-.248-.088ZM45.072-4.4a1.868,1.868,0,0,1,.64.184,3.07,3.07,0,0,1,.768.464.769.769,0,0,1,.336.568.423.423,0,0,1-.176.376.778.778,0,0,1-.448.12,1.784,1.784,0,0,1-.432-.048,16.118,16.118,0,0,0-3.52-.352q-1.04,0-2.192.112a36.033,36.033,0,0,0-3.744.592,1.8,1.8,0,0,0-.48.16,1.9,1.9,0,0,1-.72.176,1.828,1.828,0,0,1-.864-.24A2.5,2.5,0,0,1,33.5-2.88a1.032,1.032,0,0,1-.3-.624.092.092,0,0,1,.032-.064A.092.092,0,0,1,33.3-3.6a.664.664,0,0,1,.232.064q.152.064.216.1a2.276,2.276,0,0,0,.9.176q.32,0,4.352-.448a.328.328,0,0,0,.336-.336q.16-2.16.16-2.736a2.757,2.757,0,0,0-.032-.448,1.163,1.163,0,0,0-.256-.512.412.412,0,0,0-.432-.144l-1.28.224a2.966,2.966,0,0,1-.576.064,1.154,1.154,0,0,1-.576-.144.738.738,0,0,0-.208-.1l-.176-.048a1.3,1.3,0,0,1-.384-.232,1.311,1.311,0,0,1-.272-.312.458.458,0,0,1-.08-.24q0-.112.128-.1a3.161,3.161,0,0,0,.512.08,4.375,4.375,0,0,0,.48.016,13.472,13.472,0,0,0,1.488-.08q.5-.032,2.08-.264a19.525,19.525,0,0,0,2.08-.376,2.234,2.234,0,0,1,.608-.1,1.465,1.465,0,0,1,.592.112,2.439,2.439,0,0,0,.416.112,1.041,1.041,0,0,1,.392.168.712.712,0,0,1,.232.248.669.669,0,0,1,.032.112.237.237,0,0,1-.144.208.754.754,0,0,1-.336.064,6.616,6.616,0,0,0-.968.08q-.536.08-.616.1-.48.016-1.424.112-.24.016-.24.144a.306.306,0,0,0,.16.24q.32.272.32.48a.818.818,0,0,1-.128.3,1.663,1.663,0,0,0-.176.368,21.523,21.523,0,0,0-.288,2.416v.032a.308.308,0,0,0,.088.24.307.307,0,0,0,.248.064q1.6-.144,2.112-.16a7.615,7.615,0,0,0,1.152-.1q.08-.016.56-.144A1.775,1.775,0,0,1,45.072-4.4ZM52.208.784q-.08,0-.08-.064T52.4.512a10.611,10.611,0,0,0,3.264-2.568,7.682,7.682,0,0,0,1.512-3.056A17.566,17.566,0,0,0,57.568-9.1q0-.576-.064-1.5a1.33,1.33,0,0,0-.4-1.04,1.683,1.683,0,0,0-.344-.208q-.152-.064-.216-.1a.115.115,0,0,1-.064-.112q0-.128.264-.208a2.008,2.008,0,0,1,.584-.08,2.954,2.954,0,0,1,.416.032,2.651,2.651,0,0,1,.936.5q.472.376.472.648a.875.875,0,0,1-.112.368q-.064.144-.12.312a1.034,1.034,0,0,0-.056.328q0,.656-.032,1.584A14.891,14.891,0,0,1,58.216-4.4,6.938,6.938,0,0,1,56.3-1.432,11.19,11.19,0,0,1,52.448.736.928.928,0,0,1,52.208.784Zm1.936-5.408q-.224,0-.472-.344a1.345,1.345,0,0,1-.248-.808q0-.1.064-.72a11.216,11.216,0,0,0,.064-1.136,11.852,11.852,0,0,0-.144-2.192,1.013,1.013,0,0,0-.56-.752.942.942,0,0,1-.208-.1.153.153,0,0,1-.08-.12q0-.112.28-.264a1.238,1.238,0,0,1,.6-.152.865.865,0,0,1,.352.064,2.342,2.342,0,0,1,.816.424.679.679,0,0,1,.224.5,1.306,1.306,0,0,1-.032.264q-.032.152-.048.232a12.309,12.309,0,0,0-.064,1.52L54.7-6.944q0,.064.048.736.032.48.032.656a1.2,1.2,0,0,1-.176.64A.528.528,0,0,1,54.144-4.624Zm21.9-7.312a12.5,12.5,0,0,1,1.064.952q.52.52.52.7a.264.264,0,0,1-.112.192,2.663,2.663,0,0,1-.576.3l-.464.224q-.544.32-1.536.84t-1.856.888a.484.484,0,0,0-.3.336l-.136.456q-.088.3-.168.552a20.919,20.919,0,0,1-1.936,3.84A9.025,9.025,0,0,1,67.088.464a.545.545,0,0,1-.24.1.071.071,0,0,1-.08-.08q0-.048.208-.224a10.186,10.186,0,0,0,2.536-2.864A15.816,15.816,0,0,0,71.048-5.88a8.522,8.522,0,0,0,.5-2.184,1.09,1.09,0,0,0-.272-.792,1.6,1.6,0,0,0-.768-.408q-.1-.032-.1-.1,0-.112.3-.184a2.842,2.842,0,0,1,.656-.072,2.334,2.334,0,0,1,.9.176,1.911,1.911,0,0,1,.672.44.751.751,0,0,1,.248.488.931.931,0,0,0,.5-.192,7.854,7.854,0,0,0,1.616-1.648.961.961,0,0,0,.208-.48q0-.272-.528-.272a11.98,11.98,0,0,0-1.608.216q-1.224.216-2.088.408-.608.144-1.424.4-.736.224-1.144.328a2.853,2.853,0,0,1-.68.1A1.54,1.54,0,0,1,67.192-10a2.119,2.119,0,0,1-.7-.784.887.887,0,0,1-.064-.288q0-.192.112-.192a.661.661,0,0,1,.208.08,3.045,3.045,0,0,0,.288.128,3.63,3.63,0,0,0,.992.112,7.527,7.527,0,0,0,1.024-.064q.8-.08,2.9-.384t2.584-.432q.08-.032.5-.168a2.317,2.317,0,0,1,.632-.136A.706.706,0,0,1,76.048-11.936ZM88-4.7a1.323,1.323,0,0,1-.968-.408,1.323,1.323,0,0,1-.408-.968,1.341,1.341,0,0,1,.408-.984A1.323,1.323,0,0,1,88-7.472a1.341,1.341,0,0,1,.984.408,1.341,1.341,0,0,1,.408.984,1.323,1.323,0,0,1-.408.968A1.341,1.341,0,0,1,88-4.7Zm11.888-.608q0-.288-.16-.288-.128,0-.224.192a13.426,13.426,0,0,1-2.336,3.072q-.24.224-.336.128a.109.109,0,0,1-.032-.08.539.539,0,0,1,.128-.272,13.965,13.965,0,0,0,1.56-2.872,21.228,21.228,0,0,0,1.064-3.416l.016-.1a.244.244,0,0,0-.088-.2.355.355,0,0,0-.232-.072H98.8a6.989,6.989,0,0,0-1.216.16l-.1.016a.359.359,0,0,1-.336-.224l-.064-.112a.4.4,0,0,1-.048-.176.192.192,0,0,1,.088-.16.322.322,0,0,1,.232-.048q.528.048,1.568.08h.624a.335.335,0,0,0,.248-.088.335.335,0,0,0,.088-.248v-.224a25.523,25.523,0,0,0-.144-2.864v-.064a.226.226,0,0,1,.256-.256.416.416,0,0,1,.128.016,9.528,9.528,0,0,1,1.072.36q.3.136.3.232,0,.08-.144.16l-.064.048a.486.486,0,0,0-.208.4v2.192a.335.335,0,0,0,.088.248.335.335,0,0,0,.248.088h.176a.46.46,0,0,0,.4-.208l.192-.288q.064-.08.168-.224t.168-.216a.177.177,0,0,1,.128-.072q.112,0,.552.384a4.849,4.849,0,0,1,.648.656.238.238,0,0,1,.064.176.213.213,0,0,1-.08.176.562.562,0,0,1-.3.08h-2.112a.335.335,0,0,0-.248.088.335.335,0,0,0-.088.248v.848a.42.42,0,0,0,.272.4,4.442,4.442,0,0,1,1.7,1.1,1.866,1.866,0,0,1,.536,1.184.839.839,0,0,1-.168.544.538.538,0,0,1-.44.208.871.871,0,0,1-.32-.08.569.569,0,0,1-.256-.352,6.878,6.878,0,0,0-.912-1.824q-.112-.16-.224-.16a.163.163,0,0,0-.136.08.386.386,0,0,0-.056.224v3.712q.032,1.728.112,3.536v.1a.415.415,0,0,1-.128.3,1.5,1.5,0,0,1-.44.24,1.474,1.474,0,0,1-.5.1.459.459,0,0,1-.3-.1.281.281,0,0,1-.12-.224q.064-.944.112-1.832T99.888-3.2Zm4.88-4.656a25.523,25.523,0,0,0-.144-2.864V-12.9a.226.226,0,0,1,.256-.256.416.416,0,0,1,.128.016,8.491,8.491,0,0,1,1.112.368q.312.144.312.24,0,.08-.128.16l-.048.032a.46.46,0,0,0-.208.4V-.912a.528.528,0,0,0,.144.424.959.959,0,0,0,.576.12h1.36a10.662,10.662,0,0,0,1.3-.048.532.532,0,0,0,.208-.064.413.413,0,0,0,.144-.176,11.05,11.05,0,0,0,.544-2.336q.064-.3.16-.3t.1.336L110.64-.8a.446.446,0,0,0,.24.4.63.63,0,0,1,.2.192.47.47,0,0,1,.056.24A.515.515,0,0,1,110.88.5a2.254,2.254,0,0,1-.9.224q-.648.064-1.912.064h-1.552a2.252,2.252,0,0,1-1.376-.3,1.4,1.4,0,0,1-.368-1.12ZM116.7-10.64a.465.465,0,0,0,.416-.224l.08-.144.1-.152a1.186,1.186,0,0,1,.128-.16.168.168,0,0,1,.12-.056,1.265,1.265,0,0,1,.488.3,3.719,3.719,0,0,1,.584.552.346.346,0,0,1,.08.176q0,.1-.144.208l-.16.08a.367.367,0,0,0-.288.368v6.08a2.282,2.282,0,0,1-.152.944.892.892,0,0,1-.616.448.275.275,0,0,1-.112.016q-.224,0-.272-.32l-.048-.24A.789.789,0,0,0,116.7-3.1q-.08-.048-.32-.176-.112-.064-.112-.128,0-.1.24-.1l.432.016a.156.156,0,0,0,.136-.056.324.324,0,0,0,.04-.184V-9.856a.335.335,0,0,0-.088-.248.335.335,0,0,0-.248-.088h-.24a.335.335,0,0,0-.248.088.335.335,0,0,0-.088.248v6.912q.032,1.744.112,3.52V.64a.372.372,0,0,1-.176.336,1.337,1.337,0,0,1-.816.288.306.306,0,0,1-.216-.1.306.306,0,0,1-.1-.216q.064-.944.112-1.832t.064-2.328v-6.64a.335.335,0,0,0-.088-.248.335.335,0,0,0-.248-.088H114.7a.335.335,0,0,0-.248.088.335.335,0,0,0-.088.248v3.808q.032,1.744.112,3.52v.08a.428.428,0,0,1-.144.336,1.337,1.337,0,0,1-.816.288.334.334,0,0,1-.232-.1.3.3,0,0,1-.1-.224q.064-.848.1-1.68t.056-2.1V-7.968a24.6,24.6,0,0,0-.144-2.8v-.064q0-.24.208-.24a.356.356,0,0,1,.16.032l.672.3a.985.985,0,0,0,.416.1h.112a.3.3,0,0,0,.336-.336q-.032-1.28-.112-2.064V-13.1a.226.226,0,0,1,.256-.256.416.416,0,0,1,.128.016q1.28.368,1.28.576,0,.08-.128.16l-.048.032a.451.451,0,0,0-.224.4v1.2a.335.335,0,0,0,.088.248.335.335,0,0,0,.248.088Zm7.776-2.016a.451.451,0,0,0,.4-.224l.112-.16q.048-.064.128-.176a1.385,1.385,0,0,1,.136-.168.168.168,0,0,1,.12-.056,1.223,1.223,0,0,1,.48.3,3.666,3.666,0,0,1,.56.536.346.346,0,0,1,.08.176.237.237,0,0,1-.144.208l-.1.048a.367.367,0,0,0-.288.368v1.1q.048,1.616.08,2.432v.08a.336.336,0,0,1-.176.32,1.714,1.714,0,0,1-.88.224.176.176,0,0,1-.152-.08.355.355,0,0,1-.056-.208q0-.272-.336-.272H120.56a.335.335,0,0,0-.248.088.335.335,0,0,0-.088.248v.064q0,.1-.28.216a1.678,1.678,0,0,1-.664.12.258.258,0,0,1-.208-.1.339.339,0,0,1-.08-.224q.064-.624.1-1.6v-.96a23.3,23.3,0,0,0-.112-2.48V-12.9q0-.256.208-.256a.356.356,0,0,1,.16.032l.88.384a.957.957,0,0,0,.4.08Zm-.032,1.968a.335.335,0,0,0,.248-.088.335.335,0,0,0,.088-.248v-.816a.335.335,0,0,0-.088-.248.335.335,0,0,0-.248-.088H120.56a.335.335,0,0,0-.248.088.335.335,0,0,0-.088.248v.816a.335.335,0,0,0,.088.248.335.335,0,0,0,.248.088Zm-3.888.448a.335.335,0,0,0-.248.088.335.335,0,0,0-.088.248v.9a.335.335,0,0,0,.088.248.335.335,0,0,0,.248.088h3.888a.335.335,0,0,0,.248-.088.335.335,0,0,0,.088-.248v-.9a.335.335,0,0,0-.088-.248.335.335,0,0,0-.248-.088ZM124.9-4.32a.451.451,0,0,0,.4-.224l.16-.256q.064-.1.152-.232a1.266,1.266,0,0,1,.152-.2.184.184,0,0,1,.128-.064,1.522,1.522,0,0,1,.544.36,3.572,3.572,0,0,1,.624.632.275.275,0,0,1,.064.176.242.242,0,0,1-.1.192.443.443,0,0,1-.272.064h-2.32a.335.335,0,0,0-.248.088.335.335,0,0,0-.088.248V-.32a.254.254,0,0,0,.064.208.551.551,0,0,0,.288.048h.736l.72-.016a.281.281,0,0,0,.12-.048.551.551,0,0,0,.1-.144,3.292,3.292,0,0,0,.128-.48q.08-.368.128-.544l.144-.592q.064-.3.16-.3.032,0,.064.1a.769.769,0,0,1,.032.24l.032,1.376a.4.4,0,0,0,.048.208,1.206,1.206,0,0,0,.176.208.487.487,0,0,1,.144.384.583.583,0,0,1-.44.544,5.01,5.01,0,0,1-1.624.176h-1.008a1.356,1.356,0,0,1-.944-.232,1.21,1.21,0,0,1-.224-.84v-3.5a.335.335,0,0,0-.088-.248.335.335,0,0,0-.248-.088h-.592a.317.317,0,0,0-.352.32,5.857,5.857,0,0,1-1.208,3,6.086,6.086,0,0,1-2.84,1.736.79.79,0,0,1-.24.048q-.1,0-.112-.064V1.12q0-.1.24-.224a5.2,5.2,0,0,0,2.064-1.784,6.106,6.106,0,0,0,.8-2.632v-.064q0-.288-.32-.288h-.336a4.707,4.707,0,0,0-.864.128.508.508,0,0,1-.144.032.308.308,0,0,1-.288-.208l-.048-.1a.426.426,0,0,1-.048-.192.176.176,0,0,1,.08-.152.322.322,0,0,1,.224-.04q.544.048,1.648.08h1.184a.356.356,0,0,0,.248-.08.287.287,0,0,0,.088-.224,25.523,25.523,0,0,0-.144-2.864v-.064q0-.256.224-.256a.962.962,0,0,1,.16.032,8.454,8.454,0,0,1,.984.336q.28.128.28.224,0,.048-.128.144l-.032.016a.451.451,0,0,0-.224.4v2a.335.335,0,0,0,.088.248.335.335,0,0,0,.248.088Zm-.368-2.864q.048-.256.256-.256a.4.4,0,0,1,.176.048l.416.224a3.465,3.465,0,0,0,.384.176q.5.176.5.3,0,.1-.176.144l-.064.016a.676.676,0,0,0-.368.24A9.812,9.812,0,0,1,124.064-4.9q-.24.16-.32.08a.13.13,0,0,1-.032-.1.541.541,0,0,1,.08-.256A10.155,10.155,0,0,0,124.528-7.184Zm-5.456.288q-.192-.288-.112-.336a.093.093,0,0,1,.064-.016.643.643,0,0,1,.256.064,3.454,3.454,0,0,1,1.288.872,1.488,1.488,0,0,1,.408.936.726.726,0,0,1-.168.5.523.523,0,0,1-.408.192.532.532,0,0,1-.288-.08.459.459,0,0,1-.24-.352A5.786,5.786,0,0,0,119.072-6.9Zm14.688-.992a.46.46,0,0,0,.4-.208L134.3-8.3l.136-.184a1.6,1.6,0,0,1,.144-.176.168.168,0,0,1,.12-.056q.112,0,.472.3a3.352,3.352,0,0,1,.536.544.352.352,0,0,1,.08.192.229.229,0,0,1-.1.176.484.484,0,0,1-.288.08h-1.9a.335.335,0,0,0-.248.088.335.335,0,0,0-.088.248v1.1a.335.335,0,0,0,.088.248.335.335,0,0,0,.248.088h.56a.488.488,0,0,0,.416-.192l.112-.128q.048-.048.168-.192t.216-.144a1.163,1.163,0,0,1,.464.272,3.215,3.215,0,0,1,.544.512.275.275,0,0,1,.064.176.188.188,0,0,1-.144.192l-.112.048a.364.364,0,0,0-.32.368,19.881,19.881,0,0,1-.424,3.408A3.263,3.263,0,0,1,134.272.3a1.962,1.962,0,0,1-1.1.448h-.048a.276.276,0,0,1-.216-.08.5.5,0,0,1-.1-.24.621.621,0,0,0-.176-.416,1.5,1.5,0,0,0-.656-.32q-.3-.064-.3-.192t.352-.1q.8.064,1.072.064a1.149,1.149,0,0,0,.3-.032.481.481,0,0,0,.208-.128,2.65,2.65,0,0,0,.488-1.288,22.849,22.849,0,0,0,.344-2.856v-.032A.3.3,0,0,0,134.1-5.2H131.12a.335.335,0,0,0-.248.088.335.335,0,0,0-.088.248v.192q0,.08-.264.224a1.267,1.267,0,0,1-.616.144.307.307,0,0,1-.224-.1.307.307,0,0,1-.1-.224q.112-1.472.144-3.216V-9.616a24.767,24.767,0,0,0-.144-2.816V-12.5q0-.24.208-.24a.356.356,0,0,1,.16.032l.816.352a.957.957,0,0,0,.4.08h2.688a.46.46,0,0,0,.4-.208l.176-.24.152-.2a2.126,2.126,0,0,1,.168-.2.184.184,0,0,1,.128-.064,1.449,1.449,0,0,1,.528.336,4.294,4.294,0,0,1,.624.592.275.275,0,0,1,.064.176.242.242,0,0,1-.1.192.443.443,0,0,1-.272.064H133.5a.335.335,0,0,0-.248.088.335.335,0,0,0-.088.248v1.056a.335.335,0,0,0,.088.248.335.335,0,0,0,.248.088h.32a.46.46,0,0,0,.4-.208l.128-.192q.032-.048.112-.176a.846.846,0,0,1,.144-.184.2.2,0,0,1,.128-.056q.16,0,.624.424t.464.6q-.016.256-.384.256H133.5a.335.335,0,0,0-.248.088.335.335,0,0,0-.088.248v1.072a.335.335,0,0,0,.088.248.335.335,0,0,0,.248.088Zm7.072-4.336a.46.46,0,0,0,.4-.208l.128-.192.136-.184a1.6,1.6,0,0,1,.144-.176.168.168,0,0,1,.12-.056,1.449,1.449,0,0,1,.528.336,4.5,4.5,0,0,1,.64.608.275.275,0,0,1,.064.176.266.266,0,0,1-.128.208.552.552,0,0,1-.16.08.393.393,0,0,0-.288.384v1.5q.032,1.68.112,3.3v.064a.372.372,0,0,1-.176.336,1.9,1.9,0,0,1-.456.216,1.552,1.552,0,0,1-.488.088.208.208,0,0,1-.192-.112.4.4,0,0,1-.048-.176.875.875,0,0,1,.032-.192l.032-.16a.335.335,0,0,0-.088-.248.335.335,0,0,0-.248-.088h-1.472a.3.3,0,0,0-.256.1.313.313,0,0,0-.048.264,12.62,12.62,0,0,0,1.52,3.712,6.934,6.934,0,0,0,2.4,2.416q.24.112.24.208a.136.136,0,0,1-.072.112,1,1,0,0,1-.2.1,1.318,1.318,0,0,0-.624.7q-.1.224-.24.224a.389.389,0,0,1-.192-.1A7.53,7.53,0,0,1,139.9-1.912,18.679,18.679,0,0,1,138.784-6.4a.336.336,0,0,0-.368-.32h-.192a.3.3,0,0,0-.336.336,16.725,16.725,0,0,1-.64,4.2,7.315,7.315,0,0,1-2.032,3.272.438.438,0,0,1-.256.16q-.128,0-.128-.112a.939.939,0,0,1,.112-.288,9.371,9.371,0,0,0,1.448-3.624,26.7,26.7,0,0,0,.36-4.664v-2.688a20.1,20.1,0,0,0-.112-2.288v-.064q0-.24.208-.24a.356.356,0,0,1,.16.032l.912.384a.957.957,0,0,0,.4.08ZM131.808-10.1a.335.335,0,0,0,.248-.088.335.335,0,0,0,.088-.248v-1.056a.335.335,0,0,0-.088-.248.335.335,0,0,0-.248-.088h-.688a.335.335,0,0,0-.248.088.335.335,0,0,0-.088.248v1.056a.335.335,0,0,0,.088.248.335.335,0,0,0,.248.088Zm6.416-1.664a.335.335,0,0,0-.248.088.335.335,0,0,0-.088.248v3.9a.335.335,0,0,0,.088.248.335.335,0,0,0,.248.088H140.9a.335.335,0,0,0,.248-.088.335.335,0,0,0,.088-.248v-3.9a.335.335,0,0,0-.088-.248.335.335,0,0,0-.248-.088Zm-7.44,3.536a.335.335,0,0,0,.088.248.335.335,0,0,0,.248.088h.688a.335.335,0,0,0,.248-.088.335.335,0,0,0,.088-.248V-9.3a.335.335,0,0,0-.088-.248.335.335,0,0,0-.248-.088h-.688a.335.335,0,0,0-.248.088.335.335,0,0,0-.088.248Zm1.36,1.136a.335.335,0,0,0-.088-.248.335.335,0,0,0-.248-.088h-.688a.335.335,0,0,0-.248.088.335.335,0,0,0-.088.248v1.1a.335.335,0,0,0,.088.248.335.335,0,0,0,.248.088h.688a.335.335,0,0,0,.248-.088.335.335,0,0,0,.088-.248Zm.5,2.9a.5.5,0,0,1-.16-.272q0-.08.112-.08a.54.54,0,0,1,.24.064,2.35,2.35,0,0,1,.976.616,1.1,1.1,0,0,1,.3.7.588.588,0,0,1-.12.376.364.364,0,0,1-.3.152.223.223,0,0,1-.1-.016.273.273,0,0,1-.16-.1.941.941,0,0,1-.1-.216A3.355,3.355,0,0,0,132.64-4.192Zm-1.04.368q-.144-.32-.048-.368l.048-.016a.45.45,0,0,1,.256.144,3.345,3.345,0,0,1,.832.96,1.9,1.9,0,0,1,.256.88.849.849,0,0,1-.12.472.36.36,0,0,1-.312.184.526.526,0,0,1-.16-.032q-.176-.064-.208-.368A5.3,5.3,0,0,0,131.6-3.824Zm-1.024.24a.759.759,0,0,1-.016-.176q0-.16.064-.176h.016q.112,0,.256.208a3.363,3.363,0,0,1,.672,1.9,1.552,1.552,0,0,1-.16.744q-.16.3-.384.3a.426.426,0,0,1-.192-.048.4.4,0,0,1-.144-.416,5.449,5.449,0,0,0,.048-.7A10.183,10.183,0,0,0,130.576-3.584Zm-.992.112q.032-.336.128-.336.048,0,.1.08a.482.482,0,0,1,.072.224,7.592,7.592,0,0,1,.176,1.568,2.615,2.615,0,0,1-.28,1.36q-.28.448-.616.448a.376.376,0,0,1-.288-.12.462.462,0,0,1-.112-.328.872.872,0,0,1,.144-.48,2.685,2.685,0,0,0,.464-.976A6.228,6.228,0,0,0,129.584-3.472ZM156.5-10.416a.451.451,0,0,0,.4-.224l.224-.336q.08-.112.184-.264a1.641,1.641,0,0,1,.176-.224.2.2,0,0,1,.136-.072,1.877,1.877,0,0,1,.648.432,5.13,5.13,0,0,1,.744.72.346.346,0,0,1,.08.176.245.245,0,0,1-.08.176.484.484,0,0,1-.288.08H147.6a16.576,16.576,0,0,0-2.112.176h-.08a.36.36,0,0,1-.336-.208l-.064-.128a.891.891,0,0,1-.064-.192.176.176,0,0,1,.08-.152.322.322,0,0,1,.224-.04q.544.048,1.648.08h1.632l1.216-.032-.08-.016a.33.33,0,0,1-.16-.128,1.164,1.164,0,0,1-.1-.224,4.246,4.246,0,0,0-.5-1.12,8.8,8.8,0,0,0-.784-1.088.766.766,0,0,1-.176-.288q0-.064.128-.064a.623.623,0,0,1,.224.032,4.023,4.023,0,0,1,1.768.968,1.748,1.748,0,0,1,.568,1.176.926.926,0,0,1-.144.512.467.467,0,0,0-.1.208q0,.064.208.064h2.16q.272,0,.336-.112.336-.64.64-1.384a9.017,9.017,0,0,0,.448-1.368q.048-.256.272-.256a.962.962,0,0,1,.16.032q1.52.464,1.52.656,0,.064-.144.128l-.08.032a1.071,1.071,0,0,0-.352.256,17.214,17.214,0,0,1-1.584,1.6.311.311,0,0,0-.144.24.145.145,0,0,0,.08.128.4.4,0,0,0,.208.048Zm.016,4.656a25.525,25.525,0,0,0-.144-2.864v-.064q0-.256.24-.256a.416.416,0,0,1,.128.016q1.376.368,1.376.576,0,.064-.144.144l-.048.032a.428.428,0,0,0-.224.4V-.384a2.53,2.53,0,0,1-.1.8,1.006,1.006,0,0,1-.416.512,2.371,2.371,0,0,1-.936.3h-.08a.322.322,0,0,1-.32-.272.994.994,0,0,0-.272-.528,2.333,2.333,0,0,0-1.024-.384q-.32-.08-.32-.192,0-.08.24-.08.32,0,1.056.064l.64.032a.405.405,0,0,0,.272-.072.322.322,0,0,0,.08-.248ZM147.76-2.9a.335.335,0,0,0-.248.088.335.335,0,0,0-.088.248v.912q.048,1.44.08,2.176v.1a.415.415,0,0,1-.128.3,1.432,1.432,0,0,1-.408.248,1.331,1.331,0,0,1-.52.1.382.382,0,0,1-.256-.1A.288.288,0,0,1,146.08.96q.064-.944.112-1.832t.064-2.328V-5.664a25.037,25.037,0,0,0-.144-2.816v-.064q0-.24.208-.24a.356.356,0,0,1,.16.032l.832.368a.957.957,0,0,0,.4.08h2a.5.5,0,0,0,.416-.208l.112-.144q.048-.064.168-.216t.216-.152a1.572,1.572,0,0,1,.544.312,4.727,4.727,0,0,1,.672.568.275.275,0,0,1,.064.176.263.263,0,0,1-.144.208.552.552,0,0,1-.16.08.393.393,0,0,0-.288.384V-.288A1.938,1.938,0,0,1,151.08.768a1.413,1.413,0,0,1-.984.48h-.064q-.272,0-.32-.3a.924.924,0,0,0-.208-.5A1.2,1.2,0,0,0,148.832.1q-.3-.08-.3-.192t.352-.08q.672.064.976.064a.262.262,0,0,0,.216-.072.38.38,0,0,0,.056-.232V-2.56a.335.335,0,0,0-.088-.248.335.335,0,0,0-.248-.088Zm5.488-2.464a25.525,25.525,0,0,0-.144-2.864v-.064q0-.256.224-.256a.962.962,0,0,1,.16.032q1.328.384,1.328.576,0,.064-.144.144l-.048.032a.451.451,0,0,0-.224.4v1.9q.032,1.744.112,3.52v.08a.344.344,0,0,1-.16.32,1.273,1.273,0,0,1-.408.208,1.584,1.584,0,0,1-.488.08.3.3,0,0,1-.232-.1.321.321,0,0,1-.088-.224q.08-.8.112-2.112Zm-3.456-.528a.335.335,0,0,0,.248-.088.335.335,0,0,0,.088-.248V-7.488a.335.335,0,0,0-.088-.248.335.335,0,0,0-.248-.088H147.76a.335.335,0,0,0-.248.088.335.335,0,0,0-.088.248v1.264a.335.335,0,0,0,.088.248.335.335,0,0,0,.248.088Zm-2.032.448a.335.335,0,0,0-.248.088.335.335,0,0,0-.088.248V-3.7a.335.335,0,0,0,.088.248.335.335,0,0,0,.248.088h2.032a.335.335,0,0,0,.248-.088.335.335,0,0,0,.088-.248V-5.1a.335.335,0,0,0-.088-.248.335.335,0,0,0-.248-.088ZM173.072-4.4a1.868,1.868,0,0,1,.64.184,3.07,3.07,0,0,1,.768.464.769.769,0,0,1,.336.568.423.423,0,0,1-.176.376.778.778,0,0,1-.448.12,1.785,1.785,0,0,1-.432-.048,16.117,16.117,0,0,0-3.52-.352q-1.04,0-2.192.112a36.032,36.032,0,0,0-3.744.592,1.8,1.8,0,0,0-.48.16,1.9,1.9,0,0,1-.72.176,1.828,1.828,0,0,1-.864-.24,2.5,2.5,0,0,1-.744-.592,1.032,1.032,0,0,1-.3-.624.092.092,0,0,1,.032-.064A.092.092,0,0,1,161.3-3.6a.664.664,0,0,1,.232.064q.152.064.216.1a2.276,2.276,0,0,0,.9.176q.32,0,4.352-.448a.328.328,0,0,0,.336-.336q.16-2.16.16-2.736a2.755,2.755,0,0,0-.032-.448,1.163,1.163,0,0,0-.256-.512.412.412,0,0,0-.432-.144l-1.28.224a2.966,2.966,0,0,1-.576.064,1.154,1.154,0,0,1-.576-.144.738.738,0,0,0-.208-.1l-.176-.048a1.3,1.3,0,0,1-.384-.232,1.311,1.311,0,0,1-.272-.312.458.458,0,0,1-.08-.24q0-.112.128-.1a3.161,3.161,0,0,0,.512.08,4.375,4.375,0,0,0,.48.016,13.472,13.472,0,0,0,1.488-.08q.5-.032,2.08-.264a19.524,19.524,0,0,0,2.08-.376,2.235,2.235,0,0,1,.608-.1,1.465,1.465,0,0,1,.592.112,2.439,2.439,0,0,0,.416.112,1.041,1.041,0,0,1,.392.168.712.712,0,0,1,.232.248.669.669,0,0,1,.032.112.237.237,0,0,1-.144.208.754.754,0,0,1-.336.064,6.616,6.616,0,0,0-.968.08q-.536.08-.616.1-.48.016-1.424.112-.24.016-.24.144a.306.306,0,0,0,.16.24q.32.272.32.48a.818.818,0,0,1-.128.3,1.664,1.664,0,0,0-.176.368,21.526,21.526,0,0,0-.288,2.416v.032a.308.308,0,0,0,.088.24.307.307,0,0,0,.248.064q1.6-.144,2.112-.16a7.615,7.615,0,0,0,1.152-.1q.08-.016.56-.144A1.775,1.775,0,0,1,173.072-4.4ZM180.208.784q-.08,0-.08-.064T180.4.512a10.611,10.611,0,0,0,3.264-2.568,7.683,7.683,0,0,0,1.512-3.056,17.566,17.566,0,0,0,.392-3.992q0-.576-.064-1.5a1.33,1.33,0,0,0-.4-1.04,1.683,1.683,0,0,0-.344-.208q-.152-.064-.216-.1a.115.115,0,0,1-.064-.112q0-.128.264-.208a2.008,2.008,0,0,1,.584-.08,2.954,2.954,0,0,1,.416.032,2.651,2.651,0,0,1,.936.5q.472.376.472.648a.875.875,0,0,1-.112.368q-.064.144-.12.312a1.034,1.034,0,0,0-.056.328q0,.656-.032,1.584a14.891,14.891,0,0,1-.616,4.176,6.938,6.938,0,0,1-1.92,2.968A11.19,11.19,0,0,1,180.448.736.928.928,0,0,1,180.208.784Zm1.936-5.408q-.224,0-.472-.344a1.345,1.345,0,0,1-.248-.808q0-.1.064-.72a11.217,11.217,0,0,0,.064-1.136,11.853,11.853,0,0,0-.144-2.192,1.013,1.013,0,0,0-.56-.752.941.941,0,0,1-.208-.1.153.153,0,0,1-.08-.12q0-.112.28-.264a1.238,1.238,0,0,1,.6-.152.865.865,0,0,1,.352.064,2.342,2.342,0,0,1,.816.424.679.679,0,0,1,.224.5,1.307,1.307,0,0,1-.032.264q-.032.152-.048.232a12.31,12.31,0,0,0-.064,1.52l.016,1.264q0,.064.048.736.032.48.032.656a1.2,1.2,0,0,1-.176.64A.528.528,0,0,1,182.144-4.624Zm21.9-7.312a12.5,12.5,0,0,1,1.064.952q.52.52.52.7a.264.264,0,0,1-.112.192,2.663,2.663,0,0,1-.576.3l-.464.224q-.544.32-1.536.84t-1.856.888a.484.484,0,0,0-.3.336l-.136.456q-.088.3-.168.552a20.92,20.92,0,0,1-1.936,3.84,9.025,9.025,0,0,1-3.456,3.12.545.545,0,0,1-.24.1.071.071,0,0,1-.08-.08q0-.048.208-.224a10.186,10.186,0,0,0,2.536-2.864,15.816,15.816,0,0,0,1.536-3.272,8.522,8.522,0,0,0,.5-2.184,1.09,1.09,0,0,0-.272-.792,1.6,1.6,0,0,0-.768-.408q-.1-.032-.1-.1,0-.112.3-.184a2.842,2.842,0,0,1,.656-.072,2.334,2.334,0,0,1,.9.176,1.911,1.911,0,0,1,.672.44.751.751,0,0,1,.248.488.931.931,0,0,0,.5-.192,7.854,7.854,0,0,0,1.616-1.648.961.961,0,0,0,.208-.48q0-.272-.528-.272a11.98,11.98,0,0,0-1.608.216q-1.224.216-2.088.408-.608.144-1.424.4-.736.224-1.144.328a2.853,2.853,0,0,1-.68.1,1.54,1.54,0,0,1-.856-.352,2.119,2.119,0,0,1-.7-.784.887.887,0,0,1-.064-.288q0-.192.112-.192a.661.661,0,0,1,.208.08,3.047,3.047,0,0,0,.288.128,3.63,3.63,0,0,0,.992.112,7.528,7.528,0,0,0,1.024-.064q.8-.08,2.9-.384t2.584-.432q.08-.032.5-.168a2.317,2.317,0,0,1,.632-.136A.706.706,0,0,1,204.048-11.936ZM216-4.7a1.323,1.323,0,0,1-.968-.408,1.323,1.323,0,0,1-.408-.968,1.341,1.341,0,0,1,.408-.984A1.323,1.323,0,0,1,216-7.472a1.341,1.341,0,0,1,.984.408,1.341,1.341,0,0,1,.408.984,1.323,1.323,0,0,1-.408.968A1.341,1.341,0,0,1,216-4.7Zm20.544-6.608a.451.451,0,0,0,.4-.224l.208-.32q.048-.064.16-.224a2.644,2.644,0,0,1,.184-.24.2.2,0,0,1,.136-.08q.128,0,.616.424a4.626,4.626,0,0,1,.7.712.346.346,0,0,1,.08.176.245.245,0,0,1-.08.176.532.532,0,0,1-.288.08h-3.568a.335.335,0,0,0-.248.088.335.335,0,0,0-.088.248v.192l.048.752a.909.909,0,0,1-.024.232.382.382,0,0,1-.1.168,1.271,1.271,0,0,1-.4.192,2.232,2.232,0,0,1-.544.1.236.236,0,0,1-.2-.1.363.363,0,0,1-.072-.224q.048-.336.064-.672a2.654,2.654,0,0,1,.016-.32v-.32a.335.335,0,0,0-.088-.248.335.335,0,0,0-.248-.088h-2.528a.335.335,0,0,0-.248.088.335.335,0,0,0-.088.248v.224l.048.8a.909.909,0,0,1-.024.232.382.382,0,0,1-.1.168,1.166,1.166,0,0,1-.408.184,1.971,1.971,0,0,1-.52.072.253.253,0,0,1-.216-.1.363.363,0,0,1-.072-.224q.048-.352.064-.688a2.823,2.823,0,0,1,.016-.336V-10.5a.335.335,0,0,0-.088-.248.335.335,0,0,0-.248-.088h-1.2a17.235,17.235,0,0,0-2.112.176h-.1a.329.329,0,0,1-.32-.208l-.064-.144a.426.426,0,0,1-.048-.192q0-.224.3-.192.544.048,1.664.08h1.872a.3.3,0,0,0,.336-.336,13.913,13.913,0,0,0-.08-1.472v-.032q0-.288.256-.288a.416.416,0,0,1,.128.016q1.312.368,1.312.576,0,.064-.128.144l-.048.032a.451.451,0,0,0-.224.4v.624a.335.335,0,0,0,.088.248.335.335,0,0,0,.248.088H233.2a.3.3,0,0,0,.336-.336,13.913,13.913,0,0,0-.08-1.472v-.032q0-.288.256-.288a.416.416,0,0,1,.128.016q1.312.368,1.312.576,0,.064-.128.144l-.048.032a.451.451,0,0,0-.224.4v.624a.335.335,0,0,0,.088.248.335.335,0,0,0,.248.088ZM228.384-.1q-.336,0-.336.32a3.085,3.085,0,0,1,.016.336L228.08.7a.37.37,0,0,1-.112.272,1.107,1.107,0,0,1-.4.24,1.492,1.492,0,0,1-.528.1.382.382,0,0,1-.256-.1.288.288,0,0,1-.112-.224q.064-.9.1-1.776t.056-2.224V-5.184A25.037,25.037,0,0,0,226.688-8v-.064q0-.24.208-.24a.356.356,0,0,1,.16.032l.912.4a.985.985,0,0,0,.416.1h7.1a.475.475,0,0,0,.416-.208l.128-.176q.048-.064.136-.176a1.189,1.189,0,0,1,.144-.16.181.181,0,0,1,.12-.048,1.56,1.56,0,0,1,.544.32,3.735,3.735,0,0,1,.656.592.275.275,0,0,1,.064.176.263.263,0,0,1-.144.208.627.627,0,0,1-.144.064.41.41,0,0,0-.272.384v3.712q.032,1.744.112,3.52V.5a.372.372,0,0,1-.176.336,2.015,2.015,0,0,1-.48.224,1.644,1.644,0,0,1-.512.1h-.064q-.192-.048-.192-.32a.875.875,0,0,0,.032-.192l.032-.32V.24a.335.335,0,0,0-.088-.248.335.335,0,0,0-.248-.088Zm2.624-4.224a.335.335,0,0,0,.248-.088.335.335,0,0,0,.088-.248v-2.32a.335.335,0,0,0-.088-.248.335.335,0,0,0-.248-.088h-2.624a.335.335,0,0,0-.248.088.335.335,0,0,0-.088.248v2.32a.335.335,0,0,0,.088.248.335.335,0,0,0,.248.088Zm4.544,0a.335.335,0,0,0,.248-.088.335.335,0,0,0,.088-.248v-2.32a.335.335,0,0,0-.088-.248.335.335,0,0,0-.248-.088H232.9a.335.335,0,0,0-.248.088.335.335,0,0,0-.088.248v2.32a.335.335,0,0,0,.088.248.335.335,0,0,0,.248.088Zm-4.208.8a.335.335,0,0,0-.088-.248.335.335,0,0,0-.248-.088h-2.624a.335.335,0,0,0-.248.088.335.335,0,0,0-.088.248V-.9a.335.335,0,0,0,.088.248.335.335,0,0,0,.248.088h2.624a.335.335,0,0,0,.248-.088.335.335,0,0,0,.088-.248Zm1.552-.336a.335.335,0,0,0-.248.088.335.335,0,0,0-.088.248V-.9a.335.335,0,0,0,.088.248.335.335,0,0,0,.248.088h2.656a.335.335,0,0,0,.248-.088.335.335,0,0,0,.088-.248V-3.52a.335.335,0,0,0-.088-.248.335.335,0,0,0-.248-.088ZM252.64-9.728a.475.475,0,0,0,.416-.208l.112-.16q.032-.048.112-.16a1,1,0,0,1,.144-.168.2.2,0,0,1,.128-.056,1.33,1.33,0,0,1,.5.32,4.219,4.219,0,0,1,.6.576.217.217,0,0,1,.064.16.271.271,0,0,1-.144.224l-.128.048a.41.41,0,0,0-.272.384v1.3q.048,1.92.1,2.8v.064a.387.387,0,0,1-.176.352,3.02,3.02,0,0,1-.448.176,1.5,1.5,0,0,1-.432.08q-.176,0-.176-.336v-.048a.335.335,0,0,0-.088-.248.335.335,0,0,0-.248-.088h-4.336a.335.335,0,0,0-.248.088.335.335,0,0,0-.088.248v.144q0,.1-.312.224a1.652,1.652,0,0,1-.632.128.221.221,0,0,1-.184-.1.363.363,0,0,1-.072-.224q.064-.7.1-1.808V-7.088a24.606,24.606,0,0,0-.144-2.8v-.064q0-.24.208-.24a.356.356,0,0,1,.16.032l.768.336a1.062,1.062,0,0,0,.416.1H249.6a.335.335,0,0,0,.248-.088.335.335,0,0,0,.088-.248v-.7a.335.335,0,0,0-.088-.248.335.335,0,0,0-.248-.088h-.848a14.419,14.419,0,0,0-1.92.176h-.1a.329.329,0,0,1-.32-.208l-.064-.128a.4.4,0,0,1-.048-.176.192.192,0,0,1,.08-.168.322.322,0,0,1,.224-.04q.56.048,1.664.08H249.6a.3.3,0,0,0,.336-.336q-.032-.768-.064-1.088v-.032q0-.288.24-.288l.144.032q1.216.352,1.216.56,0,.048-.128.144l-.016.016a.477.477,0,0,0-.224.4v.256a.335.335,0,0,0,.088.248.335.335,0,0,0,.248.088h1.392a.46.46,0,0,0,.4-.208l.192-.288q.048-.064.144-.216a1.339,1.339,0,0,1,.168-.224.2.2,0,0,1,.136-.072q.128,0,.568.384a4.046,4.046,0,0,1,.632.656.346.346,0,0,1,.08.176.245.245,0,0,1-.08.176.484.484,0,0,1-.288.08H251.44a.335.335,0,0,0-.248.088.335.335,0,0,0-.088.248v.7a.335.335,0,0,0,.088.248.335.335,0,0,0,.248.088ZM244.592-8.56a.416.416,0,0,0,.352-.224l.176-.256q.064-.08.152-.216a1.267,1.267,0,0,1,.152-.2.184.184,0,0,1,.128-.064q.112,0,.512.352a3.819,3.819,0,0,1,.592.624.491.491,0,0,1,.064.192.229.229,0,0,1-.1.176.484.484,0,0,1-.288.08H244.7a.335.335,0,0,0-.248.088.335.335,0,0,0-.088.248v.928a.4.4,0,0,0,.272.4,3.877,3.877,0,0,1,1.384.96,1.594,1.594,0,0,1,.44.992.684.684,0,0,1-.144.448.455.455,0,0,1-.368.176.568.568,0,0,1-.256-.064.569.569,0,0,1-.256-.352,5.567,5.567,0,0,0-.656-1.328q-.112-.16-.224-.16-.192,0-.192.288v2.528q.032,1.744.112,3.52v.08a.383.383,0,0,1-.16.336,1.452,1.452,0,0,1-.9.288.382.382,0,0,1-.256-.1.288.288,0,0,1-.112-.224q.064-.88.1-1.736t.056-2.168v-1.28q0-.288-.16-.288-.128,0-.224.192a13.994,13.994,0,0,1-1.808,2.48q-.224.24-.336.128a.13.13,0,0,1-.032-.1.547.547,0,0,1,.1-.256,14.792,14.792,0,0,0,1.28-2.64,20.121,20.121,0,0,0,.864-3.024l.016-.1q0-.272-.3-.272h-.288a3.434,3.434,0,0,0-.784.128.508.508,0,0,1-.144.032.339.339,0,0,1-.3-.208l-.048-.112a.4.4,0,0,1-.048-.176q0-.224.3-.192.384.032,1.152.064h.432a.335.335,0,0,0,.248-.088.335.335,0,0,0,.088-.248v-1.92a.3.3,0,0,0-.1-.256.28.28,0,0,0-.264-.032l-1.584.32a.485.485,0,0,1-.144.016q-.176,0-.208-.08v-.016q0-.1.272-.208a19.337,19.337,0,0,0,2.032-.968,14.85,14.85,0,0,0,1.728-1.08.458.458,0,0,1,.24-.08.479.479,0,0,1,.256.1q1.04.848,1.04,1.024,0,.08-.24.08h-.192a1.136,1.136,0,0,0-.416.064l-.368.128-.608.208a.367.367,0,0,0-.288.368V-8.9Q244.368-8.56,244.592-8.56ZM249.6-7.5a.335.335,0,0,0,.248-.088.335.335,0,0,0,.088-.248V-8.912a.335.335,0,0,0-.088-.248.335.335,0,0,0-.248-.088h-1.232a.335.335,0,0,0-.248.088.335.335,0,0,0-.088.248V-7.84a.335.335,0,0,0,.088.248.335.335,0,0,0,.248.088Zm3.1,0a.335.335,0,0,0,.248-.088.335.335,0,0,0,.088-.248V-8.912a.335.335,0,0,0-.088-.248.335.335,0,0,0-.248-.088H251.44a.335.335,0,0,0-.248.088.335.335,0,0,0-.088.248V-7.84a.335.335,0,0,0,.088.248.335.335,0,0,0,.248.088Zm-4.336.464a.335.335,0,0,0-.248.088.335.335,0,0,0-.088.248V-5.52a.335.335,0,0,0,.088.248.335.335,0,0,0,.248.088H249.6a.335.335,0,0,0,.248-.088.335.335,0,0,0,.088-.248V-6.7a.335.335,0,0,0-.088-.248.335.335,0,0,0-.248-.088Zm3.072,0a.335.335,0,0,0-.248.088.335.335,0,0,0-.088.248V-5.52a.335.335,0,0,0,.088.248.335.335,0,0,0,.248.088H252.7a.335.335,0,0,0,.248-.088.335.335,0,0,0,.088-.248V-6.7a.335.335,0,0,0-.088-.248.335.335,0,0,0-.248-.088Zm-1.872,3.312q-.288-.24-.208-.288a.185.185,0,0,1,.128-.032,1.1,1.1,0,0,1,.208.016,3.47,3.47,0,0,1,1.68.72,1.375,1.375,0,0,1,.544.976.629.629,0,0,1-.144.424.463.463,0,0,1-.368.168.416.416,0,0,1-.128-.016.421.421,0,0,1-.3-.256A6.146,6.146,0,0,0,249.568-3.728Zm-1.424,1.984a12.514,12.514,0,0,0-.064-1.36v-.032q0-.288.24-.288l.144.032a5.967,5.967,0,0,1,.872.32q.248.128.248.224,0,.048-.1.128l-.016.016a.486.486,0,0,0-.208.4V-.32a.2.2,0,0,0,.088.192,1.055,1.055,0,0,0,.408.048h1.2q.976,0,1.12-.016a.4.4,0,0,0,.144-.016.2.2,0,0,0,.136-.072.73.73,0,0,0,.072-.128q.032-.072.048-.1l.256-.848q.1-.3.176-.3t.1.32l.032.768a.549.549,0,0,0,.256.4.427.427,0,0,1,.176.368.5.5,0,0,1-.216.416,1.755,1.755,0,0,1-.776.232,13.426,13.426,0,0,1-1.6.072h-1.392a2.9,2.9,0,0,1-.872-.1.588.588,0,0,1-.376-.32,1.736,1.736,0,0,1-.1-.656Zm4.8-1.264a.693.693,0,0,1-.12-.216q-.024-.088.008-.12a.093.093,0,0,1,.064-.016.878.878,0,0,1,.256.08,4.552,4.552,0,0,1,1.6,1.208,2.1,2.1,0,0,1,.512,1.256.9.9,0,0,1-.16.552.481.481,0,0,1-.4.216.532.532,0,0,1-.288-.08.459.459,0,0,1-.24-.352,5.55,5.55,0,0,0-.464-1.272A7.974,7.974,0,0,0,252.944-3.008Zm-6.064.24q.048-.32.16-.32.144,0,.192.288a3.794,3.794,0,0,1,.08.832,2.9,2.9,0,0,1-.24,1.224,2.073,2.073,0,0,1-.592.792.96.96,0,0,1-.592.192.473.473,0,0,1-.5-.288.686.686,0,0,1-.048-.24.675.675,0,0,1,.112-.368.876.876,0,0,1,.3-.288,2.318,2.318,0,0,0,.7-.744A2.88,2.88,0,0,0,246.88-2.768ZM269.072-4.4a1.868,1.868,0,0,1,.64.184,3.07,3.07,0,0,1,.768.464.769.769,0,0,1,.336.568.423.423,0,0,1-.176.376.779.779,0,0,1-.448.12,1.784,1.784,0,0,1-.432-.048,16.118,16.118,0,0,0-3.52-.352q-1.04,0-2.192.112a36.034,36.034,0,0,0-3.744.592,1.8,1.8,0,0,0-.48.16,1.9,1.9,0,0,1-.72.176,1.828,1.828,0,0,1-.864-.24,2.5,2.5,0,0,1-.744-.592,1.032,1.032,0,0,1-.3-.624.092.092,0,0,1,.032-.064A.092.092,0,0,1,257.3-3.6a.664.664,0,0,1,.232.064q.152.064.216.1a2.276,2.276,0,0,0,.9.176q.32,0,4.352-.448a.328.328,0,0,0,.336-.336q.16-2.16.16-2.736a2.757,2.757,0,0,0-.032-.448,1.163,1.163,0,0,0-.256-.512.412.412,0,0,0-.432-.144l-1.28.224a2.966,2.966,0,0,1-.576.064,1.154,1.154,0,0,1-.576-.144.738.738,0,0,0-.208-.1l-.176-.048a1.3,1.3,0,0,1-.384-.232,1.311,1.311,0,0,1-.272-.312.458.458,0,0,1-.08-.24q0-.112.128-.1a3.161,3.161,0,0,0,.512.08,4.375,4.375,0,0,0,.48.016,13.472,13.472,0,0,0,1.488-.08q.5-.032,2.08-.264a19.525,19.525,0,0,0,2.08-.376,2.234,2.234,0,0,1,.608-.1,1.465,1.465,0,0,1,.592.112,2.438,2.438,0,0,0,.416.112,1.041,1.041,0,0,1,.392.168.712.712,0,0,1,.232.248.67.67,0,0,1,.032.112.237.237,0,0,1-.144.208.754.754,0,0,1-.336.064,6.616,6.616,0,0,0-.968.08q-.536.08-.616.1-.48.016-1.424.112-.24.016-.24.144a.306.306,0,0,0,.16.24q.32.272.32.48a.818.818,0,0,1-.128.3,1.663,1.663,0,0,0-.176.368,21.522,21.522,0,0,0-.288,2.416v.032a.308.308,0,0,0,.088.24.307.307,0,0,0,.248.064q1.6-.144,2.112-.16a7.614,7.614,0,0,0,1.152-.1q.08-.016.56-.144A1.775,1.775,0,0,1,269.072-4.4ZM276.208.784q-.08,0-.08-.064T276.4.512a10.611,10.611,0,0,0,3.264-2.568,7.682,7.682,0,0,0,1.512-3.056,17.567,17.567,0,0,0,.392-3.992q0-.576-.064-1.5a1.33,1.33,0,0,0-.4-1.04,1.684,1.684,0,0,0-.344-.208q-.152-.064-.216-.1a.115.115,0,0,1-.064-.112q0-.128.264-.208a2.008,2.008,0,0,1,.584-.08,2.954,2.954,0,0,1,.416.032,2.651,2.651,0,0,1,.936.5q.472.376.472.648a.875.875,0,0,1-.112.368q-.064.144-.12.312a1.034,1.034,0,0,0-.056.328q0,.656-.032,1.584a14.89,14.89,0,0,1-.616,4.176,6.938,6.938,0,0,1-1.92,2.968A11.19,11.19,0,0,1,276.448.736.928.928,0,0,1,276.208.784Zm1.936-5.408q-.224,0-.472-.344a1.345,1.345,0,0,1-.248-.808q0-.1.064-.72a11.217,11.217,0,0,0,.064-1.136,11.851,11.851,0,0,0-.144-2.192,1.013,1.013,0,0,0-.56-.752.941.941,0,0,1-.208-.1.153.153,0,0,1-.08-.12q0-.112.28-.264a1.238,1.238,0,0,1,.6-.152.865.865,0,0,1,.352.064,2.341,2.341,0,0,1,.816.424.679.679,0,0,1,.224.5,1.307,1.307,0,0,1-.032.264q-.032.152-.048.232a12.3,12.3,0,0,0-.064,1.52l.016,1.264q0,.064.048.736.032.48.032.656a1.2,1.2,0,0,1-.176.64A.528.528,0,0,1,278.144-4.624Zm21.9-7.312a12.5,12.5,0,0,1,1.064.952q.52.52.52.7a.264.264,0,0,1-.112.192,2.663,2.663,0,0,1-.576.3l-.464.224q-.544.32-1.536.84t-1.856.888a.484.484,0,0,0-.3.336l-.136.456q-.088.3-.168.552a20.92,20.92,0,0,1-1.936,3.84,9.025,9.025,0,0,1-3.456,3.12.545.545,0,0,1-.24.1.071.071,0,0,1-.08-.08q0-.048.208-.224a10.186,10.186,0,0,0,2.536-2.864,15.815,15.815,0,0,0,1.536-3.272,8.522,8.522,0,0,0,.5-2.184,1.09,1.09,0,0,0-.272-.792,1.6,1.6,0,0,0-.768-.408q-.1-.032-.1-.1,0-.112.3-.184a2.842,2.842,0,0,1,.656-.072,2.334,2.334,0,0,1,.9.176,1.911,1.911,0,0,1,.672.44.751.751,0,0,1,.248.488.931.931,0,0,0,.5-.192,7.854,7.854,0,0,0,1.616-1.648.961.961,0,0,0,.208-.48q0-.272-.528-.272a11.98,11.98,0,0,0-1.608.216q-1.224.216-2.088.408-.608.144-1.424.4-.736.224-1.144.328a2.853,2.853,0,0,1-.68.1,1.54,1.54,0,0,1-.856-.352,2.119,2.119,0,0,1-.7-.784.887.887,0,0,1-.064-.288q0-.192.112-.192a.661.661,0,0,1,.208.08,3.042,3.042,0,0,0,.288.128,3.63,3.63,0,0,0,.992.112,7.527,7.527,0,0,0,1.024-.064q.8-.08,2.9-.384t2.584-.432q.08-.032.5-.168a2.317,2.317,0,0,1,.632-.136A.706.706,0,0,1,300.048-11.936Zm17.424-.784a4.22,4.22,0,0,1,1.528.28.962.962,0,0,1,.728.92.511.511,0,0,1-.16.4.5.5,0,0,1-.336.144.719.719,0,0,1-.624-.32,3.982,3.982,0,0,0-.568-.624,2.63,2.63,0,0,0-.68-.4q-.128-.048-.248-.08a.858.858,0,0,1-.192-.072q-.072-.04-.072-.088Q316.848-12.72,317.472-12.72ZM311.9-8.784q1.92,0,1.92,2.544a10.673,10.673,0,0,1-.184,1.712,11.9,11.9,0,0,1-.568,2.112,4.522,4.522,0,0,1-.928,1.6,2.671,2.671,0,0,1-.584.472,1.105,1.105,0,0,1-.536.184q-.464,0-.736-.768a4.974,4.974,0,0,0-.784-1.36.788.788,0,0,1-.16-.288q0-.032.048-.032a.907.907,0,0,1,.3.152q.24.152.368.216.112.064.312.192a2.689,2.689,0,0,0,.344.192.671.671,0,0,0,.272.064q.528,0,.952-.88a8.564,8.564,0,0,0,.656-2.04,10.042,10.042,0,0,0,.232-1.88,2.388,2.388,0,0,0-.224-1.16.781.781,0,0,0-.736-.392,4.268,4.268,0,0,0-1.632.464.53.53,0,0,0-.288.352,18.975,18.975,0,0,1-2.32,5.808,2.235,2.235,0,0,1-.5.608.827.827,0,0,1-.512.224.485.485,0,0,1-.368-.152.569.569,0,0,1-.144-.408,2.237,2.237,0,0,1,.592-1.264,13.369,13.369,0,0,0,2.112-4.016.508.508,0,0,0,.032-.144.184.184,0,0,0-.208-.208.5.5,0,0,0-.192.048,4.113,4.113,0,0,1-1.408.5,1.25,1.25,0,0,1-.688-.232,2.031,2.031,0,0,1-.584-.584,1.271,1.271,0,0,1-.232-.7q0-.16.08-.16a.454.454,0,0,1,.192.072q.128.072.192.1a2.327,2.327,0,0,0,.992.208,7.07,7.07,0,0,0,1.968-.384.445.445,0,0,0,.3-.352,8.177,8.177,0,0,0,.16-1.44,1.888,1.888,0,0,0-.336-1.232,2.638,2.638,0,0,0-.36-.384q-.216-.192-.216-.256,0-.1.16-.152a1.284,1.284,0,0,1,.416-.056,2.765,2.765,0,0,1,.64.08,1.273,1.273,0,0,1,.512.224.79.79,0,0,1,.416.7,3.992,3.992,0,0,1-.128.736,3.617,3.617,0,0,0-.144.608l-.1.64-.016.112a.209.209,0,0,0,.08.184.277.277,0,0,0,.224.024A4.934,4.934,0,0,1,311.9-8.784Zm3.952-2.288-.184-.072a.557.557,0,0,1-.152-.08.114.114,0,0,1-.048-.088q0-.144.512-.144a4.01,4.01,0,0,1,1.024.144,2.588,2.588,0,0,1,.936.448.934.934,0,0,1,.392.768.475.475,0,0,1-.184.408.694.694,0,0,1-.424.136.6.6,0,0,1-.576-.336,3.135,3.135,0,0,0-.552-.728A2.282,2.282,0,0,0,315.856-11.072Zm-.624,2.24a4.808,4.808,0,0,1,2.152.48A3.184,3.184,0,0,1,318.608-7.3a2.116,2.116,0,0,1,.384,1.128,1.478,1.478,0,0,1-.168.712,1.36,1.36,0,0,1-.424.488.879.879,0,0,1-.5.176.546.546,0,0,1-.272-.072q-.128-.072-.32-.2a3.67,3.67,0,0,0-1.664-.464q-.224-.032-.224-.1t.24-.1l.688-.08.384-.048a2.463,2.463,0,0,0,.648-.192.37.37,0,0,0,.168-.352,1.832,1.832,0,0,0-.72-1.384,4.132,4.132,0,0,0-1.648-.888q-.144-.048-.144-.1Q315.04-8.832,315.232-8.832Zm8.576-4.432a.255.255,0,0,1,.256-.208.3.3,0,0,1,.192.064l.64.432q.688.352.688.5,0,.064-.176.1h-.048a.55.55,0,0,0-.4.208,17.143,17.143,0,0,1-1.7,1.592,14.6,14.6,0,0,1-2,1.4q-.272.144-.352.048a.065.065,0,0,1-.016-.048q0-.112.176-.272a17.222,17.222,0,0,0,1.28-1.424,11.873,11.873,0,0,0,.824-1.184A9.45,9.45,0,0,0,323.808-13.264ZM332.736-8a.46.46,0,0,0,.4-.208l.208-.3q.064-.08.168-.224t.168-.216a.177.177,0,0,1,.128-.072,1.637,1.637,0,0,1,.6.384,4.274,4.274,0,0,1,.68.656.352.352,0,0,1,.08.192.229.229,0,0,1-.1.176.484.484,0,0,1-.288.08h-6.7a17.235,17.235,0,0,0-2.112.176h-.1a.329.329,0,0,1-.32-.208l-.064-.128a.4.4,0,0,1-.048-.176.192.192,0,0,1,.08-.168.322.322,0,0,1,.224-.04q.576.048,1.664.08h1.6a.335.335,0,0,0,.248-.088.335.335,0,0,0,.088-.248v-1.808a.335.335,0,0,0-.088-.248.335.335,0,0,0-.248-.088h-.7a9.772,9.772,0,0,0-1.6.176h-.1a.329.329,0,0,1-.32-.208l-.064-.128a.426.426,0,0,1-.048-.192.176.176,0,0,1,.08-.152.322.322,0,0,1,.224-.04q.544.048,1.648.08h.88a.3.3,0,0,0,.336-.336q-.032-1.008-.1-1.76V-13.1q0-.256.224-.256a.962.962,0,0,1,.16.032,8.281,8.281,0,0,1,1,.336q.28.128.28.224,0,.064-.112.144l-.016.016a.477.477,0,0,0-.224.4v.928a.335.335,0,0,0,.088.248.335.335,0,0,0,.248.088h1.264a.46.46,0,0,0,.4-.208l.208-.288q.064-.08.168-.224t.168-.216a.177.177,0,0,1,.128-.072,1.555,1.555,0,0,1,.584.376,4.292,4.292,0,0,1,.664.648.352.352,0,0,1,.08.192.229.229,0,0,1-.1.176.484.484,0,0,1-.288.08H330.9a.335.335,0,0,0-.248.088.335.335,0,0,0-.088.248v1.808a.335.335,0,0,0,.088.248A.335.335,0,0,0,330.9-8Zm-9.872,2.608q0-.288-.176-.288a.358.358,0,0,0-.24.128,11.908,11.908,0,0,1-1.264,1.168q-.256.176-.336.1l-.032-.064a.6.6,0,0,1,.144-.272,21.789,21.789,0,0,0,1.984-2.928,10.039,10.039,0,0,0,1.1-2.512q.08-.24.256-.24a.424.424,0,0,1,.208.064q1.312.7,1.312.9,0,.064-.144.1h-.048a.589.589,0,0,0-.368.256q-.3.464-.928,1.3l-.224.3.016.016a.661.661,0,0,1,.256.184.1.1,0,0,1-.032.168.553.553,0,0,0-.256.384v3.68q.032,1.744.112,3.52V.624a.383.383,0,0,1-.16.336,1.83,1.83,0,0,1-.44.24,1.346,1.346,0,0,1-.488.1.484.484,0,0,1-.312-.1.281.281,0,0,1-.12-.224q.064-.944.112-1.832t.064-2.328Zm9.392.784a.46.46,0,0,0,.4-.208l.192-.288q.064-.08.168-.224t.168-.216a.177.177,0,0,1,.128-.072,1.691,1.691,0,0,1,.576.384,5.261,5.261,0,0,1,.688.656.352.352,0,0,1,.08.192.229.229,0,0,1-.1.176.562.562,0,0,1-.3.08h-3.072a.335.335,0,0,0-.248.088.335.335,0,0,0-.088.248V-.944a.326.326,0,0,0,.288.368,11.4,11.4,0,0,0,2.048.16h1.808q.336,0,.336.1,0,.048-.1.112a.972.972,0,0,0-.144.112,1.046,1.046,0,0,0-.336.656q-.048.32-.336.32h-1.344a8,8,0,0,1-2.488-.336A3.975,3.975,0,0,1,328.84-.608a6.4,6.4,0,0,1-1.208-2.256q-.064-.208-.16-.208t-.144.208a8.6,8.6,0,0,1-2.352,3.92q-.24.208-.32.128a.109.109,0,0,1-.032-.08.547.547,0,0,1,.128-.256,10.537,10.537,0,0,0,1.536-3.92,11.715,11.715,0,0,0,.208-2.32q0-.432-.016-.624v-.032q0-.336.384-.288,1.472.272,1.472.448,0,.08-.128.128l-.064.032a.411.411,0,0,0-.256.368,11.439,11.439,0,0,1-.24,1.232.852.852,0,0,0-.016.192.822.822,0,0,0,.048.256,5.21,5.21,0,0,0,1.536,2.288.352.352,0,0,0,.192.08.2.2,0,0,0,.16-.08.35.35,0,0,0,.064-.224V-4.24a25.529,25.529,0,0,0-.144-2.864v-.064q0-.256.224-.256a.963.963,0,0,1,.16.032q1.328.368,1.328.576,0,.048-.112.128h-.016a.442.442,0,0,0-.224.416v1.328a.335.335,0,0,0,.088.248.335.335,0,0,0,.248.088Zm14.5-6.416a.46.46,0,0,0,.4-.208l.24-.32q.064-.1.176-.248a2.07,2.07,0,0,1,.184-.224.2.2,0,0,1,.136-.072,1.888,1.888,0,0,1,.648.416,4.659,4.659,0,0,1,.744.7.352.352,0,0,1,.08.192.231.231,0,0,1-.08.16.593.593,0,0,1-.32.08h-3.984a.335.335,0,0,0-.248.088.335.335,0,0,0-.088.248v1.5a.335.335,0,0,0,.088.248.335.335,0,0,0,.248.088H348.4a.46.46,0,0,0,.4-.208l.24-.336.168-.224a2.34,2.34,0,0,1,.2-.24.221.221,0,0,1,.144-.08,1.937,1.937,0,0,1,.656.416,5.316,5.316,0,0,1,.768.7.245.245,0,0,1,.08.176.229.229,0,0,1-.1.176.562.562,0,0,1-.3.08H339.632a17.235,17.235,0,0,0-2.112.176h-.1a.329.329,0,0,1-.32-.208l-.064-.128a.426.426,0,0,1-.048-.192.176.176,0,0,1,.08-.152.322.322,0,0,1,.224-.04q.512.048,1.536.08h.64a.335.335,0,0,0,.248-.088.335.335,0,0,0,.088-.248V-9.04a25.521,25.521,0,0,0-.144-2.864v-.064a.226.226,0,0,1,.256-.256.416.416,0,0,1,.128.016,8.731,8.731,0,0,1,1.024.336q.288.128.288.224,0,.048-.112.128l-.032.016a.451.451,0,0,0-.224.4v2.4a.335.335,0,0,0,.088.248.335.335,0,0,0,.248.088h1.728a.335.335,0,0,0,.248-.088.335.335,0,0,0,.088-.248v-1.568a25.794,25.794,0,0,0-.144-2.864V-13.2q0-.256.24-.256a.416.416,0,0,1,.128.016q1.44.368,1.44.576,0,.08-.144.16l-.048.032a.451.451,0,0,0-.224.4v.912a.335.335,0,0,0,.088.248.335.335,0,0,0,.248.088Zm-3.36,5.2a14.194,14.194,0,0,0-.08-1.664V-7.52q0-.288.24-.288l.144.032q.72.208,1.008.328t.288.216q0,.064-.112.144l-.032.016a.451.451,0,0,0-.224.4v2.9a2.608,2.608,0,0,1-.1.808,1,1,0,0,1-.416.52,2.371,2.371,0,0,1-.936.3H343.1a.293.293,0,0,1-.216-.072.431.431,0,0,1-.1-.216.886.886,0,0,0-.288-.544,2.135,2.135,0,0,0-.96-.384q-.32-.048-.32-.176,0-.08.24-.08l1.04.048.576.032a.374.374,0,0,0,.248-.064.289.289,0,0,0,.072-.224ZM340.32-7.072q.08-.224.24-.224a.3.3,0,0,1,.192.064l.656.4q.7.3.7.448,0,.08-.176.112h-.048a.512.512,0,0,0-.384.224A12.96,12.96,0,0,1,339.672-4.2a12.91,12.91,0,0,1-2.28,1.544q-.288.128-.352.032a.065.065,0,0,1-.016-.048q0-.1.192-.256a14.839,14.839,0,0,0,1.712-1.744,8.6,8.6,0,0,0,.816-1.184A7.722,7.722,0,0,0,340.32-7.072Zm6.208.416q-.272-.192-.224-.272a.173.173,0,0,1,.128-.048l.224.032a8.5,8.5,0,0,1,2.208.84,4.079,4.079,0,0,1,1.256,1.04,1.715,1.715,0,0,1,.392.984.685.685,0,0,1-.152.464.512.512,0,0,1-.408.176.882.882,0,0,1-.176-.032.617.617,0,0,1-.32-.256,6.987,6.987,0,0,0-1.224-1.5A14.444,14.444,0,0,0,346.528-6.656Zm.24,1.952a.288.288,0,0,1,.256-.176.424.424,0,0,1,.208.064l.624.432q.672.336.672.48,0,.064-.208.1l-.1.016a.588.588,0,0,0-.4.208,12.281,12.281,0,0,1-2.784,2.576,12.046,12.046,0,0,1-3.176,1.48,22.948,22.948,0,0,1-3.864.76l-.128.016q-.192,0-.224-.112V1.12q0-.112.3-.192a23.327,23.327,0,0,0,3.84-1.216A11.338,11.338,0,0,0,344.8-2.176a9.5,9.5,0,0,0,1.08-1.192A9.153,9.153,0,0,0,346.768-4.7Zm8.48,4.96A.335.335,0,0,0,355,.344a.335.335,0,0,0-.088.248V.816q0,.144-.3.312a1.29,1.29,0,0,1-.648.168.435.435,0,0,1-.28-.1.281.281,0,0,1-.12-.224q.064-.944.112-1.832t.064-2.328V-9.872a25.041,25.041,0,0,0-.144-2.816v-.064a.258.258,0,0,1,.056-.176.174.174,0,0,1,.136-.064.4.4,0,0,1,.176.048l.864.384a.985.985,0,0,0,.416.1h9.408a.475.475,0,0,0,.416-.208l.128-.176q.048-.064.136-.176a1.191,1.191,0,0,1,.144-.16.181.181,0,0,1,.12-.048,1.418,1.418,0,0,1,.552.336,4.149,4.149,0,0,1,.632.592.23.23,0,0,1,.08.16.237.237,0,0,1-.144.208.4.4,0,0,1-.1.048.62.62,0,0,0-.08.032.367.367,0,0,0-.288.368V-3.12q.032,1.76.112,3.5V.448a.387.387,0,0,1-.176.352,2.991,2.991,0,0,1-.472.232,1.308,1.308,0,0,1-.472.1.208.208,0,0,1-.192-.112.377.377,0,0,1-.048-.16.561.561,0,0,1,.032-.176,1.424,1.424,0,0,0,.032-.272.128.128,0,0,0-.088-.12.616.616,0,0,0-.248-.04Zm0-12.24A.335.335,0,0,0,355-11.9a.335.335,0,0,0-.088.248v11.1A.335.335,0,0,0,355-.3a.335.335,0,0,0,.248.088h9.488a.335.335,0,0,0,.248-.088.335.335,0,0,0,.088-.248v-11.1a.335.335,0,0,0-.088-.248.335.335,0,0,0-.248-.088Zm7.424,4.64a.475.475,0,0,0,.416-.208l.112-.16q.048-.064.136-.176a1.191,1.191,0,0,1,.144-.16.181.181,0,0,1,.12-.048,1.17,1.17,0,0,1,.488.264,2.763,2.763,0,0,1,.536.488.352.352,0,0,1,.08.192.229.229,0,0,1-.1.176.532.532,0,0,1-.288.08h-1.6a.386.386,0,0,0-.224.056.163.163,0,0,0-.08.136.351.351,0,0,0,.128.224,8.8,8.8,0,0,0,1.92,1.3q.256.112.256.192-.016.048-.112.088t-.16.072a1.008,1.008,0,0,0-.448.448q-.1.208-.256.208a.352.352,0,0,1-.192-.08,11.012,11.012,0,0,1-1.056-.96.4.4,0,0,0-.256-.144.508.508,0,0,0-.144.032.482.482,0,0,0-.208.352v.32q.016.48.048.88a.769.769,0,0,1-.032.24.308.308,0,0,1-.128.16,2.252,2.252,0,0,1-.376.176,1.141,1.141,0,0,1-.392.08q-.16,0-.16-.3a.268.268,0,0,0-.088-.208.356.356,0,0,0-.248-.08H358.8a.335.335,0,0,0-.248.088.335.335,0,0,0-.088.248v1.12a.177.177,0,0,0,.1.184,1.671,1.671,0,0,0,.48.04h1.536L362-2.048a.9.9,0,0,0,.192-.04.23.23,0,0,0,.112-.1,4.113,4.113,0,0,0,.336-.928.627.627,0,0,1,.088-.208q.056-.08.088-.08.08,0,.1.336l.016.624a.52.52,0,0,0,.272.4.365.365,0,0,1,.192.336.47.47,0,0,1-.224.408,1.994,1.994,0,0,1-.84.216q-.616.064-1.8.064h-1.7a3.42,3.42,0,0,1-.9-.088.61.61,0,0,1-.4-.3,1.5,1.5,0,0,1-.1-.64V-3.392q0-.64-.032-.944v-.032q0-.272.208-.272a.4.4,0,0,1,.176.048l.688.336a.856.856,0,0,0,.416.1h1.632a.335.335,0,0,0,.248-.088.335.335,0,0,0,.088-.248v-.512a.335.335,0,0,0-.088-.248.335.335,0,0,0-.248-.088h-2.256q-.288,0-.336-.192a.074.074,0,0,0-.08-.048.481.481,0,0,0-.288.176,10.193,10.193,0,0,1-1.92,1.488q-.256.16-.336.048a.065.065,0,0,1-.016-.048q0-.1.208-.272a8.915,8.915,0,0,0,2.048-2.3.3.3,0,0,0,.064-.192.176.176,0,0,0-.08-.152.355.355,0,0,0-.208-.056h-.32a5.753,5.753,0,0,0-1.12.144.416.416,0,0,1-.128.016.339.339,0,0,1-.3-.208l-.048-.1a.426.426,0,0,1-.048-.192.176.176,0,0,1,.08-.152.322.322,0,0,1,.224-.04q.48.048,1.44.08h.656a.4.4,0,0,0,.4-.24l.24-.576.032-.144a.213.213,0,0,0-.08-.176.323.323,0,0,0-.208-.064h-.5a8.175,8.175,0,0,0-1.312.16h-.1a.361.361,0,0,1-.336-.208l-.048-.1a.426.426,0,0,1-.048-.192.176.176,0,0,1,.08-.152.322.322,0,0,1,.224-.04q.528.048,1.6.08h.72a.374.374,0,0,0,.384-.272,9.788,9.788,0,0,0,.368-2.048q0-.288.272-.288a.416.416,0,0,1,.128.016q1.232.288,1.232.48,0,.048-.144.128l-.064.032a.635.635,0,0,0-.192.136.467.467,0,0,0-.1.2q-.24.88-.368,1.232a.508.508,0,0,0-.032.144.213.213,0,0,0,.08.176.35.35,0,0,0,.224.064h2.1a.5.5,0,0,0,.416-.208l.112-.144a2.7,2.7,0,0,0,.184-.216q.12-.152.216-.152a1.088,1.088,0,0,1,.472.264,2.459,2.459,0,0,1,.5.488.245.245,0,0,1,.08.176.229.229,0,0,1-.1.176.443.443,0,0,1-.272.064h-2.512a.323.323,0,0,0-.208.064.2.2,0,0,0-.08.16.4.4,0,0,0,.048.176,4.516,4.516,0,0,0,.4.608.488.488,0,0,0,.416.192Zm-.752-3.824a.284.284,0,0,1,.272-.224.4.4,0,0,1,.176.048l.272.16a2.152,2.152,0,0,0,.384.192q.384.16.384.288,0,.08-.192.128l-.08.016a.974.974,0,0,0-.368.224,12.571,12.571,0,0,1-1.216,1.056q-.224.176-.352.08a.138.138,0,0,1-.048-.1.558.558,0,0,1,.1-.272A9,9,0,0,0,361.92-11.168Zm-5.376.192a.693.693,0,0,1-.12-.216q-.024-.088.008-.12a.127.127,0,0,1,.08-.016.54.54,0,0,1,.24.064,2.741,2.741,0,0,1,1.04.672,1.145,1.145,0,0,1,.336.736.629.629,0,0,1-.144.424.463.463,0,0,1-.368.168.539.539,0,0,1-.24-.064.476.476,0,0,1-.224-.336A3.759,3.759,0,0,0,356.544-10.976Zm2.688,3.232a.4.4,0,0,0-.048.176q0,.224.288.224h1.152a.317.317,0,0,0,.216-.064.205.205,0,0,0,.072-.16.356.356,0,0,0-.032-.16q-.048-.112-.208-.544a.374.374,0,0,0-.384-.272h-.4a.442.442,0,0,0-.4.256q-.08.176-.144.3T359.232-7.744Zm-.976,1.536a.332.332,0,0,0-.1.208q0,.192.288.192h2.064a.5.5,0,0,0,.4-.192l.112-.112a.382.382,0,0,1,.272-.128.366.366,0,0,1,.208.08.184.184,0,0,0,.128.064.057.057,0,0,0,.064-.064.213.213,0,0,0-.048-.128q-.128-.192-.224-.368a.424.424,0,0,0-.4-.24h-2.032a.446.446,0,0,0-.384.208Z" transform="translate(998.5 965)" fill="#efefef"/></g></svg>