<svg xmlns="http://www.w3.org/2000/svg" width="1024.062" height="70.33" viewBox="0 0 1024.062 70.33">
  <g id="merit-obi-pc" transform="translate(-138 -226)">
    <g id="グループ_1" data-name="グループ 1" transform="translate(819 11.97)">
      <path id="パス_14" data-name="パス 14" d="M4.9-9.03a.931.931,0,0,1-.56-.21,1.772,1.772,0,0,1-.574-.63.348.348,0,0,1-.042-.154.081.081,0,0,1,.028-.056.081.081,0,0,1,.056-.028.586.586,0,0,1,.182.049,2,2,0,0,0,.238.077,2.853,2.853,0,0,0,.756.112,2.849,2.849,0,0,0,.56-.056,21.286,21.286,0,0,0,2.17-.406.826.826,0,0,0,.364-.168,1.537,1.537,0,0,1,.224-.1.815.815,0,0,1,.266-.035,1.5,1.5,0,0,1,.637.154,1.8,1.8,0,0,1,.539.371.609.609,0,0,1,.21.4.21.21,0,0,1-.119.21,1.225,1.225,0,0,1-.455.056q-.238,0-.406-.014-.476-.028-.826-.028A11.076,11.076,0,0,0,6.72-9.38a6.862,6.862,0,0,0-1.2.238,2.276,2.276,0,0,1-.62.112ZM2.114.294q-.07,0-.07-.056t.112-.1A16.2,16.2,0,0,0,6.524-2.611,12.983,12.983,0,0,0,9.506-6.72q.084-.224.084-.238,0-.112-.168-.112t-1.694.287q-1.512.287-2.184.469a2.6,2.6,0,0,0-.5.168,2.036,2.036,0,0,0-.266.154l-.14.1a.736.736,0,0,1-.378.1,1.386,1.386,0,0,1-.721-.238,2.383,2.383,0,0,1-.651-.588.759.759,0,0,1-.14-.476.557.557,0,0,1,.028-.189Q2.8-7.36,2.86-7.36a.332.332,0,0,1,.119.056q.091.056.175.1a2.526,2.526,0,0,0,.5.154,3.517,3.517,0,0,0,.742.07q.14,0,.476-.028.392-.042,2.219-.336t2.121-.364a1.741,1.741,0,0,0,.434-.224q.042-.028.14-.084a.354.354,0,0,1,.168-.056,1.132,1.132,0,0,1,.539.217,3.335,3.335,0,0,1,.609.49.751.751,0,0,1,.266.441.3.3,0,0,1-.084.2,2.457,2.457,0,0,1-.266.252,2.406,2.406,0,0,0-.588.63,12.649,12.649,0,0,1-3.23,3.8A14.3,14.3,0,0,1,2.212.28ZM24.626-10.542a1.718,1.718,0,0,1,.406.357.646.646,0,0,1,.182.4.193.193,0,0,1-.042.14.628.628,0,0,1-.154.1.828.828,0,0,1-.126.07.586.586,0,0,0-.21.2,19.4,19.4,0,0,1-1.764,2.128,5.37,5.37,0,0,1,.616.252.408.408,0,0,1,.224.378,1.407,1.407,0,0,1-.07.336,4.484,4.484,0,0,0-.112.672v.294q-.014.294-.014,1.288,0,2.38.084,2.968a4.176,4.176,0,0,1,.042.56q0,.8-.49.8A.634.634,0,0,1,22.659.14a1.171,1.171,0,0,1-.189-.714q0-.448.014-.791t.028-.6q.056-1.008.056-1.484l-.014-2.184a3.115,3.115,0,0,0-.042-.56.928.928,0,0,0-.168-.392A16.608,16.608,0,0,1,17.78-3.374a.847.847,0,0,1-.28.084q-.1,0-.1-.042,0-.1.28-.28A28.345,28.345,0,0,0,20.8-6.293a18.445,18.445,0,0,0,2.058-2.38,3.363,3.363,0,0,0,.714-1.421.665.665,0,0,0-.2-.49,1.527,1.527,0,0,0-.126-.112q-.07-.056-.07-.084,0-.112.28-.112a2.072,2.072,0,0,1,1.17.35ZM33.1.14q-.1,0-.1-.07t.28-.238A15.968,15.968,0,0,0,37.471-3.2a15.235,15.235,0,0,0,2.471-3.2,6.375,6.375,0,0,0,.826-1.96q0-.112-.126-.112t-1.155.14q-1.029.14-2.2.364a19.539,19.539,0,0,0-1.953.462,1.9,1.9,0,0,1-.574.1A1.191,1.191,0,0,1,34-7.658a1.754,1.754,0,0,1-.434-.574,1.414,1.414,0,0,1-.182-.588q0-.154.126-.154a.7.7,0,0,1,.322.112,2.956,2.956,0,0,0,.518.168,2.36,2.36,0,0,0,.462.042q.434,0,2.527-.168a19.948,19.948,0,0,0,2.541-.294,2.807,2.807,0,0,0,.5-.2,2.54,2.54,0,0,1,.644-.2,1.161,1.161,0,0,1,.5.224,3.388,3.388,0,0,1,.63.518.813.813,0,0,1,.28.49.494.494,0,0,1-.084.28,2.9,2.9,0,0,1-.28.336,3.37,3.37,0,0,0-.518.686,13.881,13.881,0,0,1-2.118,3.13,12.537,12.537,0,0,1-2.646,2.184A25.319,25.319,0,0,1,33.334.07.744.744,0,0,1,33.1.14ZM53.928-4.886A11.613,11.613,0,0,1,56.5-3.465q1.2.875,1.2,1.7a.746.746,0,0,1-.189.518.552.552,0,0,1-.413.21.671.671,0,0,1-.441-.189,1.684,1.684,0,0,1-.385-.525,8.634,8.634,0,0,0-1.127-1.722A5.817,5.817,0,0,0,53.76-4.69,16.382,16.382,0,0,1,47.684-.308a.344.344,0,0,1-.126.028q-.084,0-.084-.07t.154-.14a14.128,14.128,0,0,0,2.982-2.2A21.347,21.347,0,0,0,53.137-5.5a11,11,0,0,0,1.407-2.324q.028-.14.028-.154,0-.07-.126-.07a9.037,9.037,0,0,0-1.463.329,12.682,12.682,0,0,0-1.673.539l-.238.119a.658.658,0,0,1-.294.077,1.077,1.077,0,0,1-.672-.252,1.97,1.97,0,0,1-.511-.588,1.214,1.214,0,0,1-.189-.56q0-.2.1-.2a.409.409,0,0,1,.168.1,1.392,1.392,0,0,0,.28.168,1.617,1.617,0,0,0,.63.112q.294,0,1.834-.245t1.932-.357a4.077,4.077,0,0,0,.49-.21.858.858,0,0,1,.322-.14,1.012,1.012,0,0,1,.476.2,2.9,2.9,0,0,1,.553.455.719.719,0,0,1,.245.441.268.268,0,0,1-.091.189,2.048,2.048,0,0,1-.273.217q-.112.084-.231.182a.736.736,0,0,0-.175.2,22.158,22.158,0,0,1-1.738,2.386ZM71.722-9.562a1.065,1.065,0,0,1,.5.2,3.068,3.068,0,0,1,.567.455q.245.252.245.392a.261.261,0,0,1-.07.2.906.906,0,0,1-.224.133,2.98,2.98,0,0,0-.3.182.858.858,0,0,0-.231.28A21.977,21.977,0,0,1,70.2-4.83a4.942,4.942,0,0,1,.84.91,1.491,1.491,0,0,1,.308.826.843.843,0,0,1-.161.539.5.5,0,0,1-.413.2.528.528,0,0,1-.357-.161,1.41,1.41,0,0,1-.3-.413q-.364-.672-.644-1.092A16.312,16.312,0,0,1,62.818.2a1.206,1.206,0,0,1-.266.056q-.112,0-.112-.07t.294-.21a16.5,16.5,0,0,0,3.4-2.142,20.61,20.61,0,0,0,2.73-2.674,5.7,5.7,0,0,0-.651-.7q-.315-.28-.861-.742l-.322-.252q-.084-.07-.084-.126t.07-.056a.772.772,0,0,1,.154.042,11.543,11.543,0,0,1,2.2,1.2q.56-.714.973-1.358a12.178,12.178,0,0,0,.63-1.078,1.882,1.882,0,0,0,.217-.546.147.147,0,0,0-.042-.119.22.22,0,0,0-.14-.035l-.308.042a8.121,8.121,0,0,1-1.554.182,2.228,2.228,0,0,1-.91-.14A18.442,18.442,0,0,1,66.22-6.2a8.224,8.224,0,0,1-2.072,1.6.4.4,0,0,1-.21.07q-.1,0-.1-.07t.182-.238A11.2,11.2,0,0,0,65.469-6.35,16.386,16.386,0,0,0,66.85-8.3a5.262,5.262,0,0,0,.7-1.568,2.271,2.271,0,0,0,.028-.28q0-.518-.448-.518a.646.646,0,0,1-.091-.007.52.52,0,0,1-.091-.021q-.042-.014-.042-.042,0-.112.238-.2a1.227,1.227,0,0,1,.434-.091,1.364,1.364,0,0,1,.616.2,3.286,3.286,0,0,1,.644.448q.28.252.28.42a.4.4,0,0,1-.1.231q-.1.133-.161.217a3.934,3.934,0,0,1-.308.546.96.96,0,0,0,.182.014,9.666,9.666,0,0,0,1.218-.1A5.587,5.587,0,0,0,71-9.261a2.513,2.513,0,0,0,.4-.189.636.636,0,0,1,.322-.112Zm14.5-.98a1.718,1.718,0,0,1,.406.357.646.646,0,0,1,.182.4.193.193,0,0,1-.042.14.629.629,0,0,1-.154.1.827.827,0,0,1-.126.07.586.586,0,0,0-.21.2,19.4,19.4,0,0,1-1.764,2.128,5.371,5.371,0,0,1,.616.252.408.408,0,0,1,.224.378,1.407,1.407,0,0,1-.07.336,4.485,4.485,0,0,0-.112.672v.294q-.014.294-.014,1.288,0,2.38.084,2.968a4.175,4.175,0,0,1,.042.56q0,.8-.49.8A.634.634,0,0,1,84.259.14a1.171,1.171,0,0,1-.189-.714q0-.448.014-.791t.028-.6q.056-1.008.056-1.484l-.014-2.184a3.115,3.115,0,0,0-.042-.56.928.928,0,0,0-.168-.392A16.608,16.608,0,0,1,79.38-3.374a.847.847,0,0,1-.28.084q-.1,0-.1-.042,0-.1.28-.28A28.345,28.345,0,0,0,82.4-6.293a18.446,18.446,0,0,0,2.058-2.38,3.363,3.363,0,0,0,.714-1.421.665.665,0,0,0-.2-.49,1.53,1.53,0,0,0-.126-.112q-.07-.056-.07-.084,0-.112.28-.112a2.072,2.072,0,0,1,1.17.35ZM99.89-2a.741.741,0,0,1-.532-.294,4.291,4.291,0,0,1-.266-.364.591.591,0,0,1-.1-.322.392.392,0,0,1,.056-.2,2.487,2.487,0,0,0,.126-.784l-.014-.9q0-.364.014-.56.028-.756.056-1.106.028-.56.028-.714a1.205,1.205,0,0,0-.154-.714,1.158,1.158,0,0,0-.427-.357q-.231-.1-.231-.161,0-.1.161-.161a1.2,1.2,0,0,1,.427-.063,1.836,1.836,0,0,1,.686.147,1.929,1.929,0,0,1,.609.378.667.667,0,0,1,.245.483.421.421,0,0,1-.049.2q-.049.091-.063.119a1.537,1.537,0,0,0-.21.532q-.07.462-.147,1.624t-.077,1.47q0,.2.154.2A3.21,3.21,0,0,0,101.316-4a19.639,19.639,0,0,0,1.96-1.232,26.4,26.4,0,0,0,2.24-1.764q.21-.2.28-.2a.062.062,0,0,1,.052.018.062.062,0,0,1,.018.052.589.589,0,0,1-.2.322,15.617,15.617,0,0,1-2.513,2.555,22.616,22.616,0,0,1-2.919,2.107A.576.576,0,0,1,99.89-2ZM92.932-.336q-.07,0-.07-.056A.383.383,0,0,1,93-.616a11.33,11.33,0,0,0,2.254-2.807,10.565,10.565,0,0,0,1.26-3.157,1.591,1.591,0,0,0,.07-.448.823.823,0,0,0-.42-.7Q95.9-7.9,95.9-7.98q0-.126.308-.126a1.838,1.838,0,0,1,.826.21,2.227,2.227,0,0,1,.665.462.779.779,0,0,1,.273.5.493.493,0,0,1-.07.238q-.07.126-.084.154a3.251,3.251,0,0,0-.266.6A8.311,8.311,0,0,1,96.488-3.8a12.879,12.879,0,0,1-1.659,2.009A9.091,9.091,0,0,1,93.1-.406a.372.372,0,0,1-.168.07Zm18.648.42a.753.753,0,0,1-.49-.252,1.7,1.7,0,0,1-.406-.588,9.024,9.024,0,0,1-.546-3.332,8.686,8.686,0,0,1,.14-1.645q.14-.721.378-1.533.154-.546.224-.861a2.865,2.865,0,0,0,.07-.623,1.8,1.8,0,0,0-.105-.6,1.255,1.255,0,0,0-.287-.483q-.028-.028-.084-.091a.185.185,0,0,1-.056-.119q0-.056.084-.056a.542.542,0,0,1,.224.07,2.739,2.739,0,0,1,.91.707,1.7,1.7,0,0,1,.35,1.113,2.017,2.017,0,0,1-.126.686,5.954,5.954,0,0,1-.378.812q-.14.28-.28.595a3.661,3.661,0,0,0-.21.6,4.013,4.013,0,0,0-.14,1.078,2.871,2.871,0,0,0,.07.651q.07.3.182.3.056,0,.133-.119l.105-.161.77-1.582q.1-.154.154-.154t.042.056l-.042.168q-.21.56-.441,1.379a5.161,5.161,0,0,0-.231,1.337,3.847,3.847,0,0,0,.07.728q.07.364.2.9a3.47,3.47,0,0,1,.126.588.421.421,0,0,1-.119.322.4.4,0,0,1-.291.109Zm5.082-7.854a3.649,3.649,0,0,1-1.232-.182,2.526,2.526,0,0,1-.77-.413,1.62,1.62,0,0,1-.448-.511.436.436,0,0,1-.056-.182q0-.056.042-.056a.437.437,0,0,1,.14.07,2.059,2.059,0,0,0,.2.112,2.809,2.809,0,0,0,1.078.2,8.079,8.079,0,0,0,1.022-.084,9.931,9.931,0,0,0,1.078-.2,1.152,1.152,0,0,1,.35-.07.982.982,0,0,1,.574.175.5.5,0,0,1,.252.413q0,.378-.714.553a6.333,6.333,0,0,1-1.516.175ZM117.1-.518a5.081,5.081,0,0,1-1.967-.343,2.1,2.1,0,0,1-1.169-1.253,1.086,1.086,0,0,1-.1-.322.049.049,0,0,1,.014-.042.049.049,0,0,1,.042-.014.205.205,0,0,1,.112.056q.07.056.112.084a3.159,3.159,0,0,0,1.26.6,4.146,4.146,0,0,0,.952.084,12.927,12.927,0,0,0,1.75-.154q.532-.056.574-.056a.882.882,0,0,1,.6.2.571.571,0,0,1,.224.434q0,.448-.679.588a8.8,8.8,0,0,1-1.725.138Zm13.426-10.43a12.779,12.779,0,0,1-2.758,3.087,16.053,16.053,0,0,1-3.752,2.4l-.084-.2a14.992,14.992,0,0,0,2.31-1.757,15.9,15.9,0,0,0,2.044-2.233,5.85,5.85,0,0,0,1.12-2.324l1.932.574a.252.252,0,0,1-.168.182,1.6,1.6,0,0,1-.406.084,8.693,8.693,0,0,0,2.38,2.268,16.611,16.611,0,0,0,3.374,1.722l-.014.2a1.273,1.273,0,0,0-.6.371,1.27,1.27,0,0,0-.322.6,12.722,12.722,0,0,1-3.045-2.17,8.841,8.841,0,0,1-2.015-2.8Zm-1.414,4.7a10.613,10.613,0,0,0-1.82.2l-.364-.7q.77.084,1.862.112h2.674l.322-.462q.056-.084.154-.217a1.808,1.808,0,0,1,.161-.2.177.177,0,0,1,.119-.063,1.078,1.078,0,0,1,.392.238,6.064,6.064,0,0,1,.581.511q.273.273.273.371-.056.21-.364.21Zm-1.7,6.99q0,.084-.308.224a1.508,1.508,0,0,1-.63.14.226.226,0,0,1-.182-.084.3.3,0,0,1-.07-.2q.056-.658.084-1.666v-.98a18.317,18.317,0,0,0-.182-2.87l1.372.616h5.376l.266-.336a1.708,1.708,0,0,0,.119-.14,1.12,1.12,0,0,1,.133-.147.171.171,0,0,1,.112-.049,1.12,1.12,0,0,1,.392.21,4.563,4.563,0,0,1,.567.455q.259.245.259.343a1.02,1.02,0,0,1-.588.28v1.386q.042,1.736.1,2.674a.947.947,0,0,1-.434.259,1.744,1.744,0,0,1-.6.133q-.224,0-.224-.28,0-.028.056-.35V.042h-5.614Zm0-4.41v3.3h5.614v-3.3ZM147.392-7.6a3.4,3.4,0,0,1,1.673.406,2.974,2.974,0,0,1,1.148,1.106,3.027,3.027,0,0,1,.413,1.568,3.347,3.347,0,0,1-.749,2.135A5.746,5.746,0,0,1,147.945-.84a9.348,9.348,0,0,1-2.513.854,1.374,1.374,0,0,1-.294.042q-.14,0-.14-.07t.168-.126a6.312,6.312,0,0,0,2.191-1.05,5.6,5.6,0,0,0,1.526-1.687,3.822,3.822,0,0,0,.553-1.925,2.235,2.235,0,0,0-.315-1.2,2.135,2.135,0,0,0-.861-.791,2.6,2.6,0,0,0-1.2-.28,3.984,3.984,0,0,0-1.813.483,6.173,6.173,0,0,0-1.757,1.379q-.014.238-.014.714a16.658,16.658,0,0,0,.294,3.234,2.7,2.7,0,0,1,.042.434.9.9,0,0,1-.133.532.375.375,0,0,1-.3.182.54.54,0,0,1-.4-.182.915.915,0,0,1-.231-.476,17.68,17.68,0,0,0-.588-2.408q-.182.336-.532,1.036a1.131,1.131,0,0,1-.329.434.625.625,0,0,1-.371.14.419.419,0,0,1-.308-.147.5.5,0,0,1-.14-.357.648.648,0,0,1,.056-.266,1.932,1.932,0,0,1,.329-.637q.259-.357.763-.931l.21-.252a7.485,7.485,0,0,0-.826-1.792,1.068,1.068,0,0,1-.308-.532.277.277,0,0,1,.147-.245.565.565,0,0,1,.3-.091l.28.014a2.188,2.188,0,0,0,.476-.042A1.616,1.616,0,0,0,142.3-7a5.78,5.78,0,0,0,.868-.616q.07-.84.14-1.246a9.99,9.99,0,0,0,.1-1.12,1.632,1.632,0,0,0-.476-1.2.8.8,0,0,0-.126-.126q-.084-.07-.084-.112,0-.07.14-.07a1.636,1.636,0,0,1,.658.182q.91.42.91,1.064a1.831,1.831,0,0,1-.21.728,3.446,3.446,0,0,0-.28.728,5.79,5.79,0,0,0-.14.672.68.68,0,0,1,.35-.14.755.755,0,0,1,.462.238.35.35,0,0,1,.14.308,1.182,1.182,0,0,1-.266.686q-.1.126-.35.5-.14.224-.224.336a6.3,6.3,0,0,1,.714-.5,5.262,5.262,0,0,1,2.766-.912ZM142-4.354q.014-.028.28-.364a8.684,8.684,0,0,0,.756-1.148l.056-.994a1.632,1.632,0,0,0-.28.259q-.126.147-.168.189a2.4,2.4,0,0,1-.252.266.83.83,0,0,1-.266.154,1.014,1.014,0,0,1-.392.07.886.886,0,0,1-.448-.154Zm.966-.21a1.082,1.082,0,0,0-.14.2q-.252.392-.49.826a5.857,5.857,0,0,0,.448.938l.014.014q.028,0,.049-.063a.388.388,0,0,0,.021-.077l.042-.6q0-.224.028-.588ZM166.544-7.5a.812.812,0,0,1,.238.217.439.439,0,0,1,.1.259.521.521,0,0,1-.154.371.487.487,0,0,1-.364.161,2.531,2.531,0,0,1-.35-.042,10.508,10.508,0,0,0-1.666-.168q-.392,0-1.036.028a11.4,11.4,0,0,1-.364,2.184q-.408,1.48-1.178,1.48-.238,0-.308-.091a.9.9,0,0,1-.126-.315,1.693,1.693,0,0,0-.287-.728q-.231-.336-.581-.756a.231.231,0,0,1-.1-.168.037.037,0,0,1,.01-.032.037.037,0,0,1,.032-.01.375.375,0,0,1,.182.07l.511.343a1.406,1.406,0,0,0,.6.287.285.285,0,0,0,.21-.084,4.236,4.236,0,0,0,.56-2.114,13.4,13.4,0,0,0-3.514.91,22.547,22.547,0,0,0,.28,3.612.928.928,0,0,0,.469.714,2.24,2.24,0,0,0,.945.168,10.814,10.814,0,0,0,1.239-.077,7.759,7.759,0,0,0,1.211-.231,2.36,2.36,0,0,1,.392-.056.943.943,0,0,1,.553.161.474.474,0,0,1,.231.4.468.468,0,0,1-.266.455,2.465,2.465,0,0,1-.7.2,12.977,12.977,0,0,1-1.918.14q-2.016,0-2.562-.7a1.607,1.607,0,0,1-.371-.812,13.225,13.225,0,0,1-.2-1.414q-.1-1.036-.126-2.184l-.14.07q-.574.28-.742.378a5.573,5.573,0,0,1-.581.259,1.268,1.268,0,0,1-.427.063,1.211,1.211,0,0,1-.931-.385,1.252,1.252,0,0,1-.357-.875.487.487,0,0,1,.035-.21q.035-.07.077-.07t.21.154a1.159,1.159,0,0,0,.812.308,2.785,2.785,0,0,0,.84-.182l1.148-.378q-.028-.63-.091-1.2a3.186,3.186,0,0,0-.147-.77,1.274,1.274,0,0,0-.245-.385,1.036,1.036,0,0,0-.329-.217Q157-8.876,157-8.974q0-.126.3-.217a1.923,1.923,0,0,1,.553-.091,1.4,1.4,0,0,1,1.036.406.577.577,0,0,1,.182.42,1.343,1.343,0,0,1-.014.2q-.014.091-.028.175a10.709,10.709,0,0,0-.07,1.638,25.515,25.515,0,0,1,3.57-.812l.014-.56q.014-.7-.028-1.274a1.049,1.049,0,0,0-.644-.952q-.14-.07-.14-.126,0-.112.182-.182a1.008,1.008,0,0,1,.364-.07,1.817,1.817,0,0,1,.532.091,1.525,1.525,0,0,1,.462.217.777.777,0,0,1,.35.63q0,.07-.084.546-.056.266-.07.35a9.049,9.049,0,0,0,1.19.665,2.917,2.917,0,0,0,1.106.315,2.178,2.178,0,0,0,.3.007,1.732,1.732,0,0,1,.273.007.386.386,0,0,1,.208.091Zm-2.7.154q.532,0,.532-.14,0-.07-.294-.287t-.658-.455l-.07.9Zm12.25-1.2q0,.238-.364.518A8.517,8.517,0,0,1,173.9-6.964q-.042.238-.154.714Q172.72-1.336,172.552-.8a2.507,2.507,0,0,1-.315.693A.47.47,0,0,1,171.85.1a.668.668,0,0,1-.469-.189.664.664,0,0,1-.2-.511,1.612,1.612,0,0,1,.168-.616,24.411,24.411,0,0,0,1.722-5.474,4.034,4.034,0,0,1-1.106.168,1.944,1.944,0,0,1-1.456-.84.268.268,0,0,1-.1-.168.074.074,0,0,1,.021-.063.074.074,0,0,1,.063-.021.832.832,0,0,1,.21.07,2.57,2.57,0,0,0,.924.2,3.213,3.213,0,0,0,.756-.112,7.66,7.66,0,0,0,.868-.28q.07-.462.182-1.33a2.769,2.769,0,0,0,.028-.392,1.182,1.182,0,0,0-.168-.686,2.081,2.081,0,0,0-.588-.5q-.112-.07-.112-.126t.1-.07a.956.956,0,0,1,.245-.028,2.142,2.142,0,0,1,.441.056,2.212,2.212,0,0,1,.469.154,1.555,1.555,0,0,1,.469.294.668.668,0,0,1,.175.5.787.787,0,0,1-.014.154q-.014.07-.028.126a1.911,1.911,0,0,0,.518.392,2.994,2.994,0,0,0,.546.2,2.322,2.322,0,0,1,.434.182.287.287,0,0,1,.144.256Zm-1.946.406q.644-.364.644-.56a.429.429,0,0,0-.091-.252q-.091-.126-.3-.364Zm6.482.21a1.35,1.35,0,0,1,.49.5,1.133,1.133,0,0,1,.168.539q0,.406-.672.5l-.385.056a3.347,3.347,0,0,0-.511.112,3.216,3.216,0,0,0-.5.2,3.5,3.5,0,0,0-.385.21.354.354,0,0,1-.168.056q-.07,0-.07-.056a.243.243,0,0,1,.07-.14q.084-.084.364-.322.406-.322.6-.511a.517.517,0,0,0,.2-.343q0-.14-.21-.294a1.806,1.806,0,0,0-.672-.329,2.739,2.739,0,0,0-.658-.091,1.493,1.493,0,0,0-.259.021,1.257,1.257,0,0,1-.147.021q-.2,0-.2-.112,0-.084.182-.168a3.785,3.785,0,0,1,1.26-.238,3.157,3.157,0,0,1,.833.1,2.345,2.345,0,0,1,.668.276ZM180.056-1.1q.644,0,.812.28a.452.452,0,0,1,.1.308.561.561,0,0,1-.427.567A3.771,3.771,0,0,1,179.354.2a4.974,4.974,0,0,1-2.492-.56,1.84,1.84,0,0,1-.98-1.708,2.26,2.26,0,0,1,.056-.518,1.467,1.467,0,0,1,.126-.364q.084-.154.168-.28t.154-.126q.056,0,.056.084a.68.68,0,0,1-.028.161,1.666,1.666,0,0,0-.042.189,1.312,1.312,0,0,0-.014.21,1.743,1.743,0,0,0,.119.6,1.441,1.441,0,0,0,.427.588,1.957,1.957,0,0,0,.735.357,3.974,3.974,0,0,0,1.127.147q.14,0,.329-.014l.371-.028a5.689,5.689,0,0,1,.588-.044Zm12.152-9.8a14.134,14.134,0,0,1-2.828,3.2,17.114,17.114,0,0,1-3.766,2.527l-.084-.182a15.646,15.646,0,0,0,2.3-1.869,18.229,18.229,0,0,0,2.086-2.38,8.619,8.619,0,0,0,1.239-2.233l1.848.476a.233.233,0,0,1-.154.189,1.384,1.384,0,0,1-.406.091,8.746,8.746,0,0,0,2.38,2.338,18.19,18.19,0,0,0,3.4,1.834l-.014.21a1.2,1.2,0,0,0-.623.364,1.4,1.4,0,0,0-.343.63A13.619,13.619,0,0,1,194.212-8a9.308,9.308,0,0,1-2.006-2.9Zm2.6,7.266q.056-.07.147-.189A1.887,1.887,0,0,1,195.109-4a.177.177,0,0,1,.119-.063,1.139,1.139,0,0,1,.4.224,5.944,5.944,0,0,1,.588.476q.273.252.273.35-.042.224-.364.224h-3.808v3h3.416l.336-.476L196.23-.5a1.433,1.433,0,0,1,.154-.2A.177.177,0,0,1,196.5-.76a1.186,1.186,0,0,1,.413.252,6.816,6.816,0,0,1,.616.532q.287.28.287.378-.042.224-.35.224h-9.156a14.186,14.186,0,0,0-2.1.2L185.836.1q.77.084,1.862.112h3.514V-2.8H189.98a14.186,14.186,0,0,0-2.1.2l-.364-.714q.77.084,1.862.112h1.834v-2.65H190.12a12.565,12.565,0,0,0-1.988.2l-.35-.714q.77.084,1.862.112H194l.308-.42q.056-.07.147-.189a1.863,1.863,0,0,1,.147-.175.161.161,0,0,1,.112-.056,1.064,1.064,0,0,1,.385.217,5.455,5.455,0,0,1,.56.462q.259.245.259.343-.056.224-.364.224H192.32V-3.2h2.18Zm10.964-2.786a2.585,2.585,0,0,1,1.456.406,2.676,2.676,0,0,1,.945,1.078,3.266,3.266,0,0,1,.329,1.456,4.283,4.283,0,0,1-.392,1.834A3.293,3.293,0,0,1,206.99-.3a2.879,2.879,0,0,1-1.68.5,2.953,2.953,0,0,1-1.771-.56,3.626,3.626,0,0,1-1.2-1.554A5.736,5.736,0,0,1,201.91-4.2a8.6,8.6,0,0,1,.588-3.353,5.1,5.1,0,0,1,1.484-2.093,2.924,2.924,0,0,1,1.806-.7,3.062,3.062,0,0,1,1.225.217,1.736,1.736,0,0,1,.735.546,1.094,1.094,0,0,1,.238.637.737.737,0,0,1-.224.553.739.739,0,0,1-.532.217.777.777,0,0,1-.588-.273,1.13,1.13,0,0,1-.28-.721.883.883,0,0,0-.175-.518.592.592,0,0,0-.469-.168q-1.064,0-1.631,1.449A11.414,11.414,0,0,0,203.38-5.1a3.009,3.009,0,0,1,1.085-.994,2.774,2.774,0,0,1,1.309-.332Zm-.46,6.068a1.281,1.281,0,0,0,.945-.406,2.684,2.684,0,0,0,.616-1.085,4.828,4.828,0,0,0,.217-1.477,2.561,2.561,0,0,0-.56-1.946,1.814,1.814,0,0,0-1.218-.49,1.927,1.927,0,0,0-1.106.378,2.45,2.45,0,0,0-.854,1.162,8.143,8.143,0,0,0,.406,2.723A1.537,1.537,0,0,0,205.312-.35Zm16.41-9.212a1.065,1.065,0,0,1,.5.2,3.068,3.068,0,0,1,.567.455q.245.252.245.392a.261.261,0,0,1-.07.2.9.9,0,0,1-.224.133,2.98,2.98,0,0,0-.3.182.858.858,0,0,0-.231.28A21.978,21.978,0,0,1,220.2-4.83a4.943,4.943,0,0,1,.84.91,1.491,1.491,0,0,1,.308.826.843.843,0,0,1-.161.539.5.5,0,0,1-.413.2.528.528,0,0,1-.357-.161,1.41,1.41,0,0,1-.3-.413q-.364-.672-.644-1.092A16.312,16.312,0,0,1,212.818.2a1.206,1.206,0,0,1-.266.056q-.112,0-.112-.07t.294-.21a16.5,16.5,0,0,0,3.4-2.142,20.608,20.608,0,0,0,2.73-2.674,5.7,5.7,0,0,0-.651-.7q-.315-.28-.861-.742l-.322-.252q-.084-.07-.084-.126t.07-.056a.772.772,0,0,1,.154.042,11.544,11.544,0,0,1,2.2,1.2q.56-.714.973-1.358a12.177,12.177,0,0,0,.63-1.078,1.88,1.88,0,0,0,.217-.546.147.147,0,0,0-.042-.119.22.22,0,0,0-.14-.035l-.308.042a8.121,8.121,0,0,1-1.554.182,2.228,2.228,0,0,1-.91-.14A18.442,18.442,0,0,1,216.22-6.2a8.224,8.224,0,0,1-2.072,1.6.4.4,0,0,1-.21.07q-.1,0-.1-.07t.182-.238a11.2,11.2,0,0,0,1.449-1.512A16.385,16.385,0,0,0,216.85-8.3a5.261,5.261,0,0,0,.7-1.568,2.282,2.282,0,0,0,.028-.28q0-.518-.448-.518a.646.646,0,0,1-.091-.007.52.52,0,0,1-.091-.021q-.042-.014-.042-.042,0-.112.238-.2a1.227,1.227,0,0,1,.434-.091,1.364,1.364,0,0,1,.616.2,3.284,3.284,0,0,1,.644.448q.28.252.28.42a.4.4,0,0,1-.105.231q-.1.133-.161.217a3.93,3.93,0,0,1-.308.546.96.96,0,0,0,.182.014,9.666,9.666,0,0,0,1.218-.1,5.587,5.587,0,0,0,1.05-.21,2.511,2.511,0,0,0,.406-.182A.636.636,0,0,1,221.722-9.562Zm14.5-.98a1.718,1.718,0,0,1,.406.357.647.647,0,0,1,.182.4.193.193,0,0,1-.042.14.628.628,0,0,1-.154.1.828.828,0,0,1-.126.07.587.587,0,0,0-.21.2,19.4,19.4,0,0,1-1.764,2.128,5.371,5.371,0,0,1,.616.252.408.408,0,0,1,.224.378,1.406,1.406,0,0,1-.07.336,4.487,4.487,0,0,0-.112.672v.294q-.014.294-.014,1.288,0,2.38.084,2.968a4.176,4.176,0,0,1,.042.56q0,.8-.49.8a.634.634,0,0,1-.539-.252,1.171,1.171,0,0,1-.189-.714q0-.448.014-.791t.028-.6q.056-1.008.056-1.484l-.014-2.184a3.114,3.114,0,0,0-.042-.56.928.928,0,0,0-.168-.392,16.608,16.608,0,0,1-4.564,3.206.847.847,0,0,1-.28.084q-.1,0-.1-.042,0-.1.28-.28A28.347,28.347,0,0,0,232.4-6.293a18.445,18.445,0,0,0,2.058-2.38,3.363,3.363,0,0,0,.714-1.421.665.665,0,0,0-.2-.49,1.532,1.532,0,0,0-.126-.112q-.07-.056-.07-.084,0-.112.28-.112a2.072,2.072,0,0,1,1.17.35ZM254.776-9a1.308,1.308,0,0,1-.952-.385,1.273,1.273,0,0,1-.392-.945,1.273,1.273,0,0,1,.392-.945,1.308,1.308,0,0,1,.952-.385,1.273,1.273,0,0,1,.945.392,1.292,1.292,0,0,1,.385.938,1.273,1.273,0,0,1-.392.945,1.292,1.292,0,0,1-.938.385Zm0-.378a.917.917,0,0,0,.672-.28.916.916,0,0,0,.28-.672.94.94,0,0,0-.28-.679.9.9,0,0,0-.672-.287.905.905,0,0,0-.672.287.94.94,0,0,0-.28.679.916.916,0,0,0,.28.672.917.917,0,0,0,.672.278ZM244.7.14q-.1,0-.1-.07t.28-.238A15.968,15.968,0,0,0,249.071-3.2a15.234,15.234,0,0,0,2.471-3.2,6.375,6.375,0,0,0,.826-1.96q0-.112-.126-.112t-1.155.14q-1.029.14-2.2.364a19.541,19.541,0,0,0-1.953.462,1.9,1.9,0,0,1-.574.1,1.191,1.191,0,0,1-.756-.252,1.754,1.754,0,0,1-.434-.574,1.414,1.414,0,0,1-.182-.588q0-.154.126-.154a.7.7,0,0,1,.322.112,2.956,2.956,0,0,0,.518.168,2.36,2.36,0,0,0,.462.042q.434,0,2.527-.168a19.947,19.947,0,0,0,2.541-.294,2.807,2.807,0,0,0,.5-.2,2.539,2.539,0,0,1,.644-.2,1.161,1.161,0,0,1,.5.224,3.388,3.388,0,0,1,.63.518.813.813,0,0,1,.28.49.494.494,0,0,1-.084.28,2.9,2.9,0,0,1-.28.336,3.373,3.373,0,0,0-.518.686,13.881,13.881,0,0,1-2.128,3.122,12.537,12.537,0,0,1-2.646,2.184A25.32,25.32,0,0,1,244.934.07a.743.743,0,0,1-.234.07Z" transform="translate(86.956 230)" fill="#e3e8f1"/>
      <path id="パス_13" data-name="パス 13" d="M4.55,0a.274.274,0,0,1-.275-.175A1.4,1.4,0,0,1,4.2-.7a1.4,1.4,0,0,1,.075-.525A.274.274,0,0,1,4.55-1.4H5.3Q11-1.4,11-4.8V-28.05a5.664,5.664,0,0,0-.325-2.3,1.7,1.7,0,0,0-1.35-.825A25.077,25.077,0,0,0,5.7-31.35H4.6q-.35,0-.35-.7t.35-.7a18.318,18.318,0,0,0,6.075-1.15,17.522,17.522,0,0,0,5.075-3.05V-4.8q0,3.4,5.75,3.4h.7a.274.274,0,0,1,.275.175A1.4,1.4,0,0,1,22.55-.7q0,.7-.35.7ZM32.343,0A.148.148,0,0,1,32.2-.1a.756.756,0,0,1-.041-.284q0-.378.189-.378h.4A3.127,3.127,0,0,0,34.5-1.148a1.637,1.637,0,0,0,.567-1.444V-17.118a1.639,1.639,0,0,0-.594-1.458,3.065,3.065,0,0,0-1.728-.405h-.4q-.189,0-.189-.378,0-.351.189-.351h8.046a.17.17,0,0,1,.175.095.756.756,0,0,1,.041.283q0,.351-.216.351h-.378a2.976,2.976,0,0,0-1.742.419,1.662,1.662,0,0,0-.581,1.444V-2.484a1.346,1.346,0,0,0,.554,1.269,4.288,4.288,0,0,0,1.8.4l.621.027,1-.027a6.83,6.83,0,0,0,3.9-1.2,12.675,12.675,0,0,0,2.794-2.9.37.37,0,0,1,.216-.135.622.622,0,0,1,.243.081q.216.108.216.27L49-4.563l-.43,1.107Q47.49-.54,47.3,0ZM54.591,0q-.216,0-.216-.378,0-.351.216-.351H55a3.007,3.007,0,0,0,1.7-.391,1.637,1.637,0,0,0,.567-1.445V-17.118A1.671,1.671,0,0,0,56.7-18.59a3.007,3.007,0,0,0-1.7-.392h-.4q-.189,0-.189-.378,0-.351.189-.351l3.7-.027q2.835,0,4.644.081A12.331,12.331,0,0,1,67.6-18.536a8.565,8.565,0,0,1,3.618,3.172,9.854,9.854,0,0,1,1.417,5.508A9.8,9.8,0,0,1,71.21-4.374a8.66,8.66,0,0,1-3.618,3.186A12.179,12.179,0,0,1,62.934-.054q-1.107.081-4.266.081ZM62.34-.81a7.8,7.8,0,0,0,3.213-.756,6.8,6.8,0,0,0,2.916-2.781,10.491,10.491,0,0,0,1.242-5.508,10.477,10.477,0,0,0-1.242-5.522,6.81,6.81,0,0,0-2.916-2.767A7.8,7.8,0,0,0,62.34-18.9h-.189a3.126,3.126,0,0,0-1.769.378,1.521,1.521,0,0,0-.527,1.323V-2.484a1.488,1.488,0,0,0,.527,1.3,3.126,3.126,0,0,0,1.769.378Zm36.423.054q.189,0,.189.378T98.763,0h-8.4q-.189,0-.189-.378t.189-.378q2.025,0,2.025-.81a1.89,1.89,0,0,0-.459-1l-5.91-7.208q-.756.81-1.485,1.485l-.648.648v5.049a1.637,1.637,0,0,0,.567,1.444,3.007,3.007,0,0,0,1.7.391h.432q.189,0,.189.378T86.586,0H78.54q-.189,0-.189-.378a.756.756,0,0,1,.04-.283.148.148,0,0,1,.149-.095h.4a3.067,3.067,0,0,0,1.728-.391,1.637,1.637,0,0,0,.567-1.444V-17.118a1.671,1.671,0,0,0-.567-1.472,3.067,3.067,0,0,0-1.728-.392h-.4q-.189,0-.189-.351,0-.378.189-.378h8.046a.17.17,0,0,1,.175.1.756.756,0,0,1,.041.283q0,.351-.216.351h-.432a2.918,2.918,0,0,0-1.715.405,1.7,1.7,0,0,0-.553,1.458v8.046q1.944-1.917,4.32-4.347t3.483-3.618a1.432,1.432,0,0,0,.4-.864.886.886,0,0,0-.513-.783,2.872,2.872,0,0,0-1.431-.3q-.189,0-.189-.378,0-.351.189-.351h7.317a.177.177,0,0,1,.176.081.65.65,0,0,1,.04.27q0,.378-.216.378a5.852,5.852,0,0,0-4.023,1.836q-.216.189-2.592,2.565L87.9-11.668l.459.567q4.4,5.508,6.507,8.046a9.494,9.494,0,0,0,1.9,1.809,3.662,3.662,0,0,0,1.993.49ZM120.2-7.965a9.274,9.274,0,0,1-2.228-.284,21.6,21.6,0,0,1-2.66-.878q-2.079-.864-3.321-1.269a8.054,8.054,0,0,0-2.511-.4,7.035,7.035,0,0,0-2.768.554,15.045,15.045,0,0,0-2.551,1.391.333.333,0,0,1-.189.081.28.28,0,0,1-.175-.081q-.094-.081-.094-.135a.262.262,0,0,1,.054-.135,9.65,9.65,0,0,1,2.66-2.335,7.284,7.284,0,0,1,3.982-1.12,9.605,9.605,0,0,1,2.255.283,19.776,19.776,0,0,1,2.66.877l.54.216q1.809.756,2.956,1.121a7.586,7.586,0,0,0,2.309.364,6.938,6.938,0,0,0,2.754-.553,15.105,15.105,0,0,0,2.565-1.418.854.854,0,0,1,.189-.081.28.28,0,0,1,.175.081q.094.081.094.135a.262.262,0,0,1-.054.135,9.65,9.65,0,0,1-2.66,2.336,7.284,7.284,0,0,1-3.982,1.12ZM146.964-19.35a14.04,14.04,0,0,1,7.075,3.275,7.944,7.944,0,0,1,2.725,6.125,10.105,10.105,0,0,1-1.375,5,10.7,10.7,0,0,1-4.2,4.05A13.863,13.863,0,0,1,144.264.7a12.169,12.169,0,0,1-5.725-1.225,8.652,8.652,0,0,1-3.45-3.05A6.87,6.87,0,0,1,133.964-7.2a3.263,3.263,0,0,1,.9-2.525,2.892,2.892,0,0,1,2-.825,3.511,3.511,0,0,1,2.125.675,2.291,2.291,0,0,1,.925,1.975,2.825,2.825,0,0,1-.7,1.7,4.811,4.811,0,0,0-.5.75,1.67,1.67,0,0,0-.15.75,3.336,3.336,0,0,0,1.275,2.6A5.991,5.991,0,0,0,143.814-1a6.733,6.733,0,0,0,5.55-2.65,10.374,10.374,0,0,0,2.1-6.65,8.714,8.714,0,0,0-1.975-5.925,7.047,7.047,0,0,0-5.625-2.275,8.149,8.149,0,0,0-1.05.1,8.677,8.677,0,0,1-1.2.1,1.411,1.411,0,0,1-.95-.3,1,1,0,0,1-.35-.8.923.923,0,0,1,.375-.75,1.434,1.434,0,0,1,.925-.3,5.35,5.35,0,0,1,1.3.15,10.743,10.743,0,0,0,1.25.1,6.8,6.8,0,0,0,4.125-1.425q1.925-1.425,1.925-6.025,0-4.1-1.775-5.825a5.854,5.854,0,0,0-4.225-1.725,6.061,6.061,0,0,0-2.875.7,2.489,2.489,0,0,0-1.325,2.4,2.7,2.7,0,0,0,.2,1.1q.2.45.25.55a3.083,3.083,0,0,1,.45,1.5,2.4,2.4,0,0,1-.675,1.775,2.274,2.274,0,0,1-1.675.675,2.759,2.759,0,0,1-2.325-1,3.879,3.879,0,0,1-.775-2.45,5.365,5.365,0,0,1,1.2-3.1,9.422,9.422,0,0,1,3.375-2.775,10.452,10.452,0,0,1,4.875-1.125,12.119,12.119,0,0,1,5.4,1.175,9.125,9.125,0,0,1,3.725,3.2,8.086,8.086,0,0,1,1.325,4.525,8.24,8.24,0,0,1-2.1,5.6,10.3,10.3,0,0,1-6.3,3.1ZM165.807,0a.148.148,0,0,1-.148-.095.756.756,0,0,1-.04-.284q0-.378.189-.378h.4a3.127,3.127,0,0,0,1.755-.391,1.637,1.637,0,0,0,.567-1.444V-17.118a1.639,1.639,0,0,0-.594-1.458,3.065,3.065,0,0,0-1.728-.405h-.4q-.189,0-.189-.378,0-.351.189-.351h8.046a.17.17,0,0,1,.176.095.756.756,0,0,1,.04.283q0,.351-.216.351h-.378a2.976,2.976,0,0,0-1.742.419,1.662,1.662,0,0,0-.581,1.444V-2.484a1.346,1.346,0,0,0,.554,1.269,4.288,4.288,0,0,0,1.8.4l.621.027,1-.027a6.83,6.83,0,0,0,3.9-1.2,12.675,12.675,0,0,0,2.8-2.9.37.37,0,0,1,.216-.135.622.622,0,0,1,.243.081q.216.108.216.27l-.027.135-.432,1.107Q180.954-.54,180.765,0Zm22.248,0q-.216,0-.216-.378,0-.351.216-.351h.4a3.007,3.007,0,0,0,1.7-.391,1.637,1.637,0,0,0,.567-1.445V-17.118a1.671,1.671,0,0,0-.567-1.472,3.007,3.007,0,0,0-1.7-.392h-.4q-.189,0-.189-.378,0-.351.189-.351l3.7-.027q2.835,0,4.644.081a12.331,12.331,0,0,1,4.658,1.121,8.565,8.565,0,0,1,3.618,3.172,9.855,9.855,0,0,1,1.417,5.508,9.8,9.8,0,0,1-1.417,5.481,8.66,8.66,0,0,1-3.618,3.186A12.179,12.179,0,0,1,196.4-.054q-1.107.081-4.266.081ZM195.8-.81a7.8,7.8,0,0,0,3.213-.756,6.8,6.8,0,0,0,2.916-2.781,10.491,10.491,0,0,0,1.242-5.508,10.477,10.477,0,0,0-1.242-5.522,6.81,6.81,0,0,0-2.916-2.767A7.8,7.8,0,0,0,195.8-18.9h-.189a3.125,3.125,0,0,0-1.768.378,1.521,1.521,0,0,0-.527,1.323V-2.484a1.488,1.488,0,0,0,.527,1.3,3.125,3.125,0,0,0,1.768.378Zm36.423.054q.189,0,.189.378T232.227,0h-8.4q-.189,0-.189-.378t.189-.378q2.025,0,2.025-.81a1.89,1.89,0,0,0-.459-1L219.48-9.775q-.756.81-1.485,1.485l-.648.648v5.049a1.637,1.637,0,0,0,.567,1.444,3.007,3.007,0,0,0,1.7.391h.432q.189,0,.189.378T220.05,0H212q-.189,0-.189-.378a.757.757,0,0,1,.04-.283.148.148,0,0,1,.149-.1h.4a3.067,3.067,0,0,0,1.728-.391,1.637,1.637,0,0,0,.567-1.444V-17.118a1.671,1.671,0,0,0-.567-1.472,3.067,3.067,0,0,0-1.728-.392H212q-.189,0-.189-.351,0-.378.189-.378h8.046a.17.17,0,0,1,.176.1.756.756,0,0,1,.04.283q0,.351-.216.351h-.432a2.918,2.918,0,0,0-1.714.405,1.7,1.7,0,0,0-.554,1.458v8.046q1.944-1.917,4.32-4.347t3.483-3.618a1.432,1.432,0,0,0,.4-.864.886.886,0,0,0-.513-.783,2.872,2.872,0,0,0-1.431-.3q-.189,0-.189-.378,0-.351.189-.351h7.317a.177.177,0,0,1,.175.081.649.649,0,0,1,.041.27q0,.378-.216.378a5.852,5.852,0,0,0-4.023,1.836q-.216.189-2.592,2.565l-2.943,2.916.459.567q4.4,5.508,6.507,8.046a9.494,9.494,0,0,0,1.9,1.809,3.662,3.662,0,0,0,2,.49Z" transform="translate(97.8 283)" fill="#e3e8f1"/>
    </g>
    <g id="グループ_3" data-name="グループ 3" transform="translate(13 -78.1)">
      <path id="パス_12" data-name="パス 12" d="M2.744-8.988a18.315,18.315,0,0,0-.182-2.87,11.11,11.11,0,0,1,1.232.385q.35.147.35.245,0,.07-.112.14l-.238.154V-2.6Q3.822-.864,3.906.69A.773.773,0,0,1,3.535,1a1.313,1.313,0,0,1-.581.14.4.4,0,0,1-.259-.084.246.246,0,0,1-.1-.2q.056-.826.1-1.6t.056-2.037Zm9.324,3.416a1.85,1.85,0,0,0,.119-.2,1.538,1.538,0,0,1,.133-.21.152.152,0,0,1,.112-.07q.126,0,.553.483t.427.637q-.056.21-.35.21H8.82a5.333,5.333,0,0,0,1.414,2.576,7.713,7.713,0,0,0,3.192,1.8L13.4-.182a1.313,1.313,0,0,0-.658.308,1.149,1.149,0,0,0-.308.686A5.849,5.849,0,0,1,9.7-1.435,8.711,8.711,0,0,1,8.554-4.718H8.512A8.416,8.416,0,0,1,7.84-2.331a5.457,5.457,0,0,1-1.372,1.8A8.227,8.227,0,0,1,4.116.84L3.962.616a6.371,6.371,0,0,0,2.464-2.17,7.862,7.862,0,0,0,1.05-3.164H6.44a11.568,11.568,0,0,0-1.9.2l-.364-.7q.77.084,1.862.112h1.48a32.913,32.913,0,0,0,.14-3.444H6.9a6,6,0,0,0-1.344.2L5.18-9.086q.7.084,1.68.112h.8l-.014-2.66a7.6,7.6,0,0,1,1.113.315q.315.133.315.231,0,.07-.112.14l-.224.154-.014,1.82h1.75l.252-.294q.042-.056.154-.182a.3.3,0,0,1,.2-.126.946.946,0,0,1,.357.189,4.879,4.879,0,0,1,.511.406q.238.217.238.315a1.216,1.216,0,0,1-.574.294V-5.11h.21ZM4.144-9.31a3.273,3.273,0,0,1,1.022.917,1.652,1.652,0,0,1,.322.9A.794.794,0,0,1,5.341-7a.435.435,0,0,1-.357.2A.576.576,0,0,1,4.578-7,3.734,3.734,0,0,0,4.41-8.141a5.863,5.863,0,0,0-.434-1.1Zm-2.156.266a5.8,5.8,0,0,1,.238,1.61,3.976,3.976,0,0,1-.1.917,2.056,2.056,0,0,1-.266.665.712.712,0,0,1-.273.266.7.7,0,0,1-.343.1A.452.452,0,0,1,.868-5.67a.615.615,0,0,1-.084-.294.912.912,0,0,1,.28-.6,2.978,2.978,0,0,0,.5-1.078A4.431,4.431,0,0,0,1.75-9.058ZM10.6-5.11V-8.554H8.722Q8.694-6.272,8.554-5.11Zm14.476.084q.028-.042.084-.119a1.026,1.026,0,0,1,.1-.119.134.134,0,0,1,.1-.042q.126,0,.469.35t.343.5a.839.839,0,0,1-.49.238v2.2a.459.459,0,0,1-.182.14q.84.07,1.064.07a.278.278,0,0,0,.2-.063.3.3,0,0,0,.063-.217v-5.64H21.168v3.234q.028,1.736.112,3.29a.876.876,0,0,1-.371.308,1.256,1.256,0,0,1-.581.14.269.269,0,0,1-.2-.084.269.269,0,0,1-.084-.2q.1-1.414.126-3.108v-1.69a18.315,18.315,0,0,0-.182-2.87l1.246.574h1.2a.627.627,0,0,1-.28-.168,2.227,2.227,0,0,0-.168-.8,3.254,3.254,0,0,0-.392-.742l.112-.07H21.02a4.555,4.555,0,0,0-1.176.2l-.364-.714q.77.084,1.862.112H23.4a10.58,10.58,0,0,0-.1-1.582,10.829,10.829,0,0,1,1.162.357q.322.133.322.231,0,.042-.112.126l-.224.14v.728h2.226l.308-.434q.056-.07.147-.189a1.891,1.891,0,0,1,.154-.182.177.177,0,0,1,.119-.063,1.054,1.054,0,0,1,.385.224,5.57,5.57,0,0,1,.56.476q.259.252.259.35-.014.224-.336.224H25.312q1.3.252,1.3.42,0,.07-.112.112l-.238.1a9.437,9.437,0,0,1-1.12,1.148h1.54l.21-.322.14-.189q.1-.133.182-.133a1.046,1.046,0,0,1,.378.2,5.067,5.067,0,0,1,.546.434q.252.231.252.329a.693.693,0,0,1-.224.161,1.137,1.137,0,0,1-.35.105v5.558a2,2,0,0,1-.1.693.806.806,0,0,1-.4.42,2.471,2.471,0,0,1-.9.217,1.141,1.141,0,0,0-.238-.686,1.96,1.96,0,0,0-.952-.336v-.1a1.179,1.179,0,0,1-.21.028h-.154v-.658H22.946v.672q0,.07-.231.175a1.094,1.094,0,0,1-.455.1.149.149,0,0,1-.133-.084.382.382,0,0,1-.049-.2q.042-.308.056-.644a2.855,2.855,0,0,1,.014-.308v-.6a12.959,12.959,0,0,0-.112-1.918l.98.462h.49V-6.02h-.658a4.041,4.041,0,0,0-1.12.2l-.35-.7a14.094,14.094,0,0,0,1.456.112h.672a7.464,7.464,0,0,0-.07-1.162q1.162.378,1.162.56a.126.126,0,0,1-.084.112l-.168.126v.364h.91l.21-.322.091-.133A1.038,1.038,0,0,1,25.669-7a.147.147,0,0,1,.1-.049q.14,0,.5.329t.357.483q-.042.224-.336.224H24.346v1.26h.56Zm-8.2-6.328a4.274,4.274,0,0,1,1.848.98,1.74,1.74,0,0,1,.588,1.19.768.768,0,0,1-.161.5.5.5,0,0,1-.4.2.767.767,0,0,1-.462-.182,3.771,3.771,0,0,0-.567-1.344,7.221,7.221,0,0,0-.973-1.232ZM21.8-9.912a2.45,2.45,0,0,1,1.05.546.968.968,0,0,1,.336.672.6.6,0,0,1-.1.343.58.58,0,0,1-.266.217h1.89a10.8,10.8,0,0,0,.5-1.778ZM18.032-6.174q.042-.056.119-.175a1.109,1.109,0,0,1,.133-.175A.161.161,0,0,1,18.4-6.58a1.078,1.078,0,0,1,.392.238,5.99,5.99,0,0,1,.574.5q.266.266.266.364a1.057,1.057,0,0,1-.658.28v3.682a3.2,3.2,0,0,0,1.015.805,4.1,4.1,0,0,0,1.281.35A17.594,17.594,0,0,0,23.3-.27q3.724,0,5.376-.056v.2a.913.913,0,0,0-.76.926H23.31A11.132,11.132,0,0,1,21.2.637a3.174,3.174,0,0,1-1.365-.6,4.143,4.143,0,0,1-1.022-1.281A20.485,20.485,0,0,1,17.024.77V.84a.279.279,0,0,1-.168.266L16.17-.2q.728-.35,1.778-.966V-5.348h-.574a2.99,2.99,0,0,0-.952.2l-.336-.728a8.847,8.847,0,0,0,1.148.112h.532Zm4.914,1.82v1.54h1.918v-1.54ZM37.828-9.226a7.883,7.883,0,0,1-1.75.882Q35.7-7.28,34.937-5.278t-.973,2.506a.836.836,0,0,1-.287.357.663.663,0,0,1-.385.133q-.42,0-.42-.868a.84.84,0,0,1,.028-.259,1.371,1.371,0,0,1,.14-.245,3.109,3.109,0,0,0,.294-.476l.322-.6q.532-.952.917-1.736a13.02,13.02,0,0,0,.665-1.624,1.947,1.947,0,0,1-.378.042,1.525,1.525,0,0,1-1.036-.329,2.426,2.426,0,0,1-.574-.707.578.578,0,0,1-.084-.266q0-.07.056-.07t.2.14a1.158,1.158,0,0,0,.483.252,2.307,2.307,0,0,0,.623.084,4.247,4.247,0,0,0,.98-.168,2.713,2.713,0,0,0,.056-.56,1.11,1.11,0,0,0-.238-.784,1.208,1.208,0,0,0-.315-.245q-.189-.105-.189-.147,0-.07.112-.112A.8.8,0,0,1,35.21-11a1.344,1.344,0,0,1,.476.084,1.641,1.641,0,0,1,.553.294.7.7,0,0,1,.231.42.52.52,0,0,1,.224-.028l.63-.014a.985.985,0,0,0,.175-.014.9.9,0,0,1,.161-.014.664.664,0,0,1,.154.014.369.369,0,0,1,.266.133.437.437,0,0,1,.1.287.662.662,0,0,1-.1.336A.907.907,0,0,1,37.828-9.226ZM36.5-9.982a2.263,2.263,0,0,1-.084.56.441.441,0,0,1,.1-.049.418.418,0,0,0,.119-.063q.28-.168.28-.266,0-.07-.154-.154a1.26,1.26,0,0,1-.14-.063.334.334,0,0,1-.126-.091Zm4.018,2.716a1.129,1.129,0,0,0-.924.434,1.942,1.942,0,0,0-.35,1.246,9.185,9.185,0,0,0,.056,1q.056.511.168,1.239.084.56.112.84a8.084,8.084,0,0,1,1.2.385,2.962,2.962,0,0,1,.854.5,1.185,1.185,0,0,1,.3.336.682.682,0,0,1,.1.336.485.485,0,0,1-.126.336.4.4,0,0,1-.308.14.819.819,0,0,1-.371-.1,5.184,5.184,0,0,1-.5-.326,5.355,5.355,0,0,0-1.05-.546V-1.2A1.483,1.483,0,0,1,39.067.042,2.329,2.329,0,0,1,37.618.5a2.6,2.6,0,0,1-.966-.189,1.948,1.948,0,0,1-.784-.553A1.281,1.281,0,0,1,35.56-1.1a1.32,1.32,0,0,1,.756-1.2,3.676,3.676,0,0,1,1.834-.427q.126,0,.49.028l-.014-.56q-.028-.84-.028-1.218a6.634,6.634,0,0,1,.154-1.61,1.938,1.938,0,0,1,.623-.994,3.979,3.979,0,0,1,1.421-.7q.252-.084.252-.252,0-.28-.658-.84-.112-.07-.112-.112t.126-.042a1.524,1.524,0,0,1,.287.035,1.44,1.44,0,0,1,.3.091,3.359,3.359,0,0,1,1.092.637,1.222,1.222,0,0,1,.518.9.653.653,0,0,1-.2.49.655.655,0,0,1-.469.2.711.711,0,0,1-.322-.07,2.574,2.574,0,0,1-.364-.238,2,2,0,0,0-.371-.224.886.886,0,0,0-.359-.064ZM37.38-.322A1.134,1.134,0,0,0,38.388-.7a1.954,1.954,0,0,0,.266-1.05,5.177,5.177,0,0,0-1.078-.126,2.607,2.607,0,0,0-1.036.182.6.6,0,0,0-.42.56.658.658,0,0,0,.378.6,1.787,1.787,0,0,0,.882.212ZM49.6-5.39a11.608,11.608,0,0,1-2.59,3.542l-.168-.168a12.064,12.064,0,0,0,1.54-2.744,18.08,18.08,0,0,0,.994-3.3H48.65a5.62,5.62,0,0,0-1.316.2l-.364-.714q.742.084,1.792.112h.84v-.49a18.315,18.315,0,0,0-.182-2.87,10.447,10.447,0,0,1,1.239.371q.357.147.357.245,0,.07-.126.14l-.238.168V-8.47h.672l.294-.434q.056-.07.147-.2a1.75,1.75,0,0,1,.147-.189.155.155,0,0,1,.112-.063.936.936,0,0,1,.364.224,4.631,4.631,0,0,1,.518.483q.238.259.238.357-.042.224-.35.224H50.652V-6.78a4.221,4.221,0,0,1,1.666,1,1.686,1.686,0,0,1,.532,1.1.734.734,0,0,1-.15.48.471.471,0,0,1-.385.182A.711.711,0,0,1,51.87-4.2a4.293,4.293,0,0,0-.455-1.141,7.711,7.711,0,0,0-.763-1.141v3.864q.028,1.736.112,3.29a.773.773,0,0,1-.378.308,1.33,1.33,0,0,1-.574.14.4.4,0,0,1-.259-.084.246.246,0,0,1-.1-.2q.056-.826.1-1.6T49.6-2.8Zm4.27-3.332a18.316,18.316,0,0,0-.182-2.87,11.241,11.241,0,0,1,1.281.385q.357.147.357.245,0,.07-.112.14l-.224.154V-.8a.462.462,0,0,0,.126.371.839.839,0,0,0,.5.1h1.19A9.33,9.33,0,0,0,57.94-.366a.465.465,0,0,0,.182-.056.361.361,0,0,0,.126-.154,3.816,3.816,0,0,0,.245-.861q.147-.693.287-1.449h.168L59.01-.462a1.008,1.008,0,0,1,.343.217.4.4,0,0,1,.091.273.45.45,0,0,1-.224.406,1.972,1.972,0,0,1-.791.2Q57.862.69,56.756.69H55.4A1.97,1.97,0,0,1,54.2.424a1.222,1.222,0,0,1-.322-.98Zm12.278-.91.091-.133a1.038,1.038,0,0,1,.112-.14.147.147,0,0,1,.105-.049.856.856,0,0,1,.343.2,4.651,4.651,0,0,1,.483.42q.224.224.224.322a.532.532,0,0,1-.217.161,1.655,1.655,0,0,1-.343.119V-3.16a1.713,1.713,0,0,1-.189.917,1.062,1.062,0,0,1-.805.357,1.234,1.234,0,0,0-.14-.686.575.575,0,0,0-.476-.294V-3.09q.448.042.588.042a.136.136,0,0,0,.119-.049.284.284,0,0,0,.035-.161v-5.66h-.8v6.342q.028,1.736.112,3.29a1.289,1.289,0,0,1-.371.266,1.1,1.1,0,0,1-.511.126.268.268,0,0,1-.189-.091.268.268,0,0,1-.091-.189q.056-.826.1-1.6t.056-2.037v-6.1H63.67v3.626Q63.7-3.556,63.784-2a.866.866,0,0,1-.336.28,1.09,1.09,0,0,1-.518.126.292.292,0,0,1-.2-.084.259.259,0,0,1-.091-.2q.056-.742.091-1.47t.049-1.834v-1.79a18.315,18.315,0,0,0-.182-2.87l1.134.532h.588a15.486,15.486,0,0,0-.154-2.464q1.512.392,1.512.6,0,.07-.112.14l-.238.154v1.57h.63Zm6.818-1.778q.042-.056.112-.154a1.213,1.213,0,0,1,.119-.147.147.147,0,0,1,.105-.049.828.828,0,0,1,.336.189,3.96,3.96,0,0,1,.469.413q.217.224.217.322a.859.859,0,0,1-.5.252v1.218q.028,1.484.084,2.338a.734.734,0,0,1-.336.224,1.538,1.538,0,0,1-.6.112H72.79v-.49H68.8v.35q0,.084-.245.189a1.468,1.468,0,0,1-.581.105.226.226,0,0,1-.182-.084.3.3,0,0,1-.07-.2q.056-.546.084-1.4v-.84a16.753,16.753,0,0,0-.154-2.576l1.316.56h3.78Zm-.182,2.058v-1.3H68.8v1.3ZM68.8-8.96v1.372h3.99V-8.96ZM73.374-4.2l.133-.2a1.109,1.109,0,0,1,.133-.175.161.161,0,0,1,.112-.056.906.906,0,0,1,.357.217,4.87,4.87,0,0,1,.511.469q.238.252.238.35-.056.21-.35.21H72.184v3.1a.222.222,0,0,0,.056.18.482.482,0,0,0,.252.042h.644l.63-.014a.246.246,0,0,0,.105-.042.483.483,0,0,0,.091-.126q.07-.182.406-1.68h.154l.042,1.736a.54.54,0,0,1,.259.189.525.525,0,0,1,.063.273A.51.51,0,0,1,74.5.756,4.384,4.384,0,0,1,73.08.91H72.2a1.186,1.186,0,0,1-.826-.2,1.059,1.059,0,0,1-.2-.735v-3.36h-1.09A5.291,5.291,0,0,1,69.006-.476a5.512,5.512,0,0,1-2.772,1.6l-.07-.21A5.523,5.523,0,0,0,67.746-.168a3.728,3.728,0,0,0,.861-1.372,6.9,6.9,0,0,0,.343-1.848h-.6a3.432,3.432,0,0,0-1.008.2l-.364-.7q.77.084,1.862.112h1.33v-.266a18.317,18.317,0,0,0-.182-2.87q.84.238,1.169.371t.329.231q0,.042-.112.126l-.224.14V-3.78h1.96Zm.084-1.988q.616.21.616.336,0,.084-.154.126l-.252.07a9.744,9.744,0,0,1-.847.854,5.868,5.868,0,0,1-.875.658l-.154-.14A7.647,7.647,0,0,0,72.3-5.439a7.815,7.815,0,0,0,.329-1.183Zm-5.7-.182a3.262,3.262,0,0,1,1.288.791,1.346,1.346,0,0,1,.406.875.635.635,0,0,1-.147.434.457.457,0,0,1-.357.168.7.7,0,0,1-.434-.182,3.4,3.4,0,0,0-.315-1,6.256,6.256,0,0,0-.581-1ZM83-5.558q.056-.07.161-.21t.189-.14a.952.952,0,0,1,.364.21,4.407,4.407,0,0,1,.518.455q.238.245.238.343a.693.693,0,0,1-.224.161,1.468,1.468,0,0,1-.35.119v1.764q.028,1.736.112,3.29A1.061,1.061,0,0,1,83.6.693a1.433,1.433,0,0,1-.539.133q-.224,0-.224-.28l.056-.392V-.2h-2.66V.1q.014.168.021.308a1.56,1.56,0,0,0,.021.21.567.567,0,0,1-.287.28,1.182,1.182,0,0,1-.6.14.269.269,0,0,1-.2-.084.269.269,0,0,1-.084-.2q.1-1.372.126-3.038V-3.948a13.454,13.454,0,0,1-1.526.924l-.154-.182a14.915,14.915,0,0,0,1.68-1.288v-.588A5.515,5.515,0,0,0,79.2-5.74l.882.434q.616-.63,1.288-1.47H80.066a14.186,14.186,0,0,0-2.1.2l-.35-.728q.742.084,1.792.112h.854V-9.17h-.7a4.63,4.63,0,0,0-1.2.2l-.35-.714q.63.084,1.54.112h.714a13.771,13.771,0,0,0-.14-2.184q1.54.392,1.54.6,0,.07-.126.14l-.252.154v1.288h.6l.6-.854q.434.378.8.728a7.545,7.545,0,0,0,.392-.868,6.48,6.48,0,0,0,.266-.84q1.288.658,1.288.826,0,.056-.14.084l-.28.042a18.65,18.65,0,0,1-2.1,3.262h.742l.294-.42q.042-.056.126-.175a1.432,1.432,0,0,1,.147-.182.177.177,0,0,1,.119-.063.906.906,0,0,1,.357.217,4.871,4.871,0,0,1,.511.469q.238.252.238.35-.056.224-.364.224h-2.52a20.4,20.4,0,0,1-1.54,1.568H82.77ZM86.52-2.6q.028,1.736.112,3.29a1.107,1.107,0,0,1-.364.294,1.221,1.221,0,0,1-.6.14.334.334,0,0,1-.224-.084.252.252,0,0,1-.1-.2q.056-.826.1-1.6T85.5-2.8V-8.484a18.317,18.317,0,0,0-.182-2.87l1.386.7H88.58l.28-.322q.056-.056.182-.189a.34.34,0,0,1,.21-.133q.084,0,.364.252a5.726,5.726,0,0,1,.525.539q.245.287.245.385a.468.468,0,0,1-.217.119,2.059,2.059,0,0,1-.385.049Q89.1-8.666,88.641-7.84a14.426,14.426,0,0,1-.875,1.414,5.34,5.34,0,0,1,1.673,1.743A3.85,3.85,0,0,1,89.964-2.8,2.223,2.223,0,0,1,89.5-1.253,2.137,2.137,0,0,1,87.948-.7a3.146,3.146,0,0,0-.042-.518.858.858,0,0,0-.126-.364,1.667,1.667,0,0,0-.77-.252v-.224h1.176a.837.837,0,0,0,.35-.07q.378-.224.378-.994a4.517,4.517,0,0,0-1.5-3.262q.266-.7.609-1.834t.581-2.03H86.52ZM81.284-9.17V-7.2h.42a22.433,22.433,0,0,0,1.288-1.97Zm1.61,6.244v-1.89h-2.52l-.14.112v1.778Zm-2.66.406V-.6h2.66V-2.52ZM97.02-11.466a8.964,8.964,0,0,1,2.415.658,3.8,3.8,0,0,1,1.33.917,1.473,1.473,0,0,1,.4.917.67.67,0,0,1-.154.448.491.491,0,0,1-.392.182.762.762,0,0,1-.378-.112A6.035,6.035,0,0,0,99.008-9.9a8.536,8.536,0,0,0-2.058-1.37l.028-.1ZM96.8-5.81a18.315,18.315,0,0,0-.182-2.87,10.415,10.415,0,0,1,1.239.385q.343.147.343.245,0,.056-.1.126l-.224.154V-.882a.382.382,0,0,0,.154.35,1.331,1.331,0,0,0,.63.1h1.666q1.176,0,1.554-.042a.466.466,0,0,0,.231-.07.592.592,0,0,0,.147-.168,13.892,13.892,0,0,0,.532-2.366h.168L103-.616a.926.926,0,0,1,.385.217.419.419,0,0,1,.1.287.519.519,0,0,1-.259.469,2.417,2.417,0,0,1-.945.231q-.686.07-2.016.07H98.5a4.008,4.008,0,0,1-1.05-.1.811.811,0,0,1-.511-.364A1.615,1.615,0,0,1,96.8-.588Zm5.95-1.582a6.068,6.068,0,0,1,2.219,1.862,3.579,3.579,0,0,1,.693,1.974,1.737,1.737,0,0,1-.2.882.576.576,0,0,1-.483.35.6.6,0,0,1-.49-.294,8.181,8.181,0,0,0-.469-2.45,5.377,5.377,0,0,0-1.379-2.184Zm-7.65.154a7.567,7.567,0,0,1,.28,1.974,4.822,4.822,0,0,1-.266,1.673A3.506,3.506,0,0,1,94.47-2.45a1.565,1.565,0,0,1-.427.329A.964.964,0,0,1,93.6-2a.5.5,0,0,1-.42-.182.548.548,0,0,1-.1-.322.951.951,0,0,1,.322-.672A3.737,3.737,0,0,0,94.458-4.8a6.544,6.544,0,0,0,.42-2.443Zm23.576-1.274a1.3,1.3,0,0,1-.952-.392,1.28,1.28,0,0,1-.392-.938,1.273,1.273,0,0,1,.392-.945,1.308,1.308,0,0,1,.952-.385,1.257,1.257,0,0,1,.931.392,1.292,1.292,0,0,1,.385.938,1.292,1.292,0,0,1-.385.938,1.257,1.257,0,0,1-.929.392Zm0-2.3a.94.94,0,0,0-.679.28.921.921,0,0,0-.287.686.894.894,0,0,0,.28.665.945.945,0,0,0,.686.273.9.9,0,0,0,.665-.273.905.905,0,0,0,.273-.665.945.945,0,0,0-.273-.686.894.894,0,0,0-.663-.276Zm-3.64,5.026q0,.672.1,2.24.084,1.12.084,1.554A4.19,4.19,0,0,1,115.031-.7a.735.735,0,0,1-.693.6q-.322,0-.406-.532A1.78,1.78,0,0,0,113.4-1.6a5.223,5.223,0,0,0-.8-.637q-.1-.07-.1-.112t.07-.056l.084.014q.056.014.5.147a2.548,2.548,0,0,0,.665.133q.2,0,.252-.119a.976.976,0,0,0,.07-.343l.014-1.554q0-1.5-.028-2.254a21.9,21.9,0,0,0-2.674.5,2.77,2.77,0,0,1-.728.112,1.191,1.191,0,0,1-.707-.224,1.319,1.319,0,0,1-.469-.658.9.9,0,0,1-.084-.35q0-.168.07-.168a.722.722,0,0,1,.28.14,1.763,1.763,0,0,0,.525.189,3.562,3.562,0,0,0,.777.077q.56,0,3-.21a10.137,10.137,0,0,0-.182-2.072.974.974,0,0,0-.546-.546q-.28-.1-.28-.168,0-.1.273-.224a1.225,1.225,0,0,1,.511-.126,1.319,1.319,0,0,1,.6.189,2.411,2.411,0,0,1,.609.462.769.769,0,0,1,.259.5.776.776,0,0,1-.063.273q-.063.161-.091.217a2.577,2.577,0,0,0-.1.511q-.035.3-.049.9a18.8,18.8,0,0,0,2.044-.28,5.473,5.473,0,0,0,.6-.252,2.076,2.076,0,0,1,.315-.154.818.818,0,0,1,.273-.042,2.082,2.082,0,0,1,.672.154,3.09,3.09,0,0,1,.742.385q.322.231.322.441,0,.322-.462.322-.154,0-.518-.042-1.05-.1-1.54-.1-1.19,0-2.464.126Zm-3.22.924q.056,0,.056.1a.933.933,0,0,1-.021.2q-.021.1-.035.182a4.544,4.544,0,0,1-.749,1.848,1.487,1.487,0,0,1-1.169.742.775.775,0,0,1-.525-.175.588.588,0,0,1-.2-.469.727.727,0,0,1,.245-.532,1.956,1.956,0,0,1,.609-.392,3.7,3.7,0,0,0,1.568-1.2q.028-.042.105-.168t.118-.132Zm5.46.1a5.633,5.633,0,0,1,2.2.889,1.8,1.8,0,0,1,.9,1.463.672.672,0,0,1-.175.5.55.55,0,0,1-.4.175.531.531,0,0,1-.42-.175,2.779,2.779,0,0,1-.35-.567q-.042-.084-.168-.322a2.886,2.886,0,0,0-.28-.434A4.438,4.438,0,0,0,117.2-4.507a1.449,1.449,0,0,1-.2-.126q-.07-.056-.07-.1,0-.07.1-.07.036,0,.246.043Zm18.2-5.222a.642.642,0,0,1-.546-.378,3.814,3.814,0,0,0-.476-.637,2.391,2.391,0,0,0-.588-.427l-.182-.091a1.957,1.957,0,0,1-.175-.1q-.077-.049-.077-.091,0-.1.364-.1a3.682,3.682,0,0,1,.917.133,2.356,2.356,0,0,1,.882.427.909.909,0,0,1,.371.742.481.481,0,0,1-.154.385.5.5,0,0,1-.334.139Zm-1.484,1.246a.685.685,0,0,1-.35-.1.6.6,0,0,1-.252-.322,3.1,3.1,0,0,0-.39-.731,2.488,2.488,0,0,0-.588-.553q-.056-.028-.154-.084a.693.693,0,0,1-.14-.1.121.121,0,0,1-.042-.084q0-.1.2-.1a3.3,3.3,0,0,1,.777.161,3.263,3.263,0,0,1,1.015.5,1.017,1.017,0,0,1,.462.854.539.539,0,0,1-.154.42.541.541,0,0,1-.382.141ZM129.36-7.5a.74.74,0,0,1-.343-.091.864.864,0,0,1-.259-.189,7.866,7.866,0,0,0-.644-.693,3.828,3.828,0,0,0-.644-.469,1.7,1.7,0,0,0-.4-.2,2.359,2.359,0,0,1-.245-.091q-.154-.084-.154-.112,0-.154.63-.154a4.564,4.564,0,0,1,1.2.161,2.735,2.735,0,0,1,.987.469.93.93,0,0,1,.392.756.691.691,0,0,1-.14.434.452.452,0,0,1-.38.179Zm-2.2,7.364a.423.423,0,0,1-.322-.2,3.539,3.539,0,0,1-.581-1.015,3.248,3.248,0,0,1-.259-1q0-.28.14-.28.056,0,.147.133a2.608,2.608,0,0,0,.189.245,1.08,1.08,0,0,0,.8.308A1.79,1.79,0,0,0,128-2.114a18.335,18.335,0,0,0,3.962-2.38,21.449,21.449,0,0,0,3.64-3.542q.126-.182.238-.182.084,0,.084.07a.584.584,0,0,1-.1.266,18.146,18.146,0,0,1-2.373,2.954,24.86,24.86,0,0,1-2.8,2.464A20.254,20.254,0,0,1,128.044-.77a1.731,1.731,0,0,0-.448.35q-.28.28-.434.28Zm.63-4.494a.683.683,0,0,1-.308-.077.658.658,0,0,1-.238-.189,7.8,7.8,0,0,0-.56-.56,3.944,3.944,0,0,0-.546-.392,3.955,3.955,0,0,0-.581-.266q-.245-.084-.3-.1-.112-.042-.112-.1,0-.1.343-.147a4.523,4.523,0,0,1,.637-.049,3.15,3.15,0,0,1,1.526.357,1.082,1.082,0,0,1,.658.973.545.545,0,0,1-.147.392.491.491,0,0,1-.37.154ZM144.76-7.5a.74.74,0,0,1-.343-.091.864.864,0,0,1-.259-.189,7.864,7.864,0,0,0-.644-.693,3.83,3.83,0,0,0-.644-.469,1.7,1.7,0,0,0-.4-.2,2.359,2.359,0,0,1-.245-.091q-.154-.084-.154-.112,0-.154.63-.154a4.564,4.564,0,0,1,1.2.161,2.735,2.735,0,0,1,.987.469.93.93,0,0,1,.392.756.691.691,0,0,1-.14.434.452.452,0,0,1-.38.179Zm-2.2,7.364a.423.423,0,0,1-.322-.2,3.539,3.539,0,0,1-.581-1.015,3.248,3.248,0,0,1-.259-1q0-.28.14-.28.056,0,.147.133a2.6,2.6,0,0,0,.189.245,1.08,1.08,0,0,0,.8.308,1.79,1.79,0,0,0,.728-.168,18.335,18.335,0,0,0,3.962-2.38A21.45,21.45,0,0,0,151-8.036q.126-.182.238-.182.084,0,.084.07a.584.584,0,0,1-.1.266,18.147,18.147,0,0,1-2.373,2.954,24.86,24.86,0,0,1-2.8,2.464,20.255,20.255,0,0,1-2.6,1.694A1.731,1.731,0,0,0,143-.42q-.284.28-.438.28Zm.63-4.494a.683.683,0,0,1-.308-.077.658.658,0,0,1-.238-.189,7.8,7.8,0,0,0-.56-.56,3.947,3.947,0,0,0-.546-.392,3.954,3.954,0,0,0-.581-.266q-.245-.084-.3-.1-.112-.042-.112-.1,0-.1.343-.147a4.523,4.523,0,0,1,.637-.049,3.15,3.15,0,0,1,1.526.357,1.082,1.082,0,0,1,.658.973.545.545,0,0,1-.147.392.491.491,0,0,1-.37.154Zm19.95-1.512a.761.761,0,0,1,.392.189,3,3,0,0,1,.455.42.666.666,0,0,1,.2.343.328.328,0,0,1-.063.189,1.235,1.235,0,0,1-.077.1.99.99,0,0,0-.252.476q-.042.2-.126,2.24l-.014.308V-.742q-.084.686-.644.686a.334.334,0,0,1-.294-.189.8.8,0,0,1-.112-.413V-.8l-.42.028q-.728.042-1.547.1a9.82,9.82,0,0,0-1.085.112,1.757,1.757,0,0,0-.378.084,1.427,1.427,0,0,1-.378.07.535.535,0,0,1-.364-.21,2.43,2.43,0,0,1-.35-.49.881.881,0,0,1-.112-.308q0-.112.1-.112a1.128,1.128,0,0,1,.224.1,1.47,1.47,0,0,0,.658.21q.434-.014,1.729-.07t1.953-.1a2.788,2.788,0,0,1,.014-.322l.07-.686.042-.56-.28.014-1.246.049-.854.035-.476.028a4.361,4.361,0,0,0-.616.084A1.234,1.234,0,0,1,159-2.7a.817.817,0,0,1-.525-.238,1.218,1.218,0,0,1-.371-.532.452.452,0,0,1-.028-.168q0-.14.084-.14a.459.459,0,0,1,.175.091,1.413,1.413,0,0,0,.273.147,1.585,1.585,0,0,0,.5.084q.532-.014,1.8-.077t1.911-.105l.042-.686q.042-.574.042-.77,0-.112-.154-.112-.448.014-1.575.07t-1.491.112l-.5.084a2.294,2.294,0,0,1-.448.07.661.661,0,0,1-.434-.2,1.488,1.488,0,0,1-.35-.469.756.756,0,0,1-.1-.308q0-.154.1-.154a.272.272,0,0,1,.147.07l.147.112a1.694,1.694,0,0,0,.84.154q.742,0,2.009-.056a6.4,6.4,0,0,0,1.477-.154,2.977,2.977,0,0,0,.315-.168.546.546,0,0,1,.256-.1ZM174.886-7.15a1,1,0,0,1-.8-.56,3.227,3.227,0,0,0-.882-.917,3.082,3.082,0,0,0-1.134-.511q-.238-.07-.238-.126t.266-.1a4.182,4.182,0,0,1,.546-.035,5.576,5.576,0,0,1,1.225.14,2.638,2.638,0,0,1,1.029.448,1.514,1.514,0,0,1,.427.476,1.068,1.068,0,0,1,.147.518.747.747,0,0,1-.154.476.52.52,0,0,1-.43.192ZM172.158-2a2.317,2.317,0,0,1-.07-.476,1.137,1.137,0,0,1,.049-.357q.049-.147.091-.147t.14.161a1.3,1.3,0,0,0,.238.315.9.9,0,0,0,.672.336,4.632,4.632,0,0,0,1.82-.784,25.709,25.709,0,0,0,3.094-2.254,38.9,38.9,0,0,0,3.6-3.416q.126-.154.21-.154a.049.049,0,0,1,.042.014.049.049,0,0,1,.014.042.642.642,0,0,1-.126.294,25.741,25.741,0,0,1-2.275,2.807q-1.281,1.379-2.485,2.45a21.275,21.275,0,0,1-2,1.617l-.252.168a1.943,1.943,0,0,0-.287.182,2.962,2.962,0,0,0-.287.28.784.784,0,0,1-.616.322,1.44,1.44,0,0,1-.959-.441A1.92,1.92,0,0,1,172.158-2Z" transform="translate(574.216 319)" fill="#e3e8f1"/>
      <g id="グループ_2" data-name="グループ 2" transform="translate(-2.1)">
        <path id="パス_11" data-name="パス 11" d="M13.35-23.5a12.314,12.314,0,0,1,4.825,1.075,10.118,10.118,0,0,1,4.35,3.725,12.119,12.119,0,0,1,1.825,7A12.134,12.134,0,0,1,22.6-5.175a12.219,12.219,0,0,1-4.5,4.35A11.6,11.6,0,0,1,12.4.7,13.785,13.785,0,0,1,7.475-.2,9.471,9.471,0,0,1,3.6-2.825,6.076,6.076,0,0,1,2.1-6.95a3.2,3.2,0,0,1,.85-2.475A2.7,2.7,0,0,1,4.8-10.2a3.7,3.7,0,0,1,2.1.6,2.171,2.171,0,0,1,.9,1.95A3.079,3.079,0,0,1,7.6-6.5q-.2.5-.25.6a3.766,3.766,0,0,0-.4,1.35,2.966,2.966,0,0,0,1.4,2.625A6.03,6.03,0,0,0,11.75-1a5.958,5.958,0,0,0,3.525-1.2,8.672,8.672,0,0,0,2.75-3.55A13.508,13.508,0,0,0,19.1-11.4a12.114,12.114,0,0,0-1.95-7.275,6.031,6.031,0,0,0-5.1-2.675q-4,0-7.35,4.85l-1.45-.95.9-19.05H22.7l-.9,4.35H5.7L5.05-19.5A13.83,13.83,0,0,1,9.1-22.6a10.018,10.018,0,0,1,4.25-.9Zm30.12,7.93q.09-.12.255-.345a3.008,3.008,0,0,1,.27-.33.315.315,0,0,1,.225-.1q.3,0,1.185.81t.885,1.14q-.12.48-.75.48h-4.2v3.33H43.5l.51-.6q.09-.09.315-.36t.4-.27a1.716,1.716,0,0,1,.705.39,8.783,8.783,0,0,1,.975.84q.45.45.45.66a1.821,1.821,0,0,1-1.17.45,39.323,39.323,0,0,1-.78,6.81A6.417,6.417,0,0,1,43.41.57a3.948,3.948,0,0,1-2.7.87A1.981,1.981,0,0,0,40.32.03a3.668,3.668,0,0,0-1.8-.72v-.48l.81.06q1.44.12,1.86.12a2.155,2.155,0,0,0,.57-.06.9.9,0,0,0,.39-.24,5.382,5.382,0,0,0,.96-2.625,45.255,45.255,0,0,0,.63-5.835H36.87v.99q0,.15-.495.42a2.375,2.375,0,0,1-1.155.27.576.576,0,0,1-.42-.18.576.576,0,0,1-.18-.42q.21-2.76.27-6.03v-3.33a39.247,39.247,0,0,0-.39-6.15l2.7,1.17h5.91l.6-.84q.09-.12.285-.375a3.984,3.984,0,0,1,.315-.375.346.346,0,0,1,.24-.12,1.977,1.977,0,0,1,.765.435,8.913,8.913,0,0,1,1.08.945q.495.51.495.72-.12.45-.75.45h-4.8v3.24h1.71l.51-.75q.06-.09.21-.33a1.586,1.586,0,0,1,.27-.345.367.367,0,0,1,.24-.1q.3,0,1.17.8t.87,1.125q-.03.48-.72.48H41.34v3.27h1.59Zm13.23-8.1q.09-.12.255-.345a3.007,3.007,0,0,1,.27-.33.315.315,0,0,1,.225-.1,2.022,2.022,0,0,1,.78.465,11.883,11.883,0,0,1,1.125.99q.525.525.525.735a1.7,1.7,0,0,1-.465.36,2.053,2.053,0,0,1-.735.24v3.39q.06,3.51.24,6.63a2.387,2.387,0,0,1-.9.57,3.141,3.141,0,0,1-1.23.3.368.368,0,0,1-.345-.18.818.818,0,0,1-.1-.42l.12-.6v-.63H52.35A23.911,23.911,0,0,0,55.335-4.93a12.3,12.3,0,0,0,5,4.75l-.06.36A2.215,2.215,0,0,0,59.1.9a3.275,3.275,0,0,0-.72,1.47A13.69,13.69,0,0,1,54.03-3.4a36.026,36.026,0,0,1-2.25-9.2H50.19a32.43,32.43,0,0,1-1.2,8.52,13.629,13.629,0,0,1-4.23,6.51l-.45-.3a16.874,16.874,0,0,0,3.015-6.99,49.587,49.587,0,0,0,.735-9.09v-5.04a31.528,31.528,0,0,0-.33-5.16l2.88,1.23h5.58ZM39.42-18.93v-3.24H36.87v3.24Zm10.77-3.12v8.58h6.27v-8.58ZM36.87-14.79h2.55v-3.27H36.87Zm2.55.87H36.87v3.33h2.55Zm.81,5.34a5.1,5.1,0,0,1,2.19,1.215,2.137,2.137,0,0,1,.69,1.425,1.1,1.1,0,0,1-.225.7.683.683,0,0,1-.555.285,1.03,1.03,0,0,1-.57-.24,4.46,4.46,0,0,0-.675-1.665A7.648,7.648,0,0,0,39.9-8.34Zm-1.74.66a7.069,7.069,0,0,1,1.845,1.95,3.61,3.61,0,0,1,.585,1.8,1.592,1.592,0,0,1-.225.885.675.675,0,0,1-.585.345.883.883,0,0,1-.66-.33,7.454,7.454,0,0,0-.4-2.25A13.01,13.01,0,0,0,38.1-7.77Zm-1.71.51a6.515,6.515,0,0,1,1.56,3.99,2.91,2.91,0,0,1-.3,1.395q-.3.555-.72.555a.907.907,0,0,1-.69-.42,11.526,11.526,0,0,0,.15-1.77,17.724,17.724,0,0,0-.42-3.66Zm-1.71.27a15.488,15.488,0,0,1,.45,3.51,4.9,4.9,0,0,1-.525,2.55q-.525.84-1.155.84a.706.706,0,0,1-.54-.225.866.866,0,0,1-.21-.615,1.635,1.635,0,0,1,.27-.9,5.115,5.115,0,0,0,.93-2.07,14.1,14.1,0,0,0,.36-3.09ZM90.7-8.2H84.8v4.45a1.869,1.869,0,0,0,1,1.875,6.091,6.091,0,0,0,2.6.475H89q.45,0,.45.7T89,0H75.95q-.4,0-.4-.7t.4-.7h.65a5.953,5.953,0,0,0,2.55-.475,1.869,1.869,0,0,0,1-1.875V-8.2h-14v-2L82.8-36.95l2,.45v26.3h5.9ZM80.2-28.9,68.6-10.2H80.15Zm32.99,10.48a18.182,18.182,0,0,1-4.17,4.14l-.39-.3a21.694,21.694,0,0,0,3-4.59,20.9,20.9,0,0,0,1.215-3.225,15.311,15.311,0,0,0,.645-3.135q3.27,1.11,3.27,1.53,0,.09-.27.21l-.54.21a21.194,21.194,0,0,1-.87,1.95h4.05l.63-.66q.12-.12.39-.405a.729.729,0,0,1,.45-.285,1.725,1.725,0,0,1,.72.45,8.3,8.3,0,0,1,.99.975,1.581,1.581,0,0,1,.45.735.614.614,0,0,1-.39.285,5.508,5.508,0,0,1-.78.135,23.337,23.337,0,0,1-3.87,6.21,19.346,19.346,0,0,0,7.56,3.66l-.09.3a2.4,2.4,0,0,0-1.71,2.07,22.465,22.465,0,0,1-2.85-1.38q1.95,1.44,1.95,1.83,0,.18-.3.27l-.51.15v3q.09,3.81.21,5.85a2.047,2.047,0,0,1-.795.525,3.233,3.233,0,0,1-1.305.255q-.54,0-.54-.6,0-.06.12-.75V.3h-6.48V1.77q0,.18-.54.4a3.345,3.345,0,0,1-1.29.225.717.717,0,0,1-.48-.18.54.54,0,0,1-.21-.42q.12-1.56.195-3.075t.1-3.825V-8.85a32.185,32.185,0,0,1-3.27,1.41l-.24-.42a24.014,24.014,0,0,0,8.19-6.45,21.3,21.3,0,0,1-2.245-4.11Zm-6.39,7.17q.12-.18.285-.435a2.376,2.376,0,0,1,.285-.375.346.346,0,0,1,.24-.12q.18,0,.72.48a11.082,11.082,0,0,1,1.02,1.035q.48.555.48.765-.09.48-.75.48h-3.75v6.75q3-.75,4.53-1.17l.12.42Q104.82-.93,99.69,1.17a1.171,1.171,0,0,1-.285.465.949.949,0,0,1-.4.255L97.92-.96l1.77-.36V-6.63a35.39,35.39,0,0,0-.33-5.46q2.82.84,2.82,1.23,0,.12-.21.24l-.39.24v8.61l1.68-.39V-15.03h-1.53v.72q0,.18-.51.435a2.8,2.8,0,0,1-1.26.255.414.414,0,0,1-.345-.18.681.681,0,0,1-.135-.42q.12-1.17.18-2.91V-18.9a35.135,35.135,0,0,0-.33-5.43l2.73,1.2h3.99l.48-.63q.09-.12.3-.375a.56.56,0,0,1,.39-.255,2.118,2.118,0,0,1,.78.405,9.691,9.691,0,0,1,1.11.87q.51.465.51.675a2.4,2.4,0,0,1-1.2.57v2.43q.06,2.94.18,4.65a1.975,1.975,0,0,1-.81.495,3.021,3.021,0,0,1-1.11.255h-.36v-.99h-.99v4.71h.9Zm-.48-11.01h-4.59v6.36h4.59Zm8.34,1.5q-.66,1.14-1.02,1.68a17.107,17.107,0,0,0,2.64,3.63,21.385,21.385,0,0,0,2.85-5.31ZM113.28-8.31h6.09l1.11-1.32a17.39,17.39,0,0,1-3.96-3.3,23.473,23.473,0,0,1-5.19,3.78Zm-.3.87V-.57h6.48V-7.44Zm20.79-12.09q.48-1.38.9-3.06a24.1,24.1,0,0,0,.57-2.94q3.27,1.23,3.27,1.62,0,.09-.27.21l-.54.21a35.489,35.489,0,0,1-3.3,4.47,2.7,2.7,0,0,1,1.17,2.07,1.3,1.3,0,0,1-.3.885.953.953,0,0,1-.75.345,1.439,1.439,0,0,1-.84-.3,6.147,6.147,0,0,0-.9-2.1,11.2,11.2,0,0,0-1.53-1.95l.27-.24a9.237,9.237,0,0,1,2.22.84Zm20.37-2.88q.09-.12.24-.33a2.6,2.6,0,0,1,.255-.315.315.315,0,0,1,.225-.1,1.834,1.834,0,0,1,.735.42,9.965,9.965,0,0,1,1.035.9q.48.48.48.69a1.672,1.672,0,0,1-1.11.54v2.91q.09,3.66.21,5.64a2.049,2.049,0,0,1-.78.525,3.127,3.127,0,0,1-1.29.255h-.39v-1.08h-3a17.475,17.475,0,0,0,2.04,5.43,19.39,19.39,0,0,0,1.485-2.31,11.87,11.87,0,0,0,.975-2.22q2.58,1.83,2.58,2.22,0,.15-.27.15l-.51.03a37.338,37.338,0,0,1-3.96,2.7,13.743,13.743,0,0,0,5.4,4.68l-.03.3a2.07,2.07,0,0,0-1.14.72A3.75,3.75,0,0,0,156.6.78a15.965,15.965,0,0,1-3.945-4.92,24.267,24.267,0,0,1-2.145-7.47V-.78a3.509,3.509,0,0,1-.6,2.2,3.583,3.583,0,0,1-2.46.975,2.637,2.637,0,0,0-.51-1.62,4.241,4.241,0,0,0-2.19-.84V-.51q2.55.21,3.06.21a.7.7,0,0,0,.465-.12.542.542,0,0,0,.135-.42V-7.98a1.013,1.013,0,0,1-.4.18,4.257,4.257,0,0,1-.585.09,15.446,15.446,0,0,1-2.505,4.935A13.181,13.181,0,0,1,140.61.87l-.27-.45a12.5,12.5,0,0,0,3.1-3.645,16.948,16.948,0,0,0,1.82-4.665h-1.2a6.406,6.406,0,0,0-2.04.42L141.21-9a23.329,23.329,0,0,0,2.7.24h1.26l1.2-1.26,2.04,1.83v-4.17h-2.97v.75q0,.18-.54.4a3.434,3.434,0,0,1-1.32.225.442.442,0,0,1-.375-.18.681.681,0,0,1-.135-.42q.12-1.29.18-3.3v-1.95a37.346,37.346,0,0,0-.39-6l2.88,1.17h1.71a15.746,15.746,0,0,0,.39-3.78,25.483,25.483,0,0,1,2.7.6q.75.24.75.42,0,.12-.27.24l-.54.27q-.75.99-1.92,2.25h5.1Zm-18.15,10.2,3.54-.18a18.393,18.393,0,0,0-1.26-2.64l.33-.18a8.06,8.06,0,0,1,2.67,2.115,3.6,3.6,0,0,1,.84,2.115,1.636,1.636,0,0,1-.315,1.035.941.941,0,0,1-.765.4,1.321,1.321,0,0,1-.93-.45,7.88,7.88,0,0,0-.3-1.68l-1.77.42V-5.5q.06,3.72.24,7.05a2.5,2.5,0,0,1-.765.585,2.572,2.572,0,0,1-1.245.285.757.757,0,0,1-.51-.18.54.54,0,0,1-.21-.42q.12-1.77.21-3.435t.12-4.365v-4.8l-2.91.6a.989.989,0,0,1-.75.63l-.9-2.55,2.85-.06q1.32-2.37,2.22-4.2a30.668,30.668,0,0,0,1.335-2.94,19.7,19.7,0,0,0,.885-2.73q3.03,1.44,3.03,1.83,0,.15-.3.21l-.6.12q-.99,1.65-2.535,3.75t-3.135,3.93Zm17.76-5.25v-3.3h-8.31v3.3Zm-8.31.87v3.33h8.31v-3.33Zm-6.3,8.22a7.445,7.445,0,0,1,2.235,2.145,3.987,3.987,0,0,1,.705,2.085,1.811,1.811,0,0,1-.33,1.125.962.962,0,0,1-.78.435,1.227,1.227,0,0,1-.9-.45A8.644,8.644,0,0,0,139.7-5.6a19.158,19.158,0,0,0-.945-2.625Zm-4.83.6q1.23.15,1.23.45,0,.15-.3.3l-.48.24a24.407,24.407,0,0,1-1.3,3.78A15.214,15.214,0,0,1,131.73.03l-.45-.24.54-1.74a25.378,25.378,0,0,0,.495-2.73,21.145,21.145,0,0,0,.2-2.7q0-.63-.03-.9Z" transform="translate(515 372)" fill="#e3e8f1"/>
        <path id="パス_9" data-name="パス 9" d="M8.94-10.83A26.83,26.83,0,0,1,1.68-2.49l-.36-.39A25.923,25.923,0,0,0,5.34-8.355,36.293,36.293,0,0,0,8.22-14.97H6.24a18.539,18.539,0,0,0-3.54.42l-.75-1.53q1.65.18,3.99.24h3v-5.28a67.2,67.2,0,0,1-6.69.87l-.09-.48a54.4,54.4,0,0,0,6.66-2.04,35.308,35.308,0,0,0,5.43-2.46q2.4,2.13,2.4,2.52,0,.21-.48.15l-.81-.09q-2.07.63-4.17,1.08v5.73h2.49l.66-.99q.09-.12.3-.42a4.962,4.962,0,0,1,.345-.45.367.367,0,0,1,.255-.15,2.141,2.141,0,0,1,.81.51,11.058,11.058,0,0,1,1.17,1.1q.54.585.54.8-.12.48-.78.48H11.19v2.19a10.626,10.626,0,0,1,4.035,2.55A4.2,4.2,0,0,1,16.5-7.56a1.517,1.517,0,0,1-.285.945.857.857,0,0,1-.7.375,1.494,1.494,0,0,1-.93-.39A10.094,10.094,0,0,0,13.31-9.39,20.055,20.055,0,0,0,11.2-12.18v6.63q.06,3.72.24,7.05a1.912,1.912,0,0,1-.78.615A2.915,2.915,0,0,1,9.33,2.4a.757.757,0,0,1-.51-.18.54.54,0,0,1-.21-.42q.12-1.77.21-3.435T8.94-6Zm15.75-7.89a39.247,39.247,0,0,0-.39-6.15,21.336,21.336,0,0,1,2.64.8q.75.315.75.525,0,.15-.27.3l-.51.33V-.96A4.825,4.825,0,0,1,26.67.72a2.022,2.022,0,0,1-.97,1.035,5.99,5.99,0,0,1-2.2.555,5.131,5.131,0,0,0-.24-1.035A1.672,1.672,0,0,0,22.8.6a2.745,2.745,0,0,0-.96-.54A9.1,9.1,0,0,0,20.19-.3V-.75q3.18.24,3.81.24a.818.818,0,0,0,.54-.135.65.65,0,0,0,.15-.5Zm-6.21,2.01a39.247,39.247,0,0,0-.39-6.15q3.36.84,3.36,1.29,0,.15-.27.3l-.54.33v9.15q.06,3.72.24,7.05a1.746,1.746,0,0,1-.8.63,2.7,2.7,0,0,1-1.185.3.7.7,0,0,1-.5-.18.555.555,0,0,1-.2-.42q.21-2.58.27-5.7ZM40.26-7.92a20.319,20.319,0,0,1-1.65,5.7,13.006,13.006,0,0,1-3.54,4.53l-.42-.27A16.491,16.491,0,0,0,37.575-4.8a50.3,50.3,0,0,0,.7-9.03v-5.16a33.779,33.779,0,0,0-.33-5.31l3.03,1.29H55.86l.54-.75q.09-.12.255-.345a3.007,3.007,0,0,1,.27-.33.315.315,0,0,1,.225-.1,2.535,2.535,0,0,1,.87.48,13.142,13.142,0,0,1,1.275,1.005q.585.525.585.735a2.3,2.3,0,0,1-1.41.69V-.96A4.983,4.983,0,0,1,58.245.7a1.959,1.959,0,0,1-.96,1.02,5.99,5.99,0,0,1-2.2.555,4.411,4.411,0,0,0-.21-1.05,1.659,1.659,0,0,0-.45-.69A5.554,5.554,0,0,0,51.9-.33V-.81q3.03.27,3.6.27a.711.711,0,0,0,.54-.16.766.766,0,0,0,.15-.525V-7.92H49.23V-4.8q.09,3.93.21,6.03a1.921,1.921,0,0,1-.765.615,2.892,2.892,0,0,1-1.335.285.7.7,0,0,1-.495-.18.555.555,0,0,1-.195-.42q.21-2.73.27-6.09V-7.92Zm6.66-8.1v-6.15H40.59v6.15Zm9.27,0v-6.15H49.23v6.15Zm-15.6,2.16a49.957,49.957,0,0,1-.21,5.04h6.54v-6.33H40.59Zm8.64-1.29v6.33h6.96v-6.33Zm23.55-6.84a30.4,30.4,0,0,0-4.5.42l-.81-1.5q1.65.18,3.99.24H89.7l.75-1.08q.15-.18.375-.48t.36-.45a.367.367,0,0,1,.255-.15,2.616,2.616,0,0,1,.9.555,15.313,15.313,0,0,1,1.35,1.17q.63.615.63.825a.444.444,0,0,1-.24.33,1.013,1.013,0,0,1-.51.12H89.85V-1.08A4.587,4.587,0,0,1,89.565.66,2.324,2.324,0,0,1,88.41,1.8a7.036,7.036,0,0,1-2.52.6A2.062,2.062,0,0,0,85.02.66,4.382,4.382,0,0,0,83.775.105,17.448,17.448,0,0,0,81.69-.33V-.75q4.2.3,5.01.3a.934.934,0,0,0,.63-.165.772.772,0,0,0,.18-.585V-21.99Zm7.2,4.41q.12-.15.24-.33a2.88,2.88,0,0,1,.255-.33.367.367,0,0,1,.255-.15,2.088,2.088,0,0,1,.8.48,11.187,11.187,0,0,1,1.14,1.02q.525.54.525.75a2.129,2.129,0,0,1-1.17.63v3.36q.09,4.26.21,6.57a2.083,2.083,0,0,1-.9.57,3.355,3.355,0,0,1-1.26.3.368.368,0,0,1-.345-.18.818.818,0,0,1-.1-.42l.12-.96v-.81H73.32v.93q.03.3.03.72l.09.93q-.09.33-.72.63a3.034,3.034,0,0,1-1.32.3.528.528,0,0,1-.4-.18.6.6,0,0,1-.165-.42q.18-2.43.24-4.92v-2.79a39.246,39.246,0,0,0-.39-6.15l2.76,1.23h6.03Zm-6.66,1.62v8.01h6.42v-8.01Zm34.89-3.27,2.73-.18a19.093,19.093,0,0,0-2.07-2.76l.3-.18a9.677,9.677,0,0,1,3.81,2.175,3.647,3.647,0,0,1,1.23,2.445,1.465,1.465,0,0,1-.315.975.994.994,0,0,1-.795.375,1.517,1.517,0,0,1-.9-.33,8.4,8.4,0,0,0-.87-2.07q-3.33.84-9.09,2.13a1.007,1.007,0,0,1-.75.6l-1.02-2.79q1.08,0,3.63-.15l.12-.48q.42-1.53.72-3.21a19.5,19.5,0,0,0,.33-2.85l3.93,1.05q-.21.66-1.11.66a38.071,38.071,0,0,1-2.94,4.77Zm9.66.06,1.23-.66a20.45,20.45,0,0,0,2.61-1.845,11.61,11.61,0,0,0,2.01-2.055q2.4,1.95,2.4,2.34,0,.15-.42.15l-.72-.03a30.46,30.46,0,0,1-3.285,1.47,33.2,33.2,0,0,1-3.825,1.23V-15a.54.54,0,0,0,.18.48,2.017,2.017,0,0,0,.9.12h2.55a23.7,23.7,0,0,0,2.37-.06.687.687,0,0,0,.57-.3,12.4,12.4,0,0,0,.96-3.12h.36l.09,3.21a1.54,1.54,0,0,1,.69.4.908.908,0,0,1,.18.585.954.954,0,0,1-.45.84,3.921,3.921,0,0,1-1.6.435,30.625,30.625,0,0,1-3.315.135h-2.88a6.521,6.521,0,0,1-1.845-.2,1.311,1.311,0,0,1-.84-.66,3.241,3.241,0,0,1-.225-1.365v-5.22a34.277,34.277,0,0,0-.33-5.37,21.167,21.167,0,0,1,2.535.78q.705.3.705.51,0,.12-.18.27l-.42.3ZM104.76-2.85q.06,2.73.18,4.23a1.6,1.6,0,0,1-.735.645,2.647,2.647,0,0,1-1.275.315.662.662,0,0,1-.465-.18.555.555,0,0,1-.2-.42q.12-1.68.195-3.3t.105-4.11V-9.69a39.247,39.247,0,0,0-.39-6.15l2.73,1.26h4.98l.48-.69q.06-.09.21-.3a1.868,1.868,0,0,1,.27-.315.367.367,0,0,1,.24-.1,2.335,2.335,0,0,1,.825.435,10.191,10.191,0,0,1,1.2.945q.555.51.555.72a1.147,1.147,0,0,1-.45.345,2.437,2.437,0,0,1-.75.225V-.78a5.568,5.568,0,0,1-.2,1.635,1.81,1.81,0,0,1-.84,1,4.671,4.671,0,0,1-1.935.51,3.6,3.6,0,0,0-.45-1.74,2.951,2.951,0,0,0-1.83-.81V-.66q2.01.15,2.46.15a.481.481,0,0,0,.375-.12.644.644,0,0,0,.105-.42V-5.07h-5.4Zm5.4-7.5v-3.36h-5.4v3.36Zm7.74,5.01q.84-.48,1.5-.9a17.722,17.722,0,0,0,2.52-1.95,10.112,10.112,0,0,0,1.83-2.16q2.64,1.95,2.64,2.37,0,.18-.42.18h-.72a29.143,29.143,0,0,1-3.4,1.695,31.073,31.073,0,0,1-3.95,1.4V-.96a.52.52,0,0,0,.195.48,2.131,2.131,0,0,0,.915.12h2.64q2.07,0,2.43-.03a.779.779,0,0,0,.375-.075.57.57,0,0,0,.225-.255A6.161,6.161,0,0,0,125.13-2q.27-.975.54-2.115H126l.09,3.48A1.9,1.9,0,0,1,126.8-.2a.861.861,0,0,1,.2.585.954.954,0,0,1-.45.84,4.114,4.114,0,0,1-1.635.45,29.074,29.074,0,0,1-3.4.15h-2.97a6.521,6.521,0,0,1-1.845-.2A1.355,1.355,0,0,1,115.83.96a3.253,3.253,0,0,1-.24-1.41v-5.4a35.9,35.9,0,0,0-.33-5.52,22.127,22.127,0,0,1,2.55.81q.69.3.69.51,0,.09-.18.24l-.42.27ZM104.76-9.45v3.51h5.4V-9.45Z" transform="translate(692 371)" fill="#e3e8f1"/>
        <path id="パス_18" data-name="パス 18" d="M244.472-13.6l.3.3-3.53,3.53,3.53,3.53-.3.3-3.53-3.53-3.53,3.53-.3-.3,3.53-3.53-3.53-3.53.3-.3,3.53,3.53Zm-3.53,1.914a.831.831,0,0,1-.61-.253.831.831,0,0,1-.253-.61.831.831,0,0,1,.253-.61.831.831,0,0,1,.61-.253.831.831,0,0,1,.61.253.831.831,0,0,1,.253.61.831.831,0,0,1-.253.61A.831.831,0,0,1,240.942-11.682Zm-1.914,1.914a.831.831,0,0,1-.253.61.831.831,0,0,1-.61.253.831.831,0,0,1-.61-.253.831.831,0,0,1-.253-.61.831.831,0,0,1,.253-.61.831.831,0,0,1,.61-.253.831.831,0,0,1,.61.253A.831.831,0,0,1,239.028-9.768Zm3.828,0a.831.831,0,0,1,.253-.61.831.831,0,0,1,.61-.253.831.831,0,0,1,.61.253.831.831,0,0,1,.253.61.831.831,0,0,1-.253.61.831.831,0,0,1-.61.253.831.831,0,0,1-.61-.253A.831.831,0,0,1,242.856-9.768Zm-1.914,1.914a.831.831,0,0,1,.61.253.831.831,0,0,1,.253.61.831.831,0,0,1-.253.61.831.831,0,0,1-.61.253.831.831,0,0,1-.61-.253.831.831,0,0,1-.253-.61.831.831,0,0,1,.253-.61A.831.831,0,0,1,240.942-7.854ZM247.794-6a.054.054,0,0,1-.055-.035.278.278,0,0,1-.015-.1.278.278,0,0,1,.015-.1.054.054,0,0,1,.055-.035h.149q1.13,0,1.13-.674v-4.611a1.123,1.123,0,0,0-.064-.456.338.338,0,0,0-.268-.164,4.974,4.974,0,0,0-.719-.035H247.8q-.069,0-.069-.139t.069-.139a3.633,3.633,0,0,0,1.2-.228,3.475,3.475,0,0,0,1.006-.6v6.376q0,.674,1.14.674h.139a.054.054,0,0,1,.055.035.278.278,0,0,1,.015.1q0,.139-.069.139Z" transform="translate(438.026 360.68)" fill="#e3e8f1"/>
      </g>
    </g>
    <g id="グループ_6" data-name="グループ 6" transform="translate(-19 0.596)">
      <path id="パス_8" data-name="パス 8" d="M25.88-1.56h-1.8v-32.4H37.52v1.8H25.88ZM53.72-15.4a33.164,33.164,0,0,1-7.4,10.12l-.48-.48a34.47,34.47,0,0,0,4.4-7.84,51.656,51.656,0,0,0,2.84-9.44H51a16.056,16.056,0,0,0-3.76.56L46.2-24.52q2.12.24,5.12.32h2.4v-1.4a52.328,52.328,0,0,0-.52-8.2,29.852,29.852,0,0,1,3.54,1.06q1.02.42,1.02.7,0,.2-.36.4l-.68.48v6.96h1.92l.84-1.24q.16-.2.42-.56t.42-.54a.444.444,0,0,1,.32-.18,2.675,2.675,0,0,1,1.04.64,13.231,13.231,0,0,1,1.48,1.38q.68.74.68,1.02-.12.64-1,.64H56.72v3.68a12.059,12.059,0,0,1,4.76,2.86A4.818,4.818,0,0,1,63-13.36,2.1,2.1,0,0,1,62.58-12a1.346,1.346,0,0,1-1.1.52A2.032,2.032,0,0,1,60.2-12a12.266,12.266,0,0,0-1.3-3.26,22.032,22.032,0,0,0-2.18-3.26V-7.48q.08,4.96.32,9.4a2.209,2.209,0,0,1-1.08.88,3.8,3.8,0,0,1-1.64.4,1.147,1.147,0,0,1-.74-.24.7.7,0,0,1-.3-.56q.16-2.36.28-4.58T53.72-8Zm12.2-9.52a52.329,52.329,0,0,0-.52-8.2,32.118,32.118,0,0,1,3.66,1.1q1.02.42,1.02.7,0,.2-.32.4l-.64.44v28.2a1.319,1.319,0,0,0,.36,1.06,2.4,2.4,0,0,0,1.44.3h3.4a26.656,26.656,0,0,0,3.24-.12,1.329,1.329,0,0,0,.52-.16,1.032,1.032,0,0,0,.36-.44,10.9,10.9,0,0,0,.7-2.46q.42-1.98.82-4.14h.48l.16,6.92a2.879,2.879,0,0,1,.98.62,1.148,1.148,0,0,1,.26.78,1.287,1.287,0,0,1-.64,1.16,5.634,5.634,0,0,1-2.26.56q-1.62.16-4.78.16H70.28a5.629,5.629,0,0,1-3.44-.76,3.492,3.492,0,0,1-.92-2.8ZM101-27.52q.08-.12.26-.38a2.967,2.967,0,0,1,.32-.4.42.42,0,0,1,.3-.14,2.445,2.445,0,0,1,.98.56,13.288,13.288,0,0,1,1.38,1.2q.64.64.64.92a1.521,1.521,0,0,1-.62.46,4.727,4.727,0,0,1-.98.34V-9.04a4.894,4.894,0,0,1-.54,2.62,3.035,3.035,0,0,1-2.3,1.02,3.525,3.525,0,0,0-.4-1.96,1.644,1.644,0,0,0-1.36-.84v-.64q1.28.12,1.68.12a.389.389,0,0,0,.34-.14.811.811,0,0,0,.1-.46V-25.48H98.52V-7.36q.08,4.96.32,9.4a3.683,3.683,0,0,1-1.06.76,3.152,3.152,0,0,1-1.46.36.765.765,0,0,1-.54-.26.765.765,0,0,1-.26-.54q.16-2.36.28-4.58t.16-5.82V-25.48H93.92v10.36q.08,4.96.32,9.4a2.474,2.474,0,0,1-.96.8,3.114,3.114,0,0,1-1.48.36.835.835,0,0,1-.58-.24.74.74,0,0,1-.26-.56q.16-2.12.26-4.2t.14-5.24v-5.12a52.327,52.327,0,0,0-.52-8.2l3.24,1.52h1.68a44.245,44.245,0,0,0-.44-7.04q4.32,1.12,4.32,1.72,0,.2-.32.4l-.68.44v4.48h1.8Zm19.48-5.08q.12-.16.32-.44a3.462,3.462,0,0,1,.34-.42.42.42,0,0,1,.3-.14,2.366,2.366,0,0,1,.96.54,11.311,11.311,0,0,1,1.34,1.18q.62.64.62.92a2.454,2.454,0,0,1-1.44.72v3.48q.08,4.24.24,6.68a2.1,2.1,0,0,1-.96.64,4.4,4.4,0,0,1-1.72.32h-.52v-1.4h-11.4v1q0,.24-.7.54a4.2,4.2,0,0,1-1.66.3.645.645,0,0,1-.52-.24.848.848,0,0,1-.2-.56q.16-1.56.24-4v-2.4a47.866,47.866,0,0,0-.44-7.36l3.76,1.6h10.8Zm-.52,5.88v-3.72h-11.4v3.72Zm-11.4,1.12v3.92h11.4V-25.6ZM121.64-12q.16-.24.38-.58a3.167,3.167,0,0,1,.38-.5.461.461,0,0,1,.32-.16,2.588,2.588,0,0,1,1.02.62,13.915,13.915,0,0,1,1.46,1.34q.68.72.68,1-.16.6-1,.6h-6.64V-.8a.635.635,0,0,0,.16.52,1.378,1.378,0,0,0,.72.12h1.84l1.8-.04a.7.7,0,0,0,.3-.12,1.379,1.379,0,0,0,.26-.36q.2-.52,1.16-4.8h.44l.12,4.96a1.542,1.542,0,0,1,.74.54,1.5,1.5,0,0,1,.18.78,1.458,1.458,0,0,1-1.1,1.36,12.525,12.525,0,0,1-4.06.44h-2.52a3.39,3.39,0,0,1-2.36-.58,3.026,3.026,0,0,1-.56-2.1v-9.6h-3.12a15.116,15.116,0,0,1-3.08,8.32q-2.52,3-7.92,4.56l-.2-.6a15.779,15.779,0,0,0,4.52-3.08,10.652,10.652,0,0,0,2.46-3.92A19.723,19.723,0,0,0,109-9.68h-1.72a9.8,9.8,0,0,0-2.88.56l-1.04-2q2.2.24,5.32.32h3.8v-.76a52.33,52.33,0,0,0-.52-8.2q2.4.68,3.34,1.06t.94.66q0,.12-.32.36l-.64.4v6.48h5.6Zm.24-5.68q1.76.6,1.76.96,0,.24-.44.36l-.72.2a27.839,27.839,0,0,1-2.42,2.44,16.765,16.765,0,0,1-2.5,1.88l-.44-.4a21.845,21.845,0,0,0,1.46-3.3,22.328,22.328,0,0,0,.94-3.38ZM105.6-18.2a9.32,9.32,0,0,1,3.68,2.26,3.847,3.847,0,0,1,1.16,2.5,1.814,1.814,0,0,1-.42,1.24,1.307,1.307,0,0,1-1.02.48,1.992,1.992,0,0,1-1.24-.52,9.7,9.7,0,0,0-.9-2.86,17.878,17.878,0,0,0-1.66-2.86Zm40.68-10.64h1.8V3.56H134.64V1.76h11.64Zm41.54,13.27q.09-.12.255-.345a3.006,3.006,0,0,1,.27-.33.315.315,0,0,1,.225-.1q.3,0,1.185.81t.885,1.14q-.12.48-.75.48h-4.2v3.33h2.16l.51-.6q.09-.09.315-.36t.4-.27a1.716,1.716,0,0,1,.705.39,8.784,8.784,0,0,1,.975.84q.45.45.45.66a1.821,1.821,0,0,1-1.17.45,39.321,39.321,0,0,1-.78,6.81,6.417,6.417,0,0,1-1.5,3.24,3.948,3.948,0,0,1-2.7.87,1.981,1.981,0,0,0-.39-1.41,3.668,3.668,0,0,0-1.8-.72v-.48l.81.06q1.44.12,1.86.12a2.155,2.155,0,0,0,.57-.06.9.9,0,0,0,.39-.24,5.382,5.382,0,0,0,.96-2.625,45.252,45.252,0,0,0,.63-5.835h-6.87v.99q0,.15-.495.42a2.375,2.375,0,0,1-1.155.27.576.576,0,0,1-.42-.18.576.576,0,0,1-.18-.42q.21-2.76.27-6.03v-3.33a39.246,39.246,0,0,0-.39-6.15l2.7,1.17h5.91l.6-.84q.09-.12.285-.375a3.983,3.983,0,0,1,.315-.375.346.346,0,0,1,.24-.12,1.977,1.977,0,0,1,.765.435,8.912,8.912,0,0,1,1.08.945q.5.51.5.72-.12.45-.75.45h-4.8v3.24h1.71l.51-.75q.06-.09.21-.33a1.586,1.586,0,0,1,.27-.345.367.367,0,0,1,.24-.1q.3,0,1.17.8t.87,1.125q-.03.48-.72.48h-4.26v3.27h1.59Zm13.23-8.1q.09-.12.255-.345a3.008,3.008,0,0,1,.27-.33.315.315,0,0,1,.225-.1,2.022,2.022,0,0,1,.78.465,11.882,11.882,0,0,1,1.125.99q.525.525.525.735a1.7,1.7,0,0,1-.465.36,2.053,2.053,0,0,1-.735.24v3.39q.06,3.51.24,6.63a2.387,2.387,0,0,1-.9.57,3.141,3.141,0,0,1-1.23.3.368.368,0,0,1-.345-.18.818.818,0,0,1-.1-.42l.12-.6v-.63H196.7a23.911,23.911,0,0,0,2.985,7.665,12.3,12.3,0,0,0,5,4.75l-.06.36a2.215,2.215,0,0,0-1.17.72,3.275,3.275,0,0,0-.72,1.47,13.69,13.69,0,0,1-4.35-5.77,36.025,36.025,0,0,1-2.25-9.195h-1.59a32.43,32.43,0,0,1-1.2,8.52,13.629,13.629,0,0,1-4.23,6.51l-.45-.3a16.874,16.874,0,0,0,3.015-6.99,49.588,49.588,0,0,0,.735-9.09v-5.04a31.53,31.53,0,0,0-.33-5.16l2.88,1.23h5.58Zm-17.28,4.74v-3.24h-2.55v3.24Zm10.77-3.12v8.58h6.27v-8.58Zm-13.32,7.26h2.55v-3.27h-2.55Zm2.55.87h-2.55v3.33h2.55Zm.81,5.34a5.1,5.1,0,0,1,2.19,1.215,2.137,2.137,0,0,1,.69,1.425,1.1,1.1,0,0,1-.225.7.683.683,0,0,1-.555.285,1.03,1.03,0,0,1-.57-.24,4.46,4.46,0,0,0-.675-1.665,7.649,7.649,0,0,0-1.185-1.48Zm-1.74.66a7.069,7.069,0,0,1,1.845,1.95,3.61,3.61,0,0,1,.585,1.8,1.592,1.592,0,0,1-.225.885.675.675,0,0,1-.585.345.883.883,0,0,1-.66-.33,7.454,7.454,0,0,0-.4-2.25,13.01,13.01,0,0,0-.945-2.25Zm-1.71.51a6.515,6.515,0,0,1,1.56,3.99,2.91,2.91,0,0,1-.3,1.395q-.3.555-.72.555a.907.907,0,0,1-.69-.42,11.526,11.526,0,0,0,.15-1.77,17.724,17.724,0,0,0-.42-3.66Zm-1.71.27a15.488,15.488,0,0,1,.45,3.51,4.9,4.9,0,0,1-.525,2.55q-.525.84-1.155.84a.706.706,0,0,1-.54-.225.866.866,0,0,1-.21-.615,1.635,1.635,0,0,1,.27-.9,5.115,5.115,0,0,0,.93-2.07A14.1,14.1,0,0,0,179-7.14Zm38.76-17.19q1.29.66,1.29.93,0,.12-.33.18l-.54.06a26.76,26.76,0,0,1-3.48,3.33,27.532,27.532,0,0,1-4.26,2.88l-.3-.36a28.581,28.581,0,0,0,2.85-3.09,22.4,22.4,0,0,0,1.785-2.595,12.465,12.465,0,0,0,1.185-2.535Zm15.84,8.37q.12-.15.315-.42a4.574,4.574,0,0,1,.315-.4.333.333,0,0,1,.24-.135,2.24,2.24,0,0,1,.825.5,12.185,12.185,0,0,1,1.2,1.05q.555.555.555.765-.12.48-.75.48H224.15a30.4,30.4,0,0,0-4.5.42l-.75-1.53q1.65.18,3.99.24h3.63v-4.65h-1.95a18.539,18.539,0,0,0-3.54.42l-.78-1.53q1.65.18,3.99.24h2.28a30.1,30.1,0,0,0-.3-4.71,26.2,26.2,0,0,1,2.535.8q.705.29.7.5,0,.12-.21.27l-.45.3v2.85h3.48l.66-.93q.12-.15.315-.42t.315-.405a.333.333,0,0,1,.24-.135,2.172,2.172,0,0,1,.81.48,10.55,10.55,0,0,1,1.17,1.035q.54.555.54.765-.12.48-.75.48H228.8V-15h4.56Zm-19.65,4.74a29.128,29.128,0,0,1-3.63,3.36l-.33-.33a44.426,44.426,0,0,0,4.11-5.97,24.709,24.709,0,0,0,1.38-2.775,15.749,15.749,0,0,0,.87-2.625q3.15,1.65,3.15,2.04,0,.12-.27.18l-.54.09q-1.2,1.83-2.43,3.39l.84.33a1.091,1.091,0,0,1-.84.54v7.44q.06,3.72.24,7.05a2.65,2.65,0,0,1-.855.615,2.65,2.65,0,0,1-1.215.315.908.908,0,0,1-.585-.18.528.528,0,0,1-.225-.42q.12-1.77.21-3.435t.12-4.365Zm18.72,1.65q.12-.15.315-.42t.315-.4a.333.333,0,0,1,.24-.135,2.155,2.155,0,0,1,.81.495,13.26,13.26,0,0,1,1.185,1.05q.555.555.555.765-.12.48-.78.48h-6.39V-1.2a19.333,19.333,0,0,0,4.38.42h4.02v.39a1.242,1.242,0,0,0-.84.69,2.637,2.637,0,0,0-.27,1.35h-3.12a14.7,14.7,0,0,1-4.89-.7,7.31,7.31,0,0,1-3.345-2.45,14.308,14.308,0,0,1-2.265-4.83,16.346,16.346,0,0,1-5.13,8.7l-.33-.3a19,19,0,0,0,3.24-7.83,21.969,21.969,0,0,0,.39-4.35,17.35,17.35,0,0,0-.09-1.89q3.54.57,3.54.96,0,.15-.24.24l-.54.27a32.365,32.365,0,0,1-.6,3.21,12.316,12.316,0,0,0,1.62,3.21,7.45,7.45,0,0,0,2.19,2.01V-7.95a39.248,39.248,0,0,0-.39-6.15,24.368,24.368,0,0,1,2.61.81q.72.3.72.51,0,.09-.21.24l-.45.27v3.63h3.12Zm30.27-12.09q.12-.18.33-.465a3.874,3.874,0,0,1,.345-.42.379.379,0,0,1,.255-.135,2.56,2.56,0,0,1,.885.525,12.915,12.915,0,0,1,1.3,1.11q.6.585.6.8-.09.48-.78.48h-8.1v4.08h7.53l.72-1.02.315-.42a4.385,4.385,0,0,1,.375-.45.414.414,0,0,1,.27-.15,2.653,2.653,0,0,1,.9.525,13.319,13.319,0,0,1,1.335,1.11q.615.585.615.8-.12.48-.78.48H248.81a30.4,30.4,0,0,0-4.5.42l-.78-1.53q1.59.18,3.78.24h1.83v-1.26a39.248,39.248,0,0,0-.39-6.15,25.219,25.219,0,0,1,2.58.765q.72.285.72.5,0,.09-.21.24l-.48.3v5.61h4.5v-3.57a39.248,39.248,0,0,0-.39-6.15q3.51.84,3.51,1.29,0,.15-.27.3l-.51.33v2.82h4.44Zm-7.5,10.74a24.881,24.881,0,0,0-.24-3.9,21.169,21.169,0,0,1,2.535.78q.705.3.7.48,0,.12-.21.27l-.48.3v5.91a4.872,4.872,0,0,1-.225,1.635,1.843,1.843,0,0,1-.96.99,6.071,6.071,0,0,1-2.175.495,6.964,6.964,0,0,0-.21-.99,1.259,1.259,0,0,0-.42-.63,4.8,4.8,0,0,0-2.4-.81v-.45q2.94.21,3.48.21a.7.7,0,0,0,.465-.12.542.542,0,0,0,.135-.42Zm-3.72-1.89q1.32.57,1.32.84,0,.15-.33.21l-.54.06a22.613,22.613,0,0,1-3.69,3.84,22.4,22.4,0,0,1-4.8,3.12l-.3-.36a27.5,27.5,0,0,0,3.69-3.66,17.115,17.115,0,0,0,1.74-2.58,10.979,10.979,0,0,0,1.08-2.61Zm9.3-.33a16.417,16.417,0,0,1,4.47,1.575,8.032,8.032,0,0,1,2.52,2.01,3.26,3.26,0,0,1,.78,1.9,1.284,1.284,0,0,1-.285.87.959.959,0,0,1-.765.33,2.045,2.045,0,0,1-.75-.21,12.4,12.4,0,0,0-2.565-3.24,25.537,25.537,0,0,0-3.645-2.94Zm2.79,4.92q1.26.63,1.26.9,0,.12-.39.18l-.63.06a23.758,23.758,0,0,1-5.46,5.13A22.767,22.767,0,0,1,252.8.93a47.293,47.293,0,0,1-7.68,1.47l-.06-.54a45.637,45.637,0,0,0,7.575-2.3A21.113,21.113,0,0,0,258.5-4.08a17.035,17.035,0,0,0,2.3-2.595,15.6,15.6,0,0,0,1.69-2.745Zm26.82-14.73a9.232,9.232,0,0,1,5.2,1.45,9.556,9.556,0,0,1,3.375,3.85,11.666,11.666,0,0,1,1.175,5.2,15.3,15.3,0,0,1-1.4,6.55,11.759,11.759,0,0,1-4,4.8,10.282,10.282,0,0,1-6,1.8,10.545,10.545,0,0,1-6.325-2,12.95,12.95,0,0,1-4.3-5.55A20.485,20.485,0,0,1,277.25-15a30.729,30.729,0,0,1,2.1-11.975,18.219,18.219,0,0,1,5.3-7.475,10.442,10.442,0,0,1,6.45-2.5,10.934,10.934,0,0,1,4.375.775,6.2,6.2,0,0,1,2.625,1.95,3.9,3.9,0,0,1,.85,2.275,2.631,2.631,0,0,1-.8,1.975,2.638,2.638,0,0,1-1.9.775,2.776,2.776,0,0,1-2.1-.975,4.036,4.036,0,0,1-1-2.575,3.154,3.154,0,0,0-.625-1.85,2.116,2.116,0,0,0-1.675-.6q-3.8,0-5.825,5.175A40.766,40.766,0,0,0,282.5-18.2a10.746,10.746,0,0,1,3.875-3.55,9.906,9.906,0,0,1,4.675-1.2ZM289.4-1.25a4.574,4.574,0,0,0,3.375-1.45,9.584,9.584,0,0,0,2.2-3.875,17.244,17.244,0,0,0,.775-5.275q0-5.2-2-6.95a6.479,6.479,0,0,0-4.35-1.75,6.883,6.883,0,0,0-3.95,1.35,8.75,8.75,0,0,0-3.05,4.15,29.083,29.083,0,0,0,1.45,9.725A5.489,5.489,0,0,0,289.4-1.25Zm37.75-21.52a16.685,16.685,0,0,0,3.8,5.04,21.114,21.114,0,0,0,5.775,3.93l-.09.3a2.8,2.8,0,0,0-1.29.735,2.91,2.91,0,0,0-.78,1.245,22.741,22.741,0,0,1-5.025-5.055,21.742,21.742,0,0,1-3.225-6.345h-2.1a21.671,21.671,0,0,0-3.84.42l-.81-1.53q1.65.18,3.99.24h2.04l.99-1.53,2.61,1.89Q328.77-22.86,327.15-22.77Zm-8.88.63q1.41.54,1.41.81,0,.15-.33.24l-.54.12a31.683,31.683,0,0,1-3.81,5.5,22.931,22.931,0,0,1-5.13,4.515l-.27-.36a26.655,26.655,0,0,0,4.68-6.33,23.245,23.245,0,0,0,1.29-2.805,14.453,14.453,0,0,0,.78-2.715Zm-.81,10.08a16.214,16.214,0,0,0-3.3.42l-.81-1.53q1.65.18,3.99.24h10.92l.6-.69q.12-.12.375-.4a.711.711,0,0,1,.435-.285,1.878,1.878,0,0,1,.75.45,10.854,10.854,0,0,1,1.065.96q.495.51.495.72a1.6,1.6,0,0,1-1.14.48,76.606,76.606,0,0,1-.825,8.76Q329.46.3,328.47,1.26a4.93,4.93,0,0,1-3.48,1.14,1.944,1.944,0,0,0-.6-1.71,3.8,3.8,0,0,0-1.2-.54,12.68,12.68,0,0,0-1.86-.42l.03-.51q1.17.12,2.52.225t1.86.1a2.848,2.848,0,0,0,.66-.06.972.972,0,0,0,.45-.27q.6-.6,1.035-3.585t.645-7.7h-6.66A22.451,22.451,0,0,1,320.625-6.7a14.5,14.5,0,0,1-3.18,4.83,21.06,21.06,0,0,1-6.315,4.3l-.33-.48a19.4,19.4,0,0,0,5.19-4.485,14.127,14.127,0,0,0,2.475-4.635,23.535,23.535,0,0,0,.825-4.89Z" transform="translate(132.92 292)" fill="#e3e8f1"/>
      <path id="パス_7" data-name="パス 7" d="M11.536-9.1q.042-.056.119-.154a1.12,1.12,0,0,1,.133-.147A.171.171,0,0,1,11.9-9.45a.869.869,0,0,1,.35.217,4.241,4.241,0,0,1,.49.469q.224.252.224.35a.768.768,0,0,1-.518.224q-.028,1.876-.091,2.961a9.88,9.88,0,0,1-.2,1.659,1.843,1.843,0,0,1-.378.826,1.6,1.6,0,0,1-1.2.448,3.253,3.253,0,0,0-.028-.476.489.489,0,0,0-.126-.28,1.158,1.158,0,0,0-.658-.336V-3.6q.56.056.91.056A.717.717,0,0,0,10.9-3.57a.3.3,0,0,0,.133-.1A2.821,2.821,0,0,0,11.3-4.93q.084-1.05.126-3.43l-1.876.714V-5.18q.028,1.736.112,3.29a.773.773,0,0,1-.364.308,1.243,1.243,0,0,1-.56.14.374.374,0,0,1-.252-.084.252.252,0,0,1-.1-.2q.056-.812.091-1.6t.049-1.988V-7.252L6.9-6.622V-.966a.491.491,0,0,0,.2.448,1.584,1.584,0,0,0,.77.126H9.83a16.944,16.944,0,0,0,1.79-.056.645.645,0,0,0,.245-.063.478.478,0,0,0,.161-.147A10.857,10.857,0,0,0,12.6-2.716h.168L12.81-.6a1,1,0,0,1,.392.217.4.4,0,0,1,.112.287.5.5,0,0,1-.28.455,2.74,2.74,0,0,1-1.029.224q-.749.063-2.233.063H7.784A4.618,4.618,0,0,1,6.622.532a.934.934,0,0,1-.581-.4,1.65,1.65,0,0,1-.175-.847v-5.5l-1.554.6L4.06-5.95l1.806-.7v-2a14.3,14.3,0,0,0-.126-2.072q1.526.434,1.526.616,0,.07-.126.14l-.24.152v2.758l1.624-.63v-2.03a14.723,14.723,0,0,0-.126-2.1,9.327,9.327,0,0,1,1.176.371q.336.147.336.245,0,.07-.126.14l-.238.154v2.828l1.638-.63.1-.042ZM4.074-7.966l.119-.2a1.255,1.255,0,0,1,.133-.2.155.155,0,0,1,.112-.063q.084,0,.336.238a6.076,6.076,0,0,1,.476.5.822.822,0,0,1,.224.364q-.042.224-.35.224H3.458v4.34Q4.074-3.01,5.39-3.6l.07.154Q3.444-1.89,1.554-.686a.581.581,0,0,1-.28.406L.686-1.666q.77-.252,1.736-.658V-7.1H1.9a2.477,2.477,0,0,0-.84.2L.7-7.616A9.336,9.336,0,0,0,1.876-7.5h.546V-8.68a18.315,18.315,0,0,0-.182-2.87,10.066,10.066,0,0,1,1.218.371q.35.147.35.245,0,.07-.112.14l-.238.154V-7.5h.35ZM22.722-2.6q.028,1.736.112,3.29A.873.873,0,0,1,22.456,1a1.454,1.454,0,0,1-.658.14.381.381,0,0,1-.245-.084.246.246,0,0,1-.1-.2q.056-.826.1-1.6t.047-2.04v-7.322H18.564a14.186,14.186,0,0,0-2.1.2l-.364-.7q.77.084,1.862.112h8.414l.364-.532q.056-.07.168-.224a2.888,2.888,0,0,1,.182-.231.189.189,0,0,1,.126-.077,1.292,1.292,0,0,1,.434.273q.35.273.658.567t.308.392q-.042.224-.35.224H22.722v2.282a8.73,8.73,0,0,1,2.261.742,4.007,4.007,0,0,1,1.288.959,1.515,1.515,0,0,1,.4.917.552.552,0,0,1-.133.385.458.458,0,0,1-.357.147.9.9,0,0,1-.35-.084,6.309,6.309,0,0,0-1.288-1.435,13.769,13.769,0,0,0-1.82-1.337ZM37.268-1.26Q35.35-.336,32.592.756a.469.469,0,0,1-.308.336l-.7-1.33q.56-.084,2.24-.448V-5.11h-.686a4.555,4.555,0,0,0-1.176.2l-.35-.714q.63.084,1.512.112h.7V-7.294H33.46a1.29,1.29,0,0,0-.588.2l-.294-.56A8.851,8.851,0,0,1,31.43-6.58l-.182-.14A11.356,11.356,0,0,0,32.8-9.184a9.535,9.535,0,0,0,.539-1.379,6.852,6.852,0,0,0,.287-1.309q.826.294,1.162.455t.336.245q0,.042-.126.1l-.266.1a4.843,4.843,0,0,1,1.729.938A1.428,1.428,0,0,1,37-9.072a.573.573,0,0,1-.154.413.487.487,0,0,1-.364.161.613.613,0,0,1-.378-.14,6,6,0,0,0-.588-1.008,7.431,7.431,0,0,0-.91-1.064,13.3,13.3,0,0,1-.847,1.491,12.71,12.71,0,0,1-1.085,1.435q.672.07,1.512.1h.784l.266-.42q.056-.07.133-.189A1.109,1.109,0,0,1,35.5-8.47a.161.161,0,0,1,.112-.056.84.84,0,0,1,.343.21,4.456,4.456,0,0,1,.483.455q.224.245.224.343-.056.224-.364.224H34.776v1.778h.5l.28-.434.133-.2a1.108,1.108,0,0,1,.133-.175.161.161,0,0,1,.112-.056q.084,0,.35.224a4.734,4.734,0,0,1,.49.476q.224.252.224.35-.056.224-.35.224H34.776V-.882l2.45-.56ZM40.88-5.026A7.591,7.591,0,0,0,42.112-2a5.722,5.722,0,0,0,2.2,1.86l-.028.168a1.794,1.794,0,0,0-.63.455,1.26,1.26,0,0,0-.308.651q-2.156-1.708-2.758-6.16h-.014A8.429,8.429,0,0,1,39.214-1.4,7.959,7.959,0,0,1,35.98,1.12L35.84.882a7.555,7.555,0,0,0,2.583-2.5,9.239,9.239,0,0,0,1.141-3.409h-.8a6.315,6.315,0,0,0-1.4.2l-.35-.728q.728.084,1.764.112h.84q.112-1.218.14-2.828h-1.44A6.64,6.64,0,0,1,36.974-6.1l-.2-.126a11.579,11.579,0,0,0,.7-1.918,8.006,8.006,0,0,0,.266-1.267,9.97,9.97,0,0,0,.1-1.337q0-.294-.014-.42,1.554.35,1.554.532,0,.042-.126.112l-.238.112A14.525,14.525,0,0,1,38.5-8.694h1.26v-.14q.014-.7-.035-1.505a13.057,13.057,0,0,0-.147-1.379,10.406,10.406,0,0,1,1.26.168q.35.084.35.182,0,.056-.112.126l-.238.154L40.81-8.694h.99l.294-.434q.07-.084.14-.182a1.914,1.914,0,0,1,.14-.175.189.189,0,0,1,.126-.077.974.974,0,0,1,.371.224,5.306,5.306,0,0,1,.539.483q.252.259.252.357-.056.224-.364.224H40.81q-.056,1.778-.168,2.828h1.61l.28-.42a2.2,2.2,0,0,1,.133-.189q.091-.119.147-.182a.155.155,0,0,1,.112-.063.974.974,0,0,1,.371.224,5.218,5.218,0,0,1,.532.476q.245.252.245.35-.042.224-.35.224ZM35.168-1.694v-.028a11.862,11.862,0,0,0,.238-1.456,9.4,9.4,0,0,0,.056-1.4l.826.308q.574.112.574.252,0,.07-.14.14l-.224.112A12.234,12.234,0,0,1,35.392-1.6Zm-2.366.35a.583.583,0,0,1-.406-.224q.028-.336.028-.5A8.3,8.3,0,0,0,32.06-4.35l.2-.056a4.115,4.115,0,0,1,.819,1.141,2.534,2.534,0,0,1,.259,1.043,1.174,1.174,0,0,1-.154.644.446.446,0,0,1-.384.234Zm23.632-7.07q.056-.07.112-.154a1.345,1.345,0,0,1,.119-.154.171.171,0,0,1,.119-.07,1.045,1.045,0,0,1,.385.231,5.686,5.686,0,0,1,.56.49q.259.259.259.357a1.064,1.064,0,0,1-.56.28v1.358q.042,1.722.1,2.646a.93.93,0,0,1-.427.287A1.576,1.576,0,0,1,56.49-3h-.168v-.7H53.984a8.374,8.374,0,0,0,2.422,2.02A11.9,11.9,0,0,0,59.528-.406L59.5-.252a1.125,1.125,0,0,0-.574.329,1.508,1.508,0,0,0-.364.651,10.282,10.282,0,0,1-2.814-1.757A8.873,8.873,0,0,1,53.7-3.612v1.456q.042,1.834.1,2.814a.693.693,0,0,1-.371.329,1.375,1.375,0,0,1-.609.147.322.322,0,0,1-.238-.084A.269.269,0,0,1,52.5.85q.084-1.106.112-2.24V-2.66A11.59,11.59,0,0,1,50.2-.672,15.677,15.677,0,0,1,47.124.812L47,.616a14.124,14.124,0,0,0,2.835-1.925A11.962,11.962,0,0,0,51.968-3.7H50.05v.448q0,.1-.3.238a1.431,1.431,0,0,1-.609.14.226.226,0,0,1-.182-.084.3.3,0,0,1-.07-.2q.056-.644.084-1.652v-.966a18.316,18.316,0,0,0-.182-2.87l1.358.6h2.464V-9.464H49.63a14.186,14.186,0,0,0-2.1.2L47.166-10q.77.084,1.862.112h3.584a13.136,13.136,0,0,0-.126-1.974,11.11,11.11,0,0,1,1.232.385q.35.147.35.245,0,.07-.126.14l-.238.154v1.05h3.248l.364-.5q.07-.084.175-.224t.168-.21a.171.171,0,0,1,.119-.07,1.221,1.221,0,0,1,.42.259,7.212,7.212,0,0,1,.637.553q.3.294.3.392-.056.224-.364.224H53.7v1.428h2.478ZM52.612-6.1V-7.64H50.05V-6.1Zm3.71,0V-7.64H53.7V-6.1Zm-3.71.406H50.05v1.6h2.562Zm1.092,0v1.6h2.618V-5.7ZM72.156-10.72q.056-.07.161-.21t.189-.14a.914.914,0,0,1,.357.21,4.744,4.744,0,0,1,.511.455q.238.245.238.343a.8.8,0,0,1-.217.168,1.205,1.205,0,0,1-.329.126v1.106q.028,1.33.084,2.114a.774.774,0,0,1-.392.252,1.576,1.576,0,0,1-.56.126h-.154v-.378H65.17V-6.3q0,.084-.28.21a1.385,1.385,0,0,1-.574.126.206.206,0,0,1-.175-.084.318.318,0,0,1-.063-.2q.056-.532.084-1.344v-.826a16.113,16.113,0,0,0-.154-2.52l1.246.546h1.54a11.268,11.268,0,0,0-.084-1.47q1.372.392,1.372.6,0,.042-.112.126l-.21.14v.6h1.61a11.267,11.267,0,0,0-.084-1.47q1.386.392,1.386.6,0,.042-.112.126l-.21.14v.6h1.568ZM66.794-8.68V-9.968H65.17V-8.68Zm2.576,0V-9.968H67.76V-8.68Zm2.674,0V-9.968H70.35V-8.68ZM65.17-6.958h1.624V-8.274H65.17Zm4.2-1.316H67.76v1.316h1.61Zm.98,0v1.316h1.694V-8.274ZM72.884-6.02q.07-.084.14-.182a1.91,1.91,0,0,1,.14-.175.189.189,0,0,1,.126-.077,1.023,1.023,0,0,1,.378.217,5.335,5.335,0,0,1,.553.469q.259.252.259.35-.056.224-.364.224H65.142a14.186,14.186,0,0,0-2.1.2l-.378-.714q.77.084,1.862.112h8.05Zm-1.2,1.484A1.739,1.739,0,0,1,71.8-4.7q.07-.091.112-.14a.126.126,0,0,1,.1-.049.819.819,0,0,1,.336.2,4.489,4.489,0,0,1,.469.42q.217.224.217.322a.714.714,0,0,1-.476.224v.658l.014.392q.014.462.056.826a.632.632,0,0,1-.329.224,1.63,1.63,0,0,1-.623.112H71.49v-.364H65.68v.294q0,.07-.252.175a1.561,1.561,0,0,1-.6.1.188.188,0,0,1-.168-.084.345.345,0,0,1-.056-.2q.028-.168.07-.84V-3a10.99,10.99,0,0,0-.112-1.764l1.274.574h5.628Zm-6.006.756v1.512h5.81V-3.78Zm7.43,3.71q.056-.07.147-.2A1.565,1.565,0,0,1,73.4-.455a.155.155,0,0,1,.112-.063,1.045,1.045,0,0,1,.385.231,5.69,5.69,0,0,1,.56.49q.259.259.259.357-.042.21-.35.21h-9.52a14.186,14.186,0,0,0-2.1.2l-.364-.7q.77.084,1.862.112H67.03A.965.965,0,0,1,66.682.2a2.623,2.623,0,0,0-.231-.952,4.033,4.033,0,0,0-.5-.868l.14-.084a2.865,2.865,0,0,1,1.232.651,1.163,1.163,0,0,1,.392.8.688.688,0,0,1-.126.413.523.523,0,0,1-.322.217H69.3a8.358,8.358,0,0,0,.392-1.141,7.792,7.792,0,0,0,.224-1.1,11.416,11.416,0,0,1,1.19.42q.336.154.336.238,0,.042-.126.1l-.252.1A11.131,11.131,0,0,1,69.65.378H72.8Zm5.838-9.044q.224-.644.42-1.428a11.247,11.247,0,0,0,.266-1.372q1.526.574,1.526.756,0,.042-.126.1l-.252.1a16.56,16.56,0,0,1-1.54,2.086,1.262,1.262,0,0,1,.546.966.607.607,0,0,1-.14.413.445.445,0,0,1-.35.161.672.672,0,0,1-.392-.14,2.869,2.869,0,0,0-.42-.98,5.229,5.229,0,0,0-.714-.91l.126-.112a4.311,4.311,0,0,1,1.036.392Zm9.506-1.344q.042-.056.112-.154a1.214,1.214,0,0,1,.119-.147.147.147,0,0,1,.105-.049.856.856,0,0,1,.343.2,4.65,4.65,0,0,1,.483.42q.224.224.224.322a.78.78,0,0,1-.518.252V-8.26q.042,1.708.1,2.632a.956.956,0,0,1-.364.245,1.459,1.459,0,0,1-.6.119H88.27v-.5h-1.4a8.155,8.155,0,0,0,.952,2.534,9.05,9.05,0,0,0,.693-1.078,5.539,5.539,0,0,0,.455-1.036q1.2.854,1.2,1.036,0,.07-.126.07l-.238.014a17.424,17.424,0,0,1-1.848,1.26A6.413,6.413,0,0,0,90.478-.78l-.014.14a.966.966,0,0,0-.532.336A1.75,1.75,0,0,0,89.6.364a7.45,7.45,0,0,1-1.841-2.3,11.324,11.324,0,0,1-1-3.486V-.364a1.638,1.638,0,0,1-.28,1.029,1.672,1.672,0,0,1-1.148.455,1.23,1.23,0,0,0-.238-.756A1.979,1.979,0,0,0,84.07-.028v-.21q1.19.1,1.428.1A.327.327,0,0,0,85.715-.2a.253.253,0,0,0,.063-.2V-3.724a.473.473,0,0,1-.189.084,1.986,1.986,0,0,1-.273.042,7.208,7.208,0,0,1-1.169,2.3A6.151,6.151,0,0,1,82.138.4L82.012.2a5.834,5.834,0,0,0,1.449-1.7,7.909,7.909,0,0,0,.847-2.177h-.56a2.99,2.99,0,0,0-.952.2L82.418-4.2a10.886,10.886,0,0,0,1.26.112h.588l.56-.588.952.854V-5.768H84.392v.35q0,.084-.252.189a1.6,1.6,0,0,1-.616.105.206.206,0,0,1-.175-.084.318.318,0,0,1-.063-.2q.056-.6.084-1.54v-.91a17.427,17.427,0,0,0-.182-2.8l1.344.546h.8a7.347,7.347,0,0,0,.182-1.764,11.892,11.892,0,0,1,1.26.28q.35.112.35.2,0,.056-.126.112l-.252.126a13.606,13.606,0,0,1-.9,1.05h2.38ZM79.982-5.7l1.652-.084a8.583,8.583,0,0,0-.588-1.232L81.2-7.1a3.761,3.761,0,0,1,1.246.987,1.682,1.682,0,0,1,.392.987.764.764,0,0,1-.147.483.439.439,0,0,1-.357.189.616.616,0,0,1-.434-.21,3.677,3.677,0,0,0-.14-.784l-.826.2V-2.56q.028,1.736.112,3.29a1.166,1.166,0,0,1-.357.27,1.2,1.2,0,0,1-.581.133.353.353,0,0,1-.238-.084.252.252,0,0,1-.1-.2q.056-.826.1-1.6t.056-2.037v-2.24l-1.358.28a.462.462,0,0,1-.35.294l-.42-1.19,1.33-.028q.616-1.106,1.036-1.96A14.314,14.314,0,0,0,80.787-9a9.191,9.191,0,0,0,.413-1.274q1.414.672,1.414.854,0,.07-.14.1l-.28.056q-.462.77-1.183,1.75t-1.463,1.83ZM88.27-8.15V-9.69H84.392v1.54Zm-3.878.406V-6.19H88.27V-7.742Zm-2.94,3.836a3.474,3.474,0,0,1,1.043,1,1.86,1.86,0,0,1,.329.973.845.845,0,0,1-.154.525.449.449,0,0,1-.364.2.573.573,0,0,1-.42-.21,4.034,4.034,0,0,0-.175-1.2,8.939,8.939,0,0,0-.441-1.225Zm-2.254.28q.574.07.574.21,0,.07-.14.14l-.224.112A11.39,11.39,0,0,1,78.8-1.4,7.1,7.1,0,0,1,77.994.014L77.784-.1l.252-.812a11.843,11.843,0,0,0,.231-1.274,9.868,9.868,0,0,0,.091-1.26q0-.294-.014-.42Zm20.2-.49a1.157,1.157,0,0,1-.847-.357A1.157,1.157,0,0,1,98.2-5.32a1.173,1.173,0,0,1,.357-.861,1.157,1.157,0,0,1,.847-.357,1.173,1.173,0,0,1,.861.357,1.173,1.173,0,0,1,.357.861,1.157,1.157,0,0,1-.357.847,1.173,1.173,0,0,1-.865.357ZM119.04-8.066q.042-.056.112-.161a1.611,1.611,0,0,1,.119-.161.14.14,0,0,1,.105-.056,1.045,1.045,0,0,1,.385.231,6.377,6.377,0,0,1,.567.49q.266.259.266.357a1.156,1.156,0,0,1-.588.28V-.35A2.094,2.094,0,0,1,119.9.4a.943.943,0,0,1-.469.476,2.969,2.969,0,0,1-1.057.259,1.947,1.947,0,0,0-.1-.483.676.676,0,0,0-.21-.3,2.607,2.607,0,0,0-1.232-.42V-.28q1.47.112,1.792.112a.354.354,0,0,0,.252-.07.33.33,0,0,0,.07-.238V-7.294H110.7v4.662q.028,1.736.112,3.29a.95.95,0,0,1-.392.322,1.31,1.31,0,0,1-.616.154.353.353,0,0,1-.238-.084.252.252,0,0,1-.1-.2q.056-.826.1-1.6t.056-2.037V-5.432a18.317,18.317,0,0,0-.182-2.87l1.358.616h3.4V-9.408h-3.22a14.186,14.186,0,0,0-2.1.2L108.5-9.94q.77.084,1.862.112H114.2a13.135,13.135,0,0,0-.126-1.974q.882.238,1.225.371t.343.231q0,.07-.112.14l-.238.154v1.078h3.556l.35-.476q.056-.07.161-.21t.168-.21a.171.171,0,0,1,.119-.07,1.273,1.273,0,0,1,.427.252,6.517,6.517,0,0,1,.637.532q.294.28.294.378-.056.224-.364.224h-5.35v1.722h3.51Zm-2.226,5.082.133-.175a1.859,1.859,0,0,1,.147-.175.161.161,0,0,1,.112-.056.952.952,0,0,1,.364.21,4.407,4.407,0,0,1,.518.455q.238.245.238.343-.042.224-.336.224h-2.744v.91l.014.546q.014.616.056,1.19a.862.862,0,0,1-.343.224,1.565,1.565,0,0,1-.623.112.241.241,0,0,1-.2-.084.3.3,0,0,1-.07-.2q.056-.63.1-1.708v-.994h-.938a9.114,9.114,0,0,0-1.68.2L111.2-2.69q.77.084,1.862.112h1.12V-4.312h-.868a8.271,8.271,0,0,0-1.6.2l-.35-.714q.77.084,1.862.112H115.2a10.694,10.694,0,0,0,.4-1.267,8.99,8.99,0,0,0,.231-1.211q.812.266,1.134.413t.322.231q0,.042-.126.1l-.252.084a14.815,14.815,0,0,1-1.358,1.652h.994l.252-.35a1.208,1.208,0,0,0,.119-.154.894.894,0,0,1,.133-.161.171.171,0,0,1,.112-.049.839.839,0,0,1,.336.182,3.847,3.847,0,0,1,.469.4q.217.217.217.315a.3.3,0,0,1-.336.224h-2.6v1.736h1.288Zm-4.368-4.06a3.094,3.094,0,0,1,1.2.728,1.255,1.255,0,0,1,.385.84.663.663,0,0,1-.154.455.484.484,0,0,1-.378.175.7.7,0,0,1-.434-.182,3.444,3.444,0,0,0-.266-1,4.7,4.7,0,0,0-.5-.931ZM128.014-2.83Q126.39-1.7,124.906-.772a.561.561,0,0,1-.112.231.368.368,0,0,1-.182.133l-.658-1.47q.546-.14,1.687-.511t2.373-.819V-7.1h-1.288a14.186,14.186,0,0,0-2.1.2l-.378-.728q.77.084,1.862.112h1.9v-1.01a18.317,18.317,0,0,0-.182-2.87,10.447,10.447,0,0,1,1.239.371q.357.147.357.245,0,.07-.126.14l-.238.154V-2.66q.028,1.736.112,3.29a.742.742,0,0,1-.371.322,1.342,1.342,0,0,1-.6.14.3.3,0,0,1-.224-.084.269.269,0,0,1-.084-.2q.084-1.148.112-2.324Zm4.116-2.954q.644-.6,1.162-1.176a10.523,10.523,0,0,0,.924-1.127,8.028,8.028,0,0,0,.686-1.127q1.344.966,1.344,1.148,0,.07-.14.07h-.266a14.655,14.655,0,0,1-1.673,1.323,18.124,18.124,0,0,1-2.037,1.225V-.882a.433.433,0,0,0,.119.35.85.85,0,0,0,.5.1h1.176q.756,0,1.12-.028a.327.327,0,0,0,.294-.182,12.989,12.989,0,0,0,.5-1.974h.168l.056,2.044a.833.833,0,0,1,.343.21.43.43,0,0,1,.091.28.479.479,0,0,1-.224.427,1.914,1.914,0,0,1-.784.21,15.64,15.64,0,0,1-1.624.063h-1.33a2.89,2.89,0,0,1-.91-.112.76.76,0,0,1-.455-.378,1.728,1.728,0,0,1-.133-.756v-7.9a18.318,18.318,0,0,0-.182-2.87,11.538,11.538,0,0,1,1.253.385q.357.147.357.245,0,.07-.112.14l-.224.154Zm8.414-3.332q.224-.644.42-1.428a11.25,11.25,0,0,0,.266-1.372q1.526.574,1.526.756,0,.042-.126.1l-.252.1a16.561,16.561,0,0,1-1.54,2.086,1.262,1.262,0,0,1,.546.966.607.607,0,0,1-.14.413.445.445,0,0,1-.35.161.672.672,0,0,1-.392-.14,2.868,2.868,0,0,0-.42-.98,5.229,5.229,0,0,0-.714-.91l.126-.112a4.311,4.311,0,0,1,1.036.392Zm9.506-1.344q.042-.056.112-.154a1.214,1.214,0,0,1,.119-.147.147.147,0,0,1,.1-.049.856.856,0,0,1,.343.2,4.648,4.648,0,0,1,.483.42q.224.224.224.322a.78.78,0,0,1-.518.252V-8.26q.042,1.708.1,2.632a.956.956,0,0,1-.364.245,1.459,1.459,0,0,1-.6.119h-.182v-.5h-1.4a8.155,8.155,0,0,0,.952,2.534,9.048,9.048,0,0,0,.693-1.078,5.539,5.539,0,0,0,.455-1.036q1.2.854,1.2,1.036,0,.07-.126.07l-.238.014a17.426,17.426,0,0,1-1.848,1.26,6.413,6.413,0,0,0,2.52,2.184l-.014.14a.966.966,0,0,0-.532.336,1.75,1.75,0,0,0-.336.672,7.45,7.45,0,0,1-1.841-2.3,11.324,11.324,0,0,1-1-3.486V-.364a1.638,1.638,0,0,1-.28,1.029,1.672,1.672,0,0,1-1.148.455,1.23,1.23,0,0,0-.238-.756,1.979,1.979,0,0,0-1.022-.392v-.21q1.19.1,1.428.1a.328.328,0,0,0,.217-.056.253.253,0,0,0,.063-.2v-3.33a.473.473,0,0,1-.189.084,1.986,1.986,0,0,1-.273.042,7.208,7.208,0,0,1-1.169,2.3A6.151,6.151,0,0,1,143.732.4l-.12-.2a5.834,5.834,0,0,0,1.449-1.7,7.908,7.908,0,0,0,.847-2.177h-.56a2.99,2.99,0,0,0-.952.2l-.378-.714a10.887,10.887,0,0,0,1.26.112h.588l.56-.588.952.854V-5.768h-1.386v.35q0,.084-.252.189a1.6,1.6,0,0,1-.616.105.206.206,0,0,1-.175-.084.318.318,0,0,1-.063-.2q.056-.6.084-1.54v-.91a17.43,17.43,0,0,0-.182-2.8l1.344.546h.8a7.347,7.347,0,0,0,.182-1.764,11.891,11.891,0,0,1,1.26.28q.35.112.35.2,0,.056-.126.112l-.252.126a13.611,13.611,0,0,1-.9,1.05h2.38ZM141.58-5.7l1.652-.084a8.586,8.586,0,0,0-.588-1.232L142.8-7.1a3.761,3.761,0,0,1,1.246.987,1.682,1.682,0,0,1,.392.987.764.764,0,0,1-.147.483.439.439,0,0,1-.357.189.616.616,0,0,1-.434-.21,3.677,3.677,0,0,0-.14-.784l-.826.2V-2.56q.028,1.736.112,3.29a1.166,1.166,0,0,1-.357.273,1.2,1.2,0,0,1-.581.133.353.353,0,0,1-.238-.084.252.252,0,0,1-.1-.2q.056-.826.1-1.6t.056-2.037v-2.24l-1.358.28a.462.462,0,0,1-.35.294l-.42-1.19,1.33-.028q.616-1.106,1.036-1.96A14.314,14.314,0,0,0,142.387-9a9.19,9.19,0,0,0,.413-1.274q1.414.672,1.414.854,0,.07-.14.1l-.28.056q-.462.77-1.183,1.75T141.148-5.68Zm8.288-2.45V-9.69H145.99v1.54Zm-3.878.406V-6.19h3.878V-7.742Zm-2.94,3.836a3.474,3.474,0,0,1,1.043,1,1.86,1.86,0,0,1,.329.973.845.845,0,0,1-.154.525.449.449,0,0,1-.364.2.573.573,0,0,1-.42-.21,4.034,4.034,0,0,0-.175-1.2,8.941,8.941,0,0,0-.441-1.225Zm-2.254.28q.574.07.574.21,0,.07-.14.14l-.224.112A11.394,11.394,0,0,1,140.4-1.4a7.1,7.1,0,0,1-.8,1.414L139.39-.1l.252-.812a11.843,11.843,0,0,0,.231-1.274,9.869,9.869,0,0,0,.091-1.26q0-.294-.014-.42Z" transform="translate(156.314 241)" fill="#e3e8f1"/>
    </g>
    <g id="グループ_4" data-name="グループ 4" transform="translate(0.5 1.5)">
      <path id="パス_6" data-name="パス 6" d="M0,0V70" transform="translate(487.5 224.5)" fill="none" stroke="#fff" stroke-width="1"/>
      <path id="パス_5" data-name="パス 5" d="M0,0V70" transform="translate(489.5 224.5)" fill="none" stroke="#fff" stroke-width="1"/>
      <path id="パス_4" data-name="パス 4" d="M0,0V70" transform="translate(491.5 224.5)" fill="none" stroke="#fff" stroke-width="1"/>
    </g>
    <g id="グループ_5" data-name="グループ 5" transform="translate(379.5 1.5)">
      <path id="パス_3" data-name="パス 3" d="M0,0V70" transform="translate(487.5 224.5)" fill="none" stroke="#fff" stroke-width="1"/>
      <path id="パス_2" data-name="パス 2" d="M0,0V70" transform="translate(489.5 224.5)" fill="none" stroke="#fff" stroke-width="1"/>
      <path id="パス_1" data-name="パス 1" d="M0,0V70" transform="translate(491.5 224.5)" fill="none" stroke="#fff" stroke-width="1"/>
    </g>
  </g>
</svg>
