<?xml version="1.0" encoding="utf-8"?>
<!-- Generator: Adobe Illustrator 24.3.0, SVG Export Plug-In . SVG Version: 6.00 Build 0)  -->
<svg version="1.1" id="レイヤー_1" xmlns="http://www.w3.org/2000/svg" xmlns:xlink="http://www.w3.org/1999/xlink" x="0px"
	 y="0px" viewBox="0 0 722.4 279.2" style="enable-background:new 0 0 722.4 279.2;" xml:space="preserve">
<style type="text/css">
	.st0{fill:none;}
	.st1{enable-background:new    ;}
	.st2{fill:#EFEFEF;}
</style>
<rect y="0" class="st0" width="722.4" height="279.2"/>
<g>
	<g class="st1">
		<path class="st2" d="M84.8,266c0-0.2-0.1-0.3-0.2-0.3c-0.1,0-0.2,0.1-0.3,0.2c-0.7,1.3-1.6,2.5-2.6,3.5c-0.2,0.2-0.3,0.2-0.4,0.1
			c0,0,0-0.1,0-0.1c0-0.1,0-0.2,0.1-0.3c0.7-0.9,1.3-2,1.8-3.2c0.5-1.2,0.9-2.5,1.2-3.8l0-0.1c0-0.1,0-0.2-0.1-0.2s-0.2-0.1-0.3-0.1
			h-0.5c-0.5,0-0.9,0.1-1.4,0.2l-0.1,0c-0.2,0-0.3-0.1-0.4-0.3l-0.1-0.1c0-0.1-0.1-0.1-0.1-0.2c0-0.1,0-0.1,0.1-0.2s0.2-0.1,0.3-0.1
			c0.4,0,1,0.1,1.8,0.1h0.7c0.1,0,0.2,0,0.3-0.1c0.1-0.1,0.1-0.2,0.1-0.3v-0.3c0-1.2-0.1-2.3-0.2-3.2v-0.1c0-0.2,0.1-0.3,0.3-0.3
			c0.1,0,0.1,0,0.1,0c0.6,0.2,1,0.3,1.2,0.4c0.2,0.1,0.3,0.2,0.3,0.3c0,0.1-0.1,0.1-0.2,0.2l-0.1,0.1c-0.2,0.1-0.2,0.3-0.2,0.4v2.5
			c0,0.1,0,0.2,0.1,0.3c0.1,0.1,0.2,0.1,0.3,0.1h0.2c0.2,0,0.3-0.1,0.5-0.2l0.2-0.3c0-0.1,0.1-0.1,0.2-0.3c0.1-0.1,0.1-0.2,0.2-0.2
			c0-0.1,0.1-0.1,0.1-0.1c0.1,0,0.3,0.1,0.6,0.4s0.6,0.5,0.7,0.7c0,0,0.1,0.1,0.1,0.2s0,0.2-0.1,0.2c-0.1,0.1-0.2,0.1-0.3,0.1h-2.4
			c-0.1,0-0.2,0-0.3,0.1c-0.1,0.1-0.1,0.2-0.1,0.3v1c0,0.2,0.1,0.4,0.3,0.5c0.9,0.4,1.5,0.8,1.9,1.2c0.4,0.5,0.6,0.9,0.6,1.3
			c0,0.3-0.1,0.5-0.2,0.6c-0.1,0.2-0.3,0.2-0.5,0.2c-0.1,0-0.2,0-0.4-0.1c-0.1-0.1-0.2-0.2-0.3-0.4c-0.2-0.6-0.5-1.3-1-2.1
			c-0.1-0.1-0.2-0.2-0.3-0.2c-0.1,0-0.1,0-0.2,0.1c0,0.1-0.1,0.1-0.1,0.3v4.2c0,1.3,0.1,2.6,0.1,4v0.1c0,0.1,0,0.2-0.1,0.3
			c-0.1,0.1-0.3,0.2-0.5,0.3c-0.2,0.1-0.4,0.1-0.6,0.1c-0.1,0-0.2,0-0.3-0.1s-0.1-0.2-0.1-0.3c0-0.7,0.1-1.4,0.1-2.1
			c0-0.7,0.1-1.5,0.1-2.6V266z M90.3,260.8c0-1.2-0.1-2.3-0.2-3.2v-0.1c0-0.2,0.1-0.3,0.3-0.3c0.1,0,0.1,0,0.1,0
			c0.6,0.2,1,0.3,1.3,0.4c0.2,0.1,0.4,0.2,0.4,0.3c0,0.1,0,0.1-0.1,0.2l-0.1,0c-0.2,0.1-0.2,0.3-0.2,0.5v12.4c0,0.2,0.1,0.4,0.2,0.5
			c0.1,0.1,0.3,0.1,0.6,0.1h1.5c0.7,0,1.2,0,1.5-0.1c0.1,0,0.2,0,0.2-0.1s0.1-0.1,0.2-0.2c0.1-0.2,0.3-1.1,0.6-2.6
			c0-0.2,0.1-0.3,0.2-0.3c0.1,0,0.1,0.1,0.1,0.4l0.1,2.4c0,0.2,0.1,0.3,0.3,0.5c0.1,0.1,0.2,0.1,0.2,0.2c0,0.1,0.1,0.2,0.1,0.3
			c0,0.2-0.1,0.4-0.3,0.5c-0.2,0.1-0.5,0.2-1,0.3c-0.5,0-1.2,0.1-2.2,0.1h-1.7c-0.8,0-1.3-0.1-1.5-0.3c-0.3-0.2-0.4-0.6-0.4-1.3
			V260.8z"/>
	</g>
	<g class="st1">
		<path class="st2" d="M106.5,259.7l0.1-0.2c0,0,0.1-0.1,0.1-0.2c0.1-0.1,0.1-0.1,0.1-0.2c0,0,0.1-0.1,0.1-0.1
			c0.1,0,0.3,0.1,0.5,0.3c0.3,0.2,0.5,0.4,0.7,0.6c0.1,0.1,0.1,0.2,0.1,0.2c0,0.1-0.1,0.2-0.2,0.2l-0.2,0.1
			c-0.2,0.1-0.3,0.2-0.3,0.4v6.8c0,0.5-0.1,0.8-0.2,1.1c-0.1,0.2-0.3,0.4-0.7,0.5c0,0-0.1,0-0.1,0c-0.2,0-0.3-0.1-0.3-0.4l-0.1-0.3
			c-0.1-0.2-0.1-0.3-0.2-0.4c-0.1,0-0.2-0.1-0.4-0.2c-0.1,0-0.1-0.1-0.1-0.1c0-0.1,0.1-0.1,0.3-0.1l0.5,0c0.1,0,0.1,0,0.2-0.1
			c0,0,0-0.1,0-0.2v-6.9c0-0.1,0-0.2-0.1-0.3c-0.1-0.1-0.2-0.1-0.3-0.1h-0.3c-0.1,0-0.2,0-0.3,0.1c-0.1,0.1-0.1,0.2-0.1,0.3v7.8
			c0,1.3,0.1,2.6,0.1,4v0.1c0,0.2-0.1,0.3-0.2,0.4c-0.3,0.2-0.6,0.3-0.9,0.3c-0.1,0-0.2,0-0.2-0.1s-0.1-0.2-0.1-0.2
			c0-0.7,0.1-1.4,0.1-2.1c0-0.7,0.1-1.5,0.1-2.6v-7.5c0-0.1,0-0.2-0.1-0.3c-0.1-0.1-0.2-0.1-0.3-0.1h-0.2c-0.1,0-0.2,0-0.3,0.1
			c-0.1,0.1-0.1,0.2-0.1,0.3v4.3c0,1.3,0.1,2.6,0.1,4v0.1c0,0.2-0.1,0.3-0.2,0.4c-0.3,0.2-0.6,0.3-0.9,0.3c-0.1,0-0.2,0-0.3-0.1
			c-0.1-0.1-0.1-0.2-0.1-0.3c0-0.6,0.1-1.3,0.1-1.9c0-0.6,0.1-1.4,0.1-2.4V263c0-1.2-0.1-2.2-0.2-3.2v-0.1c0-0.2,0.1-0.3,0.2-0.3
			c0.1,0,0.1,0,0.2,0l0.8,0.3c0.2,0.1,0.3,0.1,0.5,0.1h0.1c0.3,0,0.4-0.1,0.4-0.4c0-1-0.1-1.7-0.1-2.3v-0.1c0-0.2,0.1-0.3,0.3-0.3
			c0.1,0,0.1,0,0.1,0c1,0.3,1.4,0.5,1.4,0.6c0,0.1,0,0.1-0.1,0.2l-0.1,0c-0.2,0.1-0.3,0.3-0.3,0.5v1.4c0,0.1,0,0.2,0.1,0.3
			c0.1,0.1,0.2,0.1,0.3,0.1h0.1C106.2,260,106.4,259.9,106.5,259.7z M115.7,266.9l0.2-0.3c0-0.1,0.1-0.2,0.2-0.3
			c0.1-0.1,0.1-0.2,0.2-0.2s0.1-0.1,0.1-0.1c0.1,0,0.3,0.1,0.6,0.4c0.3,0.3,0.6,0.5,0.7,0.7c0,0.1,0.1,0.1,0.1,0.2
			c0,0.1,0,0.2-0.1,0.2c-0.1,0-0.2,0.1-0.3,0.1h-2.6c-0.1,0-0.2,0-0.3,0.1s-0.1,0.2-0.1,0.3v3.6c0,0.1,0,0.2,0.1,0.2
			c0,0,0.2,0.1,0.3,0.1h0.8l0.8,0c0.1,0,0.1,0,0.1-0.1c0,0,0.1-0.1,0.1-0.2c0-0.1,0.1-0.3,0.1-0.5s0.1-0.5,0.1-0.6l0.2-0.7
			c0-0.2,0.1-0.3,0.2-0.3c0,0,0,0,0.1,0.1c0,0.1,0,0.2,0,0.3l0,1.5c0,0.1,0,0.2,0.1,0.2c0,0.1,0.1,0.1,0.2,0.2
			c0.1,0.1,0.2,0.2,0.2,0.4c0,0.3-0.2,0.5-0.5,0.6s-0.9,0.2-1.8,0.2h-1.1c-0.5,0-0.9-0.1-1.1-0.3s-0.3-0.5-0.3-0.9V268
			c0-0.1,0-0.2-0.1-0.3s-0.2-0.1-0.3-0.1H112c-0.2,0-0.4,0.1-0.4,0.4c-0.2,1.4-0.7,2.5-1.4,3.4c-0.7,0.8-1.8,1.5-3.2,2
			c-0.1,0-0.2,0.1-0.3,0.1c-0.1,0-0.1,0-0.1-0.1v-0.1c0-0.1,0.1-0.2,0.3-0.3c1.1-0.6,1.8-1.2,2.3-2c0.5-0.8,0.8-1.8,0.9-3v-0.1
			c0-0.2-0.1-0.3-0.4-0.3h-0.4c-0.3,0-0.6,0.1-1,0.1c-0.1,0-0.1,0-0.2,0c-0.1,0-0.3-0.1-0.3-0.2l-0.1-0.1c0-0.1-0.1-0.1-0.1-0.2
			c0-0.1,0-0.1,0.1-0.2c0.1,0,0.1-0.1,0.3,0c0.4,0,1,0.1,1.9,0.1h1.3c0.1,0,0.2,0,0.3-0.1c0.1-0.1,0.1-0.1,0.1-0.3
			c0-1.2-0.1-2.3-0.2-3.2v-0.1c0-0.2,0.1-0.3,0.3-0.3c0,0,0.1,0,0.2,0c0.5,0.2,0.9,0.3,1.1,0.4c0.2,0.1,0.3,0.2,0.3,0.3
			c0,0,0,0.1-0.1,0.2l0,0c-0.2,0.1-0.3,0.3-0.3,0.5v2.2c0,0.1,0,0.2,0.1,0.3c0.1,0.1,0.2,0.1,0.3,0.1h1.9
			C115.4,267.1,115.6,267,115.7,266.9z M108.5,263.8C108.5,263.8,108.6,263.8,108.5,263.8c0.2,0,0.3,0,0.4,0.1
			c0.7,0.3,1.1,0.6,1.4,1c0.3,0.4,0.5,0.7,0.5,1.1c0,0.2-0.1,0.4-0.2,0.6c-0.1,0.1-0.3,0.2-0.5,0.2c-0.1,0-0.2,0-0.3-0.1
			c-0.1-0.1-0.2-0.2-0.3-0.4c-0.1-0.6-0.4-1.2-0.9-2C108.5,264,108.5,263.9,108.5,263.8z M115.2,257.5l0.1-0.2c0,0,0.1-0.1,0.1-0.2
			s0.1-0.1,0.2-0.2c0,0,0.1-0.1,0.1-0.1c0.1,0,0.3,0.1,0.5,0.3c0.3,0.2,0.5,0.4,0.6,0.6c0.1,0.1,0.1,0.1,0.1,0.2
			c0,0.1-0.1,0.2-0.2,0.2l-0.1,0.1c-0.2,0.1-0.3,0.2-0.3,0.4v1.2c0,1.2,0.1,2.1,0.1,2.7v0.1c0,0.2-0.1,0.3-0.2,0.4
			c-0.3,0.2-0.6,0.3-1,0.3c-0.1,0-0.1,0-0.2-0.1c0-0.1-0.1-0.1-0.1-0.2c0-0.2-0.1-0.3-0.4-0.3h-4.4c-0.1,0-0.2,0-0.3,0.1
			c-0.1,0.1-0.1,0.2-0.1,0.3v0.1c0,0.1-0.1,0.2-0.3,0.2s-0.5,0.1-0.7,0.1c-0.1,0-0.2,0-0.2-0.1c-0.1-0.1-0.1-0.2-0.1-0.3
			c0-0.5,0.1-1.1,0.1-1.8v-1.1c0-1.1,0-2-0.1-2.8v-0.1c0-0.2,0.1-0.3,0.2-0.3c0.1,0,0.1,0,0.2,0l1,0.4c0.1,0.1,0.3,0.1,0.5,0.1h4.3
			C114.9,257.7,115.1,257.6,115.2,257.5z M115,259.8c0.1-0.1,0.1-0.2,0.1-0.3v-0.9c0-0.1,0-0.2-0.1-0.3c-0.1-0.1-0.2-0.1-0.3-0.1
			h-4.4c-0.1,0-0.2,0-0.3,0.1c-0.1,0.1-0.1,0.2-0.1,0.3v0.9c0,0.1,0,0.2,0.1,0.3c0.1,0.1,0.2,0.1,0.3,0.1h4.4
			C114.8,259.9,114.9,259.9,115,259.8z M110.1,260.5c-0.1,0.1-0.1,0.2-0.1,0.3v1c0,0.1,0,0.2,0.1,0.3c0.1,0.1,0.2,0.1,0.3,0.1h4.4
			c0.1,0,0.2,0,0.3-0.1c0.1-0.1,0.1-0.2,0.1-0.3v-1c0-0.1,0-0.2-0.1-0.3c-0.1-0.1-0.2-0.1-0.3-0.1h-4.4
			C110.2,260.4,110.1,260.5,110.1,260.5z M115.1,263.6c0.1,0,0.1,0,0.2,0.1l0.5,0.3c0.1,0.1,0.3,0.1,0.4,0.2
			c0.4,0.1,0.6,0.2,0.6,0.3c0,0.1-0.1,0.1-0.2,0.2l-0.1,0c-0.2,0.1-0.3,0.2-0.4,0.3c-0.5,0.6-1.1,1.1-1.8,1.6
			c-0.2,0.1-0.3,0.2-0.4,0.1c0,0,0-0.1,0-0.1c0-0.1,0-0.2,0.1-0.3c0.3-0.7,0.6-1.4,0.8-2.3C114.8,263.7,114.9,263.6,115.1,263.6z"/>
	</g>
	<g class="st1">
		<path class="st2" d="M123.5,267.7c0,0,0.1,0,0.1,0.1c0,0.1,0.1,0.1,0.1,0.3c0.1,0.6,0.2,1.2,0.2,1.8c0,0.7-0.1,1.2-0.3,1.5
			c-0.2,0.3-0.4,0.5-0.7,0.5c-0.1,0-0.2,0-0.3-0.1c-0.1-0.1-0.1-0.2-0.1-0.4c0-0.2,0.1-0.4,0.2-0.5c0.2-0.3,0.4-0.6,0.5-1.1
			s0.2-1,0.2-1.6C123.4,267.8,123.5,267.7,123.5,267.7z M128.5,262.9l0.2-0.2c0,0,0.1-0.1,0.2-0.2c0.1-0.1,0.1-0.2,0.2-0.2
			c0,0,0.1-0.1,0.1-0.1c0.1,0,0.3,0.1,0.5,0.3c0.3,0.2,0.5,0.4,0.6,0.6c0.1,0.1,0.1,0.2,0.1,0.2c0,0.1,0,0.1-0.1,0.2
			c-0.1,0.1-0.2,0.1-0.3,0.1h-2.1c-0.1,0-0.2,0-0.3,0.1c-0.1,0.1-0.1,0.2-0.1,0.3v1.2c0,0.1,0,0.2,0.1,0.3c0.1,0.1,0.2,0.1,0.3,0.1
			h0.6c0.2,0,0.4-0.1,0.5-0.2l0.1-0.1c0,0,0.1-0.1,0.2-0.2c0.1-0.1,0.2-0.2,0.2-0.2c0.1,0,0.3,0.1,0.5,0.3c0.3,0.2,0.5,0.4,0.6,0.6
			c0,0.1,0.1,0.1,0.1,0.2c0,0.1-0.1,0.2-0.2,0.2l-0.1,0.1c-0.2,0-0.3,0.2-0.4,0.4c-0.1,1.7-0.3,2.9-0.5,3.8
			c-0.2,0.9-0.5,1.5-0.9,1.8c-0.3,0.3-0.7,0.4-1.2,0.5h-0.1c-0.1,0-0.2,0-0.2-0.1c-0.1-0.1-0.1-0.2-0.1-0.3c0-0.2-0.1-0.3-0.2-0.5
			c-0.1-0.1-0.4-0.3-0.7-0.4c-0.2,0-0.3-0.1-0.3-0.2c0-0.1,0.1-0.1,0.4-0.1c0.6,0,1,0.1,1.2,0.1c0.1,0,0.3,0,0.3,0s0.2-0.1,0.2-0.1
			c0.2-0.2,0.4-0.7,0.5-1.4s0.3-1.9,0.4-3.2v0c0-0.3-0.1-0.4-0.4-0.4h-3.3c-0.1,0-0.2,0-0.3,0.1c-0.1,0.1-0.1,0.2-0.1,0.3v0.2
			c0,0.1-0.1,0.1-0.3,0.3c-0.2,0.1-0.4,0.2-0.7,0.2c-0.1,0-0.2,0-0.3-0.1c-0.1-0.1-0.1-0.2-0.1-0.3c0.1-1.1,0.1-2.3,0.2-3.6v-2
			c0-1.2-0.1-2.2-0.2-3.2v-0.1c0-0.2,0.1-0.3,0.2-0.3c0.1,0,0.1,0,0.2,0l0.9,0.4c0.1,0.1,0.3,0.1,0.5,0.1h3c0.2,0,0.3-0.1,0.5-0.2
			l0.2-0.3c0,0,0.1-0.1,0.2-0.2c0.1-0.1,0.1-0.2,0.2-0.2c0,0,0.1-0.1,0.1-0.1c0.1,0,0.3,0.1,0.6,0.4s0.5,0.5,0.7,0.7
			c0,0.1,0.1,0.1,0.1,0.2c0,0.1,0,0.2-0.1,0.2c-0.1,0-0.2,0.1-0.3,0.1h-2.5c-0.1,0-0.2,0-0.3,0.1c-0.1,0.1-0.1,0.2-0.1,0.3v1.2
			c0,0.1,0,0.2,0.1,0.3c0.1,0.1,0.2,0.1,0.3,0.1h0.4c0.2,0,0.3-0.1,0.5-0.2l0.1-0.2c0,0,0.1-0.1,0.1-0.2s0.1-0.2,0.2-0.2
			c0,0,0.1-0.1,0.1-0.1c0.1,0,0.4,0.2,0.7,0.5s0.5,0.5,0.5,0.7c0,0.2-0.2,0.3-0.4,0.3h-2.2c-0.1,0-0.2,0-0.3,0.1
			c-0.1,0.1-0.1,0.2-0.1,0.3v1.2c0,0.1,0,0.2,0.1,0.3c0.1,0.1,0.2,0.1,0.3,0.1h0.3C128.3,263.1,128.4,263,128.5,262.9z M124.5,267.7
			c0-0.1,0-0.2,0.1-0.2h0c0.1,0,0.2,0.1,0.3,0.2c0.5,0.7,0.8,1.4,0.8,2.1c0,0.3-0.1,0.6-0.2,0.8c-0.1,0.2-0.3,0.3-0.4,0.3
			c-0.1,0-0.1,0-0.2-0.1c-0.1-0.1-0.2-0.2-0.2-0.5c0-0.3,0.1-0.5,0.1-0.8c0-0.5-0.1-1.1-0.2-1.8
			C124.5,267.9,124.5,267.8,124.5,267.7z M126.2,260.5c0.1-0.1,0.1-0.2,0.1-0.3V259c0-0.1,0-0.2-0.1-0.3c-0.1-0.1-0.2-0.1-0.3-0.1
			h-0.8c-0.1,0-0.2,0-0.3,0.1c-0.1,0.1-0.1,0.2-0.1,0.3v1.2c0,0.1,0,0.2,0.1,0.3c0.1,0.1,0.2,0.1,0.3,0.1h0.8
			C126,260.6,126.1,260.6,126.2,260.5z M124.8,263c0.1,0.1,0.2,0.1,0.3,0.1h0.8c0.1,0,0.2,0,0.3-0.1c0.1-0.1,0.1-0.2,0.1-0.3v-1.2
			c0-0.1,0-0.2-0.1-0.3c-0.1-0.1-0.2-0.1-0.3-0.1h-0.8c-0.1,0-0.2,0-0.3,0.1c-0.1,0.1-0.1,0.2-0.1,0.3v1.2
			C124.7,262.8,124.8,262.9,124.8,263z M126.2,263.7c-0.1-0.1-0.2-0.1-0.3-0.1h-0.8c-0.1,0-0.2,0-0.3,0.1c-0.1,0.1-0.1,0.2-0.1,0.3
			v1.2c0,0.1,0,0.2,0.1,0.3c0.1,0.1,0.2,0.1,0.3,0.1h0.8c0.1,0,0.2,0,0.3-0.1c0.1-0.1,0.1-0.2,0.1-0.3V264
			C126.3,263.9,126.2,263.8,126.2,263.7z M125.6,267.3L125.6,267.3c0.1,0,0.2,0,0.3,0.1c0.4,0.4,0.7,0.7,0.9,1.1
			c0.2,0.4,0.3,0.7,0.3,1c0,0.2,0,0.4-0.1,0.5c-0.1,0.1-0.2,0.2-0.4,0.2c0,0-0.1,0-0.2,0c-0.1,0-0.2-0.2-0.2-0.4
			c0-0.6-0.3-1.3-0.6-2.1C125.5,267.4,125.5,267.3,125.6,267.3z M126.6,266.9c0-0.1,0-0.1,0.1-0.1s0.2,0,0.3,0.1
			c0.5,0.2,0.9,0.4,1.1,0.7c0.2,0.3,0.3,0.5,0.3,0.8c0,0.2,0,0.3-0.1,0.4c-0.1,0.1-0.2,0.2-0.3,0.2c0,0-0.1,0-0.1,0
			c-0.1,0-0.1-0.1-0.2-0.1c0-0.1-0.1-0.1-0.1-0.2c-0.2-0.5-0.4-0.9-0.8-1.4C126.7,267.1,126.6,267,126.6,266.9z M136.5,258l0.1-0.2
			c0,0,0.1-0.1,0.2-0.2c0.1-0.1,0.1-0.2,0.2-0.2c0,0,0.1-0.1,0.1-0.1c0.1,0,0.3,0.1,0.6,0.4c0.3,0.3,0.6,0.5,0.7,0.7
			c0,0.1,0.1,0.1,0.1,0.2c0,0.1,0,0.2-0.1,0.2c-0.1,0-0.1,0.1-0.2,0.1c-0.2,0.1-0.3,0.2-0.3,0.4v1.7c0,1.3,0.1,2.5,0.1,3.7v0.1
			c0,0.2-0.1,0.3-0.2,0.4c-0.1,0.1-0.3,0.2-0.5,0.2c-0.2,0.1-0.4,0.1-0.5,0.1c-0.1,0-0.2,0-0.2-0.1c0-0.1-0.1-0.1-0.1-0.2
			c0,0,0-0.1,0-0.2l0-0.2c0-0.1,0-0.2-0.1-0.3c-0.1-0.1-0.2-0.1-0.3-0.1h-1.7c-0.1,0-0.2,0-0.3,0.1c-0.1,0.1-0.1,0.2-0.1,0.3
			c0.4,1.6,1,3,1.7,4.2c0.8,1.2,1.7,2.1,2.7,2.7c0.2,0.1,0.3,0.2,0.3,0.2c0,0,0,0.1-0.1,0.1c-0.1,0-0.1,0.1-0.2,0.1
			c-0.3,0.2-0.5,0.4-0.7,0.8c-0.1,0.2-0.2,0.3-0.3,0.3c0,0-0.1,0-0.2-0.1c-1-0.8-1.8-1.9-2.3-3.3c-0.6-1.4-1-3-1.3-5
			c0-0.2-0.2-0.4-0.4-0.4h-0.2c-0.3,0-0.4,0.1-0.4,0.4c-0.1,1.7-0.3,3.3-0.7,4.7s-1.2,2.6-2.3,3.7c-0.1,0.1-0.2,0.2-0.3,0.2
			c-0.1,0-0.1,0-0.1-0.1c0,0,0-0.2,0.1-0.3c0.8-1.2,1.4-2.6,1.6-4.1s0.4-3.3,0.4-5.2v-3c0-1,0-1.9-0.1-2.6v-0.1
			c0-0.2,0.1-0.3,0.2-0.3c0.1,0,0.1,0,0.2,0l1,0.4c0.1,0.1,0.3,0.1,0.4,0.1h2.8C136.2,258.2,136.4,258.1,136.5,258z M132.8,258.8
			c-0.1,0.1-0.1,0.2-0.1,0.3v4.4c0,0.1,0,0.2,0.1,0.3c0.1,0.1,0.2,0.1,0.3,0.1h3c0.1,0,0.2,0,0.3-0.1c0.1-0.1,0.1-0.2,0.1-0.3v-4.4
			c0-0.1,0-0.2-0.1-0.3c-0.1-0.1-0.2-0.1-0.3-0.1h-3C133,258.7,132.9,258.8,132.8,258.8z"/>
	</g>
	<g class="st1">
		<path class="st2" d="M156.5,260l0.3-0.4c0.1-0.1,0.1-0.2,0.2-0.3c0.1-0.1,0.1-0.2,0.2-0.3c0.1-0.1,0.1-0.1,0.2-0.1
			c0.1,0,0.3,0.2,0.7,0.5s0.7,0.6,0.8,0.8c0.1,0.1,0.1,0.1,0.1,0.2c0,0.1,0,0.1-0.1,0.2c-0.1,0.1-0.2,0.1-0.3,0.1H146
			c-0.8,0-1.5,0.1-2.4,0.2h-0.1c-0.2,0-0.3-0.1-0.4-0.2l-0.1-0.1c0-0.1-0.1-0.2-0.1-0.2c0-0.1,0-0.1,0.1-0.2s0.1-0.1,0.3,0
			c0.4,0,1,0.1,1.9,0.1h1.8l1.4,0l-0.1,0c-0.1,0-0.1-0.1-0.2-0.1c0-0.1-0.1-0.1-0.1-0.3c-0.1-0.4-0.3-0.8-0.6-1.3
			c-0.3-0.4-0.6-0.8-0.9-1.2c-0.1-0.2-0.2-0.3-0.2-0.3s0-0.1,0.1-0.1c0.1,0,0.2,0,0.3,0c0.9,0.3,1.6,0.6,2,1.1
			c0.4,0.5,0.6,0.9,0.6,1.3c0,0.2-0.1,0.4-0.2,0.6c-0.1,0.1-0.1,0.2-0.1,0.2s0.1,0.1,0.2,0.1h2.4c0.2,0,0.3,0,0.4-0.1
			c0.3-0.5,0.5-1,0.7-1.6c0.2-0.6,0.4-1.1,0.5-1.5c0-0.2,0.1-0.3,0.3-0.3c0,0,0.1,0,0.2,0c1.1,0.3,1.7,0.6,1.7,0.7
			c0,0-0.1,0.1-0.2,0.1l-0.1,0c-0.2,0.1-0.3,0.2-0.4,0.3c-0.5,0.6-1.1,1.2-1.8,1.8c-0.1,0.1-0.2,0.2-0.2,0.3c0,0.1,0,0.1,0.1,0.1
			c0.1,0,0.1,0.1,0.2,0.1h2.7C156.2,260.2,156.4,260.2,156.5,260z M145.9,268.8c-0.1,0.1-0.1,0.2-0.1,0.3v1c0,1.1,0.1,1.9,0.1,2.4
			v0.1c0,0.1,0,0.2-0.1,0.3c-0.1,0.1-0.3,0.2-0.5,0.3s-0.4,0.1-0.6,0.1c-0.1,0-0.2,0-0.3-0.1s-0.1-0.2-0.1-0.3
			c0-0.7,0.1-1.4,0.1-2.1c0-0.7,0.1-1.5,0.1-2.6v-2.8c0-1.2-0.1-2.2-0.2-3.2v-0.1c0-0.2,0.1-0.3,0.2-0.3c0.1,0,0.1,0,0.2,0l0.9,0.4
			c0.1,0.1,0.3,0.1,0.4,0.1h2.2c0.2,0,0.3-0.1,0.5-0.2l0.1-0.2c0,0,0.1-0.1,0.2-0.2c0.1-0.1,0.2-0.2,0.2-0.2c0.1,0,0.3,0.1,0.6,0.4
			c0.3,0.2,0.6,0.4,0.8,0.6c0,0.1,0.1,0.1,0.1,0.2c0,0.1-0.1,0.2-0.2,0.2c-0.1,0-0.1,0.1-0.2,0.1c-0.2,0.1-0.3,0.2-0.3,0.4v7.9
			c0,0.5-0.1,0.9-0.3,1.2c-0.2,0.3-0.5,0.4-1.1,0.5h-0.1c-0.2,0-0.3-0.1-0.4-0.3c0-0.2-0.1-0.4-0.2-0.6c-0.2-0.2-0.4-0.3-0.8-0.4
			c-0.2-0.1-0.3-0.1-0.3-0.2c0-0.1,0.1-0.1,0.4-0.1c0.5,0,0.9,0.1,1.1,0.1c0.1,0,0.2,0,0.2-0.1c0-0.1,0.1-0.1,0.1-0.3v-2.4
			c0-0.1,0-0.2-0.1-0.3c-0.1-0.1-0.2-0.1-0.3-0.1h-2.3C146.1,268.7,146,268.7,145.9,268.8z M148.8,265.2c0.1-0.1,0.1-0.2,0.1-0.3
			v-1.4c0-0.1,0-0.2-0.1-0.3c-0.1-0.1-0.2-0.1-0.3-0.1h-2.3c-0.1,0-0.2,0-0.3,0.1c-0.1,0.1-0.1,0.2-0.1,0.3v1.4c0,0.1,0,0.2,0.1,0.3
			c0.1,0.1,0.2,0.1,0.3,0.1h2.3C148.6,265.3,148.7,265.3,148.8,265.2z M145.9,265.9c-0.1,0.1-0.1,0.2-0.1,0.3v1.6
			c0,0.1,0,0.2,0.1,0.3c0.1,0.1,0.2,0.1,0.3,0.1h2.3c0.1,0,0.2,0,0.3-0.1c0.1-0.1,0.1-0.2,0.1-0.3v-1.6c0-0.1,0-0.2-0.1-0.3
			c-0.1-0.1-0.2-0.1-0.3-0.1h-2.3C146.1,265.8,146,265.9,145.9,265.9z M152.4,265.9c0-1.2-0.1-2.3-0.2-3.2v-0.1
			c0-0.2,0.1-0.3,0.3-0.3c0,0,0.1,0,0.2,0c1,0.3,1.5,0.5,1.5,0.6c0,0-0.1,0.1-0.2,0.2l-0.1,0c-0.2,0.1-0.3,0.3-0.3,0.5v2.1
			c0,1.3,0.1,2.6,0.1,4v0.1c0,0.2-0.1,0.3-0.2,0.4c-0.1,0.1-0.3,0.2-0.5,0.2c-0.2,0.1-0.4,0.1-0.5,0.1c-0.1,0-0.2,0-0.3-0.1
			c-0.1-0.1-0.1-0.2-0.1-0.3c0.1-0.6,0.1-1.4,0.1-2.4V265.9z M156.1,265.5c0-1.2-0.1-2.3-0.2-3.2v-0.1c0-0.2,0.1-0.3,0.3-0.3
			c0.1,0,0.1,0,0.1,0c1,0.3,1.5,0.5,1.5,0.6c0,0-0.1,0.1-0.2,0.2l-0.1,0c-0.2,0.1-0.3,0.2-0.3,0.5v8.3c0,0.4,0,0.7-0.1,0.9
			c-0.1,0.2-0.2,0.4-0.5,0.6c-0.2,0.2-0.6,0.3-1.1,0.3h-0.1c-0.2,0-0.3-0.1-0.4-0.3c-0.1-0.3-0.2-0.5-0.3-0.6
			c-0.2-0.2-0.6-0.3-1.2-0.4c-0.2-0.1-0.4-0.1-0.4-0.2c0-0.1,0.1-0.1,0.3-0.1c0.2,0,0.6,0,1.2,0.1l0.7,0c0.1,0,0.2,0,0.3-0.1
			c0.1-0.1,0.1-0.1,0.1-0.3V265.5z"/>
	</g>
	<g class="st1">
		<path class="st2" d="M174.9,261l0.1-0.2c0,0,0.1-0.1,0.2-0.2s0.1-0.2,0.2-0.2s0.1-0.1,0.1-0.1c0.1,0,0.3,0.1,0.7,0.4
			c0.4,0.3,0.6,0.5,0.8,0.7c0.1,0.1,0.1,0.2,0.1,0.2c0,0.1,0,0.2-0.1,0.2c-0.1,0.1-0.2,0.1-0.3,0.1c-0.2,0.1-0.3,0.2-0.3,0.4v5
			c0,0.1,0,0.2,0,0.3c0,0.1,0.1,0.1,0.1,0.1c0.1,0,0.2-0.1,0.3-0.3l0.2-0.3c0-0.1,0.1-0.2,0.2-0.3c0.1-0.1,0.1-0.2,0.2-0.2
			s0.1-0.1,0.1-0.1c0.1,0,0.3,0.1,0.6,0.4c0.3,0.3,0.5,0.5,0.7,0.7c0,0,0.1,0.1,0.1,0.2c0,0.1,0,0.1-0.1,0.2
			c-0.1,0.1-0.2,0.1-0.3,0.1h-1.7c-0.1,0-0.2,0-0.3,0.1c-0.1,0.1-0.1,0.2-0.1,0.3v2.7c0,0.4,0,0.7-0.1,0.9c-0.1,0.2-0.3,0.4-0.5,0.6
			s-0.7,0.3-1.2,0.4h-0.1c-0.2,0-0.3-0.1-0.4-0.3c-0.1-0.3-0.2-0.6-0.4-0.7c-0.3-0.2-0.7-0.4-1.4-0.5c-0.2,0-0.4-0.1-0.4-0.2
			c0-0.1,0.1-0.1,0.3-0.1c0.3,0,0.8,0,1.4,0.1c0.4,0,0.7,0.1,0.8,0.1c0.2,0,0.3,0,0.4-0.1s0.1-0.2,0.1-0.3v-2.5c0-0.1,0-0.2-0.1-0.3
			c-0.1-0.1-0.2-0.1-0.3-0.1h-7.8c-0.1,0-0.2,0-0.3,0.1c-0.1,0.1-0.1,0.2-0.1,0.3v1.2c0,1.2,0.1,2.1,0.1,2.7v0.1
			c0,0.1,0,0.3-0.1,0.4c-0.3,0.3-0.7,0.4-1.1,0.4c-0.1,0-0.2,0-0.3-0.1c-0.1-0.1-0.1-0.2-0.1-0.3c0.1-1,0.1-2,0.1-3v-1.3
			c0-0.1,0-0.2-0.1-0.3c-0.1-0.1-0.2-0.1-0.3-0.1h-0.4c-0.3,0-0.6,0.1-1,0.1c-0.1,0-0.1,0-0.2,0c-0.1,0-0.3-0.1-0.3-0.2l-0.1-0.1
			c0-0.1-0.1-0.1-0.1-0.2c0-0.2,0.1-0.2,0.3-0.2c0.3,0,0.7,0,1.2,0.1h0.4c0.1,0,0.2,0,0.3-0.1c0.1-0.1,0.1-0.2,0.1-0.3v-3.3
			c0-1.2-0.1-2.2-0.2-3.2v-0.1c0-0.2,0.1-0.3,0.2-0.3c0.1,0,0.1,0,0.2,0l1.1,0.5c0.1,0.1,0.3,0.1,0.4,0.1h2.7c0.1,0,0.2,0,0.3-0.1
			c0.1-0.1,0.1-0.2,0.1-0.3v-1.6c0-0.1,0-0.2-0.1-0.3c-0.1-0.1-0.2-0.1-0.3-0.1h-3.3c-0.8,0-1.5,0.1-2.4,0.2h-0.1
			c-0.2,0-0.3-0.1-0.4-0.2l-0.1-0.1c0-0.1-0.1-0.1-0.1-0.2s0-0.1,0.1-0.2s0.1-0.1,0.3,0c0.4,0,1,0.1,1.9,0.1h10
			c0.2,0,0.3-0.1,0.4-0.2l0.3-0.4c0.1-0.1,0.1-0.2,0.2-0.3s0.1-0.2,0.2-0.3c0.1-0.1,0.1-0.1,0.2-0.1c0.1,0,0.3,0.2,0.7,0.5
			c0.4,0.3,0.7,0.6,0.9,0.8c0.1,0.1,0.1,0.1,0.1,0.2s0,0.1-0.1,0.2c-0.1,0.1-0.2,0.1-0.4,0.1h-6.2c-0.1,0-0.2,0-0.3,0.1
			c-0.1,0.1-0.1,0.2-0.1,0.3v1.6c0,0.1,0,0.2,0.1,0.3c0.1,0.1,0.2,0.1,0.3,0.1h2.8C174.6,261.2,174.8,261.2,174.9,261z M169.8,264.4
			c0.1-0.1,0.1-0.2,0.1-0.3v-2c0-0.1,0-0.2-0.1-0.3c-0.1-0.1-0.2-0.1-0.3-0.1h-2.7c-0.1,0-0.2,0-0.3,0.1c-0.1,0.1-0.1,0.2-0.1,0.3v2
			c0,0.1,0,0.2,0.1,0.3c0.1,0.1,0.2,0.1,0.3,0.1h2.7C169.6,264.5,169.7,264.5,169.8,264.4z M169.8,265.1c-0.1-0.1-0.2-0.1-0.3-0.1
			h-2.7c-0.1,0-0.2,0-0.3,0.1c-0.1,0.1-0.1,0.2-0.1,0.3v2.1c0,0.1,0,0.2,0.1,0.3c0.1,0.1,0.2,0.1,0.3,0.1h2.7c0.1,0,0.2,0,0.3-0.1
			c0.1-0.1,0.1-0.2,0.1-0.3v-2.1C169.9,265.3,169.8,265.2,169.8,265.1z M174.8,264.4c0.1-0.1,0.1-0.2,0.1-0.3v-2
			c0-0.1,0-0.2-0.1-0.3c-0.1-0.1-0.2-0.1-0.3-0.1h-2.9c-0.1,0-0.2,0-0.3,0.1c-0.1,0.1-0.1,0.2-0.1,0.3v2c0,0.1,0,0.2,0.1,0.3
			c0.1,0.1,0.2,0.1,0.3,0.1h2.9C174.7,264.5,174.8,264.5,174.8,264.4z M171.4,265.1c-0.1,0.1-0.1,0.2-0.1,0.3v2.1
			c0,0.1,0,0.2,0.1,0.3c0.1,0.1,0.2,0.1,0.3,0.1h2.9c0.1,0,0.2,0,0.3-0.1c0.1-0.1,0.1-0.2,0.1-0.3v-2.1c0-0.1,0-0.2-0.1-0.3
			c-0.1-0.1-0.2-0.1-0.3-0.1h-2.9C171.6,265,171.5,265.1,171.4,265.1z"/>
	</g>
	<g class="st1">
		<path class="st2" d="M188.4,257.8l0.1-0.2c0,0,0.1-0.1,0.1-0.2c0.1-0.1,0.1-0.1,0.2-0.2s0.1-0.1,0.1-0.1c0.1,0,0.3,0.1,0.6,0.4
			c0.3,0.2,0.5,0.4,0.7,0.6c0,0.1,0.1,0.1,0.1,0.2c0,0.1-0.1,0.2-0.2,0.3l-0.1,0c-0.2,0.1-0.3,0.2-0.3,0.4v1.2c0,1.2,0.1,2,0.1,2.7
			v0.1c0,0.2-0.1,0.3-0.2,0.4c-0.1,0.1-0.3,0.2-0.5,0.3c-0.2,0.1-0.4,0.1-0.5,0.1c-0.1,0-0.2-0.1-0.2-0.4v-0.1c0-0.1,0-0.2-0.1-0.3
			c-0.1-0.1-0.2-0.1-0.3-0.1h-2.5c-0.1,0-0.2,0-0.3,0.1c-0.1,0.1-0.1,0.2-0.1,0.3v5.2c0,1.3,0.1,2.6,0.1,4v0.1c0,0.1,0,0.2-0.1,0.3
			c-0.1,0.1-0.3,0.2-0.5,0.3c-0.2,0.1-0.4,0.1-0.6,0.1c-0.1,0-0.2,0-0.3-0.1s-0.1-0.2-0.1-0.3c0-0.7,0.1-1.4,0.1-2.1
			c0-0.7,0.1-1.5,0.1-2.6V261c0-1.2-0.1-2.2-0.2-3.2v-0.1c0-0.2,0.1-0.3,0.2-0.3c0.1,0,0.1,0,0.2,0.1l1,0.5c0.2,0.1,0.3,0.1,0.5,0.1
			h2.5C188.1,258.1,188.3,258,188.4,257.8z M188.3,260.1c0.1-0.1,0.1-0.2,0.1-0.3V259c0-0.1,0-0.2-0.1-0.3c-0.1-0.1-0.2-0.1-0.3-0.1
			h-2.5c-0.1,0-0.2,0-0.3,0.1c-0.1,0.1-0.1,0.2-0.1,0.3v0.9c0,0.1,0,0.2,0.1,0.3c0.1,0.1,0.2,0.1,0.3,0.1h2.5
			C188.1,260.2,188.2,260.2,188.3,260.1z M185.2,260.8c-0.1,0.1-0.1,0.2-0.1,0.3v0.9c0,0.1,0,0.2,0.1,0.3c0.1,0.1,0.2,0.1,0.3,0.1
			h2.5c0.1,0,0.2,0,0.3-0.1c0.1-0.1,0.1-0.2,0.1-0.3v-0.9c0-0.1,0-0.2-0.1-0.3c-0.1-0.1-0.2-0.1-0.3-0.1h-2.5
			C185.3,260.7,185.3,260.8,185.2,260.8z M193.6,267.6l0.2-0.3c0-0.1,0.1-0.1,0.2-0.2c0.1-0.1,0.1-0.2,0.2-0.2
			c0.1-0.1,0.1-0.1,0.2-0.1c0.1,0,0.3,0.1,0.6,0.4c0.3,0.3,0.5,0.5,0.6,0.7c0.1,0.1,0.1,0.2,0.1,0.2c0,0.1,0,0.1-0.1,0.2
			c-0.1,0.1-0.2,0.1-0.3,0.1h-1.7c-0.1,0-0.2,0-0.3,0.1c-0.1,0.1-0.1,0.2-0.1,0.3v0.9c0,1,0.1,1.7,0.1,2.2v0.1
			c0,0.2-0.1,0.3-0.2,0.4c-0.3,0.2-0.6,0.3-0.9,0.3c-0.1,0-0.2,0-0.2-0.1c-0.1-0.1-0.1-0.2-0.1-0.3c0.1-0.6,0.1-1.5,0.1-2.5v-1
			c0-0.1,0-0.2-0.1-0.3c-0.1-0.1-0.2-0.1-0.3-0.1H190c-0.2,0-0.4,0.1-0.4,0.3c-0.1,0.8-0.4,1.5-0.9,2.2c-0.4,0.7-1.1,1.2-2,1.7
			c-0.2,0.1-0.3,0.1-0.4,0.1c0,0,0,0,0-0.1c0-0.1,0.1-0.2,0.2-0.3c1-0.9,1.7-2.1,1.9-3.5v-0.1c0-0.2-0.1-0.3-0.3-0.3h-0.4
			c-0.3,0-0.6,0.1-0.9,0.1c0,0-0.1,0-0.1,0c-0.1,0-0.3-0.1-0.4-0.2l-0.1-0.1c0-0.1-0.1-0.1-0.1-0.2c0-0.1,0-0.1,0.1-0.2
			s0.1-0.1,0.3,0c0.3,0,0.6,0,1.2,0.1h0.4c0.1,0,0.2,0,0.3-0.1c0.1-0.1,0.1-0.1,0.1-0.2v-0.3v-1.5c0-0.1,0-0.2-0.1-0.3
			c-0.1-0.1-0.2-0.1-0.3-0.1h-0.3c-0.3,0-0.5,0.1-0.7,0.1c-0.1,0-0.1,0-0.2,0c-0.1,0-0.3-0.1-0.3-0.2l-0.1-0.1
			c0-0.1-0.1-0.1-0.1-0.2c0-0.1,0-0.1,0.1-0.2s0.1-0.1,0.3,0c0.4,0,1,0.1,1.9,0.1h4c0.2,0,0.3-0.1,0.5-0.2l0.2-0.3
			c0-0.1,0.1-0.1,0.2-0.2c0.1-0.1,0.1-0.2,0.2-0.2c0.1-0.1,0.1-0.1,0.2-0.1c0.1,0,0.3,0.1,0.6,0.4c0.3,0.3,0.5,0.5,0.7,0.7
			c0,0,0.1,0.1,0.1,0.2c0,0.1,0,0.1-0.1,0.2c-0.1,0.1-0.2,0.1-0.3,0.1h-1.4c-0.1,0-0.2,0-0.3,0.1c-0.1,0.1-0.1,0.2-0.1,0.3v1.8
			c0,0.3,0.1,0.4,0.2,0.4S193.5,267.8,193.6,267.6z M189.8,265.4c-0.1,0.1-0.1,0.2-0.1,0.3v1.5v0.3c0,0.3,0.1,0.4,0.4,0.4h1.3
			c0.1,0,0.2,0,0.3-0.1c0.1-0.1,0.1-0.2,0.1-0.3v-1.8c0-0.1,0-0.2-0.1-0.3c-0.1-0.1-0.2-0.1-0.3-0.1h-1.3
			C190,265.3,189.9,265.3,189.8,265.4z M193,263.2c0,0.1-0.1,0.2-0.4,0.3c-0.3,0.1-0.5,0.2-0.8,0.2c-0.1,0-0.2,0-0.2-0.1
			c-0.1-0.1-0.1-0.2-0.1-0.3c0-0.5,0.1-1,0.1-1.7v-1c0-1,0-1.9-0.1-2.7v-0.1c0-0.2,0.1-0.3,0.2-0.3c0.1,0,0.1,0,0.2,0l0.9,0.4
			c0.2,0.1,0.3,0.1,0.5,0.1h2.6c0.2,0,0.3-0.1,0.4-0.3l0.1-0.2c0,0,0.1-0.1,0.1-0.2c0.1-0.1,0.1-0.1,0.2-0.2s0.1-0.1,0.1-0.1
			c0.1,0,0.3,0.1,0.6,0.4s0.6,0.5,0.8,0.7c0,0.1,0.1,0.1,0.1,0.2c0,0.1-0.1,0.2-0.2,0.2c0,0-0.1,0-0.2,0.1c-0.2,0.1-0.3,0.2-0.3,0.4
			v12.4c0,0.6-0.1,1-0.3,1.2c-0.2,0.3-0.6,0.5-1.2,0.6h-0.1c-0.2,0-0.3-0.1-0.4-0.3c-0.1-0.3-0.1-0.5-0.3-0.6
			c-0.2-0.2-0.5-0.3-0.8-0.4c-0.2,0-0.3-0.1-0.3-0.2c0-0.1,0.1-0.1,0.3-0.1c0.2,0,0.5,0,0.9,0l0.5,0c0.1,0,0.2,0,0.3-0.1
			c0.1-0.1,0.1-0.1,0.1-0.3v-8c0-0.1,0-0.2-0.1-0.3c-0.1-0.1-0.2-0.1-0.3-0.1h-2.7C193.1,263,193,263.1,193,263.2z M196.3,260.1
			c0.1-0.1,0.1-0.2,0.1-0.3V259c0-0.1,0-0.2-0.1-0.3c-0.1-0.1-0.2-0.1-0.3-0.1h-2.7c-0.1,0-0.2,0-0.3,0.1c-0.1,0.1-0.1,0.2-0.1,0.3
			v0.9c0,0.1,0,0.2,0.1,0.3c0.1,0.1,0.2,0.1,0.3,0.1h2.7C196.2,260.2,196.3,260.2,196.3,260.1z M193.1,260.8
			c-0.1,0.1-0.1,0.2-0.1,0.3v0.9c0,0.1,0,0.2,0.1,0.3c0.1,0.1,0.2,0.1,0.3,0.1h2.7c0.1,0,0.2,0,0.3-0.1c0.1-0.1,0.1-0.2,0.1-0.3
			v-0.9c0-0.1,0-0.2-0.1-0.3c-0.1-0.1-0.2-0.1-0.3-0.1h-2.7C193.3,260.7,193.2,260.8,193.1,260.8z"/>
	</g>
	<g class="st1">
		<path class="st2" d="M215.9,267l0.3-0.4c0,0,0.1-0.1,0.2-0.3s0.2-0.2,0.2-0.3c0.1-0.1,0.1-0.1,0.2-0.1c0.1,0,0.3,0.2,0.7,0.5
			c0.4,0.3,0.6,0.6,0.8,0.8c0.1,0.1,0.1,0.2,0.1,0.2c0,0.1,0,0.1-0.1,0.2c-0.1,0.1-0.2,0.1-0.3,0.1h-3.7c-0.1,0-0.2,0-0.3,0.1
			c-0.1,0.1-0.1,0.2-0.1,0.3v3.1c0,0.2,0,0.3,0.1,0.3c0.1,0.1,0.3,0.1,0.5,0.1h1.4l1.3,0c0.2,0,0.3-0.1,0.4-0.2
			c0.1-0.2,0.3-0.8,0.5-1.8c0-0.2,0.1-0.3,0.2-0.3c0.1,0,0.1,0.1,0.1,0.4l0,1.5c0,0.2,0.1,0.3,0.3,0.5c0.2,0.1,0.3,0.3,0.3,0.5
			s-0.1,0.4-0.3,0.5s-0.5,0.2-0.9,0.3c-0.5,0.1-1.1,0.1-2,0.1H214c-0.5,0-0.8,0-1.1-0.1c-0.2-0.1-0.4-0.2-0.5-0.4
			c-0.1-0.2-0.1-0.5-0.1-0.8v-3.5c0-0.1,0-0.2-0.1-0.3c-0.1-0.1-0.2-0.1-0.3-0.1h-1.8c-0.2,0-0.4,0.1-0.4,0.3
			c-0.2,1.1-0.7,2.1-1.5,3s-2.2,1.6-4,2.2c-0.1,0-0.2,0.1-0.3,0.1c-0.1,0-0.1,0-0.2-0.1v0c0-0.1,0.1-0.2,0.3-0.3
			c1.3-0.6,2.3-1.4,3-2.2c0.7-0.8,1.1-1.7,1.3-2.6v-0.1c0-0.2-0.1-0.3-0.4-0.3h-1c-0.7,0-1.5,0.1-2.3,0.2h-0.1
			c-0.2,0-0.3-0.1-0.4-0.2l-0.1-0.1c0-0.1-0.1-0.1-0.1-0.2c0-0.1,0-0.1,0.1-0.2c0.1,0,0.1-0.1,0.3,0c0.4,0,1,0.1,1.9,0.1h1.8
			c0.3,0,0.4-0.1,0.4-0.3c0-0.1,0-0.2,0-0.3v-2c0-0.1,0-0.2-0.1-0.3c-0.1-0.1-0.2-0.1-0.3-0.1H207c-0.2,0-0.3-0.1-0.4-0.2
			c0,0,0-0.1-0.1-0.1c-0.1,0-0.2,0-0.3,0.1c-0.7,0.5-1.6,0.9-2.5,1.3c-0.1,0-0.2,0.1-0.3,0.1c-0.1,0-0.1,0-0.1-0.1c0,0,0,0,0-0.1
			c0-0.1,0.1-0.2,0.3-0.3c1.2-0.7,2.3-1.6,3.2-2.6s1.7-2.2,2.2-3.4c0-0.1,0-0.1,0-0.2c0-0.1,0-0.2-0.1-0.2c-0.1,0-0.1-0.1-0.3-0.1
			h-0.8c-0.7,0-1.4,0.1-2.1,0.2h-0.1c-0.2,0-0.3-0.1-0.4-0.2l-0.1-0.1c0-0.1-0.1-0.1-0.1-0.2s0-0.1,0.1-0.2c0.1,0,0.1-0.1,0.3,0
			c0.4,0,1,0.1,1.9,0.1h1.6c0.2,0,0.3-0.1,0.5-0.2l0.2-0.2c0,0,0.1-0.1,0.2-0.3c0.1-0.1,0.2-0.2,0.3-0.2c0.1,0,0.3,0.1,0.6,0.4
			s0.5,0.5,0.7,0.7c0,0.1,0.1,0.2,0.1,0.2c0,0.1-0.1,0.2-0.2,0.2c-0.1,0-0.1,0-0.2,0c-0.2,0-0.3,0.1-0.4,0.3c-0.8,1.6-1.9,3-3.3,4.2
			c-0.1,0.1-0.2,0.2-0.2,0.3c0,0.1,0,0.1,0.1,0.1c0.1,0,0.1,0.1,0.2,0.1h5.7c0.2,0,0.3-0.1,0.4-0.3l0.2-0.3c0-0.1,0.1-0.2,0.2-0.3
			c0.1-0.1,0.1-0.2,0.2-0.2s0.1-0.1,0.1-0.1c0.1,0,0.2,0.1,0.5,0.3c0.2,0.2,0.4,0.4,0.6,0.6s0.3,0.4,0.3,0.4c0,0.2-0.2,0.3-0.4,0.3
			h-1.2c-0.1,0-0.2,0-0.3,0.1c-0.1,0.1-0.1,0.2-0.1,0.3v2.3c0,0.1,0,0.2,0.1,0.3c0.1,0.1,0.2,0.1,0.3,0.1h1.3
			C215.6,267.2,215.7,267.2,215.9,267z M204.5,259.7c0-0.1-0.1-0.1,0-0.1c0,0,0.1,0,0.1,0c0.1,0,0.2,0,0.2,0
			c0.8,0.2,1.4,0.4,1.8,0.8c0.4,0.3,0.6,0.7,0.6,1.1c0,0.2-0.1,0.4-0.2,0.6c-0.1,0.2-0.3,0.2-0.5,0.2c-0.1,0-0.2,0-0.3-0.1
			c-0.2-0.1-0.3-0.2-0.3-0.4c-0.1-0.3-0.3-0.6-0.5-1c-0.2-0.3-0.5-0.6-0.7-0.9C204.6,259.8,204.6,259.7,204.5,259.7z M209.9,264.3
			c-0.1,0.1-0.1,0.2-0.1,0.3v2v0.3c0,0.3,0.1,0.4,0.4,0.4h1.7c0.1,0,0.2,0,0.3-0.1c0.1-0.1,0.1-0.2,0.1-0.3v-2.3
			c0-0.1,0-0.2-0.1-0.3c-0.1-0.1-0.2-0.1-0.3-0.1h-1.7C210.1,264.2,210,264.2,209.9,264.3z M215.9,261.7c0,0.1,0.1,0.2,0.2,0.3
			c0.9,0.6,1.9,1.1,3,1.5c0.2,0.1,0.3,0.2,0.3,0.2c0,0-0.1,0.1-0.1,0.1s-0.1,0.1-0.2,0.1c-0.3,0.1-0.6,0.4-0.8,0.8
			c-0.1,0.2-0.2,0.2-0.3,0.2c-0.1,0-0.1,0-0.2-0.1c-1.5-0.8-2.7-1.8-3.7-3.1c-1-1.3-1.8-2.8-2.3-4.5c0-0.1,0-0.2,0-0.2
			c0-0.1,0-0.2,0.1-0.2l0,0c0.1,0,0.2,0.1,0.3,0.3c0.3,0.8,0.7,1.5,1.2,2.1c0.1,0.1,0.2,0.2,0.3,0.2s0.2,0,0.3-0.1
			c0.6-0.7,1.1-1.4,1.4-2c0.1-0.1,0.2-0.2,0.3-0.2c0.1,0,0.2,0,0.3,0.1c0.8,0.5,1.2,0.9,1.2,1c0,0-0.1,0.1-0.2,0.1h-0.1
			c-0.2,0-0.3,0.1-0.4,0.2c-0.8,0.5-1.5,1-2.1,1.3c-0.1,0.1-0.2,0.2-0.2,0.3c0,0.1,0,0.2,0.1,0.3c0.2,0.2,0.5,0.5,0.9,0.9
			c0.1,0.1,0.2,0.1,0.3,0.1s0.2,0,0.3-0.1c0.7-0.7,1.2-1.3,1.6-2c0.1-0.1,0.2-0.2,0.3-0.2c0.1,0,0.2,0,0.3,0.1
			c0.8,0.6,1.2,0.9,1.2,1.1c0,0-0.1,0.1-0.2,0.1h-0.1c-0.2,0-0.3,0.1-0.4,0.1c-0.6,0.4-1.3,0.8-2.2,1.2
			C215.9,261.5,215.9,261.6,215.9,261.7z"/>
	</g>
	<g class="st1">
		<path class="st2" d="M237.2,267.2c0.3,0.1,0.6,0.3,0.9,0.5s0.4,0.4,0.4,0.6c0,0.2-0.1,0.3-0.2,0.4c-0.1,0.1-0.3,0.1-0.5,0.1
			c-0.2,0-0.3,0-0.5-0.1c-1.2-0.3-2.5-0.4-4-0.4c-0.8,0-1.6,0-2.5,0.1c-1.2,0.1-2.6,0.3-4.2,0.7c-0.2,0-0.3,0.1-0.5,0.2
			c-0.3,0.1-0.6,0.2-0.8,0.2c-0.3,0-0.6-0.1-1-0.3c-0.3-0.2-0.6-0.4-0.8-0.7c-0.2-0.3-0.3-0.5-0.3-0.7c0,0,0,0,0-0.1c0,0,0,0,0.1,0
			c0.1,0,0.1,0,0.3,0.1c0.1,0,0.2,0.1,0.2,0.1c0.3,0.1,0.6,0.2,1,0.2c0.2,0,1.9-0.2,4.9-0.5c0.2,0,0.4-0.2,0.4-0.4
			c0.1-1.6,0.2-2.6,0.2-3.1c0-0.2,0-0.4,0-0.5c0-0.2-0.1-0.4-0.3-0.6c-0.1-0.1-0.3-0.2-0.5-0.2l-1.4,0.3c-0.2,0-0.5,0.1-0.6,0.1
			c-0.2,0-0.5-0.1-0.6-0.2c-0.1,0-0.1-0.1-0.2-0.1c-0.1,0-0.2,0-0.2-0.1c-0.2-0.1-0.3-0.1-0.4-0.3c-0.1-0.1-0.2-0.2-0.3-0.4
			c-0.1-0.1-0.1-0.2-0.1-0.3s0-0.1,0.1-0.1c0.2,0,0.4,0.1,0.6,0.1c0.1,0,0.3,0,0.5,0c0.6,0,1.1,0,1.7-0.1c0.4,0,1.2-0.1,2.3-0.3
			s2-0.3,2.3-0.4c0.3-0.1,0.5-0.1,0.7-0.1c0.3,0,0.5,0,0.7,0.1c0.2,0.1,0.3,0.1,0.5,0.1c0.2,0,0.3,0.1,0.4,0.2
			c0.1,0.1,0.2,0.2,0.3,0.3c0,0.1,0,0.1,0,0.1c0,0.1-0.1,0.2-0.2,0.2c-0.1,0-0.2,0.1-0.4,0.1c-0.3,0-0.7,0-1.1,0.1
			c-0.4,0.1-0.6,0.1-0.7,0.1c-0.4,0-0.9,0.1-1.6,0.1c-0.2,0-0.3,0.1-0.3,0.2c0,0.1,0.1,0.2,0.2,0.3c0.2,0.2,0.4,0.4,0.4,0.5
			c0,0.1,0,0.2-0.1,0.3c-0.1,0.1-0.2,0.3-0.2,0.4c-0.1,0.2-0.2,1.1-0.3,2.7v0c0,0.1,0,0.2,0.1,0.3c0.1,0.1,0.2,0.1,0.3,0.1
			c1.2-0.1,2-0.2,2.4-0.2c0.4,0,0.8,0,1.3-0.1c0.1,0,0.3-0.1,0.6-0.2c0.3-0.1,0.4-0.1,0.6-0.1C236.6,267,236.9,267.1,237.2,267.2z"
			/>
	</g>
	<g class="st1">
		<path class="st2" d="M240.6,272.8c0,0,0.1-0.1,0.3-0.2c1.6-0.9,2.8-1.8,3.7-2.9c0.8-1,1.4-2.2,1.7-3.4c0.3-1.2,0.4-2.7,0.4-4.5
			c0-0.4,0-1-0.1-1.7c0-0.6-0.2-1-0.4-1.2c-0.1-0.1-0.3-0.2-0.4-0.2c-0.1,0-0.2-0.1-0.2-0.1c0,0-0.1-0.1-0.1-0.1
			c0-0.1,0.1-0.2,0.3-0.2c0.2-0.1,0.4-0.1,0.7-0.1c0.1,0,0.3,0,0.5,0c0.3,0.1,0.7,0.3,1.1,0.6c0.4,0.3,0.5,0.5,0.5,0.7
			c0,0.1,0,0.2-0.1,0.4c0,0.1-0.1,0.2-0.1,0.4c0,0.1-0.1,0.2-0.1,0.4c0,0.5,0,1.1,0,1.8c0,1.9-0.3,3.4-0.7,4.7
			c-0.4,1.3-1.1,2.4-2.2,3.3s-2.5,1.8-4.3,2.4C240.9,272.8,240.8,272.8,240.6,272.8C240.6,272.8,240.6,272.8,240.6,272.8z
			 M242.4,266.4c-0.2-0.3-0.3-0.6-0.3-0.9c0-0.1,0-0.3,0.1-0.8c0-0.5,0.1-0.9,0.1-1.3c0-1.1-0.1-2-0.2-2.5c-0.1-0.4-0.3-0.7-0.6-0.8
			c-0.1,0-0.2-0.1-0.2-0.1c-0.1,0-0.1-0.1-0.1-0.1c0-0.1,0.1-0.2,0.3-0.3c0.2-0.1,0.4-0.2,0.7-0.2c0.2,0,0.3,0,0.4,0.1
			c0.4,0.2,0.7,0.3,0.9,0.5c0.2,0.2,0.3,0.4,0.3,0.6c0,0.1,0,0.2,0,0.3s0,0.2-0.1,0.3c0,0.3-0.1,0.9-0.1,1.7l0,1.4
			c0,0,0,0.3,0.1,0.8c0,0.4,0,0.6,0,0.7c0,0.3-0.1,0.5-0.2,0.7c-0.1,0.2-0.3,0.3-0.5,0.3C242.7,266.8,242.5,266.6,242.4,266.4z"/>
	</g>
	<g class="st1">
		<path class="st2" d="M270.5,259.6c0.4,0.4,0.6,0.7,0.6,0.8c0,0.1,0,0.1-0.1,0.2c-0.1,0.1-0.3,0.2-0.6,0.3l-0.5,0.3
			c-0.4,0.2-1,0.6-1.7,0.9c-0.7,0.4-1.4,0.7-2.1,1c-0.2,0.1-0.3,0.2-0.3,0.4c0,0.1-0.1,0.3-0.2,0.5c-0.1,0.2-0.1,0.4-0.2,0.6
			c-0.5,1.4-1.3,2.9-2.2,4.3c-0.9,1.4-2.2,2.6-3.9,3.5c-0.1,0.1-0.2,0.1-0.3,0.1c-0.1,0-0.1,0-0.1-0.1c0,0,0.1-0.1,0.2-0.3
			c1.1-0.9,2.1-1.9,2.9-3.2c0.8-1.3,1.3-2.5,1.7-3.7c0.4-1.2,0.6-2,0.6-2.5c0-0.4-0.1-0.7-0.3-0.9s-0.5-0.4-0.9-0.5
			c-0.1,0-0.1-0.1-0.1-0.1c0-0.1,0.1-0.2,0.3-0.2c0.2-0.1,0.5-0.1,0.7-0.1c0.4,0,0.7,0.1,1,0.2s0.6,0.3,0.8,0.5s0.3,0.4,0.3,0.5
			c0.2,0,0.4-0.1,0.6-0.2c0.7-0.6,1.3-1.2,1.8-1.9c0.2-0.2,0.2-0.4,0.2-0.5c0-0.2-0.2-0.3-0.6-0.3c-0.3,0-0.9,0.1-1.8,0.2
			s-1.7,0.3-2.3,0.5c-0.5,0.1-1,0.3-1.6,0.5c-0.6,0.2-1,0.3-1.3,0.4c-0.3,0.1-0.6,0.1-0.8,0.1c-0.3,0-0.6-0.1-1-0.4
			s-0.6-0.6-0.8-0.9c0-0.1-0.1-0.2-0.1-0.3c0-0.1,0-0.2,0.1-0.2c0,0,0.1,0,0.2,0.1c0.1,0.1,0.2,0.1,0.3,0.1c0.3,0.1,0.7,0.1,1.1,0.1
			c0.4,0,0.8,0,1.2-0.1c0.6-0.1,1.7-0.2,3.3-0.4c1.6-0.2,2.5-0.4,2.9-0.5c0.1,0,0.2-0.1,0.6-0.2c0.3-0.1,0.6-0.2,0.7-0.2
			c0.1,0,0.2,0.1,0.4,0.2C269.7,258.9,270.1,259.2,270.5,259.6z"/>
	</g>
	<g class="st1">
		<path class="st2" d="M289.2,262c0.3,0.3,0.5,0.6,0.5,1.1c0,0.6-0.2,1.1-0.7,1.4c-0.5,0.4-1.2,0.8-2,1.1l-0.8,0.3
			c-1.4,0.5-2,0.8-1.9,0.7c-0.2,0.1-0.3,0.2-0.3,0.4c0,0.3,0,0.5,0,0.8c0,0.1,0,0.3,0,0.6c0,0.3,0,0.5,0,0.6c0,0.2-0.1,0.4-0.2,0.6
			c-0.1,0.2-0.3,0.3-0.5,0.3c-0.2,0-0.3-0.1-0.5-0.2c-0.1-0.2-0.2-0.3-0.2-0.5c0,0,0-0.3,0.1-0.8c0-0.1,0-0.2,0-0.4v-0.1
			c0-0.2-0.1-0.3-0.2-0.3c-0.1,0-0.2,0-0.2,0.1c-1.1,0.7-1.7,1.4-1.7,2.2c0,0.9,0.9,1.3,2.6,1.3c0.3,0,0.7,0,0.9-0.1
			c0.3,0,0.6-0.1,0.9-0.2c0.1,0,0.2,0,0.5-0.1c0.2-0.1,0.5-0.1,0.7-0.1c0.3,0,0.5,0.1,0.6,0.2s0.2,0.3,0.2,0.5c0,0.4-0.3,0.7-1,0.9
			c-0.7,0.2-1.4,0.3-2.2,0.3c-1.4,0-2.4-0.2-3-0.7c-0.6-0.4-0.9-1-0.9-1.7c0-0.6,0.2-1.2,0.7-1.7c0.5-0.5,1.1-1,1.9-1.5
			c0.2-0.1,0.3-0.3,0.3-0.4v-0.3c0-0.6-0.1-1.1-0.3-1.4s-0.4-0.5-0.7-0.5c-0.4,0-0.8,0.2-1.1,0.6s-0.8,1-1.2,1.6l-0.2,0.3
			c0,0-0.1,0.2-0.3,0.4s-0.3,0.4-0.4,0.5c-0.1,0.1-0.3,0.2-0.4,0.2c-0.2,0-0.4-0.1-0.5-0.3c-0.1-0.2-0.2-0.4-0.2-0.7
			c0-0.3,0.1-0.7,0.4-1l0.3-0.3c0.3-0.3,0.6-0.6,0.9-0.9c0.2-0.3,0.5-0.5,0.7-0.9c0.5-0.8,0.9-1.6,1.3-2.6c0-0.1,0-0.1,0-0.2
			c0-0.1,0-0.1-0.1-0.2c-0.1,0-0.2-0.1-0.3,0c-0.4,0-0.7,0.1-0.8,0.1c-0.4,0-0.8-0.1-1.1-0.2c-0.3-0.2-0.6-0.4-1.1-0.8
			c0,0-0.1-0.1-0.1-0.1c0,0,0-0.1,0.1-0.1c0,0,0.1,0,0.3,0.1c0.4,0.2,0.9,0.2,1.3,0.2c0.6,0,1.2-0.1,1.9-0.3c0.2,0,0.3-0.2,0.3-0.4
			s0.1-0.4,0.1-0.6c0-0.5-0.2-0.9-0.6-1.2c-0.1-0.1-0.1-0.1-0.1-0.2c0-0.1,0-0.2,0.1-0.3c0.1-0.1,0.1-0.1,0.3-0.1
			c0.2,0,0.4,0,0.7,0.1c0.3,0.1,0.5,0.2,0.6,0.3c0.1,0.1,0.1,0.2,0.1,0.5v0c0,0.1,0,0.2,0.1,0.3c0,0.1,0.1,0.2,0.2,0.2
			c0.2,0,0.3,0.1,0.5,0.1c0.2,0,0.3,0,0.4-0.1c0.1,0,0.3,0,0.4,0c0.3,0,0.4,0.1,0.4,0.3c0,0.2-0.1,0.4-0.3,0.6
			c-0.2,0.2-0.5,0.4-0.8,0.6c-0.3,0.2-0.7,0.4-1.3,0.5c-0.2,0.1-0.3,0.2-0.4,0.4c-0.3,0.9-0.6,1.7-0.9,2.4c0,0.1-0.1,0.2-0.1,0.2
			c0,0.1,0,0.1,0.1,0.1l0.1,0c0.2,0,0.4-0.1,0.5-0.1c1,0,1.6,0.4,1.9,1.3c0.1,0.1,0.1,0.2,0.1,0.2c0.1,0,0.1-0.1,0.2-0.2
			c0.3-0.7,0.7-1.3,1.3-2c0.4-0.4,0.8-0.7,1.3-1s1-0.4,1.6-0.4C288.5,261.6,288.8,261.8,289.2,262z M282.5,258.9
			c0,0-0.1,0.1-0.2,0.3c0,0.2,0,0.3,0.1,0.2l0.2-0.1c0.1,0,0.1-0.1,0.1-0.1s0-0.1-0.1-0.2L282.5,258.9L282.5,258.9z M287.8,263.7
			c0.3-0.4,0.5-0.7,0.5-1c0-0.4-0.2-0.6-0.7-0.6c-0.3,0-0.7,0.1-1.1,0.3c-0.4,0.2-0.8,0.5-1.1,0.9c-0.2,0.3-0.5,0.6-0.7,1
			c-0.2,0.4-0.4,0.8-0.5,1.1c0,0.1-0.1,0.2-0.1,0.3c0,0.1,0,0.1,0,0.1c0,0,0,0,0.1,0l0.4-0.2c0.8-0.4,1.4-0.7,1.9-1
			C287.1,264.5,287.5,264.1,287.8,263.7z"/>
	</g>
	<g class="st1">
		<path class="st2" d="M299.5,271.9c-0.1,0-0.1,0.1-0.1,0.1l0,0.3v0.1l0,0.2c0,0.1,0,0.2-0.1,0.3c-0.1,0.1-0.3,0.2-0.5,0.3
			s-0.4,0.1-0.6,0.1c-0.1,0-0.2,0-0.3-0.1c-0.1-0.1-0.1-0.2-0.1-0.3c0-0.7,0.1-1.4,0.1-2.1s0.1-1.5,0.1-2.6v-7.2
			c0-1.2-0.1-2.2-0.2-3.2v-0.1c0-0.2,0.1-0.3,0.2-0.3c0.1,0,0.1,0,0.2,0l1.1,0.5c0.2,0.1,0.3,0.1,0.5,0.1h7.1c0.2,0,0.3-0.1,0.5-0.2
			l0.2-0.2c0-0.1,0.1-0.1,0.2-0.2c0.1-0.1,0.1-0.1,0.2-0.2c0.1-0.1,0.1-0.1,0.2-0.1c0.1,0,0.3,0.1,0.7,0.4c0.4,0.3,0.6,0.5,0.8,0.7
			c0.1,0.1,0.1,0.1,0.1,0.2c0,0.1,0,0.2-0.1,0.2c-0.1,0-0.1,0.1-0.3,0.1c-0.2,0.1-0.3,0.2-0.3,0.4v9c0,1.3,0.1,2.6,0.1,4v0.1
			c0,0.2-0.1,0.3-0.2,0.4c-0.2,0.1-0.4,0.2-0.6,0.3c-0.2,0.1-0.4,0.1-0.6,0.1h-0.1c-0.1,0-0.2-0.2-0.2-0.4c0-0.1,0-0.2,0-0.2l0-0.4
			v-0.1c0-0.1,0-0.2-0.1-0.3c-0.1-0.1-0.2-0.1-0.3-0.1h-7.1C299.6,271.9,299.6,271.9,299.5,271.9z M307.2,262.4
			c0.1-0.1,0.1-0.2,0.1-0.3v-3c0-0.1,0-0.2-0.1-0.3c-0.1-0.1-0.2-0.1-0.3-0.1h-7.1c-0.1,0-0.2,0-0.3,0.1c-0.1,0.1-0.1,0.2-0.1,0.3v3
			c0,0.1,0,0.2,0.1,0.3c0.1,0.1,0.2,0.1,0.3,0.1h7.1C307,262.5,307.1,262.5,307.2,262.4z M307.2,266.8c0.1-0.1,0.1-0.2,0.1-0.3v-3.1
			c0-0.1,0-0.2-0.1-0.3c-0.1-0.1-0.2-0.1-0.3-0.1h-7.1c-0.1,0-0.2,0-0.3,0.1c-0.1,0.1-0.1,0.2-0.1,0.3v3.1c0,0.1,0,0.2,0.1,0.3
			c0.1,0.1,0.2,0.1,0.3,0.1h7.1C307,266.9,307.1,266.9,307.2,266.8z M299.5,267.5c-0.1,0.1-0.1,0.2-0.1,0.3v3.2c0,0.1,0,0.2,0.1,0.3
			c0.1,0.1,0.2,0.1,0.3,0.1h7.1c0.1,0,0.2,0,0.3-0.1c0.1-0.1,0.1-0.2,0.1-0.3v-3.2c0-0.1,0-0.2-0.1-0.3c-0.1-0.1-0.2-0.1-0.3-0.1
			h-7.1C299.6,267.4,299.6,267.5,299.5,267.5z"/>
	</g>
	<g class="st1">
		<path class="st2" d="M327.9,260l0.3-0.4c0.1-0.1,0.1-0.2,0.2-0.3c0.1-0.1,0.1-0.2,0.2-0.3c0.1-0.1,0.1-0.1,0.2-0.1
			c0.1,0,0.3,0.2,0.7,0.5s0.7,0.6,0.8,0.8c0.1,0.1,0.1,0.1,0.1,0.2c0,0.1,0,0.1-0.1,0.2c-0.1,0.1-0.2,0.1-0.3,0.1h-12.5
			c-0.8,0-1.5,0.1-2.4,0.2H315c-0.2,0-0.3-0.1-0.4-0.2l-0.1-0.1c0-0.1-0.1-0.2-0.1-0.2c0-0.1,0-0.1,0.1-0.2s0.1-0.1,0.3,0
			c0.4,0,1,0.1,1.9,0.1h1.8l1.4,0l-0.1,0c-0.1,0-0.1-0.1-0.2-0.1c0-0.1-0.1-0.1-0.1-0.3c-0.1-0.4-0.3-0.8-0.6-1.3
			c-0.3-0.4-0.6-0.8-0.9-1.2c-0.1-0.2-0.2-0.3-0.2-0.3s0-0.1,0.1-0.1c0.1,0,0.2,0,0.3,0c0.9,0.3,1.6,0.6,2,1.1
			c0.4,0.5,0.6,0.9,0.6,1.3c0,0.2-0.1,0.4-0.2,0.6c-0.1,0.1-0.1,0.2-0.1,0.2s0.1,0.1,0.2,0.1h2.4c0.2,0,0.3,0,0.4-0.1
			c0.3-0.5,0.5-1,0.7-1.6c0.2-0.6,0.4-1.1,0.5-1.5c0-0.2,0.1-0.3,0.3-0.3c0,0,0.1,0,0.2,0c1.1,0.3,1.7,0.6,1.7,0.7
			c0,0-0.1,0.1-0.2,0.1l-0.1,0c-0.2,0.1-0.3,0.2-0.4,0.3c-0.5,0.6-1.1,1.2-1.8,1.8c-0.1,0.1-0.2,0.2-0.2,0.3c0,0.1,0,0.1,0.1,0.1
			c0.1,0,0.1,0.1,0.2,0.1h2.7C327.6,260.2,327.8,260.2,327.9,260z M317.3,268.8c-0.1,0.1-0.1,0.2-0.1,0.3v1c0,1.1,0.1,1.9,0.1,2.4
			v0.1c0,0.1,0,0.2-0.1,0.3c-0.1,0.1-0.3,0.2-0.5,0.3s-0.4,0.1-0.6,0.1c-0.1,0-0.2,0-0.3-0.1s-0.1-0.2-0.1-0.3
			c0-0.7,0.1-1.4,0.1-2.1c0-0.7,0.1-1.5,0.1-2.6v-2.8c0-1.2-0.1-2.2-0.2-3.2v-0.1c0-0.2,0.1-0.3,0.2-0.3c0.1,0,0.1,0,0.2,0l0.9,0.4
			c0.1,0.1,0.3,0.1,0.4,0.1h2.2c0.2,0,0.3-0.1,0.5-0.2l0.1-0.2c0,0,0.1-0.1,0.2-0.2c0.1-0.1,0.2-0.2,0.2-0.2c0.1,0,0.3,0.1,0.6,0.4
			c0.3,0.2,0.6,0.4,0.8,0.6c0,0.1,0.1,0.1,0.1,0.2c0,0.1-0.1,0.2-0.2,0.2c-0.1,0-0.1,0.1-0.2,0.1c-0.2,0.1-0.3,0.2-0.3,0.4v7.9
			c0,0.5-0.1,0.9-0.3,1.2c-0.2,0.3-0.5,0.4-1.1,0.5h-0.1c-0.2,0-0.3-0.1-0.4-0.3c0-0.2-0.1-0.4-0.2-0.6c-0.2-0.2-0.4-0.3-0.8-0.4
			c-0.2-0.1-0.3-0.1-0.3-0.2c0-0.1,0.1-0.1,0.4-0.1c0.5,0,0.9,0.1,1.1,0.1c0.1,0,0.2,0,0.2-0.1c0-0.1,0.1-0.1,0.1-0.3v-2.4
			c0-0.1,0-0.2-0.1-0.3c-0.1-0.1-0.2-0.1-0.3-0.1h-2.3C317.5,268.7,317.4,268.7,317.3,268.8z M320.2,265.2c0.1-0.1,0.1-0.2,0.1-0.3
			v-1.4c0-0.1,0-0.2-0.1-0.3c-0.1-0.1-0.2-0.1-0.3-0.1h-2.3c-0.1,0-0.2,0-0.3,0.1c-0.1,0.1-0.1,0.2-0.1,0.3v1.4c0,0.1,0,0.2,0.1,0.3
			c0.1,0.1,0.2,0.1,0.3,0.1h2.3C320,265.3,320.1,265.3,320.2,265.2z M317.3,265.9c-0.1,0.1-0.1,0.2-0.1,0.3v1.6c0,0.1,0,0.2,0.1,0.3
			c0.1,0.1,0.2,0.1,0.3,0.1h2.3c0.1,0,0.2,0,0.3-0.1c0.1-0.1,0.1-0.2,0.1-0.3v-1.6c0-0.1,0-0.2-0.1-0.3c-0.1-0.1-0.2-0.1-0.3-0.1
			h-2.3C317.5,265.8,317.4,265.9,317.3,265.9z M323.8,265.9c0-1.2-0.1-2.3-0.2-3.2v-0.1c0-0.2,0.1-0.3,0.3-0.3c0,0,0.1,0,0.2,0
			c1,0.3,1.5,0.5,1.5,0.6c0,0-0.1,0.1-0.2,0.2l-0.1,0c-0.2,0.1-0.3,0.3-0.3,0.5v2.1c0,1.3,0.1,2.6,0.1,4v0.1c0,0.2-0.1,0.3-0.2,0.4
			c-0.1,0.1-0.3,0.2-0.5,0.2c-0.2,0.1-0.4,0.1-0.5,0.1c-0.1,0-0.2,0-0.3-0.1c-0.1-0.1-0.1-0.2-0.1-0.3c0.1-0.6,0.1-1.4,0.1-2.4
			V265.9z M327.5,265.5c0-1.2-0.1-2.3-0.2-3.2v-0.1c0-0.2,0.1-0.3,0.3-0.3c0.1,0,0.1,0,0.1,0c1,0.3,1.5,0.5,1.5,0.6
			c0,0-0.1,0.1-0.2,0.2l-0.1,0c-0.2,0.1-0.3,0.2-0.3,0.5v8.3c0,0.4,0,0.7-0.1,0.9c-0.1,0.2-0.2,0.4-0.5,0.6
			c-0.2,0.2-0.6,0.3-1.1,0.3h-0.1c-0.2,0-0.3-0.1-0.4-0.3c-0.1-0.3-0.2-0.5-0.3-0.6c-0.2-0.2-0.6-0.3-1.2-0.4
			c-0.2-0.1-0.4-0.1-0.4-0.2c0-0.1,0.1-0.1,0.3-0.1c0.2,0,0.6,0,1.2,0.1l0.7,0c0.1,0,0.2,0,0.3-0.1c0.1-0.1,0.1-0.1,0.1-0.3V265.5z"
			/>
	</g>
	<g class="st1">
		<path class="st2" d="M335.2,271.8c-0.2-0.2-0.4-0.5-0.5-0.8c-0.5-1.2-0.7-2.6-0.7-4.3c0-0.8,0.1-1.5,0.2-2.1
			c0.1-0.6,0.3-1.3,0.5-2c0.1-0.5,0.2-0.8,0.3-1.1c0.1-0.3,0.1-0.5,0.1-0.8c0-0.3,0-0.5-0.1-0.8s-0.2-0.5-0.4-0.6
			c0,0-0.1-0.1-0.1-0.1s-0.1-0.1-0.1-0.2c0,0,0-0.1,0.1-0.1c0.1,0,0.2,0,0.3,0.1c0.5,0.2,0.9,0.5,1.2,0.9c0.3,0.4,0.4,0.8,0.4,1.4
			c0,0.3-0.1,0.6-0.2,0.9c-0.1,0.3-0.3,0.6-0.5,1c-0.1,0.2-0.2,0.5-0.4,0.8c-0.1,0.3-0.2,0.5-0.3,0.8c-0.1,0.4-0.2,0.9-0.2,1.4
			c0,0.3,0,0.6,0.1,0.8c0.1,0.3,0.1,0.4,0.2,0.4c0,0,0.1-0.1,0.2-0.2s0.1-0.2,0.1-0.2l1-2c0.1-0.1,0.1-0.2,0.2-0.2
			c0,0,0.1,0,0.1,0.1l-0.1,0.2c-0.2,0.5-0.4,1.1-0.6,1.8c-0.2,0.7-0.3,1.3-0.3,1.7c0,0.3,0,0.6,0.1,0.9c0.1,0.3,0.1,0.7,0.3,1.2
			c0.1,0.4,0.2,0.7,0.2,0.8c0,0.2-0.1,0.3-0.2,0.4s-0.2,0.1-0.4,0.1C335.7,272.1,335.5,272,335.2,271.8z M340.4,270.9
			c-0.7-0.3-1.2-0.8-1.5-1.6c-0.1-0.2-0.1-0.3-0.1-0.4c0,0,0-0.1,0.1-0.1c0,0,0.1,0,0.1,0.1s0.1,0.1,0.1,0.1c0.5,0.4,1,0.6,1.6,0.8
			c0.3,0.1,0.7,0.1,1.2,0.1c0.6,0,1.3-0.1,2.2-0.2c0.5,0,0.7-0.1,0.7-0.1c0.3,0,0.6,0.1,0.8,0.3s0.3,0.4,0.3,0.6
			c0,0.4-0.3,0.6-0.9,0.8s-1.3,0.2-2.2,0.2C342,271.3,341.1,271.2,340.4,270.9z M340.8,261.7c-0.4-0.1-0.7-0.3-1-0.5
			s-0.5-0.4-0.6-0.7c0-0.1-0.1-0.2-0.1-0.2c0,0,0-0.1,0.1-0.1c0,0,0.1,0,0.2,0.1c0.1,0.1,0.2,0.1,0.3,0.1c0.4,0.2,0.9,0.3,1.4,0.3
			c0.3,0,0.8,0,1.3-0.1s1-0.2,1.4-0.3c0.2-0.1,0.3-0.1,0.4-0.1c0.3,0,0.5,0.1,0.7,0.2c0.2,0.2,0.3,0.3,0.3,0.5
			c0,0.3-0.3,0.6-0.9,0.7c-0.6,0.2-1.3,0.2-1.9,0.2C341.8,262,341.3,261.9,340.8,261.7z"/>
	</g>
	<g class="st1">
		<path class="st2" d="M356,270.9c-0.4-0.5-0.8-0.9-1.2-1.3c0,0-0.1-0.1-0.2-0.1c-0.1-0.1-0.1-0.1-0.1-0.1c0-0.1,0-0.1,0.1-0.1
			c0.1,0,0.2,0,0.3,0.1c0.4,0.1,0.9,0.3,1.5,0.6c0.6,0.3,1.2,0.7,1.6,1.1c0.5,0.4,0.7,0.9,0.7,1.3c0,0.3-0.1,0.6-0.3,0.7
			c-0.2,0.2-0.4,0.3-0.6,0.3c-0.3,0-0.6-0.2-0.8-0.6C356.7,272,356.3,271.4,356,270.9z"/>
	</g>
	<g class="st1">
		<path class="st2" d="M374.6,258.2c-0.1,0-0.2,0.1-0.3,0.2c-0.8,1.3-2,2.5-3.4,3.7c-1.4,1.2-2.9,2.2-4.4,3c-0.2,0.1-0.4,0.1-0.4,0
			v0c0-0.1,0.1-0.1,0.2-0.3c0.9-0.6,1.8-1.4,2.7-2.3c0.9-0.9,1.8-1.8,2.5-2.8c0.7-1,1.3-1.9,1.6-2.7c0.1-0.2,0.2-0.3,0.5-0.3
			l1.6,0.4c0.1,0,0.2,0.1,0.2,0.1c0.1,0.1,0.1,0.1,0.1,0.2c0,0.1,0,0.1-0.1,0.1c-0.1,0.1-0.2,0.2-0.2,0.3c0,0,0,0.1,0.1,0.1
			c0.7,1,1.7,1.9,2.9,2.7c1.2,0.8,2.5,1.5,4,2.2c0.1,0,0.2,0.1,0.2,0.1c0,0,0.1,0.1,0.1,0.1c0,0.1-0.1,0.2-0.3,0.3
			c-0.3,0.1-0.6,0.4-0.8,0.8c-0.1,0.2-0.2,0.2-0.3,0.2c-0.1,0-0.1,0-0.2-0.1c-1.3-0.8-2.4-1.7-3.5-2.7s-1.9-2.1-2.4-3.3
			C374.8,258.3,374.7,258.2,374.6,258.2z M377.8,267.6l0.2-0.3c0-0.1,0.1-0.1,0.2-0.2c0.1-0.1,0.1-0.2,0.2-0.2
			c0.1-0.1,0.1-0.1,0.2-0.1c0.1,0,0.3,0.1,0.7,0.4c0.4,0.3,0.6,0.5,0.8,0.7c0.1,0.1,0.1,0.2,0.1,0.2c0,0.1,0,0.1-0.1,0.2
			c-0.1,0.1-0.2,0.1-0.4,0.1h-4.5c-0.1,0-0.2,0-0.3,0.1c-0.1,0.1-0.1,0.2-0.1,0.3v3.1c0,0.1,0,0.2,0.1,0.3c0.1,0.1,0.2,0.1,0.3,0.1
			h3.7c0.2,0,0.3-0.1,0.5-0.2l0.3-0.4c0.1-0.1,0.1-0.2,0.2-0.3s0.1-0.2,0.2-0.3c0.1-0.1,0.1-0.1,0.2-0.1c0.1,0,0.3,0.2,0.7,0.5
			c0.4,0.3,0.7,0.6,0.8,0.8c0.1,0.1,0.1,0.2,0.1,0.2c0,0.1,0,0.1-0.1,0.2c-0.1,0.1-0.2,0.1-0.3,0.1h-11.8c-0.7,0-1.5,0.1-2.4,0.2
			h-0.1c-0.2,0-0.3-0.1-0.4-0.2l-0.1-0.2c0-0.1-0.1-0.1-0.1-0.2c0-0.1,0-0.1,0.1-0.2c0.1,0,0.1-0.1,0.3,0c0.4,0,1,0.1,1.9,0.1h4.1
			c0.1,0,0.2,0,0.3-0.1c0.1-0.1,0.1-0.2,0.1-0.3v-3.1c0-0.1,0-0.2-0.1-0.3c-0.1-0.1-0.2-0.1-0.3-0.1h-1.2c-0.7,0-1.5,0.1-2.4,0.2
			h-0.1c-0.2,0-0.3-0.1-0.4-0.2l-0.1-0.1c0-0.1-0.1-0.1-0.1-0.2s0-0.1,0.1-0.2c0.1,0,0.1-0.1,0.3,0c0.4,0,1,0.1,1.9,0.1h2
			c0.1,0,0.2,0,0.3-0.1c0.1-0.1,0.1-0.2,0.1-0.3v-2.6c0-0.1,0-0.2-0.1-0.3c-0.1-0.1-0.2-0.1-0.3-0.1h-1c-0.7,0-1.4,0.1-2.2,0.2h-0.1
			c-0.2,0-0.3-0.1-0.4-0.2l-0.1-0.1c0-0.1-0.1-0.1-0.1-0.2c0-0.1,0-0.1,0.1-0.2c0.1,0,0.1-0.1,0.3,0c0.4,0,1,0.1,1.9,0.1h5.3
			c0.2,0,0.3-0.1,0.5-0.2l0.2-0.3c0-0.1,0.1-0.1,0.2-0.2c0.1-0.1,0.1-0.2,0.2-0.2c0,0,0.1-0.1,0.1-0.1c0.1,0,0.3,0.1,0.7,0.4
			c0.4,0.3,0.6,0.5,0.8,0.7c0.1,0.1,0.1,0.2,0.1,0.2c0,0.1,0,0.1-0.1,0.2c-0.1,0.1-0.2,0.1-0.3,0.1h-3.8c-0.1,0-0.2,0-0.3,0.1
			c-0.1,0.1-0.1,0.2-0.1,0.3v2.6c0,0.1,0,0.2,0.1,0.3c0.1,0.1,0.2,0.1,0.3,0.1h2.1C377.5,267.8,377.7,267.8,377.8,267.6z"/>
	</g>
	<g class="st1">
		<path class="st2" d="M394,264.2c0.5,0.3,0.9,0.8,1.2,1.4c0.3,0.6,0.4,1.2,0.4,1.9c0,0.9-0.2,1.6-0.5,2.4s-0.8,1.3-1.4,1.7
			c-0.6,0.4-1.3,0.6-2.2,0.6c-0.9,0-1.6-0.2-2.3-0.7c-0.7-0.5-1.2-1.1-1.5-2c-0.4-0.9-0.5-1.8-0.5-2.9c0-1.7,0.3-3.1,0.8-4.3
			s1.1-2.1,1.9-2.7c0.8-0.6,1.5-0.9,2.3-0.9c0.6,0,1.1,0.1,1.6,0.3c0.4,0.2,0.7,0.4,0.9,0.7c0.2,0.3,0.3,0.6,0.3,0.8
			c0,0.3-0.1,0.5-0.3,0.7c-0.2,0.2-0.4,0.3-0.7,0.3c-0.3,0-0.5-0.1-0.8-0.4c-0.2-0.2-0.3-0.5-0.4-0.9c0-0.3-0.1-0.5-0.2-0.7
			c-0.1-0.1-0.3-0.2-0.6-0.2c-0.8,0-1.5,0.5-1.9,1.5c-0.5,1-0.8,2.2-1,3.7c0,0.2,0.1,0.3,0.2,0.3c0.1,0,0.3-0.1,0.5-0.2
			c0.7-0.6,1.5-0.9,2.3-0.9C392.8,263.7,393.5,263.9,394,264.2z M392.7,271c0.3-0.3,0.6-0.8,0.8-1.4c0.2-0.6,0.3-1.2,0.3-1.9
			c0-1.2-0.2-2.1-0.7-2.5c-0.5-0.4-1-0.6-1.6-0.6c-0.4,0-0.9,0.1-1.3,0.4c-0.4,0.3-0.8,0.7-1.1,1.3c-0.1,0.1-0.1,0.3-0.1,0.5
			c0,1.3,0.2,2.4,0.6,3.3c0.4,0.9,1,1.4,2,1.4C392,271.5,392.4,271.3,392.7,271z"/>
	</g>
	<g class="st1">
		<path class="st2" d="M407.2,264.2c0.5,0.3,0.9,0.8,1.2,1.4c0.3,0.6,0.4,1.2,0.4,1.9c0,0.9-0.2,1.6-0.5,2.4s-0.8,1.3-1.4,1.7
			c-0.6,0.4-1.3,0.6-2.2,0.6c-0.9,0-1.6-0.2-2.3-0.7c-0.7-0.5-1.2-1.1-1.5-2c-0.4-0.9-0.5-1.8-0.5-2.9c0-1.7,0.3-3.1,0.8-4.3
			s1.1-2.1,1.9-2.7c0.8-0.6,1.5-0.9,2.3-0.9c0.6,0,1.1,0.1,1.6,0.3c0.4,0.2,0.7,0.4,0.9,0.7c0.2,0.3,0.3,0.6,0.3,0.8
			c0,0.3-0.1,0.5-0.3,0.7c-0.2,0.2-0.4,0.3-0.7,0.3c-0.3,0-0.5-0.1-0.8-0.4c-0.2-0.2-0.3-0.5-0.4-0.9c0-0.3-0.1-0.5-0.2-0.7
			c-0.1-0.1-0.3-0.2-0.6-0.2c-0.8,0-1.5,0.5-1.9,1.5c-0.5,1-0.8,2.2-1,3.7c0,0.2,0.1,0.3,0.2,0.3c0.1,0,0.3-0.1,0.5-0.2
			c0.7-0.6,1.5-0.9,2.3-0.9C406,263.7,406.6,263.9,407.2,264.2z M405.9,271c0.3-0.3,0.6-0.8,0.8-1.4c0.2-0.6,0.3-1.2,0.3-1.9
			c0-1.2-0.2-2.1-0.7-2.5c-0.5-0.4-1-0.6-1.6-0.6c-0.4,0-0.9,0.1-1.3,0.4c-0.4,0.3-0.8,0.7-1.1,1.3c-0.1,0.1-0.1,0.3-0.1,0.5
			c0,1.3,0.2,2.4,0.6,3.3c0.4,0.9,1,1.4,2,1.4C405.2,271.5,405.6,271.3,405.9,271z"/>
	</g>
	<g class="st1">
		<path class="st2" d="M416.4,263.6c-0.1,0.1-0.1,0.2-0.1,0.3v4.1c0,0.1,0,0.2,0.1,0.3c0.1,0.1,0.2,0.1,0.3,0.1
			c0.7-0.1,1.4-0.3,2.1-0.4l0.6-0.1c0.1,0,0.1,0,0.2,0c0.1,0,0.2,0,0.2,0.1v0c0,0.1-0.1,0.1-0.3,0.3c-1.4,0.7-3,1.4-4.6,2.1
			c-0.1,0.1-0.2,0.1-0.3,0.2l-0.1,0.1c0,0.1-0.1,0.1-0.2,0.1c-0.1,0-0.2-0.1-0.3-0.3l-0.5-1c0,0,0-0.1,0-0.2c0-0.2,0.1-0.3,0.3-0.3
			l0.8-0.1c0.2,0,0.3-0.2,0.3-0.4v-6.9c0-1.2-0.1-2.2-0.2-3.2v-0.1c0-0.2,0.1-0.3,0.2-0.3c0.1,0,0.1,0,0.2,0.1l1.2,0.6
			c0.1,0.1,0.2,0.1,0.3,0.1c0,0,0.1,0,0.2,0c0.8-0.3,1.6-0.5,2.3-0.8c0.8-0.3,1.4-0.6,1.9-0.9c0.1,0,0.1-0.1,0.2-0.1
			c0.1,0,0.2,0,0.3,0.1c0.7,0.7,1.1,1.1,1.1,1.2c0,0.1-0.1,0.1-0.3,0.1l-0.2,0l-0.2,0c0,0-0.1,0-0.3,0l-1.2,0.3
			c-0.2,0-0.3,0.2-0.4,0.4l0,1.1c0,0.7,0,1.6,0.1,2.5c0,0.2,0.2,0.4,0.4,0.4h0.3c0.2,0,0.3-0.1,0.5-0.3l0.2-0.3
			c0-0.1,0.1-0.1,0.2-0.2c0.1-0.1,0.1-0.2,0.2-0.2c0-0.1,0.1-0.1,0.1-0.1c0.1,0,0.3,0.1,0.6,0.4c0.3,0.3,0.5,0.5,0.7,0.7
			c0.1,0.1,0.1,0.2,0.1,0.2c0,0.1,0,0.1-0.1,0.2c-0.1,0.1-0.2,0.1-0.3,0.1h-2.3c-0.1,0-0.2,0-0.3,0.1c-0.1,0.1-0.1,0.2-0.1,0.3
			c0.3,2.1,0.7,3.7,1.4,4.6c0.1,0.1,0.1,0.2,0.2,0.2c0.1,0,0.1-0.1,0.2-0.2c0.1-0.3,0.3-0.8,0.5-1.3c0.1-0.2,0.1-0.4,0.2-0.3
			c0.1,0,0.1,0.1,0.1,0.4l-0.2,1.8v0.1c0,0.1,0,0.2,0.1,0.4c0.1,0.3,0.2,0.6,0.2,0.7c0,0.1,0,0.3-0.1,0.4c-0.1,0.1-0.3,0.2-0.5,0.2
			c-0.2,0-0.5-0.1-0.7-0.3s-0.5-0.4-0.6-0.6c-0.9-1.4-1.6-3.3-1.9-6c0-0.2-0.2-0.4-0.4-0.4h-2.1
			C416.5,263.5,416.4,263.6,416.4,263.6z M416.9,272.4c-0.6,0-1.2,0.1-1.9,0.2H415c-0.2,0-0.3-0.1-0.4-0.2l-0.1-0.1
			c0-0.1-0.1-0.1-0.1-0.2s0-0.1,0.1-0.2c0.1,0,0.1-0.1,0.3,0c0.4,0,1,0.1,1.9,0.1h2.8c0.2,0,0.3-0.1,0.5-0.2l0.2-0.3
			c0-0.1,0.1-0.1,0.2-0.3s0.1-0.2,0.2-0.3c0.1-0.1,0.1-0.1,0.2-0.1c0.1,0,0.3,0.1,0.7,0.4c0.3,0.3,0.6,0.5,0.7,0.7
			c0.1,0.1,0.1,0.2,0.1,0.2c0,0.1,0,0.1-0.1,0.2c-0.1,0.1-0.2,0.1-0.4,0.1H416.9z M418.5,259c-0.8,0.1-1.4,0.2-1.9,0.2
			c-0.2,0-0.4,0.2-0.4,0.4v3c0,0.1,0,0.2,0.1,0.3c0.1,0.1,0.2,0.1,0.3,0.1h2.1c0.3,0,0.4-0.1,0.4-0.4c-0.1-0.9-0.1-2-0.1-3.2
			C418.9,259.1,418.8,259,418.5,259z M425.1,258.8c-0.1,0.1-0.1,0.2-0.1,0.3v9.5c0,1.3,0.1,2.6,0.1,4v0.1c0,0.2-0.1,0.3-0.2,0.4
			c-0.3,0.2-0.6,0.4-1.1,0.4c-0.1,0-0.2,0-0.3-0.1c-0.1-0.1-0.1-0.2-0.1-0.3c0-0.7,0.1-1.4,0.1-2.1c0-0.7,0.1-1.5,0.1-2.6V261
			c0-1.2-0.1-2.2-0.2-3.2v-0.1c0-0.2,0.1-0.3,0.2-0.3c0.1,0,0.1,0,0.2,0.1l1,0.5c0.2,0.1,0.3,0.1,0.5,0.1h1.7c0.2,0,0.4-0.1,0.5-0.2
			l0.2-0.2c0,0,0.1-0.1,0.2-0.2c0.1-0.1,0.1-0.1,0.2-0.2s0.1-0.1,0.2-0.1c0.1,0,0.3,0.2,0.6,0.5c0.3,0.3,0.6,0.6,0.7,0.8
			c0,0.1,0.1,0.1,0.1,0.2c0,0.1-0.1,0.2-0.2,0.2c-0.1,0-0.1,0-0.2,0c-0.1,0-0.2,0.1-0.3,0.1c-0.1,0-0.1,0.1-0.2,0.2
			c-0.3,0.6-0.6,1.3-1,2.1s-0.7,1.4-1,1.9c0,0.1-0.1,0.2-0.1,0.2c0,0.1,0.1,0.2,0.2,0.3c0.8,0.7,1.4,1.4,1.8,2.2s0.5,1.5,0.5,2.3
			c0,0.8-0.2,1.5-0.5,1.9s-0.8,0.7-1.6,0.8h-0.1c-0.2,0-0.3-0.1-0.3-0.4c0-0.3-0.1-0.6-0.2-0.7c-0.1-0.1-0.3-0.2-0.6-0.3
			c-0.2-0.1-0.3-0.1-0.3-0.2c0-0.1,0.1-0.1,0.4-0.1h1c0.1,0,0.2,0,0.2,0c0.1,0,0.2-0.1,0.4-0.2c0.2-0.2,0.3-0.6,0.3-1.1
			c0-1.4-0.5-2.8-1.5-4c-0.1-0.1-0.1-0.2-0.1-0.3c0-0.1,0-0.1,0-0.2c0.4-1.4,0.8-2.9,1.1-4.4l0-0.1c0-0.1,0-0.2-0.1-0.2
			c-0.1-0.1-0.2-0.1-0.3-0.1h-1.7C425.3,258.7,425.2,258.8,425.1,258.8z"/>
	</g>
	<g class="st1">
		<path class="st2" d="M444.2,260c1,0.4,1.9,1.1,2.6,2c0.7,0.9,1,2.1,1,3.5c0,1.7-0.5,3.1-1.6,4.1c-1,1-2.2,1.7-3.6,2
			c-1.3,0.4-2.5,0.5-3.6,0.5c-0.1,0-0.2,0-0.2,0c-0.1,0-0.1,0-0.1-0.1c0,0,0.1-0.1,0.2-0.1s0.3-0.1,0.5-0.1c2-0.3,3.7-1,4.9-2.1
			s1.9-2.5,1.9-4.3c0-1.3-0.3-2.4-0.8-3.2c-0.6-0.8-1.3-1.4-2.1-1.8c-0.8-0.3-1.6-0.5-2.4-0.5c-0.2,0.1-0.3,0.3-0.3,0.4
			c0.1,0.3,0.2,0.6,0.3,1c0.1,0.4,0.1,0.7,0.1,1c0,0.5-0.1,1-0.2,1.5c-0.1,0.6-0.3,1.1-0.5,1.7c-0.4,1-0.8,1.9-1.3,2.7
			c-0.5,0.8-1,1.4-1.5,1.8c-0.5,0.4-0.9,0.6-1.2,0.6c-0.4,0-0.9-0.2-1.3-0.7c-0.4-0.4-0.7-1-0.9-1.7s-0.4-1.4-0.4-2.2
			c0-1.3,0.4-2.5,1.1-3.5c0.7-1,1.6-1.8,2.7-2.4c1.1-0.6,2.3-0.8,3.5-0.8C442.2,259.4,443.2,259.6,444.2,260z M440.3,260.3
			c0-0.2-0.2-0.3-0.5-0.3c-0.9,0.2-1.7,0.5-2.4,1.1c-0.7,0.5-1.3,1.2-1.7,2c-0.4,0.8-0.6,1.7-0.6,2.7c0,0.7,0.1,1.3,0.3,1.7
			c0.2,0.5,0.4,0.8,0.6,1.1c0.2,0.2,0.4,0.3,0.5,0.3c0.3,0,0.6-0.2,1-0.6s0.8-0.9,1.2-1.5c0.6-1,1.1-1.9,1.4-2.8
			c0.3-0.8,0.4-1.7,0.4-2.6C440.4,261,440.4,260.6,440.3,260.3z"/>
	</g>
	<g class="st1">
		<path class="st2" d="M460.4,265l0.1-0.2c0-0.1,0.1-0.1,0.2-0.3s0.2-0.2,0.2-0.2c0.1,0,0.3,0.1,0.6,0.4s0.5,0.5,0.7,0.7
			c0,0.1,0.1,0.1,0.1,0.2c0,0.1-0.1,0.2-0.2,0.2l-0.2,0.1c-0.1,0-0.2,0.1-0.2,0.2c-0.1,0.1-0.1,0.1-0.1,0.3v1.9
			c0,1.3,0.1,2.6,0.1,3.9v0.1c0,0.2-0.1,0.3-0.2,0.4c-0.1,0.1-0.3,0.2-0.5,0.2c-0.2,0.1-0.4,0.1-0.5,0.1h-0.1
			c-0.1,0-0.2-0.2-0.2-0.4c0-0.1,0-0.2,0-0.2l0-0.3v-0.1c0-0.1,0-0.2-0.1-0.3c-0.1-0.1-0.2-0.1-0.3-0.1h-2.7c-0.1,0-0.2,0-0.3,0.1
			c-0.1,0.1-0.1,0.2-0.1,0.3c0,0.1,0,0.3,0,0.4v0.1c0,0.1,0,0.2-0.1,0.3c-0.3,0.2-0.6,0.3-1,0.3c-0.1,0-0.2,0-0.3-0.1
			c-0.1-0.1-0.1-0.2-0.1-0.3c0.1-1.2,0.1-2.5,0.2-3.9v-1.6c0-0.1,0-0.2-0.1-0.2c0-0.1-0.1-0.1-0.2-0.1c-0.1,0-0.2,0-0.2,0.1
			c-0.4,0.2-0.8,0.5-1.2,0.7c-0.2,0.1-0.3,0.1-0.4,0c0,0,0,0,0-0.1c0,0,0-0.1,0.1-0.1c0-0.1,0.1-0.1,0.2-0.2
			c0.6-0.4,1.1-0.8,1.6-1.2c0.1-0.1,0.2-0.3,0.2-0.5v-0.5v-0.3c0-0.2,0.1-0.3,0.2-0.3c0.1,0,0.1,0,0.2,0.1l0.4,0.2
			c0.1,0,0.1,0.1,0.2,0.1c0.1,0,0.2,0,0.3-0.1c0.3-0.3,0.5-0.6,0.8-0.9l0.3-0.3c0.1-0.1,0.1-0.2,0.1-0.3c0-0.1-0.1-0.2-0.3-0.2h-1.1
			c-0.7,0-1.5,0.1-2.4,0.2h-0.1c-0.2,0-0.3-0.1-0.4-0.2l-0.1-0.2c0-0.1-0.1-0.1-0.1-0.2s0-0.1,0.1-0.2c0.1,0,0.1-0.1,0.3,0
			c0.4,0,1,0.1,1.8,0.1h0.7c0.1,0,0.2,0,0.3-0.1c0.1-0.1,0.1-0.2,0.1-0.3v-1.8c0-0.1,0-0.2-0.1-0.3c-0.1-0.1-0.2-0.1-0.3-0.1h-0.5
			c-0.4,0-0.8,0.1-1.2,0.2c0,0-0.1,0-0.1,0c-0.2,0-0.3-0.1-0.3-0.2l-0.1-0.1c0-0.1-0.1-0.1-0.1-0.2c0-0.2,0.1-0.2,0.3-0.2
			c0.3,0,0.8,0,1.4,0.1h0.5c0.3,0,0.4-0.1,0.4-0.4c0-0.7-0.1-1.4-0.1-2v-0.1c0-0.2,0.1-0.3,0.3-0.3c0.1,0,0.1,0,0.1,0
			c1,0.3,1.5,0.5,1.5,0.6c0,0.1-0.1,0.1-0.2,0.2l-0.1,0c-0.2,0.1-0.3,0.3-0.3,0.5v1c0,0.1,0,0.2,0.1,0.3c0.1,0.1,0.2,0.1,0.3,0.1
			h0.1c0.2,0,0.3-0.1,0.4-0.2l0.4-0.5c0.1-0.1,0.2-0.2,0.3-0.2c0.1,0,0.2,0,0.3,0.1c0,0,0.1,0.1,0.2,0.2c0.1,0.1,0.1,0.1,0.2,0.2
			c0.1,0.1,0.2,0.1,0.3,0.1c0.1,0,0.2-0.1,0.3-0.2c0.2-0.5,0.4-1,0.5-1.4c0.1-0.2,0.2-0.3,0.3-0.3c0.1,0,0.1,0,0.2,0.1
			c0.8,0.4,1.3,0.7,1.3,0.8c0,0-0.1,0.1-0.2,0.1l-0.1,0c-0.2,0-0.3,0.1-0.4,0.3c-0.6,1.2-1.4,2.4-2.2,3.5c-0.1,0.1-0.1,0.2-0.1,0.3
			c0,0.1,0.1,0.2,0.2,0.2h0.2c0.2,0,0.3-0.1,0.5-0.2l0.2-0.3c0,0,0.1-0.1,0.2-0.2c0.1-0.1,0.1-0.2,0.2-0.2c0.1-0.1,0.1-0.1,0.2-0.1
			c0.1,0,0.3,0.1,0.6,0.4c0.3,0.3,0.6,0.5,0.7,0.7c0.1,0.1,0.1,0.2,0.1,0.2c0,0.1,0,0.1-0.1,0.2c-0.1,0.1-0.2,0.1-0.3,0.1h-3
			c-0.2,0-0.4,0.1-0.5,0.2c-0.5,0.5-0.9,0.9-1.3,1.3c-0.1,0.1-0.1,0.2-0.1,0.3c0,0.1,0.1,0.2,0.3,0.2h1.5
			C460.2,265.3,460.3,265.2,460.4,265z M460.3,268.1c0.1-0.1,0.1-0.2,0.1-0.3v-1.7c0-0.1,0-0.2-0.1-0.3c-0.1-0.1-0.2-0.1-0.3-0.1
			h-2.6c-0.2,0-0.3,0-0.4,0.1c-0.1,0.1-0.1,0.2-0.1,0.4v1.6c0,0.1,0,0.2,0.1,0.3c0.1,0.1,0.2,0.1,0.3,0.1h2.7
			C460.2,268.2,460.3,268.2,460.3,268.1z M457.1,268.8c-0.1,0.1-0.1,0.2-0.1,0.3v1.7c0,0.1,0,0.2,0.1,0.3c0.1,0.1,0.2,0.1,0.3,0.1
			h2.7c0.1,0,0.2,0,0.3-0.1c0.1-0.1,0.1-0.2,0.1-0.3v-1.7c0-0.1,0-0.2-0.1-0.3c-0.1-0.1-0.2-0.1-0.3-0.1h-2.7
			C457.3,268.7,457.2,268.8,457.1,268.8z M460.3,260.4c0-0.1,0-0.1-0.1-0.2c-0.1,0-0.1-0.1-0.2-0.1h-1.3c-0.1,0-0.2,0-0.3,0.1
			c-0.1,0.1-0.1,0.2-0.1,0.3v1.8c0,0.1,0,0.2,0.1,0.3c0,0.1,0.1,0.1,0.2,0.1c0.2,0,0.3-0.1,0.5-0.2c0.5-0.6,0.9-1.3,1.2-1.9
			C460.3,260.6,460.3,260.5,460.3,260.4z M465.2,258.9c-0.1,0.1-0.1,0.2-0.1,0.3v9.5c0,1.3,0.1,2.6,0.1,4v0.1c0,0.2-0.1,0.3-0.2,0.4
			c-0.3,0.2-0.6,0.4-1.1,0.4c-0.1,0-0.2,0-0.3-0.1s-0.1-0.2-0.1-0.3c0-0.7,0.1-1.4,0.1-2.1s0.1-1.5,0.1-2.6v-7.3
			c0-1.2-0.1-2.2-0.2-3.1v-0.1c0-0.2,0.1-0.3,0.2-0.3c0.1,0,0.1,0,0.2,0.1l1.1,0.5c0.1,0.1,0.3,0.1,0.5,0.1h1.9
			c0.2,0,0.4-0.1,0.5-0.2l0.2-0.2c0,0,0.1-0.1,0.2-0.2c0.1-0.1,0.2-0.2,0.3-0.2c0.1,0,0.3,0.2,0.6,0.5c0.3,0.3,0.6,0.6,0.7,0.8
			c0,0.1,0.1,0.1,0.1,0.2c0,0.1-0.1,0.2-0.2,0.2l-0.2,0.1c-0.2,0-0.4,0.1-0.5,0.3l-0.2,0.4c-0.1,0.2-0.4,0.7-0.8,1.5
			c-0.4,0.8-0.8,1.5-1.2,2.1c-0.1,0.1-0.1,0.2-0.1,0.2c0,0.1,0.1,0.2,0.2,0.3c0.9,0.7,1.5,1.4,1.9,2.2c0.4,0.8,0.6,1.5,0.6,2.3
			c0,0.8-0.2,1.4-0.5,1.9c-0.3,0.4-0.9,0.7-1.7,0.8h-0.1c-0.2,0-0.3-0.1-0.3-0.3c0-0.2-0.1-0.4-0.1-0.5c0-0.2-0.1-0.3-0.3-0.3
			c-0.1,0-0.3-0.1-0.5-0.1c-0.2,0-0.3-0.1-0.3-0.2s0.1-0.1,0.4-0.1h1.1c0.2,0,0.3,0,0.5-0.1c0.3-0.2,0.5-0.6,0.5-1.3
			c0-1.4-0.6-2.8-1.7-4c-0.1-0.1-0.1-0.2-0.1-0.3c0,0,0-0.1,0-0.2c0.5-1.2,0.9-2.7,1.3-4.3c0,0,0-0.1,0-0.1c0-0.2-0.1-0.3-0.3-0.3
			h-1.9C465.3,258.8,465.2,258.8,465.2,258.9z"/>
	</g>
	<g class="st1">
		<path class="st2" d="M476.9,262.7c0.1,0,0.2,0.1,0.2,0.3c0.2,0.8,0.3,1.5,0.3,2.2c0,0.8-0.1,1.5-0.3,2.2c-0.2,0.6-0.5,1.1-0.8,1.5
			c-0.2,0.2-0.4,0.3-0.5,0.4c-0.2,0.1-0.4,0.2-0.6,0.2c-0.2,0-0.4-0.1-0.5-0.2c-0.1-0.1-0.1-0.3-0.1-0.4c0-0.3,0.1-0.6,0.4-0.9
			c0.5-0.4,0.9-1,1.3-1.9c0.4-0.9,0.6-1.9,0.6-2.9C476.7,262.8,476.8,262.7,476.9,262.7z M479.2,264.5c0-1.2-0.1-2.3-0.2-3.2v-0.1
			c0-0.2,0.1-0.3,0.3-0.3c0,0,0.1,0,0.2,0c0.6,0.2,1,0.3,1.2,0.4c0.2,0.1,0.3,0.2,0.3,0.3c0,0,0,0.1-0.1,0.2l-0.1,0
			c-0.2,0.1-0.2,0.3-0.2,0.5v8.6c0,0.2,0.1,0.4,0.2,0.5s0.4,0.1,0.8,0.1h2.1c1,0,1.7,0,2-0.1c0.1,0,0.2,0,0.3-0.1
			c0.1,0,0.1-0.1,0.2-0.2c0.2-0.4,0.4-1.3,0.6-2.7c0-0.2,0.1-0.3,0.2-0.3s0.1,0.1,0.1,0.4l0.1,2.5c0,0.1,0,0.2,0.1,0.2
			c0,0.1,0.1,0.1,0.2,0.2c0.2,0.1,0.3,0.3,0.3,0.5c0,0.3-0.1,0.5-0.3,0.6c-0.2,0.1-0.6,0.2-1.2,0.3s-1.5,0.1-2.6,0.1h-2.3
			c-0.6,0-1,0-1.3-0.1c-0.3-0.1-0.5-0.2-0.7-0.5c-0.1-0.2-0.2-0.6-0.2-1V264.5z M479.8,257.3c1.2,0.2,2.2,0.5,2.9,0.9
			s1.3,0.8,1.6,1.2c0.3,0.4,0.5,0.8,0.5,1.1c0,0.2-0.1,0.4-0.2,0.6c-0.1,0.2-0.3,0.2-0.5,0.2c0,0-0.1,0-0.3,0
			c-0.1,0-0.3-0.2-0.4-0.3c-0.3-0.5-0.8-1.1-1.5-1.7c-0.7-0.6-1.4-1.1-2.3-1.6c-0.2-0.1-0.3-0.2-0.3-0.3
			C479.5,257.3,479.6,257.2,479.8,257.3z M486.8,262.6C486.8,262.6,486.8,262.5,486.8,262.6c0.2-0.1,0.3,0,0.4,0.1
			c1.2,0.7,2.1,1.5,2.6,2.3c0.5,0.9,0.8,1.7,0.8,2.4c0,0.5-0.1,0.8-0.3,1.1c-0.2,0.3-0.4,0.5-0.6,0.5c-0.2,0-0.3-0.1-0.5-0.2
			c-0.1-0.1-0.2-0.2-0.2-0.4c0-0.9-0.2-1.9-0.6-2.9c-0.3-1-0.9-1.9-1.5-2.6C486.8,262.7,486.8,262.6,486.8,262.6z"/>
	</g>
	<g class="st1">
		<path class="st2" d="M493,272.3c0,0,0-0.1,0.1-0.1c2.2-1,4.1-2.2,5.6-3.5c1.5-1.4,2.8-3.1,3.8-5.3c0.1-0.2,0.1-0.3,0.1-0.3
			c0-0.1-0.1-0.1-0.2-0.1c-0.2,0-0.9,0.1-2.2,0.4s-2.2,0.4-2.8,0.6c-0.3,0.1-0.5,0.1-0.6,0.2c-0.1,0.1-0.3,0.1-0.3,0.2
			c-0.1,0.1-0.1,0.1-0.2,0.1c-0.1,0.1-0.3,0.1-0.5,0.1c-0.3,0-0.6-0.1-0.9-0.3s-0.6-0.5-0.8-0.8c-0.1-0.2-0.2-0.4-0.2-0.6
			c0-0.1,0-0.2,0-0.2c0-0.1,0.1-0.1,0.1-0.1c0,0,0.1,0,0.2,0.1c0.1,0,0.2,0.1,0.2,0.1c0.2,0.1,0.4,0.1,0.6,0.2
			c0.3,0.1,0.6,0.1,1,0.1c0.1,0,0.3,0,0.6,0c0.3,0,1.3-0.2,2.9-0.4c1.6-0.3,2.5-0.4,2.7-0.5c0.1,0,0.3-0.1,0.6-0.3
			c0,0,0.1-0.1,0.2-0.1c0.1,0,0.2-0.1,0.2-0.1c0.2,0,0.4,0.1,0.7,0.3c0.3,0.2,0.6,0.4,0.8,0.6c0.2,0.2,0.3,0.4,0.3,0.6
			c0,0.1,0,0.2-0.1,0.3s-0.2,0.2-0.3,0.3c-0.3,0.3-0.6,0.5-0.8,0.8c-1.1,2-2.5,3.6-4.1,4.9s-3.8,2.3-6.4,3L493,272.3
			C493,272.3,493,272.3,493,272.3z M495.9,260.1c-0.4-0.3-0.6-0.5-0.7-0.8c0-0.1-0.1-0.1-0.1-0.2c0,0,0,0,0-0.1c0,0,0,0,0.1,0
			c0,0,0.1,0,0.2,0.1c0.1,0,0.2,0.1,0.3,0.1c0.3,0.1,0.7,0.1,1,0.1c0.2,0,0.5,0,0.7-0.1c1.3-0.2,2.2-0.4,2.8-0.5
			c0.2,0,0.4-0.1,0.5-0.2c0.1-0.1,0.2-0.1,0.3-0.1s0.2,0,0.3,0c0.3,0,0.5,0.1,0.8,0.2c0.3,0.1,0.5,0.3,0.7,0.5
			c0.2,0.2,0.3,0.4,0.3,0.5c0,0.1-0.1,0.2-0.2,0.3s-0.3,0.1-0.6,0.1c-0.2,0-0.4,0-0.5,0c-0.4,0-0.8,0-1.1,0c-0.5,0-1.1,0-1.8,0.1
			c-0.7,0.1-1.2,0.2-1.5,0.3c-0.3,0.1-0.6,0.1-0.8,0.1C496.4,260.4,496.2,260.3,495.9,260.1z"/>
	</g>
	<g class="st1">
		<path class="st2" d="M520.4,258.9c0.2,0.2,0.2,0.4,0.2,0.5c0,0.1,0,0.1-0.1,0.2s-0.1,0.1-0.2,0.1c0,0-0.1,0-0.2,0.1
			s-0.2,0.1-0.3,0.3c-0.6,0.9-1.3,1.7-1.9,2.4c-0.1,0.1-0.1,0.2-0.1,0.3c0,0.1,0.1,0.2,0.2,0.2c0.1,0,0.2,0.1,0.4,0.2
			c0.2,0.1,0.3,0.3,0.3,0.5c0,0.1,0,0.2-0.1,0.4c-0.1,0.4-0.1,0.7-0.1,0.9v0.4c0,0.3,0,0.8,0,1.7c0,2,0,3.3,0.1,3.8
			c0,0.3,0.1,0.5,0.1,0.7c0,0.7-0.2,1-0.6,1c-0.3,0-0.5-0.1-0.7-0.3c-0.2-0.2-0.2-0.5-0.2-0.9c0-0.4,0-0.7,0-1c0-0.3,0-0.5,0-0.8
			c0-0.9,0.1-1.5,0.1-1.9l0-2.8c0-0.3,0-0.6-0.1-0.8c0-0.1-0.1-0.2-0.3-0.2c-0.1,0-0.2,0-0.3,0.1c-1.8,1.6-3.6,2.9-5.5,3.8
			c-0.2,0.1-0.3,0.1-0.4,0.1c-0.1,0-0.1,0-0.1-0.1c0-0.1,0.1-0.2,0.4-0.4c1.5-1.1,2.9-2.3,4-3.4s2-2.2,2.6-3.1
			c0.6-0.9,0.9-1.5,0.9-1.8c0-0.3-0.1-0.5-0.3-0.6c0,0-0.1-0.1-0.2-0.1c-0.1,0-0.1-0.1-0.1-0.1c0-0.1,0.1-0.1,0.4-0.1
			c0.5,0,1,0.2,1.5,0.5C520,258.5,520.2,258.7,520.4,258.9z"/>
	</g>
	<g class="st1">
		<path class="st2" d="M528.1,272.1c0-0.1,0.1-0.2,0.4-0.3c2.2-1.1,4-2.4,5.4-3.9c1.4-1.5,2.5-2.9,3.2-4.1c0.7-1.3,1-2.1,1.1-2.5
			c0-0.1-0.1-0.1-0.2-0.1c-0.1,0-0.6,0.1-1.5,0.2s-1.8,0.3-2.8,0.5c-1,0.2-1.8,0.4-2.5,0.6c-0.3,0.1-0.5,0.1-0.7,0.1
			c-0.4,0-0.7-0.1-1-0.3c-0.2-0.2-0.4-0.4-0.6-0.7c-0.2-0.3-0.2-0.6-0.2-0.8c0-0.1,0.1-0.2,0.2-0.2c0.1,0,0.2,0,0.4,0.1
			c0.3,0.1,0.5,0.2,0.7,0.2c0.2,0,0.4,0.1,0.6,0.1c0.4,0,1.5-0.1,3.2-0.2c1.8-0.1,2.9-0.3,3.3-0.4c0.2-0.1,0.4-0.1,0.6-0.3
			c0.4-0.2,0.7-0.3,0.8-0.3c0.1,0,0.3,0.1,0.6,0.3c0.3,0.2,0.6,0.4,0.8,0.7c0.2,0.3,0.4,0.5,0.4,0.6c0,0.1,0,0.3-0.1,0.4
			c-0.1,0.1-0.2,0.3-0.4,0.4c-0.3,0.3-0.5,0.6-0.7,0.9c-0.8,1.6-1.7,2.9-2.7,4c-1,1.1-2.2,2-3.4,2.8c-1.2,0.8-2.7,1.5-4.4,2.2
			c-0.1,0.1-0.2,0.1-0.3,0.1C528.1,272.1,528.1,272.1,528.1,272.1z"/>
	</g>
	<g class="st1">
		<path class="st2" d="M558.5,262c0.3,0.3,0.5,0.6,0.5,1.1c0,0.6-0.2,1.1-0.7,1.4c-0.5,0.4-1.2,0.8-2,1.1l-0.8,0.3
			c-1.4,0.5-2,0.8-1.9,0.7c-0.2,0.1-0.3,0.2-0.3,0.4c0,0.3,0,0.5,0,0.8c0,0.1,0,0.3,0,0.6c0,0.3,0,0.5,0,0.6c0,0.2-0.1,0.4-0.2,0.6
			c-0.2,0.2-0.3,0.3-0.5,0.3c-0.2,0-0.3-0.1-0.5-0.2s-0.2-0.3-0.2-0.5c0,0,0-0.3,0.1-0.8c0-0.1,0-0.2,0-0.4v-0.1
			c0-0.2-0.1-0.3-0.2-0.3c-0.1,0-0.2,0-0.2,0.1c-1.1,0.7-1.7,1.4-1.7,2.2c0,0.9,0.9,1.3,2.6,1.3c0.3,0,0.7,0,0.9-0.1
			c0.3,0,0.6-0.1,0.9-0.2c0.1,0,0.2,0,0.5-0.1c0.2-0.1,0.5-0.1,0.7-0.1c0.3,0,0.5,0.1,0.6,0.2c0.1,0.1,0.2,0.3,0.2,0.5
			c0,0.4-0.3,0.7-1,0.9c-0.7,0.2-1.4,0.3-2.2,0.3c-1.4,0-2.4-0.2-3-0.7c-0.6-0.4-0.9-1-0.9-1.7c0-0.6,0.2-1.2,0.7-1.7
			c0.5-0.5,1.1-1,1.9-1.5c0.2-0.1,0.3-0.3,0.3-0.4v-0.3c0-0.6-0.1-1.1-0.3-1.4s-0.4-0.5-0.7-0.5c-0.4,0-0.8,0.2-1.1,0.6
			s-0.8,1-1.2,1.6l-0.2,0.3c0,0-0.1,0.2-0.3,0.4c-0.1,0.2-0.3,0.4-0.4,0.5c-0.1,0.1-0.3,0.2-0.4,0.2c-0.2,0-0.4-0.1-0.5-0.3
			c-0.1-0.2-0.2-0.4-0.2-0.7c0-0.3,0.2-0.7,0.5-1l0.3-0.3c0.3-0.3,0.6-0.6,0.9-0.9s0.5-0.5,0.7-0.9c0.5-0.8,0.9-1.6,1.3-2.6
			c0-0.1,0-0.1,0-0.2c0-0.1,0-0.1-0.1-0.2c-0.1,0-0.2-0.1-0.3,0c-0.4,0-0.7,0.1-0.8,0.1c-0.4,0-0.8-0.1-1.1-0.2
			c-0.3-0.2-0.6-0.4-1.1-0.8c0,0-0.1-0.1-0.1-0.1c0,0,0-0.1,0.1-0.1c0,0,0.1,0,0.3,0.1c0.4,0.2,0.9,0.2,1.3,0.2
			c0.6,0,1.2-0.1,1.9-0.3c0.2,0,0.3-0.2,0.3-0.4s0.1-0.4,0.1-0.6c0-0.5-0.2-0.9-0.6-1.2c-0.1-0.1-0.1-0.1-0.1-0.2
			c0-0.1,0-0.2,0.1-0.3c0.1-0.1,0.1-0.1,0.3-0.1c0.2,0,0.4,0,0.7,0.1c0.3,0.1,0.5,0.2,0.6,0.3c0.1,0.1,0.1,0.2,0.1,0.5v0
			c0,0.1,0,0.2,0.1,0.3c0,0.1,0.1,0.2,0.2,0.2c0.2,0,0.3,0.1,0.5,0.1c0.2,0,0.3,0,0.4-0.1c0.1,0,0.3,0,0.4,0c0.3,0,0.4,0.1,0.4,0.3
			c0,0.2-0.1,0.4-0.3,0.6c-0.2,0.2-0.5,0.4-0.8,0.6c-0.3,0.2-0.7,0.4-1.3,0.5c-0.2,0.1-0.3,0.2-0.4,0.4c-0.3,0.9-0.6,1.7-0.9,2.4
			c0,0.1-0.1,0.2-0.1,0.2c0,0.1,0,0.1,0.1,0.1l0.1,0c0.2,0,0.4-0.1,0.5-0.1c1,0,1.6,0.4,1.9,1.3c0.1,0.1,0.1,0.2,0.1,0.2
			c0.1,0,0.1-0.1,0.2-0.2c0.3-0.7,0.7-1.3,1.3-2c0.4-0.4,0.8-0.7,1.3-1c0.5-0.3,1-0.4,1.6-0.4C557.8,261.6,558.1,261.8,558.5,262z
			 M551.8,258.9c0,0-0.1,0.1-0.2,0.3c0,0.2,0,0.3,0.1,0.2l0.2-0.1c0.1,0,0.1-0.1,0.1-0.1s0-0.1-0.1-0.2L551.8,258.9L551.8,258.9z
			 M557.1,263.7c0.3-0.4,0.5-0.7,0.5-1c0-0.4-0.2-0.6-0.7-0.6c-0.3,0-0.7,0.1-1.1,0.3c-0.4,0.2-0.8,0.5-1.1,0.9
			c-0.2,0.3-0.5,0.6-0.7,1c-0.2,0.4-0.4,0.8-0.5,1.1c0,0.1-0.1,0.2-0.1,0.3c0,0.1,0,0.1,0,0.1s0,0,0.1,0l0.4-0.2
			c0.8-0.4,1.4-0.7,1.9-1C556.4,264.5,556.8,264.1,557.1,263.7z"/>
	</g>
	<g class="st1">
		<path class="st2" d="M580.9,259.1c0.3,0.3,0.6,0.6,0.7,0.8c0,0.1,0.1,0.2,0.1,0.2c0,0.1,0,0.1-0.1,0.2c-0.1,0-0.2,0.1-0.3,0.1
			h-2.2c-0.1,0-0.2,0-0.3,0.1c-0.1,0.1-0.1,0.2-0.1,0.3v0.4l0.1,1.1v0.1c0,0.1,0,0.3-0.1,0.3c-0.1,0.1-0.3,0.2-0.5,0.2
			c-0.2,0.1-0.4,0.1-0.5,0.1c-0.1,0-0.2,0-0.2-0.1c-0.1-0.1-0.1-0.2-0.1-0.3c0-0.3,0.1-0.7,0.1-1l0-0.4v-0.5c0-0.1,0-0.2-0.1-0.3
			c-0.1-0.1-0.2-0.1-0.3-0.1h-1.7c-0.1,0-0.2,0-0.3,0.1c-0.1,0.1-0.1,0.2-0.1,0.3v0.4l0.1,1.2v0.1c0,0.1,0,0.2-0.1,0.3
			c-0.1,0.1-0.3,0.2-0.5,0.2c-0.2,0.1-0.4,0.1-0.5,0.1c-0.1,0-0.2,0-0.2-0.1c-0.1-0.1-0.1-0.2-0.1-0.3c0-0.3,0.1-0.6,0.1-1
			c0-0.2,0-0.3,0-0.5v-0.5c0-0.1,0-0.2-0.1-0.3c-0.1-0.1-0.2-0.1-0.3-0.1h-0.4c-0.3,0-0.5,0.1-0.7,0.1c-0.1,0-0.3,0.1-0.3,0.1
			s-0.1,0.1-0.1,0.1l0.1,0.1c0,0.1,0.1,0.1,0.1,0.2c0,0.1,0,0.1-0.1,0.2c-0.1,0.1-0.2,0.1-0.3,0.1h-1.8c-0.1,0-0.2,0-0.3,0.1
			c-0.1,0.1-0.1,0.2-0.1,0.3v2.5c0,0.2,0.1,0.3,0.3,0.3l0.1,0l1.3-0.5c0.1,0,0.2-0.1,0.3-0.1s0.1,0,0.1,0.1v0c0,0.1-0.1,0.2-0.2,0.3
			l-1.7,1.1c-0.2,0.1-0.3,0.3-0.3,0.5v5.7c0,0.4,0,0.7-0.1,0.9c-0.1,0.2-0.2,0.4-0.4,0.6c-0.2,0.2-0.5,0.3-0.9,0.3h-0.1
			c-0.2,0-0.3-0.1-0.4-0.3c-0.1-0.3-0.2-0.5-0.3-0.6c-0.2-0.2-0.5-0.3-0.9-0.4c-0.2-0.1-0.3-0.1-0.3-0.2c0-0.1,0.1-0.1,0.3-0.1
			c0.3,0,0.7,0,1,0.1l0.5,0c0.1,0,0.2,0,0.3-0.1c0.1,0,0.1-0.1,0.1-0.3v-4.5c0-0.2-0.1-0.3-0.2-0.3c-0.1,0-0.2,0-0.2,0.1
			c-0.1,0.1-0.2,0.1-0.3,0.2s-0.3,0.2-0.4,0.2c-0.2,0.1-0.2,0.2-0.3,0.2l0,0.1c0,0.1-0.1,0.1-0.2,0.1c-0.1,0-0.2-0.1-0.3-0.3l-0.4-1
			c0-0.1,0-0.2,0-0.2c0-0.1,0.1-0.2,0.3-0.3l1.8-0.6c0.2-0.1,0.3-0.2,0.3-0.4v-3.2c0-0.1,0-0.2-0.1-0.3c-0.1-0.1-0.2-0.1-0.3-0.1
			h-0.4c-0.3,0-0.6,0.1-1,0.1c-0.1,0-0.1,0-0.2,0c-0.1,0-0.3-0.1-0.3-0.2l-0.1-0.1c0-0.1-0.1-0.1-0.1-0.2c0-0.2,0.1-0.2,0.3-0.2
			c0.3,0,0.7,0,1.2,0.1h0.4c0.1,0,0.2,0,0.3-0.1c0.1-0.1,0.1-0.1,0.1-0.3c0-1.2-0.1-2.3-0.2-3.2v-0.1c0-0.2,0.1-0.3,0.3-0.3
			c0.1,0,0.1,0,0.1,0c0.6,0.2,0.9,0.3,1.2,0.4c0.2,0.1,0.3,0.2,0.3,0.3c0,0.1-0.1,0.1-0.2,0.2l-0.1,0c-0.2,0.1-0.3,0.3-0.3,0.5v2.2
			c0,0.3,0.1,0.4,0.3,0.4s0.3-0.1,0.4-0.3l0.2-0.3c0-0.1,0.1-0.2,0.2-0.3c0.1-0.1,0.1-0.2,0.2-0.2s0.1-0.1,0.1-0.1
			c0,0,0.1,0,0.2,0.1c0.2,0.1,0.3,0.3,0.5,0.4c0-0.1-0.1-0.1-0.1-0.2c0-0.2,0.1-0.2,0.3-0.2c0.3,0,0.6,0,1.2,0.1h0.4
			c0.3,0,0.4-0.1,0.4-0.4c0-0.8-0.1-1.4-0.1-2v-0.1c0-0.2,0.1-0.3,0.3-0.3c0,0,0.1,0,0.2,0c0.5,0.1,0.9,0.3,1.1,0.4
			c0.2,0.1,0.3,0.2,0.3,0.3c0,0,0,0.1-0.1,0.1c-0.2,0.1-0.3,0.3-0.3,0.5v1.1c0,0.1,0,0.2,0.1,0.3c0.1,0.1,0.2,0.1,0.3,0.1h1.7
			c0.3,0,0.4-0.1,0.4-0.4c0-0.8-0.1-1.4-0.1-2v-0.1c0-0.2,0.1-0.3,0.3-0.3c0,0,0.1,0,0.2,0c0.5,0.2,0.9,0.3,1.1,0.4
			c0.2,0.1,0.3,0.2,0.3,0.2c0,0,0,0.1-0.1,0.1c0,0-0.1,0.1-0.1,0.1l0,0c-0.2,0.1-0.3,0.3-0.3,0.5v1.1c0,0.1,0,0.2,0.1,0.3
			c0.1,0.1,0.2,0.1,0.3,0.1h0.1c0.2,0,0.4-0.1,0.5-0.3l0.2-0.3c0,0,0.1-0.1,0.2-0.3s0.1-0.2,0.2-0.3c0.1-0.1,0.1-0.1,0.2-0.1
			C580.4,258.6,580.6,258.8,580.9,259.1z M580.5,263.3c0.3,0.2,0.5,0.4,0.7,0.6c0,0,0.1,0.1,0.1,0.2c0,0.1,0,0.2-0.1,0.2l-0.2,0.1
			c-0.1,0-0.2,0.1-0.2,0.2c-0.1,0.1-0.1,0.1-0.1,0.3v3.5c0,1.3,0.1,2.6,0.1,4v0.1c0,0.2-0.1,0.3-0.2,0.4c-0.2,0.1-0.3,0.2-0.5,0.2
			s-0.4,0.1-0.5,0.1c-0.1,0-0.2,0-0.2-0.1c0-0.1-0.1-0.1-0.1-0.2s0-0.1,0-0.2l0-0.2c0-0.2-0.1-0.4-0.4-0.4h-5.6
			c-0.1,0-0.2,0-0.3,0.1c-0.1,0.1-0.1,0.2-0.1,0.3v0.4c0,0.1-0.1,0.2-0.3,0.3c-0.2,0.1-0.5,0.2-0.7,0.2c-0.1,0-0.2,0-0.3-0.1
			c-0.1-0.1-0.1-0.2-0.1-0.3c0.1-1.2,0.1-2.5,0.2-4v-2.2c0-1.2-0.1-2.2-0.2-3.2v-0.1c0-0.2,0.1-0.3,0.2-0.3c0.1,0,0.1,0,0.2,0
			l0.9,0.4c0.2,0.1,0.3,0.1,0.5,0.1h5.6c0.2,0,0.3-0.1,0.5-0.2l0.1-0.2c0,0,0.1-0.1,0.2-0.2s0.2-0.2,0.2-0.2
			C580,262.9,580.2,263,580.5,263.3z M573.1,267.4c0.1,0.1,0.2,0.1,0.3,0.1h1.7c0.1,0,0.2,0,0.3-0.1c0.1-0.1,0.1-0.2,0.1-0.3v-2.5
			c0-0.1,0-0.2-0.1-0.3c-0.1-0.1-0.2-0.1-0.3-0.1h-1.7c-0.1,0-0.2,0-0.3,0.1c-0.1,0.1-0.1,0.2-0.1,0.3v2.5
			C573,267.3,573,267.4,573.1,267.4z M573.1,271.3c0.1,0.1,0.2,0.1,0.3,0.1h1.7c0.1,0,0.2,0,0.3-0.1c0.1-0.1,0.1-0.2,0.1-0.3v-2.6
			c0-0.1,0-0.2-0.1-0.3c-0.1-0.1-0.2-0.1-0.3-0.1h-1.7c-0.1,0-0.2,0-0.3,0.1c-0.1,0.1-0.1,0.2-0.1,0.3v2.6
			C573,271.2,573,271.3,573.1,271.3z M576.8,267.4c0.1,0.1,0.2,0.1,0.3,0.1h1.8c0.1,0,0.2,0,0.3-0.1c0.1-0.1,0.1-0.2,0.1-0.3v-2.5
			c0-0.1,0-0.2-0.1-0.3c-0.1-0.1-0.2-0.1-0.3-0.1h-1.8c-0.1,0-0.2,0-0.3,0.1c-0.1,0.1-0.1,0.2-0.1,0.3v2.5
			C576.7,267.3,576.8,267.4,576.8,267.4z M576.8,271.3c0.1,0.1,0.2,0.1,0.3,0.1h1.8c0.1,0,0.2,0,0.3-0.1c0.1-0.1,0.1-0.2,0.1-0.3
			v-2.6c0-0.1,0-0.2-0.1-0.3c-0.1-0.1-0.2-0.1-0.3-0.1h-1.8c-0.1,0-0.2,0-0.3,0.1c-0.1,0.1-0.1,0.2-0.1,0.3v2.6
			C576.7,271.2,576.8,271.3,576.8,271.3z"/>
	</g>
	<g class="st1">
		<path class="st2" d="M589.9,271.2c-0.4-0.2-0.8-0.5-1.3-0.9c-1.2-1.1-1.8-2.6-1.8-4.8c0-0.6,0-1.2,0.1-1.9
			c0.1-0.6,0.1-0.9,0.1-1.1c0-0.4-0.1-0.7-0.2-1s-0.3-0.5-0.6-0.7c-0.1-0.1-0.1-0.1-0.1-0.2s0-0.1,0.1-0.1c0.1,0,0.2,0,0.2,0
			c0.3,0,0.6,0.1,1,0.2c0.3,0.1,0.6,0.4,0.8,0.6c0.2,0.3,0.3,0.5,0.3,0.8c0,0.2,0,0.3-0.1,0.6s-0.1,0.4-0.2,0.6
			c-0.1,0.5-0.3,0.9-0.3,1.3c-0.1,0.4-0.1,0.8-0.1,1.2c0,0.6,0.1,1.2,0.3,1.7c0.2,0.5,0.5,0.9,0.8,1.2c0.3,0.3,0.6,0.5,0.8,0.5
			c0.2,0,0.3-0.1,0.3-0.4c0.3-1.1,0.5-1.8,0.7-2.3c0.1-0.2,0.2-0.3,0.3-0.3c0,0,0.1,0,0.1,0.1l-0.1,0.3c-0.1,0.6-0.2,1.2-0.2,1.7
			c0,0.2,0,0.6,0.1,1c0,0.2,0.1,0.4,0.2,0.7c0.1,0.3,0.2,0.6,0.2,0.7c0,0.2-0.1,0.3-0.2,0.5s-0.3,0.2-0.5,0.2
			C590.6,271.5,590.3,271.4,589.9,271.2z M597.9,266.7c-0.1-0.1-0.2-0.3-0.3-0.5c0,0-0.1-0.3-0.2-0.7s-0.3-0.8-0.5-1.2
			c-0.2-0.4-0.5-0.7-0.8-0.8c-0.3-0.1-0.7-0.2-1.2-0.2h-0.3c-0.1,0-0.2,0-0.2-0.1c0-0.1,0.1-0.1,0.2-0.2c0.4-0.1,0.7-0.2,1.2-0.2
			c0.9,0,1.6,0.3,2.2,0.8c0.4,0.4,0.8,0.8,0.9,1.2c0.2,0.4,0.3,0.8,0.3,1c0,0.3-0.1,0.5-0.3,0.7s-0.4,0.3-0.6,0.3
			C598.2,266.9,598,266.8,597.9,266.7z"/>
	</g>
	<g class="st1">
		<path class="st2" d="M617.6,259.1c0.4,0.2,0.6,0.5,0.6,0.9c0,0.2-0.1,0.3-0.2,0.4c-0.1,0.1-0.2,0.1-0.4,0.1c-0.2,0-0.5,0-0.9-0.1
			c-0.5-0.1-0.9-0.1-1.2-0.1c-0.3,0-0.6,0-0.9,0.1c-0.3,0.1-0.5,0.1-0.7,0.2c-0.5,0.2-1,0.7-1.4,1.5c-0.4,0.8-0.7,1.6-0.9,2.6
			c-0.2,1-0.3,1.8-0.3,2.5c0,1.2,0.2,2,0.5,2.5s1,0.7,1.8,0.7l0.5,0c0.4,0,0.6-0.1,0.8-0.1c0.4,0,0.8,0.1,1,0.2
			c0.3,0.1,0.4,0.3,0.4,0.6c0,0.4-0.2,0.6-0.7,0.7c-0.5,0.1-1,0.2-1.5,0.2c-1.5,0-2.5-0.4-3.1-1.1s-0.9-1.9-0.9-3.5
			c0-1.3,0.3-2.5,0.8-3.6c0.5-1.1,1.2-2.1,2-2.8c0.3-0.3,0.5-0.5,0.4-0.4l-0.1,0c-0.4,0.1-1.1,0.3-1.9,0.6c-0.8,0.3-1.7,0.7-2.5,1.1
			c-0.1,0.1-0.3,0.2-0.4,0.2c-0.1,0.1-0.2,0.1-0.3,0.2c-0.3,0.2-0.5,0.3-0.6,0.4c-0.2,0.1-0.4,0.1-0.6,0.1c-0.3,0-0.7-0.2-1.1-0.5
			s-0.6-0.7-0.8-1c0-0.1-0.1-0.2-0.1-0.2c0-0.1,0.1-0.2,0.2-0.2c0.1,0,0.2,0,0.2,0.1c0.2,0.1,0.3,0.2,0.5,0.2
			c0.1,0.1,0.3,0.1,0.5,0.1c0.1,0,0.2,0,0.3,0c0.1,0,0.5-0.2,1.2-0.4c1.2-0.4,2.4-0.8,3.5-1.1c1.1-0.3,2.1-0.6,3.1-0.7
			c0.3,0,0.6-0.1,1-0.3c0.2-0.1,0.4-0.2,0.6-0.2c0.2,0,0.3-0.1,0.5-0.1C616.8,258.8,617.2,258.9,617.6,259.1z"/>
	</g>
	<g class="st1">
		<path class="st2" d="M628.3,271.2c-0.4-0.2-0.8-0.5-1.3-0.9c-1.2-1.1-1.8-2.6-1.8-4.8c0-0.6,0-1.2,0.1-1.9
			c0.1-0.6,0.1-0.9,0.1-1.1c0-0.4-0.1-0.7-0.2-1c-0.1-0.3-0.3-0.5-0.6-0.7c-0.1-0.1-0.1-0.1-0.1-0.2s0-0.1,0.1-0.1
			c0.1,0,0.2,0,0.2,0c0.3,0,0.6,0.1,1,0.2c0.3,0.1,0.6,0.4,0.8,0.6c0.2,0.3,0.3,0.5,0.3,0.8c0,0.2,0,0.3-0.1,0.6
			c-0.1,0.2-0.1,0.4-0.2,0.6c-0.1,0.5-0.3,0.9-0.3,1.3c-0.1,0.4-0.1,0.8-0.1,1.2c0,0.6,0.1,1.2,0.3,1.7c0.2,0.5,0.5,0.9,0.8,1.2
			s0.6,0.5,0.8,0.5c0.2,0,0.3-0.1,0.3-0.4c0.3-1.1,0.5-1.8,0.7-2.3c0.1-0.2,0.2-0.3,0.3-0.3c0,0,0.1,0,0.1,0.1l-0.1,0.3
			c-0.1,0.6-0.2,1.2-0.2,1.7c0,0.2,0,0.6,0.1,1c0,0.2,0.1,0.4,0.2,0.7c0.1,0.3,0.2,0.6,0.2,0.7c0,0.2-0.1,0.3-0.2,0.5
			s-0.3,0.2-0.5,0.2C629,271.5,628.7,271.4,628.3,271.2z M636.2,266.7c-0.1-0.1-0.2-0.3-0.3-0.5c0,0-0.1-0.3-0.2-0.7
			c-0.1-0.4-0.3-0.8-0.5-1.2c-0.2-0.4-0.5-0.7-0.8-0.8c-0.3-0.1-0.7-0.2-1.2-0.2H633c-0.1,0-0.2,0-0.2-0.1c0-0.1,0.1-0.1,0.2-0.2
			c0.4-0.1,0.7-0.2,1.2-0.2c0.9,0,1.6,0.3,2.2,0.8c0.4,0.4,0.8,0.8,0.9,1.2c0.2,0.4,0.3,0.8,0.3,1c0,0.3-0.1,0.5-0.3,0.7
			s-0.4,0.3-0.6,0.3C636.6,266.9,636.4,266.8,636.2,266.7z"/>
	</g>
	<g class="st1">
		<path class="st2" d="M646.2,272.4c-0.2-0.3-0.4-0.7-0.5-1.3c-0.4-1.2-0.7-2-0.9-2.5c-0.3-0.5-0.6-1.1-1-1.7
			c-0.4-0.6-0.6-0.9-0.7-1.2c-0.1-0.2-0.2-0.5-0.2-0.7c0-0.2,0.1-0.4,0.2-0.7c0.1-0.3,0.3-0.6,0.6-1c1-1.6,1.7-2.9,2.2-4
			c0.1-0.3,0.2-0.5,0.2-0.7c0-0.3-0.1-0.5-0.3-0.7c-0.1-0.1-0.2-0.1-0.3-0.2c-0.1-0.1-0.2-0.1-0.2-0.2c0-0.1,0.1-0.1,0.4-0.1
			c0.2,0,0.5,0.1,0.8,0.2c0.3,0.1,0.6,0.3,0.9,0.4c0.3,0.2,0.5,0.5,0.5,0.9c0,0.2,0,0.4-0.1,0.6c-0.2,0.4-0.4,0.7-0.6,1
			s-0.6,0.7-1,1.3c-0.8,0.9-1.5,1.8-2.1,2.6c-0.1,0.2-0.2,0.4-0.2,0.6s0.1,0.4,0.3,0.6c0.9,1,1.8,2,2.6,3.2s1.2,2.2,1.2,3.2
			c0,0.3-0.1,0.5-0.2,0.6c-0.1,0.2-0.3,0.2-0.5,0.2C646.6,272.8,646.4,272.7,646.2,272.4z"/>
	</g>
	<g class="st1">
		<path class="st2" d="M664.7,272.8c-0.4-0.2-0.7-0.5-0.9-0.9c-0.2-0.4-0.3-0.8-0.3-1.3c0-0.5,0.1-0.9,0.3-1.3
			c0.2-0.4,0.5-0.7,0.9-0.9c0.4-0.2,0.8-0.3,1.3-0.3s0.9,0.1,1.3,0.3c0.4,0.2,0.7,0.5,0.9,0.9c0.2,0.4,0.3,0.8,0.3,1.3
			c0,0.5-0.1,0.9-0.3,1.3s-0.5,0.7-0.9,0.9s-0.8,0.3-1.3,0.3S665,273.1,664.7,272.8z M667.3,272c0.4-0.4,0.6-0.8,0.6-1.4
			c0-0.5-0.2-1-0.6-1.4c-0.4-0.4-0.8-0.6-1.4-0.6c-0.5,0-1,0.2-1.4,0.6c-0.4,0.4-0.6,0.8-0.6,1.4c0,0.6,0.2,1,0.6,1.4
			c0.4,0.4,0.8,0.6,1.4,0.6S666.9,272.4,667.3,272z"/>
	</g>
	<path class="st2" d="M59.3,10.4L65.9,1h5.3l0.4,39.3h-4.8c-3-12-7.5-20.8-13.4-26.4C48,8.6,40.7,5.6,33.1,5.6
		c-6.4,0-11.7,1.9-15.7,5.8c-4,3.6-6.2,8.7-6.1,14.1c-0.1,3.2,0.7,6.3,2.3,9.1c1.7,2.7,4.1,4.9,7,6.3c3.1,1.6,8.9,3.4,17.5,5.2
		c12,2.6,20.4,5.3,25.3,7.9c4.5,2.3,8.2,5.8,10.8,10.1c2.5,4.3,3.7,9.3,3.6,14.2c0,9.7-3.3,17.8-9.8,24.2c-6.5,6.4-15,9.6-25.3,9.6
		c-10.7,0.2-21-3.7-29-10.8l-8.2,10.1H0V69.6h5.2c2,11.5,6.6,20.6,13.7,27.3c7.1,6.7,15.1,10,24,10c7.2,0,13.1-2.1,17.6-6.4
		c4.4-3.9,6.9-9.6,6.8-15.5c0.1-3.2-0.8-6.4-2.6-9.1c-2-2.9-4.8-5.2-8.1-6.6c-3.7-1.8-11-3.9-21.8-6.5c-11.9-2.8-20-6-24.3-9.5
		c-6.1-5-9.1-12-9.1-21.1c0-9.5,3-17.2,9.1-23.3S24.3,0,33.7,0c4.4,0,8.8,0.8,12.9,2.4C51.3,4.4,55.6,7.1,59.3,10.4"/>
	<path class="st2" d="M149.7,87.1l1.7,2.7c-2,2.3-4.9,3.6-7.9,3.6c-2,0.1-4-0.6-5.6-1.8c-1.5-1.2-2.8-3.3-4-6.3
		c-3.1,3.2-5.8,5.4-8.1,6.5c-2.6,1.1-5.5,1.7-8.4,1.6c-4.7,0-8.2-1-10.6-3c-2.4-1.9-3.7-4.7-3.6-7.7c0-4.7,2.8-8.7,8.3-11.8
		c5.6-3.1,12.9-5.2,22.2-6.2v-6.9c0-2.4-1.1-4.8-3-6.3c-2.1-1.8-4.8-2.7-7.5-2.6c-2.5-0.1-5.1,0.5-7.3,1.7c-1.5,0.9-2.2,1.7-2.2,2.6
		c0.2,0.9,0.6,1.6,1.2,2.3c0.8,1,1.3,2.2,1.4,3.4c0,1.3-0.5,2.6-1.4,3.6c-1,0.9-2.3,1.4-3.7,1.4c-1.5,0-3-0.6-4.1-1.7
		c-1.1-1.1-1.7-2.7-1.6-4.2c0-3.2,1.8-6.1,5.4-8.8s8.3-4,14.2-4c5.4,0,9.5,1.2,12.4,3.5c2.7,2,4.3,5.2,4.3,8.6v24.9
		c-0.1,1.7,0.2,3.4,1.1,4.9c0.6,1,1.6,1.6,2.8,1.6C147.2,88.5,148.6,88,149.7,87.1 M133.8,67.9c-8.2,1.1-14.1,3-17.5,5.5
		c-2.6,2-4,5-3.8,8.3c-0.1,2.1,0.6,4.2,2,5.9c1.3,1.4,3.2,2.2,5.2,2.1c3.8,0,7.4-1.6,9.9-4.3c2.8-2.9,4.3-6.9,4.2-10.9L133.8,67.9z"
		/>
	<path class="st2" d="M176.4,45.7c0.7,3.2,1.1,6.5,1.3,9.8c1.7-3,4.1-5.6,7-7.6c2.4-1.5,5.2-2.3,8.1-2.2c3.2,0,6.3,1,8.9,2.9
		c3,2.1,5.4,5,6.9,8.4c1.8,3.9,2.7,8.2,2.6,12.5c0,7.4-2.2,13.5-6.5,18.1c-3.2,3.7-7.9,5.9-12.9,5.8c-2.7,0-5.4-0.7-7.7-2.2
		c-2.5-1.7-4.6-3.9-6.1-6.5v30.9c-0.1,1.1,0.3,2.2,1,3c1,0.8,2.3,1.2,3.6,1.2h3.4v3.4h-24.3v-3.4h3.4c1.2,0.1,2.5-0.2,3.5-0.9
		c0.8-0.6,1.2-1.5,1.2-2.4V56.1c0-2.2-0.5-3.8-1.6-4.7c-1.1-0.9-3.2-1.4-6.4-1.5v-3.3L176.4,45.7z M190.5,50.2
		c-3.5,0-6.5,1.7-8.9,5.1s-3.7,8.3-3.7,14.8c0,6.5,1.2,11.3,3.5,14.4c2,3,5.4,4.7,9,4.7c3.1,0.1,6.1-1.4,7.9-4
		c2.4-3.5,3.5-8.6,3.5-15.4c0-7.1-1.1-12.1-3.2-15.1C196.9,51.9,193.8,50.1,190.5,50.2"/>
	<path class="st2" d="M238.4,45.7c0.7,3.2,1.1,6.5,1.3,9.8c1.7-3,4.1-5.6,7-7.6c2.4-1.5,5.2-2.3,8.1-2.2c3.2,0,6.3,1,8.9,2.9
		c3,2.1,5.4,5,6.9,8.4c1.8,3.9,2.7,8.2,2.6,12.5c0,7.4-2.2,13.5-6.5,18.1c-3.2,3.7-7.9,5.9-12.9,5.8c-2.7,0-5.4-0.7-7.7-2.2
		c-2.5-1.7-4.6-3.9-6.1-6.5v18.4c-0.1,1.1,0.3,2.2,1,3c1,0.8,2.3,1.2,3.6,1.2h3.4v3.4h-24.3v-3.4h3.4c1.2,0.1,2.5-0.2,3.5-0.9
		c0.8-0.6,1.2-1.5,1.2-2.4V56.1c0-2.2-0.5-3.8-1.6-4.7c-1.1-0.9-3.2-1.4-6.4-1.5v-3.3L238.4,45.7z M252.6,50.2
		c-3.5,0-6.5,1.7-8.9,5.1s-3.7,8.3-3.7,14.8c0,6.5,1.2,11.3,3.5,14.4c2,2.9,5.4,4.7,9,4.7c3.1,0.1,6.1-1.4,7.9-4
		c2.4-3.5,3.5-8.6,3.5-15.4c0-7.1-1.1-12.1-3.2-15.1C259,51.9,255.9,50.1,252.6,50.2"/>
	<path class="st2" d="M310.5,45.2c5.9-0.1,11.5,2.3,15.4,6.6c4.2,4.4,6.2,10.2,6.2,17.5c0.1,4.4-0.8,8.8-2.8,12.8
		c-1.8,3.5-4.6,6.4-8,8.3c-3.4,2-7.2,3.1-11.1,3.1c-5.7,0.1-11.2-2.4-15-6.7c-4.1-4.5-6.1-10.3-6.1-17.4c0-7.2,2.1-13,6.2-17.4
		C299.1,47.6,304.7,45.1,310.5,45.2 M310.5,48.7c-3.6,0-6.6,1.6-8.9,4.9c-2.3,3.3-3.5,8.5-3.5,15.6c0,7.2,1.2,12.5,3.5,15.8
		s5.3,5,9,5c3.7,0,7.2-1.9,9.2-5c2.3-3.3,3.5-8.8,3.5-16.4c0-7-1.2-12.1-3.5-15.3C317.6,50.3,314.1,48.6,310.5,48.7"/>
	<path class="st2" d="M343.8,46.6l16.4-0.8v18.4c1.7-6.1,3.9-10.6,6.3-13.7c2.1-2.9,5.5-4.7,9.1-4.7c2.2-0.1,4.3,0.7,5.9,2.3
		c1.5,1.6,2.3,3.8,2.2,6c0.1,1.7-0.4,3.4-1.5,4.8c-0.9,1.1-2.3,1.7-3.7,1.7c-1.3,0.1-2.6-0.5-3.5-1.5c-0.9-1.1-1.4-2.5-1.3-3.9
		c0-1.1,0.3-2.1,0.8-3c0.3-0.5,0.6-1,0.7-1.5c0-0.5-0.3-0.7-0.9-0.7c-1.3,0-2.8,0.8-4.5,2.3c-2.5,2.5-4.4,5.6-5.4,8.9
		c-1.9,5.9-2.9,10.6-2.9,14.1V85c-0.1,1,0.4,1.9,1.2,2.5c1.2,0.7,2.6,1,4,0.9h5.8v3.6h-28.3v-3.6h4.5c1.2,0.1,2.4-0.2,3.4-0.9
		c0.7-0.5,1.2-1.3,1.2-2.2v-29c0-2.2-0.5-3.8-1.4-4.8c-1.1-1.1-2.5-1.6-4-1.5h-4L343.8,46.6z"/>
	<path class="st2" d="M418.5,45.2c5.9-0.1,11.5,2.3,15.4,6.6c4.2,4.4,6.2,10.2,6.2,17.5c0.1,4.4-0.8,8.8-2.8,12.8
		c-1.8,3.5-4.6,6.4-8,8.3c-3.4,2-7.2,3.1-11.1,3.1c-5.7,0.1-11.2-2.4-15-6.7c-4.1-4.5-6.1-10.3-6.1-17.4c0-7.2,2.1-13,6.2-17.4
		C407.1,47.6,412.6,45.1,418.5,45.2 M418.4,48.6c-3.6,0-6.6,1.6-8.9,4.9c-2.3,3.3-3.5,8.5-3.5,15.6c0,7.2,1.2,12.5,3.5,15.8
		c2.3,3.3,5.3,5,9,5c3.7,0,7.2-1.9,9.2-5c2.3-3.3,3.5-8.8,3.5-16.4c0-7-1.2-12.1-3.5-15.3C425.6,50.3,422.1,48.6,418.4,48.6"/>
	<path class="st2" d="M80.2,119.4H106l65,84.7v-61.3c0-6.2-1.4-10.7-4.2-13.7c-2.6-2.7-6.4-4.1-11.5-4.2v-5.5H193v5.5
		c-3.9,0-6.7,0.5-8.6,1.6c-2.2,1.4-3.9,3.4-5,5.8c-1.4,2.9-2.2,6-2.1,9.3v85.6h-6.8L103.1,139v65c0,5.9,1.5,10.3,4.4,13.2
		s7.6,4.4,13.8,4.5v5.5H80.2v-5.5c5.2-0.2,9.2-1.9,12.2-5.1c3-3.1,4.6-7.3,4.5-11.7v-73l-1.3-1.4c-2.4-2.6-4.1-4.2-5.2-4.7
		c-1.7-0.7-3.6-1.1-5.4-1h-4.9V119.4z"/>
	<path class="st2" d="M251.4,186.8h-32.6c0.2,6.9,1.5,11.8,3.9,14.7c2.6,3.1,6.5,4.9,10.6,4.8c6.3,0,11.4-3.6,15.3-10.8l3.2,1.4
		c-4.7,9.2-11.6,13.8-20.5,13.8c-5.8,0.1-11.4-2.3-15.4-6.6c-4.2-4.4-6.2-10-6.2-16.9c0-7.4,2-13.3,6.1-17.9
		c3.8-4.4,9.3-6.9,15.1-6.8c4.1-0.1,8.1,1.1,11.4,3.4c3.3,2.4,5.9,5.9,7.2,9.8C250.8,179.2,251.4,183,251.4,186.8 M218.8,183.4h19.7
		c1,0.1,2.1-0.4,2.7-1.2c0.8-1.2,1.1-2.6,1-4.1c0.1-3.3-1.1-6.6-3.3-9.1c-1.9-2.4-4.8-3.7-7.8-3.7c-3.4,0-6.6,1.7-8.6,4.5
		C220.1,172.8,218.9,177.3,218.8,183.4"/>
	<path class="st2" d="M263.7,163.7h22v3.4c-3.6,0.1-5.3,0.8-5.3,1.9c0.1,0.7,0.4,1.4,0.9,2l7.8,10.4l7.7-9.6c0.5-0.6,0.8-1.3,0.8-2
		c0-1.4-2-2.3-5.9-2.6v-3.4h19.2v3.4c-4.6,0.8-8.1,2.7-10.6,5.8l-9,11.2l14.1,18.2c0.8,1.1,1.8,2,3.1,2.6c1.6,0.6,3.2,0.8,4.9,0.8
		v3.6h-23.3v-3.6h1.7c1.3,0.1,2.6-0.1,3.8-0.5c0.5-0.3,0.8-0.6,0.8-1c-0.1-0.7-0.5-1.3-0.9-1.8l-9.1-12.1l-7.3,9.4
		c-0.8,0.9-1.4,2-1.6,3.2c0,0.8,0.4,1.5,1.1,1.8c1.6,0.7,3.3,1,5.1,0.9v3.6h-19.8v-3.6c1.9-0.1,3.8-0.6,5.5-1.5
		c2.2-1.4,4.2-3.2,5.8-5.2l9-11.5l-13.4-17.3c-1.5-1.9-3.8-3-7-3.1L263.7,163.7z"/>
	<path class="st2" d="M338.8,145.2h3.3v18.6h14.7v4.5h-14.7v29.2c-0.1,2.1,0.5,4.2,1.8,5.8c1.1,1.3,2.8,2.1,4.6,2
		c2.3,0,4.4-1.2,5.6-3.1c1.6-2,2.5-5.4,2.7-10.1h3.3c-0.2,6.1-1.6,10.5-4.1,13.5c-2.5,2.9-6.1,4.5-10,4.4c-3.8,0-6.7-1-8.8-3.1
		c-2.2-2.1-3.3-5.1-3.2-8.1v-30.6H326v-3.4c3.2-0.4,6.2-2,8.2-4.5C337.1,156.7,338.6,151.6,338.8,145.2"/>
	<path class="st2" d="M363.9,120h45.4v5.5h-7.9c-3.3,0-5.5,0.4-6.6,1.2c-1.1,0.7-1.8,1.9-1.7,3.1c0.1,1.6,0.6,3.1,1.3,4.4l0.6,1.5
		l28.4,72.2l25.1-68.9c0.5-1.6,0.8-3.3,0.7-5c0.1-2.4-0.7-4.7-2.4-6.3c-1.8-1.6-4.1-2.4-6.5-2.3h-7.4V120h39.8v5.5h-3.2
		c-2.4,0-4.8,1.1-7.3,3.4c-2.4,2.3-4.6,6-6.5,11.3l-33.3,90.1h-5.3L379,134c-1.3-3.2-2.8-5.4-4.6-6.7c-2.1-1.3-4.6-2-7-1.9h-3.5
		L363.9,120z"/>
	<path class="st2" d="M476.5,164.3l18.1-0.5v39.2c-0.1,0.8,0.2,1.7,0.8,2.3c0.8,0.7,1.8,1,2.8,1h5.1v3.6h-25.9v-3.6h4.8
		c1.1,0.1,2.3-0.3,3.1-1c0.7-0.8,1.1-1.9,1-3v-28.7c0.1-1.5-0.5-3-1.6-4.1c-1.3-1-3-1.5-4.6-1.4h-3.7L476.5,164.3z M489.1,137.1
		c1.5,0,2.8,0.6,3.8,1.7c1.1,1,1.7,2.4,1.7,3.9c0,1.4-0.6,2.8-1.6,3.8c-2.2,2.1-5.6,2-7.7-0.1c-2.1-2.2-2-5.6,0.1-7.7
		C486.4,137.7,487.7,137.2,489.1,137.1"/>
	<path class="st2" d="M521.9,192.7c2,5.6,4.3,9.5,6.9,11.6c2.7,2.2,6.1,3.3,9.6,3.2c3.5,0,6.2-0.8,8.1-2.3c1.8-1.4,2.9-3.6,2.8-5.9
		c0-1.3-0.3-2.5-1-3.6c-0.7-1-1.7-1.8-2.9-2.3c-3.1-1-6.3-1.7-9.6-2.2c-4.9-1-8.4-2-10.3-3.1c-1.9-1-3.5-2.6-4.5-4.4
		c-1.1-1.9-1.6-4-1.6-6.1c0-3.3,1.2-6.6,3.4-9.1c2.9-3.5,6.9-5.2,12.1-5.2c4,0,7.8,1.3,11,3.7l3.2-3.4h2l1.3,16.2h-3.3
		c-1.4-4.6-3.4-7.9-5.8-9.9c-2.5-2.1-5.7-3.1-9-3c-2.6-0.2-5.2,0.7-7.3,2.3c-1.7,1.3-2.6,3.4-2.6,5.5c0,1.9,0.9,3.7,2.4,4.8
		c1.6,1.3,4.7,2.3,9.3,3.1c3.6,0.5,7.1,1.3,10.5,2.3c2.5,0.8,4.6,2.4,6.2,4.5c1.5,2.2,2.3,4.8,2.2,7.4c0,3.9-1.7,7.7-4.7,10.2
		c-3.3,2.9-7.6,4.3-12,4.2c-4.6,0-9-1.6-12.5-4.5l-3.6,4.1h-2.6l-1-18.1L521.9,192.7z"/>
	<path class="st2" d="M568.3,164.3l18.1-0.5v39.2c-0.1,0.8,0.2,1.7,0.8,2.3c0.8,0.7,1.8,1,2.8,1h5.1v3.6h-25.9v-3.6h4.8
		c1.1,0.1,2.3-0.3,3.1-1c0.7-0.8,1.1-1.9,1-3v-28.7c0.1-1.5-0.5-3-1.6-4.1c-1.3-1-3-1.5-4.6-1.4h-3.7L568.3,164.3z M580.9,137.1
		c1.5,0,2.8,0.6,3.8,1.7c1.1,1,1.7,2.4,1.7,3.9c0,1.4-0.6,2.8-1.6,3.8c-2.2,2.1-5.6,2-7.7-0.1s-2-5.6,0.1-7.7
		C578.2,137.7,579.6,137.2,580.9,137.1"/>
	<path class="st2" d="M627.7,162.9c5.9-0.1,11.5,2.3,15.4,6.6c4.2,4.4,6.2,10.2,6.2,17.5c0.1,4.4-0.8,8.8-2.8,12.8
		c-1.8,3.5-4.6,6.4-8,8.3c-3.4,2-7.2,3.1-11.1,3.1c-5.7,0.1-11.2-2.4-15-6.7c-4.1-4.5-6.1-10.3-6.1-17.4c0-7.2,2.1-13,6.2-17.4
		C616.3,165.3,621.9,162.9,627.7,162.9 M627.7,166.4c-3.6,0-6.6,1.6-8.9,4.9c-2.3,3.3-3.5,8.5-3.5,15.6c0,7.2,1.2,12.5,3.5,15.8
		c2.3,3.3,5.3,5,9,5c3.7,0,7.2-1.9,9.2-5c2.3-3.3,3.5-8.8,3.5-16.4c0-7-1.2-12.1-3.5-15.3C634.8,168.1,631.4,166.3,627.7,166.4"/>
	<path class="st2" d="M661.8,164.3l15.1-0.9c0.7,3.3,1.1,6.6,1.4,10c1.8-3,4.2-5.6,7.2-7.4c2.8-1.7,6.1-2.5,9.4-2.5
		c2.6-0.1,5.3,0.5,7.6,1.8c2.2,1.3,3.9,3.3,4.9,5.6c1.3,2.7,1.9,5.6,1.8,8.6v22.2c-0.1,1.3,0.3,2.6,1.1,3.5c1.1,0.8,2.4,1.2,3.7,1
		h3.2v3.6h-24v-3.6h2.3c2.1,0,3.6-0.3,4.5-1c0.9-0.8,1.3-1.9,1.3-3.1v-19.5c0-4.2-0.6-7.4-1.9-9.4c-1.7-2.9-4.9-4.6-8.3-4.4
		c-3.6,0-7,1.6-9.2,4.4c-2.4,2.9-3.7,6.8-3.7,11.5v16.9c-0.1,1.3,0.3,2.6,1.1,3.5c1.1,0.8,2.4,1.2,3.8,1h3.2v3.6h-24.1v-3.6h3.2
		c1.3,0.1,2.6-0.3,3.6-1c0.8-0.6,1.2-1.5,1.2-2.4v-29.4c0.1-1.6-0.5-3.2-1.6-4.4c-1.3-1.1-2.9-1.6-4.5-1.5h-2.3L661.8,164.3z"/>
</g>
</svg>
